<?xml version="1.0" encoding="UTF-8"?><svg xmlns="http://www.w3.org/2000/svg" xmlns:xlink="http://www.w3.org/1999/xlink" clip-rule="evenodd" stroke-miterlimit="4.00" viewBox="0 0 1024 768"><desc>SVG generated by Keynote</desc><defs></defs><g transform="matrix(1.00, 0.00, -0.00, -1.00, 0.0, 768.0)"><path d="M 0.0 768.0 L 1024.0 768.0 L 1024.0 0.0 L 0.0 0.0 Z M 0.0 768.0 " fill="#000000"></path><g><clipPath id="clip-180"><path d="M 0.0 0.0 L 512.0 0.0 L 512.0 384.0 L 0.0 384.0 Z M 0.0 0.0 "></path></clipPath><g clip-path="url(#clip-180)"><image xlink:href="FCB50F2C102EB4466349A261A946982B.jpeg" width="578.00" height="384.00" transform="matrix(1.00, 0.00, -0.00, -1.00, -33.0, 384.0)"></image></g></g><path d="M 0.0 0.0 L 0.0 384.0 L 512.0 384.0 L 512.0 0.0 L 0.0 0.0 Z M 0.0 0.0 " fill="none" stroke="#000000" stroke-width="3.00" transform="matrix(1.00, 0.00, 0.00, -1.00, 0.0, 384.0)"></path><g><clipPath id="clip-181"><path d="M 0.0 384.0 L 512.0 384.0 L 512.0 768.0 L 0.0 768.0 Z M 0.0 384.0 "></path></clipPath><g clip-path="url(#clip-181)"><image xlink:href="F9073EED1758FA4581AE898D0F55F234.jpeg" width="1074.00" height="714.00" transform="matrix(1.00, 0.00, -0.00, -1.00, -281.0, 933.0)"></image></g></g><path d="M 0.0 0.0 L 0.0 384.0 L 512.0 384.0 L 512.0 0.0 L 0.0 0.0 Z M 0.0 0.0 " fill="none" stroke="#000000" stroke-width="3.00" transform="matrix(1.00, 0.00, 0.00, -1.00, 0.0, 768.0)"></path><g><clipPath id="clip-182"><path d="M 512.0 0.0 L 1024.0 0.0 L 1024.0 768.0 L 512.0 768.0 Z M 512.0 0.0 "></path></clipPath><g clip-path="url(#clip-182)"><image xlink:href="210D266CDC1F06C3A9137C6F4017DBBB.jpeg" width="1156.00" height="769.00" transform="matrix(1.00, 0.00, -0.00, -1.00, 190.0, 768.0)"></image></g></g><path d="M 0.0 0.0 L 0.0 768.0 L 512.0 768.0 L 512.0 0.0 L 0.0 0.0 Z M 0.0 0.0 " fill="none" stroke="#000000" stroke-width="3.00" transform="matrix(1.00, 0.00, 0.00, -1.00, 512.0, 768.0)"></path><text xml:space="preserve" font-family="Avenir-Light" font-size="19.0" fill="#FEFFFE" transform="matrix(1.00, 0.00, -0.00, -1.00, 50.0, 17.0)">D</text><text xml:space="preserve" font-family="Avenir-Light" font-size="19.0" fill="#FEFFFE" transform="matrix(1.00, 0.00, -0.00, -1.00, 67.1, 17.0)">R</text><text xml:space="preserve" font-family="Avenir-Light" font-size="19.0" fill="#FEFFFE" transform="matrix(1.00, 0.00, -0.00, -1.00, 81.4, 17.0)">I</text><text xml:space="preserve" font-family="Avenir-Light" font-size="19.0" fill="#FEFFFE" transform="matrix(1.00, 0.00, -0.00, -1.00, 89.3, 17.0)">V</text><text xml:space="preserve" font-family="Avenir-Light" font-size="19.0" fill="#FEFFFE" transform="matrix(1.00, 0.00, -0.00, -1.00, 103.6, 17.0)">I</text><text xml:space="preserve" font-family="Avenir-Light" font-size="19.0" fill="#FEFFFE" transform="matrix(1.00, 0.00, -0.00, -1.00, 111.6, 17.0)">N</text><text xml:space="preserve" font-family="Avenir-Light" font-size="19.0" fill="#FEFFFE" transform="matrix(1.00, 0.00, -0.00, -1.00, 129.3, 17.0)">G</text><text xml:space="preserve" font-family="Avenir-Light" font-size="19.0" fill="#FEFFFE" transform="matrix(1.00, 0.00, -0.00, -1.00, 147.1, 17.0)"> </text><text xml:space="preserve" font-family="Avenir-Light" font-size="19.0" fill="#FEFFFE" transform="matrix(1.00, 0.00, -0.00, -1.00, 155.1, 17.0)">T</text><text xml:space="preserve" font-family="Avenir-Light" font-size="19.0" fill="#FEFFFE" transform="matrix(1.00, 0.00, -0.00, -1.00, 169.0, 17.0)">H</text><text xml:space="preserve" font-family="Avenir-Light" font-size="19.0" fill="#FEFFFE" transform="matrix(1.00, 0.00, -0.00, -1.00, 185.7, 17.0)">E</text><text xml:space="preserve" font-family="Avenir-Light" font-size="19.0" fill="#FEFFFE" transform="matrix(1.00, 0.00, -0.00, -1.00, 200.0, 17.0)"> </text><text xml:space="preserve" font-family="Avenir-Light" font-size="19.0" fill="#FEFFFE" transform="matrix(1.00, 0.00, -0.00, -1.00, 208.0, 17.0)">A</text><text xml:space="preserve" font-family="Avenir-Light" font-size="19.0" fill="#FEFFFE" transform="matrix(1.00, 0.00, -0.00, -1.00, 224.0, 17.0)">L</text><text xml:space="preserve" font-family="Avenir-Light" font-size="19.0" fill="#FEFFFE" transform="matrix(1.00, 0.00, -0.00, -1.00, 236.5, 17.0)">A</text><text xml:space="preserve" font-family="Avenir-Light" font-size="19.0" fill="#FEFFFE" transform="matrix(1.00, 0.00, -0.00, -1.00, 252.5, 17.0)">S</text><text xml:space="preserve" font-family="Avenir-Light" font-size="19.0" fill="#FEFFFE" transform="matrix(1.00, 0.00, -0.00, -1.00, 266.1, 17.0)">K</text><text xml:space="preserve" font-family="Avenir-Light" font-size="19.0" fill="#FEFFFE" transform="matrix(1.00, 0.00, -0.00, -1.00, 280.7, 17.0)">A</text><text xml:space="preserve" font-family="Avenir-Light" font-size="19.0" fill="#FEFFFE" transform="matrix(1.00, 0.00, -0.00, -1.00, 296.7, 17.0)"> </text><text xml:space="preserve" font-family="Avenir-Light" font-size="19.0" fill="#FEFFFE" transform="matrix(1.00, 0.00, -0.00, -1.00, 304.7, 17.0)">H</text><text xml:space="preserve" font-family="Avenir-Light" font-size="19.0" fill="#FEFFFE" transform="matrix(1.00, 0.00, -0.00, -1.00, 321.4, 17.0)">I</text><text xml:space="preserve" font-family="Avenir-Light" font-size="19.0" fill="#FEFFFE" transform="matrix(1.00, 0.00, -0.00, -1.00, 329.4, 17.0)">G</text><text xml:space="preserve" font-family="Avenir-Light" font-size="19.0" fill="#FEFFFE" transform="matrix(1.00, 0.00, -0.00, -1.00, 347.2, 17.0)">H</text><text xml:space="preserve" font-family="Avenir-Light" font-size="19.0" fill="#FEFFFE" transform="matrix(1.00, 0.00, -0.00, -1.00, 363.9, 17.0)">W</text><text xml:space="preserve" font-family="Avenir-Light" font-size="19.0" fill="#FEFFFE" transform="matrix(1.00, 0.00, -0.00, -1.00, 384.5, 17.0)">A</text><text xml:space="preserve" font-family="Avenir-Light" font-size="19.0" fill="#FEFFFE" transform="matrix(1.00, 0.00, -0.00, -1.00, 399.1, 17.0)">Y</text><text xml:space="preserve" font-family="Avenir-Light" font-size="19.0" fill="#FEFFFE" transform="matrix(1.00, 0.00, -0.00, -1.00, 413.0, 17.0)"> </text><text xml:space="preserve" font-family="Avenir-Light" font-size="19.0" fill="#FEFFFE" transform="matrix(1.00, 0.00, -0.00, -1.00, 421.0, 17.0)">T</text><text xml:space="preserve" font-family="Avenir-Light" font-size="19.0" fill="#FEFFFE" transform="matrix(1.00, 0.00, -0.00, -1.00, 434.9, 17.0)">H</text><text xml:space="preserve" font-family="Avenir-Light" font-size="19.0" fill="#FEFFFE" transform="matrix(1.00, 0.00, -0.00, -1.00, 451.6, 17.0)">R</text><text xml:space="preserve" font-family="Avenir-Light" font-size="19.0" fill="#FEFFFE" transform="matrix(1.00, 0.00, -0.00, -1.00, 465.9, 17.0)">O</text><text xml:space="preserve" font-family="Avenir-Light" font-size="19.0" fill="#FEFFFE" transform="matrix(1.00, 0.00, -0.00, -1.00, 484.8, 17.0)">U</text><text xml:space="preserve" font-family="Avenir-Light" font-size="19.0" fill="#FEFFFE" transform="matrix(1.00, 0.00, -0.00, -1.00, 500.8, 17.0)">G</text><text xml:space="preserve" font-family="Avenir-Light" font-size="19.0" fill="#FEFFFE" transform="matrix(1.00, 0.00, -0.00, -1.00, 518.5, 17.0)">H</text><text xml:space="preserve" font-family="Avenir-Light" font-size="19.0" fill="#FEFFFE" transform="matrix(1.00, 0.00, -0.00, -1.00, 535.3, 17.0)"> </text><text xml:space="preserve" font-family="Avenir-Light" font-size="19.0" fill="#FEFFFE" transform="matrix(1.00, 0.00, -0.00, -1.00, 543.2, 17.0)">T</text><text xml:space="preserve" font-family="Avenir-Light" font-size="19.0" fill="#FEFFFE" transform="matrix(1.00, 0.00, -0.00, -1.00, 557.1, 17.0)">H</text><text xml:space="preserve" font-family="Avenir-Light" font-size="19.0" fill="#FEFFFE" transform="matrix(1.00, 0.00, -0.00, -1.00, 573.9, 17.0)">E</text><text xml:space="preserve" font-family="Avenir-Light" font-size="19.0" fill="#FEFFFE" transform="matrix(1.00, 0.00, -0.00, -1.00, 588.1, 17.0)"> </text><text xml:space="preserve" font-family="Avenir-Light" font-size="19.0" fill="#FEFFFE" transform="matrix(1.00, 0.00, -0.00, -1.00, 596.1, 17.0)">R</text><text xml:space="preserve" font-family="Avenir-Light" font-size="19.0" fill="#FEFFFE" transform="matrix(1.00, 0.00, -0.00, -1.00, 610.4, 17.0)">O</text><text xml:space="preserve" font-family="Avenir-Light" font-size="19.0" fill="#FEFFFE" transform="matrix(1.00, 0.00, -0.00, -1.00, 629.2, 17.0)">C</text><text xml:space="preserve" font-family="Avenir-Light" font-size="19.0" fill="#FEFFFE" transform="matrix(1.00, 0.00, -0.00, -1.00, 645.6, 17.0)">K</text><text xml:space="preserve" font-family="Avenir-Light" font-size="19.0" fill="#FEFFFE" transform="matrix(1.00, 0.00, -0.00, -1.00, 660.2, 17.0)">I</text><text xml:space="preserve" font-family="Avenir-Light" font-size="19.0" fill="#FEFFFE" transform="matrix(1.00, 0.00, -0.00, -1.00, 668.2, 17.0)">E</text><text xml:space="preserve" font-family="Avenir-Light" font-size="19.0" fill="#FEFFFE" transform="matrix(1.00, 0.00, -0.00, -1.00, 682.5, 17.0)">S</text><text xml:space="preserve" font-family="Avenir-Light" font-size="19.0" fill="#FEFFFE" transform="matrix(1.00, 0.00, -0.00, -1.00, 696.0, 17.0)"> </text><text xml:space="preserve" font-family="Avenir-Light" font-size="19.0" fill="#FEFFFE" transform="matrix(1.00, 0.00, -0.00, -1.00, 704.0, 17.0)">(</text><text xml:space="preserve" font-family="Avenir-Light" font-size="19.0" fill="#FEFFFE" transform="matrix(1.00, 0.00, -0.00, -1.00, 712.0, 17.0)">B</text><text xml:space="preserve" font-family="Avenir-Light" font-size="19.0" fill="#FEFFFE" transform="matrix(1.00, 0.00, -0.00, -1.00, 726.9, 17.0)">C</text><text xml:space="preserve" font-family="Avenir-Light" font-size="19.0" fill="#FEFFFE" transform="matrix(1.00, 0.00, -0.00, -1.00, 743.3, 17.0)">)</text><text xml:space="preserve" font-family="Avenir-Light" font-size="19.0" fill="#FEFFFE" transform="matrix(1.00, 0.00, -0.00, -1.00, 751.3, 17.0)">,</text><text xml:space="preserve" font-family="Avenir-Light" font-size="19.0" fill="#FEFFFE" transform="matrix(1.00, 0.00, -0.00, -1.00, 759.3, 17.0)"> </text><text xml:space="preserve" font-family="Avenir-Light" font-size="19.0" fill="#FEFFFE" transform="matrix(1.00, 0.00, -0.00, -1.00, 767.2, 17.0)">D</text><text xml:space="preserve" font-family="Avenir-Light" font-size="19.0" fill="#FEFFFE" transform="matrix(1.00, 0.00, -0.00, -1.00, 784.3, 17.0)">A</text><text xml:space="preserve" font-family="Avenir-Light" font-size="19.0" fill="#FEFFFE" transform="matrix(1.00, 0.00, -0.00, -1.00, 798.9, 17.0)">Y</text><text xml:space="preserve" font-family="Avenir-Light" font-size="19.0" fill="#FEFFFE" transform="matrix(1.00, 0.00, -0.00, -1.00, 812.8, 17.0)"> </text><text xml:space="preserve" font-family="Avenir-Light" font-size="19.0" fill="#FEFFFE" transform="matrix(1.00, 0.00, -0.00, -1.00, 820.8, 17.0)">2</text><text xml:space="preserve" font-family="Avenir-Light" font-size="19.0" fill="#FEFFFE" transform="matrix(1.00, 0.00, -0.00, -1.00, 833.7, 17.0)"> </text><text xml:space="preserve" font-family="Avenir-Light" font-size="19.0" fill="#FEFFFE" transform="matrix(1.00, 0.00, -0.00, -1.00, 841.7, 17.0)">(</text><text xml:space="preserve" font-family="Avenir-Light" font-size="19.0" fill="#FEFFFE" transform="matrix(1.00, 0.00, -0.00, -1.00, 849.6, 17.0)">1</text><text xml:space="preserve" font-family="Avenir-Light" font-size="19.0" fill="#FEFFFE" transform="matrix(1.00, 0.00, -0.00, -1.00, 862.5, 17.0)">0</text><text xml:space="preserve" font-family="Avenir-Light" font-size="19.0" fill="#FEFFFE" transform="matrix(1.00, 0.00, -0.00, -1.00, 875.4, 17.0)">9</text><text xml:space="preserve" font-family="Avenir-Light" font-size="19.0" fill="#FEFFFE" transform="matrix(1.00, 0.00, -0.00, -1.00, 888.3, 17.0)">1</text><text xml:space="preserve" font-family="Avenir-Light" font-size="19.0" fill="#FEFFFE" transform="matrix(1.00, 0.00, -0.00, -1.00, 901.2, 17.0)"> </text><text xml:space="preserve" font-family="Avenir-Light" font-size="19.0" fill="#FEFFFE" transform="matrix(1.00, 0.00, -0.00, -1.00, 909.2, 17.0)">K</text><text xml:space="preserve" font-family="Avenir-Light" font-size="19.0" fill="#FEFFFE" transform="matrix(1.00, 0.00, -0.00, -1.00, 923.8, 17.0)">M</text><text xml:space="preserve" font-family="Avenir-Light" font-size="19.0" fill="#FEFFFE" transform="matrix(1.00, 0.00, -0.00, -1.00, 943.7, 17.0)">)</text></g></svg>