<?xml version="1.0" encoding="UTF-8"?><svg xmlns="http://www.w3.org/2000/svg" xmlns:xlink="http://www.w3.org/1999/xlink" clip-rule="evenodd" stroke-miterlimit="4.00" viewBox="0 0 1024 768"><desc>SVG generated by Keynote</desc><defs></defs><g transform="matrix(1.00, 0.00, -0.00, -1.00, 0.0, 768.0)"><path d="M 0.0 768.0 L 1024.0 768.0 L 1024.0 0.0 L 0.0 0.0 Z M 0.0 768.0 " fill="#000000"></path><g><clipPath id="clip-188"><path d="M 0.0 384.0 L 512.0 384.0 L 512.0 0.0 L 0.0 0.0 Z M 0.0 384.0 "></path></clipPath><g clip-path="url(#clip-188)"><image xlink:href="8F4352D8D5BBC7E90FF8394D4466CF2F.jpeg" width="578.00" height="384.00" transform="matrix(1.00, 0.00, -0.00, -1.00, -33.0, 425.0)"></image></g></g><path d="M 0.0 0.0 L 0.0 343.3 L 512.0 343.3 L 512.0 0.0 L 0.0 0.0 Z M 0.0 0.0 " fill="none" stroke="#000000" stroke-width="3.00" transform="matrix(1.00, 0.00, 0.00, -1.00, 0.0, 384.0)"></path><g><clipPath id="clip-189"><path d="M 0.0 384.0 L 512.0 384.0 L 512.0 768.0 L 0.0 768.0 Z M 0.0 384.0 "></path></clipPath><g clip-path="url(#clip-189)"><image xlink:href="941EF51CCFB4AAB1235157EE43B9F678.jpeg" width="1074.00" height="714.00" transform="matrix(1.00, 0.00, -0.00, -1.00, -281.0, 933.0)"></image></g></g><path d="M 0.0 0.0 L 0.0 384.0 L 512.0 384.0 L 512.0 0.0 L 0.0 0.0 Z M 0.0 0.0 " fill="none" stroke="#000000" stroke-width="3.00" transform="matrix(1.00, 0.00, 0.00, -1.00, 0.0, 768.0)"></path><g><clipPath id="clip-190"><path d="M 512.0 767.0 L 1024.0 767.0 L 1024.0 41.0 L 512.0 41.0 Z M 512.0 767.1 "></path></clipPath><g clip-path="url(#clip-190)"><image xlink:href="80C1AADF2EEB8F6FAEDB26DFC9C4B38C.jpeg" width="1156.00" height="769.00" transform="matrix(1.00, 0.00, -0.00, -1.00, 190.0, 784.0)"></image></g></g><path d="M 0.0 0.0 L 0.0 726.6 L 512.0 726.6 L 512.0 0.0 L 0.0 0.0 Z M 0.0 0.0 " fill="none" stroke="#000000" stroke-width="3.00" transform="matrix(1.00, 0.00, 0.00, -1.00, 512.0, 767.1)"></path><text xml:space="preserve" font-family="Avenir-Light" font-size="18.5" fill="#FEFFFE" transform="matrix(1.00, 0.00, -0.00, -1.00, 34.0, 14.0)">D</text><text xml:space="preserve" font-family="Avenir-Light" font-size="18.5" fill="#FEFFFE" transform="matrix(1.00, 0.00, -0.00, -1.00, 50.7, 14.0)">R</text><text xml:space="preserve" font-family="Avenir-Light" font-size="18.5" fill="#FEFFFE" transform="matrix(1.00, 0.00, -0.00, -1.00, 64.6, 14.0)">I</text><text xml:space="preserve" font-family="Avenir-Light" font-size="18.5" fill="#FEFFFE" transform="matrix(1.00, 0.00, -0.00, -1.00, 72.3, 14.0)">V</text><text xml:space="preserve" font-family="Avenir-Light" font-size="18.5" fill="#FEFFFE" transform="matrix(1.00, 0.00, -0.00, -1.00, 86.2, 14.0)">I</text><text xml:space="preserve" font-family="Avenir-Light" font-size="18.5" fill="#FEFFFE" transform="matrix(1.00, 0.00, -0.00, -1.00, 94.0, 14.0)">N</text><text xml:space="preserve" font-family="Avenir-Light" font-size="18.5" fill="#FEFFFE" transform="matrix(1.00, 0.00, -0.00, -1.00, 111.3, 14.0)">G</text><text xml:space="preserve" font-family="Avenir-Light" font-size="18.5" fill="#FEFFFE" transform="matrix(1.00, 0.00, -0.00, -1.00, 128.7, 14.0)"> </text><text xml:space="preserve" font-family="Avenir-Light" font-size="18.5" fill="#FEFFFE" transform="matrix(1.00, 0.00, -0.00, -1.00, 136.4, 14.0)">T</text><text xml:space="preserve" font-family="Avenir-Light" font-size="18.5" fill="#FEFFFE" transform="matrix(1.00, 0.00, -0.00, -1.00, 150.0, 14.0)">H</text><text xml:space="preserve" font-family="Avenir-Light" font-size="18.5" fill="#FEFFFE" transform="matrix(1.00, 0.00, -0.00, -1.00, 166.3, 14.0)">E</text><text xml:space="preserve" font-family="Avenir-Light" font-size="18.5" fill="#FEFFFE" transform="matrix(1.00, 0.00, -0.00, -1.00, 180.2, 14.0)"> </text><text xml:space="preserve" font-family="Avenir-Light" font-size="18.5" fill="#FEFFFE" transform="matrix(1.00, 0.00, -0.00, -1.00, 188.0, 14.0)">A</text><text xml:space="preserve" font-family="Avenir-Light" font-size="18.5" fill="#FEFFFE" transform="matrix(1.00, 0.00, -0.00, -1.00, 203.6, 14.0)">L</text><text xml:space="preserve" font-family="Avenir-Light" font-size="18.5" fill="#FEFFFE" transform="matrix(1.00, 0.00, -0.00, -1.00, 215.8, 14.0)">A</text><text xml:space="preserve" font-family="Avenir-Light" font-size="18.5" fill="#FEFFFE" transform="matrix(1.00, 0.00, -0.00, -1.00, 231.4, 14.0)">S</text><text xml:space="preserve" font-family="Avenir-Light" font-size="18.5" fill="#FEFFFE" transform="matrix(1.00, 0.00, -0.00, -1.00, 244.6, 14.0)">K</text><text xml:space="preserve" font-family="Avenir-Light" font-size="18.5" fill="#FEFFFE" transform="matrix(1.00, 0.00, -0.00, -1.00, 258.9, 14.0)">A</text><text xml:space="preserve" font-family="Avenir-Light" font-size="18.5" fill="#FEFFFE" transform="matrix(1.00, 0.00, -0.00, -1.00, 274.5, 14.0)"> </text><text xml:space="preserve" font-family="Avenir-Light" font-size="18.5" fill="#FEFFFE" transform="matrix(1.00, 0.00, -0.00, -1.00, 282.3, 14.0)">H</text><text xml:space="preserve" font-family="Avenir-Light" font-size="18.5" fill="#FEFFFE" transform="matrix(1.00, 0.00, -0.00, -1.00, 298.6, 14.0)">I</text><text xml:space="preserve" font-family="Avenir-Light" font-size="18.5" fill="#FEFFFE" transform="matrix(1.00, 0.00, -0.00, -1.00, 306.3, 14.0)">G</text><text xml:space="preserve" font-family="Avenir-Light" font-size="18.5" fill="#FEFFFE" transform="matrix(1.00, 0.00, -0.00, -1.00, 323.7, 14.0)">H</text><text xml:space="preserve" font-family="Avenir-Light" font-size="18.5" fill="#FEFFFE" transform="matrix(1.00, 0.00, -0.00, -1.00, 340.0, 14.0)">W</text><text xml:space="preserve" font-family="Avenir-Light" font-size="18.5" fill="#FEFFFE" transform="matrix(1.00, 0.00, -0.00, -1.00, 360.0, 14.0)">A</text><text xml:space="preserve" font-family="Avenir-Light" font-size="18.5" fill="#FEFFFE" transform="matrix(1.00, 0.00, -0.00, -1.00, 374.3, 14.0)">Y</text><text xml:space="preserve" font-family="Avenir-Light" font-size="18.5" fill="#FEFFFE" transform="matrix(1.00, 0.00, -0.00, -1.00, 387.8, 14.0)"> </text><text xml:space="preserve" font-family="Avenir-Light" font-size="18.5" fill="#FEFFFE" transform="matrix(1.00, 0.00, -0.00, -1.00, 395.6, 14.0)">T</text><text xml:space="preserve" font-family="Avenir-Light" font-size="18.5" fill="#FEFFFE" transform="matrix(1.00, 0.00, -0.00, -1.00, 409.2, 14.0)">H</text><text xml:space="preserve" font-family="Avenir-Light" font-size="18.5" fill="#FEFFFE" transform="matrix(1.00, 0.00, -0.00, -1.00, 425.5, 14.0)">R</text><text xml:space="preserve" font-family="Avenir-Light" font-size="18.5" fill="#FEFFFE" transform="matrix(1.00, 0.00, -0.00, -1.00, 439.4, 14.0)">O</text><text xml:space="preserve" font-family="Avenir-Light" font-size="18.5" fill="#FEFFFE" transform="matrix(1.00, 0.00, -0.00, -1.00, 457.7, 14.0)">U</text><text xml:space="preserve" font-family="Avenir-Light" font-size="18.5" fill="#FEFFFE" transform="matrix(1.00, 0.00, -0.00, -1.00, 473.3, 14.0)">G</text><text xml:space="preserve" font-family="Avenir-Light" font-size="18.5" fill="#FEFFFE" transform="matrix(1.00, 0.00, -0.00, -1.00, 490.7, 14.0)">H</text><text xml:space="preserve" font-family="Avenir-Light" font-size="18.5" fill="#FEFFFE" transform="matrix(1.00, 0.00, -0.00, -1.00, 507.0, 14.0)"> </text><text xml:space="preserve" font-family="Avenir-Light" font-size="18.5" fill="#FEFFFE" transform="matrix(1.00, 0.00, -0.00, -1.00, 514.7, 14.0)">T</text><text xml:space="preserve" font-family="Avenir-Light" font-size="18.5" fill="#FEFFFE" transform="matrix(1.00, 0.00, -0.00, -1.00, 528.3, 14.0)">H</text><text xml:space="preserve" font-family="Avenir-Light" font-size="18.5" fill="#FEFFFE" transform="matrix(1.00, 0.00, -0.00, -1.00, 544.6, 14.0)">E</text><text xml:space="preserve" font-family="Avenir-Light" font-size="18.5" fill="#FEFFFE" transform="matrix(1.00, 0.00, -0.00, -1.00, 558.5, 14.0)"> </text><text xml:space="preserve" font-family="Avenir-Light" font-size="18.5" fill="#FEFFFE" transform="matrix(1.00, 0.00, -0.00, -1.00, 566.3, 14.0)">N</text><text xml:space="preserve" font-family="Avenir-Light" font-size="18.5" fill="#FEFFFE" transform="matrix(1.00, 0.00, -0.00, -1.00, 583.6, 14.0)">O</text><text xml:space="preserve" font-family="Avenir-Light" font-size="18.5" fill="#FEFFFE" transform="matrix(1.00, 0.00, -0.00, -1.00, 602.0, 14.0)">R</text><text xml:space="preserve" font-family="Avenir-Light" font-size="18.5" fill="#FEFFFE" transform="matrix(1.00, 0.00, -0.00, -1.00, 616.0, 14.0)">T</text><text xml:space="preserve" font-family="Avenir-Light" font-size="18.5" fill="#FEFFFE" transform="matrix(1.00, 0.00, -0.00, -1.00, 629.6, 14.0)">H</text><text xml:space="preserve" font-family="Avenir-Light" font-size="18.5" fill="#FEFFFE" transform="matrix(1.00, 0.00, -0.00, -1.00, 645.9, 14.0)">E</text><text xml:space="preserve" font-family="Avenir-Light" font-size="18.5" fill="#FEFFFE" transform="matrix(1.00, 0.00, -0.00, -1.00, 659.8, 14.0)">R</text><text xml:space="preserve" font-family="Avenir-Light" font-size="18.5" fill="#FEFFFE" transform="matrix(1.00, 0.00, -0.00, -1.00, 673.7, 14.0)">N</text><text xml:space="preserve" font-family="Avenir-Light" font-size="18.5" fill="#FEFFFE" transform="matrix(1.00, 0.00, -0.00, -1.00, 691.0, 14.0)"> </text><text xml:space="preserve" font-family="Avenir-Light" font-size="18.5" fill="#FEFFFE" transform="matrix(1.00, 0.00, -0.00, -1.00, 698.8, 14.0)">R</text><text xml:space="preserve" font-family="Avenir-Light" font-size="18.5" fill="#FEFFFE" transform="matrix(1.00, 0.00, -0.00, -1.00, 712.7, 14.0)">O</text><text xml:space="preserve" font-family="Avenir-Light" font-size="18.5" fill="#FEFFFE" transform="matrix(1.00, 0.00, -0.00, -1.00, 731.1, 14.0)">C</text><text xml:space="preserve" font-family="Avenir-Light" font-size="18.5" fill="#FEFFFE" transform="matrix(1.00, 0.00, -0.00, -1.00, 747.1, 14.0)">K</text><text xml:space="preserve" font-family="Avenir-Light" font-size="18.5" fill="#FEFFFE" transform="matrix(1.00, 0.00, -0.00, -1.00, 761.3, 14.0)">I</text><text xml:space="preserve" font-family="Avenir-Light" font-size="18.5" fill="#FEFFFE" transform="matrix(1.00, 0.00, -0.00, -1.00, 769.1, 14.0)">E</text><text xml:space="preserve" font-family="Avenir-Light" font-size="18.5" fill="#FEFFFE" transform="matrix(1.00, 0.00, -0.00, -1.00, 783.0, 14.0)">S</text><text xml:space="preserve" font-family="Avenir-Light" font-size="18.5" fill="#FEFFFE" transform="matrix(1.00, 0.00, -0.00, -1.00, 796.2, 14.0)">,</text><text xml:space="preserve" font-family="Avenir-Light" font-size="18.5" fill="#FEFFFE" transform="matrix(1.00, 0.00, -0.00, -1.00, 804.0, 14.0)"> </text><text xml:space="preserve" font-family="Avenir-Light" font-size="18.5" fill="#FEFFFE" transform="matrix(1.00, 0.00, -0.00, -1.00, 811.7, 14.0)">D</text><text xml:space="preserve" font-family="Avenir-Light" font-size="18.5" fill="#FEFFFE" transform="matrix(1.00, 0.00, -0.00, -1.00, 828.4, 14.0)">A</text><text xml:space="preserve" font-family="Avenir-Light" font-size="18.5" fill="#FEFFFE" transform="matrix(1.00, 0.00, -0.00, -1.00, 842.6, 14.0)">Y</text><text xml:space="preserve" font-family="Avenir-Light" font-size="18.5" fill="#FEFFFE" transform="matrix(1.00, 0.00, -0.00, -1.00, 856.2, 14.0)"> </text><text xml:space="preserve" font-family="Avenir-Light" font-size="18.5" fill="#FEFFFE" transform="matrix(1.00, 0.00, -0.00, -1.00, 864.0, 14.0)">2</text><text xml:space="preserve" font-family="Avenir-Light" font-size="18.5" fill="#FEFFFE" transform="matrix(1.00, 0.00, -0.00, -1.00, 876.5, 14.0)"> </text><text xml:space="preserve" font-family="Avenir-Light" font-size="18.5" fill="#FEFFFE" transform="matrix(1.00, 0.00, -0.00, -1.00, 884.3, 14.0)">(</text><text xml:space="preserve" font-family="Avenir-Light" font-size="18.5" fill="#FEFFFE" transform="matrix(1.00, 0.00, -0.00, -1.00, 892.0, 14.0)">1</text><text xml:space="preserve" font-family="Avenir-Light" font-size="18.5" fill="#FEFFFE" transform="matrix(1.00, 0.00, -0.00, -1.00, 904.6, 14.0)">0</text><text xml:space="preserve" font-family="Avenir-Light" font-size="18.5" fill="#FEFFFE" transform="matrix(1.00, 0.00, -0.00, -1.00, 917.2, 14.0)">9</text><text xml:space="preserve" font-family="Avenir-Light" font-size="18.5" fill="#FEFFFE" transform="matrix(1.00, 0.00, -0.00, -1.00, 929.7, 14.0)">1</text><text xml:space="preserve" font-family="Avenir-Light" font-size="18.5" fill="#FEFFFE" transform="matrix(1.00, 0.00, -0.00, -1.00, 942.3, 14.0)"> </text><text xml:space="preserve" font-family="Avenir-Light" font-size="18.5" fill="#FEFFFE" transform="matrix(1.00, 0.00, -0.00, -1.00, 950.1, 14.0)">K</text><text xml:space="preserve" font-family="Avenir-Light" font-size="18.5" fill="#FEFFFE" transform="matrix(1.00, 0.00, -0.00, -1.00, 964.3, 14.0)">M</text><text xml:space="preserve" font-family="Avenir-Light" font-size="18.5" fill="#FEFFFE" transform="matrix(1.00, 0.00, -0.00, -1.00, 983.7, 14.0)">)</text></g></svg>