<?xml version="1.0" encoding="UTF-8"?><svg xmlns="http://www.w3.org/2000/svg" xmlns:xlink="http://www.w3.org/1999/xlink" clip-rule="evenodd" stroke-miterlimit="4.00" viewBox="0 0 1024 768"><desc>SVG generated by Keynote</desc><defs></defs><g transform="matrix(1.00, 0.00, -0.00, -1.00, 0.0, 768.0)"><path d="M 0.0 768.0 L 1024.0 768.0 L 1024.0 0.0 L 0.0 0.0 Z M 0.0 768.0 " fill="#000000"></path><text xml:space="preserve" font-family="Avenir-Light" font-size="28.0" fill="#FEFFFF" transform="matrix(1.00, 0.00, -0.00, -1.00, 385.0, 68.0)">R</text><text xml:space="preserve" font-family="Avenir-Light" font-size="28.0" fill="#FEFFFF" transform="matrix(1.00, 0.00, -0.00, -1.00, 401.6, 68.0)">e</text><text xml:space="preserve" font-family="Avenir-Light" font-size="28.0" fill="#FEFFFF" transform="matrix(1.00, 0.00, -0.00, -1.00, 417.2, 68.0)">n</text><text xml:space="preserve" font-family="Avenir-Light" font-size="28.0" fill="#FEFFFF" transform="matrix(1.00, 0.00, -0.00, -1.00, 432.7, 68.0)">é</text><text xml:space="preserve" font-family="Avenir-Light" font-size="28.0" fill="#FEFFFF" transform="matrix(1.00, 0.00, -0.00, -1.00, 448.3, 68.0)"> </text><text xml:space="preserve" font-family="Avenir-Light" font-size="28.0" fill="#FEFFFF" transform="matrix(1.00, 0.00, -0.00, -1.00, 455.6, 68.0)">W</text><text xml:space="preserve" font-family="Avenir-Light" font-size="28.0" fill="#FEFFFF" transform="matrix(1.00, 0.00, -0.00, -1.00, 481.0, 68.0)">a</text><text xml:space="preserve" font-family="Avenir-Light" font-size="28.0" fill="#FEFFFF" transform="matrix(1.00, 0.00, -0.00, -1.00, 495.5, 68.0)">r</text><text xml:space="preserve" font-family="Avenir-Light" font-size="28.0" fill="#FEFFFF" transform="matrix(1.00, 0.00, -0.00, -1.00, 504.8, 68.0)">r</text><text xml:space="preserve" font-family="Avenir-Light" font-size="28.0" fill="#FEFFFF" transform="matrix(1.00, 0.00, -0.00, -1.00, 513.7, 68.0)">e</text><text xml:space="preserve" font-family="Avenir-Light" font-size="28.0" fill="#FEFFFF" transform="matrix(1.00, 0.00, -0.00, -1.00, 529.2, 68.0)">n</text><text xml:space="preserve" font-family="Avenir-Light" font-size="28.0" fill="#FEFFFF" transform="matrix(1.00, 0.00, -0.00, -1.00, 544.8, 68.0)"> </text><text xml:space="preserve" font-family="Avenir-Light" font-size="28.0" fill="#FEFFFF" transform="matrix(1.00, 0.00, -0.00, -1.00, 552.1, 68.0)">©</text><text xml:space="preserve" font-family="Avenir-Light" font-size="28.0" fill="#FEFFFF" transform="matrix(1.00, 0.00, -0.00, -1.00, 574.5, 68.0)"> </text><text xml:space="preserve" font-family="Avenir-Light" font-size="28.0" fill="#FEFFFF" transform="matrix(1.00, 0.00, -0.00, -1.00, 581.8, 68.0)">2</text><text xml:space="preserve" font-family="Avenir-Light" font-size="28.0" fill="#FEFFFF" transform="matrix(1.00, 0.00, -0.00, -1.00, 596.3, 68.0)">0</text><text xml:space="preserve" font-family="Avenir-Light" font-size="28.0" fill="#FEFFFF" transform="matrix(1.00, 0.00, -0.00, -1.00, 610.9, 68.0)">2</text><text xml:space="preserve" font-family="Avenir-Light" font-size="28.0" fill="#FEFFFF" transform="matrix(1.00, 0.00, -0.00, -1.00, 625.4, 68.0)">0</text><text xml:space="preserve" font-family="Avenir-Light" font-size="28.0" fill="#FEFFFF" transform="matrix(1.00, 0.00, -0.00, -1.00, 640.0, 68.0)"> </text><text xml:space="preserve" font-family="Avenir-Light" font-size="28.0" fill="#FEFFFF" transform="matrix(1.00, 0.00, -0.00, -1.00, 358.0, 30.0)">h</text><text xml:space="preserve" font-family="Avenir-Light" font-size="28.0" fill="#FEFFFF" transform="matrix(1.00, 0.00, -0.00, -1.00, 373.6, 30.0)">t</text><text xml:space="preserve" font-family="Avenir-Light" font-size="28.0" fill="#FEFFFF" transform="matrix(1.00, 0.00, -0.00, -1.00, 382.9, 30.0)">t</text><text xml:space="preserve" font-family="Avenir-Light" font-size="28.0" fill="#FEFFFF" transform="matrix(1.00, 0.00, -0.00, -1.00, 392.2, 30.0)">p</text><text xml:space="preserve" font-family="Avenir-Light" font-size="28.0" fill="#FEFFFF" transform="matrix(1.00, 0.00, -0.00, -1.00, 409.4, 30.0)">s</text><text xml:space="preserve" font-family="Avenir-Light" font-size="28.0" fill="#FEFFFF" transform="matrix(1.00, 0.00, -0.00, -1.00, 421.3, 30.0)">:</text><text xml:space="preserve" font-family="Avenir-Light" font-size="28.0" fill="#FEFFFF" transform="matrix(1.00, 0.00, -0.00, -1.00, 428.6, 30.0)">/</text><text xml:space="preserve" font-family="Avenir-Light" font-size="28.0" fill="#FEFFFF" transform="matrix(1.00, 0.00, -0.00, -1.00, 438.9, 30.0)">/</text><text xml:space="preserve" font-family="Avenir-Light" font-size="28.0" fill="#FEFFFF" transform="matrix(1.00, 0.00, -0.00, -1.00, 449.3, 30.0)">w</text><text xml:space="preserve" font-family="Avenir-Light" font-size="28.0" fill="#FEFFFF" transform="matrix(1.00, 0.00, -0.00, -1.00, 469.0, 30.0)">a</text><text xml:space="preserve" font-family="Avenir-Light" font-size="28.0" fill="#FEFFFF" transform="matrix(1.00, 0.00, -0.00, -1.00, 483.5, 30.0)">r</text><text xml:space="preserve" font-family="Avenir-Light" font-size="28.0" fill="#FEFFFF" transform="matrix(1.00, 0.00, -0.00, -1.00, 492.8, 30.0)">r</text><text xml:space="preserve" font-family="Avenir-Light" font-size="28.0" fill="#FEFFFF" transform="matrix(1.00, 0.00, -0.00, -1.00, 501.7, 30.0)">e</text><text xml:space="preserve" font-family="Avenir-Light" font-size="28.0" fill="#FEFFFF" transform="matrix(1.00, 0.00, -0.00, -1.00, 517.2, 30.0)">n</text><text xml:space="preserve" font-family="Avenir-Light" font-size="28.0" fill="#FEFFFF" transform="matrix(1.00, 0.00, -0.00, -1.00, 532.8, 30.0)">l</text><text xml:space="preserve" font-family="Avenir-Light" font-size="28.0" fill="#FEFFFF" transform="matrix(1.00, 0.00, -0.00, -1.00, 539.5, 30.0)">r</text><text xml:space="preserve" font-family="Avenir-Light" font-size="28.0" fill="#FEFFFF" transform="matrix(1.00, 0.00, -0.00, -1.00, 546.3, 30.0)">.</text><text xml:space="preserve" font-family="Avenir-Light" font-size="28.0" fill="#FEFFFF" transform="matrix(1.00, 0.00, -0.00, -1.00, 553.6, 30.0)">g</text><text xml:space="preserve" font-family="Avenir-Light" font-size="28.0" fill="#FEFFFF" transform="matrix(1.00, 0.00, -0.00, -1.00, 570.7, 30.0)">i</text><text xml:space="preserve" font-family="Avenir-Light" font-size="28.0" fill="#FEFFFF" transform="matrix(1.00, 0.00, -0.00, -1.00, 577.4, 30.0)">t</text><text xml:space="preserve" font-family="Avenir-Light" font-size="28.0" fill="#FEFFFF" transform="matrix(1.00, 0.00, -0.00, -1.00, 586.7, 30.0)">h</text><text xml:space="preserve" font-family="Avenir-Light" font-size="28.0" fill="#FEFFFF" transform="matrix(1.00, 0.00, -0.00, -1.00, 602.3, 30.0)">u</text><text xml:space="preserve" font-family="Avenir-Light" font-size="28.0" fill="#FEFFFF" transform="matrix(1.00, 0.00, -0.00, -1.00, 617.9, 30.0)">b</text><text xml:space="preserve" font-family="Avenir-Light" font-size="28.0" fill="#FEFFFF" transform="matrix(1.00, 0.00, -0.00, -1.00, 635.0, 30.0)">.</text><text xml:space="preserve" font-family="Avenir-Light" font-size="28.0" fill="#FEFFFF" transform="matrix(1.00, 0.00, -0.00, -1.00, 642.3, 30.0)">i</text><text xml:space="preserve" font-family="Avenir-Light" font-size="28.0" fill="#FEFFFF" transform="matrix(1.00, 0.00, -0.00, -1.00, 649.0, 30.0)">o</text><g><clipPath id="clip-348"><path d="M 357.2 26.7 L 665.8 26.7 L 665.8 30.1 L 357.2 30.1 Z M 357.2 26.7 "></path></clipPath><g clip-path="url(#clip-348)"><path d="M 4.5 71.9 L 312.1 71.9 " fill="none" stroke="#FEFFFF" stroke-width="1.40" stroke-miterlimit="0.00" transform="matrix(1.00, 0.00, 0.00, -1.00, 353.7, 100.2)"></path></g></g><g><clipPath id="clip-349"><path d="M 2.0 765.0 L 1022.0 765.0 L 1022.0 110.0 L 2.0 110.0 Z M 2.0 764.8 "></path></clipPath><g clip-path="url(#clip-349)"><image xlink:href="../../02096D9C-E2DA-4C3A-B7D5-64AFAA5F4167/assets/959B699F9420B5A3BF700923A4E0CE1F.jpeg" width="1083.00" height="720.00" transform="matrix(1.00, 0.00, -0.00, -1.00, -61.0, 777.0)"></image></g></g></g></svg>