<?xml version="1.0" encoding="UTF-8"?><svg xmlns="http://www.w3.org/2000/svg" xmlns:xlink="http://www.w3.org/1999/xlink" clip-rule="evenodd" stroke-miterlimit="4.00" viewBox="0 0 1024 768"><desc>SVG generated by Keynote</desc><defs></defs><g transform="matrix(1.00, 0.00, -0.00, -1.00, 0.0, 768.0)"><path d="M 0.0 768.0 L 1024.0 768.0 L 1024.0 0.0 L 0.0 0.0 Z M 0.0 768.0 " fill="#000000"></path><g><clipPath id="clip-32"><path d="M 0.0 0.0 L 1024.0 0.0 L 1024.0 554.0 L 0.0 554.0 Z M 0.0 0.0 "></path></clipPath><g clip-path="url(#clip-32)"><image xlink:href="38B72DAB49E151B8C421EFD3B34E911A.jpeg" width="1024.00" height="681.00" transform="matrix(1.00, 0.00, -0.00, -1.00, 0.0, 617.0)"></image></g></g><text xml:space="preserve" font-family="Avenir-Light" font-size="55.2" fill="#FEFFFF" transform="matrix(1.00, 0.00, -0.00, -1.00, 56.0, 630.0)">Y</text><text xml:space="preserve" font-family="Avenir-Light" font-size="55.2" fill="#FEFFFF" transform="matrix(1.00, 0.00, -0.00, -1.00, 96.5, 630.0)">U</text><text xml:space="preserve" font-family="Avenir-Light" font-size="55.2" fill="#FEFFFF" transform="matrix(1.00, 0.00, -0.00, -1.00, 143.1, 630.0)">K</text><text xml:space="preserve" font-family="Avenir-Light" font-size="55.2" fill="#FEFFFF" transform="matrix(1.00, 0.00, -0.00, -1.00, 185.6, 630.0)">O</text><text xml:space="preserve" font-family="Avenir-Light" font-size="55.2" fill="#FEFFFF" transform="matrix(1.00, 0.00, -0.00, -1.00, 240.5, 630.0)">N</text><text xml:space="preserve" font-family="Avenir-Light" font-size="55.2" fill="#FEFFFF" transform="matrix(1.00, 0.00, -0.00, -1.00, 292.2, 630.0)">,</text><text xml:space="preserve" font-family="Avenir-Light" font-size="55.2" fill="#FEFFFF" transform="matrix(1.00, 0.00, -0.00, -1.00, 315.4, 630.0)"> </text><text xml:space="preserve" font-family="Avenir-Light" font-size="55.2" fill="#FEFFFF" transform="matrix(1.00, 0.00, -0.00, -1.00, 338.6, 630.0)">L</text><text xml:space="preserve" font-family="Avenir-Light" font-size="55.2" fill="#FEFFFF" transform="matrix(1.00, 0.00, -0.00, -1.00, 375.0, 630.0)">A</text><text xml:space="preserve" font-family="Avenir-Light" font-size="55.2" fill="#FEFFFF" transform="matrix(1.00, 0.00, -0.00, -1.00, 421.6, 630.0)">R</text><text xml:space="preserve" font-family="Avenir-Light" font-size="55.2" fill="#FEFFFF" transform="matrix(1.00, 0.00, -0.00, -1.00, 463.2, 630.0)">G</text><text xml:space="preserve" font-family="Avenir-Light" font-size="55.2" fill="#FEFFFF" transform="matrix(1.00, 0.00, -0.00, -1.00, 514.9, 630.0)">E</text><text xml:space="preserve" font-family="Avenir-Light" font-size="55.2" fill="#FEFFFF" transform="matrix(1.00, 0.00, -0.00, -1.00, 556.5, 630.0)">R</text><text xml:space="preserve" font-family="Avenir-Light" font-size="55.2" fill="#FEFFFF" transform="matrix(1.00, 0.00, -0.00, -1.00, 598.0, 630.0)"> </text><text xml:space="preserve" font-family="Avenir-Light" font-size="55.2" fill="#FEFFFF" transform="matrix(1.00, 0.00, -0.00, -1.00, 621.2, 630.0)">T</text><text xml:space="preserve" font-family="Avenir-Light" font-size="55.2" fill="#FEFFFF" transform="matrix(1.00, 0.00, -0.00, -1.00, 661.7, 630.0)">H</text><text xml:space="preserve" font-family="Avenir-Light" font-size="55.2" fill="#FEFFFF" transform="matrix(1.00, 0.00, -0.00, -1.00, 710.4, 630.0)">A</text><text xml:space="preserve" font-family="Avenir-Light" font-size="55.2" fill="#FEFFFF" transform="matrix(1.00, 0.00, -0.00, -1.00, 757.0, 630.0)">N</text><text xml:space="preserve" font-family="Avenir-Light" font-size="55.2" fill="#FEFFFF" transform="matrix(1.00, 0.00, -0.00, -1.00, 808.8, 630.0)"> </text><text xml:space="preserve" font-family="Avenir-Light" font-size="55.2" fill="#FEFFFF" transform="matrix(1.00, 0.00, -0.00, -1.00, 831.9, 630.0)">L</text><text xml:space="preserve" font-family="Avenir-Light" font-size="55.2" fill="#FEFFFF" transform="matrix(1.00, 0.00, -0.00, -1.00, 868.4, 630.0)">I</text><text xml:space="preserve" font-family="Avenir-Light" font-size="55.2" fill="#FEFFFF" transform="matrix(1.00, 0.00, -0.00, -1.00, 891.5, 630.0)">F</text><text xml:space="preserve" font-family="Avenir-Light" font-size="55.2" fill="#FEFFFF" transform="matrix(1.00, 0.00, -0.00, -1.00, 931.0, 630.0)">E</text></g></svg>