<?xml version="1.0" encoding="UTF-8"?><svg xmlns="http://www.w3.org/2000/svg" xmlns:xlink="http://www.w3.org/1999/xlink" clip-rule="evenodd" stroke-miterlimit="4.00" viewBox="0 0 1024 768"><desc>SVG generated by Keynote</desc><defs></defs><g transform="matrix(1.00, 0.00, -0.00, -1.00, 0.0, 768.0)"><path d="M 0.0 768.0 L 1024.0 768.0 L 1024.0 0.0 L 0.0 0.0 Z M 0.0 768.0 " fill="#000000"></path><g><clipPath id="clip-239"><path d="M 0.0 731.0 L 1024.0 731.0 L 1024.0 -1.0 L 0.0 -1.0 Z M 0.0 731.3 "></path></clipPath><g clip-path="url(#clip-239)"><image xlink:href="../../FA76784A-C698-4CE3-A9F1-B708C640538E/assets/D730A1C6BC9420BA7C2FD3C57711F070.jpeg" width="1155.00" height="768.00" transform="matrix(1.00, 0.00, -0.00, -1.00, -65.0, 749.0)"></image></g></g><text xml:space="preserve" font-family="Avenir-Light" font-size="21.6" fill="#FEFFFF" transform="matrix(1.00, 0.00, -0.00, -1.00, 134.0, 741.0)">S</text><text xml:space="preserve" font-family="Avenir-Light" font-size="21.6" fill="#FEFFFF" transform="matrix(1.00, 0.00, -0.00, -1.00, 149.5, 741.0)">T</text><text xml:space="preserve" font-family="Avenir-Light" font-size="21.6" fill="#FEFFFF" transform="matrix(1.00, 0.00, -0.00, -1.00, 163.9, 741.0)">A</text><text xml:space="preserve" font-family="Avenir-Light" font-size="21.6" fill="#FEFFFF" transform="matrix(1.00, 0.00, -0.00, -1.00, 182.1, 741.0)">R</text><text xml:space="preserve" font-family="Avenir-Light" font-size="21.6" fill="#FEFFFF" transform="matrix(1.00, 0.00, -0.00, -1.00, 198.4, 741.0)">G</text><text xml:space="preserve" font-family="Avenir-Light" font-size="21.6" fill="#FEFFFF" transform="matrix(1.00, 0.00, -0.00, -1.00, 218.6, 741.0)">A</text><text xml:space="preserve" font-family="Avenir-Light" font-size="21.6" fill="#FEFFFF" transform="matrix(1.00, 0.00, -0.00, -1.00, 236.9, 741.0)">Z</text><text xml:space="preserve" font-family="Avenir-Light" font-size="21.6" fill="#FEFFFF" transform="matrix(1.00, 0.00, -0.00, -1.00, 252.3, 741.0)">I</text><text xml:space="preserve" font-family="Avenir-Light" font-size="21.6" fill="#FEFFFF" transform="matrix(1.00, 0.00, -0.00, -1.00, 261.4, 741.0)">N</text><text xml:space="preserve" font-family="Avenir-Light" font-size="21.6" fill="#FEFFFF" transform="matrix(1.00, 0.00, -0.00, -1.00, 281.7, 741.0)">G</text><text xml:space="preserve" font-family="Avenir-Light" font-size="21.6" fill="#FEFFFF" transform="matrix(1.00, 0.00, -0.00, -1.00, 301.9, 741.0)"> </text><text xml:space="preserve" font-family="Avenir-Light" font-size="21.6" fill="#FEFFFF" transform="matrix(1.00, 0.00, -0.00, -1.00, 311.0, 741.0)">&amp;</text><text xml:space="preserve" font-family="Avenir-Light" font-size="21.6" fill="#FEFFFF" transform="matrix(1.00, 0.00, -0.00, -1.00, 329.7, 741.0)"> </text><text xml:space="preserve" font-family="Avenir-Light" font-size="21.6" fill="#FEFFFF" transform="matrix(1.00, 0.00, -0.00, -1.00, 338.7, 741.0)">E</text><text xml:space="preserve" font-family="Avenir-Light" font-size="21.6" fill="#FEFFFF" transform="matrix(1.00, 0.00, -0.00, -1.00, 355.0, 741.0)">N</text><text xml:space="preserve" font-family="Avenir-Light" font-size="21.6" fill="#FEFFFF" transform="matrix(1.00, 0.00, -0.00, -1.00, 375.3, 741.0)">J</text><text xml:space="preserve" font-family="Avenir-Light" font-size="21.6" fill="#FEFFFF" transform="matrix(1.00, 0.00, -0.00, -1.00, 389.1, 741.0)">O</text><text xml:space="preserve" font-family="Avenir-Light" font-size="21.6" fill="#FEFFFF" transform="matrix(1.00, 0.00, -0.00, -1.00, 410.6, 741.0)">Y</text><text xml:space="preserve" font-family="Avenir-Light" font-size="21.6" fill="#FEFFFF" transform="matrix(1.00, 0.00, -0.00, -1.00, 426.5, 741.0)">I</text><text xml:space="preserve" font-family="Avenir-Light" font-size="21.6" fill="#FEFFFF" transform="matrix(1.00, 0.00, -0.00, -1.00, 435.5, 741.0)">N</text><text xml:space="preserve" font-family="Avenir-Light" font-size="21.6" fill="#FEFFFF" transform="matrix(1.00, 0.00, -0.00, -1.00, 455.8, 741.0)">G</text><text xml:space="preserve" font-family="Avenir-Light" font-size="21.6" fill="#FEFFFF" transform="matrix(1.00, 0.00, -0.00, -1.00, 476.1, 741.0)"> </text><text xml:space="preserve" font-family="Avenir-Light" font-size="21.6" fill="#FEFFFF" transform="matrix(1.00, 0.00, -0.00, -1.00, 485.1, 741.0)">D</text><text xml:space="preserve" font-family="Avenir-Light" font-size="21.6" fill="#FEFFFF" transform="matrix(1.00, 0.00, -0.00, -1.00, 504.6, 741.0)">A</text><text xml:space="preserve" font-family="Avenir-Light" font-size="21.6" fill="#FEFFFF" transform="matrix(1.00, 0.00, -0.00, -1.00, 522.8, 741.0)">N</text><text xml:space="preserve" font-family="Avenir-Light" font-size="21.6" fill="#FEFFFF" transform="matrix(1.00, 0.00, -0.00, -1.00, 543.1, 741.0)">C</text><text xml:space="preserve" font-family="Avenir-Light" font-size="21.6" fill="#FEFFFF" transform="matrix(1.00, 0.00, -0.00, -1.00, 561.8, 741.0)">I</text><text xml:space="preserve" font-family="Avenir-Light" font-size="21.6" fill="#FEFFFF" transform="matrix(1.00, 0.00, -0.00, -1.00, 570.8, 741.0)">N</text><text xml:space="preserve" font-family="Avenir-Light" font-size="21.6" fill="#FEFFFF" transform="matrix(1.00, 0.00, -0.00, -1.00, 591.1, 741.0)">G</text><text xml:space="preserve" font-family="Avenir-Light" font-size="21.6" fill="#FEFFFF" transform="matrix(1.00, 0.00, -0.00, -1.00, 611.4, 741.0)"> </text><text xml:space="preserve" font-family="Avenir-Light" font-size="21.6" fill="#FEFFFF" transform="matrix(1.00, 0.00, -0.00, -1.00, 620.4, 741.0)">L</text><text xml:space="preserve" font-family="Avenir-Light" font-size="21.6" fill="#FEFFFF" transform="matrix(1.00, 0.00, -0.00, -1.00, 634.7, 741.0)">I</text><text xml:space="preserve" font-family="Avenir-Light" font-size="21.6" fill="#FEFFFF" transform="matrix(1.00, 0.00, -0.00, -1.00, 643.8, 741.0)">G</text><text xml:space="preserve" font-family="Avenir-Light" font-size="21.6" fill="#FEFFFF" transform="matrix(1.00, 0.00, -0.00, -1.00, 664.0, 741.0)">H</text><text xml:space="preserve" font-family="Avenir-Light" font-size="21.6" fill="#FEFFFF" transform="matrix(1.00, 0.00, -0.00, -1.00, 683.1, 741.0)">T</text><text xml:space="preserve" font-family="Avenir-Light" font-size="21.6" fill="#FEFFFF" transform="matrix(1.00, 0.00, -0.00, -1.00, 698.9, 741.0)">S</text><text xml:space="preserve" font-family="Avenir-Light" font-size="21.6" fill="#FEFFFF" transform="matrix(1.00, 0.00, -0.00, -1.00, 714.4, 741.0)">,</text><text xml:space="preserve" font-family="Avenir-Light" font-size="21.6" fill="#FEFFFF" transform="matrix(1.00, 0.00, -0.00, -1.00, 723.5, 741.0)"> </text><text xml:space="preserve" font-family="Avenir-Light" font-size="21.6" fill="#FEFFFF" transform="matrix(1.00, 0.00, -0.00, -1.00, 732.5, 741.0)">C</text><text xml:space="preserve" font-family="Avenir-Light" font-size="21.6" fill="#FEFFFF" transform="matrix(1.00, 0.00, -0.00, -1.00, 751.2, 741.0)">O</text><text xml:space="preserve" font-family="Avenir-Light" font-size="21.6" fill="#FEFFFF" transform="matrix(1.00, 0.00, -0.00, -1.00, 772.7, 741.0)">N</text><text xml:space="preserve" font-family="Avenir-Light" font-size="21.6" fill="#FEFFFF" transform="matrix(1.00, 0.00, -0.00, -1.00, 792.9, 741.0)">R</text><text xml:space="preserve" font-family="Avenir-Light" font-size="21.6" fill="#FEFFFF" transform="matrix(1.00, 0.00, -0.00, -1.00, 809.2, 741.0)">A</text><text xml:space="preserve" font-family="Avenir-Light" font-size="21.6" fill="#FEFFFF" transform="matrix(1.00, 0.00, -0.00, -1.00, 827.4, 741.0)">D</text><text xml:space="preserve" font-family="Avenir-Light" font-size="21.6" fill="#FEFFFF" transform="matrix(1.00, 0.00, -0.00, -1.00, 846.9, 741.0)"> </text><text xml:space="preserve" font-family="Avenir-Light" font-size="21.6" fill="#FEFFFF" transform="matrix(1.00, 0.00, -0.00, -1.00, 856.0, 741.0)">Y</text><text xml:space="preserve" font-family="Avenir-Light" font-size="21.6" fill="#FEFFFF" transform="matrix(1.00, 0.00, -0.00, -1.00, 871.8, 741.0)">T</text></g></svg>