<?xml version="1.0" encoding="UTF-8"?><svg xmlns="http://www.w3.org/2000/svg" xmlns:xlink="http://www.w3.org/1999/xlink" clip-rule="evenodd" stroke-miterlimit="4.00" viewBox="0 0 1024 768"><desc>SVG generated by Keynote</desc><defs></defs><g transform="matrix(1.00, 0.00, -0.00, -1.00, 0.0, 768.0)"><path d="M 0.0 768.0 L 1024.0 768.0 L 1024.0 0.0 L 0.0 0.0 Z M 0.0 768.0 " fill="#000000"></path><g><clipPath id="clip-59"><path d="M 0.0 1.0 L 1024.0 1.0 L 1024.0 769.0 L 0.0 769.0 Z M 0.0 1.0 "></path></clipPath><g clip-path="url(#clip-59)"><image xlink:href="../../FA76784A-C698-4CE3-A9F1-B708C640538E/assets/D730A1C6BC9420BA7C2FD3C57711F070.jpeg" width="1155.00" height="768.00" transform="matrix(1.00, 0.00, -0.00, -1.00, -65.0, 769.0)"></image></g></g><text xml:space="preserve" font-family="Avenir-Light" font-size="23.4" fill="#FEFFFF" transform="matrix(1.00, 0.00, -0.00, -1.00, 105.0, 741.0)">S</text><text xml:space="preserve" font-family="Avenir-Light" font-size="23.4" fill="#FEFFFF" transform="matrix(1.00, 0.00, -0.00, -1.00, 121.8, 741.0)">T</text><text xml:space="preserve" font-family="Avenir-Light" font-size="23.4" fill="#FEFFFF" transform="matrix(1.00, 0.00, -0.00, -1.00, 137.3, 741.0)">A</text><text xml:space="preserve" font-family="Avenir-Light" font-size="23.4" fill="#FEFFFF" transform="matrix(1.00, 0.00, -0.00, -1.00, 157.1, 741.0)">R</text><text xml:space="preserve" font-family="Avenir-Light" font-size="23.4" fill="#FEFFFF" transform="matrix(1.00, 0.00, -0.00, -1.00, 174.7, 741.0)">G</text><text xml:space="preserve" font-family="Avenir-Light" font-size="23.4" fill="#FEFFFF" transform="matrix(1.00, 0.00, -0.00, -1.00, 196.7, 741.0)">A</text><text xml:space="preserve" font-family="Avenir-Light" font-size="23.4" fill="#FEFFFF" transform="matrix(1.00, 0.00, -0.00, -1.00, 216.5, 741.0)">Z</text><text xml:space="preserve" font-family="Avenir-Light" font-size="23.4" fill="#FEFFFF" transform="matrix(1.00, 0.00, -0.00, -1.00, 233.2, 741.0)">I</text><text xml:space="preserve" font-family="Avenir-Light" font-size="23.4" fill="#FEFFFF" transform="matrix(1.00, 0.00, -0.00, -1.00, 243.0, 741.0)">N</text><text xml:space="preserve" font-family="Avenir-Light" font-size="23.4" fill="#FEFFFF" transform="matrix(1.00, 0.00, -0.00, -1.00, 265.0, 741.0)">G</text><text xml:space="preserve" font-family="Avenir-Light" font-size="23.4" fill="#FEFFFF" transform="matrix(1.00, 0.00, -0.00, -1.00, 286.9, 741.0)"> </text><text xml:space="preserve" font-family="Avenir-Light" font-size="23.4" fill="#FEFFFF" transform="matrix(1.00, 0.00, -0.00, -1.00, 296.8, 741.0)">&amp;</text><text xml:space="preserve" font-family="Avenir-Light" font-size="23.4" fill="#FEFFFF" transform="matrix(1.00, 0.00, -0.00, -1.00, 317.0, 741.0)"> </text><text xml:space="preserve" font-family="Avenir-Light" font-size="23.4" fill="#FEFFFF" transform="matrix(1.00, 0.00, -0.00, -1.00, 326.8, 741.0)">E</text><text xml:space="preserve" font-family="Avenir-Light" font-size="23.4" fill="#FEFFFF" transform="matrix(1.00, 0.00, -0.00, -1.00, 344.4, 741.0)">N</text><text xml:space="preserve" font-family="Avenir-Light" font-size="23.4" fill="#FEFFFF" transform="matrix(1.00, 0.00, -0.00, -1.00, 366.4, 741.0)">J</text><text xml:space="preserve" font-family="Avenir-Light" font-size="23.4" fill="#FEFFFF" transform="matrix(1.00, 0.00, -0.00, -1.00, 381.4, 741.0)">O</text><text xml:space="preserve" font-family="Avenir-Light" font-size="23.4" fill="#FEFFFF" transform="matrix(1.00, 0.00, -0.00, -1.00, 404.7, 741.0)">Y</text><text xml:space="preserve" font-family="Avenir-Light" font-size="23.4" fill="#FEFFFF" transform="matrix(1.00, 0.00, -0.00, -1.00, 421.8, 741.0)">I</text><text xml:space="preserve" font-family="Avenir-Light" font-size="23.4" fill="#FEFFFF" transform="matrix(1.00, 0.00, -0.00, -1.00, 431.7, 741.0)">N</text><text xml:space="preserve" font-family="Avenir-Light" font-size="23.4" fill="#FEFFFF" transform="matrix(1.00, 0.00, -0.00, -1.00, 453.6, 741.0)">G</text><text xml:space="preserve" font-family="Avenir-Light" font-size="23.4" fill="#FEFFFF" transform="matrix(1.00, 0.00, -0.00, -1.00, 475.6, 741.0)"> </text><text xml:space="preserve" font-family="Avenir-Light" font-size="23.4" fill="#FEFFFF" transform="matrix(1.00, 0.00, -0.00, -1.00, 485.4, 741.0)">D</text><text xml:space="preserve" font-family="Avenir-Light" font-size="23.4" fill="#FEFFFF" transform="matrix(1.00, 0.00, -0.00, -1.00, 506.5, 741.0)">A</text><text xml:space="preserve" font-family="Avenir-Light" font-size="23.4" fill="#FEFFFF" transform="matrix(1.00, 0.00, -0.00, -1.00, 526.2, 741.0)">N</text><text xml:space="preserve" font-family="Avenir-Light" font-size="23.4" fill="#FEFFFF" transform="matrix(1.00, 0.00, -0.00, -1.00, 548.2, 741.0)">C</text><text xml:space="preserve" font-family="Avenir-Light" font-size="23.4" fill="#FEFFFF" transform="matrix(1.00, 0.00, -0.00, -1.00, 568.4, 741.0)">I</text><text xml:space="preserve" font-family="Avenir-Light" font-size="23.4" fill="#FEFFFF" transform="matrix(1.00, 0.00, -0.00, -1.00, 578.2, 741.0)">N</text><text xml:space="preserve" font-family="Avenir-Light" font-size="23.4" fill="#FEFFFF" transform="matrix(1.00, 0.00, -0.00, -1.00, 600.2, 741.0)">G</text><text xml:space="preserve" font-family="Avenir-Light" font-size="23.4" fill="#FEFFFF" transform="matrix(1.00, 0.00, -0.00, -1.00, 622.1, 741.0)"> </text><text xml:space="preserve" font-family="Avenir-Light" font-size="23.4" fill="#FEFFFF" transform="matrix(1.00, 0.00, -0.00, -1.00, 632.0, 741.0)">L</text><text xml:space="preserve" font-family="Avenir-Light" font-size="23.4" fill="#FEFFFF" transform="matrix(1.00, 0.00, -0.00, -1.00, 647.4, 741.0)">I</text><text xml:space="preserve" font-family="Avenir-Light" font-size="23.4" fill="#FEFFFF" transform="matrix(1.00, 0.00, -0.00, -1.00, 657.2, 741.0)">G</text><text xml:space="preserve" font-family="Avenir-Light" font-size="23.4" fill="#FEFFFF" transform="matrix(1.00, 0.00, -0.00, -1.00, 679.2, 741.0)">H</text><text xml:space="preserve" font-family="Avenir-Light" font-size="23.4" fill="#FEFFFF" transform="matrix(1.00, 0.00, -0.00, -1.00, 699.8, 741.0)">T</text><text xml:space="preserve" font-family="Avenir-Light" font-size="23.4" fill="#FEFFFF" transform="matrix(1.00, 0.00, -0.00, -1.00, 717.0, 741.0)">S</text><text xml:space="preserve" font-family="Avenir-Light" font-size="23.4" fill="#FEFFFF" transform="matrix(1.00, 0.00, -0.00, -1.00, 733.8, 741.0)">,</text><text xml:space="preserve" font-family="Avenir-Light" font-size="23.4" fill="#FEFFFF" transform="matrix(1.00, 0.00, -0.00, -1.00, 743.6, 741.0)"> </text><text xml:space="preserve" font-family="Avenir-Light" font-size="23.4" fill="#FEFFFF" transform="matrix(1.00, 0.00, -0.00, -1.00, 753.4, 741.0)">C</text><text xml:space="preserve" font-family="Avenir-Light" font-size="23.4" fill="#FEFFFF" transform="matrix(1.00, 0.00, -0.00, -1.00, 773.6, 741.0)">O</text><text xml:space="preserve" font-family="Avenir-Light" font-size="23.4" fill="#FEFFFF" transform="matrix(1.00, 0.00, -0.00, -1.00, 796.9, 741.0)">N</text><text xml:space="preserve" font-family="Avenir-Light" font-size="23.4" fill="#FEFFFF" transform="matrix(1.00, 0.00, -0.00, -1.00, 818.8, 741.0)">R</text><text xml:space="preserve" font-family="Avenir-Light" font-size="23.4" fill="#FEFFFF" transform="matrix(1.00, 0.00, -0.00, -1.00, 836.5, 741.0)">A</text><text xml:space="preserve" font-family="Avenir-Light" font-size="23.4" fill="#FEFFFF" transform="matrix(1.00, 0.00, -0.00, -1.00, 856.2, 741.0)">D</text><text xml:space="preserve" font-family="Avenir-Light" font-size="23.4" fill="#FEFFFF" transform="matrix(1.00, 0.00, -0.00, -1.00, 877.3, 741.0)"> </text><text xml:space="preserve" font-family="Avenir-Light" font-size="23.4" fill="#FEFFFF" transform="matrix(1.00, 0.00, -0.00, -1.00, 887.1, 741.0)">Y</text><text xml:space="preserve" font-family="Avenir-Light" font-size="23.4" fill="#FEFFFF" transform="matrix(1.00, 0.00, -0.00, -1.00, 904.3, 741.0)">T</text></g></svg>