<?xml version="1.0" encoding="UTF-8"?><svg xmlns="http://www.w3.org/2000/svg" xmlns:xlink="http://www.w3.org/1999/xlink" clip-rule="evenodd" stroke-miterlimit="4.00" viewBox="0 0 1024 768"><desc>SVG generated by Keynote</desc><defs></defs><g transform="matrix(1.00, 0.00, -0.00, -1.00, 0.0, 768.0)"><path d="M 0.0 768.0 L 1024.0 768.0 L 1024.0 0.0 L 0.0 0.0 Z M 0.0 768.0 " fill="#000000"></path><g><clipPath id="clip-187"><path d="M 514.0 768.0 L 1026.0 768.0 L 1026.0 41.0 L 514.0 41.0 Z M 514.0 768.0 "></path></clipPath><g clip-path="url(#clip-187)"><image xlink:href="../../23645639-B0D9-440E-907F-002869E027F9/assets/1D471D22A7A5D635240F4F03F61E9229.jpeg" width="511.00" height="769.00" transform="matrix(1.00, 0.00, -0.00, -1.00, 514.0, 810.0)"></image></g></g><text xml:space="preserve" font-family="Avenir-Book" font-size="23.0" fill="#FEFFFE" transform="matrix(1.00, 0.00, -0.00, -1.00, 34.0, 485.0)">L</text><text xml:space="preserve" font-family="Avenir-Book" font-size="23.0" fill="#FEFFFE" transform="matrix(1.00, 0.00, -0.00, -1.00, 49.2, 485.0)">I</text><text xml:space="preserve" font-family="Avenir-Book" font-size="23.0" fill="#FEFFFE" transform="matrix(1.00, 0.00, -0.00, -1.00, 58.9, 485.0)">F</text><text xml:space="preserve" font-family="Avenir-Book" font-size="23.0" fill="#FEFFFE" transform="matrix(1.00, 0.00, -0.00, -1.00, 75.4, 485.0)">E</text><text xml:space="preserve" font-family="Avenir-Book" font-size="23.0" fill="#FEFFFE" transform="matrix(1.00, 0.00, -0.00, -1.00, 92.7, 485.0)">L</text><text xml:space="preserve" font-family="Avenir-Book" font-size="23.0" fill="#FEFFFE" transform="matrix(1.00, 0.00, -0.00, -1.00, 107.9, 485.0)">O</text><text xml:space="preserve" font-family="Avenir-Book" font-size="23.0" fill="#FEFFFE" transform="matrix(1.00, 0.00, -0.00, -1.00, 130.8, 485.0)">N</text><text xml:space="preserve" font-family="Avenir-Book" font-size="23.0" fill="#FEFFFE" transform="matrix(1.00, 0.00, -0.00, -1.00, 152.3, 485.0)">G</text><text xml:space="preserve" font-family="Avenir-Book" font-size="23.0" fill="#FEFFFE" transform="matrix(1.00, 0.00, -0.00, -1.00, 173.9, 485.0)"> </text><text xml:space="preserve" font-family="Avenir-Book" font-size="23.0" fill="#FEFFFE" transform="matrix(1.00, 0.00, -0.00, -1.00, 184.0, 485.0)">D</text><text xml:space="preserve" font-family="Avenir-Book" font-size="23.0" fill="#FEFFFE" transform="matrix(1.00, 0.00, -0.00, -1.00, 204.7, 485.0)">R</text><text xml:space="preserve" font-family="Avenir-Book" font-size="23.0" fill="#FEFFFE" transform="matrix(1.00, 0.00, -0.00, -1.00, 222.0, 485.0)">E</text><text xml:space="preserve" font-family="Avenir-Book" font-size="23.0" fill="#FEFFFE" transform="matrix(1.00, 0.00, -0.00, -1.00, 239.3, 485.0)">A</text><text xml:space="preserve" font-family="Avenir-Book" font-size="23.0" fill="#FEFFFE" transform="matrix(1.00, 0.00, -0.00, -1.00, 258.8, 485.0)">M</text><text xml:space="preserve" font-family="Avenir-Book" font-size="23.0" fill="#FEFFFE" transform="matrix(1.00, 0.00, -0.00, -1.00, 283.0, 485.0)"> </text><text xml:space="preserve" font-family="Avenir-Book" font-size="23.0" fill="#FEFFFE" transform="matrix(1.00, 0.00, -0.00, -1.00, 293.0, 485.0)">O</text><text xml:space="preserve" font-family="Avenir-Book" font-size="23.0" fill="#FEFFFE" transform="matrix(1.00, 0.00, -0.00, -1.00, 315.9, 485.0)">F</text><text xml:space="preserve" font-family="Avenir-Book" font-size="23.0" fill="#FEFFFE" transform="matrix(1.00, 0.00, -0.00, -1.00, 332.4, 485.0)"> </text><text xml:space="preserve" font-family="Avenir-Book" font-size="23.0" fill="#FEFFFE" transform="matrix(1.00, 0.00, -0.00, -1.00, 342.4, 485.0)">V</text><text xml:space="preserve" font-family="Avenir-Book" font-size="23.0" fill="#FEFFFE" transform="matrix(1.00, 0.00, -0.00, -1.00, 358.9, 485.0)">A</text><text xml:space="preserve" font-family="Avenir-Book" font-size="23.0" fill="#FEFFFE" transform="matrix(1.00, 0.00, -0.00, -1.00, 378.4, 485.0)">S</text><text xml:space="preserve" font-family="Avenir-Book" font-size="23.0" fill="#FEFFFE" transform="matrix(1.00, 0.00, -0.00, -1.00, 394.8, 485.0)">T</text><text xml:space="preserve" font-family="Avenir-Book" font-size="23.0" fill="#FEFFFE" transform="matrix(1.00, 0.00, -0.00, -1.00, 411.7, 485.0)">N</text><text xml:space="preserve" font-family="Avenir-Book" font-size="23.0" fill="#FEFFFE" transform="matrix(1.00, 0.00, -0.00, -1.00, 433.3, 485.0)">E</text><text xml:space="preserve" font-family="Avenir-Book" font-size="23.0" fill="#FEFFFE" transform="matrix(1.00, 0.00, -0.00, -1.00, 450.6, 485.0)">S</text><text xml:space="preserve" font-family="Avenir-Book" font-size="23.0" fill="#FEFFFE" transform="matrix(1.00, 0.00, -0.00, -1.00, 467.1, 485.0)">S</text><text xml:space="preserve" font-family="Avenir-Book" font-size="23.0" fill="#FEFFFE" transform="matrix(1.00, 0.00, -0.00, -1.00, 483.5, 485.0)"> </text><text xml:space="preserve" font-family="Avenir-Book" font-size="23.0" fill="#FEFFFE" transform="matrix(1.00, 0.00, -0.00, -1.00, 53.0, 454.0)">O</text><text xml:space="preserve" font-family="Avenir-Book" font-size="23.0" fill="#FEFFFE" transform="matrix(1.00, 0.00, -0.00, -1.00, 75.9, 454.0)">P</text><text xml:space="preserve" font-family="Avenir-Book" font-size="23.0" fill="#FEFFFE" transform="matrix(1.00, 0.00, -0.00, -1.00, 92.7, 454.0)">E</text><text xml:space="preserve" font-family="Avenir-Book" font-size="23.0" fill="#FEFFFE" transform="matrix(1.00, 0.00, -0.00, -1.00, 110.1, 454.0)">N</text><text xml:space="preserve" font-family="Avenir-Book" font-size="23.0" fill="#FEFFFE" transform="matrix(1.00, 0.00, -0.00, -1.00, 131.6, 454.0)"> </text><text xml:space="preserve" font-family="Avenir-Book" font-size="23.0" fill="#FEFFFE" transform="matrix(1.00, 0.00, -0.00, -1.00, 141.7, 454.0)">R</text><text xml:space="preserve" font-family="Avenir-Book" font-size="23.0" fill="#FEFFFE" transform="matrix(1.00, 0.00, -0.00, -1.00, 159.0, 454.0)">O</text><text xml:space="preserve" font-family="Avenir-Book" font-size="23.0" fill="#FEFFFE" transform="matrix(1.00, 0.00, -0.00, -1.00, 181.9, 454.0)">A</text><text xml:space="preserve" font-family="Avenir-Book" font-size="23.0" fill="#FEFFFE" transform="matrix(1.00, 0.00, -0.00, -1.00, 201.3, 454.0)">D</text><text xml:space="preserve" font-family="Avenir-Book" font-size="23.0" fill="#FEFFFE" transform="matrix(1.00, 0.00, -0.00, -1.00, 222.1, 454.0)">S</text><text xml:space="preserve" font-family="Avenir-Book" font-size="23.0" fill="#FEFFFE" transform="matrix(1.00, 0.00, -0.00, -1.00, 238.5, 454.0)"> </text><text xml:space="preserve" font-family="Avenir-Book" font-size="23.0" fill="#FEFFFE" transform="matrix(1.00, 0.00, -0.00, -1.00, 248.6, 454.0)">&amp;</text><text xml:space="preserve" font-family="Avenir-Book" font-size="23.0" fill="#FEFFFE" transform="matrix(1.00, 0.00, -0.00, -1.00, 268.5, 454.0)"> </text><text xml:space="preserve" font-family="Avenir-Book" font-size="23.0" fill="#FEFFFE" transform="matrix(1.00, 0.00, -0.00, -1.00, 278.6, 454.0)">W</text><text xml:space="preserve" font-family="Avenir-Book" font-size="23.0" fill="#FEFFFE" transform="matrix(1.00, 0.00, -0.00, -1.00, 304.0, 454.0)">I</text><text xml:space="preserve" font-family="Avenir-Book" font-size="23.0" fill="#FEFFFE" transform="matrix(1.00, 0.00, -0.00, -1.00, 313.7, 454.0)">L</text><text xml:space="preserve" font-family="Avenir-Book" font-size="23.0" fill="#FEFFFE" transform="matrix(1.00, 0.00, -0.00, -1.00, 328.9, 454.0)">D</text><text xml:space="preserve" font-family="Avenir-Book" font-size="23.0" fill="#FEFFFE" transform="matrix(1.00, 0.00, -0.00, -1.00, 349.6, 454.0)"> </text><text xml:space="preserve" font-family="Avenir-Book" font-size="23.0" fill="#FEFFFE" transform="matrix(1.00, 0.00, -0.00, -1.00, 359.7, 454.0)">S</text><text xml:space="preserve" font-family="Avenir-Book" font-size="23.0" fill="#FEFFFE" transform="matrix(1.00, 0.00, -0.00, -1.00, 376.1, 454.0)">P</text><text xml:space="preserve" font-family="Avenir-Book" font-size="23.0" fill="#FEFFFE" transform="matrix(1.00, 0.00, -0.00, -1.00, 391.3, 454.0)">A</text><text xml:space="preserve" font-family="Avenir-Book" font-size="23.0" fill="#FEFFFE" transform="matrix(1.00, 0.00, -0.00, -1.00, 410.8, 454.0)">C</text><text xml:space="preserve" font-family="Avenir-Book" font-size="23.0" fill="#FEFFFE" transform="matrix(1.00, 0.00, -0.00, -1.00, 430.7, 454.0)">E</text><text xml:space="preserve" font-family="Avenir-Book" font-size="23.0" fill="#FEFFFE" transform="matrix(1.00, 0.00, -0.00, -1.00, 448.0, 454.0)">S</text><text xml:space="preserve" font-family="Avenir-Book" font-size="23.0" fill="#FEFFFE" transform="matrix(1.00, 0.00, -0.00, -1.00, 464.4, 454.0)"> </text><text xml:space="preserve" font-family="Avenir-Book" font-size="23.0" fill="#FEFFFE" transform="matrix(1.00, 0.00, -0.00, -1.00, 67.0, 299.0)">O</text><text xml:space="preserve" font-family="Avenir-Book" font-size="23.0" fill="#FEFFFE" transform="matrix(1.00, 0.00, -0.00, -1.00, 89.9, 299.0)">P</text><text xml:space="preserve" font-family="Avenir-Book" font-size="23.0" fill="#FEFFFE" transform="matrix(1.00, 0.00, -0.00, -1.00, 106.7, 299.0)">P</text><text xml:space="preserve" font-family="Avenir-Book" font-size="23.0" fill="#FEFFFE" transform="matrix(1.00, 0.00, -0.00, -1.00, 123.6, 299.0)">O</text><text xml:space="preserve" font-family="Avenir-Book" font-size="23.0" fill="#FEFFFE" transform="matrix(1.00, 0.00, -0.00, -1.00, 146.5, 299.0)">R</text><text xml:space="preserve" font-family="Avenir-Book" font-size="23.0" fill="#FEFFFE" transform="matrix(1.00, 0.00, -0.00, -1.00, 163.9, 299.0)">T</text><text xml:space="preserve" font-family="Avenir-Book" font-size="23.0" fill="#FEFFFE" transform="matrix(1.00, 0.00, -0.00, -1.00, 180.8, 299.0)">U</text><text xml:space="preserve" font-family="Avenir-Book" font-size="23.0" fill="#FEFFFE" transform="matrix(1.00, 0.00, -0.00, -1.00, 200.3, 299.0)">N</text><text xml:space="preserve" font-family="Avenir-Book" font-size="23.0" fill="#FEFFFE" transform="matrix(1.00, 0.00, -0.00, -1.00, 221.9, 299.0)">I</text><text xml:space="preserve" font-family="Avenir-Book" font-size="23.0" fill="#FEFFFE" transform="matrix(1.00, 0.00, -0.00, -1.00, 231.6, 299.0)">T</text><text xml:space="preserve" font-family="Avenir-Book" font-size="23.0" fill="#FEFFFE" transform="matrix(1.00, 0.00, -0.00, -1.00, 248.5, 299.0)">Y</text><text xml:space="preserve" font-family="Avenir-Book" font-size="23.0" fill="#FEFFFE" transform="matrix(1.00, 0.00, -0.00, -1.00, 265.4, 299.0)"> </text><text xml:space="preserve" font-family="Avenir-Book" font-size="23.0" fill="#FEFFFE" transform="matrix(1.00, 0.00, -0.00, -1.00, 275.4, 299.0)">T</text><text xml:space="preserve" font-family="Avenir-Book" font-size="23.0" fill="#FEFFFE" transform="matrix(1.00, 0.00, -0.00, -1.00, 292.3, 299.0)">O</text><text xml:space="preserve" font-family="Avenir-Book" font-size="23.0" fill="#FEFFFE" transform="matrix(1.00, 0.00, -0.00, -1.00, 315.2, 299.0)"> </text><text xml:space="preserve" font-family="Avenir-Book" font-size="23.0" fill="#FEFFFE" transform="matrix(1.00, 0.00, -0.00, -1.00, 325.3, 299.0)">E</text><text xml:space="preserve" font-family="Avenir-Book" font-size="23.0" fill="#FEFFFE" transform="matrix(1.00, 0.00, -0.00, -1.00, 342.6, 299.0)">X</text><text xml:space="preserve" font-family="Avenir-Book" font-size="23.0" fill="#FEFFFE" transform="matrix(1.00, 0.00, -0.00, -1.00, 360.8, 299.0)">P</text><text xml:space="preserve" font-family="Avenir-Book" font-size="23.0" fill="#FEFFFE" transform="matrix(1.00, 0.00, -0.00, -1.00, 377.6, 299.0)">L</text><text xml:space="preserve" font-family="Avenir-Book" font-size="23.0" fill="#FEFFFE" transform="matrix(1.00, 0.00, -0.00, -1.00, 392.8, 299.0)">O</text><text xml:space="preserve" font-family="Avenir-Book" font-size="23.0" fill="#FEFFFE" transform="matrix(1.00, 0.00, -0.00, -1.00, 415.7, 299.0)">R</text><text xml:space="preserve" font-family="Avenir-Book" font-size="23.0" fill="#FEFFFE" transform="matrix(1.00, 0.00, -0.00, -1.00, 433.0, 299.0)">E</text><text xml:space="preserve" font-family="Avenir-Book" font-size="23.0" fill="#FEFFFE" transform="matrix(1.00, 0.00, -0.00, -1.00, 450.3, 299.0)"> </text><text xml:space="preserve" font-family="Avenir-Book" font-size="23.0" fill="#FEFFFE" transform="matrix(1.00, 0.00, -0.00, -1.00, 19.0, 268.0)">D</text><text xml:space="preserve" font-family="Avenir-Book" font-size="23.0" fill="#FEFFFE" transform="matrix(1.00, 0.00, -0.00, -1.00, 39.7, 268.0)">U</text><text xml:space="preserve" font-family="Avenir-Book" font-size="23.0" fill="#FEFFFE" transform="matrix(1.00, 0.00, -0.00, -1.00, 59.2, 268.0)">R</text><text xml:space="preserve" font-family="Avenir-Book" font-size="23.0" fill="#FEFFFE" transform="matrix(1.00, 0.00, -0.00, -1.00, 76.5, 268.0)">I</text><text xml:space="preserve" font-family="Avenir-Book" font-size="23.0" fill="#FEFFFE" transform="matrix(1.00, 0.00, -0.00, -1.00, 86.3, 268.0)">N</text><text xml:space="preserve" font-family="Avenir-Book" font-size="23.0" fill="#FEFFFE" transform="matrix(1.00, 0.00, -0.00, -1.00, 107.8, 268.0)">G</text><text xml:space="preserve" font-family="Avenir-Book" font-size="23.0" fill="#FEFFFE" transform="matrix(1.00, 0.00, -0.00, -1.00, 129.4, 268.0)"> </text><text xml:space="preserve" font-family="Avenir-Book" font-size="23.0" fill="#FEFFFE" transform="matrix(1.00, 0.00, -0.00, -1.00, 139.5, 268.0)">T</text><text xml:space="preserve" font-family="Avenir-Book" font-size="23.0" fill="#FEFFFE" transform="matrix(1.00, 0.00, -0.00, -1.00, 156.4, 268.0)">H</text><text xml:space="preserve" font-family="Avenir-Book" font-size="23.0" fill="#FEFFFE" transform="matrix(1.00, 0.00, -0.00, -1.00, 176.6, 268.0)">E</text><text xml:space="preserve" font-family="Avenir-Book" font-size="23.0" fill="#FEFFFE" transform="matrix(1.00, 0.00, -0.00, -1.00, 194.0, 268.0)"> </text><text xml:space="preserve" font-family="Avenir-Book" font-size="23.0" fill="#FEFFFE" transform="matrix(1.00, 0.00, -0.00, -1.00, 204.0, 268.0)">C</text><text xml:space="preserve" font-family="Avenir-Book" font-size="23.0" fill="#FEFFFE" transform="matrix(1.00, 0.00, -0.00, -1.00, 223.9, 268.0)">O</text><text xml:space="preserve" font-family="Avenir-Book" font-size="23.0" fill="#FEFFFE" transform="matrix(1.00, 0.00, -0.00, -1.00, 246.8, 268.0)">V</text><text xml:space="preserve" font-family="Avenir-Book" font-size="23.0" fill="#FEFFFE" transform="matrix(1.00, 0.00, -0.00, -1.00, 264.5, 268.0)">I</text><text xml:space="preserve" font-family="Avenir-Book" font-size="23.0" fill="#FEFFFE" transform="matrix(1.00, 0.00, -0.00, -1.00, 274.3, 268.0)">D</text><text xml:space="preserve" font-family="Avenir-Book" font-size="23.0" fill="#FEFFFE" transform="matrix(1.00, 0.00, -0.00, -1.00, 295.0, 268.0)">-</text><text xml:space="preserve" font-family="Avenir-Book" font-size="23.0" fill="#FEFFFE" transform="matrix(1.00, 0.00, -0.00, -1.00, 306.3, 268.0)">1</text><text xml:space="preserve" font-family="Avenir-Book" font-size="23.0" fill="#FEFFFE" transform="matrix(1.00, 0.00, -0.00, -1.00, 322.8, 268.0)">9</text><text xml:space="preserve" font-family="Avenir-Book" font-size="23.0" fill="#FEFFFE" transform="matrix(1.00, 0.00, -0.00, -1.00, 339.3, 268.0)"> </text><text xml:space="preserve" font-family="Avenir-Book" font-size="23.0" fill="#FEFFFE" transform="matrix(1.00, 0.00, -0.00, -1.00, 349.3, 268.0)">P</text><text xml:space="preserve" font-family="Avenir-Book" font-size="23.0" fill="#FEFFFE" transform="matrix(1.00, 0.00, -0.00, -1.00, 364.5, 268.0)">A</text><text xml:space="preserve" font-family="Avenir-Book" font-size="23.0" fill="#FEFFFE" transform="matrix(1.00, 0.00, -0.00, -1.00, 384.0, 268.0)">N</text><text xml:space="preserve" font-family="Avenir-Book" font-size="23.0" fill="#FEFFFE" transform="matrix(1.00, 0.00, -0.00, -1.00, 405.5, 268.0)">D</text><text xml:space="preserve" font-family="Avenir-Book" font-size="23.0" fill="#FEFFFE" transform="matrix(1.00, 0.00, -0.00, -1.00, 426.3, 268.0)">E</text><text xml:space="preserve" font-family="Avenir-Book" font-size="23.0" fill="#FEFFFE" transform="matrix(1.00, 0.00, -0.00, -1.00, 443.6, 268.0)">M</text><text xml:space="preserve" font-family="Avenir-Book" font-size="23.0" fill="#FEFFFE" transform="matrix(1.00, 0.00, -0.00, -1.00, 467.7, 268.0)">I</text><text xml:space="preserve" font-family="Avenir-Book" font-size="23.0" fill="#FEFFFE" transform="matrix(1.00, 0.00, -0.00, -1.00, 477.5, 268.0)">C</text><text xml:space="preserve" font-family="Avenir-Book" font-size="23.0" fill="#FEFFFE" transform="matrix(1.00, 0.00, -0.00, -1.00, 497.4, 268.0)"> </text><text xml:space="preserve" font-family="Avenir-Book" font-size="23.0" fill="#FEFFFE" transform="matrix(1.00, 0.00, -0.00, -1.00, 507.4, 268.0)"> </text><text xml:space="preserve" font-family="Avenir-Book" font-size="23.0" fill="#FEFFFE" transform="matrix(1.00, 0.00, -0.00, -1.00, 60.0, 237.0)">[</text><text xml:space="preserve" font-family="Avenir-Book" font-size="23.0" fill="#FEFFFE" transform="matrix(1.00, 0.00, -0.00, -1.00, 69.7, 237.0)">Y</text><text xml:space="preserve" font-family="Avenir-Book" font-size="23.0" fill="#FEFFFE" transform="matrix(1.00, 0.00, -0.00, -1.00, 86.5, 237.0)">U</text><text xml:space="preserve" font-family="Avenir-Book" font-size="23.0" fill="#FEFFFE" transform="matrix(1.00, 0.00, -0.00, -1.00, 106.0, 237.0)">K</text><text xml:space="preserve" font-family="Avenir-Book" font-size="23.0" fill="#FEFFFE" transform="matrix(1.00, 0.00, -0.00, -1.00, 124.2, 237.0)">O</text><text xml:space="preserve" font-family="Avenir-Book" font-size="23.0" fill="#FEFFFE" transform="matrix(1.00, 0.00, -0.00, -1.00, 147.0, 237.0)">N</text><text xml:space="preserve" font-family="Avenir-Book" font-size="23.0" fill="#FEFFFE" transform="matrix(1.00, 0.00, -0.00, -1.00, 168.6, 237.0)">-</text><text xml:space="preserve" font-family="Avenir-Book" font-size="23.0" fill="#FEFFFE" transform="matrix(1.00, 0.00, -0.00, -1.00, 179.9, 237.0)">B</text><text xml:space="preserve" font-family="Avenir-Book" font-size="23.0" fill="#FEFFFE" transform="matrix(1.00, 0.00, -0.00, -1.00, 198.1, 237.0)">C</text><text xml:space="preserve" font-family="Avenir-Book" font-size="23.0" fill="#FEFFFE" transform="matrix(1.00, 0.00, -0.00, -1.00, 218.0, 237.0)"> </text><text xml:space="preserve" font-family="Avenir-Book" font-size="23.0" fill="#FEFFFE" transform="matrix(1.00, 0.00, -0.00, -1.00, 228.1, 237.0)">T</text><text xml:space="preserve" font-family="Avenir-Book" font-size="23.0" fill="#FEFFFE" transform="matrix(1.00, 0.00, -0.00, -1.00, 244.9, 237.0)">R</text><text xml:space="preserve" font-family="Avenir-Book" font-size="23.0" fill="#FEFFFE" transform="matrix(1.00, 0.00, -0.00, -1.00, 262.3, 237.0)">A</text><text xml:space="preserve" font-family="Avenir-Book" font-size="23.0" fill="#FEFFFE" transform="matrix(1.00, 0.00, -0.00, -1.00, 280.6, 237.0)">V</text><text xml:space="preserve" font-family="Avenir-Book" font-size="23.0" fill="#FEFFFE" transform="matrix(1.00, 0.00, -0.00, -1.00, 298.3, 237.0)">E</text><text xml:space="preserve" font-family="Avenir-Book" font-size="23.0" fill="#FEFFFE" transform="matrix(1.00, 0.00, -0.00, -1.00, 315.6, 237.0)">L</text><text xml:space="preserve" font-family="Avenir-Book" font-size="23.0" fill="#FEFFFE" transform="matrix(1.00, 0.00, -0.00, -1.00, 330.8, 237.0)"> </text><text xml:space="preserve" font-family="Avenir-Book" font-size="23.0" fill="#FEFFFE" transform="matrix(1.00, 0.00, -0.00, -1.00, 340.9, 237.0)">B</text><text xml:space="preserve" font-family="Avenir-Book" font-size="23.0" fill="#FEFFFE" transform="matrix(1.00, 0.00, -0.00, -1.00, 359.0, 237.0)">U</text><text xml:space="preserve" font-family="Avenir-Book" font-size="23.0" fill="#FEFFFE" transform="matrix(1.00, 0.00, -0.00, -1.00, 378.5, 237.0)">B</text><text xml:space="preserve" font-family="Avenir-Book" font-size="23.0" fill="#FEFFFE" transform="matrix(1.00, 0.00, -0.00, -1.00, 396.7, 237.0)">B</text><text xml:space="preserve" font-family="Avenir-Book" font-size="23.0" fill="#FEFFFE" transform="matrix(1.00, 0.00, -0.00, -1.00, 414.8, 237.0)">L</text><text xml:space="preserve" font-family="Avenir-Book" font-size="23.0" fill="#FEFFFE" transform="matrix(1.00, 0.00, -0.00, -1.00, 430.0, 237.0)">E</text><text xml:space="preserve" font-family="Avenir-Book" font-size="23.0" fill="#FEFFFE" transform="matrix(1.00, 0.00, -0.00, -1.00, 447.3, 237.0)">]</text><text xml:space="preserve" font-family="Avenir-Light" font-size="20.0" fill="#FEFFFE" transform="matrix(1.00, 0.00, -0.00, -1.00, 268.0, 11.0)">M</text><text xml:space="preserve" font-family="Avenir-Light" font-size="20.0" fill="#FEFFFE" transform="matrix(1.00, 0.00, -0.00, -1.00, 289.0, 11.0)">I</text><text xml:space="preserve" font-family="Avenir-Light" font-size="20.0" fill="#FEFFFE" transform="matrix(1.00, 0.00, -0.00, -1.00, 297.4, 11.0)">L</text><text xml:space="preserve" font-family="Avenir-Light" font-size="20.0" fill="#FEFFFE" transform="matrix(1.00, 0.00, -0.00, -1.00, 310.6, 11.0)">K</text><text xml:space="preserve" font-family="Avenir-Light" font-size="20.0" fill="#FEFFFE" transform="matrix(1.00, 0.00, -0.00, -1.00, 326.0, 11.0)">Y</text><text xml:space="preserve" font-family="Avenir-Light" font-size="20.0" fill="#FEFFFE" transform="matrix(1.00, 0.00, -0.00, -1.00, 340.7, 11.0)"> </text><text xml:space="preserve" font-family="Avenir-Light" font-size="20.0" fill="#FEFFFE" transform="matrix(1.00, 0.00, -0.00, -1.00, 349.1, 11.0)">W</text><text xml:space="preserve" font-family="Avenir-Light" font-size="20.0" fill="#FEFFFE" transform="matrix(1.00, 0.00, -0.00, -1.00, 370.8, 11.0)">A</text><text xml:space="preserve" font-family="Avenir-Light" font-size="20.0" fill="#FEFFFE" transform="matrix(1.00, 0.00, -0.00, -1.00, 386.2, 11.0)">Y</text><text xml:space="preserve" font-family="Avenir-Light" font-size="20.0" fill="#FEFFFE" transform="matrix(1.00, 0.00, -0.00, -1.00, 400.9, 11.0)"> </text><text xml:space="preserve" font-family="Avenir-Light" font-size="20.0" fill="#FEFFFE" transform="matrix(1.00, 0.00, -0.00, -1.00, 409.3, 11.0)">G</text><text xml:space="preserve" font-family="Avenir-Light" font-size="20.0" fill="#FEFFFE" transform="matrix(1.00, 0.00, -0.00, -1.00, 428.1, 11.0)">A</text><text xml:space="preserve" font-family="Avenir-Light" font-size="20.0" fill="#FEFFFE" transform="matrix(1.00, 0.00, -0.00, -1.00, 445.0, 11.0)">L</text><text xml:space="preserve" font-family="Avenir-Light" font-size="20.0" fill="#FEFFFE" transform="matrix(1.00, 0.00, -0.00, -1.00, 458.2, 11.0)">A</text><text xml:space="preserve" font-family="Avenir-Light" font-size="20.0" fill="#FEFFFE" transform="matrix(1.00, 0.00, -0.00, -1.00, 475.1, 11.0)">X</text><text xml:space="preserve" font-family="Avenir-Light" font-size="20.0" fill="#FEFFFE" transform="matrix(1.00, 0.00, -0.00, -1.00, 490.5, 11.0)">Y</text><text xml:space="preserve" font-family="Avenir-Light" font-size="20.0" fill="#FEFFFE" transform="matrix(1.00, 0.00, -0.00, -1.00, 505.2, 11.0)"> </text><text xml:space="preserve" font-family="Avenir-Light" font-size="20.0" fill="#FEFFFE" transform="matrix(1.00, 0.00, -0.00, -1.00, 513.6, 11.0)">|</text><text xml:space="preserve" font-family="Avenir-Light" font-size="20.0" fill="#FEFFFE" transform="matrix(1.00, 0.00, -0.00, -1.00, 521.2, 11.0)"> </text><text xml:space="preserve" font-family="Avenir-Light" font-size="20.0" fill="#FEFFFE" transform="matrix(1.00, 0.00, -0.00, -1.00, 529.6, 11.0)">C</text><text xml:space="preserve" font-family="Avenir-Light" font-size="20.0" fill="#FEFFFE" transform="matrix(1.00, 0.00, -0.00, -1.00, 546.9, 11.0)">R</text><text xml:space="preserve" font-family="Avenir-Light" font-size="20.0" fill="#FEFFFE" transform="matrix(1.00, 0.00, -0.00, -1.00, 561.9, 11.0)">O</text><text xml:space="preserve" font-family="Avenir-Light" font-size="20.0" fill="#FEFFFE" transform="matrix(1.00, 0.00, -0.00, -1.00, 581.8, 11.0)">O</text><text xml:space="preserve" font-family="Avenir-Light" font-size="20.0" fill="#FEFFFE" transform="matrix(1.00, 0.00, -0.00, -1.00, 601.7, 11.0)">K</text><text xml:space="preserve" font-family="Avenir-Light" font-size="20.0" fill="#FEFFFE" transform="matrix(1.00, 0.00, -0.00, -1.00, 617.1, 11.0)">E</text><text xml:space="preserve" font-family="Avenir-Light" font-size="20.0" fill="#FEFFFE" transform="matrix(1.00, 0.00, -0.00, -1.00, 632.2, 11.0)">D</text><text xml:space="preserve" font-family="Avenir-Light" font-size="20.0" fill="#FEFFFE" transform="matrix(1.00, 0.00, -0.00, -1.00, 650.2, 11.0)"> </text><text xml:space="preserve" font-family="Avenir-Light" font-size="20.0" fill="#FEFFFE" transform="matrix(1.00, 0.00, -0.00, -1.00, 658.6, 11.0)">R</text><text xml:space="preserve" font-family="Avenir-Light" font-size="20.0" fill="#FEFFFE" transform="matrix(1.00, 0.00, -0.00, -1.00, 673.7, 11.0)">I</text><text xml:space="preserve" font-family="Avenir-Light" font-size="20.0" fill="#FEFFFE" transform="matrix(1.00, 0.00, -0.00, -1.00, 682.1, 11.0)">V</text><text xml:space="preserve" font-family="Avenir-Light" font-size="20.0" fill="#FEFFFE" transform="matrix(1.00, 0.00, -0.00, -1.00, 697.1, 11.0)">E</text><text xml:space="preserve" font-family="Avenir-Light" font-size="20.0" fill="#FEFFFE" transform="matrix(1.00, 0.00, -0.00, -1.00, 712.2, 11.0)">R</text><text xml:space="preserve" font-family="Avenir-Light" font-size="20.0" fill="#FEFFFE" transform="matrix(1.00, 0.00, -0.00, -1.00, 727.2, 11.0)"> </text><text xml:space="preserve" font-family="Avenir-Light" font-size="20.0" fill="#FEFFFE" transform="matrix(1.00, 0.00, -0.00, -1.00, 735.6, 11.0)">P</text><text xml:space="preserve" font-family="Avenir-Light" font-size="20.0" fill="#FEFFFE" transform="matrix(1.00, 0.00, -0.00, -1.00, 750.3, 11.0)">R</text><text xml:space="preserve" font-family="Avenir-Light" font-size="20.0" fill="#FEFFFE" transform="matrix(1.00, 0.00, -0.00, -1.00, 765.4, 11.0)">O</text><text xml:space="preserve" font-family="Avenir-Light" font-size="20.0" fill="#FEFFFE" transform="matrix(1.00, 0.00, -0.00, -1.00, 785.3, 11.0)">V</text><text xml:space="preserve" font-family="Avenir-Light" font-size="20.0" fill="#FEFFFE" transform="matrix(1.00, 0.00, -0.00, -1.00, 800.3, 11.0)">I</text><text xml:space="preserve" font-family="Avenir-Light" font-size="20.0" fill="#FEFFFE" transform="matrix(1.00, 0.00, -0.00, -1.00, 808.7, 11.0)">N</text><text xml:space="preserve" font-family="Avenir-Light" font-size="20.0" fill="#FEFFFE" transform="matrix(1.00, 0.00, -0.00, -1.00, 827.5, 11.0)">C</text><text xml:space="preserve" font-family="Avenir-Light" font-size="20.0" fill="#FEFFFE" transform="matrix(1.00, 0.00, -0.00, -1.00, 844.8, 11.0)">I</text><text xml:space="preserve" font-family="Avenir-Light" font-size="20.0" fill="#FEFFFE" transform="matrix(1.00, 0.00, -0.00, -1.00, 853.2, 11.0)">A</text><text xml:space="preserve" font-family="Avenir-Light" font-size="20.0" fill="#FEFFFE" transform="matrix(1.00, 0.00, -0.00, -1.00, 870.1, 11.0)">L</text><text xml:space="preserve" font-family="Avenir-Light" font-size="20.0" fill="#FEFFFE" transform="matrix(1.00, 0.00, -0.00, -1.00, 883.3, 11.0)"> </text><text xml:space="preserve" font-family="Avenir-Light" font-size="20.0" fill="#FEFFFE" transform="matrix(1.00, 0.00, -0.00, -1.00, 891.7, 11.0)">P</text><text xml:space="preserve" font-family="Avenir-Light" font-size="20.0" fill="#FEFFFE" transform="matrix(1.00, 0.00, -0.00, -1.00, 904.9, 11.0)">A</text><text xml:space="preserve" font-family="Avenir-Light" font-size="20.0" fill="#FEFFFE" transform="matrix(1.00, 0.00, -0.00, -1.00, 921.8, 11.0)">R</text><text xml:space="preserve" font-family="Avenir-Light" font-size="20.0" fill="#FEFFFE" transform="matrix(1.00, 0.00, -0.00, -1.00, 936.8, 11.0)">K</text><text xml:space="preserve" font-family="Avenir-Light" font-size="20.0" fill="#FEFFFE" transform="matrix(1.00, 0.00, -0.00, -1.00, 952.2, 11.0)"> </text><text xml:space="preserve" font-family="Avenir-Light" font-size="20.0" fill="#FEFFFE" transform="matrix(1.00, 0.00, -0.00, -1.00, 960.6, 11.0)">B</text><text xml:space="preserve" font-family="Avenir-Light" font-size="20.0" fill="#FEFFFE" transform="matrix(1.00, 0.00, -0.00, -1.00, 976.4, 11.0)">C</text><text xml:space="preserve" font-family="Avenir-Light" font-size="54.0" fill="#FEFFFF" transform="matrix(1.00, 0.00, -0.00, -1.00, 118.0, 661.0)">I</text><text xml:space="preserve" font-family="Avenir-Light" font-size="54.0" fill="#FEFFFF" transform="matrix(1.00, 0.00, -0.00, -1.00, 140.7, 661.0)">M</text><text xml:space="preserve" font-family="Avenir-Light" font-size="54.0" fill="#FEFFFF" transform="matrix(1.00, 0.00, -0.00, -1.00, 197.3, 661.0)">P</text><text xml:space="preserve" font-family="Avenir-Light" font-size="54.0" fill="#FEFFFF" transform="matrix(1.00, 0.00, -0.00, -1.00, 237.0, 661.0)">E</text><text xml:space="preserve" font-family="Avenir-Light" font-size="54.0" fill="#FEFFFF" transform="matrix(1.00, 0.00, -0.00, -1.00, 277.6, 661.0)">T</text><text xml:space="preserve" font-family="Avenir-Light" font-size="54.0" fill="#FEFFFF" transform="matrix(1.00, 0.00, -0.00, -1.00, 317.3, 661.0)">U</text><text xml:space="preserve" font-family="Avenir-Light" font-size="54.0" fill="#FEFFFF" transform="matrix(1.00, 0.00, -0.00, -1.00, 362.8, 661.0)">S</text></g></svg>