<?xml version="1.0" encoding="UTF-8"?><svg xmlns="http://www.w3.org/2000/svg" xmlns:xlink="http://www.w3.org/1999/xlink" clip-rule="evenodd" stroke-miterlimit="4.00" viewBox="0 0 1024 768"><desc>SVG generated by Keynote</desc><defs></defs><g transform="matrix(1.00, 0.00, -0.00, -1.00, 0.0, 768.0)"><path d="M 0.0 768.0 L 1024.0 768.0 L 1024.0 0.0 L 0.0 0.0 Z M 0.0 768.0 " fill="#000000"></path><g><clipPath id="clip-4"><path d="M 0.0 768.0 L 1024.0 768.0 L 1024.0 34.0 L 0.0 34.0 Z M 0.0 768.2 "></path></clipPath><g clip-path="url(#clip-4)"><image xlink:href="67839B207711696D003F03F7E13CD4B7.jpeg" width="1022.00" height="768.00" transform="matrix(1.00, 0.00, -0.00, -1.00, 0.0, 786.0)"></image></g></g><text xml:space="preserve" font-family="Avenir-Book" font-size="21.4" fill="#FEFFFE" transform="matrix(1.00, 0.00, -0.00, -1.00, 208.0, 11.0)">C</text><text xml:space="preserve" font-family="Avenir-Book" font-size="21.4" fill="#FEFFFE" transform="matrix(1.00, 0.00, -0.00, -1.00, 226.5, 11.0)">H</text><text xml:space="preserve" font-family="Avenir-Book" font-size="21.4" fill="#FEFFFE" transform="matrix(1.00, 0.00, -0.00, -1.00, 245.3, 11.0)">A</text><text xml:space="preserve" font-family="Avenir-Book" font-size="21.4" fill="#FEFFFE" transform="matrix(1.00, 0.00, -0.00, -1.00, 263.4, 11.0)">R</text><text xml:space="preserve" font-family="Avenir-Book" font-size="21.4" fill="#FEFFFE" transform="matrix(1.00, 0.00, -0.00, -1.00, 279.6, 11.0)">T</text><text xml:space="preserve" font-family="Avenir-Book" font-size="21.4" fill="#FEFFFE" transform="matrix(1.00, 0.00, -0.00, -1.00, 295.3, 11.0)">I</text><text xml:space="preserve" font-family="Avenir-Book" font-size="21.4" fill="#FEFFFE" transform="matrix(1.00, 0.00, -0.00, -1.00, 304.3, 11.0)">N</text><text xml:space="preserve" font-family="Avenir-Book" font-size="21.4" fill="#FEFFFE" transform="matrix(1.00, 0.00, -0.00, -1.00, 324.3, 11.0)">G</text><text xml:space="preserve" font-family="Avenir-Book" font-size="21.4" fill="#FEFFFE" transform="matrix(1.00, 0.00, -0.00, -1.00, 344.4, 11.0)"> </text><text xml:space="preserve" font-family="Avenir-Book" font-size="21.4" fill="#FEFFFE" transform="matrix(1.00, 0.00, -0.00, -1.00, 353.7, 11.0)">A</text><text xml:space="preserve" font-family="Avenir-Book" font-size="21.4" fill="#FEFFFE" transform="matrix(1.00, 0.00, -0.00, -1.00, 371.8, 11.0)"> </text><text xml:space="preserve" font-family="Avenir-Book" font-size="21.4" fill="#FEFFFE" transform="matrix(1.00, 0.00, -0.00, -1.00, 381.2, 11.0)">C</text><text xml:space="preserve" font-family="Avenir-Book" font-size="21.4" fill="#FEFFFE" transform="matrix(1.00, 0.00, -0.00, -1.00, 399.6, 11.0)">O</text><text xml:space="preserve" font-family="Avenir-Book" font-size="21.4" fill="#FEFFFE" transform="matrix(1.00, 0.00, -0.00, -1.00, 420.9, 11.0)">U</text><text xml:space="preserve" font-family="Avenir-Book" font-size="21.4" fill="#FEFFFE" transform="matrix(1.00, 0.00, -0.00, -1.00, 438.9, 11.0)">R</text><text xml:space="preserve" font-family="Avenir-Book" font-size="21.4" fill="#FEFFFE" transform="matrix(1.00, 0.00, -0.00, -1.00, 455.0, 11.0)">S</text><text xml:space="preserve" font-family="Avenir-Book" font-size="21.4" fill="#FEFFFE" transform="matrix(1.00, 0.00, -0.00, -1.00, 470.3, 11.0)">E</text><text xml:space="preserve" font-family="Avenir-Book" font-size="21.4" fill="#FEFFFE" transform="matrix(1.00, 0.00, -0.00, -1.00, 486.4, 11.0)"> </text><text xml:space="preserve" font-family="Avenir-Book" font-size="21.4" fill="#FEFFFE" transform="matrix(1.00, 0.00, -0.00, -1.00, 495.7, 11.0)">&amp;</text><text xml:space="preserve" font-family="Avenir-Book" font-size="21.4" fill="#FEFFFE" transform="matrix(1.00, 0.00, -0.00, -1.00, 514.2, 11.0)"> </text><text xml:space="preserve" font-family="Avenir-Book" font-size="21.4" fill="#FEFFFE" transform="matrix(1.00, 0.00, -0.00, -1.00, 523.6, 11.0)">O</text><text xml:space="preserve" font-family="Avenir-Book" font-size="21.4" fill="#FEFFFE" transform="matrix(1.00, 0.00, -0.00, -1.00, 544.8, 11.0)">T</text><text xml:space="preserve" font-family="Avenir-Book" font-size="21.4" fill="#FEFFFE" transform="matrix(1.00, 0.00, -0.00, -1.00, 560.5, 11.0)">H</text><text xml:space="preserve" font-family="Avenir-Book" font-size="21.4" fill="#FEFFFE" transform="matrix(1.00, 0.00, -0.00, -1.00, 579.3, 11.0)">E</text><text xml:space="preserve" font-family="Avenir-Book" font-size="21.4" fill="#FEFFFE" transform="matrix(1.00, 0.00, -0.00, -1.00, 595.4, 11.0)">R</text><text xml:space="preserve" font-family="Avenir-Book" font-size="21.4" fill="#FEFFFE" transform="matrix(1.00, 0.00, -0.00, -1.00, 611.5, 11.0)"> </text><text xml:space="preserve" font-family="Avenir-Book" font-size="21.4" fill="#FEFFFE" transform="matrix(1.00, 0.00, -0.00, -1.00, 620.8, 11.0)">P</text><text xml:space="preserve" font-family="Avenir-Book" font-size="21.4" fill="#FEFFFE" transform="matrix(1.00, 0.00, -0.00, -1.00, 636.5, 11.0)">R</text><text xml:space="preserve" font-family="Avenir-Book" font-size="21.4" fill="#FEFFFE" transform="matrix(1.00, 0.00, -0.00, -1.00, 652.6, 11.0)">E</text><text xml:space="preserve" font-family="Avenir-Book" font-size="21.4" fill="#FEFFFE" transform="matrix(1.00, 0.00, -0.00, -1.00, 668.7, 11.0)">P</text><text xml:space="preserve" font-family="Avenir-Book" font-size="21.4" fill="#FEFFFE" transform="matrix(1.00, 0.00, -0.00, -1.00, 682.8, 11.0)">A</text><text xml:space="preserve" font-family="Avenir-Book" font-size="21.4" fill="#FEFFFE" transform="matrix(1.00, 0.00, -0.00, -1.00, 700.8, 11.0)">R</text><text xml:space="preserve" font-family="Avenir-Book" font-size="21.4" fill="#FEFFFE" transform="matrix(1.00, 0.00, -0.00, -1.00, 716.9, 11.0)">A</text><text xml:space="preserve" font-family="Avenir-Book" font-size="21.4" fill="#FEFFFE" transform="matrix(1.00, 0.00, -0.00, -1.00, 733.5, 11.0)">T</text><text xml:space="preserve" font-family="Avenir-Book" font-size="21.4" fill="#FEFFFE" transform="matrix(1.00, 0.00, -0.00, -1.00, 749.2, 11.0)">I</text><text xml:space="preserve" font-family="Avenir-Book" font-size="21.4" fill="#FEFFFE" transform="matrix(1.00, 0.00, -0.00, -1.00, 758.3, 11.0)">O</text><text xml:space="preserve" font-family="Avenir-Book" font-size="21.4" fill="#FEFFFE" transform="matrix(1.00, 0.00, -0.00, -1.00, 779.5, 11.0)">N</text><text xml:space="preserve" font-family="Avenir-Book" font-size="21.4" fill="#FEFFFE" transform="matrix(1.00, 0.00, -0.00, -1.00, 799.5, 11.0)">S</text></g></svg>