<?xml version="1.0" encoding="UTF-8"?><svg xmlns="http://www.w3.org/2000/svg" xmlns:xlink="http://www.w3.org/1999/xlink" clip-rule="evenodd" stroke-miterlimit="4.00" viewBox="0 0 1024 768"><desc>SVG generated by Keynote</desc><defs></defs><g transform="matrix(1.00, 0.00, -0.00, -1.00, 0.0, 768.0)"><path d="M 0.0 768.0 L 1024.0 768.0 L 1024.0 0.0 L 0.0 0.0 Z M 0.0 768.0 " fill="#000000"></path><g><clipPath id="clip-188"><path d="M 0.0 768.0 L 1024.0 768.0 L 1024.0 34.0 L 0.0 34.0 Z M 0.0 768.2 "></path></clipPath><g clip-path="url(#clip-188)"><image xlink:href="67839B207711696D003F03F7E13CD4B7.jpeg" width="1022.00" height="768.00" transform="matrix(1.00, 0.00, -0.00, -1.00, 0.0, 786.0)"></image></g></g><text xml:space="preserve" font-family="Avenir-Book" font-size="20.6" fill="#FEFFFE" transform="matrix(1.00, 0.00, -0.00, -1.00, 347.0, 10.0)">R</text><text xml:space="preserve" font-family="Avenir-Book" font-size="20.6" fill="#FEFFFE" transform="matrix(1.00, 0.00, -0.00, -1.00, 362.5, 10.0)">O</text><text xml:space="preserve" font-family="Avenir-Book" font-size="20.6" fill="#FEFFFE" transform="matrix(1.00, 0.00, -0.00, -1.00, 383.1, 10.0)">A</text><text xml:space="preserve" font-family="Avenir-Book" font-size="20.6" fill="#FEFFFE" transform="matrix(1.00, 0.00, -0.00, -1.00, 400.5, 10.0)">D</text><text xml:space="preserve" font-family="Avenir-Book" font-size="20.6" fill="#FEFFFE" transform="matrix(1.00, 0.00, -0.00, -1.00, 419.1, 10.0)"> </text><text xml:space="preserve" font-family="Avenir-Book" font-size="20.6" fill="#FEFFFE" transform="matrix(1.00, 0.00, -0.00, -1.00, 428.2, 10.0)">T</text><text xml:space="preserve" font-family="Avenir-Book" font-size="20.6" fill="#FEFFFE" transform="matrix(1.00, 0.00, -0.00, -1.00, 443.3, 10.0)">R</text><text xml:space="preserve" font-family="Avenir-Book" font-size="20.6" fill="#FEFFFE" transform="matrix(1.00, 0.00, -0.00, -1.00, 458.8, 10.0)">I</text><text xml:space="preserve" font-family="Avenir-Book" font-size="20.6" fill="#FEFFFE" transform="matrix(1.00, 0.00, -0.00, -1.00, 467.6, 10.0)">P</text><text xml:space="preserve" font-family="Avenir-Book" font-size="20.6" fill="#FEFFFE" transform="matrix(1.00, 0.00, -0.00, -1.00, 482.7, 10.0)"> </text><text xml:space="preserve" font-family="Avenir-Book" font-size="20.6" fill="#FEFFFE" transform="matrix(1.00, 0.00, -0.00, -1.00, 491.8, 10.0)">P</text><text xml:space="preserve" font-family="Avenir-Book" font-size="20.6" fill="#FEFFFE" transform="matrix(1.00, 0.00, -0.00, -1.00, 506.9, 10.0)">R</text><text xml:space="preserve" font-family="Avenir-Book" font-size="20.6" fill="#FEFFFE" transform="matrix(1.00, 0.00, -0.00, -1.00, 522.5, 10.0)">E</text><text xml:space="preserve" font-family="Avenir-Book" font-size="20.6" fill="#FEFFFE" transform="matrix(1.00, 0.00, -0.00, -1.00, 538.0, 10.0)">P</text><text xml:space="preserve" font-family="Avenir-Book" font-size="20.6" fill="#FEFFFE" transform="matrix(1.00, 0.00, -0.00, -1.00, 551.6, 10.0)">A</text><text xml:space="preserve" font-family="Avenir-Book" font-size="20.6" fill="#FEFFFE" transform="matrix(1.00, 0.00, -0.00, -1.00, 569.1, 10.0)">R</text><text xml:space="preserve" font-family="Avenir-Book" font-size="20.6" fill="#FEFFFE" transform="matrix(1.00, 0.00, -0.00, -1.00, 584.6, 10.0)">A</text><text xml:space="preserve" font-family="Avenir-Book" font-size="20.6" fill="#FEFFFE" transform="matrix(1.00, 0.00, -0.00, -1.00, 600.7, 10.0)">T</text><text xml:space="preserve" font-family="Avenir-Book" font-size="20.6" fill="#FEFFFE" transform="matrix(1.00, 0.00, -0.00, -1.00, 615.9, 10.0)">I</text><text xml:space="preserve" font-family="Avenir-Book" font-size="20.6" fill="#FEFFFE" transform="matrix(1.00, 0.00, -0.00, -1.00, 624.6, 10.0)">O</text><text xml:space="preserve" font-family="Avenir-Book" font-size="20.6" fill="#FEFFFE" transform="matrix(1.00, 0.00, -0.00, -1.00, 645.1, 10.0)">N</text><text xml:space="preserve" font-family="Avenir-Book" font-size="20.6" fill="#FEFFFE" transform="matrix(1.00, 0.00, -0.00, -1.00, 664.5, 10.0)">S</text></g></svg>