<?xml version="1.0" encoding="UTF-8"?><svg xmlns="http://www.w3.org/2000/svg" xmlns:xlink="http://www.w3.org/1999/xlink" clip-rule="evenodd" stroke-miterlimit="4.00" viewBox="0 0 1024 768"><desc>SVG generated by Keynote</desc><defs></defs><g transform="matrix(1.00, 0.00, -0.00, -1.00, 0.0, 768.0)"><path d="M 0.0 768.0 L 1024.0 768.0 L 1024.0 0.0 L 0.0 0.0 Z M 0.0 768.0 " fill="#000000"></path><g><clipPath id="clip-342"><path d="M 0.0 0.0 L 1024.0 0.0 L 1024.0 768.0 L 0.0 768.0 Z M 0.0 0.0 "></path></clipPath><g clip-path="url(#clip-342)"><image xlink:href="F4D998713B6B590576C2F4CF90B3BF2C.jpeg" width="1022.00" height="768.00" transform="matrix(1.00, 0.00, -0.00, -1.00, 0.0, 769.0)"></image></g></g><text xml:space="preserve" font-family="Avenir-Light" font-size="62.0" fill="#000000" transform="matrix(1.00, 0.00, -0.00, -1.00, 250.0, 227.0)">P</text><text xml:space="preserve" font-family="Avenir-Light" font-size="62.0" fill="#000000" transform="matrix(1.00, 0.00, -0.00, -1.00, 295.5, 227.0)">R</text><text xml:space="preserve" font-family="Avenir-Light" font-size="62.0" fill="#000000" transform="matrix(1.00, 0.00, -0.00, -1.00, 342.2, 227.0)">E</text><text xml:space="preserve" font-family="Avenir-Light" font-size="62.0" fill="#000000" transform="matrix(1.00, 0.00, -0.00, -1.00, 388.9, 227.0)">P</text><text xml:space="preserve" font-family="Avenir-Light" font-size="62.0" fill="#000000" transform="matrix(1.00, 0.00, -0.00, -1.00, 429.8, 227.0)">A</text><text xml:space="preserve" font-family="Avenir-Light" font-size="62.0" fill="#000000" transform="matrix(1.00, 0.00, -0.00, -1.00, 482.2, 227.0)">R</text><text xml:space="preserve" font-family="Avenir-Light" font-size="62.0" fill="#000000" transform="matrix(1.00, 0.00, -0.00, -1.00, 528.9, 227.0)">A</text><text xml:space="preserve" font-family="Avenir-Light" font-size="62.0" fill="#000000" transform="matrix(1.00, 0.00, -0.00, -1.00, 577.0, 227.0)">T</text><text xml:space="preserve" font-family="Avenir-Light" font-size="62.0" fill="#000000" transform="matrix(1.00, 0.00, -0.00, -1.00, 622.6, 227.0)">I</text><text xml:space="preserve" font-family="Avenir-Light" font-size="62.0" fill="#000000" transform="matrix(1.00, 0.00, -0.00, -1.00, 648.6, 227.0)">O</text><text xml:space="preserve" font-family="Avenir-Light" font-size="62.0" fill="#000000" transform="matrix(1.00, 0.00, -0.00, -1.00, 710.2, 227.0)">N</text><text xml:space="preserve" font-family="Avenir-Light" font-size="62.0" fill="#000000" transform="matrix(1.00, 0.00, -0.00, -1.00, 768.4, 227.0)">S</text><text xml:space="preserve" font-family="Avenir-Book" font-size="22.3" fill="#FEFFFE" transform="matrix(1.00, 0.00, -0.00, -1.00, 56.0, 42.0)">5</text><text xml:space="preserve" font-family="Avenir-Book" font-size="22.3" fill="#FEFFFE" transform="matrix(1.00, 0.00, -0.00, -1.00, 72.0, 42.0)">5</text><text xml:space="preserve" font-family="Avenir-Book" font-size="22.3" fill="#FEFFFE" transform="matrix(1.00, 0.00, -0.00, -1.00, 88.0, 42.0)">0</text><text xml:space="preserve" font-family="Avenir-Book" font-size="22.3" fill="#FEFFFE" transform="matrix(1.00, 0.00, -0.00, -1.00, 103.9, 42.0)">0</text><text xml:space="preserve" font-family="Avenir-Book" font-size="22.3" fill="#FEFFFE" transform="matrix(1.00, 0.00, -0.00, -1.00, 119.9, 42.0)"> </text><text xml:space="preserve" font-family="Avenir-Book" font-size="22.3" fill="#FEFFFE" transform="matrix(1.00, 0.00, -0.00, -1.00, 129.7, 42.0)">K</text><text xml:space="preserve" font-family="Avenir-Book" font-size="22.3" fill="#FEFFFE" transform="matrix(1.00, 0.00, -0.00, -1.00, 147.3, 42.0)">M</text><text xml:space="preserve" font-family="Avenir-Book" font-size="22.3" fill="#FEFFFE" transform="matrix(1.00, 0.00, -0.00, -1.00, 170.8, 42.0)">,</text><text xml:space="preserve" font-family="Avenir-Book" font-size="22.3" fill="#FEFFFE" transform="matrix(1.00, 0.00, -0.00, -1.00, 180.5, 42.0)"> </text><text xml:space="preserve" font-family="Avenir-Book" font-size="22.3" fill="#FEFFFE" transform="matrix(1.00, 0.00, -0.00, -1.00, 190.3, 42.0)">9</text><text xml:space="preserve" font-family="Avenir-Book" font-size="22.3" fill="#FEFFFE" transform="matrix(1.00, 0.00, -0.00, -1.00, 206.3, 42.0)"> </text><text xml:space="preserve" font-family="Avenir-Book" font-size="22.3" fill="#FEFFFE" transform="matrix(1.00, 0.00, -0.00, -1.00, 216.1, 42.0)">D</text><text xml:space="preserve" font-family="Avenir-Book" font-size="22.3" fill="#FEFFFE" transform="matrix(1.00, 0.00, -0.00, -1.00, 236.2, 42.0)">A</text><text xml:space="preserve" font-family="Avenir-Book" font-size="22.3" fill="#FEFFFE" transform="matrix(1.00, 0.00, -0.00, -1.00, 253.4, 42.0)">Y</text><text xml:space="preserve" font-family="Avenir-Book" font-size="22.3" fill="#FEFFFE" transform="matrix(1.00, 0.00, -0.00, -1.00, 269.8, 42.0)">S</text><text xml:space="preserve" font-family="Avenir-Book" font-size="22.3" fill="#FEFFFE" transform="matrix(1.00, 0.00, -0.00, -1.00, 285.8, 42.0)">,</text><text xml:space="preserve" font-family="Avenir-Book" font-size="22.3" fill="#FEFFFE" transform="matrix(1.00, 0.00, -0.00, -1.00, 295.6, 42.0)"> </text><text xml:space="preserve" font-family="Avenir-Book" font-size="22.3" fill="#FEFFFE" transform="matrix(1.00, 0.00, -0.00, -1.00, 305.3, 42.0)">C</text><text xml:space="preserve" font-family="Avenir-Book" font-size="22.3" fill="#FEFFFE" transform="matrix(1.00, 0.00, -0.00, -1.00, 324.6, 42.0)">A</text><text xml:space="preserve" font-family="Avenir-Book" font-size="22.3" fill="#FEFFFE" transform="matrix(1.00, 0.00, -0.00, -1.00, 343.5, 42.0)">M</text><text xml:space="preserve" font-family="Avenir-Book" font-size="22.3" fill="#FEFFFE" transform="matrix(1.00, 0.00, -0.00, -1.00, 366.9, 42.0)">P</text><text xml:space="preserve" font-family="Avenir-Book" font-size="22.3" fill="#FEFFFE" transform="matrix(1.00, 0.00, -0.00, -1.00, 383.3, 42.0)">I</text><text xml:space="preserve" font-family="Avenir-Book" font-size="22.3" fill="#FEFFFE" transform="matrix(1.00, 0.00, -0.00, -1.00, 392.8, 42.0)">N</text><text xml:space="preserve" font-family="Avenir-Book" font-size="22.3" fill="#FEFFFE" transform="matrix(1.00, 0.00, -0.00, -1.00, 413.7, 42.0)">G</text><text xml:space="preserve" font-family="Avenir-Book" font-size="22.3" fill="#FEFFFE" transform="matrix(1.00, 0.00, -0.00, -1.00, 434.7, 42.0)">,</text><text xml:space="preserve" font-family="Avenir-Book" font-size="22.3" fill="#FEFFFE" transform="matrix(1.00, 0.00, -0.00, -1.00, 444.4, 42.0)"> </text><text xml:space="preserve" font-family="Avenir-Book" font-size="22.3" fill="#FEFFFE" transform="matrix(1.00, 0.00, -0.00, -1.00, 454.2, 42.0)">H</text><text xml:space="preserve" font-family="Avenir-Book" font-size="22.3" fill="#FEFFFE" transform="matrix(1.00, 0.00, -0.00, -1.00, 473.9, 42.0)">I</text><text xml:space="preserve" font-family="Avenir-Book" font-size="22.3" fill="#FEFFFE" transform="matrix(1.00, 0.00, -0.00, -1.00, 483.4, 42.0)">K</text><text xml:space="preserve" font-family="Avenir-Book" font-size="22.3" fill="#FEFFFE" transform="matrix(1.00, 0.00, -0.00, -1.00, 501.0, 42.0)">I</text><text xml:space="preserve" font-family="Avenir-Book" font-size="22.3" fill="#FEFFFE" transform="matrix(1.00, 0.00, -0.00, -1.00, 510.5, 42.0)">N</text><text xml:space="preserve" font-family="Avenir-Book" font-size="22.3" fill="#FEFFFE" transform="matrix(1.00, 0.00, -0.00, -1.00, 531.4, 42.0)">G</text><text xml:space="preserve" font-family="Avenir-Book" font-size="22.3" fill="#FEFFFE" transform="matrix(1.00, 0.00, -0.00, -1.00, 552.3, 42.0)">,</text><text xml:space="preserve" font-family="Avenir-Book" font-size="22.3" fill="#FEFFFE" transform="matrix(1.00, 0.00, -0.00, -1.00, 562.1, 42.0)"> </text><text xml:space="preserve" font-family="Avenir-Book" font-size="22.3" fill="#FEFFFE" transform="matrix(1.00, 0.00, -0.00, -1.00, 571.9, 42.0)">K</text><text xml:space="preserve" font-family="Avenir-Book" font-size="22.3" fill="#FEFFFE" transform="matrix(1.00, 0.00, -0.00, -1.00, 589.5, 42.0)">A</text><text xml:space="preserve" font-family="Avenir-Book" font-size="22.3" fill="#FEFFFE" transform="matrix(1.00, 0.00, -0.00, -1.00, 606.7, 42.0)">Y</text><text xml:space="preserve" font-family="Avenir-Book" font-size="22.3" fill="#FEFFFE" transform="matrix(1.00, 0.00, -0.00, -1.00, 621.5, 42.0)">A</text><text xml:space="preserve" font-family="Avenir-Book" font-size="22.3" fill="#FEFFFE" transform="matrix(1.00, 0.00, -0.00, -1.00, 640.4, 42.0)">K</text><text xml:space="preserve" font-family="Avenir-Book" font-size="22.3" fill="#FEFFFE" transform="matrix(1.00, 0.00, -0.00, -1.00, 658.0, 42.0)">I</text><text xml:space="preserve" font-family="Avenir-Book" font-size="22.3" fill="#FEFFFE" transform="matrix(1.00, 0.00, -0.00, -1.00, 667.5, 42.0)">N</text><text xml:space="preserve" font-family="Avenir-Book" font-size="22.3" fill="#FEFFFE" transform="matrix(1.00, 0.00, -0.00, -1.00, 688.4, 42.0)">G</text><text xml:space="preserve" font-family="Avenir-Book" font-size="22.3" fill="#FEFFFE" transform="matrix(1.00, 0.00, -0.00, -1.00, 709.3, 42.0)"> </text><text xml:space="preserve" font-family="Avenir-Book" font-size="22.3" fill="#FEFFFE" transform="matrix(1.00, 0.00, -0.00, -1.00, 719.1, 42.0)">&amp;</text><text xml:space="preserve" font-family="Avenir-Book" font-size="22.3" fill="#FEFFFE" transform="matrix(1.00, 0.00, -0.00, -1.00, 738.4, 42.0)"> </text><text xml:space="preserve" font-family="Avenir-Book" font-size="22.3" fill="#FEFFFE" transform="matrix(1.00, 0.00, -0.00, -1.00, 748.2, 42.0)">F</text><text xml:space="preserve" font-family="Avenir-Book" font-size="22.3" fill="#FEFFFE" transform="matrix(1.00, 0.00, -0.00, -1.00, 764.1, 42.0)">O</text><text xml:space="preserve" font-family="Avenir-Book" font-size="22.3" fill="#FEFFFE" transform="matrix(1.00, 0.00, -0.00, -1.00, 786.3, 42.0)">O</text><text xml:space="preserve" font-family="Avenir-Book" font-size="22.3" fill="#FEFFFE" transform="matrix(1.00, 0.00, -0.00, -1.00, 808.5, 42.0)">D</text><text xml:space="preserve" font-family="Avenir-Book" font-size="22.3" fill="#FEFFFE" transform="matrix(1.00, 0.00, -0.00, -1.00, 828.6, 42.0)"> </text><text xml:space="preserve" font-family="Avenir-Book" font-size="22.3" fill="#FEFFFE" transform="matrix(1.00, 0.00, -0.00, -1.00, 838.4, 42.0)">S</text><text xml:space="preserve" font-family="Avenir-Book" font-size="22.3" fill="#FEFFFE" transform="matrix(1.00, 0.00, -0.00, -1.00, 854.4, 42.0)">U</text><text xml:space="preserve" font-family="Avenir-Book" font-size="22.3" fill="#FEFFFE" transform="matrix(1.00, 0.00, -0.00, -1.00, 873.3, 42.0)">P</text><text xml:space="preserve" font-family="Avenir-Book" font-size="22.3" fill="#FEFFFE" transform="matrix(1.00, 0.00, -0.00, -1.00, 889.7, 42.0)">P</text><text xml:space="preserve" font-family="Avenir-Book" font-size="22.3" fill="#FEFFFE" transform="matrix(1.00, 0.00, -0.00, -1.00, 906.0, 42.0)">L</text><text xml:space="preserve" font-family="Avenir-Book" font-size="22.3" fill="#FEFFFE" transform="matrix(1.00, 0.00, -0.00, -1.00, 920.8, 42.0)">I</text><text xml:space="preserve" font-family="Avenir-Book" font-size="22.3" fill="#FEFFFE" transform="matrix(1.00, 0.00, -0.00, -1.00, 930.2, 42.0)">E</text><text xml:space="preserve" font-family="Avenir-Book" font-size="22.3" fill="#FEFFFE" transform="matrix(1.00, 0.00, -0.00, -1.00, 947.0, 42.0)">S</text></g></svg>