<?xml version="1.0" encoding="UTF-8"?><svg xmlns="http://www.w3.org/2000/svg" xmlns:xlink="http://www.w3.org/1999/xlink" clip-rule="evenodd" stroke-miterlimit="4.00" viewBox="0 0 1024 768"><desc>SVG generated by Keynote</desc><defs></defs><g transform="matrix(1.00, 0.00, -0.00, -1.00, 0.0, 768.0)"><path d="M 0.0 768.0 L 1024.0 768.0 L 1024.0 0.0 L 0.0 0.0 Z M 0.0 768.0 " fill="#000000"></path><g><clipPath id="clip-245"><path d="M 0.0 0.0 L 1024.0 0.0 L 1024.0 554.0 L 0.0 554.0 Z M 0.0 0.0 "></path></clipPath><g clip-path="url(#clip-245)"><image xlink:href="../../38003DA1-6E1C-416B-992A-AB447BD18AE8/assets/39959AFCAFBF388D94D98C69A0244BF8.jpeg" width="1024.00" height="681.00" transform="matrix(1.00, 0.00, -0.00, -1.00, 0.0, 617.0)"></image></g></g><text xml:space="preserve" font-family="Avenir-Light" font-size="62.0" fill="#FEFFFF" transform="matrix(1.00, 0.00, -0.00, -1.00, 56.0, 623.0)">B</text><text xml:space="preserve" font-family="Avenir-Light" font-size="62.0" fill="#FEFFFF" transform="matrix(1.00, 0.00, -0.00, -1.00, 105.0, 623.0)">C</text><text xml:space="preserve" font-family="Avenir-Light" font-size="62.0" fill="#FEFFFF" transform="matrix(1.00, 0.00, -0.00, -1.00, 158.5, 623.0)"> </text><text xml:space="preserve" font-family="Avenir-Light" font-size="62.0" fill="#FEFFFF" transform="matrix(1.00, 0.00, -0.00, -1.00, 184.6, 623.0)">W</text><text xml:space="preserve" font-family="Avenir-Light" font-size="62.0" fill="#FEFFFF" transform="matrix(1.00, 0.00, -0.00, -1.00, 253.0, 623.0)">I</text><text xml:space="preserve" font-family="Avenir-Light" font-size="62.0" fill="#FEFFFF" transform="matrix(1.00, 0.00, -0.00, -1.00, 279.1, 623.0)">L</text><text xml:space="preserve" font-family="Avenir-Light" font-size="62.0" fill="#FEFFFF" transform="matrix(1.00, 0.00, -0.00, -1.00, 320.0, 623.0)">D</text><text xml:space="preserve" font-family="Avenir-Light" font-size="62.0" fill="#FEFFFF" transform="matrix(1.00, 0.00, -0.00, -1.00, 375.9, 623.0)">E</text><text xml:space="preserve" font-family="Avenir-Light" font-size="62.0" fill="#FEFFFF" transform="matrix(1.00, 0.00, -0.00, -1.00, 422.5, 623.0)">R</text><text xml:space="preserve" font-family="Avenir-Light" font-size="62.0" fill="#FEFFFF" transform="matrix(1.00, 0.00, -0.00, -1.00, 469.2, 623.0)">N</text><text xml:space="preserve" font-family="Avenir-Light" font-size="62.0" fill="#FEFFFF" transform="matrix(1.00, 0.00, -0.00, -1.00, 527.4, 623.0)">E</text><text xml:space="preserve" font-family="Avenir-Light" font-size="62.0" fill="#FEFFFF" transform="matrix(1.00, 0.00, -0.00, -1.00, 574.1, 623.0)">S</text><text xml:space="preserve" font-family="Avenir-Light" font-size="62.0" fill="#FEFFFF" transform="matrix(1.00, 0.00, -0.00, -1.00, 618.5, 623.0)">S</text><text xml:space="preserve" font-family="Avenir-Book" font-size="23.3" fill="#FEFFFE" transform="matrix(1.00, 0.00, -0.00, -1.00, 56.0, 701.0)">D</text><text xml:space="preserve" font-family="Avenir-Book" font-size="23.3" fill="#FEFFFE" transform="matrix(1.00, 0.00, -0.00, -1.00, 77.0, 701.0)">R</text><text xml:space="preserve" font-family="Avenir-Book" font-size="23.3" fill="#FEFFFE" transform="matrix(1.00, 0.00, -0.00, -1.00, 94.5, 701.0)">I</text><text xml:space="preserve" font-family="Avenir-Book" font-size="23.3" fill="#FEFFFE" transform="matrix(1.00, 0.00, -0.00, -1.00, 104.4, 701.0)">V</text><text xml:space="preserve" font-family="Avenir-Book" font-size="23.3" fill="#FEFFFE" transform="matrix(1.00, 0.00, -0.00, -1.00, 122.3, 701.0)">I</text><text xml:space="preserve" font-family="Avenir-Book" font-size="23.3" fill="#FEFFFE" transform="matrix(1.00, 0.00, -0.00, -1.00, 132.2, 701.0)">N</text><text xml:space="preserve" font-family="Avenir-Book" font-size="23.3" fill="#FEFFFE" transform="matrix(1.00, 0.00, -0.00, -1.00, 154.0, 701.0)">G</text><text xml:space="preserve" font-family="Avenir-Book" font-size="23.3" fill="#FEFFFE" transform="matrix(1.00, 0.00, -0.00, -1.00, 175.9, 701.0)"> </text><text xml:space="preserve" font-family="Avenir-Book" font-size="23.3" fill="#FEFFFE" transform="matrix(1.00, 0.00, -0.00, -1.00, 186.1, 701.0)">B</text><text xml:space="preserve" font-family="Avenir-Book" font-size="23.3" fill="#FEFFFE" transform="matrix(1.00, 0.00, -0.00, -1.00, 204.5, 701.0)">A</text><text xml:space="preserve" font-family="Avenir-Book" font-size="23.3" fill="#FEFFFE" transform="matrix(1.00, 0.00, -0.00, -1.00, 224.2, 701.0)">C</text><text xml:space="preserve" font-family="Avenir-Book" font-size="23.3" fill="#FEFFFE" transform="matrix(1.00, 0.00, -0.00, -1.00, 244.3, 701.0)">K</text><text xml:space="preserve" font-family="Avenir-Light" font-size="19.4" fill="#FEFFFF" transform="matrix(1.00, 0.00, -0.00, -1.00, 61.0, 569.0)">N</text><text xml:space="preserve" font-family="Avenir-Light" font-size="19.4" fill="#FEFFFF" transform="matrix(1.00, 0.00, -0.00, -1.00, 79.2, 569.0)">O</text><text xml:space="preserve" font-family="Avenir-Light" font-size="19.4" fill="#FEFFFF" transform="matrix(1.00, 0.00, -0.00, -1.00, 98.4, 569.0)">R</text><text xml:space="preserve" font-family="Avenir-Light" font-size="19.4" fill="#FEFFFF" transform="matrix(1.00, 0.00, -0.00, -1.00, 113.1, 569.0)">T</text><text xml:space="preserve" font-family="Avenir-Light" font-size="19.4" fill="#FEFFFF" transform="matrix(1.00, 0.00, -0.00, -1.00, 127.3, 569.0)">H</text><text xml:space="preserve" font-family="Avenir-Light" font-size="19.4" fill="#FEFFFF" transform="matrix(1.00, 0.00, -0.00, -1.00, 144.3, 569.0)">E</text><text xml:space="preserve" font-family="Avenir-Light" font-size="19.4" fill="#FEFFFF" transform="matrix(1.00, 0.00, -0.00, -1.00, 158.9, 569.0)">R</text><text xml:space="preserve" font-family="Avenir-Light" font-size="19.4" fill="#FEFFFF" transform="matrix(1.00, 0.00, -0.00, -1.00, 173.5, 569.0)">N</text><text xml:space="preserve" font-family="Avenir-Light" font-size="19.4" fill="#FEFFFF" transform="matrix(1.00, 0.00, -0.00, -1.00, 191.6, 569.0)"> </text><text xml:space="preserve" font-family="Avenir-Light" font-size="19.4" fill="#FEFFFF" transform="matrix(1.00, 0.00, -0.00, -1.00, 199.8, 569.0)">B</text><text xml:space="preserve" font-family="Avenir-Light" font-size="19.4" fill="#FEFFFF" transform="matrix(1.00, 0.00, -0.00, -1.00, 215.0, 569.0)">C</text><text xml:space="preserve" font-family="Avenir-Light" font-size="19.4" fill="#FEFFFF" transform="matrix(1.00, 0.00, -0.00, -1.00, 231.8, 569.0)"> </text><text xml:space="preserve" font-family="Avenir-Light" font-size="19.4" fill="#FEFFFF" transform="matrix(1.00, 0.00, -0.00, -1.00, 239.9, 569.0)">N</text><text xml:space="preserve" font-family="Avenir-Light" font-size="19.4" fill="#FEFFFF" transform="matrix(1.00, 0.00, -0.00, -1.00, 258.0, 569.0)">E</text><text xml:space="preserve" font-family="Avenir-Light" font-size="19.4" fill="#FEFFFF" transform="matrix(1.00, 0.00, -0.00, -1.00, 272.6, 569.0)">A</text><text xml:space="preserve" font-family="Avenir-Light" font-size="19.4" fill="#FEFFFF" transform="matrix(1.00, 0.00, -0.00, -1.00, 289.0, 569.0)">R</text><text xml:space="preserve" font-family="Avenir-Light" font-size="19.4" fill="#FEFFFF" transform="matrix(1.00, 0.00, -0.00, -1.00, 303.5, 569.0)"> </text><text xml:space="preserve" font-family="Avenir-Light" font-size="19.4" fill="#FEFFFF" transform="matrix(1.00, 0.00, -0.00, -1.00, 311.7, 569.0)">H</text><text xml:space="preserve" font-family="Avenir-Light" font-size="19.4" fill="#FEFFFF" transform="matrix(1.00, 0.00, -0.00, -1.00, 328.7, 569.0)">I</text><text xml:space="preserve" font-family="Avenir-Light" font-size="19.4" fill="#FEFFFF" transform="matrix(1.00, 0.00, -0.00, -1.00, 336.9, 569.0)">G</text><text xml:space="preserve" font-family="Avenir-Light" font-size="19.4" fill="#FEFFFF" transform="matrix(1.00, 0.00, -0.00, -1.00, 355.0, 569.0)">H</text><text xml:space="preserve" font-family="Avenir-Light" font-size="19.4" fill="#FEFFFF" transform="matrix(1.00, 0.00, -0.00, -1.00, 372.1, 569.0)">W</text><text xml:space="preserve" font-family="Avenir-Light" font-size="19.4" fill="#FEFFFF" transform="matrix(1.00, 0.00, -0.00, -1.00, 393.1, 569.0)">A</text><text xml:space="preserve" font-family="Avenir-Light" font-size="19.4" fill="#FEFFFF" transform="matrix(1.00, 0.00, -0.00, -1.00, 408.0, 569.0)">Y</text><text xml:space="preserve" font-family="Avenir-Light" font-size="19.4" fill="#FEFFFF" transform="matrix(1.00, 0.00, -0.00, -1.00, 422.2, 569.0)"> </text><text xml:space="preserve" font-family="Avenir-Light" font-size="19.4" fill="#FEFFFF" transform="matrix(1.00, 0.00, -0.00, -1.00, 430.3, 569.0)">3</text><text xml:space="preserve" font-family="Avenir-Light" font-size="19.4" fill="#FEFFFF" transform="matrix(1.00, 0.00, -0.00, -1.00, 443.5, 569.0)">7</text><text xml:space="preserve" font-family="Avenir-Light" font-size="19.4" fill="#FEFFFF" transform="matrix(1.00, 0.00, -0.00, -1.00, 456.6, 569.0)">-</text><text xml:space="preserve" font-family="Avenir-Light" font-size="19.4" fill="#FEFFFF" transform="matrix(1.00, 0.00, -0.00, -1.00, 466.2, 569.0)">A</text><text xml:space="preserve" font-family="Avenir-Light" font-size="19.4" fill="#FEFFFF" transform="matrix(1.00, 0.00, -0.00, -1.00, 482.5, 569.0)">L</text><text xml:space="preserve" font-family="Avenir-Light" font-size="19.4" fill="#FEFFFF" transform="matrix(1.00, 0.00, -0.00, -1.00, 495.3, 569.0)">A</text><text xml:space="preserve" font-family="Avenir-Light" font-size="19.4" fill="#FEFFFF" transform="matrix(1.00, 0.00, -0.00, -1.00, 511.7, 569.0)">S</text><text xml:space="preserve" font-family="Avenir-Light" font-size="19.4" fill="#FEFFFF" transform="matrix(1.00, 0.00, -0.00, -1.00, 525.5, 569.0)">K</text><text xml:space="preserve" font-family="Avenir-Light" font-size="19.4" fill="#FEFFFF" transform="matrix(1.00, 0.00, -0.00, -1.00, 540.4, 569.0)">A</text><text xml:space="preserve" font-family="Avenir-Light" font-size="19.4" fill="#FEFFFF" transform="matrix(1.00, 0.00, -0.00, -1.00, 556.8, 569.0)"> </text><text xml:space="preserve" font-family="Avenir-Light" font-size="19.4" fill="#FEFFFF" transform="matrix(1.00, 0.00, -0.00, -1.00, 564.9, 569.0)">H</text><text xml:space="preserve" font-family="Avenir-Light" font-size="19.4" fill="#FEFFFF" transform="matrix(1.00, 0.00, -0.00, -1.00, 582.0, 569.0)">W</text><text xml:space="preserve" font-family="Avenir-Light" font-size="19.4" fill="#FEFFFF" transform="matrix(1.00, 0.00, -0.00, -1.00, 603.3, 569.0)">Y</text><text xml:space="preserve" font-family="Avenir-Light" font-size="19.4" fill="#FEFFFF" transform="matrix(1.00, 0.00, -0.00, -1.00, 617.5, 569.0)"> </text><text xml:space="preserve" font-family="Avenir-Light" font-size="19.4" fill="#FEFFFF" transform="matrix(1.00, 0.00, -0.00, -1.00, 625.7, 569.0)">J</text><text xml:space="preserve" font-family="Avenir-Light" font-size="19.4" fill="#FEFFFF" transform="matrix(1.00, 0.00, -0.00, -1.00, 638.1, 569.0)">U</text><text xml:space="preserve" font-family="Avenir-Light" font-size="19.4" fill="#FEFFFF" transform="matrix(1.00, 0.00, -0.00, -1.00, 654.4, 569.0)">N</text><text xml:space="preserve" font-family="Avenir-Light" font-size="19.4" fill="#FEFFFF" transform="matrix(1.00, 0.00, -0.00, -1.00, 672.6, 569.0)">C</text><text xml:space="preserve" font-family="Avenir-Light" font-size="19.4" fill="#FEFFFF" transform="matrix(1.00, 0.00, -0.00, -1.00, 689.3, 569.0)">T</text><text xml:space="preserve" font-family="Avenir-Light" font-size="19.4" fill="#FEFFFF" transform="matrix(1.00, 0.00, -0.00, -1.00, 703.5, 569.0)">I</text><text xml:space="preserve" font-family="Avenir-Light" font-size="19.4" fill="#FEFFFF" transform="matrix(1.00, 0.00, -0.00, -1.00, 711.6, 569.0)">O</text><text xml:space="preserve" font-family="Avenir-Light" font-size="19.4" fill="#FEFFFF" transform="matrix(1.00, 0.00, -0.00, -1.00, 730.9, 569.0)">N</text><text xml:space="preserve" font-family="Avenir-Light" font-size="19.4" fill="#FEFFFF" transform="matrix(1.00, 0.00, -0.00, -1.00, 749.0, 569.0)">,</text><text xml:space="preserve" font-family="Avenir-Light" font-size="19.4" fill="#FEFFFF" transform="matrix(1.00, 0.00, -0.00, -1.00, 757.1, 569.0)"> </text><text xml:space="preserve" font-family="Avenir-Light" font-size="19.4" fill="#FEFFFF" transform="matrix(1.00, 0.00, -0.00, -1.00, 765.3, 569.0)">D</text><text xml:space="preserve" font-family="Avenir-Light" font-size="19.4" fill="#FEFFFF" transform="matrix(1.00, 0.00, -0.00, -1.00, 782.7, 569.0)">A</text><text xml:space="preserve" font-family="Avenir-Light" font-size="19.4" fill="#FEFFFF" transform="matrix(1.00, 0.00, -0.00, -1.00, 797.6, 569.0)">Y</text><text xml:space="preserve" font-family="Avenir-Light" font-size="19.4" fill="#FEFFFF" transform="matrix(1.00, 0.00, -0.00, -1.00, 811.8, 569.0)"> </text><text xml:space="preserve" font-family="Avenir-Light" font-size="19.4" fill="#FEFFFF" transform="matrix(1.00, 0.00, -0.00, -1.00, 819.9, 569.0)">7</text><text xml:space="preserve" font-family="Avenir-Light" font-size="19.4" fill="#FEFFFF" transform="matrix(1.00, 0.00, -0.00, -1.00, 833.1, 569.0)"> </text><text xml:space="preserve" font-family="Avenir-Light" font-size="19.4" fill="#FEFFFF" transform="matrix(1.00, 0.00, -0.00, -1.00, 841.2, 569.0)">(</text><text xml:space="preserve" font-family="Avenir-Light" font-size="19.4" fill="#FEFFFF" transform="matrix(1.00, 0.00, -0.00, -1.00, 849.4, 569.0)">1</text><text xml:space="preserve" font-family="Avenir-Light" font-size="19.4" fill="#FEFFFF" transform="matrix(1.00, 0.00, -0.00, -1.00, 862.5, 569.0)">0</text><text xml:space="preserve" font-family="Avenir-Light" font-size="19.4" fill="#FEFFFF" transform="matrix(1.00, 0.00, -0.00, -1.00, 875.7, 569.0)">9</text><text xml:space="preserve" font-family="Avenir-Light" font-size="19.4" fill="#FEFFFF" transform="matrix(1.00, 0.00, -0.00, -1.00, 888.8, 569.0)">2</text><text xml:space="preserve" font-family="Avenir-Light" font-size="19.4" fill="#FEFFFF" transform="matrix(1.00, 0.00, -0.00, -1.00, 902.0, 569.0)"> </text><text xml:space="preserve" font-family="Avenir-Light" font-size="19.4" fill="#FEFFFF" transform="matrix(1.00, 0.00, -0.00, -1.00, 910.1, 569.0)">K</text><text xml:space="preserve" font-family="Avenir-Light" font-size="19.4" fill="#FEFFFF" transform="matrix(1.00, 0.00, -0.00, -1.00, 925.0, 569.0)">M</text><text xml:space="preserve" font-family="Avenir-Light" font-size="19.4" fill="#FEFFFF" transform="matrix(1.00, 0.00, -0.00, -1.00, 945.3, 569.0)">)</text></g></svg>