<?xml version="1.0" encoding="UTF-8"?><svg xmlns="http://www.w3.org/2000/svg" xmlns:xlink="http://www.w3.org/1999/xlink" clip-rule="evenodd" stroke-miterlimit="4.00" viewBox="0 0 1024 768"><desc>SVG generated by Keynote</desc><defs></defs><g transform="matrix(1.00, 0.00, -0.00, -1.00, 0.0, 768.0)"><path d="M 0.0 768.0 L 1024.0 768.0 L 1024.0 0.0 L 0.0 0.0 Z M 0.0 768.0 " fill="#000000"></path><g><clipPath id="clip-60"><path d="M 493.0 398.0 L 1023.0 398.0 L 1023.0 0.0 L 493.0 0.0 Z M 492.9 397.6 "></path></clipPath><g clip-path="url(#clip-60)"><image xlink:href="B27D707ED5B033E278DFE5307FDBB839.jpeg" width="599.00" height="398.00" transform="matrix(1.00, 0.00, -0.00, -1.00, 426.0, 398.0)"></image></g></g><path d="M 0.0 0.0 L 0.0 397.8 L 530.3 397.8 L 530.3 0.0 L 0.0 0.0 Z M 0.0 0.0 " fill="none" stroke="#000000" stroke-width="3.00" transform="matrix(1.00, 0.00, 0.00, -1.00, 492.9, 397.6)"></path><g><clipPath id="clip-61"><path d="M 500.0 774.0 L 1022.0 774.0 L 1022.0 398.0 L 500.0 398.0 Z M 499.5 774.1 "></path></clipPath><g clip-path="url(#clip-61)"><image xlink:href="FE4E09A53199643D931A98CDF779D845.jpeg" width="757.00" height="503.00" transform="matrix(1.00, 0.00, -0.00, -0.96, 392.0, 809.0)"></image></g></g><path d="M 0.0 0.0 L 0.0 376.3 L 522.8 376.3 L 522.8 0.0 L 0.0 0.0 Z M 0.0 0.0 " fill="none" stroke="#000000" stroke-width="3.00" transform="matrix(1.00, 0.00, 0.00, -1.00, 499.5, 774.1)"></path><g><clipPath id="clip-62"><path d="M -2.0 597.0 L 510.0 597.0 L 510.0 -171.0 L -2.0 -171.0 Z M -2.4 597.4 "></path></clipPath><g clip-path="url(#clip-62)"><image xlink:href="5F8D46466BF9231F2253BBB849792F5F.jpeg" width="750.00" height="499.00" transform="matrix(1.00, 0.00, -0.00, -1.00, -229.0, 472.0)"></image></g></g><path d="M 0.0 125.3 L 0.0 623.4 L 512.5 623.4 L 512.5 125.3 L 0.0 125.3 Z M 0.0 125.3 " fill="none" stroke="#000000" stroke-width="3.00" transform="matrix(1.00, 0.00, 0.00, -1.00, -2.4, 597.4)"></path><text xml:space="preserve" font-family="Avenir-Light" font-size="34.2" fill="#000000" transform="matrix(1.00, 0.00, -0.00, -1.00, 641.0, 359.0)">W</text><text xml:space="preserve" font-family="Avenir-Light" font-size="34.2" fill="#000000" transform="matrix(1.00, 0.00, -0.00, -1.00, 678.8, 359.0)">I</text><text xml:space="preserve" font-family="Avenir-Light" font-size="34.2" fill="#000000" transform="matrix(1.00, 0.00, -0.00, -1.00, 693.1, 359.0)">T</text><text xml:space="preserve" font-family="Avenir-Light" font-size="34.2" fill="#000000" transform="matrix(1.00, 0.00, -0.00, -1.00, 718.2, 359.0)">H</text><text xml:space="preserve" font-family="Avenir-Light" font-size="34.2" fill="#000000" transform="matrix(1.00, 0.00, -0.00, -1.00, 748.4, 359.0)"> </text><text xml:space="preserve" font-family="Avenir-Light" font-size="34.2" fill="#000000" transform="matrix(1.00, 0.00, -0.00, -1.00, 762.8, 359.0)">N</text><text xml:space="preserve" font-family="Avenir-Light" font-size="34.2" fill="#000000" transform="matrix(1.00, 0.00, -0.00, -1.00, 794.8, 359.0)">A</text><text xml:space="preserve" font-family="Avenir-Light" font-size="34.2" fill="#000000" transform="matrix(1.00, 0.00, -0.00, -1.00, 821.4, 359.0)">T</text><text xml:space="preserve" font-family="Avenir-Light" font-size="34.2" fill="#000000" transform="matrix(1.00, 0.00, -0.00, -1.00, 846.5, 359.0)">U</text><text xml:space="preserve" font-family="Avenir-Light" font-size="34.2" fill="#000000" transform="matrix(1.00, 0.00, -0.00, -1.00, 875.4, 359.0)">R</text><text xml:space="preserve" font-family="Avenir-Light" font-size="34.2" fill="#000000" transform="matrix(1.00, 0.00, -0.00, -1.00, 901.1, 359.0)">E</text><g><clipPath id="clip-63"><path d="M -7.0 784.0 L 510.0 784.0 L 510.0 397.0 L -7.0 397.0 Z M -6.6 784.4 "></path></clipPath><g clip-path="url(#clip-63)"><image xlink:href="06D2091DABDFA5EE7C7BD213B85B84D7.jpeg" width="964.00" height="641.00" transform="matrix(1.00, 0.00, -0.00, -1.00, -203.0, 911.0)"></image></g></g><path d="M 0.0 0.0 L 0.0 387.6 L 516.8 387.6 L 516.8 0.0 L 0.0 0.0 Z M 0.0 0.0 " fill="none" stroke="#000000" stroke-width="3.00" transform="matrix(1.00, 0.00, 0.00, -1.00, -6.6, 784.4)"></path><text xml:space="preserve" font-family="Avenir-Light" font-size="31.5" fill="#FEFFFF" transform="matrix(1.00, 0.00, -0.00, -1.00, 102.0, 413.0)">R</text><text xml:space="preserve" font-family="Avenir-Light" font-size="31.5" fill="#FEFFFF" transform="matrix(1.00, 0.00, -0.00, -1.00, 125.7, 413.0)">E</text><text xml:space="preserve" font-family="Avenir-Light" font-size="31.5" fill="#FEFFFF" transform="matrix(1.00, 0.00, -0.00, -1.00, 149.4, 413.0)">C</text><text xml:space="preserve" font-family="Avenir-Light" font-size="31.5" fill="#FEFFFF" transform="matrix(1.00, 0.00, -0.00, -1.00, 176.7, 413.0)">O</text><text xml:space="preserve" font-family="Avenir-Light" font-size="31.5" fill="#FEFFFF" transform="matrix(1.00, 0.00, -0.00, -1.00, 208.0, 413.0)">N</text><text xml:space="preserve" font-family="Avenir-Light" font-size="31.5" fill="#FEFFFF" transform="matrix(1.00, 0.00, -0.00, -1.00, 237.5, 413.0)">N</text><text xml:space="preserve" font-family="Avenir-Light" font-size="31.5" fill="#FEFFFF" transform="matrix(1.00, 0.00, -0.00, -1.00, 267.1, 413.0)">E</text><text xml:space="preserve" font-family="Avenir-Light" font-size="31.5" fill="#FEFFFF" transform="matrix(1.00, 0.00, -0.00, -1.00, 290.8, 413.0)">C</text><text xml:space="preserve" font-family="Avenir-Light" font-size="31.5" fill="#FEFFFF" transform="matrix(1.00, 0.00, -0.00, -1.00, 318.0, 413.0)">T</text><text xml:space="preserve" font-family="Avenir-Light" font-size="31.5" fill="#FEFFFF" transform="matrix(1.00, 0.00, -0.00, -1.00, 341.1, 413.0)">I</text><text xml:space="preserve" font-family="Avenir-Light" font-size="31.5" fill="#FEFFFF" transform="matrix(1.00, 0.00, -0.00, -1.00, 354.3, 413.0)">N</text><text xml:space="preserve" font-family="Avenir-Light" font-size="31.5" fill="#FEFFFF" transform="matrix(1.00, 0.00, -0.00, -1.00, 383.9, 413.0)">G</text></g></svg>