<?xml version="1.0" encoding="UTF-8"?><svg xmlns="http://www.w3.org/2000/svg" xmlns:xlink="http://www.w3.org/1999/xlink" clip-rule="evenodd" stroke-miterlimit="4.00" viewBox="0 0 1024 768"><desc>SVG generated by Keynote</desc><defs></defs><g transform="matrix(1.00, 0.00, -0.00, -1.00, 0.0, 768.0)"><path d="M 0.0 768.0 L 1024.0 768.0 L 1024.0 0.0 L 0.0 0.0 Z M 0.0 768.0 " fill="#000000"></path><g><clipPath id="clip-132"><path d="M 0.0 0.0 L 1024.0 0.0 L 1024.0 768.0 L 0.0 768.0 Z M 0.0 0.0 "></path></clipPath><g clip-path="url(#clip-132)"><image xlink:href="BC6D404F99F86CA8664BCAE849FB1F82.jpeg" width="1156.00" height="768.00" transform="matrix(1.00, 0.00, -0.00, -1.00, -66.0, 768.0)"></image></g></g><text xml:space="preserve" font-family="Avenir-Light" font-size="24.0" fill="#55D6FF" transform="matrix(1.00, 0.00, -0.00, -1.00, 386.0, 18.0)">–</text><text xml:space="preserve" font-family="Avenir-Light" font-size="24.0" fill="#55D6FF" transform="matrix(1.00, 0.00, -0.00, -1.00, 401.8, 18.0)">P</text><text xml:space="preserve" font-family="Avenir-Light" font-size="24.0" fill="#55D6FF" transform="matrix(1.00, 0.00, -0.00, -1.00, 419.5, 18.0)">H</text><text xml:space="preserve" font-family="Avenir-Light" font-size="24.0" fill="#55D6FF" transform="matrix(1.00, 0.00, -0.00, -1.00, 440.6, 18.0)">I</text><text xml:space="preserve" font-family="Avenir-Light" font-size="24.0" fill="#55D6FF" transform="matrix(1.00, 0.00, -0.00, -1.00, 450.7, 18.0)">L</text><text xml:space="preserve" font-family="Avenir-Light" font-size="24.0" fill="#55D6FF" transform="matrix(1.00, 0.00, -0.00, -1.00, 466.5, 18.0)">I</text><text xml:space="preserve" font-family="Avenir-Light" font-size="24.0" fill="#55D6FF" transform="matrix(1.00, 0.00, -0.00, -1.00, 476.6, 18.0)">P</text><text xml:space="preserve" font-family="Avenir-Light" font-size="24.0" fill="#55D6FF" transform="matrix(1.00, 0.00, -0.00, -1.00, 494.2, 18.0)"> </text><text xml:space="preserve" font-family="Avenir-Light" font-size="24.0" fill="#55D6FF" transform="matrix(1.00, 0.00, -0.00, -1.00, 504.3, 18.0)">P</text><text xml:space="preserve" font-family="Avenir-Light" font-size="24.0" fill="#55D6FF" transform="matrix(1.00, 0.00, -0.00, -1.00, 521.9, 18.0)">U</text><text xml:space="preserve" font-family="Avenir-Light" font-size="24.0" fill="#55D6FF" transform="matrix(1.00, 0.00, -0.00, -1.00, 542.2, 18.0)">L</text><text xml:space="preserve" font-family="Avenir-Light" font-size="24.0" fill="#55D6FF" transform="matrix(1.00, 0.00, -0.00, -1.00, 558.0, 18.0)">L</text><text xml:space="preserve" font-family="Avenir-Light" font-size="24.0" fill="#55D6FF" transform="matrix(1.00, 0.00, -0.00, -1.00, 573.9, 18.0)">M</text><text xml:space="preserve" font-family="Avenir-Light" font-size="24.0" fill="#55D6FF" transform="matrix(1.00, 0.00, -0.00, -1.00, 599.0, 18.0)">A</text><text xml:space="preserve" font-family="Avenir-Light" font-size="24.0" fill="#55D6FF" transform="matrix(1.00, 0.00, -0.00, -1.00, 619.3, 18.0)">N</text><text xml:space="preserve" font-family="Avenir-Light" font-size="36.0" fill="#FEFFFE" transform="matrix(1.00, 0.00, -0.00, -1.00, 12.0, 110.0)">“</text><text xml:space="preserve" font-family="Avenir-Light" font-size="36.0" fill="#FEFFFE" transform="matrix(1.00, 0.00, -0.00, -1.00, 30.7, 110.0)">A</text><text xml:space="preserve" font-family="Avenir-Light" font-size="36.0" fill="#FEFFFE" transform="matrix(1.00, 0.00, -0.00, -1.00, 55.4, 110.0)">s</text><text xml:space="preserve" font-family="Avenir-Light" font-size="36.0" fill="#FEFFFE" transform="matrix(1.00, 0.00, -0.00, -1.00, 70.7, 110.0)"> </text><text xml:space="preserve" font-family="Avenir-Light" font-size="36.0" fill="#FEFFFE" transform="matrix(1.00, 0.00, -0.00, -1.00, 80.1, 110.0)">i</text><text xml:space="preserve" font-family="Avenir-Light" font-size="36.0" fill="#FEFFFE" transform="matrix(1.00, 0.00, -0.00, -1.00, 88.7, 110.0)">f</text><text xml:space="preserve" font-family="Avenir-Light" font-size="36.0" fill="#FEFFFE" transform="matrix(1.00, 0.00, -0.00, -1.00, 99.4, 110.0)"> </text><text xml:space="preserve" font-family="Avenir-Light" font-size="36.0" fill="#FEFFFE" transform="matrix(1.00, 0.00, -0.00, -1.00, 108.7, 110.0)">f</text><text xml:space="preserve" font-family="Avenir-Light" font-size="36.0" fill="#FEFFFE" transform="matrix(1.00, 0.00, -0.00, -1.00, 119.4, 110.0)">r</text><text xml:space="preserve" font-family="Avenir-Light" font-size="36.0" fill="#FEFFFE" transform="matrix(1.00, 0.00, -0.00, -1.00, 130.7, 110.0)">o</text><text xml:space="preserve" font-family="Avenir-Light" font-size="36.0" fill="#FEFFFE" transform="matrix(1.00, 0.00, -0.00, -1.00, 152.1, 110.0)">m</text><text xml:space="preserve" font-family="Avenir-Light" font-size="36.0" fill="#FEFFFE" transform="matrix(1.00, 0.00, -0.00, -1.00, 182.8, 110.0)"> </text><text xml:space="preserve" font-family="Avenir-Light" font-size="36.0" fill="#FEFFFE" transform="matrix(1.00, 0.00, -0.00, -1.00, 192.1, 110.0)">H</text><text xml:space="preserve" font-family="Avenir-Light" font-size="36.0" fill="#FEFFFE" transform="matrix(1.00, 0.00, -0.00, -1.00, 218.1, 110.0)">e</text><text xml:space="preserve" font-family="Avenir-Light" font-size="36.0" fill="#FEFFFE" transform="matrix(1.00, 0.00, -0.00, -1.00, 238.2, 110.0)">a</text><text xml:space="preserve" font-family="Avenir-Light" font-size="36.0" fill="#FEFFFE" transform="matrix(1.00, 0.00, -0.00, -1.00, 256.8, 110.0)">v</text><text xml:space="preserve" font-family="Avenir-Light" font-size="36.0" fill="#FEFFFE" transform="matrix(1.00, 0.00, -0.00, -1.00, 273.5, 110.0)">e</text><text xml:space="preserve" font-family="Avenir-Light" font-size="36.0" fill="#FEFFFE" transform="matrix(1.00, 0.00, -0.00, -1.00, 293.5, 110.0)">n</text><text xml:space="preserve" font-family="Avenir-Light" font-size="36.0" fill="#FEFFFE" transform="matrix(1.00, 0.00, -0.00, -1.00, 313.5, 110.0)"> </text><text xml:space="preserve" font-family="Avenir-Light" font-size="36.0" fill="#FEFFFE" transform="matrix(1.00, 0.00, -0.00, -1.00, 322.9, 110.0)">i</text><text xml:space="preserve" font-family="Avenir-Light" font-size="36.0" fill="#FEFFFE" transform="matrix(1.00, 0.00, -0.00, -1.00, 331.5, 110.0)">t</text><text xml:space="preserve" font-family="Avenir-Light" font-size="36.0" fill="#FEFFFE" transform="matrix(1.00, 0.00, -0.00, -1.00, 343.5, 110.0)">s</text><text xml:space="preserve" font-family="Avenir-Light" font-size="36.0" fill="#FEFFFE" transform="matrix(1.00, 0.00, -0.00, -1.00, 358.9, 110.0)">e</text><text xml:space="preserve" font-family="Avenir-Light" font-size="36.0" fill="#FEFFFE" transform="matrix(1.00, 0.00, -0.00, -1.00, 378.9, 110.0)">l</text><text xml:space="preserve" font-family="Avenir-Light" font-size="36.0" fill="#FEFFFE" transform="matrix(1.00, 0.00, -0.00, -1.00, 387.6, 110.0)">f</text><text xml:space="preserve" font-family="Avenir-Light" font-size="36.0" fill="#FEFFFE" transform="matrix(1.00, 0.00, -0.00, -1.00, 398.2, 110.0)">,</text><text xml:space="preserve" font-family="Avenir-Light" font-size="36.0" fill="#FEFFFE" transform="matrix(1.00, 0.00, -0.00, -1.00, 407.6, 110.0)"> </text><text xml:space="preserve" font-family="Avenir-Light" font-size="36.0" fill="#FEFFFE" transform="matrix(1.00, 0.00, -0.00, -1.00, 416.9, 110.0)">g</text><text xml:space="preserve" font-family="Avenir-Light" font-size="36.0" fill="#FEFFFE" transform="matrix(1.00, 0.00, -0.00, -1.00, 438.9, 110.0)">r</text><text xml:space="preserve" font-family="Avenir-Light" font-size="36.0" fill="#FEFFFE" transform="matrix(1.00, 0.00, -0.00, -1.00, 450.3, 110.0)">e</text><text xml:space="preserve" font-family="Avenir-Light" font-size="36.0" fill="#FEFFFE" transform="matrix(1.00, 0.00, -0.00, -1.00, 470.3, 110.0)">a</text><text xml:space="preserve" font-family="Avenir-Light" font-size="36.0" fill="#FEFFFE" transform="matrix(1.00, 0.00, -0.00, -1.00, 489.0, 110.0)">t</text><text xml:space="preserve" font-family="Avenir-Light" font-size="36.0" fill="#FEFFFE" transform="matrix(1.00, 0.00, -0.00, -1.00, 501.0, 110.0)"> </text><text xml:space="preserve" font-family="Avenir-Light" font-size="36.0" fill="#FEFFFE" transform="matrix(1.00, 0.00, -0.00, -1.00, 510.3, 110.0)">c</text><text xml:space="preserve" font-family="Avenir-Light" font-size="36.0" fill="#FEFFFE" transform="matrix(1.00, 0.00, -0.00, -1.00, 527.6, 110.0)">u</text><text xml:space="preserve" font-family="Avenir-Light" font-size="36.0" fill="#FEFFFE" transform="matrix(1.00, 0.00, -0.00, -1.00, 547.6, 110.0)">r</text><text xml:space="preserve" font-family="Avenir-Light" font-size="36.0" fill="#FEFFFE" transform="matrix(1.00, 0.00, -0.00, -1.00, 559.6, 110.0)">t</text><text xml:space="preserve" font-family="Avenir-Light" font-size="36.0" fill="#FEFFFE" transform="matrix(1.00, 0.00, -0.00, -1.00, 571.6, 110.0)">a</text><text xml:space="preserve" font-family="Avenir-Light" font-size="36.0" fill="#FEFFFE" transform="matrix(1.00, 0.00, -0.00, -1.00, 590.3, 110.0)">i</text><text xml:space="preserve" font-family="Avenir-Light" font-size="36.0" fill="#FEFFFE" transform="matrix(1.00, 0.00, -0.00, -1.00, 598.9, 110.0)">n</text><text xml:space="preserve" font-family="Avenir-Light" font-size="36.0" fill="#FEFFFE" transform="matrix(1.00, 0.00, -0.00, -1.00, 619.0, 110.0)">s</text><text xml:space="preserve" font-family="Avenir-Light" font-size="36.0" fill="#FEFFFE" transform="matrix(1.00, 0.00, -0.00, -1.00, 634.3, 110.0)"> </text><text xml:space="preserve" font-family="Avenir-Light" font-size="36.0" fill="#FEFFFE" transform="matrix(1.00, 0.00, -0.00, -1.00, 643.7, 110.0)"> </text><text xml:space="preserve" font-family="Avenir-Light" font-size="36.0" fill="#FEFFFE" transform="matrix(1.00, 0.00, -0.00, -1.00, 26.0, 61.0)">o</text><text xml:space="preserve" font-family="Avenir-Light" font-size="36.0" fill="#FEFFFE" transform="matrix(1.00, 0.00, -0.00, -1.00, 47.4, 61.0)">f</text><text xml:space="preserve" font-family="Avenir-Light" font-size="36.0" fill="#FEFFFE" transform="matrix(1.00, 0.00, -0.00, -1.00, 58.0, 61.0)"> </text><text xml:space="preserve" font-family="Avenir-Light" font-size="36.0" fill="#FEFFFE" transform="matrix(1.00, 0.00, -0.00, -1.00, 67.4, 61.0)">d</text><text xml:space="preserve" font-family="Avenir-Light" font-size="36.0" fill="#FEFFFE" transform="matrix(1.00, 0.00, -0.00, -1.00, 89.4, 61.0)">e</text><text xml:space="preserve" font-family="Avenir-Light" font-size="36.0" fill="#FEFFFE" transform="matrix(1.00, 0.00, -0.00, -1.00, 109.4, 61.0)">l</text><text xml:space="preserve" font-family="Avenir-Light" font-size="36.0" fill="#FEFFFE" transform="matrix(1.00, 0.00, -0.00, -1.00, 118.1, 61.0)">i</text><text xml:space="preserve" font-family="Avenir-Light" font-size="36.0" fill="#FEFFFE" transform="matrix(1.00, 0.00, -0.00, -1.00, 126.7, 61.0)">c</text><text xml:space="preserve" font-family="Avenir-Light" font-size="36.0" fill="#FEFFFE" transform="matrix(1.00, 0.00, -0.00, -1.00, 144.0, 61.0)">a</text><text xml:space="preserve" font-family="Avenir-Light" font-size="36.0" fill="#FEFFFE" transform="matrix(1.00, 0.00, -0.00, -1.00, 162.7, 61.0)">t</text><text xml:space="preserve" font-family="Avenir-Light" font-size="36.0" fill="#FEFFFE" transform="matrix(1.00, 0.00, -0.00, -1.00, 174.7, 61.0)">e</text><text xml:space="preserve" font-family="Avenir-Light" font-size="36.0" fill="#FEFFFE" transform="matrix(1.00, 0.00, -0.00, -1.00, 194.7, 61.0)"> </text><text xml:space="preserve" font-family="Avenir-Light" font-size="36.0" fill="#FEFFFE" transform="matrix(1.00, 0.00, -0.00, -1.00, 204.1, 61.0)">l</text><text xml:space="preserve" font-family="Avenir-Light" font-size="36.0" fill="#FEFFFE" transform="matrix(1.00, 0.00, -0.00, -1.00, 212.8, 61.0)">i</text><text xml:space="preserve" font-family="Avenir-Light" font-size="36.0" fill="#FEFFFE" transform="matrix(1.00, 0.00, -0.00, -1.00, 221.4, 61.0)">g</text><text xml:space="preserve" font-family="Avenir-Light" font-size="36.0" fill="#FEFFFE" transform="matrix(1.00, 0.00, -0.00, -1.00, 243.4, 61.0)">h</text><text xml:space="preserve" font-family="Avenir-Light" font-size="36.0" fill="#FEFFFE" transform="matrix(1.00, 0.00, -0.00, -1.00, 263.4, 61.0)">t</text><text xml:space="preserve" font-family="Avenir-Light" font-size="36.0" fill="#FEFFFE" transform="matrix(1.00, 0.00, -0.00, -1.00, 275.4, 61.0)"> </text><text xml:space="preserve" font-family="Avenir-Light" font-size="36.0" fill="#FEFFFE" transform="matrix(1.00, 0.00, -0.00, -1.00, 284.8, 61.0)">h</text><text xml:space="preserve" font-family="Avenir-Light" font-size="36.0" fill="#FEFFFE" transform="matrix(1.00, 0.00, -0.00, -1.00, 304.8, 61.0)">u</text><text xml:space="preserve" font-family="Avenir-Light" font-size="36.0" fill="#FEFFFE" transform="matrix(1.00, 0.00, -0.00, -1.00, 324.8, 61.0)">n</text><text xml:space="preserve" font-family="Avenir-Light" font-size="36.0" fill="#FEFFFE" transform="matrix(1.00, 0.00, -0.00, -1.00, 344.8, 61.0)">g</text><text xml:space="preserve" font-family="Avenir-Light" font-size="36.0" fill="#FEFFFE" transform="matrix(1.00, 0.00, -0.00, -1.00, 366.8, 61.0)"> </text><text xml:space="preserve" font-family="Avenir-Light" font-size="36.0" fill="#FEFFFE" transform="matrix(1.00, 0.00, -0.00, -1.00, 376.2, 61.0)">a</text><text xml:space="preserve" font-family="Avenir-Light" font-size="36.0" fill="#FEFFFE" transform="matrix(1.00, 0.00, -0.00, -1.00, 394.9, 61.0)">n</text><text xml:space="preserve" font-family="Avenir-Light" font-size="36.0" fill="#FEFFFE" transform="matrix(1.00, 0.00, -0.00, -1.00, 414.9, 61.0)">d</text><text xml:space="preserve" font-family="Avenir-Light" font-size="36.0" fill="#FEFFFE" transform="matrix(1.00, 0.00, -0.00, -1.00, 436.9, 61.0)"> </text><text xml:space="preserve" font-family="Avenir-Light" font-size="36.0" fill="#FEFFFE" transform="matrix(1.00, 0.00, -0.00, -1.00, 446.2, 61.0)">t</text><text xml:space="preserve" font-family="Avenir-Light" font-size="36.0" fill="#FEFFFE" transform="matrix(1.00, 0.00, -0.00, -1.00, 458.2, 61.0)">r</text><text xml:space="preserve" font-family="Avenir-Light" font-size="36.0" fill="#FEFFFE" transform="matrix(1.00, 0.00, -0.00, -1.00, 469.6, 61.0)">e</text><text xml:space="preserve" font-family="Avenir-Light" font-size="36.0" fill="#FEFFFE" transform="matrix(1.00, 0.00, -0.00, -1.00, 489.6, 61.0)">m</text><text xml:space="preserve" font-family="Avenir-Light" font-size="36.0" fill="#FEFFFE" transform="matrix(1.00, 0.00, -0.00, -1.00, 520.2, 61.0)">b</text><text xml:space="preserve" font-family="Avenir-Light" font-size="36.0" fill="#FEFFFE" transform="matrix(1.00, 0.00, -0.00, -1.00, 542.2, 61.0)">l</text><text xml:space="preserve" font-family="Avenir-Light" font-size="36.0" fill="#FEFFFE" transform="matrix(1.00, 0.00, -0.00, -1.00, 550.9, 61.0)">e</text><text xml:space="preserve" font-family="Avenir-Light" font-size="36.0" fill="#FEFFFE" transform="matrix(1.00, 0.00, -0.00, -1.00, 570.9, 61.0)">d</text><text xml:space="preserve" font-family="Avenir-Light" font-size="36.0" fill="#FEFFFE" transform="matrix(1.00, 0.00, -0.00, -1.00, 592.9, 61.0)">.</text><text xml:space="preserve" font-family="Avenir-Light" font-size="36.0" fill="#FEFFFE" transform="matrix(1.00, 0.00, -0.00, -1.00, 602.3, 61.0)">”</text><text xml:space="preserve" font-family="Avenir-Light" font-size="36.0" fill="#FEFFFE" transform="matrix(1.00, 0.00, -0.00, -1.00, 621.0, 61.0)"> </text></g></svg>