<?xml version="1.0" encoding="UTF-8"?><svg xmlns="http://www.w3.org/2000/svg" xmlns:xlink="http://www.w3.org/1999/xlink" clip-rule="evenodd" stroke-miterlimit="4.00" viewBox="0 0 1024 768"><desc>SVG generated by Keynote</desc><defs></defs><g transform="matrix(1.00, 0.00, -0.00, -1.00, 0.0, 768.0)"><path d="M 0.0 768.0 L 1024.0 768.0 L 1024.0 0.0 L 0.0 0.0 Z M 0.0 768.0 " fill="#000000"></path><g><clipPath id="clip-555"><path d="M 0.0 -1.0 L 1024.0 -1.0 L 1024.0 553.0 L 0.0 553.0 Z M 0.0 -1.0 "></path></clipPath><g clip-path="url(#clip-555)"><image xlink:href="../../E22F9CFC-D568-4C2C-98E1-1A2A08C96496/assets/E94560F1839E1246DFCD902D5F2CEDA2.jpeg" width="1024.00" height="681.00" transform="matrix(1.00, 0.00, -0.00, -1.00, 0.0, 616.0)"></image></g></g><text xml:space="preserve" font-family="Avenir-Light" font-size="52.1" fill="#FEFFFF" transform="matrix(1.00, 0.00, -0.00, -1.00, 56.0, 633.0)">P</text><text xml:space="preserve" font-family="Avenir-Light" font-size="52.1" fill="#FEFFFF" transform="matrix(1.00, 0.00, -0.00, -1.00, 90.4, 633.0)">A</text><text xml:space="preserve" font-family="Avenir-Light" font-size="52.1" fill="#FEFFFF" transform="matrix(1.00, 0.00, -0.00, -1.00, 134.4, 633.0)">D</text><text xml:space="preserve" font-family="Avenir-Light" font-size="52.1" fill="#FEFFFF" transform="matrix(1.00, 0.00, -0.00, -1.00, 181.3, 633.0)">D</text><text xml:space="preserve" font-family="Avenir-Light" font-size="52.1" fill="#FEFFFF" transform="matrix(1.00, 0.00, -0.00, -1.00, 228.2, 633.0)">L</text><text xml:space="preserve" font-family="Avenir-Light" font-size="52.1" fill="#FEFFFF" transform="matrix(1.00, 0.00, -0.00, -1.00, 262.6, 633.0)">I</text><text xml:space="preserve" font-family="Avenir-Light" font-size="52.1" fill="#FEFFFF" transform="matrix(1.00, 0.00, -0.00, -1.00, 284.5, 633.0)">N</text><text xml:space="preserve" font-family="Avenir-Light" font-size="52.1" fill="#FEFFFF" transform="matrix(1.00, 0.00, -0.00, -1.00, 333.3, 633.0)">G</text><text xml:space="preserve" font-family="Avenir-Light" font-size="52.1" fill="#FEFFFF" transform="matrix(1.00, 0.00, -0.00, -1.00, 382.2, 633.0)"> </text><text xml:space="preserve" font-family="Avenir-Light" font-size="52.1" fill="#FEFFFF" transform="matrix(1.00, 0.00, -0.00, -1.00, 404.1, 633.0)">L</text><text xml:space="preserve" font-family="Avenir-Light" font-size="52.1" fill="#FEFFFF" transform="matrix(1.00, 0.00, -0.00, -1.00, 438.4, 633.0)">A</text><text xml:space="preserve" font-family="Avenir-Light" font-size="52.1" fill="#FEFFFF" transform="matrix(1.00, 0.00, -0.00, -1.00, 482.4, 633.0)">K</text><text xml:space="preserve" font-family="Avenir-Light" font-size="52.1" fill="#FEFFFF" transform="matrix(1.00, 0.00, -0.00, -1.00, 522.6, 633.0)">E</text><text xml:space="preserve" font-family="Avenir-Light" font-size="52.1" fill="#FEFFFF" transform="matrix(1.00, 0.00, -0.00, -1.00, 561.8, 633.0)"> </text><text xml:space="preserve" font-family="Avenir-Light" font-size="52.1" fill="#FEFFFF" transform="matrix(1.00, 0.00, -0.00, -1.00, 583.7, 633.0)">L</text><text xml:space="preserve" font-family="Avenir-Light" font-size="52.1" fill="#FEFFFF" transform="matrix(1.00, 0.00, -0.00, -1.00, 618.0, 633.0)">A</text><text xml:space="preserve" font-family="Avenir-Light" font-size="52.1" fill="#FEFFFF" transform="matrix(1.00, 0.00, -0.00, -1.00, 662.1, 633.0)">B</text><text xml:space="preserve" font-family="Avenir-Light" font-size="52.1" fill="#FEFFFF" transform="matrix(1.00, 0.00, -0.00, -1.00, 703.2, 633.0)">E</text><text xml:space="preserve" font-family="Avenir-Light" font-size="52.1" fill="#FEFFFF" transform="matrix(1.00, 0.00, -0.00, -1.00, 742.4, 633.0)">R</text><text xml:space="preserve" font-family="Avenir-Light" font-size="52.1" fill="#FEFFFF" transform="matrix(1.00, 0.00, -0.00, -1.00, 781.6, 633.0)">G</text><text xml:space="preserve" font-family="Avenir-Light" font-size="52.1" fill="#FEFFFF" transform="matrix(1.00, 0.00, -0.00, -1.00, 830.5, 633.0)">E</text><text xml:space="preserve" font-family="Avenir-Light" font-size="52.1" fill="#FEFFFF" transform="matrix(1.00, 0.00, -0.00, -1.00, 869.7, 633.0)"> </text><text xml:space="preserve" font-family="Avenir-Light" font-size="52.1" fill="#FEFFFF" transform="matrix(1.00, 0.00, -0.00, -1.00, 891.6, 633.0)">Y</text><text xml:space="preserve" font-family="Avenir-Light" font-size="52.1" fill="#FEFFFF" transform="matrix(1.00, 0.00, -0.00, -1.00, 929.8, 633.0)">T</text><text xml:space="preserve" font-family="Avenir-Light" font-size="23.3" fill="#000000" transform="matrix(1.00, 0.00, -0.00, -1.00, 56.0, 528.0)">I</text><text xml:space="preserve" font-family="Avenir-Light" font-size="23.3" fill="#000000" transform="matrix(1.00, 0.00, -0.00, -1.00, 65.8, 528.0)">N</text><text xml:space="preserve" font-family="Avenir-Light" font-size="23.3" fill="#000000" transform="matrix(1.00, 0.00, -0.00, -1.00, 87.6, 528.0)"> </text><text xml:space="preserve" font-family="Avenir-Light" font-size="23.3" fill="#000000" transform="matrix(1.00, 0.00, -0.00, -1.00, 97.4, 528.0)">M</text><text xml:space="preserve" font-family="Avenir-Light" font-size="23.3" fill="#000000" transform="matrix(1.00, 0.00, -0.00, -1.00, 121.8, 528.0)">Y</text><text xml:space="preserve" font-family="Avenir-Light" font-size="23.3" fill="#000000" transform="matrix(1.00, 0.00, -0.00, -1.00, 138.9, 528.0)"> </text><text xml:space="preserve" font-family="Avenir-Light" font-size="23.3" fill="#000000" transform="matrix(1.00, 0.00, -0.00, -1.00, 148.7, 528.0)">E</text><text xml:space="preserve" font-family="Avenir-Light" font-size="23.3" fill="#000000" transform="matrix(1.00, 0.00, -0.00, -1.00, 166.2, 528.0)">L</text><text xml:space="preserve" font-family="Avenir-Light" font-size="23.3" fill="#000000" transform="matrix(1.00, 0.00, -0.00, -1.00, 181.6, 528.0)">E</text><text xml:space="preserve" font-family="Avenir-Light" font-size="23.3" fill="#000000" transform="matrix(1.00, 0.00, -0.00, -1.00, 199.1, 528.0)">M</text><text xml:space="preserve" font-family="Avenir-Light" font-size="23.3" fill="#000000" transform="matrix(1.00, 0.00, -0.00, -1.00, 223.5, 528.0)">E</text><text xml:space="preserve" font-family="Avenir-Light" font-size="23.3" fill="#000000" transform="matrix(1.00, 0.00, -0.00, -1.00, 241.1, 528.0)">N</text><text xml:space="preserve" font-family="Avenir-Light" font-size="23.3" fill="#000000" transform="matrix(1.00, 0.00, -0.00, -1.00, 262.9, 528.0)">T</text><text xml:space="preserve" font-family="Avenir-Light" font-size="23.3" fill="#000000" transform="matrix(1.00, 0.00, -0.00, -1.00, 277.4, 528.0)">,</text><text xml:space="preserve" font-family="Avenir-Light" font-size="23.3" fill="#000000" transform="matrix(1.00, 0.00, -0.00, -1.00, 287.2, 528.0)"> </text><text xml:space="preserve" font-family="Avenir-Light" font-size="23.3" fill="#000000" transform="matrix(1.00, 0.00, -0.00, -1.00, 296.9, 528.0)">T</text><text xml:space="preserve" font-family="Avenir-Light" font-size="23.3" fill="#000000" transform="matrix(1.00, 0.00, -0.00, -1.00, 314.0, 528.0)">H</text><text xml:space="preserve" font-family="Avenir-Light" font-size="23.3" fill="#000000" transform="matrix(1.00, 0.00, -0.00, -1.00, 334.6, 528.0)">E</text><text xml:space="preserve" font-family="Avenir-Light" font-size="23.3" fill="#000000" transform="matrix(1.00, 0.00, -0.00, -1.00, 352.1, 528.0)"> </text><text xml:space="preserve" font-family="Avenir-Light" font-size="23.3" fill="#000000" transform="matrix(1.00, 0.00, -0.00, -1.00, 361.9, 528.0)">F</text><text xml:space="preserve" font-family="Avenir-Light" font-size="23.3" fill="#000000" transform="matrix(1.00, 0.00, -0.00, -1.00, 378.5, 528.0)">R</text><text xml:space="preserve" font-family="Avenir-Light" font-size="23.3" fill="#000000" transform="matrix(1.00, 0.00, -0.00, -1.00, 396.1, 528.0)">E</text><text xml:space="preserve" font-family="Avenir-Light" font-size="23.3" fill="#000000" transform="matrix(1.00, 0.00, -0.00, -1.00, 413.6, 528.0)">E</text><text xml:space="preserve" font-family="Avenir-Light" font-size="23.3" fill="#000000" transform="matrix(1.00, 0.00, -0.00, -1.00, 431.1, 528.0)">D</text><text xml:space="preserve" font-family="Avenir-Light" font-size="23.3" fill="#000000" transform="matrix(1.00, 0.00, -0.00, -1.00, 452.1, 528.0)">O</text><text xml:space="preserve" font-family="Avenir-Light" font-size="23.3" fill="#000000" transform="matrix(1.00, 0.00, -0.00, -1.00, 475.2, 528.0)">M</text><text xml:space="preserve" font-family="Avenir-Light" font-size="23.3" fill="#000000" transform="matrix(1.00, 0.00, -0.00, -1.00, 499.7, 528.0)"> </text><text xml:space="preserve" font-family="Avenir-Light" font-size="23.3" fill="#000000" transform="matrix(1.00, 0.00, -0.00, -1.00, 509.4, 528.0)">&amp;</text><text xml:space="preserve" font-family="Avenir-Light" font-size="23.3" fill="#000000" transform="matrix(1.00, 0.00, -0.00, -1.00, 529.6, 528.0)"> </text><text xml:space="preserve" font-family="Avenir-Light" font-size="23.3" fill="#000000" transform="matrix(1.00, 0.00, -0.00, -1.00, 539.3, 528.0)">P</text><text xml:space="preserve" font-family="Avenir-Light" font-size="23.3" fill="#000000" transform="matrix(1.00, 0.00, -0.00, -1.00, 556.4, 528.0)">E</text><text xml:space="preserve" font-family="Avenir-Light" font-size="23.3" fill="#000000" transform="matrix(1.00, 0.00, -0.00, -1.00, 574.0, 528.0)">A</text><text xml:space="preserve" font-family="Avenir-Light" font-size="23.3" fill="#000000" transform="matrix(1.00, 0.00, -0.00, -1.00, 593.6, 528.0)">C</text><text xml:space="preserve" font-family="Avenir-Light" font-size="23.3" fill="#000000" transform="matrix(1.00, 0.00, -0.00, -1.00, 613.7, 528.0)">E</text><text xml:space="preserve" font-family="Avenir-Light" font-size="23.3" fill="#000000" transform="matrix(1.00, 0.00, -0.00, -1.00, 631.3, 528.0)"> </text><text xml:space="preserve" font-family="Avenir-Light" font-size="23.3" fill="#000000" transform="matrix(1.00, 0.00, -0.00, -1.00, 641.0, 528.0)">O</text><text xml:space="preserve" font-family="Avenir-Light" font-size="23.3" fill="#000000" transform="matrix(1.00, 0.00, -0.00, -1.00, 664.2, 528.0)">F</text><text xml:space="preserve" font-family="Avenir-Light" font-size="23.3" fill="#000000" transform="matrix(1.00, 0.00, -0.00, -1.00, 680.9, 528.0)"> </text><text xml:space="preserve" font-family="Avenir-Light" font-size="23.3" fill="#000000" transform="matrix(1.00, 0.00, -0.00, -1.00, 690.6, 528.0)">B</text><text xml:space="preserve" font-family="Avenir-Light" font-size="23.3" fill="#000000" transform="matrix(1.00, 0.00, -0.00, -1.00, 709.0, 528.0)">E</text><text xml:space="preserve" font-family="Avenir-Light" font-size="23.3" fill="#000000" transform="matrix(1.00, 0.00, -0.00, -1.00, 726.6, 528.0)">I</text><text xml:space="preserve" font-family="Avenir-Light" font-size="23.3" fill="#000000" transform="matrix(1.00, 0.00, -0.00, -1.00, 736.3, 528.0)">N</text><text xml:space="preserve" font-family="Avenir-Light" font-size="23.3" fill="#000000" transform="matrix(1.00, 0.00, -0.00, -1.00, 758.2, 528.0)">G</text><text xml:space="preserve" font-family="Avenir-Light" font-size="23.3" fill="#000000" transform="matrix(1.00, 0.00, -0.00, -1.00, 780.0, 528.0)"> </text><text xml:space="preserve" font-family="Avenir-Light" font-size="23.3" fill="#000000" transform="matrix(1.00, 0.00, -0.00, -1.00, 789.8, 528.0)">O</text><text xml:space="preserve" font-family="Avenir-Light" font-size="23.3" fill="#000000" transform="matrix(1.00, 0.00, -0.00, -1.00, 812.9, 528.0)">N</text><text xml:space="preserve" font-family="Avenir-Light" font-size="23.3" fill="#000000" transform="matrix(1.00, 0.00, -0.00, -1.00, 834.8, 528.0)"> </text><text xml:space="preserve" font-family="Avenir-Light" font-size="23.3" fill="#000000" transform="matrix(1.00, 0.00, -0.00, -1.00, 844.5, 528.0)">W</text><text xml:space="preserve" font-family="Avenir-Light" font-size="23.3" fill="#000000" transform="matrix(1.00, 0.00, -0.00, -1.00, 869.8, 528.0)">A</text><text xml:space="preserve" font-family="Avenir-Light" font-size="23.3" fill="#000000" transform="matrix(1.00, 0.00, -0.00, -1.00, 887.9, 528.0)">T</text><text xml:space="preserve" font-family="Avenir-Light" font-size="23.3" fill="#000000" transform="matrix(1.00, 0.00, -0.00, -1.00, 905.0, 528.0)">E</text><text xml:space="preserve" font-family="Avenir-Light" font-size="23.3" fill="#000000" transform="matrix(1.00, 0.00, -0.00, -1.00, 922.5, 528.0)">R</text></g></svg>