<?xml version="1.0" encoding="UTF-8"?><svg xmlns="http://www.w3.org/2000/svg" xmlns:xlink="http://www.w3.org/1999/xlink" clip-rule="evenodd" stroke-miterlimit="4.00" viewBox="0 0 1024 768"><desc>SVG generated by Keynote</desc><defs></defs><g transform="matrix(1.00, 0.00, -0.00, -1.00, 0.0, 768.0)"><path d="M 0.0 768.0 L 1024.0 768.0 L 1024.0 0.0 L 0.0 0.0 Z M 0.0 768.0 " fill="#000000"></path><g><clipPath id="clip-217"><path d="M 0.0 -1.0 L 1024.0 -1.0 L 1024.0 553.0 L 0.0 553.0 Z M 0.0 -1.0 "></path></clipPath><g clip-path="url(#clip-217)"><image xlink:href="../../E22F9CFC-D568-4C2C-98E1-1A2A08C96496/assets/E94560F1839E1246DFCD902D5F2CEDA2.jpeg" width="1024.00" height="681.00" transform="matrix(1.00, 0.00, -0.00, -1.00, 0.0, 616.0)"></image></g></g><text xml:space="preserve" font-family="Avenir-Light" font-size="52.1" fill="#FEFFFF" transform="matrix(1.00, 0.00, -0.00, -1.00, 56.0, 645.0)">P</text><text xml:space="preserve" font-family="Avenir-Light" font-size="52.1" fill="#FEFFFF" transform="matrix(1.00, 0.00, -0.00, -1.00, 90.4, 645.0)">A</text><text xml:space="preserve" font-family="Avenir-Light" font-size="52.1" fill="#FEFFFF" transform="matrix(1.00, 0.00, -0.00, -1.00, 134.4, 645.0)">D</text><text xml:space="preserve" font-family="Avenir-Light" font-size="52.1" fill="#FEFFFF" transform="matrix(1.00, 0.00, -0.00, -1.00, 181.3, 645.0)">D</text><text xml:space="preserve" font-family="Avenir-Light" font-size="52.1" fill="#FEFFFF" transform="matrix(1.00, 0.00, -0.00, -1.00, 228.2, 645.0)">L</text><text xml:space="preserve" font-family="Avenir-Light" font-size="52.1" fill="#FEFFFF" transform="matrix(1.00, 0.00, -0.00, -1.00, 262.6, 645.0)">I</text><text xml:space="preserve" font-family="Avenir-Light" font-size="52.1" fill="#FEFFFF" transform="matrix(1.00, 0.00, -0.00, -1.00, 284.5, 645.0)">N</text><text xml:space="preserve" font-family="Avenir-Light" font-size="52.1" fill="#FEFFFF" transform="matrix(1.00, 0.00, -0.00, -1.00, 333.3, 645.0)">G</text><text xml:space="preserve" font-family="Avenir-Light" font-size="52.1" fill="#FEFFFF" transform="matrix(1.00, 0.00, -0.00, -1.00, 382.2, 645.0)"> </text><text xml:space="preserve" font-family="Avenir-Light" font-size="52.1" fill="#FEFFFF" transform="matrix(1.00, 0.00, -0.00, -1.00, 404.1, 645.0)">L</text><text xml:space="preserve" font-family="Avenir-Light" font-size="52.1" fill="#FEFFFF" transform="matrix(1.00, 0.00, -0.00, -1.00, 438.4, 645.0)">A</text><text xml:space="preserve" font-family="Avenir-Light" font-size="52.1" fill="#FEFFFF" transform="matrix(1.00, 0.00, -0.00, -1.00, 482.4, 645.0)">K</text><text xml:space="preserve" font-family="Avenir-Light" font-size="52.1" fill="#FEFFFF" transform="matrix(1.00, 0.00, -0.00, -1.00, 522.6, 645.0)">E</text><text xml:space="preserve" font-family="Avenir-Light" font-size="52.1" fill="#FEFFFF" transform="matrix(1.00, 0.00, -0.00, -1.00, 561.8, 645.0)"> </text><text xml:space="preserve" font-family="Avenir-Light" font-size="52.1" fill="#FEFFFF" transform="matrix(1.00, 0.00, -0.00, -1.00, 583.7, 645.0)">L</text><text xml:space="preserve" font-family="Avenir-Light" font-size="52.1" fill="#FEFFFF" transform="matrix(1.00, 0.00, -0.00, -1.00, 618.0, 645.0)">A</text><text xml:space="preserve" font-family="Avenir-Light" font-size="52.1" fill="#FEFFFF" transform="matrix(1.00, 0.00, -0.00, -1.00, 662.1, 645.0)">B</text><text xml:space="preserve" font-family="Avenir-Light" font-size="52.1" fill="#FEFFFF" transform="matrix(1.00, 0.00, -0.00, -1.00, 703.2, 645.0)">E</text><text xml:space="preserve" font-family="Avenir-Light" font-size="52.1" fill="#FEFFFF" transform="matrix(1.00, 0.00, -0.00, -1.00, 742.4, 645.0)">R</text><text xml:space="preserve" font-family="Avenir-Light" font-size="52.1" fill="#FEFFFF" transform="matrix(1.00, 0.00, -0.00, -1.00, 781.6, 645.0)">G</text><text xml:space="preserve" font-family="Avenir-Light" font-size="52.1" fill="#FEFFFF" transform="matrix(1.00, 0.00, -0.00, -1.00, 830.5, 645.0)">E</text><text xml:space="preserve" font-family="Avenir-Light" font-size="52.1" fill="#FEFFFF" transform="matrix(1.00, 0.00, -0.00, -1.00, 869.7, 645.0)"> </text><text xml:space="preserve" font-family="Avenir-Light" font-size="52.1" fill="#FEFFFF" transform="matrix(1.00, 0.00, -0.00, -1.00, 891.6, 645.0)">Y</text><text xml:space="preserve" font-family="Avenir-Light" font-size="52.1" fill="#FEFFFF" transform="matrix(1.00, 0.00, -0.00, -1.00, 929.8, 645.0)">T</text><text xml:space="preserve" font-family="Avenir-Light" font-size="22.8" fill="#FEFFFE" transform="matrix(1.00, 0.00, -0.00, -1.00, 79.0, 566.0)">I</text><text xml:space="preserve" font-family="Avenir-Light" font-size="22.8" fill="#FEFFFE" transform="matrix(1.00, 0.00, -0.00, -1.00, 88.6, 566.0)">N</text><text xml:space="preserve" font-family="Avenir-Light" font-size="22.8" fill="#FEFFFE" transform="matrix(1.00, 0.00, -0.00, -1.00, 110.0, 566.0)"> </text><text xml:space="preserve" font-family="Avenir-Light" font-size="22.8" fill="#FEFFFE" transform="matrix(1.00, 0.00, -0.00, -1.00, 119.5, 566.0)">M</text><text xml:space="preserve" font-family="Avenir-Light" font-size="22.8" fill="#FEFFFE" transform="matrix(1.00, 0.00, -0.00, -1.00, 143.5, 566.0)">Y</text><text xml:space="preserve" font-family="Avenir-Light" font-size="22.8" fill="#FEFFFE" transform="matrix(1.00, 0.00, -0.00, -1.00, 160.2, 566.0)"> </text><text xml:space="preserve" font-family="Avenir-Light" font-size="22.8" fill="#FEFFFE" transform="matrix(1.00, 0.00, -0.00, -1.00, 169.8, 566.0)">E</text><text xml:space="preserve" font-family="Avenir-Light" font-size="22.8" fill="#FEFFFE" transform="matrix(1.00, 0.00, -0.00, -1.00, 186.9, 566.0)">L</text><text xml:space="preserve" font-family="Avenir-Light" font-size="22.8" fill="#FEFFFE" transform="matrix(1.00, 0.00, -0.00, -1.00, 202.0, 566.0)">E</text><text xml:space="preserve" font-family="Avenir-Light" font-size="22.8" fill="#FEFFFE" transform="matrix(1.00, 0.00, -0.00, -1.00, 219.2, 566.0)">M</text><text xml:space="preserve" font-family="Avenir-Light" font-size="22.8" fill="#FEFFFE" transform="matrix(1.00, 0.00, -0.00, -1.00, 243.1, 566.0)">E</text><text xml:space="preserve" font-family="Avenir-Light" font-size="22.8" fill="#FEFFFE" transform="matrix(1.00, 0.00, -0.00, -1.00, 260.2, 566.0)">N</text><text xml:space="preserve" font-family="Avenir-Light" font-size="22.8" fill="#FEFFFE" transform="matrix(1.00, 0.00, -0.00, -1.00, 281.6, 566.0)">T</text><text xml:space="preserve" font-family="Avenir-Light" font-size="22.8" fill="#FEFFFE" transform="matrix(1.00, 0.00, -0.00, -1.00, 295.8, 566.0)">,</text><text xml:space="preserve" font-family="Avenir-Light" font-size="22.8" fill="#FEFFFE" transform="matrix(1.00, 0.00, -0.00, -1.00, 305.4, 566.0)"> </text><text xml:space="preserve" font-family="Avenir-Light" font-size="22.8" fill="#FEFFFE" transform="matrix(1.00, 0.00, -0.00, -1.00, 315.0, 566.0)">T</text><text xml:space="preserve" font-family="Avenir-Light" font-size="22.8" fill="#FEFFFE" transform="matrix(1.00, 0.00, -0.00, -1.00, 331.7, 566.0)">H</text><text xml:space="preserve" font-family="Avenir-Light" font-size="22.8" fill="#FEFFFE" transform="matrix(1.00, 0.00, -0.00, -1.00, 351.8, 566.0)">E</text><text xml:space="preserve" font-family="Avenir-Light" font-size="22.8" fill="#FEFFFE" transform="matrix(1.00, 0.00, -0.00, -1.00, 369.0, 566.0)"> </text><text xml:space="preserve" font-family="Avenir-Light" font-size="22.8" fill="#FEFFFE" transform="matrix(1.00, 0.00, -0.00, -1.00, 378.6, 566.0)">F</text><text xml:space="preserve" font-family="Avenir-Light" font-size="22.8" fill="#FEFFFE" transform="matrix(1.00, 0.00, -0.00, -1.00, 394.9, 566.0)">R</text><text xml:space="preserve" font-family="Avenir-Light" font-size="22.8" fill="#FEFFFE" transform="matrix(1.00, 0.00, -0.00, -1.00, 412.1, 566.0)">E</text><text xml:space="preserve" font-family="Avenir-Light" font-size="22.8" fill="#FEFFFE" transform="matrix(1.00, 0.00, -0.00, -1.00, 429.2, 566.0)">E</text><text xml:space="preserve" font-family="Avenir-Light" font-size="22.8" fill="#FEFFFE" transform="matrix(1.00, 0.00, -0.00, -1.00, 446.4, 566.0)">D</text><text xml:space="preserve" font-family="Avenir-Light" font-size="22.8" fill="#FEFFFE" transform="matrix(1.00, 0.00, -0.00, -1.00, 466.9, 566.0)">O</text><text xml:space="preserve" font-family="Avenir-Light" font-size="22.8" fill="#FEFFFE" transform="matrix(1.00, 0.00, -0.00, -1.00, 489.6, 566.0)">M</text><text xml:space="preserve" font-family="Avenir-Light" font-size="22.8" fill="#FEFFFE" transform="matrix(1.00, 0.00, -0.00, -1.00, 513.5, 566.0)"> </text><text xml:space="preserve" font-family="Avenir-Light" font-size="22.8" fill="#FEFFFE" transform="matrix(1.00, 0.00, -0.00, -1.00, 523.1, 566.0)">&amp;</text><text xml:space="preserve" font-family="Avenir-Light" font-size="22.8" fill="#FEFFFE" transform="matrix(1.00, 0.00, -0.00, -1.00, 542.8, 566.0)"> </text><text xml:space="preserve" font-family="Avenir-Light" font-size="22.8" fill="#FEFFFE" transform="matrix(1.00, 0.00, -0.00, -1.00, 552.4, 566.0)">P</text><text xml:space="preserve" font-family="Avenir-Light" font-size="22.8" fill="#FEFFFE" transform="matrix(1.00, 0.00, -0.00, -1.00, 569.1, 566.0)">E</text><text xml:space="preserve" font-family="Avenir-Light" font-size="22.8" fill="#FEFFFE" transform="matrix(1.00, 0.00, -0.00, -1.00, 586.3, 566.0)">A</text><text xml:space="preserve" font-family="Avenir-Light" font-size="22.8" fill="#FEFFFE" transform="matrix(1.00, 0.00, -0.00, -1.00, 605.5, 566.0)">C</text><text xml:space="preserve" font-family="Avenir-Light" font-size="22.8" fill="#FEFFFE" transform="matrix(1.00, 0.00, -0.00, -1.00, 625.2, 566.0)">E</text><text xml:space="preserve" font-family="Avenir-Light" font-size="22.8" fill="#FEFFFE" transform="matrix(1.00, 0.00, -0.00, -1.00, 642.4, 566.0)"> </text><text xml:space="preserve" font-family="Avenir-Light" font-size="22.8" fill="#FEFFFE" transform="matrix(1.00, 0.00, -0.00, -1.00, 652.0, 566.0)">O</text><text xml:space="preserve" font-family="Avenir-Light" font-size="22.8" fill="#FEFFFE" transform="matrix(1.00, 0.00, -0.00, -1.00, 674.6, 566.0)">F</text><text xml:space="preserve" font-family="Avenir-Light" font-size="22.8" fill="#FEFFFE" transform="matrix(1.00, 0.00, -0.00, -1.00, 691.0, 566.0)"> </text><text xml:space="preserve" font-family="Avenir-Light" font-size="22.8" fill="#FEFFFE" transform="matrix(1.00, 0.00, -0.00, -1.00, 700.6, 566.0)">B</text><text xml:space="preserve" font-family="Avenir-Light" font-size="22.8" fill="#FEFFFE" transform="matrix(1.00, 0.00, -0.00, -1.00, 718.6, 566.0)">E</text><text xml:space="preserve" font-family="Avenir-Light" font-size="22.8" fill="#FEFFFE" transform="matrix(1.00, 0.00, -0.00, -1.00, 735.7, 566.0)">I</text><text xml:space="preserve" font-family="Avenir-Light" font-size="22.8" fill="#FEFFFE" transform="matrix(1.00, 0.00, -0.00, -1.00, 745.3, 566.0)">N</text><text xml:space="preserve" font-family="Avenir-Light" font-size="22.8" fill="#FEFFFE" transform="matrix(1.00, 0.00, -0.00, -1.00, 766.7, 566.0)">G</text><text xml:space="preserve" font-family="Avenir-Light" font-size="22.8" fill="#FEFFFE" transform="matrix(1.00, 0.00, -0.00, -1.00, 788.1, 566.0)"> </text><text xml:space="preserve" font-family="Avenir-Light" font-size="22.8" fill="#FEFFFE" transform="matrix(1.00, 0.00, -0.00, -1.00, 797.7, 566.0)">O</text><text xml:space="preserve" font-family="Avenir-Light" font-size="22.8" fill="#FEFFFE" transform="matrix(1.00, 0.00, -0.00, -1.00, 820.3, 566.0)">N</text><text xml:space="preserve" font-family="Avenir-Light" font-size="22.8" fill="#FEFFFE" transform="matrix(1.00, 0.00, -0.00, -1.00, 841.7, 566.0)"> </text><text xml:space="preserve" font-family="Avenir-Light" font-size="22.8" fill="#FEFFFE" transform="matrix(1.00, 0.00, -0.00, -1.00, 851.3, 566.0)">W</text><text xml:space="preserve" font-family="Avenir-Light" font-size="22.8" fill="#FEFFFE" transform="matrix(1.00, 0.00, -0.00, -1.00, 876.0, 566.0)">A</text><text xml:space="preserve" font-family="Avenir-Light" font-size="22.8" fill="#FEFFFE" transform="matrix(1.00, 0.00, -0.00, -1.00, 893.8, 566.0)">T</text><text xml:space="preserve" font-family="Avenir-Light" font-size="22.8" fill="#FEFFFE" transform="matrix(1.00, 0.00, -0.00, -1.00, 910.5, 566.0)">E</text><text xml:space="preserve" font-family="Avenir-Light" font-size="22.8" fill="#FEFFFE" transform="matrix(1.00, 0.00, -0.00, -1.00, 927.7, 566.0)">R</text></g></svg>