<?xml version="1.0" encoding="UTF-8"?><svg xmlns="http://www.w3.org/2000/svg" xmlns:xlink="http://www.w3.org/1999/xlink" clip-rule="evenodd" stroke-miterlimit="4.00" viewBox="0 0 1024 768"><desc>SVG generated by Keynote</desc><defs></defs><g transform="matrix(1.00, 0.00, -0.00, -1.00, 0.0, 768.0)"><path d="M 0.0 768.0 L 1024.0 768.0 L 1024.0 0.0 L 0.0 0.0 Z M 0.0 768.0 " fill="#000000"></path><g><clipPath id="clip-35"><path d="M 0.0 0.0 L 1024.0 0.0 L 1024.0 768.0 L 0.0 768.0 Z M 0.0 0.0 "></path></clipPath><g clip-path="url(#clip-35)"><image xlink:href="../../D10DFA24-E08D-4FA3-8DDB-DC1BD3B7730A/assets/A58F263F83A9B66615322C48E443CEA5.jpeg" width="1156.00" height="769.00" transform="matrix(1.00, 0.00, -0.00, -1.00, -66.0, 768.0)"></image></g></g><text xml:space="preserve" font-family="Avenir-Light" font-size="19.8" fill="#FEFFFF" transform="matrix(1.00, 0.00, -0.00, -1.00, 243.0, 13.0)">I</text><text xml:space="preserve" font-family="Avenir-Light" font-size="19.8" fill="#FEFFFF" transform="matrix(1.00, 0.00, -0.00, -1.00, 251.3, 13.0)">C</text><text xml:space="preserve" font-family="Avenir-Light" font-size="19.8" fill="#FEFFFF" transform="matrix(1.00, 0.00, -0.00, -1.00, 268.4, 13.0)">E</text><text xml:space="preserve" font-family="Avenir-Light" font-size="19.8" fill="#FEFFFF" transform="matrix(1.00, 0.00, -0.00, -1.00, 283.3, 13.0)">F</text><text xml:space="preserve" font-family="Avenir-Light" font-size="19.8" fill="#FEFFFF" transform="matrix(1.00, 0.00, -0.00, -1.00, 297.5, 13.0)">I</text><text xml:space="preserve" font-family="Avenir-Light" font-size="19.8" fill="#FEFFFF" transform="matrix(1.00, 0.00, -0.00, -1.00, 305.8, 13.0)">E</text><text xml:space="preserve" font-family="Avenir-Light" font-size="19.8" fill="#FEFFFF" transform="matrix(1.00, 0.00, -0.00, -1.00, 320.7, 13.0)">L</text><text xml:space="preserve" font-family="Avenir-Light" font-size="19.8" fill="#FEFFFF" transform="matrix(1.00, 0.00, -0.00, -1.00, 333.8, 13.0)">D</text><text xml:space="preserve" font-family="Avenir-Light" font-size="19.8" fill="#FEFFFF" transform="matrix(1.00, 0.00, -0.00, -1.00, 351.6, 13.0)">S</text><text xml:space="preserve" font-family="Avenir-Light" font-size="19.8" fill="#FEFFFF" transform="matrix(1.00, 0.00, -0.00, -1.00, 365.8, 13.0)"> </text><text xml:space="preserve" font-family="Avenir-Light" font-size="19.8" fill="#FEFFFF" transform="matrix(1.00, 0.00, -0.00, -1.00, 374.1, 13.0)">R</text><text xml:space="preserve" font-family="Avenir-Light" font-size="19.8" fill="#FEFFFF" transform="matrix(1.00, 0.00, -0.00, -1.00, 389.0, 13.0)">A</text><text xml:space="preserve" font-family="Avenir-Light" font-size="19.8" fill="#FEFFFF" transform="matrix(1.00, 0.00, -0.00, -1.00, 405.8, 13.0)">N</text><text xml:space="preserve" font-family="Avenir-Light" font-size="19.8" fill="#FEFFFF" transform="matrix(1.00, 0.00, -0.00, -1.00, 424.3, 13.0)">G</text><text xml:space="preserve" font-family="Avenir-Light" font-size="19.8" fill="#FEFFFF" transform="matrix(1.00, 0.00, -0.00, -1.00, 442.9, 13.0)">E</text><text xml:space="preserve" font-family="Avenir-Light" font-size="19.8" fill="#FEFFFF" transform="matrix(1.00, 0.00, -0.00, -1.00, 457.8, 13.0)">S</text><text xml:space="preserve" font-family="Avenir-Light" font-size="19.8" fill="#FEFFFF" transform="matrix(1.00, 0.00, -0.00, -1.00, 472.0, 13.0)"> </text><text xml:space="preserve" font-family="Avenir-Light" font-size="19.8" fill="#FEFFFF" transform="matrix(1.00, 0.00, -0.00, -1.00, 480.3, 13.0)">F</text><text xml:space="preserve" font-family="Avenir-Light" font-size="19.8" fill="#FEFFFF" transform="matrix(1.00, 0.00, -0.00, -1.00, 494.5, 13.0)">R</text><text xml:space="preserve" font-family="Avenir-Light" font-size="19.8" fill="#FEFFFF" transform="matrix(1.00, 0.00, -0.00, -1.00, 509.4, 13.0)">O</text><text xml:space="preserve" font-family="Avenir-Light" font-size="19.8" fill="#FEFFFF" transform="matrix(1.00, 0.00, -0.00, -1.00, 529.1, 13.0)">M</text><text xml:space="preserve" font-family="Avenir-Light" font-size="19.8" fill="#FEFFFF" transform="matrix(1.00, 0.00, -0.00, -1.00, 549.9, 13.0)"> </text><text xml:space="preserve" font-family="Avenir-Light" font-size="19.8" fill="#FEFFFF" transform="matrix(1.00, 0.00, -0.00, -1.00, 558.2, 13.0)">A</text><text xml:space="preserve" font-family="Avenir-Light" font-size="19.8" fill="#FEFFFF" transform="matrix(1.00, 0.00, -0.00, -1.00, 574.9, 13.0)">L</text><text xml:space="preserve" font-family="Avenir-Light" font-size="19.8" fill="#FEFFFF" transform="matrix(1.00, 0.00, -0.00, -1.00, 588.0, 13.0)">A</text><text xml:space="preserve" font-family="Avenir-Light" font-size="19.8" fill="#FEFFFF" transform="matrix(1.00, 0.00, -0.00, -1.00, 604.7, 13.0)">S</text><text xml:space="preserve" font-family="Avenir-Light" font-size="19.8" fill="#FEFFFF" transform="matrix(1.00, 0.00, -0.00, -1.00, 618.9, 13.0)">K</text><text xml:space="preserve" font-family="Avenir-Light" font-size="19.8" fill="#FEFFFF" transform="matrix(1.00, 0.00, -0.00, -1.00, 634.1, 13.0)">A</text><text xml:space="preserve" font-family="Avenir-Light" font-size="19.8" fill="#FEFFFF" transform="matrix(1.00, 0.00, -0.00, -1.00, 650.9, 13.0)"> </text><text xml:space="preserve" font-family="Avenir-Light" font-size="19.8" fill="#FEFFFF" transform="matrix(1.00, 0.00, -0.00, -1.00, 659.2, 13.0)">H</text><text xml:space="preserve" font-family="Avenir-Light" font-size="19.8" fill="#FEFFFF" transform="matrix(1.00, 0.00, -0.00, -1.00, 676.7, 13.0)">I</text><text xml:space="preserve" font-family="Avenir-Light" font-size="19.8" fill="#FEFFFF" transform="matrix(1.00, 0.00, -0.00, -1.00, 685.0, 13.0)">G</text><text xml:space="preserve" font-family="Avenir-Light" font-size="19.8" fill="#FEFFFF" transform="matrix(1.00, 0.00, -0.00, -1.00, 703.5, 13.0)">H</text><text xml:space="preserve" font-family="Avenir-Light" font-size="19.8" fill="#FEFFFF" transform="matrix(1.00, 0.00, -0.00, -1.00, 721.0, 13.0)">W</text><text xml:space="preserve" font-family="Avenir-Light" font-size="19.8" fill="#FEFFFF" transform="matrix(1.00, 0.00, -0.00, -1.00, 742.5, 13.0)">A</text><text xml:space="preserve" font-family="Avenir-Light" font-size="19.8" fill="#FEFFFF" transform="matrix(1.00, 0.00, -0.00, -1.00, 757.8, 13.0)">Y</text></g></svg>