<?xml version="1.0" encoding="UTF-8"?><svg xmlns="http://www.w3.org/2000/svg" xmlns:xlink="http://www.w3.org/1999/xlink" clip-rule="evenodd" stroke-miterlimit="4.00" viewBox="0 0 1024 768"><desc>SVG generated by Keynote</desc><defs></defs><g transform="matrix(1.00, 0.00, -0.00, -1.00, 0.0, 768.0)"><path d="M 0.0 768.0 L 1024.0 768.0 L 1024.0 0.0 L 0.0 0.0 Z M 0.0 768.0 " fill="#000000"></path><g><clipPath id="clip-295"><path d="M 0.0 0.0 L 1024.0 0.0 L 1024.0 768.0 L 0.0 768.0 Z M 0.0 0.0 "></path></clipPath><g clip-path="url(#clip-295)"><image xlink:href="../../D10DFA24-E08D-4FA3-8DDB-DC1BD3B7730A/assets/A58F263F83A9B66615322C48E443CEA5.jpeg" width="1156.00" height="769.00" transform="matrix(1.00, 0.00, -0.00, -1.00, -66.0, 768.0)"></image></g></g><text xml:space="preserve" font-family="Avenir-Light" font-size="18.9" fill="#FEFFFF" transform="matrix(1.00, 0.00, -0.00, -1.00, 195.0, 14.0)">I</text><text xml:space="preserve" font-family="Avenir-Light" font-size="18.9" fill="#FEFFFF" transform="matrix(1.00, 0.00, -0.00, -1.00, 202.9, 14.0)">C</text><text xml:space="preserve" font-family="Avenir-Light" font-size="18.9" fill="#FEFFFF" transform="matrix(1.00, 0.00, -0.00, -1.00, 219.3, 14.0)">E</text><text xml:space="preserve" font-family="Avenir-Light" font-size="18.9" fill="#FEFFFF" transform="matrix(1.00, 0.00, -0.00, -1.00, 233.5, 14.0)">F</text><text xml:space="preserve" font-family="Avenir-Light" font-size="18.9" fill="#FEFFFF" transform="matrix(1.00, 0.00, -0.00, -1.00, 247.0, 14.0)">I</text><text xml:space="preserve" font-family="Avenir-Light" font-size="18.9" fill="#FEFFFF" transform="matrix(1.00, 0.00, -0.00, -1.00, 255.0, 14.0)">E</text><text xml:space="preserve" font-family="Avenir-Light" font-size="18.9" fill="#FEFFFF" transform="matrix(1.00, 0.00, -0.00, -1.00, 269.2, 14.0)">L</text><text xml:space="preserve" font-family="Avenir-Light" font-size="18.9" fill="#FEFFFF" transform="matrix(1.00, 0.00, -0.00, -1.00, 281.7, 14.0)">D</text><text xml:space="preserve" font-family="Avenir-Light" font-size="18.9" fill="#FEFFFF" transform="matrix(1.00, 0.00, -0.00, -1.00, 298.7, 14.0)">S</text><text xml:space="preserve" font-family="Avenir-Light" font-size="18.9" fill="#FEFFFF" transform="matrix(1.00, 0.00, -0.00, -1.00, 312.2, 14.0)"> </text><text xml:space="preserve" font-family="Avenir-Light" font-size="18.9" fill="#FEFFFF" transform="matrix(1.00, 0.00, -0.00, -1.00, 320.2, 14.0)">R</text><text xml:space="preserve" font-family="Avenir-Light" font-size="18.9" fill="#FEFFFF" transform="matrix(1.00, 0.00, -0.00, -1.00, 334.4, 14.0)">A</text><text xml:space="preserve" font-family="Avenir-Light" font-size="18.9" fill="#FEFFFF" transform="matrix(1.00, 0.00, -0.00, -1.00, 350.4, 14.0)">N</text><text xml:space="preserve" font-family="Avenir-Light" font-size="18.9" fill="#FEFFFF" transform="matrix(1.00, 0.00, -0.00, -1.00, 368.1, 14.0)">G</text><text xml:space="preserve" font-family="Avenir-Light" font-size="18.9" fill="#FEFFFF" transform="matrix(1.00, 0.00, -0.00, -1.00, 385.8, 14.0)">E</text><text xml:space="preserve" font-family="Avenir-Light" font-size="18.9" fill="#FEFFFF" transform="matrix(1.00, 0.00, -0.00, -1.00, 400.1, 14.0)">S</text><text xml:space="preserve" font-family="Avenir-Light" font-size="18.9" fill="#FEFFFF" transform="matrix(1.00, 0.00, -0.00, -1.00, 413.6, 14.0)"> </text><text xml:space="preserve" font-family="Avenir-Light" font-size="18.9" fill="#FEFFFF" transform="matrix(1.00, 0.00, -0.00, -1.00, 421.5, 14.0)">S</text><text xml:space="preserve" font-family="Avenir-Light" font-size="18.9" fill="#FEFFFF" transform="matrix(1.00, 0.00, -0.00, -1.00, 435.1, 14.0)">E</text><text xml:space="preserve" font-family="Avenir-Light" font-size="18.9" fill="#FEFFFF" transform="matrix(1.00, 0.00, -0.00, -1.00, 449.3, 14.0)">E</text><text xml:space="preserve" font-family="Avenir-Light" font-size="18.9" fill="#FEFFFF" transform="matrix(1.00, 0.00, -0.00, -1.00, 463.5, 14.0)">N</text><text xml:space="preserve" font-family="Avenir-Light" font-size="18.9" fill="#FEFFFF" transform="matrix(1.00, 0.00, -0.00, -1.00, 481.3, 14.0)"> </text><text xml:space="preserve" font-family="Avenir-Light" font-size="18.9" fill="#FEFFFF" transform="matrix(1.00, 0.00, -0.00, -1.00, 489.2, 14.0)">F</text><text xml:space="preserve" font-family="Avenir-Light" font-size="18.9" fill="#FEFFFF" transform="matrix(1.00, 0.00, -0.00, -1.00, 502.7, 14.0)">R</text><text xml:space="preserve" font-family="Avenir-Light" font-size="18.9" fill="#FEFFFF" transform="matrix(1.00, 0.00, -0.00, -1.00, 517.0, 14.0)">O</text><text xml:space="preserve" font-family="Avenir-Light" font-size="18.9" fill="#FEFFFF" transform="matrix(1.00, 0.00, -0.00, -1.00, 535.7, 14.0)">M</text><text xml:space="preserve" font-family="Avenir-Light" font-size="18.9" fill="#FEFFFF" transform="matrix(1.00, 0.00, -0.00, -1.00, 555.6, 14.0)"> </text><text xml:space="preserve" font-family="Avenir-Light" font-size="18.9" fill="#FEFFFF" transform="matrix(1.00, 0.00, -0.00, -1.00, 563.5, 14.0)">T</text><text xml:space="preserve" font-family="Avenir-Light" font-size="18.9" fill="#FEFFFF" transform="matrix(1.00, 0.00, -0.00, -1.00, 577.4, 14.0)">H</text><text xml:space="preserve" font-family="Avenir-Light" font-size="18.9" fill="#FEFFFF" transform="matrix(1.00, 0.00, -0.00, -1.00, 594.1, 14.0)">E</text><text xml:space="preserve" font-family="Avenir-Light" font-size="18.9" fill="#FEFFFF" transform="matrix(1.00, 0.00, -0.00, -1.00, 608.3, 14.0)"> </text><text xml:space="preserve" font-family="Avenir-Light" font-size="18.9" fill="#FEFFFF" transform="matrix(1.00, 0.00, -0.00, -1.00, 616.2, 14.0)">A</text><text xml:space="preserve" font-family="Avenir-Light" font-size="18.9" fill="#FEFFFF" transform="matrix(1.00, 0.00, -0.00, -1.00, 632.2, 14.0)">L</text><text xml:space="preserve" font-family="Avenir-Light" font-size="18.9" fill="#FEFFFF" transform="matrix(1.00, 0.00, -0.00, -1.00, 644.7, 14.0)">A</text><text xml:space="preserve" font-family="Avenir-Light" font-size="18.9" fill="#FEFFFF" transform="matrix(1.00, 0.00, -0.00, -1.00, 660.6, 14.0)">S</text><text xml:space="preserve" font-family="Avenir-Light" font-size="18.9" fill="#FEFFFF" transform="matrix(1.00, 0.00, -0.00, -1.00, 674.2, 14.0)">K</text><text xml:space="preserve" font-family="Avenir-Light" font-size="18.9" fill="#FEFFFF" transform="matrix(1.00, 0.00, -0.00, -1.00, 688.7, 14.0)">A</text><text xml:space="preserve" font-family="Avenir-Light" font-size="18.9" fill="#FEFFFF" transform="matrix(1.00, 0.00, -0.00, -1.00, 704.7, 14.0)"> </text><text xml:space="preserve" font-family="Avenir-Light" font-size="18.9" fill="#FEFFFF" transform="matrix(1.00, 0.00, -0.00, -1.00, 712.7, 14.0)">H</text><text xml:space="preserve" font-family="Avenir-Light" font-size="18.9" fill="#FEFFFF" transform="matrix(1.00, 0.00, -0.00, -1.00, 729.3, 14.0)">I</text><text xml:space="preserve" font-family="Avenir-Light" font-size="18.9" fill="#FEFFFF" transform="matrix(1.00, 0.00, -0.00, -1.00, 737.3, 14.0)">G</text><text xml:space="preserve" font-family="Avenir-Light" font-size="18.9" fill="#FEFFFF" transform="matrix(1.00, 0.00, -0.00, -1.00, 755.0, 14.0)">H</text><text xml:space="preserve" font-family="Avenir-Light" font-size="18.9" fill="#FEFFFF" transform="matrix(1.00, 0.00, -0.00, -1.00, 771.7, 14.0)">W</text><text xml:space="preserve" font-family="Avenir-Light" font-size="18.9" fill="#FEFFFF" transform="matrix(1.00, 0.00, -0.00, -1.00, 792.2, 14.0)">A</text><text xml:space="preserve" font-family="Avenir-Light" font-size="18.9" fill="#FEFFFF" transform="matrix(1.00, 0.00, -0.00, -1.00, 806.8, 14.0)">Y</text></g></svg>