<?xml version="1.0" encoding="UTF-8"?><svg xmlns="http://www.w3.org/2000/svg" xmlns:xlink="http://www.w3.org/1999/xlink" clip-rule="evenodd" stroke-miterlimit="4.00" viewBox="0 0 1024 768"><desc>SVG generated by Keynote</desc><defs></defs><g transform="matrix(1.00, 0.00, -0.00, -1.00, 0.0, 768.0)"><path d="M 0.0 768.0 L 1024.0 768.0 L 1024.0 0.0 L 0.0 0.0 Z M 0.0 768.0 " fill="#000000"></path><g><clipPath id="clip-35"><path d="M 0.0 0.0 L 1024.0 0.0 L 1024.0 768.0 L 0.0 768.0 Z M 0.0 0.0 "></path></clipPath><g clip-path="url(#clip-35)"><image xlink:href="../../D10DFA24-E08D-4FA3-8DDB-DC1BD3B7730A/assets/A58F263F83A9B66615322C48E443CEA5.jpeg" width="1156.00" height="769.00" transform="matrix(1.00, 0.00, -0.00, -1.00, -66.0, 768.0)"></image></g></g><text xml:space="preserve" font-family="Avenir-Light" font-size="22.9" fill="#FEFFFF" transform="matrix(1.00, 0.00, -0.00, -1.00, 42.0, 13.0)">I</text><text xml:space="preserve" font-family="Avenir-Light" font-size="22.9" fill="#FEFFFF" transform="matrix(1.00, 0.00, -0.00, -1.00, 51.6, 13.0)">C</text><text xml:space="preserve" font-family="Avenir-Light" font-size="22.9" fill="#FEFFFF" transform="matrix(1.00, 0.00, -0.00, -1.00, 71.5, 13.0)">E</text><text xml:space="preserve" font-family="Avenir-Light" font-size="22.9" fill="#FEFFFF" transform="matrix(1.00, 0.00, -0.00, -1.00, 88.7, 13.0)">F</text><text xml:space="preserve" font-family="Avenir-Light" font-size="22.9" fill="#FEFFFF" transform="matrix(1.00, 0.00, -0.00, -1.00, 105.2, 13.0)">I</text><text xml:space="preserve" font-family="Avenir-Light" font-size="22.9" fill="#FEFFFF" transform="matrix(1.00, 0.00, -0.00, -1.00, 114.8, 13.0)">E</text><text xml:space="preserve" font-family="Avenir-Light" font-size="22.9" fill="#FEFFFF" transform="matrix(1.00, 0.00, -0.00, -1.00, 132.1, 13.0)">L</text><text xml:space="preserve" font-family="Avenir-Light" font-size="22.9" fill="#FEFFFF" transform="matrix(1.00, 0.00, -0.00, -1.00, 147.2, 13.0)">D</text><text xml:space="preserve" font-family="Avenir-Light" font-size="22.9" fill="#FEFFFF" transform="matrix(1.00, 0.00, -0.00, -1.00, 167.9, 13.0)">S</text><text xml:space="preserve" font-family="Avenir-Light" font-size="22.9" fill="#FEFFFF" transform="matrix(1.00, 0.00, -0.00, -1.00, 184.4, 13.0)"> </text><text xml:space="preserve" font-family="Avenir-Light" font-size="22.9" fill="#FEFFFF" transform="matrix(1.00, 0.00, -0.00, -1.00, 194.0, 13.0)">R</text><text xml:space="preserve" font-family="Avenir-Light" font-size="22.9" fill="#FEFFFF" transform="matrix(1.00, 0.00, -0.00, -1.00, 211.3, 13.0)">A</text><text xml:space="preserve" font-family="Avenir-Light" font-size="22.9" fill="#FEFFFF" transform="matrix(1.00, 0.00, -0.00, -1.00, 230.7, 13.0)">N</text><text xml:space="preserve" font-family="Avenir-Light" font-size="22.9" fill="#FEFFFF" transform="matrix(1.00, 0.00, -0.00, -1.00, 252.2, 13.0)">G</text><text xml:space="preserve" font-family="Avenir-Light" font-size="22.9" fill="#FEFFFF" transform="matrix(1.00, 0.00, -0.00, -1.00, 273.7, 13.0)">E</text><text xml:space="preserve" font-family="Avenir-Light" font-size="22.9" fill="#FEFFFF" transform="matrix(1.00, 0.00, -0.00, -1.00, 291.0, 13.0)">S</text><text xml:space="preserve" font-family="Avenir-Light" font-size="22.9" fill="#FEFFFF" transform="matrix(1.00, 0.00, -0.00, -1.00, 307.4, 13.0)"> </text><text xml:space="preserve" font-family="Avenir-Light" font-size="22.9" fill="#FEFFFF" transform="matrix(1.00, 0.00, -0.00, -1.00, 317.1, 13.0)">T</text><text xml:space="preserve" font-family="Avenir-Light" font-size="22.9" fill="#FEFFFF" transform="matrix(1.00, 0.00, -0.00, -1.00, 333.9, 13.0)">O</text><text xml:space="preserve" font-family="Avenir-Light" font-size="22.9" fill="#FEFFFF" transform="matrix(1.00, 0.00, -0.00, -1.00, 356.7, 13.0)">W</text><text xml:space="preserve" font-family="Avenir-Light" font-size="22.9" fill="#FEFFFF" transform="matrix(1.00, 0.00, -0.00, -1.00, 381.7, 13.0)">A</text><text xml:space="preserve" font-family="Avenir-Light" font-size="22.9" fill="#FEFFFF" transform="matrix(1.00, 0.00, -0.00, -1.00, 401.1, 13.0)">R</text><text xml:space="preserve" font-family="Avenir-Light" font-size="22.9" fill="#FEFFFF" transform="matrix(1.00, 0.00, -0.00, -1.00, 418.3, 13.0)">D</text><text xml:space="preserve" font-family="Avenir-Light" font-size="22.9" fill="#FEFFFF" transform="matrix(1.00, 0.00, -0.00, -1.00, 439.0, 13.0)">S</text><text xml:space="preserve" font-family="Avenir-Light" font-size="22.9" fill="#FEFFFF" transform="matrix(1.00, 0.00, -0.00, -1.00, 455.4, 13.0)"> </text><text xml:space="preserve" font-family="Avenir-Light" font-size="22.9" fill="#FEFFFF" transform="matrix(1.00, 0.00, -0.00, -1.00, 465.1, 13.0)">H</text><text xml:space="preserve" font-family="Avenir-Light" font-size="22.9" fill="#FEFFFF" transform="matrix(1.00, 0.00, -0.00, -1.00, 485.3, 13.0)">A</text><text xml:space="preserve" font-family="Avenir-Light" font-size="22.9" fill="#FEFFFF" transform="matrix(1.00, 0.00, -0.00, -1.00, 504.7, 13.0)">I</text><text xml:space="preserve" font-family="Avenir-Light" font-size="22.9" fill="#FEFFFF" transform="matrix(1.00, 0.00, -0.00, -1.00, 514.4, 13.0)">N</text><text xml:space="preserve" font-family="Avenir-Light" font-size="22.9" fill="#FEFFFF" transform="matrix(1.00, 0.00, -0.00, -1.00, 535.9, 13.0)">E</text><text xml:space="preserve" font-family="Avenir-Light" font-size="22.9" fill="#FEFFFF" transform="matrix(1.00, 0.00, -0.00, -1.00, 553.2, 13.0)">S</text><text xml:space="preserve" font-family="Avenir-Light" font-size="22.9" fill="#FEFFFF" transform="matrix(1.00, 0.00, -0.00, -1.00, 569.6, 13.0)"> </text><text xml:space="preserve" font-family="Avenir-Light" font-size="22.9" fill="#FEFFFF" transform="matrix(1.00, 0.00, -0.00, -1.00, 579.2, 13.0)">J</text><text xml:space="preserve" font-family="Avenir-Light" font-size="22.9" fill="#FEFFFF" transform="matrix(1.00, 0.00, -0.00, -1.00, 594.0, 13.0)">U</text><text xml:space="preserve" font-family="Avenir-Light" font-size="22.9" fill="#FEFFFF" transform="matrix(1.00, 0.00, -0.00, -1.00, 613.3, 13.0)">N</text><text xml:space="preserve" font-family="Avenir-Light" font-size="22.9" fill="#FEFFFF" transform="matrix(1.00, 0.00, -0.00, -1.00, 634.9, 13.0)">C</text><text xml:space="preserve" font-family="Avenir-Light" font-size="22.9" fill="#FEFFFF" transform="matrix(1.00, 0.00, -0.00, -1.00, 654.7, 13.0)">T</text><text xml:space="preserve" font-family="Avenir-Light" font-size="22.9" fill="#FEFFFF" transform="matrix(1.00, 0.00, -0.00, -1.00, 671.5, 13.0)">I</text><text xml:space="preserve" font-family="Avenir-Light" font-size="22.9" fill="#FEFFFF" transform="matrix(1.00, 0.00, -0.00, -1.00, 681.2, 13.0)">O</text><text xml:space="preserve" font-family="Avenir-Light" font-size="22.9" fill="#FEFFFF" transform="matrix(1.00, 0.00, -0.00, -1.00, 704.0, 13.0)">N</text><text xml:space="preserve" font-family="Avenir-Light" font-size="22.9" fill="#FEFFFF" transform="matrix(1.00, 0.00, -0.00, -1.00, 725.5, 13.0)"> </text><text xml:space="preserve" font-family="Avenir-Light" font-size="22.9" fill="#FEFFFF" transform="matrix(1.00, 0.00, -0.00, -1.00, 735.2, 13.0)">Y</text><text xml:space="preserve" font-family="Avenir-Light" font-size="22.9" fill="#FEFFFF" transform="matrix(1.00, 0.00, -0.00, -1.00, 752.0, 13.0)">T</text><text xml:space="preserve" font-family="Avenir-Light" font-size="22.9" fill="#FEFFFF" transform="matrix(1.00, 0.00, -0.00, -1.00, 766.3, 13.0)">,</text><text xml:space="preserve" font-family="Avenir-Light" font-size="22.9" fill="#FEFFFF" transform="matrix(1.00, 0.00, -0.00, -1.00, 775.9, 13.0)"> </text><text xml:space="preserve" font-family="Avenir-Light" font-size="22.9" fill="#FEFFFF" transform="matrix(1.00, 0.00, -0.00, -1.00, 785.6, 13.0)">D</text><text xml:space="preserve" font-family="Avenir-Light" font-size="22.9" fill="#FEFFFF" transform="matrix(1.00, 0.00, -0.00, -1.00, 806.3, 13.0)">A</text><text xml:space="preserve" font-family="Avenir-Light" font-size="22.9" fill="#FEFFFF" transform="matrix(1.00, 0.00, -0.00, -1.00, 824.0, 13.0)">Y</text><text xml:space="preserve" font-family="Avenir-Light" font-size="22.9" fill="#FEFFFF" transform="matrix(1.00, 0.00, -0.00, -1.00, 840.8, 13.0)"> </text><text xml:space="preserve" font-family="Avenir-Light" font-size="22.9" fill="#FEFFFF" transform="matrix(1.00, 0.00, -0.00, -1.00, 850.4, 13.0)">4</text><text xml:space="preserve" font-family="Avenir-Light" font-size="22.9" fill="#FEFFFF" transform="matrix(1.00, 0.00, -0.00, -1.00, 866.0, 13.0)"> </text><text xml:space="preserve" font-family="Avenir-Light" font-size="22.9" fill="#FEFFFF" transform="matrix(1.00, 0.00, -0.00, -1.00, 875.7, 13.0)">(</text><text xml:space="preserve" font-family="Avenir-Light" font-size="22.9" fill="#FEFFFF" transform="matrix(1.00, 0.00, -0.00, -1.00, 885.3, 13.0)">3</text><text xml:space="preserve" font-family="Avenir-Light" font-size="22.9" fill="#FEFFFF" transform="matrix(1.00, 0.00, -0.00, -1.00, 900.9, 13.0)">5</text><text xml:space="preserve" font-family="Avenir-Light" font-size="22.9" fill="#FEFFFF" transform="matrix(1.00, 0.00, -0.00, -1.00, 916.5, 13.0)">2</text><text xml:space="preserve" font-family="Avenir-Light" font-size="22.9" fill="#FEFFFF" transform="matrix(1.00, 0.00, -0.00, -1.00, 932.1, 13.0)"> </text><text xml:space="preserve" font-family="Avenir-Light" font-size="22.9" fill="#FEFFFF" transform="matrix(1.00, 0.00, -0.00, -1.00, 941.8, 13.0)">K</text><text xml:space="preserve" font-family="Avenir-Light" font-size="22.9" fill="#FEFFFF" transform="matrix(1.00, 0.00, -0.00, -1.00, 959.5, 13.0)">M</text><text xml:space="preserve" font-family="Avenir-Light" font-size="22.9" fill="#FEFFFF" transform="matrix(1.00, 0.00, -0.00, -1.00, 983.5, 13.0)">)</text></g></svg>