<?xml version="1.0" encoding="UTF-8"?><svg xmlns="http://www.w3.org/2000/svg" xmlns:xlink="http://www.w3.org/1999/xlink" clip-rule="evenodd" stroke-miterlimit="4.00" viewBox="0 0 1024 768"><desc>SVG generated by Keynote</desc><defs></defs><g transform="matrix(1.00, 0.00, -0.00, -1.00, 0.0, 768.0)"><path d="M 0.0 768.0 L 1024.0 768.0 L 1024.0 0.0 L 0.0 0.0 Z M 0.0 768.0 " fill="#000000"></path><g><clipPath id="clip-590"><path d="M -2.0 770.0 L 510.0 770.0 L 510.0 386.0 L -2.0 386.0 Z M -1.6 769.5 "></path></clipPath><g clip-path="url(#clip-590)"><image xlink:href="0397779021A7AF378EE433A149EC2CA8.jpeg" width="578.00" height="384.00" transform="matrix(1.00, 0.00, -0.00, -1.00, -34.0, 770.0)"></image></g></g><g><clipPath id="clip-591"><path d="M 512.0 0.0 L 1024.0 0.0 L 1024.0 768.0 L 512.0 768.0 Z M 512.0 0.0 "></path></clipPath><g clip-path="url(#clip-591)"><image xlink:href="0789FAC3168D691C58F196A130FCE6A1.jpeg" width="511.00" height="769.00" transform="matrix(1.00, 0.00, -0.00, -1.00, 512.0, 769.0)"></image></g></g><text xml:space="preserve" font-family="Avenir-Light" font-size="45.0" fill="#FEFFFF" transform="matrix(1.00, 0.00, -0.00, -1.00, 89.0, 701.0)">R</text><text xml:space="preserve" font-family="Avenir-Light" font-size="45.0" fill="#FEFFFF" transform="matrix(1.00, 0.00, -0.00, -1.00, 122.9, 701.0)">E</text><text xml:space="preserve" font-family="Avenir-Light" font-size="45.0" fill="#FEFFFF" transform="matrix(1.00, 0.00, -0.00, -1.00, 156.8, 701.0)">F</text><text xml:space="preserve" font-family="Avenir-Light" font-size="45.0" fill="#FEFFFF" transform="matrix(1.00, 0.00, -0.00, -1.00, 189.0, 701.0)">L</text><text xml:space="preserve" font-family="Avenir-Light" font-size="45.0" fill="#FEFFFF" transform="matrix(1.00, 0.00, -0.00, -1.00, 218.7, 701.0)">E</text><text xml:space="preserve" font-family="Avenir-Light" font-size="45.0" fill="#FEFFFF" transform="matrix(1.00, 0.00, -0.00, -1.00, 252.6, 701.0)">C</text><text xml:space="preserve" font-family="Avenir-Light" font-size="45.0" fill="#FEFFFF" transform="matrix(1.00, 0.00, -0.00, -1.00, 291.5, 701.0)">T</text><text xml:space="preserve" font-family="Avenir-Light" font-size="45.0" fill="#FEFFFF" transform="matrix(1.00, 0.00, -0.00, -1.00, 324.5, 701.0)">I</text><text xml:space="preserve" font-family="Avenir-Light" font-size="45.0" fill="#FEFFFF" transform="matrix(1.00, 0.00, -0.00, -1.00, 343.4, 701.0)">O</text><text xml:space="preserve" font-family="Avenir-Light" font-size="45.0" fill="#FEFFFF" transform="matrix(1.00, 0.00, -0.00, -1.00, 388.1, 701.0)">N</text><text xml:space="preserve" font-family="Avenir-Light" font-size="45.0" fill="#FEFFFF" transform="matrix(1.00, 0.00, -0.00, -1.00, 430.3, 701.0)">S</text><text xml:space="preserve" font-family="Avenir-Light" font-size="30.0" fill="#FEFFFF" transform="matrix(1.00, 0.00, -0.00, -1.00, 56.0, 334.0)">V</text><text xml:space="preserve" font-family="Avenir-Light" font-size="30.0" fill="#FEFFFF" transform="matrix(1.00, 0.00, -0.00, -1.00, 72.1, 334.0)">a</text><text xml:space="preserve" font-family="Avenir-Light" font-size="30.0" fill="#FEFFFF" transform="matrix(1.00, 0.00, -0.00, -1.00, 87.7, 334.0)">n</text><text xml:space="preserve" font-family="Avenir-Light" font-size="30.0" fill="#FEFFFF" transform="matrix(1.00, 0.00, -0.00, -1.00, 104.4, 334.0)">c</text><text xml:space="preserve" font-family="Avenir-Light" font-size="30.0" fill="#FEFFFF" transform="matrix(1.00, 0.00, -0.00, -1.00, 118.8, 334.0)">o</text><text xml:space="preserve" font-family="Avenir-Light" font-size="30.0" fill="#FEFFFF" transform="matrix(1.00, 0.00, -0.00, -1.00, 136.6, 334.0)">u</text><text xml:space="preserve" font-family="Avenir-Light" font-size="30.0" fill="#FEFFFF" transform="matrix(1.00, 0.00, -0.00, -1.00, 153.3, 334.0)">v</text><text xml:space="preserve" font-family="Avenir-Light" font-size="30.0" fill="#FEFFFF" transform="matrix(1.00, 0.00, -0.00, -1.00, 167.2, 334.0)">e</text><text xml:space="preserve" font-family="Avenir-Light" font-size="30.0" fill="#FEFFFF" transform="matrix(1.00, 0.00, -0.00, -1.00, 183.9, 334.0)">r</text><text xml:space="preserve" font-family="Avenir-Light" font-size="30.0" fill="#FEFFFF" transform="matrix(1.00, 0.00, -0.00, -1.00, 193.9, 334.0)"> </text><text xml:space="preserve" font-family="Avenir-Light" font-size="30.0" fill="#FEFFFF" transform="matrix(1.00, 0.00, -0.00, -1.00, 201.7, 334.0)">t</text><text xml:space="preserve" font-family="Avenir-Light" font-size="30.0" fill="#FEFFFF" transform="matrix(1.00, 0.00, -0.00, -1.00, 211.7, 334.0)">o</text><text xml:space="preserve" font-family="Avenir-Light" font-size="30.0" fill="#FEFFFF" transform="matrix(1.00, 0.00, -0.00, -1.00, 229.5, 334.0)"> </text><text xml:space="preserve" font-family="Avenir-Light" font-size="30.0" fill="#FEFFFF" transform="matrix(1.00, 0.00, -0.00, -1.00, 237.3, 334.0)">t</text><text xml:space="preserve" font-family="Avenir-Light" font-size="30.0" fill="#FEFFFF" transform="matrix(1.00, 0.00, -0.00, -1.00, 247.3, 334.0)">h</text><text xml:space="preserve" font-family="Avenir-Light" font-size="30.0" fill="#FEFFFF" transform="matrix(1.00, 0.00, -0.00, -1.00, 264.0, 334.0)">e</text><text xml:space="preserve" font-family="Avenir-Light" font-size="30.0" fill="#FEFFFF" transform="matrix(1.00, 0.00, -0.00, -1.00, 280.7, 334.0)"> </text><text xml:space="preserve" font-family="Avenir-Light" font-size="30.0" fill="#FEFFFF" transform="matrix(1.00, 0.00, -0.00, -1.00, 288.5, 334.0)">Y</text><text xml:space="preserve" font-family="Avenir-Light" font-size="30.0" fill="#FEFFFF" transform="matrix(1.00, 0.00, -0.00, -1.00, 303.5, 334.0)">u</text><text xml:space="preserve" font-family="Avenir-Light" font-size="30.0" fill="#FEFFFF" transform="matrix(1.00, 0.00, -0.00, -1.00, 320.2, 334.0)">k</text><text xml:space="preserve" font-family="Avenir-Light" font-size="30.0" fill="#FEFFFF" transform="matrix(1.00, 0.00, -0.00, -1.00, 334.6, 334.0)">o</text><text xml:space="preserve" font-family="Avenir-Light" font-size="30.0" fill="#FEFFFF" transform="matrix(1.00, 0.00, -0.00, -1.00, 352.4, 334.0)">n</text><text xml:space="preserve" font-family="Avenir-Light" font-size="30.0" fill="#FEFFFF" transform="matrix(1.00, 0.00, -0.00, -1.00, 369.1, 334.0)"> </text><text xml:space="preserve" font-family="Avenir-Light" font-size="30.0" fill="#FEFFFF" transform="matrix(1.00, 0.00, -0.00, -1.00, 56.0, 261.0)">9</text><text xml:space="preserve" font-family="Avenir-Light" font-size="30.0" fill="#FEFFFF" transform="matrix(1.00, 0.00, -0.00, -1.00, 71.6, 261.0)"> </text><text xml:space="preserve" font-family="Avenir-Light" font-size="30.0" fill="#FEFFFF" transform="matrix(1.00, 0.00, -0.00, -1.00, 79.4, 261.0)">d</text><text xml:space="preserve" font-family="Avenir-Light" font-size="30.0" fill="#FEFFFF" transform="matrix(1.00, 0.00, -0.00, -1.00, 97.7, 261.0)">a</text><text xml:space="preserve" font-family="Avenir-Light" font-size="30.0" fill="#FEFFFF" transform="matrix(1.00, 0.00, -0.00, -1.00, 113.3, 261.0)">y</text><text xml:space="preserve" font-family="Avenir-Light" font-size="30.0" fill="#FEFFFF" transform="matrix(1.00, 0.00, -0.00, -1.00, 127.2, 261.0)">s</text><text xml:space="preserve" font-family="Avenir-Light" font-size="30.0" fill="#FEFFFF" transform="matrix(1.00, 0.00, -0.00, -1.00, 140.0, 261.0)"> </text><text xml:space="preserve" font-family="Avenir-Light" font-size="30.0" fill="#FEFFFF" transform="matrix(1.00, 0.00, -0.00, -1.00, 56.0, 188.0)">5</text><text xml:space="preserve" font-family="Avenir-Light" font-size="30.0" fill="#FEFFFF" transform="matrix(1.00, 0.00, -0.00, -1.00, 71.6, 188.0)">,</text><text xml:space="preserve" font-family="Avenir-Light" font-size="30.0" fill="#FEFFFF" transform="matrix(1.00, 0.00, -0.00, -1.00, 79.4, 188.0)">6</text><text xml:space="preserve" font-family="Avenir-Light" font-size="30.0" fill="#FEFFFF" transform="matrix(1.00, 0.00, -0.00, -1.00, 95.0, 188.0)">7</text><text xml:space="preserve" font-family="Avenir-Light" font-size="30.0" fill="#FEFFFF" transform="matrix(1.00, 0.00, -0.00, -1.00, 110.6, 188.0)">7</text><text xml:space="preserve" font-family="Avenir-Light" font-size="30.0" fill="#FEFFFF" transform="matrix(1.00, 0.00, -0.00, -1.00, 126.2, 188.0)"> </text><text xml:space="preserve" font-family="Avenir-Light" font-size="30.0" fill="#FEFFFF" transform="matrix(1.00, 0.00, -0.00, -1.00, 134.0, 188.0)">k</text><text xml:space="preserve" font-family="Avenir-Light" font-size="30.0" fill="#FEFFFF" transform="matrix(1.00, 0.00, -0.00, -1.00, 148.4, 188.0)">m</text><text xml:space="preserve" font-family="Avenir-Light" font-size="30.0" fill="#FEFFFF" transform="matrix(1.00, 0.00, -0.00, -1.00, 174.0, 188.0)"> </text><text xml:space="preserve" font-family="Avenir-Light" font-size="30.0" fill="#FEFFFF" transform="matrix(1.00, 0.00, -0.00, -1.00, 56.0, 115.0)">j</text><text xml:space="preserve" font-family="Avenir-Light" font-size="30.0" fill="#FEFFFF" transform="matrix(1.00, 0.00, -0.00, -1.00, 63.2, 115.0)">o</text><text xml:space="preserve" font-family="Avenir-Light" font-size="30.0" fill="#FEFFFF" transform="matrix(1.00, 0.00, -0.00, -1.00, 81.0, 115.0)">u</text><text xml:space="preserve" font-family="Avenir-Light" font-size="30.0" fill="#FEFFFF" transform="matrix(1.00, 0.00, -0.00, -1.00, 97.7, 115.0)">r</text><text xml:space="preserve" font-family="Avenir-Light" font-size="30.0" fill="#FEFFFF" transform="matrix(1.00, 0.00, -0.00, -1.00, 107.7, 115.0)">n</text><text xml:space="preserve" font-family="Avenir-Light" font-size="30.0" fill="#FEFFFF" transform="matrix(1.00, 0.00, -0.00, -1.00, 124.4, 115.0)">e</text><text xml:space="preserve" font-family="Avenir-Light" font-size="30.0" fill="#FEFFFF" transform="matrix(1.00, 0.00, -0.00, -1.00, 141.1, 115.0)">y</text><text xml:space="preserve" font-family="Avenir-Light" font-size="30.0" fill="#FEFFFF" transform="matrix(1.00, 0.00, -0.00, -1.00, 154.9, 115.0)"> </text><text xml:space="preserve" font-family="Avenir-Light" font-size="30.0" fill="#FEFFFF" transform="matrix(1.00, 0.00, -0.00, -1.00, 162.7, 115.0)">o</text><text xml:space="preserve" font-family="Avenir-Light" font-size="30.0" fill="#FEFFFF" transform="matrix(1.00, 0.00, -0.00, -1.00, 180.6, 115.0)">f</text><text xml:space="preserve" font-family="Avenir-Light" font-size="30.0" fill="#FEFFFF" transform="matrix(1.00, 0.00, -0.00, -1.00, 189.4, 115.0)"> </text><text xml:space="preserve" font-family="Avenir-Light" font-size="30.0" fill="#FEFFFF" transform="matrix(1.00, 0.00, -0.00, -1.00, 197.2, 115.0)">s</text><text xml:space="preserve" font-family="Avenir-Light" font-size="30.0" fill="#FEFFFF" transform="matrix(1.00, 0.00, -0.00, -1.00, 210.0, 115.0)">e</text><text xml:space="preserve" font-family="Avenir-Light" font-size="30.0" fill="#FEFFFF" transform="matrix(1.00, 0.00, -0.00, -1.00, 226.7, 115.0)">l</text><text xml:space="preserve" font-family="Avenir-Light" font-size="30.0" fill="#FEFFFF" transform="matrix(1.00, 0.00, -0.00, -1.00, 233.9, 115.0)">f</text><text xml:space="preserve" font-family="Avenir-Light" font-size="30.0" fill="#FEFFFF" transform="matrix(1.00, 0.00, -0.00, -1.00, 242.8, 115.0)">-</text><text xml:space="preserve" font-family="Avenir-Light" font-size="30.0" fill="#FEFFFF" transform="matrix(1.00, 0.00, -0.00, -1.00, 252.8, 115.0)">d</text><text xml:space="preserve" font-family="Avenir-Light" font-size="30.0" fill="#FEFFFF" transform="matrix(1.00, 0.00, -0.00, -1.00, 271.2, 115.0)">i</text><text xml:space="preserve" font-family="Avenir-Light" font-size="30.0" fill="#FEFFFF" transform="matrix(1.00, 0.00, -0.00, -1.00, 278.4, 115.0)">s</text><text xml:space="preserve" font-family="Avenir-Light" font-size="30.0" fill="#FEFFFF" transform="matrix(1.00, 0.00, -0.00, -1.00, 291.1, 115.0)">c</text><text xml:space="preserve" font-family="Avenir-Light" font-size="30.0" fill="#FEFFFF" transform="matrix(1.00, 0.00, -0.00, -1.00, 305.6, 115.0)">o</text><text xml:space="preserve" font-family="Avenir-Light" font-size="30.0" fill="#FEFFFF" transform="matrix(1.00, 0.00, -0.00, -1.00, 323.4, 115.0)">v</text><text xml:space="preserve" font-family="Avenir-Light" font-size="30.0" fill="#FEFFFF" transform="matrix(1.00, 0.00, -0.00, -1.00, 337.3, 115.0)">e</text><text xml:space="preserve" font-family="Avenir-Light" font-size="30.0" fill="#FEFFFF" transform="matrix(1.00, 0.00, -0.00, -1.00, 354.0, 115.0)">r</text><text xml:space="preserve" font-family="Avenir-Light" font-size="30.0" fill="#FEFFFF" transform="matrix(1.00, 0.00, -0.00, -1.00, 363.9, 115.0)">y</text><text xml:space="preserve" font-family="Avenir-Light" font-size="30.0" fill="#FEFFFF" transform="matrix(1.00, 0.00, -0.00, -1.00, 377.8, 115.0)"> </text><text xml:space="preserve" font-family="Avenir-Light" font-size="30.0" fill="#FEFFFF" transform="matrix(1.00, 0.00, -0.00, -1.00, 56.0, 42.0)">b</text><text xml:space="preserve" font-family="Avenir-Light" font-size="30.0" fill="#FEFFFF" transform="matrix(1.00, 0.00, -0.00, -1.00, 74.3, 42.0)">r</text><text xml:space="preserve" font-family="Avenir-Light" font-size="30.0" fill="#FEFFFF" transform="matrix(1.00, 0.00, -0.00, -1.00, 83.8, 42.0)">e</text><text xml:space="preserve" font-family="Avenir-Light" font-size="30.0" fill="#FEFFFF" transform="matrix(1.00, 0.00, -0.00, -1.00, 100.5, 42.0)">a</text><text xml:space="preserve" font-family="Avenir-Light" font-size="30.0" fill="#FEFFFF" transform="matrix(1.00, 0.00, -0.00, -1.00, 116.0, 42.0)">t</text><text xml:space="preserve" font-family="Avenir-Light" font-size="30.0" fill="#FEFFFF" transform="matrix(1.00, 0.00, -0.00, -1.00, 126.0, 42.0)">h</text><text xml:space="preserve" font-family="Avenir-Light" font-size="30.0" fill="#FEFFFF" transform="matrix(1.00, 0.00, -0.00, -1.00, 142.7, 42.0)">t</text><text xml:space="preserve" font-family="Avenir-Light" font-size="30.0" fill="#FEFFFF" transform="matrix(1.00, 0.00, -0.00, -1.00, 152.7, 42.0)">a</text><text xml:space="preserve" font-family="Avenir-Light" font-size="30.0" fill="#FEFFFF" transform="matrix(1.00, 0.00, -0.00, -1.00, 168.3, 42.0)">k</text><text xml:space="preserve" font-family="Avenir-Light" font-size="30.0" fill="#FEFFFF" transform="matrix(1.00, 0.00, -0.00, -1.00, 182.7, 42.0)">i</text><text xml:space="preserve" font-family="Avenir-Light" font-size="30.0" fill="#FEFFFF" transform="matrix(1.00, 0.00, -0.00, -1.00, 189.9, 42.0)">n</text><text xml:space="preserve" font-family="Avenir-Light" font-size="30.0" fill="#FEFFFF" transform="matrix(1.00, 0.00, -0.00, -1.00, 206.6, 42.0)">g</text><text xml:space="preserve" font-family="Avenir-Light" font-size="30.0" fill="#FEFFFF" transform="matrix(1.00, 0.00, -0.00, -1.00, 224.9, 42.0)">,</text><text xml:space="preserve" font-family="Avenir-Light" font-size="30.0" fill="#FEFFFF" transform="matrix(1.00, 0.00, -0.00, -1.00, 232.7, 42.0)"> </text><text xml:space="preserve" font-family="Avenir-Light" font-size="30.0" fill="#FEFFFF" transform="matrix(1.00, 0.00, -0.00, -1.00, 240.5, 42.0)">u</text><text xml:space="preserve" font-family="Avenir-Light" font-size="30.0" fill="#FEFFFF" transform="matrix(1.00, 0.00, -0.00, -1.00, 257.2, 42.0)">p</text><text xml:space="preserve" font-family="Avenir-Light" font-size="30.0" fill="#FEFFFF" transform="matrix(1.00, 0.00, -0.00, -1.00, 275.5, 42.0)">l</text><text xml:space="preserve" font-family="Avenir-Light" font-size="30.0" fill="#FEFFFF" transform="matrix(1.00, 0.00, -0.00, -1.00, 282.8, 42.0)">i</text><text xml:space="preserve" font-family="Avenir-Light" font-size="30.0" fill="#FEFFFF" transform="matrix(1.00, 0.00, -0.00, -1.00, 290.0, 42.0)">f</text><text xml:space="preserve" font-family="Avenir-Light" font-size="30.0" fill="#FEFFFF" transform="matrix(1.00, 0.00, -0.00, -1.00, 298.9, 42.0)">t</text><text xml:space="preserve" font-family="Avenir-Light" font-size="30.0" fill="#FEFFFF" transform="matrix(1.00, 0.00, -0.00, -1.00, 308.9, 42.0)">i</text><text xml:space="preserve" font-family="Avenir-Light" font-size="30.0" fill="#FEFFFF" transform="matrix(1.00, 0.00, -0.00, -1.00, 316.1, 42.0)">n</text><text xml:space="preserve" font-family="Avenir-Light" font-size="30.0" fill="#FEFFFF" transform="matrix(1.00, 0.00, -0.00, -1.00, 332.8, 42.0)">g</text><text xml:space="preserve" font-family="Avenir-Light" font-size="30.0" fill="#FEFFFF" transform="matrix(1.00, 0.00, -0.00, -1.00, 351.1, 42.0)">,</text><text xml:space="preserve" font-family="Avenir-Light" font-size="30.0" fill="#FEFFFF" transform="matrix(1.00, 0.00, -0.00, -1.00, 358.9, 42.0)"> </text><text xml:space="preserve" font-family="Avenir-Light" font-size="30.0" fill="#FEFFFF" transform="matrix(1.00, 0.00, -0.00, -1.00, 366.7, 42.0)">f</text><text xml:space="preserve" font-family="Avenir-Light" font-size="30.0" fill="#FEFFFF" transform="matrix(1.00, 0.00, -0.00, -1.00, 375.6, 42.0)">r</text><text xml:space="preserve" font-family="Avenir-Light" font-size="30.0" fill="#FEFFFF" transform="matrix(1.00, 0.00, -0.00, -1.00, 385.0, 42.0)">e</text><text xml:space="preserve" font-family="Avenir-Light" font-size="30.0" fill="#FEFFFF" transform="matrix(1.00, 0.00, -0.00, -1.00, 401.7, 42.0)">e</text><text xml:space="preserve" font-family="Avenir-Light" font-size="30.0" fill="#FEFFFF" transform="matrix(1.00, 0.00, -0.00, -1.00, 418.4, 42.0)">i</text><text xml:space="preserve" font-family="Avenir-Light" font-size="30.0" fill="#FEFFFF" transform="matrix(1.00, 0.00, -0.00, -1.00, 425.6, 42.0)">n</text><text xml:space="preserve" font-family="Avenir-Light" font-size="30.0" fill="#FEFFFF" transform="matrix(1.00, 0.00, -0.00, -1.00, 442.2, 42.0)">g</text><text xml:space="preserve" font-family="Avenir-Light" font-size="30.0" fill="#FEFFFF" transform="matrix(1.00, 0.00, -0.00, -1.00, 460.6, 42.0)"> </text><text xml:space="preserve" font-family="Avenir-Light" font-size="22.9" fill="#FEFFFF" transform="matrix(1.00, 0.00, -0.00, -1.00, 638.0, 73.0)">N</text><text xml:space="preserve" font-family="Avenir-Light" font-size="22.9" fill="#FEFFFF" transform="matrix(1.00, 0.00, -0.00, -1.00, 659.5, 73.0)">O</text><text xml:space="preserve" font-family="Avenir-Light" font-size="22.9" fill="#FEFFFF" transform="matrix(1.00, 0.00, -0.00, -1.00, 682.3, 73.0)">R</text><text xml:space="preserve" font-family="Avenir-Light" font-size="22.9" fill="#FEFFFF" transform="matrix(1.00, 0.00, -0.00, -1.00, 699.8, 73.0)">T</text><text xml:space="preserve" font-family="Avenir-Light" font-size="22.9" fill="#FEFFFF" transform="matrix(1.00, 0.00, -0.00, -1.00, 716.6, 73.0)">H</text><text xml:space="preserve" font-family="Avenir-Light" font-size="22.9" fill="#FEFFFF" transform="matrix(1.00, 0.00, -0.00, -1.00, 736.8, 73.0)">E</text><text xml:space="preserve" font-family="Avenir-Light" font-size="22.9" fill="#FEFFFF" transform="matrix(1.00, 0.00, -0.00, -1.00, 754.1, 73.0)">R</text><text xml:space="preserve" font-family="Avenir-Light" font-size="22.9" fill="#FEFFFF" transform="matrix(1.00, 0.00, -0.00, -1.00, 771.4, 73.0)">N</text><text xml:space="preserve" font-family="Avenir-Light" font-size="22.9" fill="#FEFFFF" transform="matrix(1.00, 0.00, -0.00, -1.00, 792.9, 73.0)"> </text><text xml:space="preserve" font-family="Avenir-Light" font-size="22.9" fill="#FEFFFF" transform="matrix(1.00, 0.00, -0.00, -1.00, 802.6, 73.0)">L</text><text xml:space="preserve" font-family="Avenir-Light" font-size="22.9" fill="#FEFFFF" transform="matrix(1.00, 0.00, -0.00, -1.00, 817.7, 73.0)">I</text><text xml:space="preserve" font-family="Avenir-Light" font-size="22.9" fill="#FEFFFF" transform="matrix(1.00, 0.00, -0.00, -1.00, 827.4, 73.0)">G</text><text xml:space="preserve" font-family="Avenir-Light" font-size="22.9" fill="#FEFFFF" transform="matrix(1.00, 0.00, -0.00, -1.00, 848.9, 73.0)">H</text><text xml:space="preserve" font-family="Avenir-Light" font-size="22.9" fill="#FEFFFF" transform="matrix(1.00, 0.00, -0.00, -1.00, 869.1, 73.0)">T</text><text xml:space="preserve" font-family="Avenir-Light" font-size="22.9" fill="#FEFFFF" transform="matrix(1.00, 0.00, -0.00, -1.00, 886.0, 73.0)">S</text><text xml:space="preserve" font-family="Avenir-Light" font-size="22.9" fill="#FEFFFF" transform="matrix(1.00, 0.00, -0.00, -1.00, 902.4, 73.0)"> </text><text xml:space="preserve" font-family="Avenir-Light" font-size="22.9" fill="#FEFFFF" transform="matrix(1.00, 0.00, -0.00, -1.00, 587.0, 42.0)">T</text><text xml:space="preserve" font-family="Avenir-Light" font-size="22.9" fill="#FEFFFF" transform="matrix(1.00, 0.00, -0.00, -1.00, 602.3, 42.0)">A</text><text xml:space="preserve" font-family="Avenir-Light" font-size="22.9" fill="#FEFFFF" transform="matrix(1.00, 0.00, -0.00, -1.00, 621.7, 42.0)">G</text><text xml:space="preserve" font-family="Avenir-Light" font-size="22.9" fill="#FEFFFF" transform="matrix(1.00, 0.00, -0.00, -1.00, 643.2, 42.0)">I</text><text xml:space="preserve" font-family="Avenir-Light" font-size="22.9" fill="#FEFFFF" transform="matrix(1.00, 0.00, -0.00, -1.00, 652.8, 42.0)">S</text><text xml:space="preserve" font-family="Avenir-Light" font-size="22.9" fill="#FEFFFF" transform="matrix(1.00, 0.00, -0.00, -1.00, 669.3, 42.0)">H</text><text xml:space="preserve" font-family="Avenir-Light" font-size="22.9" fill="#FEFFFF" transform="matrix(1.00, 0.00, -0.00, -1.00, 689.5, 42.0)"> </text><text xml:space="preserve" font-family="Avenir-Light" font-size="22.9" fill="#FEFFFF" transform="matrix(1.00, 0.00, -0.00, -1.00, 699.2, 42.0)">L</text><text xml:space="preserve" font-family="Avenir-Light" font-size="22.9" fill="#FEFFFF" transform="matrix(1.00, 0.00, -0.00, -1.00, 714.3, 42.0)">A</text><text xml:space="preserve" font-family="Avenir-Light" font-size="22.9" fill="#FEFFFF" transform="matrix(1.00, 0.00, -0.00, -1.00, 733.7, 42.0)">K</text><text xml:space="preserve" font-family="Avenir-Light" font-size="22.9" fill="#FEFFFF" transform="matrix(1.00, 0.00, -0.00, -1.00, 751.4, 42.0)">E</text><text xml:space="preserve" font-family="Avenir-Light" font-size="22.9" fill="#FEFFFF" transform="matrix(1.00, 0.00, -0.00, -1.00, 768.7, 42.0)">,</text><text xml:space="preserve" font-family="Avenir-Light" font-size="22.9" fill="#FEFFFF" transform="matrix(1.00, 0.00, -0.00, -1.00, 778.3, 42.0)"> </text><text xml:space="preserve" font-family="Avenir-Light" font-size="22.9" fill="#FEFFFF" transform="matrix(1.00, 0.00, -0.00, -1.00, 788.0, 42.0)">C</text><text xml:space="preserve" font-family="Avenir-Light" font-size="22.9" fill="#FEFFFF" transform="matrix(1.00, 0.00, -0.00, -1.00, 807.8, 42.0)">O</text><text xml:space="preserve" font-family="Avenir-Light" font-size="22.9" fill="#FEFFFF" transform="matrix(1.00, 0.00, -0.00, -1.00, 830.6, 42.0)">N</text><text xml:space="preserve" font-family="Avenir-Light" font-size="22.9" fill="#FEFFFF" transform="matrix(1.00, 0.00, -0.00, -1.00, 852.1, 42.0)">R</text><text xml:space="preserve" font-family="Avenir-Light" font-size="22.9" fill="#FEFFFF" transform="matrix(1.00, 0.00, -0.00, -1.00, 869.4, 42.0)">A</text><text xml:space="preserve" font-family="Avenir-Light" font-size="22.9" fill="#FEFFFF" transform="matrix(1.00, 0.00, -0.00, -1.00, 888.8, 42.0)">D</text><text xml:space="preserve" font-family="Avenir-Light" font-size="22.9" fill="#FEFFFF" transform="matrix(1.00, 0.00, -0.00, -1.00, 909.5, 42.0)"> </text><text xml:space="preserve" font-family="Avenir-Light" font-size="22.9" fill="#FEFFFF" transform="matrix(1.00, 0.00, -0.00, -1.00, 919.1, 42.0)">Y</text><text xml:space="preserve" font-family="Avenir-Light" font-size="22.9" fill="#FEFFFF" transform="matrix(1.00, 0.00, -0.00, -1.00, 936.0, 42.0)">T</text></g></svg>