<?xml version="1.0" encoding="UTF-8"?><svg xmlns="http://www.w3.org/2000/svg" xmlns:xlink="http://www.w3.org/1999/xlink" clip-rule="evenodd" stroke-miterlimit="4.00" viewBox="0 0 1024 768"><desc>SVG generated by Keynote</desc><defs></defs><g transform="matrix(1.00, 0.00, -0.00, -1.00, 0.0, 768.0)"><path d="M 0.0 768.0 L 1024.0 768.0 L 1024.0 0.0 L 0.0 0.0 Z M 0.0 768.0 " fill="#000000"></path><g><clipPath id="clip-262"><path d="M -13.0 769.0 L 1037.0 769.0 L 1037.0 49.0 L -13.0 49.0 Z M -12.6 769.5 "></path></clipPath><g clip-path="url(#clip-262)"><image xlink:href="070E771F6A62CD448E2AA58918E73772.jpeg" width="1095.00" height="728.00" transform="matrix(1.00, 0.00, -0.00, -1.00, -71.0, 769.0)"></image></g></g><text xml:space="preserve" font-family="Avenir-Light" font-size="20.2" fill="#FEFFFF" transform="matrix(1.00, 0.00, -0.00, -1.00, 15.0, 19.0)">L</text><text xml:space="preserve" font-family="Avenir-Light" font-size="20.2" fill="#FEFFFF" transform="matrix(1.00, 0.00, -0.00, -1.00, 28.4, 19.0)">A</text><text xml:space="preserve" font-family="Avenir-Light" font-size="20.2" fill="#FEFFFF" transform="matrix(1.00, 0.00, -0.00, -1.00, 45.5, 19.0)">S</text><text xml:space="preserve" font-family="Avenir-Light" font-size="20.2" fill="#FEFFFF" transform="matrix(1.00, 0.00, -0.00, -1.00, 60.0, 19.0)">T</text><text xml:space="preserve" font-family="Avenir-Light" font-size="20.2" fill="#FEFFFF" transform="matrix(1.00, 0.00, -0.00, -1.00, 74.8, 19.0)"> </text><text xml:space="preserve" font-family="Avenir-Light" font-size="20.2" fill="#FEFFFF" transform="matrix(1.00, 0.00, -0.00, -1.00, 83.3, 19.0)">L</text><text xml:space="preserve" font-family="Avenir-Light" font-size="20.2" fill="#FEFFFF" transform="matrix(1.00, 0.00, -0.00, -1.00, 96.7, 19.0)">E</text><text xml:space="preserve" font-family="Avenir-Light" font-size="20.2" fill="#FEFFFF" transform="matrix(1.00, 0.00, -0.00, -1.00, 112.0, 19.0)">G</text><text xml:space="preserve" font-family="Avenir-Light" font-size="20.2" fill="#FEFFFF" transform="matrix(1.00, 0.00, -0.00, -1.00, 131.0, 19.0)"> </text><text xml:space="preserve" font-family="Avenir-Light" font-size="20.2" fill="#FEFFFF" transform="matrix(1.00, 0.00, -0.00, -1.00, 139.5, 19.0)">O</text><text xml:space="preserve" font-family="Avenir-Light" font-size="20.2" fill="#FEFFFF" transform="matrix(1.00, 0.00, -0.00, -1.00, 159.6, 19.0)">F</text><text xml:space="preserve" font-family="Avenir-Light" font-size="20.2" fill="#FEFFFF" transform="matrix(1.00, 0.00, -0.00, -1.00, 174.1, 19.0)"> </text><text xml:space="preserve" font-family="Avenir-Light" font-size="20.2" fill="#FEFFFF" transform="matrix(1.00, 0.00, -0.00, -1.00, 182.6, 19.0)">A</text><text xml:space="preserve" font-family="Avenir-Light" font-size="20.2" fill="#FEFFFF" transform="matrix(1.00, 0.00, -0.00, -1.00, 199.7, 19.0)">N</text><text xml:space="preserve" font-family="Avenir-Light" font-size="20.2" fill="#FEFFFF" transform="matrix(1.00, 0.00, -0.00, -1.00, 218.7, 19.0)"> </text><text xml:space="preserve" font-family="Avenir-Light" font-size="20.2" fill="#FEFFFF" transform="matrix(1.00, 0.00, -0.00, -1.00, 227.2, 19.0)">I</text><text xml:space="preserve" font-family="Avenir-Light" font-size="20.2" fill="#FEFFFF" transform="matrix(1.00, 0.00, -0.00, -1.00, 235.7, 19.0)">N</text><text xml:space="preserve" font-family="Avenir-Light" font-size="20.2" fill="#FEFFFF" transform="matrix(1.00, 0.00, -0.00, -1.00, 254.7, 19.0)">C</text><text xml:space="preserve" font-family="Avenir-Light" font-size="20.2" fill="#FEFFFF" transform="matrix(1.00, 0.00, -0.00, -1.00, 272.2, 19.0)">R</text><text xml:space="preserve" font-family="Avenir-Light" font-size="20.2" fill="#FEFFFF" transform="matrix(1.00, 0.00, -0.00, -1.00, 287.4, 19.0)">E</text><text xml:space="preserve" font-family="Avenir-Light" font-size="20.2" fill="#FEFFFF" transform="matrix(1.00, 0.00, -0.00, -1.00, 302.7, 19.0)">D</text><text xml:space="preserve" font-family="Avenir-Light" font-size="20.2" fill="#FEFFFF" transform="matrix(1.00, 0.00, -0.00, -1.00, 320.9, 19.0)">I</text><text xml:space="preserve" font-family="Avenir-Light" font-size="20.2" fill="#FEFFFF" transform="matrix(1.00, 0.00, -0.00, -1.00, 329.4, 19.0)">B</text><text xml:space="preserve" font-family="Avenir-Light" font-size="20.2" fill="#FEFFFF" transform="matrix(1.00, 0.00, -0.00, -1.00, 345.4, 19.0)">L</text><text xml:space="preserve" font-family="Avenir-Light" font-size="20.2" fill="#FEFFFF" transform="matrix(1.00, 0.00, -0.00, -1.00, 358.8, 19.0)">E</text><text xml:space="preserve" font-family="Avenir-Light" font-size="20.2" fill="#FEFFFF" transform="matrix(1.00, 0.00, -0.00, -1.00, 374.1, 19.0)"> </text><text xml:space="preserve" font-family="Avenir-Light" font-size="20.2" fill="#FEFFFF" transform="matrix(1.00, 0.00, -0.00, -1.00, 382.6, 19.0)">J</text><text xml:space="preserve" font-family="Avenir-Light" font-size="20.2" fill="#FEFFFF" transform="matrix(1.00, 0.00, -0.00, -1.00, 395.6, 19.0)">O</text><text xml:space="preserve" font-family="Avenir-Light" font-size="20.2" fill="#FEFFFF" transform="matrix(1.00, 0.00, -0.00, -1.00, 415.7, 19.0)">U</text><text xml:space="preserve" font-family="Avenir-Light" font-size="20.2" fill="#FEFFFF" transform="matrix(1.00, 0.00, -0.00, -1.00, 432.8, 19.0)">R</text><text xml:space="preserve" font-family="Avenir-Light" font-size="20.2" fill="#FEFFFF" transform="matrix(1.00, 0.00, -0.00, -1.00, 448.0, 19.0)">N</text><text xml:space="preserve" font-family="Avenir-Light" font-size="20.2" fill="#FEFFFF" transform="matrix(1.00, 0.00, -0.00, -1.00, 467.0, 19.0)">E</text><text xml:space="preserve" font-family="Avenir-Light" font-size="20.2" fill="#FEFFFF" transform="matrix(1.00, 0.00, -0.00, -1.00, 482.3, 19.0)">Y</text><text xml:space="preserve" font-family="Avenir-Light" font-size="20.2" fill="#FEFFFF" transform="matrix(1.00, 0.00, -0.00, -1.00, 494.6, 19.0)">,</text><text xml:space="preserve" font-family="Avenir-Light" font-size="20.2" fill="#FEFFFF" transform="matrix(1.00, 0.00, -0.00, -1.00, 503.1, 19.0)"> </text><text xml:space="preserve" font-family="Avenir-Light" font-size="20.2" fill="#FEFFFF" transform="matrix(1.00, 0.00, -0.00, -1.00, 511.7, 19.0)">B</text><text xml:space="preserve" font-family="Avenir-Light" font-size="20.2" fill="#FEFFFF" transform="matrix(1.00, 0.00, -0.00, -1.00, 527.6, 19.0)">L</text><text xml:space="preserve" font-family="Avenir-Light" font-size="20.2" fill="#FEFFFF" transform="matrix(1.00, 0.00, -0.00, -1.00, 541.0, 19.0)">U</text><text xml:space="preserve" font-family="Avenir-Light" font-size="20.2" fill="#FEFFFF" transform="matrix(1.00, 0.00, -0.00, -1.00, 558.1, 19.0)">E</text><text xml:space="preserve" font-family="Avenir-Light" font-size="20.2" fill="#FEFFFF" transform="matrix(1.00, 0.00, -0.00, -1.00, 573.4, 19.0)"> </text><text xml:space="preserve" font-family="Avenir-Light" font-size="20.2" fill="#FEFFFF" transform="matrix(1.00, 0.00, -0.00, -1.00, 581.9, 19.0)">S</text><text xml:space="preserve" font-family="Avenir-Light" font-size="20.2" fill="#FEFFFF" transform="matrix(1.00, 0.00, -0.00, -1.00, 596.4, 19.0)">K</text><text xml:space="preserve" font-family="Avenir-Light" font-size="20.2" fill="#FEFFFF" transform="matrix(1.00, 0.00, -0.00, -1.00, 612.0, 19.0)">Y</text><text xml:space="preserve" font-family="Avenir-Light" font-size="20.2" fill="#FEFFFF" transform="matrix(1.00, 0.00, -0.00, -1.00, 626.8, 19.0)"> </text><text xml:space="preserve" font-family="Avenir-Light" font-size="20.2" fill="#FEFFFF" transform="matrix(1.00, 0.00, -0.00, -1.00, 635.3, 19.0)">C</text><text xml:space="preserve" font-family="Avenir-Light" font-size="20.2" fill="#FEFFFF" transform="matrix(1.00, 0.00, -0.00, -1.00, 652.8, 19.0)">O</text><text xml:space="preserve" font-family="Avenir-Light" font-size="20.2" fill="#FEFFFF" transform="matrix(1.00, 0.00, -0.00, -1.00, 673.0, 19.0)">U</text><text xml:space="preserve" font-family="Avenir-Light" font-size="20.2" fill="#FEFFFF" transform="matrix(1.00, 0.00, -0.00, -1.00, 690.1, 19.0)">N</text><text xml:space="preserve" font-family="Avenir-Light" font-size="20.2" fill="#FEFFFF" transform="matrix(1.00, 0.00, -0.00, -1.00, 709.0, 19.0)">T</text><text xml:space="preserve" font-family="Avenir-Light" font-size="20.2" fill="#FEFFFF" transform="matrix(1.00, 0.00, -0.00, -1.00, 723.9, 19.0)">R</text><text xml:space="preserve" font-family="Avenir-Light" font-size="20.2" fill="#FEFFFF" transform="matrix(1.00, 0.00, -0.00, -1.00, 738.9, 19.0)">Y</text><text xml:space="preserve" font-family="Avenir-Light" font-size="20.2" fill="#FEFFFF" transform="matrix(1.00, 0.00, -0.00, -1.00, 753.8, 19.0)"> </text><text xml:space="preserve" font-family="Avenir-Light" font-size="20.2" fill="#FEFFFF" transform="matrix(1.00, 0.00, -0.00, -1.00, 762.3, 19.0)">B</text><text xml:space="preserve" font-family="Avenir-Light" font-size="20.2" fill="#FEFFFF" transform="matrix(1.00, 0.00, -0.00, -1.00, 778.3, 19.0)">C</text><text xml:space="preserve" font-family="Avenir-Light" font-size="20.2" fill="#FEFFFF" transform="matrix(1.00, 0.00, -0.00, -1.00, 795.8, 19.0)">,</text><text xml:space="preserve" font-family="Avenir-Light" font-size="20.2" fill="#FEFFFF" transform="matrix(1.00, 0.00, -0.00, -1.00, 804.3, 19.0)"> </text><text xml:space="preserve" font-family="Avenir-Light" font-size="20.2" fill="#FEFFFF" transform="matrix(1.00, 0.00, -0.00, -1.00, 812.8, 19.0)">D</text><text xml:space="preserve" font-family="Avenir-Light" font-size="20.2" fill="#FEFFFF" transform="matrix(1.00, 0.00, -0.00, -1.00, 831.0, 19.0)">A</text><text xml:space="preserve" font-family="Avenir-Light" font-size="20.2" fill="#FEFFFF" transform="matrix(1.00, 0.00, -0.00, -1.00, 846.6, 19.0)">Y</text><text xml:space="preserve" font-family="Avenir-Light" font-size="20.2" fill="#FEFFFF" transform="matrix(1.00, 0.00, -0.00, -1.00, 861.5, 19.0)"> </text><text xml:space="preserve" font-family="Avenir-Light" font-size="20.2" fill="#FEFFFF" transform="matrix(1.00, 0.00, -0.00, -1.00, 870.0, 19.0)">9</text><text xml:space="preserve" font-family="Avenir-Light" font-size="20.2" fill="#FEFFFF" transform="matrix(1.00, 0.00, -0.00, -1.00, 883.8, 19.0)"> </text><text xml:space="preserve" font-family="Avenir-Light" font-size="20.2" fill="#FEFFFF" transform="matrix(1.00, 0.00, -0.00, -1.00, 892.3, 19.0)">(</text><text xml:space="preserve" font-family="Avenir-Light" font-size="20.2" fill="#FEFFFF" transform="matrix(1.00, 0.00, -0.00, -1.00, 900.8, 19.0)">4</text><text xml:space="preserve" font-family="Avenir-Light" font-size="20.2" fill="#FEFFFF" transform="matrix(1.00, 0.00, -0.00, -1.00, 914.5, 19.0)">9</text><text xml:space="preserve" font-family="Avenir-Light" font-size="20.2" fill="#FEFFFF" transform="matrix(1.00, 0.00, -0.00, -1.00, 928.3, 19.0)">0</text><text xml:space="preserve" font-family="Avenir-Light" font-size="20.2" fill="#FEFFFF" transform="matrix(1.00, 0.00, -0.00, -1.00, 942.1, 19.0)"> </text><text xml:space="preserve" font-family="Avenir-Light" font-size="20.2" fill="#FEFFFF" transform="matrix(1.00, 0.00, -0.00, -1.00, 950.6, 19.0)">K</text><text xml:space="preserve" font-family="Avenir-Light" font-size="20.2" fill="#FEFFFF" transform="matrix(1.00, 0.00, -0.00, -1.00, 966.2, 19.0)">M</text><text xml:space="preserve" font-family="Avenir-Light" font-size="20.2" fill="#FEFFFF" transform="matrix(1.00, 0.00, -0.00, -1.00, 987.4, 19.0)">)</text></g></svg>