<?xml version="1.0" encoding="UTF-8"?><svg xmlns="http://www.w3.org/2000/svg" xmlns:xlink="http://www.w3.org/1999/xlink" clip-rule="evenodd" stroke-miterlimit="4.00" viewBox="0 0 1024 768"><desc>SVG generated by Keynote</desc><defs></defs><g transform="matrix(1.00, 0.00, -0.00, -1.00, 0.0, 768.0)"><path d="M 0.0 768.0 L 1024.0 768.0 L 1024.0 0.0 L 0.0 0.0 Z M 0.0 768.0 " fill="#000000"></path><g><clipPath id="clip-332"><path d="M -2.0 770.0 L 510.0 770.0 L 510.0 386.0 L -2.0 386.0 Z M -1.6 769.5 "></path></clipPath><g clip-path="url(#clip-332)"><image xlink:href="0397779021A7AF378EE433A149EC2CA8.jpeg" width="578.00" height="384.00" transform="matrix(1.00, 0.00, -0.00, -1.00, -34.0, 770.0)"></image></g></g><g><clipPath id="clip-333"><path d="M 512.0 0.0 L 1024.0 0.0 L 1024.0 768.0 L 512.0 768.0 Z M 512.0 0.0 "></path></clipPath><g clip-path="url(#clip-333)"><image xlink:href="0789FAC3168D691C58F196A130FCE6A1.jpeg" width="511.00" height="769.00" transform="matrix(1.00, 0.00, -0.00, -1.00, 512.0, 769.0)"></image></g></g><text xml:space="preserve" font-family="Avenir-Light" font-size="45.0" fill="#FEFFFF" transform="matrix(1.00, 0.00, -0.00, -1.00, 77.0, 701.0)">R</text><text xml:space="preserve" font-family="Avenir-Light" font-size="45.0" fill="#FEFFFF" transform="matrix(1.00, 0.00, -0.00, -1.00, 110.9, 701.0)">E</text><text xml:space="preserve" font-family="Avenir-Light" font-size="45.0" fill="#FEFFFF" transform="matrix(1.00, 0.00, -0.00, -1.00, 144.8, 701.0)">F</text><text xml:space="preserve" font-family="Avenir-Light" font-size="45.0" fill="#FEFFFF" transform="matrix(1.00, 0.00, -0.00, -1.00, 177.0, 701.0)">L</text><text xml:space="preserve" font-family="Avenir-Light" font-size="45.0" fill="#FEFFFF" transform="matrix(1.00, 0.00, -0.00, -1.00, 206.7, 701.0)">E</text><text xml:space="preserve" font-family="Avenir-Light" font-size="45.0" fill="#FEFFFF" transform="matrix(1.00, 0.00, -0.00, -1.00, 240.6, 701.0)">C</text><text xml:space="preserve" font-family="Avenir-Light" font-size="45.0" fill="#FEFFFF" transform="matrix(1.00, 0.00, -0.00, -1.00, 279.5, 701.0)">T</text><text xml:space="preserve" font-family="Avenir-Light" font-size="45.0" fill="#FEFFFF" transform="matrix(1.00, 0.00, -0.00, -1.00, 312.5, 701.0)">I</text><text xml:space="preserve" font-family="Avenir-Light" font-size="45.0" fill="#FEFFFF" transform="matrix(1.00, 0.00, -0.00, -1.00, 331.4, 701.0)">O</text><text xml:space="preserve" font-family="Avenir-Light" font-size="45.0" fill="#FEFFFF" transform="matrix(1.00, 0.00, -0.00, -1.00, 376.1, 701.0)">N</text><text xml:space="preserve" font-family="Avenir-Light" font-size="45.0" fill="#FEFFFF" transform="matrix(1.00, 0.00, -0.00, -1.00, 418.3, 701.0)">S</text><text xml:space="preserve" font-family="Avenir-Light" font-size="30.0" fill="#FEFFFF" transform="matrix(1.00, 0.00, -0.00, -1.00, 56.0, 383.0)">V</text><text xml:space="preserve" font-family="Avenir-Light" font-size="30.0" fill="#FEFFFF" transform="matrix(1.00, 0.00, -0.00, -1.00, 72.1, 383.0)">a</text><text xml:space="preserve" font-family="Avenir-Light" font-size="30.0" fill="#FEFFFF" transform="matrix(1.00, 0.00, -0.00, -1.00, 87.7, 383.0)">n</text><text xml:space="preserve" font-family="Avenir-Light" font-size="30.0" fill="#FEFFFF" transform="matrix(1.00, 0.00, -0.00, -1.00, 104.4, 383.0)">c</text><text xml:space="preserve" font-family="Avenir-Light" font-size="30.0" fill="#FEFFFF" transform="matrix(1.00, 0.00, -0.00, -1.00, 118.8, 383.0)">o</text><text xml:space="preserve" font-family="Avenir-Light" font-size="30.0" fill="#FEFFFF" transform="matrix(1.00, 0.00, -0.00, -1.00, 136.6, 383.0)">u</text><text xml:space="preserve" font-family="Avenir-Light" font-size="30.0" fill="#FEFFFF" transform="matrix(1.00, 0.00, -0.00, -1.00, 153.3, 383.0)">v</text><text xml:space="preserve" font-family="Avenir-Light" font-size="30.0" fill="#FEFFFF" transform="matrix(1.00, 0.00, -0.00, -1.00, 167.2, 383.0)">e</text><text xml:space="preserve" font-family="Avenir-Light" font-size="30.0" fill="#FEFFFF" transform="matrix(1.00, 0.00, -0.00, -1.00, 183.9, 383.0)">r</text><text xml:space="preserve" font-family="Avenir-Light" font-size="30.0" fill="#FEFFFF" transform="matrix(1.00, 0.00, -0.00, -1.00, 193.9, 383.0)"> </text><text xml:space="preserve" font-family="Avenir-Light" font-size="30.0" fill="#FEFFFF" transform="matrix(1.00, 0.00, -0.00, -1.00, 201.7, 383.0)">t</text><text xml:space="preserve" font-family="Avenir-Light" font-size="30.0" fill="#FEFFFF" transform="matrix(1.00, 0.00, -0.00, -1.00, 211.7, 383.0)">o</text><text xml:space="preserve" font-family="Avenir-Light" font-size="30.0" fill="#FEFFFF" transform="matrix(1.00, 0.00, -0.00, -1.00, 229.5, 383.0)"> </text><text xml:space="preserve" font-family="Avenir-Light" font-size="30.0" fill="#FEFFFF" transform="matrix(1.00, 0.00, -0.00, -1.00, 237.3, 383.0)">W</text><text xml:space="preserve" font-family="Avenir-Light" font-size="30.0" fill="#FEFFFF" transform="matrix(1.00, 0.00, -0.00, -1.00, 265.6, 383.0)">h</text><text xml:space="preserve" font-family="Avenir-Light" font-size="30.0" fill="#FEFFFF" transform="matrix(1.00, 0.00, -0.00, -1.00, 282.3, 383.0)">i</text><text xml:space="preserve" font-family="Avenir-Light" font-size="30.0" fill="#FEFFFF" transform="matrix(1.00, 0.00, -0.00, -1.00, 289.5, 383.0)">t</text><text xml:space="preserve" font-family="Avenir-Light" font-size="30.0" fill="#FEFFFF" transform="matrix(1.00, 0.00, -0.00, -1.00, 299.5, 383.0)">e</text><text xml:space="preserve" font-family="Avenir-Light" font-size="30.0" fill="#FEFFFF" transform="matrix(1.00, 0.00, -0.00, -1.00, 316.2, 383.0)">h</text><text xml:space="preserve" font-family="Avenir-Light" font-size="30.0" fill="#FEFFFF" transform="matrix(1.00, 0.00, -0.00, -1.00, 332.8, 383.0)">o</text><text xml:space="preserve" font-family="Avenir-Light" font-size="30.0" fill="#FEFFFF" transform="matrix(1.00, 0.00, -0.00, -1.00, 350.7, 383.0)">r</text><text xml:space="preserve" font-family="Avenir-Light" font-size="30.0" fill="#FEFFFF" transform="matrix(1.00, 0.00, -0.00, -1.00, 360.7, 383.0)">s</text><text xml:space="preserve" font-family="Avenir-Light" font-size="30.0" fill="#FEFFFF" transform="matrix(1.00, 0.00, -0.00, -1.00, 373.4, 383.0)">e</text><text xml:space="preserve" font-family="Avenir-Light" font-size="30.0" fill="#FEFFFF" transform="matrix(1.00, 0.00, -0.00, -1.00, 390.1, 383.0)"> </text><text xml:space="preserve" font-family="Avenir-Light" font-size="30.0" fill="#FEFFFF" transform="matrix(1.00, 0.00, -0.00, -1.00, 56.0, 310.0)">9</text><text xml:space="preserve" font-family="Avenir-Light" font-size="30.0" fill="#FEFFFF" transform="matrix(1.00, 0.00, -0.00, -1.00, 71.6, 310.0)"> </text><text xml:space="preserve" font-family="Avenir-Light" font-size="30.0" fill="#FEFFFF" transform="matrix(1.00, 0.00, -0.00, -1.00, 79.4, 310.0)">d</text><text xml:space="preserve" font-family="Avenir-Light" font-size="30.0" fill="#FEFFFF" transform="matrix(1.00, 0.00, -0.00, -1.00, 97.7, 310.0)">a</text><text xml:space="preserve" font-family="Avenir-Light" font-size="30.0" fill="#FEFFFF" transform="matrix(1.00, 0.00, -0.00, -1.00, 113.3, 310.0)">y</text><text xml:space="preserve" font-family="Avenir-Light" font-size="30.0" fill="#FEFFFF" transform="matrix(1.00, 0.00, -0.00, -1.00, 127.2, 310.0)">s</text><text xml:space="preserve" font-family="Avenir-Light" font-size="30.0" fill="#FEFFFF" transform="matrix(1.00, 0.00, -0.00, -1.00, 140.0, 310.0)"> </text><text xml:space="preserve" font-family="Avenir-Light" font-size="30.0" fill="#FEFFFF" transform="matrix(1.00, 0.00, -0.00, -1.00, 56.0, 237.0)">5</text><text xml:space="preserve" font-family="Avenir-Light" font-size="30.0" fill="#FEFFFF" transform="matrix(1.00, 0.00, -0.00, -1.00, 71.6, 237.0)">,</text><text xml:space="preserve" font-family="Avenir-Light" font-size="30.0" fill="#FEFFFF" transform="matrix(1.00, 0.00, -0.00, -1.00, 79.4, 237.0)">6</text><text xml:space="preserve" font-family="Avenir-Light" font-size="30.0" fill="#FEFFFF" transform="matrix(1.00, 0.00, -0.00, -1.00, 95.0, 237.0)">7</text><text xml:space="preserve" font-family="Avenir-Light" font-size="30.0" fill="#FEFFFF" transform="matrix(1.00, 0.00, -0.00, -1.00, 110.6, 237.0)">7</text><text xml:space="preserve" font-family="Avenir-Light" font-size="30.0" fill="#FEFFFF" transform="matrix(1.00, 0.00, -0.00, -1.00, 126.2, 237.0)"> </text><text xml:space="preserve" font-family="Avenir-Light" font-size="30.0" fill="#FEFFFF" transform="matrix(1.00, 0.00, -0.00, -1.00, 134.0, 237.0)">k</text><text xml:space="preserve" font-family="Avenir-Light" font-size="30.0" fill="#FEFFFF" transform="matrix(1.00, 0.00, -0.00, -1.00, 148.4, 237.0)">m</text><text xml:space="preserve" font-family="Avenir-Light" font-size="30.0" fill="#FEFFFF" transform="matrix(1.00, 0.00, -0.00, -1.00, 174.0, 237.0)"> </text><text xml:space="preserve" font-family="Avenir-Light" font-size="30.0" fill="#FEFFFF" transform="matrix(1.00, 0.00, -0.00, -1.00, 56.0, 164.0)">B</text><text xml:space="preserve" font-family="Avenir-Light" font-size="30.0" fill="#FEFFFF" transform="matrix(1.00, 0.00, -0.00, -1.00, 74.9, 164.0)">r</text><text xml:space="preserve" font-family="Avenir-Light" font-size="30.0" fill="#FEFFFF" transform="matrix(1.00, 0.00, -0.00, -1.00, 84.3, 164.0)">e</text><text xml:space="preserve" font-family="Avenir-Light" font-size="30.0" fill="#FEFFFF" transform="matrix(1.00, 0.00, -0.00, -1.00, 101.0, 164.0)">a</text><text xml:space="preserve" font-family="Avenir-Light" font-size="30.0" fill="#FEFFFF" transform="matrix(1.00, 0.00, -0.00, -1.00, 116.6, 164.0)">t</text><text xml:space="preserve" font-family="Avenir-Light" font-size="30.0" fill="#FEFFFF" transform="matrix(1.00, 0.00, -0.00, -1.00, 126.6, 164.0)">h</text><text xml:space="preserve" font-family="Avenir-Light" font-size="30.0" fill="#FEFFFF" transform="matrix(1.00, 0.00, -0.00, -1.00, 143.3, 164.0)">t</text><text xml:space="preserve" font-family="Avenir-Light" font-size="30.0" fill="#FEFFFF" transform="matrix(1.00, 0.00, -0.00, -1.00, 153.3, 164.0)">a</text><text xml:space="preserve" font-family="Avenir-Light" font-size="30.0" fill="#FEFFFF" transform="matrix(1.00, 0.00, -0.00, -1.00, 168.9, 164.0)">k</text><text xml:space="preserve" font-family="Avenir-Light" font-size="30.0" fill="#FEFFFF" transform="matrix(1.00, 0.00, -0.00, -1.00, 183.3, 164.0)">i</text><text xml:space="preserve" font-family="Avenir-Light" font-size="30.0" fill="#FEFFFF" transform="matrix(1.00, 0.00, -0.00, -1.00, 190.5, 164.0)">n</text><text xml:space="preserve" font-family="Avenir-Light" font-size="30.0" fill="#FEFFFF" transform="matrix(1.00, 0.00, -0.00, -1.00, 207.2, 164.0)">g</text><text xml:space="preserve" font-family="Avenir-Light" font-size="30.0" fill="#FEFFFF" transform="matrix(1.00, 0.00, -0.00, -1.00, 225.5, 164.0)"> </text><text xml:space="preserve" font-family="Avenir-Light" font-size="30.0" fill="#FEFFFF" transform="matrix(1.00, 0.00, -0.00, -1.00, 233.3, 164.0)"> </text><text xml:space="preserve" font-family="Avenir-Light" font-size="30.0" fill="#FEFFFF" transform="matrix(1.00, 0.00, -0.00, -1.00, 56.0, 91.0)">U</text><text xml:space="preserve" font-family="Avenir-Light" font-size="30.0" fill="#FEFFFF" transform="matrix(1.00, 0.00, -0.00, -1.00, 76.5, 91.0)">p</text><text xml:space="preserve" font-family="Avenir-Light" font-size="30.0" fill="#FEFFFF" transform="matrix(1.00, 0.00, -0.00, -1.00, 94.8, 91.0)">l</text><text xml:space="preserve" font-family="Avenir-Light" font-size="30.0" fill="#FEFFFF" transform="matrix(1.00, 0.00, -0.00, -1.00, 102.1, 91.0)">i</text><text xml:space="preserve" font-family="Avenir-Light" font-size="30.0" fill="#FEFFFF" transform="matrix(1.00, 0.00, -0.00, -1.00, 109.3, 91.0)">f</text><text xml:space="preserve" font-family="Avenir-Light" font-size="30.0" fill="#FEFFFF" transform="matrix(1.00, 0.00, -0.00, -1.00, 118.2, 91.0)">t</text><text xml:space="preserve" font-family="Avenir-Light" font-size="30.0" fill="#FEFFFF" transform="matrix(1.00, 0.00, -0.00, -1.00, 128.2, 91.0)">i</text><text xml:space="preserve" font-family="Avenir-Light" font-size="30.0" fill="#FEFFFF" transform="matrix(1.00, 0.00, -0.00, -1.00, 135.4, 91.0)">n</text><text xml:space="preserve" font-family="Avenir-Light" font-size="30.0" fill="#FEFFFF" transform="matrix(1.00, 0.00, -0.00, -1.00, 152.1, 91.0)">g</text><text xml:space="preserve" font-family="Avenir-Light" font-size="30.0" fill="#FEFFFF" transform="matrix(1.00, 0.00, -0.00, -1.00, 170.4, 91.0)"> </text><text xml:space="preserve" font-family="Avenir-Light" font-size="30.0" fill="#FEFFFF" transform="matrix(1.00, 0.00, -0.00, -1.00, 56.0, 18.0)">F</text><text xml:space="preserve" font-family="Avenir-Light" font-size="30.0" fill="#FEFFFF" transform="matrix(1.00, 0.00, -0.00, -1.00, 72.7, 18.0)">r</text><text xml:space="preserve" font-family="Avenir-Light" font-size="30.0" fill="#FEFFFF" transform="matrix(1.00, 0.00, -0.00, -1.00, 82.1, 18.0)">e</text><text xml:space="preserve" font-family="Avenir-Light" font-size="30.0" fill="#FEFFFF" transform="matrix(1.00, 0.00, -0.00, -1.00, 98.8, 18.0)">e</text><text xml:space="preserve" font-family="Avenir-Light" font-size="30.0" fill="#FEFFFF" transform="matrix(1.00, 0.00, -0.00, -1.00, 115.5, 18.0)">i</text><text xml:space="preserve" font-family="Avenir-Light" font-size="30.0" fill="#FEFFFF" transform="matrix(1.00, 0.00, -0.00, -1.00, 122.7, 18.0)">n</text><text xml:space="preserve" font-family="Avenir-Light" font-size="30.0" fill="#FEFFFF" transform="matrix(1.00, 0.00, -0.00, -1.00, 139.4, 18.0)">g</text><text xml:space="preserve" font-family="Avenir-Light" font-size="22.9" fill="#FEFFFF" transform="matrix(1.00, 0.00, -0.00, -1.00, 640.0, 52.0)">N</text><text xml:space="preserve" font-family="Avenir-Light" font-size="22.9" fill="#FEFFFF" transform="matrix(1.00, 0.00, -0.00, -1.00, 661.5, 52.0)">O</text><text xml:space="preserve" font-family="Avenir-Light" font-size="22.9" fill="#FEFFFF" transform="matrix(1.00, 0.00, -0.00, -1.00, 684.3, 52.0)">R</text><text xml:space="preserve" font-family="Avenir-Light" font-size="22.9" fill="#FEFFFF" transform="matrix(1.00, 0.00, -0.00, -1.00, 701.8, 52.0)">T</text><text xml:space="preserve" font-family="Avenir-Light" font-size="22.9" fill="#FEFFFF" transform="matrix(1.00, 0.00, -0.00, -1.00, 718.6, 52.0)">H</text><text xml:space="preserve" font-family="Avenir-Light" font-size="22.9" fill="#FEFFFF" transform="matrix(1.00, 0.00, -0.00, -1.00, 738.8, 52.0)">E</text><text xml:space="preserve" font-family="Avenir-Light" font-size="22.9" fill="#FEFFFF" transform="matrix(1.00, 0.00, -0.00, -1.00, 756.1, 52.0)">R</text><text xml:space="preserve" font-family="Avenir-Light" font-size="22.9" fill="#FEFFFF" transform="matrix(1.00, 0.00, -0.00, -1.00, 773.4, 52.0)">N</text><text xml:space="preserve" font-family="Avenir-Light" font-size="22.9" fill="#FEFFFF" transform="matrix(1.00, 0.00, -0.00, -1.00, 794.9, 52.0)"> </text><text xml:space="preserve" font-family="Avenir-Light" font-size="22.9" fill="#FEFFFF" transform="matrix(1.00, 0.00, -0.00, -1.00, 804.6, 52.0)">L</text><text xml:space="preserve" font-family="Avenir-Light" font-size="22.9" fill="#FEFFFF" transform="matrix(1.00, 0.00, -0.00, -1.00, 819.7, 52.0)">I</text><text xml:space="preserve" font-family="Avenir-Light" font-size="22.9" fill="#FEFFFF" transform="matrix(1.00, 0.00, -0.00, -1.00, 829.4, 52.0)">G</text><text xml:space="preserve" font-family="Avenir-Light" font-size="22.9" fill="#FEFFFF" transform="matrix(1.00, 0.00, -0.00, -1.00, 850.9, 52.0)">H</text><text xml:space="preserve" font-family="Avenir-Light" font-size="22.9" fill="#FEFFFF" transform="matrix(1.00, 0.00, -0.00, -1.00, 871.1, 52.0)">T</text><text xml:space="preserve" font-family="Avenir-Light" font-size="22.9" fill="#FEFFFF" transform="matrix(1.00, 0.00, -0.00, -1.00, 888.0, 52.0)">S</text><text xml:space="preserve" font-family="Avenir-Light" font-size="22.9" fill="#FEFFFF" transform="matrix(1.00, 0.00, -0.00, -1.00, 904.4, 52.0)"> </text><text xml:space="preserve" font-family="Avenir-Light" font-size="22.9" fill="#FEFFFF" transform="matrix(1.00, 0.00, -0.00, -1.00, 589.0, 21.0)">T</text><text xml:space="preserve" font-family="Avenir-Light" font-size="22.9" fill="#FEFFFF" transform="matrix(1.00, 0.00, -0.00, -1.00, 604.3, 21.0)">A</text><text xml:space="preserve" font-family="Avenir-Light" font-size="22.9" fill="#FEFFFF" transform="matrix(1.00, 0.00, -0.00, -1.00, 623.7, 21.0)">G</text><text xml:space="preserve" font-family="Avenir-Light" font-size="22.9" fill="#FEFFFF" transform="matrix(1.00, 0.00, -0.00, -1.00, 645.2, 21.0)">I</text><text xml:space="preserve" font-family="Avenir-Light" font-size="22.9" fill="#FEFFFF" transform="matrix(1.00, 0.00, -0.00, -1.00, 654.8, 21.0)">S</text><text xml:space="preserve" font-family="Avenir-Light" font-size="22.9" fill="#FEFFFF" transform="matrix(1.00, 0.00, -0.00, -1.00, 671.3, 21.0)">H</text><text xml:space="preserve" font-family="Avenir-Light" font-size="22.9" fill="#FEFFFF" transform="matrix(1.00, 0.00, -0.00, -1.00, 691.5, 21.0)"> </text><text xml:space="preserve" font-family="Avenir-Light" font-size="22.9" fill="#FEFFFF" transform="matrix(1.00, 0.00, -0.00, -1.00, 701.2, 21.0)">L</text><text xml:space="preserve" font-family="Avenir-Light" font-size="22.9" fill="#FEFFFF" transform="matrix(1.00, 0.00, -0.00, -1.00, 716.3, 21.0)">A</text><text xml:space="preserve" font-family="Avenir-Light" font-size="22.9" fill="#FEFFFF" transform="matrix(1.00, 0.00, -0.00, -1.00, 735.7, 21.0)">K</text><text xml:space="preserve" font-family="Avenir-Light" font-size="22.9" fill="#FEFFFF" transform="matrix(1.00, 0.00, -0.00, -1.00, 753.4, 21.0)">E</text><text xml:space="preserve" font-family="Avenir-Light" font-size="22.9" fill="#FEFFFF" transform="matrix(1.00, 0.00, -0.00, -1.00, 770.7, 21.0)">,</text><text xml:space="preserve" font-family="Avenir-Light" font-size="22.9" fill="#FEFFFF" transform="matrix(1.00, 0.00, -0.00, -1.00, 780.3, 21.0)"> </text><text xml:space="preserve" font-family="Avenir-Light" font-size="22.9" fill="#FEFFFF" transform="matrix(1.00, 0.00, -0.00, -1.00, 790.0, 21.0)">C</text><text xml:space="preserve" font-family="Avenir-Light" font-size="22.9" fill="#FEFFFF" transform="matrix(1.00, 0.00, -0.00, -1.00, 809.8, 21.0)">O</text><text xml:space="preserve" font-family="Avenir-Light" font-size="22.9" fill="#FEFFFF" transform="matrix(1.00, 0.00, -0.00, -1.00, 832.6, 21.0)">N</text><text xml:space="preserve" font-family="Avenir-Light" font-size="22.9" fill="#FEFFFF" transform="matrix(1.00, 0.00, -0.00, -1.00, 854.1, 21.0)">R</text><text xml:space="preserve" font-family="Avenir-Light" font-size="22.9" fill="#FEFFFF" transform="matrix(1.00, 0.00, -0.00, -1.00, 871.4, 21.0)">A</text><text xml:space="preserve" font-family="Avenir-Light" font-size="22.9" fill="#FEFFFF" transform="matrix(1.00, 0.00, -0.00, -1.00, 890.8, 21.0)">D</text><text xml:space="preserve" font-family="Avenir-Light" font-size="22.9" fill="#FEFFFF" transform="matrix(1.00, 0.00, -0.00, -1.00, 911.5, 21.0)"> </text><text xml:space="preserve" font-family="Avenir-Light" font-size="22.9" fill="#FEFFFF" transform="matrix(1.00, 0.00, -0.00, -1.00, 921.1, 21.0)">Y</text><text xml:space="preserve" font-family="Avenir-Light" font-size="22.9" fill="#FEFFFF" transform="matrix(1.00, 0.00, -0.00, -1.00, 938.0, 21.0)">T</text></g></svg>