<?xml version="1.0" encoding="UTF-8"?><svg xmlns="http://www.w3.org/2000/svg" xmlns:xlink="http://www.w3.org/1999/xlink" clip-rule="evenodd" stroke-miterlimit="4.00" viewBox="0 0 1024 768"><desc>SVG generated by Keynote</desc><defs></defs><g transform="matrix(1.00, 0.00, -0.00, -1.00, 0.0, 768.0)"><path d="M 0.0 768.0 L 1024.0 768.0 L 1024.0 0.0 L 0.0 0.0 Z M 0.0 768.0 " fill="#000000"></path><g><clipPath id="clip-417"><path d="M 0.0 0.0 L 1024.0 0.0 L 1024.0 768.0 L 0.0 768.0 Z M 0.0 0.0 "></path></clipPath><g clip-path="url(#clip-417)"><image xlink:href="../../D4BAA9A9-B9B8-4D9A-B59E-73384F4F6947/assets/8839F37D40E4E1AC710C461431C10493.jpeg" width="1155.00" height="768.00" transform="matrix(1.00, 0.00, -0.00, -1.00, -65.0, 768.0)"></image></g></g><text xml:space="preserve" font-family="Avenir-Light" font-size="18.4" fill="#FEFFFF" transform="matrix(1.00, 0.00, -0.00, -1.00, 147.0, 18.0)">T</text><text xml:space="preserve" font-family="Avenir-Light" font-size="18.4" fill="#FEFFFF" transform="matrix(1.00, 0.00, -0.00, -1.00, 160.5, 18.0)">H</text><text xml:space="preserve" font-family="Avenir-Light" font-size="18.4" fill="#FEFFFF" transform="matrix(1.00, 0.00, -0.00, -1.00, 176.8, 18.0)">E</text><text xml:space="preserve" font-family="Avenir-Light" font-size="18.4" fill="#FEFFFF" transform="matrix(1.00, 0.00, -0.00, -1.00, 190.7, 18.0)"> </text><text xml:space="preserve" font-family="Avenir-Light" font-size="18.4" fill="#FEFFFF" transform="matrix(1.00, 0.00, -0.00, -1.00, 198.5, 18.0)">S</text><text xml:space="preserve" font-family="Avenir-Light" font-size="18.4" fill="#FEFFFF" transform="matrix(1.00, 0.00, -0.00, -1.00, 211.7, 18.0)">U</text><text xml:space="preserve" font-family="Avenir-Light" font-size="18.4" fill="#FEFFFF" transform="matrix(1.00, 0.00, -0.00, -1.00, 227.2, 18.0)">N</text><text xml:space="preserve" font-family="Avenir-Light" font-size="18.4" fill="#FEFFFF" transform="matrix(1.00, 0.00, -0.00, -1.00, 244.5, 18.0)"> </text><text xml:space="preserve" font-family="Avenir-Light" font-size="18.4" fill="#FEFFFF" transform="matrix(1.00, 0.00, -0.00, -1.00, 252.3, 18.0)">S</text><text xml:space="preserve" font-family="Avenir-Light" font-size="18.4" fill="#FEFFFF" transform="matrix(1.00, 0.00, -0.00, -1.00, 265.5, 18.0)">E</text><text xml:space="preserve" font-family="Avenir-Light" font-size="18.4" fill="#FEFFFF" transform="matrix(1.00, 0.00, -0.00, -1.00, 279.4, 18.0)">T</text><text xml:space="preserve" font-family="Avenir-Light" font-size="18.4" fill="#FEFFFF" transform="matrix(1.00, 0.00, -0.00, -1.00, 292.9, 18.0)">S</text><text xml:space="preserve" font-family="Avenir-Light" font-size="18.4" fill="#FEFFFF" transform="matrix(1.00, 0.00, -0.00, -1.00, 306.1, 18.0)"> </text><text xml:space="preserve" font-family="Avenir-Light" font-size="18.4" fill="#FEFFFF" transform="matrix(1.00, 0.00, -0.00, -1.00, 313.9, 18.0)">I</text><text xml:space="preserve" font-family="Avenir-Light" font-size="18.4" fill="#FEFFFF" transform="matrix(1.00, 0.00, -0.00, -1.00, 321.6, 18.0)">N</text><text xml:space="preserve" font-family="Avenir-Light" font-size="18.4" fill="#FEFFFF" transform="matrix(1.00, 0.00, -0.00, -1.00, 339.0, 18.0)"> </text><text xml:space="preserve" font-family="Avenir-Light" font-size="18.4" fill="#FEFFFF" transform="matrix(1.00, 0.00, -0.00, -1.00, 346.7, 18.0)">T</text><text xml:space="preserve" font-family="Avenir-Light" font-size="18.4" fill="#FEFFFF" transform="matrix(1.00, 0.00, -0.00, -1.00, 360.2, 18.0)">H</text><text xml:space="preserve" font-family="Avenir-Light" font-size="18.4" fill="#FEFFFF" transform="matrix(1.00, 0.00, -0.00, -1.00, 376.5, 18.0)">E</text><text xml:space="preserve" font-family="Avenir-Light" font-size="18.4" fill="#FEFFFF" transform="matrix(1.00, 0.00, -0.00, -1.00, 390.4, 18.0)"> </text><text xml:space="preserve" font-family="Avenir-Light" font-size="18.4" fill="#FEFFFF" transform="matrix(1.00, 0.00, -0.00, -1.00, 398.2, 18.0)">S</text><text xml:space="preserve" font-family="Avenir-Light" font-size="18.4" fill="#FEFFFF" transform="matrix(1.00, 0.00, -0.00, -1.00, 411.4, 18.0)">O</text><text xml:space="preserve" font-family="Avenir-Light" font-size="18.4" fill="#FEFFFF" transform="matrix(1.00, 0.00, -0.00, -1.00, 429.7, 18.0)">U</text><text xml:space="preserve" font-family="Avenir-Light" font-size="18.4" fill="#FEFFFF" transform="matrix(1.00, 0.00, -0.00, -1.00, 445.3, 18.0)">T</text><text xml:space="preserve" font-family="Avenir-Light" font-size="18.4" fill="#FEFFFF" transform="matrix(1.00, 0.00, -0.00, -1.00, 458.8, 18.0)">H</text><text xml:space="preserve" font-family="Avenir-Light" font-size="18.4" fill="#FEFFFF" transform="matrix(1.00, 0.00, -0.00, -1.00, 475.1, 18.0)"> </text><text xml:space="preserve" font-family="Avenir-Light" font-size="18.4" fill="#FEFFFF" transform="matrix(1.00, 0.00, -0.00, -1.00, 482.8, 18.0)">C</text><text xml:space="preserve" font-family="Avenir-Light" font-size="18.4" fill="#FEFFFF" transform="matrix(1.00, 0.00, -0.00, -1.00, 498.8, 18.0)">A</text><text xml:space="preserve" font-family="Avenir-Light" font-size="18.4" fill="#FEFFFF" transform="matrix(1.00, 0.00, -0.00, -1.00, 514.4, 18.0)">R</text><text xml:space="preserve" font-family="Avenir-Light" font-size="18.4" fill="#FEFFFF" transform="matrix(1.00, 0.00, -0.00, -1.00, 528.3, 18.0)">I</text><text xml:space="preserve" font-family="Avenir-Light" font-size="18.4" fill="#FEFFFF" transform="matrix(1.00, 0.00, -0.00, -1.00, 536.0, 18.0)">B</text><text xml:space="preserve" font-family="Avenir-Light" font-size="18.4" fill="#FEFFFF" transform="matrix(1.00, 0.00, -0.00, -1.00, 550.6, 18.0)">O</text><text xml:space="preserve" font-family="Avenir-Light" font-size="18.4" fill="#FEFFFF" transform="matrix(1.00, 0.00, -0.00, -1.00, 568.9, 18.0)">O</text><text xml:space="preserve" font-family="Avenir-Light" font-size="18.4" fill="#FEFFFF" transform="matrix(1.00, 0.00, -0.00, -1.00, 587.3, 18.0)"> </text><text xml:space="preserve" font-family="Avenir-Light" font-size="18.4" fill="#FEFFFF" transform="matrix(1.00, 0.00, -0.00, -1.00, 595.0, 18.0)">B</text><text xml:space="preserve" font-family="Avenir-Light" font-size="18.4" fill="#FEFFFF" transform="matrix(1.00, 0.00, -0.00, -1.00, 609.6, 18.0)">C</text><text xml:space="preserve" font-family="Avenir-Light" font-size="18.4" fill="#FEFFFF" transform="matrix(1.00, 0.00, -0.00, -1.00, 625.5, 18.0)">,</text><text xml:space="preserve" font-family="Avenir-Light" font-size="18.4" fill="#FEFFFF" transform="matrix(1.00, 0.00, -0.00, -1.00, 633.3, 18.0)"> </text><text xml:space="preserve" font-family="Avenir-Light" font-size="18.4" fill="#FEFFFF" transform="matrix(1.00, 0.00, -0.00, -1.00, 641.0, 18.0)">D</text><text xml:space="preserve" font-family="Avenir-Light" font-size="18.4" fill="#FEFFFF" transform="matrix(1.00, 0.00, -0.00, -1.00, 657.7, 18.0)">A</text><text xml:space="preserve" font-family="Avenir-Light" font-size="18.4" fill="#FEFFFF" transform="matrix(1.00, 0.00, -0.00, -1.00, 671.9, 18.0)">Y</text><text xml:space="preserve" font-family="Avenir-Light" font-size="18.4" fill="#FEFFFF" transform="matrix(1.00, 0.00, -0.00, -1.00, 685.4, 18.0)"> </text><text xml:space="preserve" font-family="Avenir-Light" font-size="18.4" fill="#FEFFFF" transform="matrix(1.00, 0.00, -0.00, -1.00, 693.2, 18.0)">8</text><text xml:space="preserve" font-family="Avenir-Light" font-size="18.4" fill="#FEFFFF" transform="matrix(1.00, 0.00, -0.00, -1.00, 705.7, 18.0)">/</text><text xml:space="preserve" font-family="Avenir-Light" font-size="18.4" fill="#FEFFFF" transform="matrix(1.00, 0.00, -0.00, -1.00, 715.5, 18.0)">9</text><text xml:space="preserve" font-family="Avenir-Light" font-size="18.4" fill="#FEFFFF" transform="matrix(1.00, 0.00, -0.00, -1.00, 728.0, 18.0)"> </text><text xml:space="preserve" font-family="Avenir-Light" font-size="18.4" fill="#FEFFFF" transform="matrix(1.00, 0.00, -0.00, -1.00, 735.8, 18.0)">(</text><text xml:space="preserve" font-family="Avenir-Light" font-size="18.4" fill="#FEFFFF" transform="matrix(1.00, 0.00, -0.00, -1.00, 743.5, 18.0)">9</text><text xml:space="preserve" font-family="Avenir-Light" font-size="18.4" fill="#FEFFFF" transform="matrix(1.00, 0.00, -0.00, -1.00, 756.1, 18.0)">2</text><text xml:space="preserve" font-family="Avenir-Light" font-size="18.4" fill="#FEFFFF" transform="matrix(1.00, 0.00, -0.00, -1.00, 768.6, 18.0)">8</text><text xml:space="preserve" font-family="Avenir-Light" font-size="18.4" fill="#FEFFFF" transform="matrix(1.00, 0.00, -0.00, -1.00, 781.2, 18.0)">/</text><text xml:space="preserve" font-family="Avenir-Light" font-size="18.4" fill="#FEFFFF" transform="matrix(1.00, 0.00, -0.00, -1.00, 791.0, 18.0)">4</text><text xml:space="preserve" font-family="Avenir-Light" font-size="18.4" fill="#FEFFFF" transform="matrix(1.00, 0.00, -0.00, -1.00, 803.5, 18.0)">9</text><text xml:space="preserve" font-family="Avenir-Light" font-size="18.4" fill="#FEFFFF" transform="matrix(1.00, 0.00, -0.00, -1.00, 816.1, 18.0)">0</text><text xml:space="preserve" font-family="Avenir-Light" font-size="18.4" fill="#FEFFFF" transform="matrix(1.00, 0.00, -0.00, -1.00, 828.6, 18.0)"> </text><text xml:space="preserve" font-family="Avenir-Light" font-size="18.4" fill="#FEFFFF" transform="matrix(1.00, 0.00, -0.00, -1.00, 836.3, 18.0)">K</text><text xml:space="preserve" font-family="Avenir-Light" font-size="18.4" fill="#FEFFFF" transform="matrix(1.00, 0.00, -0.00, -1.00, 850.6, 18.0)">M</text><text xml:space="preserve" font-family="Avenir-Light" font-size="18.4" fill="#FEFFFF" transform="matrix(1.00, 0.00, -0.00, -1.00, 869.9, 18.0)">)</text></g></svg>