<?xml version="1.0" encoding="UTF-8"?><svg xmlns="http://www.w3.org/2000/svg" xmlns:xlink="http://www.w3.org/1999/xlink" clip-rule="evenodd" stroke-miterlimit="4.00" viewBox="0 0 1024 768"><desc>SVG generated by Keynote</desc><defs></defs><g transform="matrix(1.00, 0.00, -0.00, -1.00, 0.0, 768.0)"><path d="M 0.0 768.0 L 1024.0 768.0 L 1024.0 0.0 L 0.0 0.0 Z M 0.0 768.0 " fill="#000000"></path><g><clipPath id="clip-503"><path d="M 0.0 0.0 L 1024.0 0.0 L 1024.0 768.0 L 0.0 768.0 Z M 0.0 0.0 "></path></clipPath><g clip-path="url(#clip-503)"><image xlink:href="../../D4BAA9A9-B9B8-4D9A-B59E-73384F4F6947/assets/8839F37D40E4E1AC710C461431C10493.jpeg" width="1155.00" height="768.00" transform="matrix(1.00, 0.00, -0.00, -1.00, -65.0, 768.0)"></image></g></g><text xml:space="preserve" font-family="Avenir-Light" font-size="19.8" fill="#FEFFFF" transform="matrix(1.00, 0.00, -0.00, -1.00, 119.0, 25.0)">T</text><text xml:space="preserve" font-family="Avenir-Light" font-size="19.8" fill="#FEFFFF" transform="matrix(1.00, 0.00, -0.00, -1.00, 133.5, 25.0)">H</text><text xml:space="preserve" font-family="Avenir-Light" font-size="19.8" fill="#FEFFFF" transform="matrix(1.00, 0.00, -0.00, -1.00, 151.0, 25.0)">E</text><text xml:space="preserve" font-family="Avenir-Light" font-size="19.8" fill="#FEFFFF" transform="matrix(1.00, 0.00, -0.00, -1.00, 165.9, 25.0)"> </text><text xml:space="preserve" font-family="Avenir-Light" font-size="19.8" fill="#FEFFFF" transform="matrix(1.00, 0.00, -0.00, -1.00, 174.2, 25.0)">S</text><text xml:space="preserve" font-family="Avenir-Light" font-size="19.8" fill="#FEFFFF" transform="matrix(1.00, 0.00, -0.00, -1.00, 188.4, 25.0)">U</text><text xml:space="preserve" font-family="Avenir-Light" font-size="19.8" fill="#FEFFFF" transform="matrix(1.00, 0.00, -0.00, -1.00, 205.1, 25.0)">N</text><text xml:space="preserve" font-family="Avenir-Light" font-size="19.8" fill="#FEFFFF" transform="matrix(1.00, 0.00, -0.00, -1.00, 223.7, 25.0)"> </text><text xml:space="preserve" font-family="Avenir-Light" font-size="19.8" fill="#FEFFFF" transform="matrix(1.00, 0.00, -0.00, -1.00, 232.0, 25.0)">S</text><text xml:space="preserve" font-family="Avenir-Light" font-size="19.8" fill="#FEFFFF" transform="matrix(1.00, 0.00, -0.00, -1.00, 246.2, 25.0)">E</text><text xml:space="preserve" font-family="Avenir-Light" font-size="19.8" fill="#FEFFFF" transform="matrix(1.00, 0.00, -0.00, -1.00, 261.1, 25.0)">T</text><text xml:space="preserve" font-family="Avenir-Light" font-size="19.8" fill="#FEFFFF" transform="matrix(1.00, 0.00, -0.00, -1.00, 275.6, 25.0)">S</text><text xml:space="preserve" font-family="Avenir-Light" font-size="19.8" fill="#FEFFFF" transform="matrix(1.00, 0.00, -0.00, -1.00, 289.8, 25.0)"> </text><text xml:space="preserve" font-family="Avenir-Light" font-size="19.8" fill="#FEFFFF" transform="matrix(1.00, 0.00, -0.00, -1.00, 298.1, 25.0)">I</text><text xml:space="preserve" font-family="Avenir-Light" font-size="19.8" fill="#FEFFFF" transform="matrix(1.00, 0.00, -0.00, -1.00, 306.4, 25.0)">N</text><text xml:space="preserve" font-family="Avenir-Light" font-size="19.8" fill="#FEFFFF" transform="matrix(1.00, 0.00, -0.00, -1.00, 325.0, 25.0)"> </text><text xml:space="preserve" font-family="Avenir-Light" font-size="19.8" fill="#FEFFFF" transform="matrix(1.00, 0.00, -0.00, -1.00, 333.3, 25.0)">T</text><text xml:space="preserve" font-family="Avenir-Light" font-size="19.8" fill="#FEFFFF" transform="matrix(1.00, 0.00, -0.00, -1.00, 347.8, 25.0)">H</text><text xml:space="preserve" font-family="Avenir-Light" font-size="19.8" fill="#FEFFFF" transform="matrix(1.00, 0.00, -0.00, -1.00, 365.3, 25.0)">E</text><text xml:space="preserve" font-family="Avenir-Light" font-size="19.8" fill="#FEFFFF" transform="matrix(1.00, 0.00, -0.00, -1.00, 380.2, 25.0)"> </text><text xml:space="preserve" font-family="Avenir-Light" font-size="19.8" fill="#FEFFFF" transform="matrix(1.00, 0.00, -0.00, -1.00, 388.5, 25.0)">S</text><text xml:space="preserve" font-family="Avenir-Light" font-size="19.8" fill="#FEFFFF" transform="matrix(1.00, 0.00, -0.00, -1.00, 402.7, 25.0)">O</text><text xml:space="preserve" font-family="Avenir-Light" font-size="19.8" fill="#FEFFFF" transform="matrix(1.00, 0.00, -0.00, -1.00, 422.4, 25.0)">U</text><text xml:space="preserve" font-family="Avenir-Light" font-size="19.8" fill="#FEFFFF" transform="matrix(1.00, 0.00, -0.00, -1.00, 439.1, 25.0)">T</text><text xml:space="preserve" font-family="Avenir-Light" font-size="19.8" fill="#FEFFFF" transform="matrix(1.00, 0.00, -0.00, -1.00, 453.6, 25.0)">H</text><text xml:space="preserve" font-family="Avenir-Light" font-size="19.8" fill="#FEFFFF" transform="matrix(1.00, 0.00, -0.00, -1.00, 471.1, 25.0)"> </text><text xml:space="preserve" font-family="Avenir-Light" font-size="19.8" fill="#FEFFFF" transform="matrix(1.00, 0.00, -0.00, -1.00, 479.4, 25.0)">C</text><text xml:space="preserve" font-family="Avenir-Light" font-size="19.8" fill="#FEFFFF" transform="matrix(1.00, 0.00, -0.00, -1.00, 496.5, 25.0)">A</text><text xml:space="preserve" font-family="Avenir-Light" font-size="19.8" fill="#FEFFFF" transform="matrix(1.00, 0.00, -0.00, -1.00, 513.3, 25.0)">R</text><text xml:space="preserve" font-family="Avenir-Light" font-size="19.8" fill="#FEFFFF" transform="matrix(1.00, 0.00, -0.00, -1.00, 528.2, 25.0)">I</text><text xml:space="preserve" font-family="Avenir-Light" font-size="19.8" fill="#FEFFFF" transform="matrix(1.00, 0.00, -0.00, -1.00, 536.5, 25.0)">B</text><text xml:space="preserve" font-family="Avenir-Light" font-size="19.8" fill="#FEFFFF" transform="matrix(1.00, 0.00, -0.00, -1.00, 552.1, 25.0)">O</text><text xml:space="preserve" font-family="Avenir-Light" font-size="19.8" fill="#FEFFFF" transform="matrix(1.00, 0.00, -0.00, -1.00, 571.8, 25.0)">O</text><text xml:space="preserve" font-family="Avenir-Light" font-size="19.8" fill="#FEFFFF" transform="matrix(1.00, 0.00, -0.00, -1.00, 591.5, 25.0)"> </text><text xml:space="preserve" font-family="Avenir-Light" font-size="19.8" fill="#FEFFFF" transform="matrix(1.00, 0.00, -0.00, -1.00, 599.8, 25.0)">B</text><text xml:space="preserve" font-family="Avenir-Light" font-size="19.8" fill="#FEFFFF" transform="matrix(1.00, 0.00, -0.00, -1.00, 615.4, 25.0)">C</text><text xml:space="preserve" font-family="Avenir-Light" font-size="19.8" fill="#FEFFFF" transform="matrix(1.00, 0.00, -0.00, -1.00, 632.6, 25.0)">,</text><text xml:space="preserve" font-family="Avenir-Light" font-size="19.8" fill="#FEFFFF" transform="matrix(1.00, 0.00, -0.00, -1.00, 640.9, 25.0)"> </text><text xml:space="preserve" font-family="Avenir-Light" font-size="19.8" fill="#FEFFFF" transform="matrix(1.00, 0.00, -0.00, -1.00, 649.2, 25.0)">D</text><text xml:space="preserve" font-family="Avenir-Light" font-size="19.8" fill="#FEFFFF" transform="matrix(1.00, 0.00, -0.00, -1.00, 667.0, 25.0)">A</text><text xml:space="preserve" font-family="Avenir-Light" font-size="19.8" fill="#FEFFFF" transform="matrix(1.00, 0.00, -0.00, -1.00, 682.3, 25.0)">Y</text><text xml:space="preserve" font-family="Avenir-Light" font-size="19.8" fill="#FEFFFF" transform="matrix(1.00, 0.00, -0.00, -1.00, 696.8, 25.0)"> </text><text xml:space="preserve" font-family="Avenir-Light" font-size="19.8" fill="#FEFFFF" transform="matrix(1.00, 0.00, -0.00, -1.00, 705.1, 25.0)">8</text><text xml:space="preserve" font-family="Avenir-Light" font-size="19.8" fill="#FEFFFF" transform="matrix(1.00, 0.00, -0.00, -1.00, 718.6, 25.0)">/</text><text xml:space="preserve" font-family="Avenir-Light" font-size="19.8" fill="#FEFFFF" transform="matrix(1.00, 0.00, -0.00, -1.00, 729.1, 25.0)">9</text><text xml:space="preserve" font-family="Avenir-Light" font-size="19.8" fill="#FEFFFF" transform="matrix(1.00, 0.00, -0.00, -1.00, 742.6, 25.0)"> </text><text xml:space="preserve" font-family="Avenir-Light" font-size="19.8" fill="#FEFFFF" transform="matrix(1.00, 0.00, -0.00, -1.00, 750.9, 25.0)">(</text><text xml:space="preserve" font-family="Avenir-Light" font-size="19.8" fill="#FEFFFF" transform="matrix(1.00, 0.00, -0.00, -1.00, 759.2, 25.0)">9</text><text xml:space="preserve" font-family="Avenir-Light" font-size="19.8" fill="#FEFFFF" transform="matrix(1.00, 0.00, -0.00, -1.00, 772.7, 25.0)">2</text><text xml:space="preserve" font-family="Avenir-Light" font-size="19.8" fill="#FEFFFF" transform="matrix(1.00, 0.00, -0.00, -1.00, 786.1, 25.0)">8</text><text xml:space="preserve" font-family="Avenir-Light" font-size="19.8" fill="#FEFFFF" transform="matrix(1.00, 0.00, -0.00, -1.00, 799.6, 25.0)">/</text><text xml:space="preserve" font-family="Avenir-Light" font-size="19.8" fill="#FEFFFF" transform="matrix(1.00, 0.00, -0.00, -1.00, 810.1, 25.0)">4</text><text xml:space="preserve" font-family="Avenir-Light" font-size="19.8" fill="#FEFFFF" transform="matrix(1.00, 0.00, -0.00, -1.00, 823.5, 25.0)">9</text><text xml:space="preserve" font-family="Avenir-Light" font-size="19.8" fill="#FEFFFF" transform="matrix(1.00, 0.00, -0.00, -1.00, 837.0, 25.0)">0</text><text xml:space="preserve" font-family="Avenir-Light" font-size="19.8" fill="#FEFFFF" transform="matrix(1.00, 0.00, -0.00, -1.00, 850.5, 25.0)"> </text><text xml:space="preserve" font-family="Avenir-Light" font-size="19.8" fill="#FEFFFF" transform="matrix(1.00, 0.00, -0.00, -1.00, 858.8, 25.0)">K</text><text xml:space="preserve" font-family="Avenir-Light" font-size="19.8" fill="#FEFFFF" transform="matrix(1.00, 0.00, -0.00, -1.00, 874.1, 25.0)">M</text><text xml:space="preserve" font-family="Avenir-Light" font-size="19.8" fill="#FEFFFF" transform="matrix(1.00, 0.00, -0.00, -1.00, 894.8, 25.0)">)</text></g></svg>