<?xml version="1.0" encoding="UTF-8"?><svg xmlns="http://www.w3.org/2000/svg" xmlns:xlink="http://www.w3.org/1999/xlink" clip-rule="evenodd" stroke-miterlimit="4.00" viewBox="0 0 1024 768"><desc>SVG generated by Keynote</desc><defs></defs><g transform="matrix(1.00, 0.00, -0.00, -1.00, 0.0, 768.0)"><path d="M 0.0 768.0 L 1024.0 768.0 L 1024.0 0.0 L 0.0 0.0 Z M 0.0 768.0 " fill="#000000"></path><g><clipPath id="clip-34"><path d="M 0.0 734.0 L 1024.0 734.0 L 1024.0 0.0 L 0.0 0.0 Z M 0.0 734.3 "></path></clipPath><g clip-path="url(#clip-34)"><image xlink:href="C77E4E3C89FFA13A20507814F274089D.jpeg" width="1155.00" height="768.00" transform="matrix(1.00, 0.00, -0.00, -1.00, -65.0, 768.0)"></image></g></g><text xml:space="preserve" font-family="Avenir-Light" font-size="20.2" fill="#FEFFFF" transform="matrix(1.00, 0.00, -0.00, -1.00, 199.0, 743.0)">A</text><text xml:space="preserve" font-family="Avenir-Light" font-size="20.2" fill="#FEFFFF" transform="matrix(1.00, 0.00, -0.00, -1.00, 216.1, 743.0)">L</text><text xml:space="preserve" font-family="Avenir-Light" font-size="20.2" fill="#FEFFFF" transform="matrix(1.00, 0.00, -0.00, -1.00, 229.5, 743.0)">A</text><text xml:space="preserve" font-family="Avenir-Light" font-size="20.2" fill="#FEFFFF" transform="matrix(1.00, 0.00, -0.00, -1.00, 246.6, 743.0)">S</text><text xml:space="preserve" font-family="Avenir-Light" font-size="20.2" fill="#FEFFFF" transform="matrix(1.00, 0.00, -0.00, -1.00, 261.1, 743.0)">K</text><text xml:space="preserve" font-family="Avenir-Light" font-size="20.2" fill="#FEFFFF" transform="matrix(1.00, 0.00, -0.00, -1.00, 276.7, 743.0)">A</text><text xml:space="preserve" font-family="Avenir-Light" font-size="20.2" fill="#FEFFFF" transform="matrix(1.00, 0.00, -0.00, -1.00, 293.8, 743.0)"> </text><text xml:space="preserve" font-family="Avenir-Light" font-size="20.2" fill="#FEFFFF" transform="matrix(1.00, 0.00, -0.00, -1.00, 302.3, 743.0)">H</text><text xml:space="preserve" font-family="Avenir-Light" font-size="20.2" fill="#FEFFFF" transform="matrix(1.00, 0.00, -0.00, -1.00, 320.2, 743.0)">I</text><text xml:space="preserve" font-family="Avenir-Light" font-size="20.2" fill="#FEFFFF" transform="matrix(1.00, 0.00, -0.00, -1.00, 328.7, 743.0)">G</text><text xml:space="preserve" font-family="Avenir-Light" font-size="20.2" fill="#FEFFFF" transform="matrix(1.00, 0.00, -0.00, -1.00, 347.7, 743.0)">H</text><text xml:space="preserve" font-family="Avenir-Light" font-size="20.2" fill="#FEFFFF" transform="matrix(1.00, 0.00, -0.00, -1.00, 365.5, 743.0)">W</text><text xml:space="preserve" font-family="Avenir-Light" font-size="20.2" fill="#FEFFFF" transform="matrix(1.00, 0.00, -0.00, -1.00, 387.5, 743.0)">A</text><text xml:space="preserve" font-family="Avenir-Light" font-size="20.2" fill="#FEFFFF" transform="matrix(1.00, 0.00, -0.00, -1.00, 403.1, 743.0)">Y</text><text xml:space="preserve" font-family="Avenir-Light" font-size="20.2" fill="#FEFFFF" transform="matrix(1.00, 0.00, -0.00, -1.00, 418.0, 743.0)"> </text><text xml:space="preserve" font-family="Avenir-Light" font-size="20.2" fill="#FEFFFF" transform="matrix(1.00, 0.00, -0.00, -1.00, 426.5, 743.0)">T</text><text xml:space="preserve" font-family="Avenir-Light" font-size="20.2" fill="#FEFFFF" transform="matrix(1.00, 0.00, -0.00, -1.00, 441.4, 743.0)">O</text><text xml:space="preserve" font-family="Avenir-Light" font-size="20.2" fill="#FEFFFF" transform="matrix(1.00, 0.00, -0.00, -1.00, 461.5, 743.0)">W</text><text xml:space="preserve" font-family="Avenir-Light" font-size="20.2" fill="#FEFFFF" transform="matrix(1.00, 0.00, -0.00, -1.00, 483.5, 743.0)">A</text><text xml:space="preserve" font-family="Avenir-Light" font-size="20.2" fill="#FEFFFF" transform="matrix(1.00, 0.00, -0.00, -1.00, 500.6, 743.0)">R</text><text xml:space="preserve" font-family="Avenir-Light" font-size="20.2" fill="#FEFFFF" transform="matrix(1.00, 0.00, -0.00, -1.00, 515.9, 743.0)">D</text><text xml:space="preserve" font-family="Avenir-Light" font-size="20.2" fill="#FEFFFF" transform="matrix(1.00, 0.00, -0.00, -1.00, 534.1, 743.0)">S</text><text xml:space="preserve" font-family="Avenir-Light" font-size="20.2" fill="#FEFFFF" transform="matrix(1.00, 0.00, -0.00, -1.00, 548.6, 743.0)"> </text><text xml:space="preserve" font-family="Avenir-Light" font-size="20.2" fill="#FEFFFF" transform="matrix(1.00, 0.00, -0.00, -1.00, 557.1, 743.0)">H</text><text xml:space="preserve" font-family="Avenir-Light" font-size="20.2" fill="#FEFFFF" transform="matrix(1.00, 0.00, -0.00, -1.00, 575.0, 743.0)">A</text><text xml:space="preserve" font-family="Avenir-Light" font-size="20.2" fill="#FEFFFF" transform="matrix(1.00, 0.00, -0.00, -1.00, 592.1, 743.0)">I</text><text xml:space="preserve" font-family="Avenir-Light" font-size="20.2" fill="#FEFFFF" transform="matrix(1.00, 0.00, -0.00, -1.00, 600.6, 743.0)">N</text><text xml:space="preserve" font-family="Avenir-Light" font-size="20.2" fill="#FEFFFF" transform="matrix(1.00, 0.00, -0.00, -1.00, 619.6, 743.0)">E</text><text xml:space="preserve" font-family="Avenir-Light" font-size="20.2" fill="#FEFFFF" transform="matrix(1.00, 0.00, -0.00, -1.00, 634.8, 743.0)">S</text><text xml:space="preserve" font-family="Avenir-Light" font-size="20.2" fill="#FEFFFF" transform="matrix(1.00, 0.00, -0.00, -1.00, 649.3, 743.0)"> </text><text xml:space="preserve" font-family="Avenir-Light" font-size="20.2" fill="#FEFFFF" transform="matrix(1.00, 0.00, -0.00, -1.00, 657.8, 743.0)">J</text><text xml:space="preserve" font-family="Avenir-Light" font-size="20.2" fill="#FEFFFF" transform="matrix(1.00, 0.00, -0.00, -1.00, 670.8, 743.0)">U</text><text xml:space="preserve" font-family="Avenir-Light" font-size="20.2" fill="#FEFFFF" transform="matrix(1.00, 0.00, -0.00, -1.00, 687.9, 743.0)">N</text><text xml:space="preserve" font-family="Avenir-Light" font-size="20.2" fill="#FEFFFF" transform="matrix(1.00, 0.00, -0.00, -1.00, 706.9, 743.0)">C</text><text xml:space="preserve" font-family="Avenir-Light" font-size="20.2" fill="#FEFFFF" transform="matrix(1.00, 0.00, -0.00, -1.00, 724.4, 743.0)">T</text><text xml:space="preserve" font-family="Avenir-Light" font-size="20.2" fill="#FEFFFF" transform="matrix(1.00, 0.00, -0.00, -1.00, 739.3, 743.0)">I</text><text xml:space="preserve" font-family="Avenir-Light" font-size="20.2" fill="#FEFFFF" transform="matrix(1.00, 0.00, -0.00, -1.00, 747.8, 743.0)">O</text><text xml:space="preserve" font-family="Avenir-Light" font-size="20.2" fill="#FEFFFF" transform="matrix(1.00, 0.00, -0.00, -1.00, 767.9, 743.0)">N</text><text xml:space="preserve" font-family="Avenir-Light" font-size="20.2" fill="#FEFFFF" transform="matrix(1.00, 0.00, -0.00, -1.00, 786.9, 743.0)"> </text><text xml:space="preserve" font-family="Avenir-Light" font-size="20.2" fill="#FEFFFF" transform="matrix(1.00, 0.00, -0.00, -1.00, 795.4, 743.0)">Y</text><text xml:space="preserve" font-family="Avenir-Light" font-size="20.2" fill="#FEFFFF" transform="matrix(1.00, 0.00, -0.00, -1.00, 810.3, 743.0)">T</text></g></svg>