<?xml version="1.0" encoding="UTF-8"?><svg xmlns="http://www.w3.org/2000/svg" xmlns:xlink="http://www.w3.org/1999/xlink" clip-rule="evenodd" stroke-miterlimit="4.00" viewBox="0 0 1024 768"><desc>SVG generated by Keynote</desc><defs></defs><g transform="matrix(1.00, 0.00, -0.00, -1.00, 0.0, 768.0)"><path d="M 0.0 768.0 L 1024.0 768.0 L 1024.0 0.0 L 0.0 0.0 Z M 0.0 768.0 " fill="#000000"></path><g><clipPath id="clip-218"><path d="M 0.0 768.0 L 1024.0 768.0 L 1024.0 34.0 L 0.0 34.0 Z M 0.0 768.3 "></path></clipPath><g clip-path="url(#clip-218)"><image xlink:href="C77E4E3C89FFA13A20507814F274089D.jpeg" width="1155.00" height="768.00" transform="matrix(1.00, 0.00, -0.00, -1.00, -65.0, 802.0)"></image></g></g><text xml:space="preserve" font-family="Avenir-Light" font-size="20.7" fill="#FEFFFF" transform="matrix(1.00, 0.00, -0.00, -1.00, 215.0, 9.0)">A</text><text xml:space="preserve" font-family="Avenir-Light" font-size="20.7" fill="#FEFFFF" transform="matrix(1.00, 0.00, -0.00, -1.00, 232.5, 9.0)">L</text><text xml:space="preserve" font-family="Avenir-Light" font-size="20.7" fill="#FEFFFF" transform="matrix(1.00, 0.00, -0.00, -1.00, 246.2, 9.0)">A</text><text xml:space="preserve" font-family="Avenir-Light" font-size="20.7" fill="#FEFFFF" transform="matrix(1.00, 0.00, -0.00, -1.00, 263.6, 9.0)">S</text><text xml:space="preserve" font-family="Avenir-Light" font-size="20.7" fill="#FEFFFF" transform="matrix(1.00, 0.00, -0.00, -1.00, 278.5, 9.0)">K</text><text xml:space="preserve" font-family="Avenir-Light" font-size="20.7" fill="#FEFFFF" transform="matrix(1.00, 0.00, -0.00, -1.00, 294.4, 9.0)">A</text><text xml:space="preserve" font-family="Avenir-Light" font-size="20.7" fill="#FEFFFF" transform="matrix(1.00, 0.00, -0.00, -1.00, 311.9, 9.0)"> </text><text xml:space="preserve" font-family="Avenir-Light" font-size="20.7" fill="#FEFFFF" transform="matrix(1.00, 0.00, -0.00, -1.00, 320.6, 9.0)">H</text><text xml:space="preserve" font-family="Avenir-Light" font-size="20.7" fill="#FEFFFF" transform="matrix(1.00, 0.00, -0.00, -1.00, 338.9, 9.0)">I</text><text xml:space="preserve" font-family="Avenir-Light" font-size="20.7" fill="#FEFFFF" transform="matrix(1.00, 0.00, -0.00, -1.00, 347.6, 9.0)">G</text><text xml:space="preserve" font-family="Avenir-Light" font-size="20.7" fill="#FEFFFF" transform="matrix(1.00, 0.00, -0.00, -1.00, 367.0, 9.0)">H</text><text xml:space="preserve" font-family="Avenir-Light" font-size="20.7" fill="#FEFFFF" transform="matrix(1.00, 0.00, -0.00, -1.00, 385.2, 9.0)">W</text><text xml:space="preserve" font-family="Avenir-Light" font-size="20.7" fill="#FEFFFF" transform="matrix(1.00, 0.00, -0.00, -1.00, 407.7, 9.0)">A</text><text xml:space="preserve" font-family="Avenir-Light" font-size="20.7" fill="#FEFFFF" transform="matrix(1.00, 0.00, -0.00, -1.00, 423.7, 9.0)">Y</text><text xml:space="preserve" font-family="Avenir-Light" font-size="20.7" fill="#FEFFFF" transform="matrix(1.00, 0.00, -0.00, -1.00, 438.9, 9.0)"> </text><text xml:space="preserve" font-family="Avenir-Light" font-size="20.7" fill="#FEFFFF" transform="matrix(1.00, 0.00, -0.00, -1.00, 447.6, 9.0)">T</text><text xml:space="preserve" font-family="Avenir-Light" font-size="20.7" fill="#FEFFFF" transform="matrix(1.00, 0.00, -0.00, -1.00, 462.8, 9.0)">O</text><text xml:space="preserve" font-family="Avenir-Light" font-size="20.7" fill="#FEFFFF" transform="matrix(1.00, 0.00, -0.00, -1.00, 483.3, 9.0)">W</text><text xml:space="preserve" font-family="Avenir-Light" font-size="20.7" fill="#FEFFFF" transform="matrix(1.00, 0.00, -0.00, -1.00, 505.8, 9.0)">A</text><text xml:space="preserve" font-family="Avenir-Light" font-size="20.7" fill="#FEFFFF" transform="matrix(1.00, 0.00, -0.00, -1.00, 523.3, 9.0)">R</text><text xml:space="preserve" font-family="Avenir-Light" font-size="20.7" fill="#FEFFFF" transform="matrix(1.00, 0.00, -0.00, -1.00, 538.9, 9.0)">D</text><text xml:space="preserve" font-family="Avenir-Light" font-size="20.7" fill="#FEFFFF" transform="matrix(1.00, 0.00, -0.00, -1.00, 557.5, 9.0)"> </text><text xml:space="preserve" font-family="Avenir-Light" font-size="20.7" fill="#FEFFFF" transform="matrix(1.00, 0.00, -0.00, -1.00, 566.2, 9.0)">H</text><text xml:space="preserve" font-family="Avenir-Light" font-size="20.7" fill="#FEFFFF" transform="matrix(1.00, 0.00, -0.00, -1.00, 584.5, 9.0)">A</text><text xml:space="preserve" font-family="Avenir-Light" font-size="20.7" fill="#FEFFFF" transform="matrix(1.00, 0.00, -0.00, -1.00, 602.0, 9.0)">I</text><text xml:space="preserve" font-family="Avenir-Light" font-size="20.7" fill="#FEFFFF" transform="matrix(1.00, 0.00, -0.00, -1.00, 610.7, 9.0)">N</text><text xml:space="preserve" font-family="Avenir-Light" font-size="20.7" fill="#FEFFFF" transform="matrix(1.00, 0.00, -0.00, -1.00, 630.1, 9.0)">E</text><text xml:space="preserve" font-family="Avenir-Light" font-size="20.7" fill="#FEFFFF" transform="matrix(1.00, 0.00, -0.00, -1.00, 645.7, 9.0)">S</text><text xml:space="preserve" font-family="Avenir-Light" font-size="20.7" fill="#FEFFFF" transform="matrix(1.00, 0.00, -0.00, -1.00, 660.5, 9.0)"> </text><text xml:space="preserve" font-family="Avenir-Light" font-size="20.7" fill="#FEFFFF" transform="matrix(1.00, 0.00, -0.00, -1.00, 669.2, 9.0)">J</text><text xml:space="preserve" font-family="Avenir-Light" font-size="20.7" fill="#FEFFFF" transform="matrix(1.00, 0.00, -0.00, -1.00, 682.5, 9.0)">U</text><text xml:space="preserve" font-family="Avenir-Light" font-size="20.7" fill="#FEFFFF" transform="matrix(1.00, 0.00, -0.00, -1.00, 700.0, 9.0)">N</text><text xml:space="preserve" font-family="Avenir-Light" font-size="20.7" fill="#FEFFFF" transform="matrix(1.00, 0.00, -0.00, -1.00, 719.4, 9.0)">C</text><text xml:space="preserve" font-family="Avenir-Light" font-size="20.7" fill="#FEFFFF" transform="matrix(1.00, 0.00, -0.00, -1.00, 737.3, 9.0)">T</text><text xml:space="preserve" font-family="Avenir-Light" font-size="20.7" fill="#FEFFFF" transform="matrix(1.00, 0.00, -0.00, -1.00, 752.5, 9.0)">I</text><text xml:space="preserve" font-family="Avenir-Light" font-size="20.7" fill="#FEFFFF" transform="matrix(1.00, 0.00, -0.00, -1.00, 761.1, 9.0)">O</text><text xml:space="preserve" font-family="Avenir-Light" font-size="20.7" fill="#FEFFFF" transform="matrix(1.00, 0.00, -0.00, -1.00, 781.7, 9.0)">N</text><text xml:space="preserve" font-family="Avenir-Light" font-size="20.7" fill="#FEFFFF" transform="matrix(1.00, 0.00, -0.00, -1.00, 801.1, 9.0)"> </text></g></svg>