<?xml version="1.0" encoding="UTF-8"?><svg xmlns="http://www.w3.org/2000/svg" xmlns:xlink="http://www.w3.org/1999/xlink" clip-rule="evenodd" stroke-miterlimit="4.00" viewBox="0 0 1024 768"><desc>SVG generated by Keynote</desc><defs></defs><g transform="matrix(1.00, 0.00, -0.00, -1.00, 0.0, 768.0)"><path d="M 0.0 768.0 L 1024.0 768.0 L 1024.0 0.0 L 0.0 0.0 Z M 0.0 768.0 " fill="#000000"></path><g><clipPath id="clip-141"><path d="M 0.0 -2.0 L 1024.0 -2.0 L 1024.0 552.0 L 0.0 552.0 Z M 0.0 -2.0 "></path></clipPath><g clip-path="url(#clip-141)"><image xlink:href="../../CE7A090F-1A0D-4E64-A252-6DB4D7795F7E/assets/FE50E317A15CF3E1362E29417DC65910.jpeg" width="1024.00" height="681.00" transform="matrix(1.00, 0.00, -0.00, -1.00, 0.0, 687.0)"></image></g></g><text xml:space="preserve" font-family="Avenir-Light" font-size="62.0" fill="#FEFFFF" transform="matrix(1.00, 0.00, -0.00, -1.00, 56.0, 623.0)">C</text><text xml:space="preserve" font-family="Avenir-Light" font-size="62.0" fill="#FEFFFF" transform="matrix(1.00, 0.00, -0.00, -1.00, 109.6, 623.0)">A</text><text xml:space="preserve" font-family="Avenir-Light" font-size="62.0" fill="#FEFFFF" transform="matrix(1.00, 0.00, -0.00, -1.00, 162.0, 623.0)">R</text><text xml:space="preserve" font-family="Avenir-Light" font-size="62.0" fill="#FEFFFF" transform="matrix(1.00, 0.00, -0.00, -1.00, 208.6, 623.0)">I</text><text xml:space="preserve" font-family="Avenir-Light" font-size="62.0" fill="#FEFFFF" transform="matrix(1.00, 0.00, -0.00, -1.00, 234.7, 623.0)">B</text><text xml:space="preserve" font-family="Avenir-Light" font-size="62.0" fill="#FEFFFF" transform="matrix(1.00, 0.00, -0.00, -1.00, 283.7, 623.0)">O</text><text xml:space="preserve" font-family="Avenir-Light" font-size="62.0" fill="#FEFFFF" transform="matrix(1.00, 0.00, -0.00, -1.00, 345.3, 623.0)">O</text><text xml:space="preserve" font-family="Avenir-Light" font-size="62.0" fill="#FEFFFF" transform="matrix(1.00, 0.00, -0.00, -1.00, 406.9, 623.0)"> </text><text xml:space="preserve" font-family="Avenir-Light" font-size="62.0" fill="#FEFFFF" transform="matrix(1.00, 0.00, -0.00, -1.00, 433.0, 623.0)">M</text><text xml:space="preserve" font-family="Avenir-Light" font-size="62.0" fill="#FEFFFF" transform="matrix(1.00, 0.00, -0.00, -1.00, 498.0, 623.0)">O</text><text xml:space="preserve" font-family="Avenir-Light" font-size="62.0" fill="#FEFFFF" transform="matrix(1.00, 0.00, -0.00, -1.00, 559.6, 623.0)">U</text><text xml:space="preserve" font-family="Avenir-Light" font-size="62.0" fill="#FEFFFF" transform="matrix(1.00, 0.00, -0.00, -1.00, 612.0, 623.0)">N</text><text xml:space="preserve" font-family="Avenir-Light" font-size="62.0" fill="#FEFFFF" transform="matrix(1.00, 0.00, -0.00, -1.00, 670.1, 623.0)">T</text><text xml:space="preserve" font-family="Avenir-Light" font-size="62.0" fill="#FEFFFF" transform="matrix(1.00, 0.00, -0.00, -1.00, 711.4, 623.0)">A</text><text xml:space="preserve" font-family="Avenir-Light" font-size="62.0" fill="#FEFFFF" transform="matrix(1.00, 0.00, -0.00, -1.00, 763.8, 623.0)">I</text><text xml:space="preserve" font-family="Avenir-Light" font-size="62.0" fill="#FEFFFF" transform="matrix(1.00, 0.00, -0.00, -1.00, 789.8, 623.0)">N</text><text xml:space="preserve" font-family="Avenir-Book" font-size="23.3" fill="#FEFFFE" transform="matrix(1.00, 0.00, -0.00, -1.00, 56.0, 701.0)">H</text><text xml:space="preserve" font-family="Avenir-Book" font-size="23.3" fill="#FEFFFE" transform="matrix(1.00, 0.00, -0.00, -1.00, 76.5, 701.0)">I</text><text xml:space="preserve" font-family="Avenir-Book" font-size="23.3" fill="#FEFFFE" transform="matrix(1.00, 0.00, -0.00, -1.00, 86.4, 701.0)">K</text><text xml:space="preserve" font-family="Avenir-Book" font-size="23.3" fill="#FEFFFE" transform="matrix(1.00, 0.00, -0.00, -1.00, 104.8, 701.0)">I</text><text xml:space="preserve" font-family="Avenir-Book" font-size="23.3" fill="#FEFFFE" transform="matrix(1.00, 0.00, -0.00, -1.00, 114.7, 701.0)">N</text><text xml:space="preserve" font-family="Avenir-Book" font-size="23.3" fill="#FEFFFE" transform="matrix(1.00, 0.00, -0.00, -1.00, 136.5, 701.0)">G</text><text xml:space="preserve" font-family="Avenir-Light" font-size="18.0" fill="#FEFFFF" transform="matrix(1.00, 0.00, -0.00, -1.00, 73.0, 565.0)">O</text><text xml:space="preserve" font-family="Avenir-Light" font-size="18.0" fill="#FEFFFF" transform="matrix(1.00, 0.00, -0.00, -1.00, 90.9, 565.0)">N</text><text xml:space="preserve" font-family="Avenir-Light" font-size="18.0" fill="#FEFFFF" transform="matrix(1.00, 0.00, -0.00, -1.00, 107.8, 565.0)"> </text><text xml:space="preserve" font-family="Avenir-Light" font-size="18.0" fill="#FEFFFF" transform="matrix(1.00, 0.00, -0.00, -1.00, 115.3, 565.0)">R</text><text xml:space="preserve" font-family="Avenir-Light" font-size="18.0" fill="#FEFFFF" transform="matrix(1.00, 0.00, -0.00, -1.00, 128.9, 565.0)">I</text><text xml:space="preserve" font-family="Avenir-Light" font-size="18.0" fill="#FEFFFF" transform="matrix(1.00, 0.00, -0.00, -1.00, 136.4, 565.0)">D</text><text xml:space="preserve" font-family="Avenir-Light" font-size="18.0" fill="#FEFFFF" transform="matrix(1.00, 0.00, -0.00, -1.00, 152.7, 565.0)">G</text><text xml:space="preserve" font-family="Avenir-Light" font-size="18.0" fill="#FEFFFF" transform="matrix(1.00, 0.00, -0.00, -1.00, 169.6, 565.0)">E</text><text xml:space="preserve" font-family="Avenir-Light" font-size="18.0" fill="#FEFFFF" transform="matrix(1.00, 0.00, -0.00, -1.00, 183.1, 565.0)"> </text><text xml:space="preserve" font-family="Avenir-Light" font-size="18.0" fill="#FEFFFF" transform="matrix(1.00, 0.00, -0.00, -1.00, 190.7, 565.0)">O</text><text xml:space="preserve" font-family="Avenir-Light" font-size="18.0" fill="#FEFFFF" transform="matrix(1.00, 0.00, -0.00, -1.00, 208.6, 565.0)">V</text><text xml:space="preserve" font-family="Avenir-Light" font-size="18.0" fill="#FEFFFF" transform="matrix(1.00, 0.00, -0.00, -1.00, 222.1, 565.0)">E</text><text xml:space="preserve" font-family="Avenir-Light" font-size="18.0" fill="#FEFFFF" transform="matrix(1.00, 0.00, -0.00, -1.00, 235.7, 565.0)">R</text><text xml:space="preserve" font-family="Avenir-Light" font-size="18.0" fill="#FEFFFF" transform="matrix(1.00, 0.00, -0.00, -1.00, 249.2, 565.0)">L</text><text xml:space="preserve" font-family="Avenir-Light" font-size="18.0" fill="#FEFFFF" transform="matrix(1.00, 0.00, -0.00, -1.00, 261.1, 565.0)">O</text><text xml:space="preserve" font-family="Avenir-Light" font-size="18.0" fill="#FEFFFF" transform="matrix(1.00, 0.00, -0.00, -1.00, 279.0, 565.0)">O</text><text xml:space="preserve" font-family="Avenir-Light" font-size="18.0" fill="#FEFFFF" transform="matrix(1.00, 0.00, -0.00, -1.00, 296.9, 565.0)">K</text><text xml:space="preserve" font-family="Avenir-Light" font-size="18.0" fill="#FEFFFF" transform="matrix(1.00, 0.00, -0.00, -1.00, 310.8, 565.0)">I</text><text xml:space="preserve" font-family="Avenir-Light" font-size="18.0" fill="#FEFFFF" transform="matrix(1.00, 0.00, -0.00, -1.00, 318.3, 565.0)">N</text><text xml:space="preserve" font-family="Avenir-Light" font-size="18.0" fill="#FEFFFF" transform="matrix(1.00, 0.00, -0.00, -1.00, 335.2, 565.0)">G</text><text xml:space="preserve" font-family="Avenir-Light" font-size="18.0" fill="#FEFFFF" transform="matrix(1.00, 0.00, -0.00, -1.00, 352.1, 565.0)"> </text><text xml:space="preserve" font-family="Avenir-Light" font-size="18.0" fill="#FEFFFF" transform="matrix(1.00, 0.00, -0.00, -1.00, 359.6, 565.0)">C</text><text xml:space="preserve" font-family="Avenir-Light" font-size="18.0" fill="#FEFFFF" transform="matrix(1.00, 0.00, -0.00, -1.00, 375.2, 565.0)">A</text><text xml:space="preserve" font-family="Avenir-Light" font-size="18.0" fill="#FEFFFF" transform="matrix(1.00, 0.00, -0.00, -1.00, 390.4, 565.0)">R</text><text xml:space="preserve" font-family="Avenir-Light" font-size="18.0" fill="#FEFFFF" transform="matrix(1.00, 0.00, -0.00, -1.00, 404.0, 565.0)">C</text><text xml:space="preserve" font-family="Avenir-Light" font-size="18.0" fill="#FEFFFF" transform="matrix(1.00, 0.00, -0.00, -1.00, 419.5, 565.0)">R</text><text xml:space="preserve" font-family="Avenir-Light" font-size="18.0" fill="#FEFFFF" transform="matrix(1.00, 0.00, -0.00, -1.00, 433.1, 565.0)">O</text><text xml:space="preserve" font-family="Avenir-Light" font-size="18.0" fill="#FEFFFF" transform="matrix(1.00, 0.00, -0.00, -1.00, 451.0, 565.0)">S</text><text xml:space="preserve" font-family="Avenir-Light" font-size="18.0" fill="#FEFFFF" transform="matrix(1.00, 0.00, -0.00, -1.00, 463.9, 565.0)">S</text><text xml:space="preserve" font-family="Avenir-Light" font-size="18.0" fill="#FEFFFF" transform="matrix(1.00, 0.00, -0.00, -1.00, 476.7, 565.0)"> </text><text xml:space="preserve" font-family="Avenir-Light" font-size="18.0" fill="#FEFFFF" transform="matrix(1.00, 0.00, -0.00, -1.00, 484.3, 565.0)">Y</text><text xml:space="preserve" font-family="Avenir-Light" font-size="18.0" fill="#FEFFFF" transform="matrix(1.00, 0.00, -0.00, -1.00, 497.5, 565.0)">T</text><text xml:space="preserve" font-family="Avenir-Light" font-size="18.0" fill="#FEFFFF" transform="matrix(1.00, 0.00, -0.00, -1.00, 508.7, 565.0)">,</text><text xml:space="preserve" font-family="Avenir-Light" font-size="18.0" fill="#FEFFFF" transform="matrix(1.00, 0.00, -0.00, -1.00, 516.3, 565.0)"> </text><text xml:space="preserve" font-family="Avenir-Light" font-size="18.0" fill="#FEFFFF" transform="matrix(1.00, 0.00, -0.00, -1.00, 523.8, 565.0)">D</text><text xml:space="preserve" font-family="Avenir-Light" font-size="18.0" fill="#FEFFFF" transform="matrix(1.00, 0.00, -0.00, -1.00, 540.1, 565.0)">A</text><text xml:space="preserve" font-family="Avenir-Light" font-size="18.0" fill="#FEFFFF" transform="matrix(1.00, 0.00, -0.00, -1.00, 553.9, 565.0)">Y</text><text xml:space="preserve" font-family="Avenir-Light" font-size="18.0" fill="#FEFFFF" transform="matrix(1.00, 0.00, -0.00, -1.00, 567.2, 565.0)"> </text><text xml:space="preserve" font-family="Avenir-Light" font-size="18.0" fill="#FEFFFF" transform="matrix(1.00, 0.00, -0.00, -1.00, 574.7, 565.0)">5</text><text xml:space="preserve" font-family="Avenir-Light" font-size="18.0" fill="#FEFFFF" transform="matrix(1.00, 0.00, -0.00, -1.00, 587.0, 565.0)"> </text><text xml:space="preserve" font-family="Avenir-Light" font-size="18.0" fill="#FEFFFF" transform="matrix(1.00, 0.00, -0.00, -1.00, 594.5, 565.0)">(</text><text xml:space="preserve" font-family="Avenir-Light" font-size="18.0" fill="#FEFFFF" transform="matrix(1.00, 0.00, -0.00, -1.00, 602.1, 565.0)">1</text><text xml:space="preserve" font-family="Avenir-Light" font-size="18.0" fill="#FEFFFF" transform="matrix(1.00, 0.00, -0.00, -1.00, 614.3, 565.0)">4</text><text xml:space="preserve" font-family="Avenir-Light" font-size="18.0" fill="#FEFFFF" transform="matrix(1.00, 0.00, -0.00, -1.00, 626.6, 565.0)">7</text><text xml:space="preserve" font-family="Avenir-Light" font-size="18.0" fill="#FEFFFF" transform="matrix(1.00, 0.00, -0.00, -1.00, 638.8, 565.0)"> </text><text xml:space="preserve" font-family="Avenir-Light" font-size="18.0" fill="#FEFFFF" transform="matrix(1.00, 0.00, -0.00, -1.00, 646.4, 565.0)">K</text><text xml:space="preserve" font-family="Avenir-Light" font-size="18.0" fill="#FEFFFF" transform="matrix(1.00, 0.00, -0.00, -1.00, 660.2, 565.0)">M</text><text xml:space="preserve" font-family="Avenir-Light" font-size="18.0" fill="#FEFFFF" transform="matrix(1.00, 0.00, -0.00, -1.00, 679.1, 565.0)">)</text><text xml:space="preserve" font-family="Avenir-Light" font-size="18.0" fill="#FEFFFF" transform="matrix(1.00, 0.00, -0.00, -1.00, 686.7, 565.0)">,</text><text xml:space="preserve" font-family="Avenir-Light" font-size="18.0" fill="#FEFFFF" transform="matrix(1.00, 0.00, -0.00, -1.00, 694.2, 565.0)"> </text><text xml:space="preserve" font-family="Avenir-Light" font-size="18.0" fill="#FEFFFF" transform="matrix(1.00, 0.00, -0.00, -1.00, 701.8, 565.0)">1</text><text xml:space="preserve" font-family="Avenir-Light" font-size="18.0" fill="#FEFFFF" transform="matrix(1.00, 0.00, -0.00, -1.00, 714.0, 565.0)">0</text><text xml:space="preserve" font-family="Avenir-Light" font-size="18.0" fill="#FEFFFF" transform="matrix(1.00, 0.00, -0.00, -1.00, 726.3, 565.0)"> </text><text xml:space="preserve" font-family="Avenir-Light" font-size="18.0" fill="#FEFFFF" transform="matrix(1.00, 0.00, -0.00, -1.00, 733.8, 565.0)">K</text><text xml:space="preserve" font-family="Avenir-Light" font-size="18.0" fill="#FEFFFF" transform="matrix(1.00, 0.00, -0.00, -1.00, 747.7, 565.0)">M</text><text xml:space="preserve" font-family="Avenir-Light" font-size="18.0" fill="#FEFFFF" transform="matrix(1.00, 0.00, -0.00, -1.00, 766.6, 565.0)"> </text><text xml:space="preserve" font-family="Avenir-Light" font-size="18.0" fill="#FEFFFF" transform="matrix(1.00, 0.00, -0.00, -1.00, 774.2, 565.0)">H</text><text xml:space="preserve" font-family="Avenir-Light" font-size="18.0" fill="#FEFFFF" transform="matrix(1.00, 0.00, -0.00, -1.00, 790.0, 565.0)">I</text><text xml:space="preserve" font-family="Avenir-Light" font-size="18.0" fill="#FEFFFF" transform="matrix(1.00, 0.00, -0.00, -1.00, 797.6, 565.0)">K</text><text xml:space="preserve" font-family="Avenir-Light" font-size="18.0" fill="#FEFFFF" transform="matrix(1.00, 0.00, -0.00, -1.00, 811.5, 565.0)">E</text><text xml:space="preserve" font-family="Avenir-Light" font-size="18.0" fill="#FEFFFF" transform="matrix(1.00, 0.00, -0.00, -1.00, 825.0, 565.0)"> </text><text xml:space="preserve" font-family="Avenir-Light" font-size="18.0" fill="#FEFFFF" transform="matrix(1.00, 0.00, -0.00, -1.00, 832.6, 565.0)">E</text><text xml:space="preserve" font-family="Avenir-Light" font-size="18.0" fill="#FEFFFF" transform="matrix(1.00, 0.00, -0.00, -1.00, 846.1, 565.0)">L</text><text xml:space="preserve" font-family="Avenir-Light" font-size="18.0" fill="#FEFFFF" transform="matrix(1.00, 0.00, -0.00, -1.00, 858.0, 565.0)">E</text><text xml:space="preserve" font-family="Avenir-Light" font-size="18.0" fill="#FEFFFF" transform="matrix(1.00, 0.00, -0.00, -1.00, 871.6, 565.0)">V</text><text xml:space="preserve" font-family="Avenir-Light" font-size="18.0" fill="#FEFFFF" transform="matrix(1.00, 0.00, -0.00, -1.00, 882.8, 565.0)">.</text><text xml:space="preserve" font-family="Avenir-Light" font-size="18.0" fill="#FEFFFF" transform="matrix(1.00, 0.00, -0.00, -1.00, 890.4, 565.0)"> </text><text xml:space="preserve" font-family="Avenir-Light" font-size="18.0" fill="#FEFFFF" transform="matrix(1.00, 0.00, -0.00, -1.00, 897.9, 565.0)">1</text><text xml:space="preserve" font-family="Avenir-Light" font-size="18.0" fill="#FEFFFF" transform="matrix(1.00, 0.00, -0.00, -1.00, 910.2, 565.0)"> </text><text xml:space="preserve" font-family="Avenir-Light" font-size="18.0" fill="#FEFFFF" transform="matrix(1.00, 0.00, -0.00, -1.00, 917.7, 565.0)">K</text><text xml:space="preserve" font-family="Avenir-Light" font-size="18.0" fill="#FEFFFF" transform="matrix(1.00, 0.00, -0.00, -1.00, 931.6, 565.0)">M</text></g></svg>