<?xml version="1.0" encoding="UTF-8"?><svg xmlns="http://www.w3.org/2000/svg" xmlns:xlink="http://www.w3.org/1999/xlink" clip-rule="evenodd" stroke-miterlimit="4.00" viewBox="0 0 1024 768"><desc>SVG generated by Keynote</desc><defs></defs><g transform="matrix(1.00, 0.00, -0.00, -1.00, 0.0, 768.0)"><path d="M 0.0 768.0 L 1024.0 768.0 L 1024.0 0.0 L 0.0 0.0 Z M 0.0 768.0 " fill="#000000"></path><g><clipPath id="clip-235"><path d="M 0.0 0.0 L 1024.0 0.0 L 1024.0 554.0 L 0.0 554.0 Z M 0.0 0.0 "></path></clipPath><g clip-path="url(#clip-235)"><image xlink:href="../../57A2A6CB-D881-405B-AE10-B3078CEC3D88/assets/56B45E5E9480B8D422164A2CF6EDC2A0.jpeg" width="1024.00" height="681.00" transform="matrix(1.00, 0.00, -0.00, -1.00, 0.0, 617.0)"></image></g></g><text xml:space="preserve" font-family="Avenir-Light" font-size="62.0" fill="#FEFFFF" transform="matrix(1.00, 0.00, -0.00, -1.00, 62.0, 624.0)">M</text><text xml:space="preserve" font-family="Avenir-Light" font-size="62.0" fill="#FEFFFF" transform="matrix(1.00, 0.00, -0.00, -1.00, 127.0, 624.0)">O</text><text xml:space="preserve" font-family="Avenir-Light" font-size="62.0" fill="#FEFFFF" transform="matrix(1.00, 0.00, -0.00, -1.00, 188.7, 624.0)">U</text><text xml:space="preserve" font-family="Avenir-Light" font-size="62.0" fill="#FEFFFF" transform="matrix(1.00, 0.00, -0.00, -1.00, 241.0, 624.0)">N</text><text xml:space="preserve" font-family="Avenir-Light" font-size="62.0" fill="#FEFFFF" transform="matrix(1.00, 0.00, -0.00, -1.00, 299.1, 624.0)">T</text><text xml:space="preserve" font-family="Avenir-Light" font-size="62.0" fill="#FEFFFF" transform="matrix(1.00, 0.00, -0.00, -1.00, 340.4, 624.0)">A</text><text xml:space="preserve" font-family="Avenir-Light" font-size="62.0" fill="#FEFFFF" transform="matrix(1.00, 0.00, -0.00, -1.00, 392.8, 624.0)">I</text><text xml:space="preserve" font-family="Avenir-Light" font-size="62.0" fill="#FEFFFF" transform="matrix(1.00, 0.00, -0.00, -1.00, 418.9, 624.0)">N</text><text xml:space="preserve" font-family="Avenir-Light" font-size="62.0" fill="#FEFFFF" transform="matrix(1.00, 0.00, -0.00, -1.00, 477.0, 624.0)"> </text><text xml:space="preserve" font-family="Avenir-Light" font-size="62.0" fill="#FEFFFF" transform="matrix(1.00, 0.00, -0.00, -1.00, 503.1, 624.0)">H</text><text xml:space="preserve" font-family="Avenir-Light" font-size="62.0" fill="#FEFFFF" transform="matrix(1.00, 0.00, -0.00, -1.00, 557.8, 624.0)">E</text><text xml:space="preserve" font-family="Avenir-Light" font-size="62.0" fill="#FEFFFF" transform="matrix(1.00, 0.00, -0.00, -1.00, 604.4, 624.0)">R</text><text xml:space="preserve" font-family="Avenir-Light" font-size="62.0" fill="#FEFFFF" transform="matrix(1.00, 0.00, -0.00, -1.00, 651.1, 624.0)">O</text><text xml:space="preserve" font-family="Avenir-Light" font-size="62.0" fill="#FEFFFF" transform="matrix(1.00, 0.00, -0.00, -1.00, 712.8, 624.0)"> </text><text xml:space="preserve" font-family="Avenir-Light" font-size="62.0" fill="#FEFFFF" transform="matrix(1.00, 0.00, -0.00, -1.00, 738.8, 624.0)">T</text><text xml:space="preserve" font-family="Avenir-Light" font-size="62.0" fill="#FEFFFF" transform="matrix(1.00, 0.00, -0.00, -1.00, 784.3, 624.0)">R</text><text xml:space="preserve" font-family="Avenir-Light" font-size="62.0" fill="#FEFFFF" transform="matrix(1.00, 0.00, -0.00, -1.00, 831.0, 624.0)">A</text><text xml:space="preserve" font-family="Avenir-Light" font-size="62.0" fill="#FEFFFF" transform="matrix(1.00, 0.00, -0.00, -1.00, 883.4, 624.0)">I</text><text xml:space="preserve" font-family="Avenir-Light" font-size="62.0" fill="#FEFFFF" transform="matrix(1.00, 0.00, -0.00, -1.00, 909.4, 624.0)">L</text><text xml:space="preserve" font-family="Avenir-Book" font-size="23.3" fill="#FEFFFE" transform="matrix(1.00, 0.00, -0.00, -1.00, 62.0, 702.0)">H</text><text xml:space="preserve" font-family="Avenir-Book" font-size="23.3" fill="#FEFFFE" transform="matrix(1.00, 0.00, -0.00, -1.00, 82.5, 702.0)">I</text><text xml:space="preserve" font-family="Avenir-Book" font-size="23.3" fill="#FEFFFE" transform="matrix(1.00, 0.00, -0.00, -1.00, 92.4, 702.0)">K</text><text xml:space="preserve" font-family="Avenir-Book" font-size="23.3" fill="#FEFFFE" transform="matrix(1.00, 0.00, -0.00, -1.00, 110.8, 702.0)">I</text><text xml:space="preserve" font-family="Avenir-Book" font-size="23.3" fill="#FEFFFE" transform="matrix(1.00, 0.00, -0.00, -1.00, 120.7, 702.0)">N</text><text xml:space="preserve" font-family="Avenir-Book" font-size="23.3" fill="#FEFFFE" transform="matrix(1.00, 0.00, -0.00, -1.00, 142.5, 702.0)">G</text><text xml:space="preserve" font-family="Avenir-Light" font-size="21.6" fill="#FEFFFF" transform="matrix(1.00, 0.00, -0.00, -1.00, 101.0, 566.0)">S</text><text xml:space="preserve" font-family="Avenir-Light" font-size="21.6" fill="#FEFFFF" transform="matrix(1.00, 0.00, -0.00, -1.00, 116.5, 566.0)">I</text><text xml:space="preserve" font-family="Avenir-Light" font-size="21.6" fill="#FEFFFF" transform="matrix(1.00, 0.00, -0.00, -1.00, 125.5, 566.0)">L</text><text xml:space="preserve" font-family="Avenir-Light" font-size="21.6" fill="#FEFFFF" transform="matrix(1.00, 0.00, -0.00, -1.00, 137.8, 566.0)">V</text><text xml:space="preserve" font-family="Avenir-Light" font-size="21.6" fill="#FEFFFF" transform="matrix(1.00, 0.00, -0.00, -1.00, 154.1, 566.0)">E</text><text xml:space="preserve" font-family="Avenir-Light" font-size="21.6" fill="#FEFFFF" transform="matrix(1.00, 0.00, -0.00, -1.00, 170.3, 566.0)">R</text><text xml:space="preserve" font-family="Avenir-Light" font-size="21.6" fill="#FEFFFF" transform="matrix(1.00, 0.00, -0.00, -1.00, 186.6, 566.0)"> </text><text xml:space="preserve" font-family="Avenir-Light" font-size="21.6" fill="#FEFFFF" transform="matrix(1.00, 0.00, -0.00, -1.00, 195.7, 566.0)">M</text><text xml:space="preserve" font-family="Avenir-Light" font-size="21.6" fill="#FEFFFF" transform="matrix(1.00, 0.00, -0.00, -1.00, 218.3, 566.0)">I</text><text xml:space="preserve" font-family="Avenir-Light" font-size="21.6" fill="#FEFFFF" transform="matrix(1.00, 0.00, -0.00, -1.00, 227.4, 566.0)">N</text><text xml:space="preserve" font-family="Avenir-Light" font-size="21.6" fill="#FEFFFF" transform="matrix(1.00, 0.00, -0.00, -1.00, 247.7, 566.0)">I</text><text xml:space="preserve" font-family="Avenir-Light" font-size="21.6" fill="#FEFFFF" transform="matrix(1.00, 0.00, -0.00, -1.00, 256.7, 566.0)">N</text><text xml:space="preserve" font-family="Avenir-Light" font-size="21.6" fill="#FEFFFF" transform="matrix(1.00, 0.00, -0.00, -1.00, 277.0, 566.0)">G</text><text xml:space="preserve" font-family="Avenir-Light" font-size="21.6" fill="#FEFFFF" transform="matrix(1.00, 0.00, -0.00, -1.00, 297.3, 566.0)"> </text><text xml:space="preserve" font-family="Avenir-Light" font-size="21.6" fill="#FEFFFF" transform="matrix(1.00, 0.00, -0.00, -1.00, 306.3, 566.0)">A</text><text xml:space="preserve" font-family="Avenir-Light" font-size="21.6" fill="#FEFFFF" transform="matrix(1.00, 0.00, -0.00, -1.00, 324.6, 566.0)">R</text><text xml:space="preserve" font-family="Avenir-Light" font-size="21.6" fill="#FEFFFF" transform="matrix(1.00, 0.00, -0.00, -1.00, 341.0, 566.0)">T</text><text xml:space="preserve" font-family="Avenir-Light" font-size="21.6" fill="#FEFFFF" transform="matrix(1.00, 0.00, -0.00, -1.00, 356.8, 566.0)">I</text><text xml:space="preserve" font-family="Avenir-Light" font-size="21.6" fill="#FEFFFF" transform="matrix(1.00, 0.00, -0.00, -1.00, 365.9, 566.0)">F</text><text xml:space="preserve" font-family="Avenir-Light" font-size="21.6" fill="#FEFFFF" transform="matrix(1.00, 0.00, -0.00, -1.00, 380.2, 566.0)">A</text><text xml:space="preserve" font-family="Avenir-Light" font-size="21.6" fill="#FEFFFF" transform="matrix(1.00, 0.00, -0.00, -1.00, 398.4, 566.0)">C</text><text xml:space="preserve" font-family="Avenir-Light" font-size="21.6" fill="#FEFFFF" transform="matrix(1.00, 0.00, -0.00, -1.00, 417.1, 566.0)">T</text><text xml:space="preserve" font-family="Avenir-Light" font-size="21.6" fill="#FEFFFF" transform="matrix(1.00, 0.00, -0.00, -1.00, 432.9, 566.0)">S</text><text xml:space="preserve" font-family="Avenir-Light" font-size="21.6" fill="#FEFFFF" transform="matrix(1.00, 0.00, -0.00, -1.00, 448.4, 566.0)"> </text><text xml:space="preserve" font-family="Avenir-Light" font-size="21.6" fill="#FEFFFF" transform="matrix(1.00, 0.00, -0.00, -1.00, 457.5, 566.0)">(</text><text xml:space="preserve" font-family="Avenir-Light" font-size="21.6" fill="#FEFFFF" transform="matrix(1.00, 0.00, -0.00, -1.00, 466.6, 566.0)">C</text><text xml:space="preserve" font-family="Avenir-Light" font-size="21.6" fill="#FEFFFF" transform="matrix(1.00, 0.00, -0.00, -1.00, 485.2, 566.0)">.</text><text xml:space="preserve" font-family="Avenir-Light" font-size="21.6" fill="#FEFFFF" transform="matrix(1.00, 0.00, -0.00, -1.00, 494.3, 566.0)"> </text><text xml:space="preserve" font-family="Avenir-Light" font-size="21.6" fill="#FEFFFF" transform="matrix(1.00, 0.00, -0.00, -1.00, 503.4, 566.0)">1</text><text xml:space="preserve" font-family="Avenir-Light" font-size="21.6" fill="#FEFFFF" transform="matrix(1.00, 0.00, -0.00, -1.00, 518.1, 566.0)">9</text><text xml:space="preserve" font-family="Avenir-Light" font-size="21.6" fill="#FEFFFF" transform="matrix(1.00, 0.00, -0.00, -1.00, 532.7, 566.0)">0</text><text xml:space="preserve" font-family="Avenir-Light" font-size="21.6" fill="#FEFFFF" transform="matrix(1.00, 0.00, -0.00, -1.00, 547.4, 566.0)">5</text><text xml:space="preserve" font-family="Avenir-Light" font-size="21.6" fill="#FEFFFF" transform="matrix(1.00, 0.00, -0.00, -1.00, 562.1, 566.0)">)</text><text xml:space="preserve" font-family="Avenir-Light" font-size="21.6" fill="#FEFFFF" transform="matrix(1.00, 0.00, -0.00, -1.00, 571.2, 566.0)">,</text><text xml:space="preserve" font-family="Avenir-Light" font-size="21.6" fill="#FEFFFF" transform="matrix(1.00, 0.00, -0.00, -1.00, 580.3, 566.0)"> </text><text xml:space="preserve" font-family="Avenir-Light" font-size="21.6" fill="#FEFFFF" transform="matrix(1.00, 0.00, -0.00, -1.00, 589.3, 566.0)">C</text><text xml:space="preserve" font-family="Avenir-Light" font-size="21.6" fill="#FEFFFF" transform="matrix(1.00, 0.00, -0.00, -1.00, 608.0, 566.0)">O</text><text xml:space="preserve" font-family="Avenir-Light" font-size="21.6" fill="#FEFFFF" transform="matrix(1.00, 0.00, -0.00, -1.00, 629.5, 566.0)">N</text><text xml:space="preserve" font-family="Avenir-Light" font-size="21.6" fill="#FEFFFF" transform="matrix(1.00, 0.00, -0.00, -1.00, 649.7, 566.0)">R</text><text xml:space="preserve" font-family="Avenir-Light" font-size="21.6" fill="#FEFFFF" transform="matrix(1.00, 0.00, -0.00, -1.00, 666.0, 566.0)">A</text><text xml:space="preserve" font-family="Avenir-Light" font-size="21.6" fill="#FEFFFF" transform="matrix(1.00, 0.00, -0.00, -1.00, 684.2, 566.0)">D</text><text xml:space="preserve" font-family="Avenir-Light" font-size="21.6" fill="#FEFFFF" transform="matrix(1.00, 0.00, -0.00, -1.00, 703.7, 566.0)"> </text><text xml:space="preserve" font-family="Avenir-Light" font-size="21.6" fill="#FEFFFF" transform="matrix(1.00, 0.00, -0.00, -1.00, 712.8, 566.0)">Y</text><text xml:space="preserve" font-family="Avenir-Light" font-size="21.6" fill="#FEFFFF" transform="matrix(1.00, 0.00, -0.00, -1.00, 728.6, 566.0)">T</text><text xml:space="preserve" font-family="Avenir-Light" font-size="21.6" fill="#FEFFFF" transform="matrix(1.00, 0.00, -0.00, -1.00, 742.1, 566.0)">,</text><text xml:space="preserve" font-family="Avenir-Light" font-size="21.6" fill="#FEFFFF" transform="matrix(1.00, 0.00, -0.00, -1.00, 751.2, 566.0)"> </text><text xml:space="preserve" font-family="Avenir-Light" font-size="21.6" fill="#FEFFFF" transform="matrix(1.00, 0.00, -0.00, -1.00, 760.2, 566.0)">D</text><text xml:space="preserve" font-family="Avenir-Light" font-size="21.6" fill="#FEFFFF" transform="matrix(1.00, 0.00, -0.00, -1.00, 779.7, 566.0)">A</text><text xml:space="preserve" font-family="Avenir-Light" font-size="21.6" fill="#FEFFFF" transform="matrix(1.00, 0.00, -0.00, -1.00, 796.3, 566.0)">Y</text><text xml:space="preserve" font-family="Avenir-Light" font-size="21.6" fill="#FEFFFF" transform="matrix(1.00, 0.00, -0.00, -1.00, 812.2, 566.0)"> </text><text xml:space="preserve" font-family="Avenir-Light" font-size="21.6" fill="#FEFFFF" transform="matrix(1.00, 0.00, -0.00, -1.00, 821.3, 566.0)">6</text><text xml:space="preserve" font-family="Avenir-Light" font-size="21.6" fill="#FEFFFF" transform="matrix(1.00, 0.00, -0.00, -1.00, 836.0, 566.0)"> </text><text xml:space="preserve" font-family="Avenir-Light" font-size="21.6" fill="#FEFFFF" transform="matrix(1.00, 0.00, -0.00, -1.00, 845.0, 566.0)">(</text><text xml:space="preserve" font-family="Avenir-Light" font-size="21.6" fill="#FEFFFF" transform="matrix(1.00, 0.00, -0.00, -1.00, 854.1, 566.0)">0</text><text xml:space="preserve" font-family="Avenir-Light" font-size="21.6" fill="#FEFFFF" transform="matrix(1.00, 0.00, -0.00, -1.00, 868.8, 566.0)"> </text><text xml:space="preserve" font-family="Avenir-Light" font-size="21.6" fill="#FEFFFF" transform="matrix(1.00, 0.00, -0.00, -1.00, 877.9, 566.0)">K</text><text xml:space="preserve" font-family="Avenir-Light" font-size="21.6" fill="#FEFFFF" transform="matrix(1.00, 0.00, -0.00, -1.00, 894.5, 566.0)">M</text><text xml:space="preserve" font-family="Avenir-Light" font-size="21.6" fill="#FEFFFF" transform="matrix(1.00, 0.00, -0.00, -1.00, 917.2, 566.0)">)</text></g></svg>