<?xml version="1.0" encoding="UTF-8"?><svg xmlns="http://www.w3.org/2000/svg" xmlns:xlink="http://www.w3.org/1999/xlink" clip-rule="evenodd" stroke-miterlimit="4.00" viewBox="0 0 1024 768"><desc>SVG generated by Keynote</desc><defs></defs><g transform="matrix(1.00, 0.00, -0.00, -1.00, 0.0, 768.0)"><path d="M 0.0 768.0 L 1024.0 768.0 L 1024.0 0.0 L 0.0 0.0 Z M 0.0 768.0 " fill="#000000"></path><g><clipPath id="clip-140"><path d="M 0.0 0.0 L 1024.0 0.0 L 1024.0 768.0 L 0.0 768.0 Z M 0.0 0.0 "></path></clipPath><g clip-path="url(#clip-140)"><image xlink:href="7131AF8C7615FC5365303C4B2ACD8310.jpeg" width="1155.00" height="768.00" transform="matrix(1.00, 0.00, -0.00, -1.00, -65.0, 768.0)"></image></g></g><text xml:space="preserve" font-family="Avenir-Light" font-size="22.1" fill="#000000" transform="matrix(1.00, 0.00, -0.00, -1.00, 74.0, 741.0)">T</text><text xml:space="preserve" font-family="Avenir-Light" font-size="22.1" fill="#000000" transform="matrix(1.00, 0.00, -0.00, -1.00, 90.2, 741.0)">H</text><text xml:space="preserve" font-family="Avenir-Light" font-size="22.1" fill="#000000" transform="matrix(1.00, 0.00, -0.00, -1.00, 109.6, 741.0)">E</text><text xml:space="preserve" font-family="Avenir-Light" font-size="22.1" fill="#000000" transform="matrix(1.00, 0.00, -0.00, -1.00, 126.2, 741.0)"> </text><text xml:space="preserve" font-family="Avenir-Light" font-size="22.1" fill="#000000" transform="matrix(1.00, 0.00, -0.00, -1.00, 135.5, 741.0)">A</text><text xml:space="preserve" font-family="Avenir-Light" font-size="22.1" fill="#000000" transform="matrix(1.00, 0.00, -0.00, -1.00, 154.1, 741.0)">L</text><text xml:space="preserve" font-family="Avenir-Light" font-size="22.1" fill="#000000" transform="matrix(1.00, 0.00, -0.00, -1.00, 168.7, 741.0)">P</text><text xml:space="preserve" font-family="Avenir-Light" font-size="22.1" fill="#000000" transform="matrix(1.00, 0.00, -0.00, -1.00, 184.9, 741.0)">I</text><text xml:space="preserve" font-family="Avenir-Light" font-size="22.1" fill="#000000" transform="matrix(1.00, 0.00, -0.00, -1.00, 194.1, 741.0)">N</text><text xml:space="preserve" font-family="Avenir-Light" font-size="22.1" fill="#000000" transform="matrix(1.00, 0.00, -0.00, -1.00, 214.8, 741.0)">E</text><text xml:space="preserve" font-family="Avenir-Light" font-size="22.1" fill="#000000" transform="matrix(1.00, 0.00, -0.00, -1.00, 231.4, 741.0)"> </text><text xml:space="preserve" font-family="Avenir-Light" font-size="22.1" fill="#000000" transform="matrix(1.00, 0.00, -0.00, -1.00, 240.7, 741.0)">A</text><text xml:space="preserve" font-family="Avenir-Light" font-size="22.1" fill="#000000" transform="matrix(1.00, 0.00, -0.00, -1.00, 259.3, 741.0)">B</text><text xml:space="preserve" font-family="Avenir-Light" font-size="22.1" fill="#000000" transform="matrix(1.00, 0.00, -0.00, -1.00, 276.7, 741.0)">O</text><text xml:space="preserve" font-family="Avenir-Light" font-size="22.1" fill="#000000" transform="matrix(1.00, 0.00, -0.00, -1.00, 298.6, 741.0)">V</text><text xml:space="preserve" font-family="Avenir-Light" font-size="22.1" fill="#000000" transform="matrix(1.00, 0.00, -0.00, -1.00, 315.2, 741.0)">E</text><text xml:space="preserve" font-family="Avenir-Light" font-size="22.1" fill="#000000" transform="matrix(1.00, 0.00, -0.00, -1.00, 331.9, 741.0)"> </text><text xml:space="preserve" font-family="Avenir-Light" font-size="22.1" fill="#000000" transform="matrix(1.00, 0.00, -0.00, -1.00, 341.1, 741.0)">T</text><text xml:space="preserve" font-family="Avenir-Light" font-size="22.1" fill="#000000" transform="matrix(1.00, 0.00, -0.00, -1.00, 355.8, 741.0)">A</text><text xml:space="preserve" font-family="Avenir-Light" font-size="22.1" fill="#000000" transform="matrix(1.00, 0.00, -0.00, -1.00, 374.4, 741.0)">G</text><text xml:space="preserve" font-family="Avenir-Light" font-size="22.1" fill="#000000" transform="matrix(1.00, 0.00, -0.00, -1.00, 395.1, 741.0)">I</text><text xml:space="preserve" font-family="Avenir-Light" font-size="22.1" fill="#000000" transform="matrix(1.00, 0.00, -0.00, -1.00, 404.4, 741.0)">S</text><text xml:space="preserve" font-family="Avenir-Light" font-size="22.1" fill="#000000" transform="matrix(1.00, 0.00, -0.00, -1.00, 420.2, 741.0)">H</text><text xml:space="preserve" font-family="Avenir-Light" font-size="22.1" fill="#000000" transform="matrix(1.00, 0.00, -0.00, -1.00, 439.6, 741.0)"> </text><text xml:space="preserve" font-family="Avenir-Light" font-size="22.1" fill="#000000" transform="matrix(1.00, 0.00, -0.00, -1.00, 448.9, 741.0)">L</text><text xml:space="preserve" font-family="Avenir-Light" font-size="22.1" fill="#000000" transform="matrix(1.00, 0.00, -0.00, -1.00, 463.4, 741.0)">A</text><text xml:space="preserve" font-family="Avenir-Light" font-size="22.1" fill="#000000" transform="matrix(1.00, 0.00, -0.00, -1.00, 482.1, 741.0)">K</text><text xml:space="preserve" font-family="Avenir-Light" font-size="22.1" fill="#000000" transform="matrix(1.00, 0.00, -0.00, -1.00, 499.1, 741.0)">E</text><text xml:space="preserve" font-family="Avenir-Light" font-size="22.1" fill="#000000" transform="matrix(1.00, 0.00, -0.00, -1.00, 515.7, 741.0)">,</text><text xml:space="preserve" font-family="Avenir-Light" font-size="22.1" fill="#000000" transform="matrix(1.00, 0.00, -0.00, -1.00, 524.9, 741.0)"> </text><text xml:space="preserve" font-family="Avenir-Light" font-size="22.1" fill="#000000" transform="matrix(1.00, 0.00, -0.00, -1.00, 534.2, 741.0)">L</text><text xml:space="preserve" font-family="Avenir-Light" font-size="22.1" fill="#000000" transform="matrix(1.00, 0.00, -0.00, -1.00, 548.7, 741.0)">O</text><text xml:space="preserve" font-family="Avenir-Light" font-size="22.1" fill="#000000" transform="matrix(1.00, 0.00, -0.00, -1.00, 570.7, 741.0)">O</text><text xml:space="preserve" font-family="Avenir-Light" font-size="22.1" fill="#000000" transform="matrix(1.00, 0.00, -0.00, -1.00, 592.6, 741.0)">K</text><text xml:space="preserve" font-family="Avenir-Light" font-size="22.1" fill="#000000" transform="matrix(1.00, 0.00, -0.00, -1.00, 609.6, 741.0)">I</text><text xml:space="preserve" font-family="Avenir-Light" font-size="22.1" fill="#000000" transform="matrix(1.00, 0.00, -0.00, -1.00, 618.8, 741.0)">N</text><text xml:space="preserve" font-family="Avenir-Light" font-size="22.1" fill="#000000" transform="matrix(1.00, 0.00, -0.00, -1.00, 639.5, 741.0)">G</text><text xml:space="preserve" font-family="Avenir-Light" font-size="22.1" fill="#000000" transform="matrix(1.00, 0.00, -0.00, -1.00, 660.2, 741.0)"> </text><text xml:space="preserve" font-family="Avenir-Light" font-size="22.1" fill="#000000" transform="matrix(1.00, 0.00, -0.00, -1.00, 669.5, 741.0)">S</text><text xml:space="preserve" font-family="Avenir-Light" font-size="22.1" fill="#000000" transform="matrix(1.00, 0.00, -0.00, -1.00, 685.2, 741.0)">O</text><text xml:space="preserve" font-family="Avenir-Light" font-size="22.1" fill="#000000" transform="matrix(1.00, 0.00, -0.00, -1.00, 707.2, 741.0)">U</text><text xml:space="preserve" font-family="Avenir-Light" font-size="22.1" fill="#000000" transform="matrix(1.00, 0.00, -0.00, -1.00, 725.8, 741.0)">T</text><text xml:space="preserve" font-family="Avenir-Light" font-size="22.1" fill="#000000" transform="matrix(1.00, 0.00, -0.00, -1.00, 742.0, 741.0)">H</text><text xml:space="preserve" font-family="Avenir-Light" font-size="22.1" fill="#000000" transform="matrix(1.00, 0.00, -0.00, -1.00, 761.4, 741.0)"> </text><text xml:space="preserve" font-family="Avenir-Light" font-size="22.1" fill="#000000" transform="matrix(1.00, 0.00, -0.00, -1.00, 770.7, 741.0)">T</text><text xml:space="preserve" font-family="Avenir-Light" font-size="22.1" fill="#000000" transform="matrix(1.00, 0.00, -0.00, -1.00, 786.9, 741.0)">O</text><text xml:space="preserve" font-family="Avenir-Light" font-size="22.1" fill="#000000" transform="matrix(1.00, 0.00, -0.00, -1.00, 808.8, 741.0)">W</text><text xml:space="preserve" font-family="Avenir-Light" font-size="22.1" fill="#000000" transform="matrix(1.00, 0.00, -0.00, -1.00, 832.7, 741.0)">A</text><text xml:space="preserve" font-family="Avenir-Light" font-size="22.1" fill="#000000" transform="matrix(1.00, 0.00, -0.00, -1.00, 851.4, 741.0)">R</text><text xml:space="preserve" font-family="Avenir-Light" font-size="22.1" fill="#000000" transform="matrix(1.00, 0.00, -0.00, -1.00, 868.0, 741.0)">D</text><text xml:space="preserve" font-family="Avenir-Light" font-size="22.1" fill="#000000" transform="matrix(1.00, 0.00, -0.00, -1.00, 887.8, 741.0)">S</text><text xml:space="preserve" font-family="Avenir-Light" font-size="22.1" fill="#000000" transform="matrix(1.00, 0.00, -0.00, -1.00, 903.6, 741.0)"> </text><text xml:space="preserve" font-family="Avenir-Light" font-size="22.1" fill="#000000" transform="matrix(1.00, 0.00, -0.00, -1.00, 912.9, 741.0)">B</text><text xml:space="preserve" font-family="Avenir-Light" font-size="22.1" fill="#000000" transform="matrix(1.00, 0.00, -0.00, -1.00, 930.3, 741.0)">C</text></g></svg>