<?xml version="1.0" encoding="UTF-8"?><svg xmlns="http://www.w3.org/2000/svg" xmlns:xlink="http://www.w3.org/1999/xlink" clip-rule="evenodd" stroke-miterlimit="4.00" viewBox="0 0 1024 768"><desc>SVG generated by Keynote</desc><defs></defs><g transform="matrix(1.00, 0.00, -0.00, -1.00, 0.0, 768.0)"><path d="M 0.0 768.0 L 1024.0 768.0 L 1024.0 0.0 L 0.0 0.0 Z M 0.0 768.0 " fill="#000000"></path><g><clipPath id="clip-225"><path d="M 0.0 0.0 L 1024.0 0.0 L 1024.0 554.0 L 0.0 554.0 Z M 0.0 0.0 "></path></clipPath><g clip-path="url(#clip-225)"><image xlink:href="../../57A2A6CB-D881-405B-AE10-B3078CEC3D88/assets/7B0C4A4EADF5A5D88C9F3BBB551B0237.jpeg" width="1024.00" height="681.00" transform="matrix(1.00, 0.00, -0.00, -1.00, 0.0, 617.0)"></image></g></g><text xml:space="preserve" font-family="Avenir-Light" font-size="62.0" fill="#FEFFFF" transform="matrix(1.00, 0.00, -0.00, -1.00, 65.0, 624.0)">M</text><text xml:space="preserve" font-family="Avenir-Light" font-size="62.0" fill="#FEFFFF" transform="matrix(1.00, 0.00, -0.00, -1.00, 130.0, 624.0)">O</text><text xml:space="preserve" font-family="Avenir-Light" font-size="62.0" fill="#FEFFFF" transform="matrix(1.00, 0.00, -0.00, -1.00, 191.7, 624.0)">U</text><text xml:space="preserve" font-family="Avenir-Light" font-size="62.0" fill="#FEFFFF" transform="matrix(1.00, 0.00, -0.00, -1.00, 244.0, 624.0)">N</text><text xml:space="preserve" font-family="Avenir-Light" font-size="62.0" fill="#FEFFFF" transform="matrix(1.00, 0.00, -0.00, -1.00, 302.1, 624.0)">T</text><text xml:space="preserve" font-family="Avenir-Light" font-size="62.0" fill="#FEFFFF" transform="matrix(1.00, 0.00, -0.00, -1.00, 343.4, 624.0)">A</text><text xml:space="preserve" font-family="Avenir-Light" font-size="62.0" fill="#FEFFFF" transform="matrix(1.00, 0.00, -0.00, -1.00, 395.8, 624.0)">I</text><text xml:space="preserve" font-family="Avenir-Light" font-size="62.0" fill="#FEFFFF" transform="matrix(1.00, 0.00, -0.00, -1.00, 421.9, 624.0)">N</text><text xml:space="preserve" font-family="Avenir-Light" font-size="62.0" fill="#FEFFFF" transform="matrix(1.00, 0.00, -0.00, -1.00, 480.0, 624.0)"> </text><text xml:space="preserve" font-family="Avenir-Light" font-size="62.0" fill="#FEFFFF" transform="matrix(1.00, 0.00, -0.00, -1.00, 506.1, 624.0)">H</text><text xml:space="preserve" font-family="Avenir-Light" font-size="62.0" fill="#FEFFFF" transform="matrix(1.00, 0.00, -0.00, -1.00, 560.8, 624.0)">E</text><text xml:space="preserve" font-family="Avenir-Light" font-size="62.0" fill="#FEFFFF" transform="matrix(1.00, 0.00, -0.00, -1.00, 607.4, 624.0)">R</text><text xml:space="preserve" font-family="Avenir-Light" font-size="62.0" fill="#FEFFFF" transform="matrix(1.00, 0.00, -0.00, -1.00, 654.1, 624.0)">O</text><text xml:space="preserve" font-family="Avenir-Light" font-size="62.0" fill="#FEFFFF" transform="matrix(1.00, 0.00, -0.00, -1.00, 715.8, 624.0)"> </text><text xml:space="preserve" font-family="Avenir-Light" font-size="62.0" fill="#FEFFFF" transform="matrix(1.00, 0.00, -0.00, -1.00, 741.8, 624.0)">T</text><text xml:space="preserve" font-family="Avenir-Light" font-size="62.0" fill="#FEFFFF" transform="matrix(1.00, 0.00, -0.00, -1.00, 787.3, 624.0)">R</text><text xml:space="preserve" font-family="Avenir-Light" font-size="62.0" fill="#FEFFFF" transform="matrix(1.00, 0.00, -0.00, -1.00, 834.0, 624.0)">A</text><text xml:space="preserve" font-family="Avenir-Light" font-size="62.0" fill="#FEFFFF" transform="matrix(1.00, 0.00, -0.00, -1.00, 886.4, 624.0)">I</text><text xml:space="preserve" font-family="Avenir-Light" font-size="62.0" fill="#FEFFFF" transform="matrix(1.00, 0.00, -0.00, -1.00, 912.4, 624.0)">L</text><text xml:space="preserve" font-family="Avenir-Book" font-size="23.3" fill="#FEFFFE" transform="matrix(1.00, 0.00, -0.00, -1.00, 65.0, 702.0)">H</text><text xml:space="preserve" font-family="Avenir-Book" font-size="23.3" fill="#FEFFFE" transform="matrix(1.00, 0.00, -0.00, -1.00, 85.5, 702.0)">I</text><text xml:space="preserve" font-family="Avenir-Book" font-size="23.3" fill="#FEFFFE" transform="matrix(1.00, 0.00, -0.00, -1.00, 95.4, 702.0)">K</text><text xml:space="preserve" font-family="Avenir-Book" font-size="23.3" fill="#FEFFFE" transform="matrix(1.00, 0.00, -0.00, -1.00, 113.8, 702.0)">I</text><text xml:space="preserve" font-family="Avenir-Book" font-size="23.3" fill="#FEFFFE" transform="matrix(1.00, 0.00, -0.00, -1.00, 123.7, 702.0)">N</text><text xml:space="preserve" font-family="Avenir-Book" font-size="23.3" fill="#FEFFFE" transform="matrix(1.00, 0.00, -0.00, -1.00, 145.5, 702.0)">G</text><text xml:space="preserve" font-family="Avenir-Light" font-size="19.8" fill="#000000" transform="matrix(1.00, 0.00, -0.00, -1.00, 65.0, 532.0)">S</text><text xml:space="preserve" font-family="Avenir-Light" font-size="19.8" fill="#000000" transform="matrix(1.00, 0.00, -0.00, -1.00, 79.2, 532.0)">I</text><text xml:space="preserve" font-family="Avenir-Light" font-size="19.8" fill="#000000" transform="matrix(1.00, 0.00, -0.00, -1.00, 87.5, 532.0)">L</text><text xml:space="preserve" font-family="Avenir-Light" font-size="19.8" fill="#000000" transform="matrix(1.00, 0.00, -0.00, -1.00, 98.7, 532.0)">V</text><text xml:space="preserve" font-family="Avenir-Light" font-size="19.8" fill="#000000" transform="matrix(1.00, 0.00, -0.00, -1.00, 113.6, 532.0)">E</text><text xml:space="preserve" font-family="Avenir-Light" font-size="19.8" fill="#000000" transform="matrix(1.00, 0.00, -0.00, -1.00, 128.6, 532.0)">R</text><text xml:space="preserve" font-family="Avenir-Light" font-size="19.8" fill="#000000" transform="matrix(1.00, 0.00, -0.00, -1.00, 143.5, 532.0)"> </text><text xml:space="preserve" font-family="Avenir-Light" font-size="19.8" fill="#000000" transform="matrix(1.00, 0.00, -0.00, -1.00, 151.8, 532.0)">M</text><text xml:space="preserve" font-family="Avenir-Light" font-size="19.8" fill="#000000" transform="matrix(1.00, 0.00, -0.00, -1.00, 172.6, 532.0)">I</text><text xml:space="preserve" font-family="Avenir-Light" font-size="19.8" fill="#000000" transform="matrix(1.00, 0.00, -0.00, -1.00, 180.9, 532.0)">N</text><text xml:space="preserve" font-family="Avenir-Light" font-size="19.8" fill="#000000" transform="matrix(1.00, 0.00, -0.00, -1.00, 199.4, 532.0)">I</text><text xml:space="preserve" font-family="Avenir-Light" font-size="19.8" fill="#000000" transform="matrix(1.00, 0.00, -0.00, -1.00, 207.8, 532.0)">N</text><text xml:space="preserve" font-family="Avenir-Light" font-size="19.8" fill="#000000" transform="matrix(1.00, 0.00, -0.00, -1.00, 226.3, 532.0)">G</text><text xml:space="preserve" font-family="Avenir-Light" font-size="19.8" fill="#000000" transform="matrix(1.00, 0.00, -0.00, -1.00, 244.9, 532.0)"> </text><text xml:space="preserve" font-family="Avenir-Light" font-size="19.8" fill="#000000" transform="matrix(1.00, 0.00, -0.00, -1.00, 253.2, 532.0)">A</text><text xml:space="preserve" font-family="Avenir-Light" font-size="19.8" fill="#000000" transform="matrix(1.00, 0.00, -0.00, -1.00, 269.9, 532.0)">R</text><text xml:space="preserve" font-family="Avenir-Light" font-size="19.8" fill="#000000" transform="matrix(1.00, 0.00, -0.00, -1.00, 285.0, 532.0)">T</text><text xml:space="preserve" font-family="Avenir-Light" font-size="19.8" fill="#000000" transform="matrix(1.00, 0.00, -0.00, -1.00, 299.5, 532.0)">I</text><text xml:space="preserve" font-family="Avenir-Light" font-size="19.8" fill="#000000" transform="matrix(1.00, 0.00, -0.00, -1.00, 307.8, 532.0)">F</text><text xml:space="preserve" font-family="Avenir-Light" font-size="19.8" fill="#000000" transform="matrix(1.00, 0.00, -0.00, -1.00, 320.9, 532.0)">A</text><text xml:space="preserve" font-family="Avenir-Light" font-size="19.8" fill="#000000" transform="matrix(1.00, 0.00, -0.00, -1.00, 337.6, 532.0)">C</text><text xml:space="preserve" font-family="Avenir-Light" font-size="19.8" fill="#000000" transform="matrix(1.00, 0.00, -0.00, -1.00, 354.8, 532.0)">T</text><text xml:space="preserve" font-family="Avenir-Light" font-size="19.8" fill="#000000" transform="matrix(1.00, 0.00, -0.00, -1.00, 369.3, 532.0)">S</text><text xml:space="preserve" font-family="Avenir-Light" font-size="19.8" fill="#000000" transform="matrix(1.00, 0.00, -0.00, -1.00, 383.5, 532.0)"> </text><text xml:space="preserve" font-family="Avenir-Light" font-size="19.8" fill="#000000" transform="matrix(1.00, 0.00, -0.00, -1.00, 391.8, 532.0)">(</text><text xml:space="preserve" font-family="Avenir-Light" font-size="19.8" fill="#000000" transform="matrix(1.00, 0.00, -0.00, -1.00, 400.1, 532.0)">C</text><text xml:space="preserve" font-family="Avenir-Light" font-size="19.8" fill="#000000" transform="matrix(1.00, 0.00, -0.00, -1.00, 417.2, 532.0)">.</text><text xml:space="preserve" font-family="Avenir-Light" font-size="19.8" fill="#000000" transform="matrix(1.00, 0.00, -0.00, -1.00, 425.5, 532.0)"> </text><text xml:space="preserve" font-family="Avenir-Light" font-size="19.8" fill="#000000" transform="matrix(1.00, 0.00, -0.00, -1.00, 433.8, 532.0)">1</text><text xml:space="preserve" font-family="Avenir-Light" font-size="19.8" fill="#000000" transform="matrix(1.00, 0.00, -0.00, -1.00, 447.3, 532.0)">9</text><text xml:space="preserve" font-family="Avenir-Light" font-size="19.8" fill="#000000" transform="matrix(1.00, 0.00, -0.00, -1.00, 460.8, 532.0)">0</text><text xml:space="preserve" font-family="Avenir-Light" font-size="19.8" fill="#000000" transform="matrix(1.00, 0.00, -0.00, -1.00, 474.2, 532.0)">5</text><text xml:space="preserve" font-family="Avenir-Light" font-size="19.8" fill="#000000" transform="matrix(1.00, 0.00, -0.00, -1.00, 487.7, 532.0)">)</text><text xml:space="preserve" font-family="Avenir-Light" font-size="19.8" fill="#000000" transform="matrix(1.00, 0.00, -0.00, -1.00, 496.0, 532.0)">,</text><text xml:space="preserve" font-family="Avenir-Light" font-size="19.8" fill="#000000" transform="matrix(1.00, 0.00, -0.00, -1.00, 504.3, 532.0)"> </text><text xml:space="preserve" font-family="Avenir-Light" font-size="19.8" fill="#000000" transform="matrix(1.00, 0.00, -0.00, -1.00, 512.6, 532.0)">C</text><text xml:space="preserve" font-family="Avenir-Light" font-size="19.8" fill="#000000" transform="matrix(1.00, 0.00, -0.00, -1.00, 529.7, 532.0)">O</text><text xml:space="preserve" font-family="Avenir-Light" font-size="19.8" fill="#000000" transform="matrix(1.00, 0.00, -0.00, -1.00, 549.4, 532.0)">N</text><text xml:space="preserve" font-family="Avenir-Light" font-size="19.8" fill="#000000" transform="matrix(1.00, 0.00, -0.00, -1.00, 568.0, 532.0)">R</text><text xml:space="preserve" font-family="Avenir-Light" font-size="19.8" fill="#000000" transform="matrix(1.00, 0.00, -0.00, -1.00, 582.9, 532.0)">A</text><text xml:space="preserve" font-family="Avenir-Light" font-size="19.8" fill="#000000" transform="matrix(1.00, 0.00, -0.00, -1.00, 599.6, 532.0)">D</text><text xml:space="preserve" font-family="Avenir-Light" font-size="19.8" fill="#000000" transform="matrix(1.00, 0.00, -0.00, -1.00, 617.5, 532.0)"> </text><text xml:space="preserve" font-family="Avenir-Light" font-size="19.8" fill="#000000" transform="matrix(1.00, 0.00, -0.00, -1.00, 625.8, 532.0)">Y</text><text xml:space="preserve" font-family="Avenir-Light" font-size="19.8" fill="#000000" transform="matrix(1.00, 0.00, -0.00, -1.00, 640.3, 532.0)">T</text><text xml:space="preserve" font-family="Avenir-Light" font-size="19.8" fill="#000000" transform="matrix(1.00, 0.00, -0.00, -1.00, 652.7, 532.0)">,</text><text xml:space="preserve" font-family="Avenir-Light" font-size="19.8" fill="#000000" transform="matrix(1.00, 0.00, -0.00, -1.00, 661.0, 532.0)"> </text><text xml:space="preserve" font-family="Avenir-Light" font-size="19.8" fill="#000000" transform="matrix(1.00, 0.00, -0.00, -1.00, 669.3, 532.0)">D</text><text xml:space="preserve" font-family="Avenir-Light" font-size="19.8" fill="#000000" transform="matrix(1.00, 0.00, -0.00, -1.00, 687.1, 532.0)">A</text><text xml:space="preserve" font-family="Avenir-Light" font-size="19.8" fill="#000000" transform="matrix(1.00, 0.00, -0.00, -1.00, 702.4, 532.0)">Y</text><text xml:space="preserve" font-family="Avenir-Light" font-size="19.8" fill="#000000" transform="matrix(1.00, 0.00, -0.00, -1.00, 716.9, 532.0)"> </text><text xml:space="preserve" font-family="Avenir-Light" font-size="19.8" fill="#000000" transform="matrix(1.00, 0.00, -0.00, -1.00, 725.3, 532.0)">6</text><text xml:space="preserve" font-family="Avenir-Light" font-size="19.8" fill="#000000" transform="matrix(1.00, 0.00, -0.00, -1.00, 738.7, 532.0)"> </text><text xml:space="preserve" font-family="Avenir-Light" font-size="19.8" fill="#000000" transform="matrix(1.00, 0.00, -0.00, -1.00, 747.0, 532.0)">(</text><text xml:space="preserve" font-family="Avenir-Light" font-size="19.8" fill="#000000" transform="matrix(1.00, 0.00, -0.00, -1.00, 755.3, 532.0)">1</text><text xml:space="preserve" font-family="Avenir-Light" font-size="19.8" fill="#000000" transform="matrix(1.00, 0.00, -0.00, -1.00, 768.8, 532.0)">6</text><text xml:space="preserve" font-family="Avenir-Light" font-size="19.8" fill="#000000" transform="matrix(1.00, 0.00, -0.00, -1.00, 782.3, 532.0)"> </text><text xml:space="preserve" font-family="Avenir-Light" font-size="19.8" fill="#000000" transform="matrix(1.00, 0.00, -0.00, -1.00, 790.6, 532.0)">K</text><text xml:space="preserve" font-family="Avenir-Light" font-size="19.8" fill="#000000" transform="matrix(1.00, 0.00, -0.00, -1.00, 805.9, 532.0)">M</text><text xml:space="preserve" font-family="Avenir-Light" font-size="19.8" fill="#000000" transform="matrix(1.00, 0.00, -0.00, -1.00, 826.6, 532.0)"> </text><text xml:space="preserve" font-family="Avenir-Light" font-size="19.8" fill="#000000" transform="matrix(1.00, 0.00, -0.00, -1.00, 834.9, 532.0)">E</text><text xml:space="preserve" font-family="Avenir-Light" font-size="19.8" fill="#000000" transform="matrix(1.00, 0.00, -0.00, -1.00, 849.9, 532.0)">L</text><text xml:space="preserve" font-family="Avenir-Light" font-size="19.8" fill="#000000" transform="matrix(1.00, 0.00, -0.00, -1.00, 862.9, 532.0)">E</text><text xml:space="preserve" font-family="Avenir-Light" font-size="19.8" fill="#000000" transform="matrix(1.00, 0.00, -0.00, -1.00, 877.8, 532.0)">V</text><text xml:space="preserve" font-family="Avenir-Light" font-size="19.8" fill="#000000" transform="matrix(1.00, 0.00, -0.00, -1.00, 890.2, 532.0)">.</text><text xml:space="preserve" font-family="Avenir-Light" font-size="19.8" fill="#000000" transform="matrix(1.00, 0.00, -0.00, -1.00, 898.5, 532.0)"> </text><text xml:space="preserve" font-family="Avenir-Light" font-size="19.8" fill="#000000" transform="matrix(1.00, 0.00, -0.00, -1.00, 906.8, 532.0)">1</text><text xml:space="preserve" font-family="Avenir-Light" font-size="19.8" fill="#000000" transform="matrix(1.00, 0.00, -0.00, -1.00, 920.3, 532.0)"> </text><text xml:space="preserve" font-family="Avenir-Light" font-size="19.8" fill="#000000" transform="matrix(1.00, 0.00, -0.00, -1.00, 928.6, 532.0)">K</text><text xml:space="preserve" font-family="Avenir-Light" font-size="19.8" fill="#000000" transform="matrix(1.00, 0.00, -0.00, -1.00, 943.9, 532.0)">M</text><text xml:space="preserve" font-family="Avenir-Light" font-size="19.8" fill="#000000" transform="matrix(1.00, 0.00, -0.00, -1.00, 964.6, 532.0)">)</text></g></svg>