<?xml version="1.0" encoding="UTF-8"?><svg xmlns="http://www.w3.org/2000/svg" xmlns:xlink="http://www.w3.org/1999/xlink" clip-rule="evenodd" stroke-miterlimit="4.00" viewBox="0 0 1024 768"><desc>SVG generated by Keynote</desc><defs></defs><g transform="matrix(1.00, 0.00, -0.00, -1.00, 0.0, 768.0)"><path d="M 0.0 768.0 L 1024.0 768.0 L 1024.0 0.0 L 0.0 0.0 Z M 0.0 768.0 " fill="#000000"></path><g><clipPath id="clip-563"><path d="M 0.0 0.0 L 1024.0 0.0 L 1024.0 554.0 L 0.0 554.0 Z M 0.0 0.0 "></path></clipPath><g clip-path="url(#clip-563)"><image xlink:href="../../57A2A6CB-D881-405B-AE10-B3078CEC3D88/assets/7B0C4A4EADF5A5D88C9F3BBB551B0237.jpeg" width="1024.00" height="681.00" transform="matrix(1.00, 0.00, -0.00, -1.00, 0.0, 617.0)"></image></g></g><text xml:space="preserve" font-family="Avenir-Light" font-size="62.0" fill="#FEFFFF" transform="matrix(1.00, 0.00, -0.00, -1.00, 65.0, 624.0)">M</text><text xml:space="preserve" font-family="Avenir-Light" font-size="62.0" fill="#FEFFFF" transform="matrix(1.00, 0.00, -0.00, -1.00, 130.0, 624.0)">O</text><text xml:space="preserve" font-family="Avenir-Light" font-size="62.0" fill="#FEFFFF" transform="matrix(1.00, 0.00, -0.00, -1.00, 191.7, 624.0)">U</text><text xml:space="preserve" font-family="Avenir-Light" font-size="62.0" fill="#FEFFFF" transform="matrix(1.00, 0.00, -0.00, -1.00, 244.0, 624.0)">N</text><text xml:space="preserve" font-family="Avenir-Light" font-size="62.0" fill="#FEFFFF" transform="matrix(1.00, 0.00, -0.00, -1.00, 302.1, 624.0)">T</text><text xml:space="preserve" font-family="Avenir-Light" font-size="62.0" fill="#FEFFFF" transform="matrix(1.00, 0.00, -0.00, -1.00, 343.4, 624.0)">A</text><text xml:space="preserve" font-family="Avenir-Light" font-size="62.0" fill="#FEFFFF" transform="matrix(1.00, 0.00, -0.00, -1.00, 395.8, 624.0)">I</text><text xml:space="preserve" font-family="Avenir-Light" font-size="62.0" fill="#FEFFFF" transform="matrix(1.00, 0.00, -0.00, -1.00, 421.9, 624.0)">N</text><text xml:space="preserve" font-family="Avenir-Light" font-size="62.0" fill="#FEFFFF" transform="matrix(1.00, 0.00, -0.00, -1.00, 480.0, 624.0)"> </text><text xml:space="preserve" font-family="Avenir-Light" font-size="62.0" fill="#FEFFFF" transform="matrix(1.00, 0.00, -0.00, -1.00, 506.1, 624.0)">H</text><text xml:space="preserve" font-family="Avenir-Light" font-size="62.0" fill="#FEFFFF" transform="matrix(1.00, 0.00, -0.00, -1.00, 560.8, 624.0)">E</text><text xml:space="preserve" font-family="Avenir-Light" font-size="62.0" fill="#FEFFFF" transform="matrix(1.00, 0.00, -0.00, -1.00, 607.4, 624.0)">R</text><text xml:space="preserve" font-family="Avenir-Light" font-size="62.0" fill="#FEFFFF" transform="matrix(1.00, 0.00, -0.00, -1.00, 654.1, 624.0)">O</text><text xml:space="preserve" font-family="Avenir-Light" font-size="62.0" fill="#FEFFFF" transform="matrix(1.00, 0.00, -0.00, -1.00, 715.8, 624.0)"> </text><text xml:space="preserve" font-family="Avenir-Light" font-size="62.0" fill="#FEFFFF" transform="matrix(1.00, 0.00, -0.00, -1.00, 741.8, 624.0)">T</text><text xml:space="preserve" font-family="Avenir-Light" font-size="62.0" fill="#FEFFFF" transform="matrix(1.00, 0.00, -0.00, -1.00, 787.3, 624.0)">R</text><text xml:space="preserve" font-family="Avenir-Light" font-size="62.0" fill="#FEFFFF" transform="matrix(1.00, 0.00, -0.00, -1.00, 834.0, 624.0)">A</text><text xml:space="preserve" font-family="Avenir-Light" font-size="62.0" fill="#FEFFFF" transform="matrix(1.00, 0.00, -0.00, -1.00, 886.4, 624.0)">I</text><text xml:space="preserve" font-family="Avenir-Light" font-size="62.0" fill="#FEFFFF" transform="matrix(1.00, 0.00, -0.00, -1.00, 912.4, 624.0)">L</text><text xml:space="preserve" font-family="Avenir-Book" font-size="23.3" fill="#FEFFFE" transform="matrix(1.00, 0.00, -0.00, -1.00, 65.0, 702.0)">H</text><text xml:space="preserve" font-family="Avenir-Book" font-size="23.3" fill="#FEFFFE" transform="matrix(1.00, 0.00, -0.00, -1.00, 85.5, 702.0)">I</text><text xml:space="preserve" font-family="Avenir-Book" font-size="23.3" fill="#FEFFFE" transform="matrix(1.00, 0.00, -0.00, -1.00, 95.4, 702.0)">K</text><text xml:space="preserve" font-family="Avenir-Book" font-size="23.3" fill="#FEFFFE" transform="matrix(1.00, 0.00, -0.00, -1.00, 113.8, 702.0)">I</text><text xml:space="preserve" font-family="Avenir-Book" font-size="23.3" fill="#FEFFFE" transform="matrix(1.00, 0.00, -0.00, -1.00, 123.7, 702.0)">N</text><text xml:space="preserve" font-family="Avenir-Book" font-size="23.3" fill="#FEFFFE" transform="matrix(1.00, 0.00, -0.00, -1.00, 145.5, 702.0)">G</text><text xml:space="preserve" font-family="Avenir-Light" font-size="19.8" fill="#000000" transform="matrix(1.00, 0.00, -0.00, -1.00, 66.0, 532.0)">S</text><text xml:space="preserve" font-family="Avenir-Light" font-size="19.8" fill="#000000" transform="matrix(1.00, 0.00, -0.00, -1.00, 80.2, 532.0)">I</text><text xml:space="preserve" font-family="Avenir-Light" font-size="19.8" fill="#000000" transform="matrix(1.00, 0.00, -0.00, -1.00, 88.5, 532.0)">L</text><text xml:space="preserve" font-family="Avenir-Light" font-size="19.8" fill="#000000" transform="matrix(1.00, 0.00, -0.00, -1.00, 99.7, 532.0)">V</text><text xml:space="preserve" font-family="Avenir-Light" font-size="19.8" fill="#000000" transform="matrix(1.00, 0.00, -0.00, -1.00, 114.6, 532.0)">E</text><text xml:space="preserve" font-family="Avenir-Light" font-size="19.8" fill="#000000" transform="matrix(1.00, 0.00, -0.00, -1.00, 129.6, 532.0)">R</text><text xml:space="preserve" font-family="Avenir-Light" font-size="19.8" fill="#000000" transform="matrix(1.00, 0.00, -0.00, -1.00, 144.5, 532.0)"> </text><text xml:space="preserve" font-family="Avenir-Light" font-size="19.8" fill="#000000" transform="matrix(1.00, 0.00, -0.00, -1.00, 152.8, 532.0)">M</text><text xml:space="preserve" font-family="Avenir-Light" font-size="19.8" fill="#000000" transform="matrix(1.00, 0.00, -0.00, -1.00, 173.6, 532.0)">I</text><text xml:space="preserve" font-family="Avenir-Light" font-size="19.8" fill="#000000" transform="matrix(1.00, 0.00, -0.00, -1.00, 181.9, 532.0)">N</text><text xml:space="preserve" font-family="Avenir-Light" font-size="19.8" fill="#000000" transform="matrix(1.00, 0.00, -0.00, -1.00, 200.4, 532.0)">I</text><text xml:space="preserve" font-family="Avenir-Light" font-size="19.8" fill="#000000" transform="matrix(1.00, 0.00, -0.00, -1.00, 208.8, 532.0)">N</text><text xml:space="preserve" font-family="Avenir-Light" font-size="19.8" fill="#000000" transform="matrix(1.00, 0.00, -0.00, -1.00, 227.3, 532.0)">G</text><text xml:space="preserve" font-family="Avenir-Light" font-size="19.8" fill="#000000" transform="matrix(1.00, 0.00, -0.00, -1.00, 245.9, 532.0)"> </text><text xml:space="preserve" font-family="Avenir-Light" font-size="19.8" fill="#000000" transform="matrix(1.00, 0.00, -0.00, -1.00, 254.2, 532.0)">A</text><text xml:space="preserve" font-family="Avenir-Light" font-size="19.8" fill="#000000" transform="matrix(1.00, 0.00, -0.00, -1.00, 270.9, 532.0)">R</text><text xml:space="preserve" font-family="Avenir-Light" font-size="19.8" fill="#000000" transform="matrix(1.00, 0.00, -0.00, -1.00, 286.0, 532.0)">T</text><text xml:space="preserve" font-family="Avenir-Light" font-size="19.8" fill="#000000" transform="matrix(1.00, 0.00, -0.00, -1.00, 300.5, 532.0)">I</text><text xml:space="preserve" font-family="Avenir-Light" font-size="19.8" fill="#000000" transform="matrix(1.00, 0.00, -0.00, -1.00, 308.8, 532.0)">F</text><text xml:space="preserve" font-family="Avenir-Light" font-size="19.8" fill="#000000" transform="matrix(1.00, 0.00, -0.00, -1.00, 321.9, 532.0)">A</text><text xml:space="preserve" font-family="Avenir-Light" font-size="19.8" fill="#000000" transform="matrix(1.00, 0.00, -0.00, -1.00, 338.6, 532.0)">C</text><text xml:space="preserve" font-family="Avenir-Light" font-size="19.8" fill="#000000" transform="matrix(1.00, 0.00, -0.00, -1.00, 355.8, 532.0)">T</text><text xml:space="preserve" font-family="Avenir-Light" font-size="19.8" fill="#000000" transform="matrix(1.00, 0.00, -0.00, -1.00, 370.3, 532.0)">S</text><text xml:space="preserve" font-family="Avenir-Light" font-size="19.8" fill="#000000" transform="matrix(1.00, 0.00, -0.00, -1.00, 384.5, 532.0)"> </text><text xml:space="preserve" font-family="Avenir-Light" font-size="19.8" fill="#000000" transform="matrix(1.00, 0.00, -0.00, -1.00, 392.8, 532.0)">(</text><text xml:space="preserve" font-family="Avenir-Light" font-size="19.8" fill="#000000" transform="matrix(1.00, 0.00, -0.00, -1.00, 401.1, 532.0)">C</text><text xml:space="preserve" font-family="Avenir-Light" font-size="19.8" fill="#000000" transform="matrix(1.00, 0.00, -0.00, -1.00, 418.2, 532.0)">.</text><text xml:space="preserve" font-family="Avenir-Light" font-size="19.8" fill="#000000" transform="matrix(1.00, 0.00, -0.00, -1.00, 426.5, 532.0)"> </text><text xml:space="preserve" font-family="Avenir-Light" font-size="19.8" fill="#000000" transform="matrix(1.00, 0.00, -0.00, -1.00, 434.8, 532.0)">1</text><text xml:space="preserve" font-family="Avenir-Light" font-size="19.8" fill="#000000" transform="matrix(1.00, 0.00, -0.00, -1.00, 448.3, 532.0)">9</text><text xml:space="preserve" font-family="Avenir-Light" font-size="19.8" fill="#000000" transform="matrix(1.00, 0.00, -0.00, -1.00, 461.8, 532.0)">0</text><text xml:space="preserve" font-family="Avenir-Light" font-size="19.8" fill="#000000" transform="matrix(1.00, 0.00, -0.00, -1.00, 475.2, 532.0)">5</text><text xml:space="preserve" font-family="Avenir-Light" font-size="19.8" fill="#000000" transform="matrix(1.00, 0.00, -0.00, -1.00, 488.7, 532.0)">)</text><text xml:space="preserve" font-family="Avenir-Light" font-size="19.8" fill="#000000" transform="matrix(1.00, 0.00, -0.00, -1.00, 497.0, 532.0)">,</text><text xml:space="preserve" font-family="Avenir-Light" font-size="19.8" fill="#000000" transform="matrix(1.00, 0.00, -0.00, -1.00, 505.3, 532.0)"> </text><text xml:space="preserve" font-family="Avenir-Light" font-size="19.8" fill="#000000" transform="matrix(1.00, 0.00, -0.00, -1.00, 513.6, 532.0)">C</text><text xml:space="preserve" font-family="Avenir-Light" font-size="19.8" fill="#000000" transform="matrix(1.00, 0.00, -0.00, -1.00, 530.7, 532.0)">O</text><text xml:space="preserve" font-family="Avenir-Light" font-size="19.8" fill="#000000" transform="matrix(1.00, 0.00, -0.00, -1.00, 550.4, 532.0)">N</text><text xml:space="preserve" font-family="Avenir-Light" font-size="19.8" fill="#000000" transform="matrix(1.00, 0.00, -0.00, -1.00, 569.0, 532.0)">R</text><text xml:space="preserve" font-family="Avenir-Light" font-size="19.8" fill="#000000" transform="matrix(1.00, 0.00, -0.00, -1.00, 583.9, 532.0)">A</text><text xml:space="preserve" font-family="Avenir-Light" font-size="19.8" fill="#000000" transform="matrix(1.00, 0.00, -0.00, -1.00, 600.6, 532.0)">D</text><text xml:space="preserve" font-family="Avenir-Light" font-size="19.8" fill="#000000" transform="matrix(1.00, 0.00, -0.00, -1.00, 618.5, 532.0)"> </text><text xml:space="preserve" font-family="Avenir-Light" font-size="19.8" fill="#000000" transform="matrix(1.00, 0.00, -0.00, -1.00, 626.8, 532.0)">Y</text><text xml:space="preserve" font-family="Avenir-Light" font-size="19.8" fill="#000000" transform="matrix(1.00, 0.00, -0.00, -1.00, 641.3, 532.0)">T</text><text xml:space="preserve" font-family="Avenir-Light" font-size="19.8" fill="#000000" transform="matrix(1.00, 0.00, -0.00, -1.00, 653.7, 532.0)">,</text><text xml:space="preserve" font-family="Avenir-Light" font-size="19.8" fill="#000000" transform="matrix(1.00, 0.00, -0.00, -1.00, 662.0, 532.0)"> </text><text xml:space="preserve" font-family="Avenir-Light" font-size="19.8" fill="#000000" transform="matrix(1.00, 0.00, -0.00, -1.00, 670.3, 532.0)">D</text><text xml:space="preserve" font-family="Avenir-Light" font-size="19.8" fill="#000000" transform="matrix(1.00, 0.00, -0.00, -1.00, 688.1, 532.0)">A</text><text xml:space="preserve" font-family="Avenir-Light" font-size="19.8" fill="#000000" transform="matrix(1.00, 0.00, -0.00, -1.00, 703.4, 532.0)">Y</text><text xml:space="preserve" font-family="Avenir-Light" font-size="19.8" fill="#000000" transform="matrix(1.00, 0.00, -0.00, -1.00, 717.9, 532.0)"> </text><text xml:space="preserve" font-family="Avenir-Light" font-size="19.8" fill="#000000" transform="matrix(1.00, 0.00, -0.00, -1.00, 726.3, 532.0)">6</text><text xml:space="preserve" font-family="Avenir-Light" font-size="19.8" fill="#000000" transform="matrix(1.00, 0.00, -0.00, -1.00, 739.7, 532.0)"> </text><text xml:space="preserve" font-family="Avenir-Light" font-size="19.8" fill="#000000" transform="matrix(1.00, 0.00, -0.00, -1.00, 748.0, 532.0)">(</text><text xml:space="preserve" font-family="Avenir-Light" font-size="19.8" fill="#000000" transform="matrix(1.00, 0.00, -0.00, -1.00, 756.3, 532.0)">1</text><text xml:space="preserve" font-family="Avenir-Light" font-size="19.8" fill="#000000" transform="matrix(1.00, 0.00, -0.00, -1.00, 769.8, 532.0)">6</text><text xml:space="preserve" font-family="Avenir-Light" font-size="19.8" fill="#000000" transform="matrix(1.00, 0.00, -0.00, -1.00, 783.3, 532.0)"> </text><text xml:space="preserve" font-family="Avenir-Light" font-size="19.8" fill="#000000" transform="matrix(1.00, 0.00, -0.00, -1.00, 791.6, 532.0)">K</text><text xml:space="preserve" font-family="Avenir-Light" font-size="19.8" fill="#000000" transform="matrix(1.00, 0.00, -0.00, -1.00, 806.9, 532.0)">M</text><text xml:space="preserve" font-family="Avenir-Light" font-size="19.8" fill="#000000" transform="matrix(1.00, 0.00, -0.00, -1.00, 827.6, 532.0)"> </text><text xml:space="preserve" font-family="Avenir-Light" font-size="19.8" fill="#000000" transform="matrix(1.00, 0.00, -0.00, -1.00, 835.9, 532.0)">E</text><text xml:space="preserve" font-family="Avenir-Light" font-size="19.8" fill="#000000" transform="matrix(1.00, 0.00, -0.00, -1.00, 850.9, 532.0)">L</text><text xml:space="preserve" font-family="Avenir-Light" font-size="19.8" fill="#000000" transform="matrix(1.00, 0.00, -0.00, -1.00, 863.9, 532.0)">E</text><text xml:space="preserve" font-family="Avenir-Light" font-size="19.8" fill="#000000" transform="matrix(1.00, 0.00, -0.00, -1.00, 878.8, 532.0)">V</text><text xml:space="preserve" font-family="Avenir-Light" font-size="19.8" fill="#000000" transform="matrix(1.00, 0.00, -0.00, -1.00, 891.2, 532.0)">.</text><text xml:space="preserve" font-family="Avenir-Light" font-size="19.8" fill="#000000" transform="matrix(1.00, 0.00, -0.00, -1.00, 899.5, 532.0)"> </text><text xml:space="preserve" font-family="Avenir-Light" font-size="19.8" fill="#000000" transform="matrix(1.00, 0.00, -0.00, -1.00, 907.8, 532.0)">1</text><text xml:space="preserve" font-family="Avenir-Light" font-size="19.8" fill="#000000" transform="matrix(1.00, 0.00, -0.00, -1.00, 921.3, 532.0)"> </text><text xml:space="preserve" font-family="Avenir-Light" font-size="19.8" fill="#000000" transform="matrix(1.00, 0.00, -0.00, -1.00, 929.6, 532.0)">K</text><text xml:space="preserve" font-family="Avenir-Light" font-size="19.8" fill="#000000" transform="matrix(1.00, 0.00, -0.00, -1.00, 944.9, 532.0)">M</text><text xml:space="preserve" font-family="Avenir-Light" font-size="19.8" fill="#000000" transform="matrix(1.00, 0.00, -0.00, -1.00, 965.6, 532.0)">)</text></g></svg>