<?xml version="1.0" encoding="UTF-8"?><svg xmlns="http://www.w3.org/2000/svg" xmlns:xlink="http://www.w3.org/1999/xlink" clip-rule="evenodd" stroke-miterlimit="4.00" viewBox="0 0 1024 768"><desc>SVG generated by Keynote</desc><defs></defs><g transform="matrix(1.00, 0.00, -0.00, -1.00, 0.0, 768.0)"><path d="M 0.0 768.0 L 1024.0 768.0 L 1024.0 0.0 L 0.0 0.0 Z M 0.0 768.0 " fill="#000000"></path><g><clipPath id="clip-164"><path d="M 0.0 0.0 L 1024.0 0.0 L 1024.0 768.0 L 0.0 768.0 Z M 0.0 0.0 "></path></clipPath><g clip-path="url(#clip-164)"><image xlink:href="8839F37D40E4E1AC710C461431C10493.jpeg" width="1155.00" height="768.00" transform="matrix(1.00, 0.00, -0.00, -1.00, -65.0, 768.0)"></image></g></g><text xml:space="preserve" font-family="Avenir-Light" font-size="20.7" fill="#FEFFFF" transform="matrix(1.00, 0.00, -0.00, -1.00, 99.0, 734.0)">T</text><text xml:space="preserve" font-family="Avenir-Light" font-size="20.7" fill="#FEFFFF" transform="matrix(1.00, 0.00, -0.00, -1.00, 114.2, 734.0)">H</text><text xml:space="preserve" font-family="Avenir-Light" font-size="20.7" fill="#FEFFFF" transform="matrix(1.00, 0.00, -0.00, -1.00, 132.5, 734.0)">E</text><text xml:space="preserve" font-family="Avenir-Light" font-size="20.7" fill="#FEFFFF" transform="matrix(1.00, 0.00, -0.00, -1.00, 148.0, 734.0)"> </text><text xml:space="preserve" font-family="Avenir-Light" font-size="20.7" fill="#FEFFFF" transform="matrix(1.00, 0.00, -0.00, -1.00, 156.7, 734.0)">S</text><text xml:space="preserve" font-family="Avenir-Light" font-size="20.7" fill="#FEFFFF" transform="matrix(1.00, 0.00, -0.00, -1.00, 171.6, 734.0)">U</text><text xml:space="preserve" font-family="Avenir-Light" font-size="20.7" fill="#FEFFFF" transform="matrix(1.00, 0.00, -0.00, -1.00, 189.0, 734.0)">N</text><text xml:space="preserve" font-family="Avenir-Light" font-size="20.7" fill="#FEFFFF" transform="matrix(1.00, 0.00, -0.00, -1.00, 208.4, 734.0)"> </text><text xml:space="preserve" font-family="Avenir-Light" font-size="20.7" fill="#FEFFFF" transform="matrix(1.00, 0.00, -0.00, -1.00, 217.1, 734.0)">S</text><text xml:space="preserve" font-family="Avenir-Light" font-size="20.7" fill="#FEFFFF" transform="matrix(1.00, 0.00, -0.00, -1.00, 232.0, 734.0)">E</text><text xml:space="preserve" font-family="Avenir-Light" font-size="20.7" fill="#FEFFFF" transform="matrix(1.00, 0.00, -0.00, -1.00, 247.5, 734.0)">T</text><text xml:space="preserve" font-family="Avenir-Light" font-size="20.7" fill="#FEFFFF" transform="matrix(1.00, 0.00, -0.00, -1.00, 262.7, 734.0)">S</text><text xml:space="preserve" font-family="Avenir-Light" font-size="20.7" fill="#FEFFFF" transform="matrix(1.00, 0.00, -0.00, -1.00, 277.6, 734.0)"> </text><text xml:space="preserve" font-family="Avenir-Light" font-size="20.7" fill="#FEFFFF" transform="matrix(1.00, 0.00, -0.00, -1.00, 286.3, 734.0)">I</text><text xml:space="preserve" font-family="Avenir-Light" font-size="20.7" fill="#FEFFFF" transform="matrix(1.00, 0.00, -0.00, -1.00, 294.9, 734.0)">N</text><text xml:space="preserve" font-family="Avenir-Light" font-size="20.7" fill="#FEFFFF" transform="matrix(1.00, 0.00, -0.00, -1.00, 314.4, 734.0)"> </text><text xml:space="preserve" font-family="Avenir-Light" font-size="20.7" fill="#FEFFFF" transform="matrix(1.00, 0.00, -0.00, -1.00, 323.1, 734.0)">T</text><text xml:space="preserve" font-family="Avenir-Light" font-size="20.7" fill="#FEFFFF" transform="matrix(1.00, 0.00, -0.00, -1.00, 338.3, 734.0)">H</text><text xml:space="preserve" font-family="Avenir-Light" font-size="20.7" fill="#FEFFFF" transform="matrix(1.00, 0.00, -0.00, -1.00, 356.5, 734.0)">E</text><text xml:space="preserve" font-family="Avenir-Light" font-size="20.7" fill="#FEFFFF" transform="matrix(1.00, 0.00, -0.00, -1.00, 372.1, 734.0)"> </text><text xml:space="preserve" font-family="Avenir-Light" font-size="20.7" fill="#FEFFFF" transform="matrix(1.00, 0.00, -0.00, -1.00, 380.8, 734.0)">S</text><text xml:space="preserve" font-family="Avenir-Light" font-size="20.7" fill="#FEFFFF" transform="matrix(1.00, 0.00, -0.00, -1.00, 395.6, 734.0)">O</text><text xml:space="preserve" font-family="Avenir-Light" font-size="20.7" fill="#FEFFFF" transform="matrix(1.00, 0.00, -0.00, -1.00, 416.2, 734.0)">U</text><text xml:space="preserve" font-family="Avenir-Light" font-size="20.7" fill="#FEFFFF" transform="matrix(1.00, 0.00, -0.00, -1.00, 433.7, 734.0)">T</text><text xml:space="preserve" font-family="Avenir-Light" font-size="20.7" fill="#FEFFFF" transform="matrix(1.00, 0.00, -0.00, -1.00, 448.9, 734.0)">H</text><text xml:space="preserve" font-family="Avenir-Light" font-size="20.7" fill="#FEFFFF" transform="matrix(1.00, 0.00, -0.00, -1.00, 467.1, 734.0)"> </text><text xml:space="preserve" font-family="Avenir-Light" font-size="20.7" fill="#FEFFFF" transform="matrix(1.00, 0.00, -0.00, -1.00, 475.8, 734.0)">C</text><text xml:space="preserve" font-family="Avenir-Light" font-size="20.7" fill="#FEFFFF" transform="matrix(1.00, 0.00, -0.00, -1.00, 493.7, 734.0)">A</text><text xml:space="preserve" font-family="Avenir-Light" font-size="20.7" fill="#FEFFFF" transform="matrix(1.00, 0.00, -0.00, -1.00, 511.2, 734.0)">R</text><text xml:space="preserve" font-family="Avenir-Light" font-size="20.7" fill="#FEFFFF" transform="matrix(1.00, 0.00, -0.00, -1.00, 526.8, 734.0)">I</text><text xml:space="preserve" font-family="Avenir-Light" font-size="20.7" fill="#FEFFFF" transform="matrix(1.00, 0.00, -0.00, -1.00, 535.5, 734.0)">B</text><text xml:space="preserve" font-family="Avenir-Light" font-size="20.7" fill="#FEFFFF" transform="matrix(1.00, 0.00, -0.00, -1.00, 551.8, 734.0)">O</text><text xml:space="preserve" font-family="Avenir-Light" font-size="20.7" fill="#FEFFFF" transform="matrix(1.00, 0.00, -0.00, -1.00, 572.4, 734.0)">O</text><text xml:space="preserve" font-family="Avenir-Light" font-size="20.7" fill="#FEFFFF" transform="matrix(1.00, 0.00, -0.00, -1.00, 593.0, 734.0)"> </text><text xml:space="preserve" font-family="Avenir-Light" font-size="20.7" fill="#FEFFFF" transform="matrix(1.00, 0.00, -0.00, -1.00, 601.7, 734.0)">B</text><text xml:space="preserve" font-family="Avenir-Light" font-size="20.7" fill="#FEFFFF" transform="matrix(1.00, 0.00, -0.00, -1.00, 618.0, 734.0)">C</text><text xml:space="preserve" font-family="Avenir-Light" font-size="20.7" fill="#FEFFFF" transform="matrix(1.00, 0.00, -0.00, -1.00, 635.9, 734.0)">,</text><text xml:space="preserve" font-family="Avenir-Light" font-size="20.7" fill="#FEFFFF" transform="matrix(1.00, 0.00, -0.00, -1.00, 644.6, 734.0)"> </text><text xml:space="preserve" font-family="Avenir-Light" font-size="20.7" fill="#FEFFFF" transform="matrix(1.00, 0.00, -0.00, -1.00, 653.3, 734.0)">D</text><text xml:space="preserve" font-family="Avenir-Light" font-size="20.7" fill="#FEFFFF" transform="matrix(1.00, 0.00, -0.00, -1.00, 671.9, 734.0)">A</text><text xml:space="preserve" font-family="Avenir-Light" font-size="20.7" fill="#FEFFFF" transform="matrix(1.00, 0.00, -0.00, -1.00, 687.9, 734.0)">Y</text><text xml:space="preserve" font-family="Avenir-Light" font-size="20.7" fill="#FEFFFF" transform="matrix(1.00, 0.00, -0.00, -1.00, 703.1, 734.0)"> </text><text xml:space="preserve" font-family="Avenir-Light" font-size="20.7" fill="#FEFFFF" transform="matrix(1.00, 0.00, -0.00, -1.00, 711.8, 734.0)">8</text><text xml:space="preserve" font-family="Avenir-Light" font-size="20.7" fill="#FEFFFF" transform="matrix(1.00, 0.00, -0.00, -1.00, 725.9, 734.0)">/</text><text xml:space="preserve" font-family="Avenir-Light" font-size="20.7" fill="#FEFFFF" transform="matrix(1.00, 0.00, -0.00, -1.00, 736.8, 734.0)">9</text><text xml:space="preserve" font-family="Avenir-Light" font-size="20.7" fill="#FEFFFF" transform="matrix(1.00, 0.00, -0.00, -1.00, 750.9, 734.0)"> </text><text xml:space="preserve" font-family="Avenir-Light" font-size="20.7" fill="#FEFFFF" transform="matrix(1.00, 0.00, -0.00, -1.00, 759.6, 734.0)">(</text><text xml:space="preserve" font-family="Avenir-Light" font-size="20.7" fill="#FEFFFF" transform="matrix(1.00, 0.00, -0.00, -1.00, 768.3, 734.0)">9</text><text xml:space="preserve" font-family="Avenir-Light" font-size="20.7" fill="#FEFFFF" transform="matrix(1.00, 0.00, -0.00, -1.00, 782.4, 734.0)">2</text><text xml:space="preserve" font-family="Avenir-Light" font-size="20.7" fill="#FEFFFF" transform="matrix(1.00, 0.00, -0.00, -1.00, 796.4, 734.0)">8</text><text xml:space="preserve" font-family="Avenir-Light" font-size="20.7" fill="#FEFFFF" transform="matrix(1.00, 0.00, -0.00, -1.00, 810.5, 734.0)">/</text><text xml:space="preserve" font-family="Avenir-Light" font-size="20.7" fill="#FEFFFF" transform="matrix(1.00, 0.00, -0.00, -1.00, 821.5, 734.0)">4</text><text xml:space="preserve" font-family="Avenir-Light" font-size="20.7" fill="#FEFFFF" transform="matrix(1.00, 0.00, -0.00, -1.00, 835.6, 734.0)">9</text><text xml:space="preserve" font-family="Avenir-Light" font-size="20.7" fill="#FEFFFF" transform="matrix(1.00, 0.00, -0.00, -1.00, 849.6, 734.0)">0</text><text xml:space="preserve" font-family="Avenir-Light" font-size="20.7" fill="#FEFFFF" transform="matrix(1.00, 0.00, -0.00, -1.00, 863.7, 734.0)"> </text><text xml:space="preserve" font-family="Avenir-Light" font-size="20.7" fill="#FEFFFF" transform="matrix(1.00, 0.00, -0.00, -1.00, 872.4, 734.0)">K</text><text xml:space="preserve" font-family="Avenir-Light" font-size="20.7" fill="#FEFFFF" transform="matrix(1.00, 0.00, -0.00, -1.00, 888.4, 734.0)">M</text><text xml:space="preserve" font-family="Avenir-Light" font-size="20.7" fill="#FEFFFF" transform="matrix(1.00, 0.00, -0.00, -1.00, 910.1, 734.0)">)</text></g></svg>