<?xml version="1.0" encoding="UTF-8"?><svg xmlns="http://www.w3.org/2000/svg" xmlns:xlink="http://www.w3.org/1999/xlink" clip-rule="evenodd" stroke-miterlimit="4.00" viewBox="0 0 1024 768"><desc>SVG generated by Keynote</desc><defs></defs><g transform="matrix(1.00, 0.00, -0.00, -1.00, 0.0, 768.0)"><path d="M 0.0 768.0 L 1024.0 768.0 L 1024.0 0.0 L 0.0 0.0 Z M 0.0 768.0 " fill="#000000"></path><g><clipPath id="clip-278"><path d="M 0.0 383.0 L 512.0 383.0 L 512.0 -1.0 L 0.0 -1.0 Z M 0.0 382.8 "></path></clipPath><g clip-path="url(#clip-278)"><image xlink:href="E3B35F8BC357DD92444254891A325490.jpeg" width="578.00" height="384.00" transform="matrix(1.00, 0.00, -0.00, -1.00, -33.0, 383.0)"></image></g></g><path d="M 0.0 0.0 L 0.0 384.0 L 512.0 384.0 L 512.0 0.0 L 0.0 0.0 Z M 0.0 0.0 " fill="none" stroke="#000000" stroke-width="3.00" transform="matrix(1.00, 0.00, 0.00, -1.00, 0.0, 382.8)"></path><g><clipPath id="clip-279"><path d="M 0.0 383.0 L 512.0 383.0 L 512.0 767.0 L 0.0 767.0 Z M 0.0 383.0 "></path></clipPath><g clip-path="url(#clip-279)"><image xlink:href="E3D5EC05593CF8876F154CDB7223837D.jpeg" width="578.00" height="384.00" transform="matrix(1.00, 0.00, -0.00, -1.00, -33.0, 767.0)"></image></g></g><path d="M 0.0 0.0 L 0.0 384.0 L 512.0 384.0 L 512.0 0.0 L 0.0 0.0 Z M 0.0 0.0 " fill="none" stroke="#000000" stroke-width="3.00" transform="matrix(1.00, 0.00, 0.00, -1.00, 0.0, 767.0)"></path><g><clipPath id="clip-280"><path d="M 512.0 -1.0 L 1024.0 -1.0 L 1024.0 767.0 L 512.0 767.0 Z M 512.0 -1.0 "></path></clipPath><g clip-path="url(#clip-280)"><image xlink:href="E3944A28A2F39A7C947BA375FB664FB2.jpeg" width="1156.00" height="769.00" transform="matrix(1.00, 0.00, -0.00, -1.00, 190.0, 768.0)"></image></g></g><path d="M 0.0 0.0 L 0.0 767.0 L 512.0 767.0 L 512.0 0.0 L 0.0 0.0 Z M 0.0 0.0 " fill="none" stroke="#000000" stroke-width="3.00" transform="matrix(1.00, 0.00, 0.00, -1.00, 512.0, 767.0)"></path><text xml:space="preserve" font-family="Avenir-Light" font-size="23.3" fill="#FEFFFE" transform="matrix(1.00, 0.00, -0.00, -1.00, 34.0, 15.0)">E</text><text xml:space="preserve" font-family="Avenir-Light" font-size="23.3" fill="#FEFFFE" transform="matrix(1.00, 0.00, -0.00, -1.00, 51.5, 15.0)">N</text><text xml:space="preserve" font-family="Avenir-Light" font-size="23.3" fill="#FEFFFE" transform="matrix(1.00, 0.00, -0.00, -1.00, 73.4, 15.0)">T</text><text xml:space="preserve" font-family="Avenir-Light" font-size="23.3" fill="#FEFFFE" transform="matrix(1.00, 0.00, -0.00, -1.00, 90.5, 15.0)">E</text><text xml:space="preserve" font-family="Avenir-Light" font-size="23.3" fill="#FEFFFE" transform="matrix(1.00, 0.00, -0.00, -1.00, 108.0, 15.0)">R</text><text xml:space="preserve" font-family="Avenir-Light" font-size="23.3" fill="#FEFFFE" transform="matrix(1.00, 0.00, -0.00, -1.00, 125.5, 15.0)">I</text><text xml:space="preserve" font-family="Avenir-Light" font-size="23.3" fill="#FEFFFE" transform="matrix(1.00, 0.00, -0.00, -1.00, 135.3, 15.0)">N</text><text xml:space="preserve" font-family="Avenir-Light" font-size="23.3" fill="#FEFFFE" transform="matrix(1.00, 0.00, -0.00, -1.00, 157.1, 15.0)">G</text><text xml:space="preserve" font-family="Avenir-Light" font-size="23.3" fill="#FEFFFE" transform="matrix(1.00, 0.00, -0.00, -1.00, 179.0, 15.0)"> </text><text xml:space="preserve" font-family="Avenir-Light" font-size="23.3" fill="#FEFFFE" transform="matrix(1.00, 0.00, -0.00, -1.00, 188.7, 15.0)">Y</text><text xml:space="preserve" font-family="Avenir-Light" font-size="23.3" fill="#FEFFFE" transform="matrix(1.00, 0.00, -0.00, -1.00, 205.8, 15.0)">U</text><text xml:space="preserve" font-family="Avenir-Light" font-size="23.3" fill="#FEFFFE" transform="matrix(1.00, 0.00, -0.00, -1.00, 225.5, 15.0)">K</text><text xml:space="preserve" font-family="Avenir-Light" font-size="23.3" fill="#FEFFFE" transform="matrix(1.00, 0.00, -0.00, -1.00, 243.4, 15.0)">O</text><text xml:space="preserve" font-family="Avenir-Light" font-size="23.3" fill="#FEFFFE" transform="matrix(1.00, 0.00, -0.00, -1.00, 266.6, 15.0)">N</text><text xml:space="preserve" font-family="Avenir-Light" font-size="23.3" fill="#FEFFFE" transform="matrix(1.00, 0.00, -0.00, -1.00, 288.4, 15.0)"> </text><text xml:space="preserve" font-family="Avenir-Light" font-size="23.3" fill="#FEFFFE" transform="matrix(1.00, 0.00, -0.00, -1.00, 298.2, 15.0)">T</text><text xml:space="preserve" font-family="Avenir-Light" font-size="23.3" fill="#FEFFFE" transform="matrix(1.00, 0.00, -0.00, -1.00, 315.3, 15.0)">E</text><text xml:space="preserve" font-family="Avenir-Light" font-size="23.3" fill="#FEFFFE" transform="matrix(1.00, 0.00, -0.00, -1.00, 332.8, 15.0)">R</text><text xml:space="preserve" font-family="Avenir-Light" font-size="23.3" fill="#FEFFFE" transform="matrix(1.00, 0.00, -0.00, -1.00, 350.3, 15.0)">R</text><text xml:space="preserve" font-family="Avenir-Light" font-size="23.3" fill="#FEFFFE" transform="matrix(1.00, 0.00, -0.00, -1.00, 367.9, 15.0)">I</text><text xml:space="preserve" font-family="Avenir-Light" font-size="23.3" fill="#FEFFFE" transform="matrix(1.00, 0.00, -0.00, -1.00, 377.6, 15.0)">T</text><text xml:space="preserve" font-family="Avenir-Light" font-size="23.3" fill="#FEFFFE" transform="matrix(1.00, 0.00, -0.00, -1.00, 394.7, 15.0)">O</text><text xml:space="preserve" font-family="Avenir-Light" font-size="23.3" fill="#FEFFFE" transform="matrix(1.00, 0.00, -0.00, -1.00, 417.9, 15.0)">R</text><text xml:space="preserve" font-family="Avenir-Light" font-size="23.3" fill="#FEFFFE" transform="matrix(1.00, 0.00, -0.00, -1.00, 435.1, 15.0)">Y</text></g></svg>