<?xml version="1.0" encoding="UTF-8"?><svg xmlns="http://www.w3.org/2000/svg" xmlns:xlink="http://www.w3.org/1999/xlink" clip-rule="evenodd" stroke-miterlimit="4.00" viewBox="0 0 1024 768"><desc>SVG generated by Keynote</desc><defs></defs><g transform="matrix(1.00, 0.00, -0.00, -1.00, 0.0, 768.0)"><path d="M 0.0 768.0 L 1024.0 768.0 L 1024.0 0.0 L 0.0 0.0 Z M 0.0 768.0 " fill="#000000"></path><g><clipPath id="clip-441"><path d="M 512.0 384.0 L 1024.0 384.0 L 1024.0 0.0 L 512.0 0.0 Z M 512.0 383.8 "></path></clipPath><g clip-path="url(#clip-441)"><image xlink:href="../../75AE9E2C-ABAB-446F-A95F-3E84A74DBF09/assets/F01AD271D760806A997F566A9562AE96.jpeg" width="578.00" height="384.00" transform="matrix(1.00, 0.00, -0.00, -1.00, 448.0, 384.0)"></image></g></g><path d="M 0.0 0.0 L 0.0 384.0 L 512.0 384.0 L 512.0 0.0 L 0.0 0.0 Z M 0.0 0.0 " fill="none" stroke="#000000" stroke-width="3.00" transform="matrix(1.00, 0.00, 0.00, -1.00, 512.0, 383.8)"></path><g><clipPath id="clip-442"><path d="M 512.0 384.0 L 1024.0 384.0 L 1024.0 768.0 L 512.0 768.0 Z M 512.0 384.0 "></path></clipPath><g clip-path="url(#clip-442)"><image xlink:href="../../75AE9E2C-ABAB-446F-A95F-3E84A74DBF09/assets/B7C2D1A64651F58C08EFEB9953EA1DC1.jpeg" width="578.00" height="384.00" transform="matrix(1.00, 0.00, -0.00, -1.00, 511.0, 768.0)"></image></g></g><path d="M 0.0 0.0 L 0.0 384.0 L 512.0 384.0 L 512.0 0.0 L 0.0 0.0 Z M 0.0 0.0 " fill="none" stroke="#000000" stroke-width="3.00" transform="matrix(1.00, 0.00, 0.00, -1.00, 512.0, 768.0)"></path><g><clipPath id="clip-443"><path d="M 0.0 0.0 L 512.0 0.0 L 512.0 768.0 L 0.0 768.0 Z M 0.0 0.0 "></path></clipPath><g clip-path="url(#clip-443)"><image xlink:href="../../75AE9E2C-ABAB-446F-A95F-3E84A74DBF09/assets/6ED34CCAEC3E740831F213E3610B4AF7.jpeg" width="1156.00" height="769.00" transform="matrix(1.00, 0.00, -0.00, -1.00, -322.0, 768.0)"></image></g></g><path d="M 0.0 0.0 L 0.0 768.0 L 512.0 768.0 L 512.0 0.0 L 0.0 0.0 Z M 0.0 0.0 " fill="none" stroke="#000000" stroke-width="3.00" transform="matrix(1.00, 0.00, 0.00, -1.00, 0.0, 768.0)"></path><text xml:space="preserve" font-family="Avenir-Medium" font-size="20.7" fill="#FEFFFF" transform="matrix(1.00, 0.00, -0.00, -1.00, 16.0, 11.0)">W</text><text xml:space="preserve" font-family="Avenir-Medium" font-size="20.7" fill="#FEFFFF" transform="matrix(1.00, 0.00, -0.00, -1.00, 39.2, 11.0)">E</text><text xml:space="preserve" font-family="Avenir-Medium" font-size="20.7" fill="#FEFFFF" transform="matrix(1.00, 0.00, -0.00, -1.00, 55.2, 11.0)">A</text><text xml:space="preserve" font-family="Avenir-Medium" font-size="20.7" fill="#FEFFFF" transform="matrix(1.00, 0.00, -0.00, -1.00, 71.2, 11.0)">T</text><text xml:space="preserve" font-family="Avenir-Medium" font-size="20.7" fill="#FEFFFF" transform="matrix(1.00, 0.00, -0.00, -1.00, 86.4, 11.0)">H</text><text xml:space="preserve" font-family="Avenir-Medium" font-size="20.7" fill="#FEFFFF" transform="matrix(1.00, 0.00, -0.00, -1.00, 105.0, 11.0)">E</text><text xml:space="preserve" font-family="Avenir-Medium" font-size="20.7" fill="#FEFFFF" transform="matrix(1.00, 0.00, -0.00, -1.00, 121.0, 11.0)">R</text><text xml:space="preserve" font-family="Avenir-Medium" font-size="20.7" fill="#FEFFFF" transform="matrix(1.00, 0.00, -0.00, -1.00, 136.9, 11.0)">,</text><text xml:space="preserve" font-family="Avenir-Medium" font-size="20.7" fill="#FEFFFF" transform="matrix(1.00, 0.00, -0.00, -1.00, 146.0, 11.0)"> </text><text xml:space="preserve" font-family="Avenir-Medium" font-size="20.7" fill="#FEFFFF" transform="matrix(1.00, 0.00, -0.00, -1.00, 155.1, 11.0)">W</text><text xml:space="preserve" font-family="Avenir-Medium" font-size="20.7" fill="#FEFFFF" transform="matrix(1.00, 0.00, -0.00, -1.00, 178.3, 11.0)">I</text><text xml:space="preserve" font-family="Avenir-Medium" font-size="20.7" fill="#FEFFFF" transform="matrix(1.00, 0.00, -0.00, -1.00, 187.4, 11.0)">L</text><text xml:space="preserve" font-family="Avenir-Medium" font-size="20.7" fill="#FEFFFF" transform="matrix(1.00, 0.00, -0.00, -1.00, 201.4, 11.0)">D</text><text xml:space="preserve" font-family="Avenir-Medium" font-size="20.7" fill="#FEFFFF" transform="matrix(1.00, 0.00, -0.00, -1.00, 220.1, 11.0)">L</text><text xml:space="preserve" font-family="Avenir-Medium" font-size="20.7" fill="#FEFFFF" transform="matrix(1.00, 0.00, -0.00, -1.00, 234.1, 11.0)">I</text><text xml:space="preserve" font-family="Avenir-Medium" font-size="20.7" fill="#FEFFFF" transform="matrix(1.00, 0.00, -0.00, -1.00, 243.2, 11.0)">F</text><text xml:space="preserve" font-family="Avenir-Medium" font-size="20.7" fill="#FEFFFF" transform="matrix(1.00, 0.00, -0.00, -1.00, 258.4, 11.0)">E</text><text xml:space="preserve" font-family="Avenir-Medium" font-size="20.7" fill="#FEFFFF" transform="matrix(1.00, 0.00, -0.00, -1.00, 274.3, 11.0)"> </text><text xml:space="preserve" font-family="Avenir-Medium" font-size="20.7" fill="#FEFFFF" transform="matrix(1.00, 0.00, -0.00, -1.00, 283.4, 11.0)">(</text><text xml:space="preserve" font-family="Avenir-Medium" font-size="20.7" fill="#FEFFFF" transform="matrix(1.00, 0.00, -0.00, -1.00, 292.5, 11.0)">B</text><text xml:space="preserve" font-family="Avenir-Medium" font-size="20.7" fill="#FEFFFF" transform="matrix(1.00, 0.00, -0.00, -1.00, 308.8, 11.0)">I</text><text xml:space="preserve" font-family="Avenir-Medium" font-size="20.7" fill="#FEFFFF" transform="matrix(1.00, 0.00, -0.00, -1.00, 317.9, 11.0)">S</text><text xml:space="preserve" font-family="Avenir-Medium" font-size="20.7" fill="#FEFFFF" transform="matrix(1.00, 0.00, -0.00, -1.00, 332.7, 11.0)">O</text><text xml:space="preserve" font-family="Avenir-Medium" font-size="20.7" fill="#FEFFFF" transform="matrix(1.00, 0.00, -0.00, -1.00, 353.2, 11.0)">N</text><text xml:space="preserve" font-family="Avenir-Medium" font-size="20.7" fill="#FEFFFF" transform="matrix(1.00, 0.00, -0.00, -1.00, 373.0, 11.0)">S</text><text xml:space="preserve" font-family="Avenir-Medium" font-size="20.7" fill="#FEFFFF" transform="matrix(1.00, 0.00, -0.00, -1.00, 387.9, 11.0)"> </text><text xml:space="preserve" font-family="Avenir-Medium" font-size="20.7" fill="#FEFFFF" transform="matrix(1.00, 0.00, -0.00, -1.00, 396.9, 11.0)">/</text><text xml:space="preserve" font-family="Avenir-Medium" font-size="20.7" fill="#FEFFFF" transform="matrix(1.00, 0.00, -0.00, -1.00, 408.3, 11.0)"> </text><text xml:space="preserve" font-family="Avenir-Medium" font-size="20.7" fill="#FEFFFF" transform="matrix(1.00, 0.00, -0.00, -1.00, 417.4, 11.0)">M</text><text xml:space="preserve" font-family="Avenir-Medium" font-size="20.7" fill="#FEFFFF" transform="matrix(1.00, 0.00, -0.00, -1.00, 439.4, 11.0)">O</text><text xml:space="preserve" font-family="Avenir-Medium" font-size="20.7" fill="#FEFFFF" transform="matrix(1.00, 0.00, -0.00, -1.00, 460.0, 11.0)">O</text><text xml:space="preserve" font-family="Avenir-Medium" font-size="20.7" fill="#FEFFFF" transform="matrix(1.00, 0.00, -0.00, -1.00, 480.5, 11.0)">S</text><text xml:space="preserve" font-family="Avenir-Medium" font-size="20.7" fill="#FEFFFF" transform="matrix(1.00, 0.00, -0.00, -1.00, 495.3, 11.0)">E</text><text xml:space="preserve" font-family="Avenir-Medium" font-size="20.7" fill="#FEFFFF" transform="matrix(1.00, 0.00, -0.00, -1.00, 511.3, 11.0)"> </text><text xml:space="preserve" font-family="Avenir-Medium" font-size="20.7" fill="#FEFFFF" transform="matrix(1.00, 0.00, -0.00, -1.00, 520.3, 11.0)">P</text><text xml:space="preserve" font-family="Avenir-Medium" font-size="20.7" fill="#FEFFFF" transform="matrix(1.00, 0.00, -0.00, -1.00, 535.9, 11.0)">I</text><text xml:space="preserve" font-family="Avenir-Medium" font-size="20.7" fill="#FEFFFF" transform="matrix(1.00, 0.00, -0.00, -1.00, 545.0, 11.0)">C</text><text xml:space="preserve" font-family="Avenir-Medium" font-size="20.7" fill="#FEFFFF" transform="matrix(1.00, 0.00, -0.00, -1.00, 562.9, 11.0)">T</text><text xml:space="preserve" font-family="Avenir-Medium" font-size="20.7" fill="#FEFFFF" transform="matrix(1.00, 0.00, -0.00, -1.00, 578.1, 11.0)">U</text><text xml:space="preserve" font-family="Avenir-Medium" font-size="20.7" fill="#FEFFFF" transform="matrix(1.00, 0.00, -0.00, -1.00, 596.0, 11.0)">R</text><text xml:space="preserve" font-family="Avenir-Medium" font-size="20.7" fill="#FEFFFF" transform="matrix(1.00, 0.00, -0.00, -1.00, 611.9, 11.0)">E</text><text xml:space="preserve" font-family="Avenir-Medium" font-size="20.7" fill="#FEFFFF" transform="matrix(1.00, 0.00, -0.00, -1.00, 627.9, 11.0)">D</text><text xml:space="preserve" font-family="Avenir-Medium" font-size="20.7" fill="#FEFFFF" transform="matrix(1.00, 0.00, -0.00, -1.00, 646.5, 11.0)">)</text><text xml:space="preserve" font-family="Avenir-Medium" font-size="20.7" fill="#FEFFFF" transform="matrix(1.00, 0.00, -0.00, -1.00, 655.6, 11.0)"> </text><text xml:space="preserve" font-family="Avenir-Medium" font-size="20.7" fill="#FEFFFF" transform="matrix(1.00, 0.00, -0.00, -1.00, 664.7, 11.0)">&amp;</text><text xml:space="preserve" font-family="Avenir-Medium" font-size="20.7" fill="#FEFFFF" transform="matrix(1.00, 0.00, -0.00, -1.00, 682.9, 11.0)"> </text><text xml:space="preserve" font-family="Avenir-Medium" font-size="20.7" fill="#FEFFFF" transform="matrix(1.00, 0.00, -0.00, -1.00, 692.0, 11.0)">O</text><text xml:space="preserve" font-family="Avenir-Medium" font-size="20.7" fill="#FEFFFF" transform="matrix(1.00, 0.00, -0.00, -1.00, 712.5, 11.0)">T</text><text xml:space="preserve" font-family="Avenir-Medium" font-size="20.7" fill="#FEFFFF" transform="matrix(1.00, 0.00, -0.00, -1.00, 727.7, 11.0)">H</text><text xml:space="preserve" font-family="Avenir-Medium" font-size="20.7" fill="#FEFFFF" transform="matrix(1.00, 0.00, -0.00, -1.00, 746.4, 11.0)">E</text><text xml:space="preserve" font-family="Avenir-Medium" font-size="20.7" fill="#FEFFFF" transform="matrix(1.00, 0.00, -0.00, -1.00, 762.3, 11.0)">R</text><text xml:space="preserve" font-family="Avenir-Medium" font-size="20.7" fill="#FEFFFF" transform="matrix(1.00, 0.00, -0.00, -1.00, 778.3, 11.0)"> </text><text xml:space="preserve" font-family="Avenir-Medium" font-size="20.7" fill="#FEFFFF" transform="matrix(1.00, 0.00, -0.00, -1.00, 787.3, 11.0)">R</text><text xml:space="preserve" font-family="Avenir-Medium" font-size="20.7" fill="#FEFFFF" transform="matrix(1.00, 0.00, -0.00, -1.00, 803.3, 11.0)">O</text><text xml:space="preserve" font-family="Avenir-Medium" font-size="20.7" fill="#FEFFFF" transform="matrix(1.00, 0.00, -0.00, -1.00, 823.8, 11.0)">A</text><text xml:space="preserve" font-family="Avenir-Medium" font-size="20.7" fill="#FEFFFF" transform="matrix(1.00, 0.00, -0.00, -1.00, 841.7, 11.0)">D</text><text xml:space="preserve" font-family="Avenir-Medium" font-size="20.7" fill="#FEFFFF" transform="matrix(1.00, 0.00, -0.00, -1.00, 860.4, 11.0)"> </text><text xml:space="preserve" font-family="Avenir-Medium" font-size="20.7" fill="#FEFFFF" transform="matrix(1.00, 0.00, -0.00, -1.00, 869.4, 11.0)">H</text><text xml:space="preserve" font-family="Avenir-Medium" font-size="20.7" fill="#FEFFFF" transform="matrix(1.00, 0.00, -0.00, -1.00, 888.1, 11.0)">A</text><text xml:space="preserve" font-family="Avenir-Medium" font-size="20.7" fill="#FEFFFF" transform="matrix(1.00, 0.00, -0.00, -1.00, 906.0, 11.0)">Z</text><text xml:space="preserve" font-family="Avenir-Medium" font-size="20.7" fill="#FEFFFF" transform="matrix(1.00, 0.00, -0.00, -1.00, 921.6, 11.0)">A</text><text xml:space="preserve" font-family="Avenir-Medium" font-size="20.7" fill="#FEFFFF" transform="matrix(1.00, 0.00, -0.00, -1.00, 939.4, 11.0)">R</text><text xml:space="preserve" font-family="Avenir-Medium" font-size="20.7" fill="#FEFFFF" transform="matrix(1.00, 0.00, -0.00, -1.00, 955.4, 11.0)">D</text><text xml:space="preserve" font-family="Avenir-Medium" font-size="20.7" fill="#FEFFFF" transform="matrix(1.00, 0.00, -0.00, -1.00, 974.1, 11.0)">S</text></g></svg>