<?xml version="1.0" encoding="UTF-8"?><svg xmlns="http://www.w3.org/2000/svg" xmlns:xlink="http://www.w3.org/1999/xlink" clip-rule="evenodd" stroke-miterlimit="4.00" viewBox="0 0 1024 768"><desc>SVG generated by Keynote</desc><defs></defs><g transform="matrix(1.00, 0.00, -0.00, -1.00, 0.0, 768.0)"><path d="M 0.0 768.0 L 1024.0 768.0 L 1024.0 0.0 L 0.0 0.0 Z M 0.0 768.0 " fill="#000000"></path><g><clipPath id="clip-58"><path d="M 0.0 0.0 L 1024.0 0.0 L 1024.0 554.0 L 0.0 554.0 Z M 0.0 0.0 "></path></clipPath><g clip-path="url(#clip-58)"><image xlink:href="A38EDE0F3768E891194E581BE0D8F1AF.jpeg" width="1024.00" height="681.00" transform="matrix(1.00, 0.00, -0.00, -1.00, 0.0, 617.0)"></image></g></g><text xml:space="preserve" font-family="Avenir-Light" font-size="53.9" fill="#FEFFFF" transform="matrix(1.00, 0.00, -0.00, -1.00, 56.0, 631.0)">I</text><text xml:space="preserve" font-family="Avenir-Light" font-size="53.9" fill="#FEFFFF" transform="matrix(1.00, 0.00, -0.00, -1.00, 78.7, 631.0)">M</text><text xml:space="preserve" font-family="Avenir-Light" font-size="53.9" fill="#FEFFFF" transform="matrix(1.00, 0.00, -0.00, -1.00, 135.2, 631.0)">A</text><text xml:space="preserve" font-family="Avenir-Light" font-size="53.9" fill="#FEFFFF" transform="matrix(1.00, 0.00, -0.00, -1.00, 180.8, 631.0)">G</text><text xml:space="preserve" font-family="Avenir-Light" font-size="53.9" fill="#FEFFFF" transform="matrix(1.00, 0.00, -0.00, -1.00, 231.4, 631.0)">E</text><text xml:space="preserve" font-family="Avenir-Light" font-size="53.9" fill="#FEFFFF" transform="matrix(1.00, 0.00, -0.00, -1.00, 272.0, 631.0)">S</text><text xml:space="preserve" font-family="Avenir-Light" font-size="53.9" fill="#FEFFFF" transform="matrix(1.00, 0.00, -0.00, -1.00, 310.7, 631.0)"> </text><text xml:space="preserve" font-family="Avenir-Light" font-size="53.9" fill="#FEFFFF" transform="matrix(1.00, 0.00, -0.00, -1.00, 333.3, 631.0)">O</text><text xml:space="preserve" font-family="Avenir-Light" font-size="53.9" fill="#FEFFFF" transform="matrix(1.00, 0.00, -0.00, -1.00, 386.9, 631.0)">F</text><text xml:space="preserve" font-family="Avenir-Light" font-size="53.9" fill="#FEFFFF" transform="matrix(1.00, 0.00, -0.00, -1.00, 425.5, 631.0)"> </text><text xml:space="preserve" font-family="Avenir-Light" font-size="53.9" fill="#FEFFFF" transform="matrix(1.00, 0.00, -0.00, -1.00, 448.2, 631.0)">B</text><text xml:space="preserve" font-family="Avenir-Light" font-size="53.9" fill="#FEFFFF" transform="matrix(1.00, 0.00, -0.00, -1.00, 490.8, 631.0)">C</text><text xml:space="preserve" font-family="Avenir-Light" font-size="53.9" fill="#FEFFFF" transform="matrix(1.00, 0.00, -0.00, -1.00, 537.4, 631.0)"> </text><text xml:space="preserve" font-family="Avenir-Light" font-size="53.9" fill="#FEFFFF" transform="matrix(1.00, 0.00, -0.00, -1.00, 560.1, 631.0)">W</text><text xml:space="preserve" font-family="Avenir-Light" font-size="53.9" fill="#FEFFFF" transform="matrix(1.00, 0.00, -0.00, -1.00, 619.6, 631.0)">I</text><text xml:space="preserve" font-family="Avenir-Light" font-size="53.9" fill="#FEFFFF" transform="matrix(1.00, 0.00, -0.00, -1.00, 642.3, 631.0)">L</text><text xml:space="preserve" font-family="Avenir-Light" font-size="53.9" fill="#FEFFFF" transform="matrix(1.00, 0.00, -0.00, -1.00, 677.9, 631.0)">D</text><text xml:space="preserve" font-family="Avenir-Light" font-size="53.9" fill="#FEFFFF" transform="matrix(1.00, 0.00, -0.00, -1.00, 726.5, 631.0)">E</text><text xml:space="preserve" font-family="Avenir-Light" font-size="53.9" fill="#FEFFFF" transform="matrix(1.00, 0.00, -0.00, -1.00, 767.1, 631.0)">R</text><text xml:space="preserve" font-family="Avenir-Light" font-size="53.9" fill="#FEFFFF" transform="matrix(1.00, 0.00, -0.00, -1.00, 807.7, 631.0)">N</text><text xml:space="preserve" font-family="Avenir-Light" font-size="53.9" fill="#FEFFFF" transform="matrix(1.00, 0.00, -0.00, -1.00, 858.3, 631.0)">E</text><text xml:space="preserve" font-family="Avenir-Light" font-size="53.9" fill="#FEFFFF" transform="matrix(1.00, 0.00, -0.00, -1.00, 898.9, 631.0)">S</text><text xml:space="preserve" font-family="Avenir-Light" font-size="53.9" fill="#FEFFFF" transform="matrix(1.00, 0.00, -0.00, -1.00, 937.5, 631.0)">S</text><text xml:space="preserve" font-family="Avenir-Book" font-size="23.3" fill="#FEFFFE" transform="matrix(1.00, 0.00, -0.00, -1.00, 56.0, 701.0)">D</text><text xml:space="preserve" font-family="Avenir-Book" font-size="23.3" fill="#FEFFFE" transform="matrix(1.00, 0.00, -0.00, -1.00, 77.0, 701.0)">R</text><text xml:space="preserve" font-family="Avenir-Book" font-size="23.3" fill="#FEFFFE" transform="matrix(1.00, 0.00, -0.00, -1.00, 94.5, 701.0)">I</text><text xml:space="preserve" font-family="Avenir-Book" font-size="23.3" fill="#FEFFFE" transform="matrix(1.00, 0.00, -0.00, -1.00, 104.4, 701.0)">V</text><text xml:space="preserve" font-family="Avenir-Book" font-size="23.3" fill="#FEFFFE" transform="matrix(1.00, 0.00, -0.00, -1.00, 122.3, 701.0)">I</text><text xml:space="preserve" font-family="Avenir-Book" font-size="23.3" fill="#FEFFFE" transform="matrix(1.00, 0.00, -0.00, -1.00, 132.2, 701.0)">N</text><text xml:space="preserve" font-family="Avenir-Book" font-size="23.3" fill="#FEFFFE" transform="matrix(1.00, 0.00, -0.00, -1.00, 154.0, 701.0)">G</text><text xml:space="preserve" font-family="Avenir-Book" font-size="23.3" fill="#FEFFFE" transform="matrix(1.00, 0.00, -0.00, -1.00, 175.9, 701.0)"> </text><text xml:space="preserve" font-family="Avenir-Book" font-size="23.3" fill="#FEFFFE" transform="matrix(1.00, 0.00, -0.00, -1.00, 186.1, 701.0)">B</text><text xml:space="preserve" font-family="Avenir-Book" font-size="23.3" fill="#FEFFFE" transform="matrix(1.00, 0.00, -0.00, -1.00, 204.5, 701.0)">A</text><text xml:space="preserve" font-family="Avenir-Book" font-size="23.3" fill="#FEFFFE" transform="matrix(1.00, 0.00, -0.00, -1.00, 224.2, 701.0)">C</text><text xml:space="preserve" font-family="Avenir-Book" font-size="23.3" fill="#FEFFFE" transform="matrix(1.00, 0.00, -0.00, -1.00, 244.3, 701.0)">K</text><text xml:space="preserve" font-family="Avenir-Light" font-size="18.9" fill="#FEFFFF" transform="matrix(1.00, 0.00, -0.00, -1.00, 330.0, 17.0)">H</text><text xml:space="preserve" font-family="Avenir-Light" font-size="18.9" fill="#FEFFFF" transform="matrix(1.00, 0.00, -0.00, -1.00, 346.7, 17.0)">I</text><text xml:space="preserve" font-family="Avenir-Light" font-size="18.9" fill="#FEFFFF" transform="matrix(1.00, 0.00, -0.00, -1.00, 354.6, 17.0)">G</text><text xml:space="preserve" font-family="Avenir-Light" font-size="18.9" fill="#FEFFFF" transform="matrix(1.00, 0.00, -0.00, -1.00, 372.3, 17.0)">H</text><text xml:space="preserve" font-family="Avenir-Light" font-size="18.9" fill="#FEFFFF" transform="matrix(1.00, 0.00, -0.00, -1.00, 389.0, 17.0)">W</text><text xml:space="preserve" font-family="Avenir-Light" font-size="18.9" fill="#FEFFFF" transform="matrix(1.00, 0.00, -0.00, -1.00, 409.5, 17.0)">A</text><text xml:space="preserve" font-family="Avenir-Light" font-size="18.9" fill="#FEFFFF" transform="matrix(1.00, 0.00, -0.00, -1.00, 424.1, 17.0)">Y</text><text xml:space="preserve" font-family="Avenir-Light" font-size="18.9" fill="#FEFFFF" transform="matrix(1.00, 0.00, -0.00, -1.00, 438.0, 17.0)"> </text><text xml:space="preserve" font-family="Avenir-Light" font-size="18.9" fill="#FEFFFF" transform="matrix(1.00, 0.00, -0.00, -1.00, 445.9, 17.0)">3</text><text xml:space="preserve" font-family="Avenir-Light" font-size="18.9" fill="#FEFFFF" transform="matrix(1.00, 0.00, -0.00, -1.00, 458.8, 17.0)">7</text><text xml:space="preserve" font-family="Avenir-Light" font-size="18.9" fill="#FEFFFF" transform="matrix(1.00, 0.00, -0.00, -1.00, 471.6, 17.0)">,</text><text xml:space="preserve" font-family="Avenir-Light" font-size="18.9" fill="#FEFFFF" transform="matrix(1.00, 0.00, -0.00, -1.00, 479.6, 17.0)"> </text><text xml:space="preserve" font-family="Avenir-Light" font-size="18.9" fill="#FEFFFF" transform="matrix(1.00, 0.00, -0.00, -1.00, 487.5, 17.0)">N</text><text xml:space="preserve" font-family="Avenir-Light" font-size="18.9" fill="#FEFFFF" transform="matrix(1.00, 0.00, -0.00, -1.00, 505.2, 17.0)">O</text><text xml:space="preserve" font-family="Avenir-Light" font-size="18.9" fill="#FEFFFF" transform="matrix(1.00, 0.00, -0.00, -1.00, 524.0, 17.0)">R</text><text xml:space="preserve" font-family="Avenir-Light" font-size="18.9" fill="#FEFFFF" transform="matrix(1.00, 0.00, -0.00, -1.00, 538.4, 17.0)">T</text><text xml:space="preserve" font-family="Avenir-Light" font-size="18.9" fill="#FEFFFF" transform="matrix(1.00, 0.00, -0.00, -1.00, 552.2, 17.0)">H</text><text xml:space="preserve" font-family="Avenir-Light" font-size="18.9" fill="#FEFFFF" transform="matrix(1.00, 0.00, -0.00, -1.00, 568.9, 17.0)">E</text><text xml:space="preserve" font-family="Avenir-Light" font-size="18.9" fill="#FEFFFF" transform="matrix(1.00, 0.00, -0.00, -1.00, 583.1, 17.0)">R</text><text xml:space="preserve" font-family="Avenir-Light" font-size="18.9" fill="#FEFFFF" transform="matrix(1.00, 0.00, -0.00, -1.00, 597.4, 17.0)">N</text><text xml:space="preserve" font-family="Avenir-Light" font-size="18.9" fill="#FEFFFF" transform="matrix(1.00, 0.00, -0.00, -1.00, 615.1, 17.0)"> </text><text xml:space="preserve" font-family="Avenir-Light" font-size="18.9" fill="#FEFFFF" transform="matrix(1.00, 0.00, -0.00, -1.00, 623.0, 17.0)">B</text><text xml:space="preserve" font-family="Avenir-Light" font-size="18.9" fill="#FEFFFF" transform="matrix(1.00, 0.00, -0.00, -1.00, 638.0, 17.0)">C</text><text xml:space="preserve" font-family="Avenir-Light" font-size="18.9" fill="#FEFFFF" transform="matrix(1.00, 0.00, -0.00, -1.00, 654.3, 17.0)">,</text><text xml:space="preserve" font-family="Avenir-Light" font-size="18.9" fill="#FEFFFF" transform="matrix(1.00, 0.00, -0.00, -1.00, 662.2, 17.0)"> </text><text xml:space="preserve" font-family="Avenir-Light" font-size="18.9" fill="#FEFFFF" transform="matrix(1.00, 0.00, -0.00, -1.00, 670.2, 17.0)">D</text><text xml:space="preserve" font-family="Avenir-Light" font-size="18.9" fill="#FEFFFF" transform="matrix(1.00, 0.00, -0.00, -1.00, 687.2, 17.0)">A</text><text xml:space="preserve" font-family="Avenir-Light" font-size="18.9" fill="#FEFFFF" transform="matrix(1.00, 0.00, -0.00, -1.00, 701.8, 17.0)">Y</text><text xml:space="preserve" font-family="Avenir-Light" font-size="18.9" fill="#FEFFFF" transform="matrix(1.00, 0.00, -0.00, -1.00, 715.6, 17.0)"> </text><text xml:space="preserve" font-family="Avenir-Light" font-size="18.9" fill="#FEFFFF" transform="matrix(1.00, 0.00, -0.00, -1.00, 723.6, 17.0)">7</text><text xml:space="preserve" font-family="Avenir-Light" font-size="18.9" fill="#FEFFFF" transform="matrix(1.00, 0.00, -0.00, -1.00, 736.4, 17.0)"> </text><text xml:space="preserve" font-family="Avenir-Light" font-size="18.9" fill="#FEFFFF" transform="matrix(1.00, 0.00, -0.00, -1.00, 744.4, 17.0)">(</text><text xml:space="preserve" font-family="Avenir-Light" font-size="18.9" fill="#FEFFFF" transform="matrix(1.00, 0.00, -0.00, -1.00, 752.3, 17.0)">1</text><text xml:space="preserve" font-family="Avenir-Light" font-size="18.9" fill="#FEFFFF" transform="matrix(1.00, 0.00, -0.00, -1.00, 765.2, 17.0)">0</text><text xml:space="preserve" font-family="Avenir-Light" font-size="18.9" fill="#FEFFFF" transform="matrix(1.00, 0.00, -0.00, -1.00, 778.0, 17.0)">9</text><text xml:space="preserve" font-family="Avenir-Light" font-size="18.9" fill="#FEFFFF" transform="matrix(1.00, 0.00, -0.00, -1.00, 790.9, 17.0)">2</text><text xml:space="preserve" font-family="Avenir-Light" font-size="18.9" fill="#FEFFFF" transform="matrix(1.00, 0.00, -0.00, -1.00, 803.7, 17.0)"> </text><text xml:space="preserve" font-family="Avenir-Light" font-size="18.9" fill="#FEFFFF" transform="matrix(1.00, 0.00, -0.00, -1.00, 811.6, 17.0)">K</text><text xml:space="preserve" font-family="Avenir-Light" font-size="18.9" fill="#FEFFFF" transform="matrix(1.00, 0.00, -0.00, -1.00, 826.2, 17.0)">M</text><text xml:space="preserve" font-family="Avenir-Light" font-size="18.9" fill="#FEFFFF" transform="matrix(1.00, 0.00, -0.00, -1.00, 846.0, 17.0)">)</text></g></svg>