<?xml version="1.0" encoding="UTF-8"?><svg xmlns="http://www.w3.org/2000/svg" xmlns:xlink="http://www.w3.org/1999/xlink" clip-rule="evenodd" stroke-miterlimit="4.00" viewBox="0 0 1024 768"><desc>SVG generated by Keynote</desc><defs></defs><g transform="matrix(1.00, 0.00, -0.00, -1.00, 0.0, 768.0)"><path d="M 0.0 768.0 L 1024.0 768.0 L 1024.0 0.0 L 0.0 0.0 Z M 0.0 768.0 " fill="#000000"></path><g><clipPath id="clip-168"><path d="M -2.0 725.0 L 510.0 725.0 L 510.0 341.0 L -2.0 341.0 Z M -1.6 724.5 "></path></clipPath><g clip-path="url(#clip-168)"><image xlink:href="../../DB6442DB-CBC7-4249-A63C-3AFDDE1E80FF/assets/0397779021A7AF378EE433A149EC2CA8.jpeg" width="578.00" height="384.00" transform="matrix(1.00, 0.00, -0.00, -1.00, -34.0, 725.0)"></image></g></g><g><clipPath id="clip-169"><path d="M 512.0 0.0 L 1024.0 0.0 L 1024.0 768.0 L 512.0 768.0 Z M 512.0 0.0 "></path></clipPath><g clip-path="url(#clip-169)"><image xlink:href="../../DB6442DB-CBC7-4249-A63C-3AFDDE1E80FF/assets/0789FAC3168D691C58F196A130FCE6A1.jpeg" width="511.00" height="769.00" transform="matrix(1.00, 0.00, -0.00, -1.00, 512.0, 769.0)"></image></g></g><path d="M 0.0 0.0 L 0.0 768.0 L 512.0 768.0 L 512.0 0.0 L 0.0 0.0 Z M 0.0 0.0 " fill="none" stroke="#000000" stroke-width="3.00" transform="matrix(1.00, 0.00, 0.00, -1.00, 512.0, 768.0)"></path><text xml:space="preserve" font-family="Avenir-Light" font-size="45.0" fill="#FEFFFF" transform="matrix(1.00, 0.00, -0.00, -1.00, 72.0, 718.0)">R</text><text xml:space="preserve" font-family="Avenir-Light" font-size="45.0" fill="#FEFFFF" transform="matrix(1.00, 0.00, -0.00, -1.00, 105.9, 718.0)">E</text><text xml:space="preserve" font-family="Avenir-Light" font-size="45.0" fill="#FEFFFF" transform="matrix(1.00, 0.00, -0.00, -1.00, 139.8, 718.0)">F</text><text xml:space="preserve" font-family="Avenir-Light" font-size="45.0" fill="#FEFFFF" transform="matrix(1.00, 0.00, -0.00, -1.00, 172.0, 718.0)">L</text><text xml:space="preserve" font-family="Avenir-Light" font-size="45.0" fill="#FEFFFF" transform="matrix(1.00, 0.00, -0.00, -1.00, 201.7, 718.0)">E</text><text xml:space="preserve" font-family="Avenir-Light" font-size="45.0" fill="#FEFFFF" transform="matrix(1.00, 0.00, -0.00, -1.00, 235.6, 718.0)">C</text><text xml:space="preserve" font-family="Avenir-Light" font-size="45.0" fill="#FEFFFF" transform="matrix(1.00, 0.00, -0.00, -1.00, 274.5, 718.0)">T</text><text xml:space="preserve" font-family="Avenir-Light" font-size="45.0" fill="#FEFFFF" transform="matrix(1.00, 0.00, -0.00, -1.00, 307.5, 718.0)">I</text><text xml:space="preserve" font-family="Avenir-Light" font-size="45.0" fill="#FEFFFF" transform="matrix(1.00, 0.00, -0.00, -1.00, 326.4, 718.0)">O</text><text xml:space="preserve" font-family="Avenir-Light" font-size="45.0" fill="#FEFFFF" transform="matrix(1.00, 0.00, -0.00, -1.00, 371.1, 718.0)">N</text><text xml:space="preserve" font-family="Avenir-Light" font-size="45.0" fill="#FEFFFF" transform="matrix(1.00, 0.00, -0.00, -1.00, 413.3, 718.0)">S</text><text xml:space="preserve" font-family="Avenir-Book" font-size="24.0" fill="#FEFFFE" transform="matrix(1.00, 0.00, -0.00, -1.00, 26.0, 239.0)">V</text><text xml:space="preserve" font-family="Avenir-Book" font-size="24.0" fill="#FEFFFE" transform="matrix(1.00, 0.00, -0.00, -1.00, 43.2, 239.0)">A</text><text xml:space="preserve" font-family="Avenir-Book" font-size="24.0" fill="#FEFFFE" transform="matrix(1.00, 0.00, -0.00, -1.00, 63.5, 239.0)">N</text><text xml:space="preserve" font-family="Avenir-Book" font-size="24.0" fill="#FEFFFE" transform="matrix(1.00, 0.00, -0.00, -1.00, 86.0, 239.0)">C</text><text xml:space="preserve" font-family="Avenir-Book" font-size="24.0" fill="#FEFFFE" transform="matrix(1.00, 0.00, -0.00, -1.00, 106.7, 239.0)">O</text><text xml:space="preserve" font-family="Avenir-Book" font-size="24.0" fill="#FEFFFE" transform="matrix(1.00, 0.00, -0.00, -1.00, 130.6, 239.0)">U</text><text xml:space="preserve" font-family="Avenir-Book" font-size="24.0" fill="#FEFFFE" transform="matrix(1.00, 0.00, -0.00, -1.00, 150.9, 239.0)">V</text><text xml:space="preserve" font-family="Avenir-Book" font-size="24.0" fill="#FEFFFE" transform="matrix(1.00, 0.00, -0.00, -1.00, 169.4, 239.0)">E</text><text xml:space="preserve" font-family="Avenir-Book" font-size="24.0" fill="#FEFFFE" transform="matrix(1.00, 0.00, -0.00, -1.00, 187.5, 239.0)">R</text><text xml:space="preserve" font-family="Avenir-Book" font-size="24.0" fill="#FEFFFE" transform="matrix(1.00, 0.00, -0.00, -1.00, 205.5, 239.0)"> </text><text xml:space="preserve" font-family="Avenir-Book" font-size="24.0" fill="#FEFFFE" transform="matrix(1.00, 0.00, -0.00, -1.00, 216.1, 239.0)">T</text><text xml:space="preserve" font-family="Avenir-Book" font-size="24.0" fill="#FEFFFE" transform="matrix(1.00, 0.00, -0.00, -1.00, 233.7, 239.0)">O</text><text xml:space="preserve" font-family="Avenir-Book" font-size="24.0" fill="#FEFFFE" transform="matrix(1.00, 0.00, -0.00, -1.00, 257.5, 239.0)"> </text><text xml:space="preserve" font-family="Avenir-Book" font-size="24.0" fill="#FEFFFE" transform="matrix(1.00, 0.00, -0.00, -1.00, 268.0, 239.0)">T</text><text xml:space="preserve" font-family="Avenir-Book" font-size="24.0" fill="#FEFFFE" transform="matrix(1.00, 0.00, -0.00, -1.00, 285.7, 239.0)">H</text><text xml:space="preserve" font-family="Avenir-Book" font-size="24.0" fill="#FEFFFE" transform="matrix(1.00, 0.00, -0.00, -1.00, 306.8, 239.0)">E</text><text xml:space="preserve" font-family="Avenir-Book" font-size="24.0" fill="#FEFFFE" transform="matrix(1.00, 0.00, -0.00, -1.00, 324.9, 239.0)"> </text><text xml:space="preserve" font-family="Avenir-Book" font-size="24.0" fill="#FEFFFE" transform="matrix(1.00, 0.00, -0.00, -1.00, 335.4, 239.0)">Y</text><text xml:space="preserve" font-family="Avenir-Book" font-size="24.0" fill="#FEFFFE" transform="matrix(1.00, 0.00, -0.00, -1.00, 353.0, 239.0)">U</text><text xml:space="preserve" font-family="Avenir-Book" font-size="24.0" fill="#FEFFFE" transform="matrix(1.00, 0.00, -0.00, -1.00, 373.3, 239.0)">K</text><text xml:space="preserve" font-family="Avenir-Book" font-size="24.0" fill="#FEFFFE" transform="matrix(1.00, 0.00, -0.00, -1.00, 392.3, 239.0)">O</text><text xml:space="preserve" font-family="Avenir-Book" font-size="24.0" fill="#FEFFFE" transform="matrix(1.00, 0.00, -0.00, -1.00, 416.1, 239.0)">N</text><text xml:space="preserve" font-family="Avenir-Book" font-size="24.0" fill="#FEFFFE" transform="matrix(1.00, 0.00, -0.00, -1.00, 438.7, 239.0)"> </text><text xml:space="preserve" font-family="Avenir-Book" font-size="24.0" fill="#FEFFFE" transform="matrix(1.00, 0.00, -0.00, -1.00, 26.0, 173.0)">9</text><text xml:space="preserve" font-family="Avenir-Book" font-size="24.0" fill="#FEFFFE" transform="matrix(1.00, 0.00, -0.00, -1.00, 43.2, 173.0)"> </text><text xml:space="preserve" font-family="Avenir-Book" font-size="24.0" fill="#FEFFFE" transform="matrix(1.00, 0.00, -0.00, -1.00, 53.7, 173.0)">D</text><text xml:space="preserve" font-family="Avenir-Book" font-size="24.0" fill="#FEFFFE" transform="matrix(1.00, 0.00, -0.00, -1.00, 75.3, 173.0)">A</text><text xml:space="preserve" font-family="Avenir-Book" font-size="24.0" fill="#FEFFFE" transform="matrix(1.00, 0.00, -0.00, -1.00, 93.8, 173.0)">Y</text><text xml:space="preserve" font-family="Avenir-Book" font-size="24.0" fill="#FEFFFE" transform="matrix(1.00, 0.00, -0.00, -1.00, 111.5, 173.0)">S</text><text xml:space="preserve" font-family="Avenir-Book" font-size="24.0" fill="#FEFFFE" transform="matrix(1.00, 0.00, -0.00, -1.00, 128.6, 173.0)"> </text><text xml:space="preserve" font-family="Avenir-Book" font-size="24.0" fill="#FEFFFE" transform="matrix(1.00, 0.00, -0.00, -1.00, 139.2, 173.0)"> </text><text xml:space="preserve" font-family="Avenir-Book" font-size="24.0" fill="#FEFFFE" transform="matrix(1.00, 0.00, -0.00, -1.00, 149.7, 173.0)"> </text><text xml:space="preserve" font-family="Avenir-Book" font-size="24.0" fill="#FEFFFE" transform="matrix(1.00, 0.00, -0.00, -1.00, 160.2, 173.0)"> </text><text xml:space="preserve" font-family="Avenir-Book" font-size="24.0" fill="#FEFFFE" transform="matrix(1.00, 0.00, -0.00, -1.00, 170.7, 173.0)"> </text><text xml:space="preserve" font-family="Avenir-Book" font-size="24.0" fill="#FEFFFE" transform="matrix(1.00, 0.00, -0.00, -1.00, 181.2, 173.0)"> </text><text xml:space="preserve" font-family="Avenir-Book" font-size="24.0" fill="#FEFFFE" transform="matrix(1.00, 0.00, -0.00, -1.00, 191.7, 173.0)"> </text><text xml:space="preserve" font-family="Avenir-Book" font-size="24.0" fill="#FEFFFE" transform="matrix(1.00, 0.00, -0.00, -1.00, 202.2, 173.0)"> </text><text xml:space="preserve" font-family="Avenir-Book" font-size="24.0" fill="#FEFFFE" transform="matrix(1.00, 0.00, -0.00, -1.00, 212.7, 173.0)"> </text><text xml:space="preserve" font-family="Avenir-Book" font-size="24.0" fill="#FEFFFE" transform="matrix(1.00, 0.00, -0.00, -1.00, 223.3, 173.0)"> </text><text xml:space="preserve" font-family="Avenir-Book" font-size="24.0" fill="#FEFFFE" transform="matrix(1.00, 0.00, -0.00, -1.00, 233.8, 173.0)"> </text><text xml:space="preserve" font-family="Avenir-Book" font-size="24.0" fill="#FEFFFE" transform="matrix(1.00, 0.00, -0.00, -1.00, 244.3, 173.0)"> </text><text xml:space="preserve" font-family="Avenir-Book" font-size="24.0" fill="#FEFFFE" transform="matrix(1.00, 0.00, -0.00, -1.00, 254.8, 173.0)"> </text><text xml:space="preserve" font-family="Avenir-Book" font-size="24.0" fill="#FEFFFE" transform="matrix(1.00, 0.00, -0.00, -1.00, 265.3, 173.0)"> </text><text xml:space="preserve" font-family="Avenir-Book" font-size="24.0" fill="#FEFFFE" transform="matrix(1.00, 0.00, -0.00, -1.00, 275.8, 173.0)"> </text><text xml:space="preserve" font-family="Avenir-Book" font-size="24.0" fill="#FEFFFE" transform="matrix(1.00, 0.00, -0.00, -1.00, 286.3, 173.0)"> </text><text xml:space="preserve" font-family="Avenir-Book" font-size="24.0" fill="#FEFFFE" transform="matrix(1.00, 0.00, -0.00, -1.00, 296.8, 173.0)"> </text><text xml:space="preserve" font-family="Avenir-Book" font-size="24.0" fill="#FEFFFE" transform="matrix(1.00, 0.00, -0.00, -1.00, 307.4, 173.0)">5</text><text xml:space="preserve" font-family="Avenir-Book" font-size="24.0" fill="#FEFFFE" transform="matrix(1.00, 0.00, -0.00, -1.00, 324.5, 173.0)">,</text><text xml:space="preserve" font-family="Avenir-Book" font-size="24.0" fill="#FEFFFE" transform="matrix(1.00, 0.00, -0.00, -1.00, 335.0, 173.0)">6</text><text xml:space="preserve" font-family="Avenir-Book" font-size="24.0" fill="#FEFFFE" transform="matrix(1.00, 0.00, -0.00, -1.00, 352.2, 173.0)">7</text><text xml:space="preserve" font-family="Avenir-Book" font-size="24.0" fill="#FEFFFE" transform="matrix(1.00, 0.00, -0.00, -1.00, 369.4, 173.0)">7</text><text xml:space="preserve" font-family="Avenir-Book" font-size="24.0" fill="#FEFFFE" transform="matrix(1.00, 0.00, -0.00, -1.00, 386.6, 173.0)"> </text><text xml:space="preserve" font-family="Avenir-Book" font-size="24.0" fill="#FEFFFE" transform="matrix(1.00, 0.00, -0.00, -1.00, 397.1, 173.0)">K</text><text xml:space="preserve" font-family="Avenir-Book" font-size="24.0" fill="#FEFFFE" transform="matrix(1.00, 0.00, -0.00, -1.00, 416.1, 173.0)">M</text><text xml:space="preserve" font-family="Avenir-Book" font-size="24.0" fill="#FEFFFE" transform="matrix(1.00, 0.00, -0.00, -1.00, 441.3, 173.0)"> </text><text xml:space="preserve" font-family="Avenir-Book" font-size="24.0" fill="#FEFFFE" transform="matrix(1.00, 0.00, -0.00, -1.00, 26.0, 107.0)">J</text><text xml:space="preserve" font-family="Avenir-Book" font-size="24.0" fill="#FEFFFE" transform="matrix(1.00, 0.00, -0.00, -1.00, 41.4, 107.0)">O</text><text xml:space="preserve" font-family="Avenir-Book" font-size="24.0" fill="#FEFFFE" transform="matrix(1.00, 0.00, -0.00, -1.00, 65.3, 107.0)">U</text><text xml:space="preserve" font-family="Avenir-Book" font-size="24.0" fill="#FEFFFE" transform="matrix(1.00, 0.00, -0.00, -1.00, 85.6, 107.0)">R</text><text xml:space="preserve" font-family="Avenir-Book" font-size="24.0" fill="#FEFFFE" transform="matrix(1.00, 0.00, -0.00, -1.00, 103.6, 107.0)">N</text><text xml:space="preserve" font-family="Avenir-Book" font-size="24.0" fill="#FEFFFE" transform="matrix(1.00, 0.00, -0.00, -1.00, 126.2, 107.0)">E</text><text xml:space="preserve" font-family="Avenir-Book" font-size="24.0" fill="#FEFFFE" transform="matrix(1.00, 0.00, -0.00, -1.00, 144.2, 107.0)">Y</text><text xml:space="preserve" font-family="Avenir-Book" font-size="24.0" fill="#FEFFFE" transform="matrix(1.00, 0.00, -0.00, -1.00, 161.8, 107.0)"> </text><text xml:space="preserve" font-family="Avenir-Book" font-size="24.0" fill="#FEFFFE" transform="matrix(1.00, 0.00, -0.00, -1.00, 172.4, 107.0)">O</text><text xml:space="preserve" font-family="Avenir-Book" font-size="24.0" fill="#FEFFFE" transform="matrix(1.00, 0.00, -0.00, -1.00, 196.2, 107.0)">F</text><text xml:space="preserve" font-family="Avenir-Book" font-size="24.0" fill="#FEFFFE" transform="matrix(1.00, 0.00, -0.00, -1.00, 213.4, 107.0)"> </text><text xml:space="preserve" font-family="Avenir-Book" font-size="24.0" fill="#FEFFFE" transform="matrix(1.00, 0.00, -0.00, -1.00, 223.9, 107.0)">S</text><text xml:space="preserve" font-family="Avenir-Book" font-size="24.0" fill="#FEFFFE" transform="matrix(1.00, 0.00, -0.00, -1.00, 241.1, 107.0)">E</text><text xml:space="preserve" font-family="Avenir-Book" font-size="24.0" fill="#FEFFFE" transform="matrix(1.00, 0.00, -0.00, -1.00, 259.2, 107.0)">L</text><text xml:space="preserve" font-family="Avenir-Book" font-size="24.0" fill="#FEFFFE" transform="matrix(1.00, 0.00, -0.00, -1.00, 275.0, 107.0)">F</text><text xml:space="preserve" font-family="Avenir-Book" font-size="24.0" fill="#FEFFFE" transform="matrix(1.00, 0.00, -0.00, -1.00, 292.2, 107.0)">-</text><text xml:space="preserve" font-family="Avenir-Book" font-size="24.0" fill="#FEFFFE" transform="matrix(1.00, 0.00, -0.00, -1.00, 304.0, 107.0)">D</text><text xml:space="preserve" font-family="Avenir-Book" font-size="24.0" fill="#FEFFFE" transform="matrix(1.00, 0.00, -0.00, -1.00, 325.6, 107.0)">I</text><text xml:space="preserve" font-family="Avenir-Book" font-size="24.0" fill="#FEFFFE" transform="matrix(1.00, 0.00, -0.00, -1.00, 335.8, 107.0)">S</text><text xml:space="preserve" font-family="Avenir-Book" font-size="24.0" fill="#FEFFFE" transform="matrix(1.00, 0.00, -0.00, -1.00, 353.0, 107.0)">C</text><text xml:space="preserve" font-family="Avenir-Book" font-size="24.0" fill="#FEFFFE" transform="matrix(1.00, 0.00, -0.00, -1.00, 373.7, 107.0)">O</text><text xml:space="preserve" font-family="Avenir-Book" font-size="24.0" fill="#FEFFFE" transform="matrix(1.00, 0.00, -0.00, -1.00, 397.6, 107.0)">V</text><text xml:space="preserve" font-family="Avenir-Book" font-size="24.0" fill="#FEFFFE" transform="matrix(1.00, 0.00, -0.00, -1.00, 416.1, 107.0)">E</text><text xml:space="preserve" font-family="Avenir-Book" font-size="24.0" fill="#FEFFFE" transform="matrix(1.00, 0.00, -0.00, -1.00, 434.2, 107.0)">R</text><text xml:space="preserve" font-family="Avenir-Book" font-size="24.0" fill="#FEFFFE" transform="matrix(1.00, 0.00, -0.00, -1.00, 451.9, 107.0)">Y</text><text xml:space="preserve" font-family="Avenir-Book" font-size="24.0" fill="#FEFFFE" transform="matrix(1.00, 0.00, -0.00, -1.00, 469.5, 107.0)"> </text><text xml:space="preserve" font-family="Avenir-Book" font-size="24.0" fill="#FEFFFE" transform="matrix(1.00, 0.00, -0.00, -1.00, 26.0, 41.0)">B</text><text xml:space="preserve" font-family="Avenir-Book" font-size="24.0" fill="#FEFFFE" transform="matrix(1.00, 0.00, -0.00, -1.00, 45.0, 41.0)">R</text><text xml:space="preserve" font-family="Avenir-Book" font-size="24.0" fill="#FEFFFE" transform="matrix(1.00, 0.00, -0.00, -1.00, 63.0, 41.0)">E</text><text xml:space="preserve" font-family="Avenir-Book" font-size="24.0" fill="#FEFFFE" transform="matrix(1.00, 0.00, -0.00, -1.00, 81.1, 41.0)">A</text><text xml:space="preserve" font-family="Avenir-Book" font-size="24.0" fill="#FEFFFE" transform="matrix(1.00, 0.00, -0.00, -1.00, 99.8, 41.0)">T</text><text xml:space="preserve" font-family="Avenir-Book" font-size="24.0" fill="#FEFFFE" transform="matrix(1.00, 0.00, -0.00, -1.00, 117.4, 41.0)">H</text><text xml:space="preserve" font-family="Avenir-Book" font-size="24.0" fill="#FEFFFE" transform="matrix(1.00, 0.00, -0.00, -1.00, 138.6, 41.0)">T</text><text xml:space="preserve" font-family="Avenir-Book" font-size="24.0" fill="#FEFFFE" transform="matrix(1.00, 0.00, -0.00, -1.00, 154.5, 41.0)">A</text><text xml:space="preserve" font-family="Avenir-Book" font-size="24.0" fill="#FEFFFE" transform="matrix(1.00, 0.00, -0.00, -1.00, 174.8, 41.0)">K</text><text xml:space="preserve" font-family="Avenir-Book" font-size="24.0" fill="#FEFFFE" transform="matrix(1.00, 0.00, -0.00, -1.00, 193.8, 41.0)">I</text><text xml:space="preserve" font-family="Avenir-Book" font-size="24.0" fill="#FEFFFE" transform="matrix(1.00, 0.00, -0.00, -1.00, 204.0, 41.0)">N</text><text xml:space="preserve" font-family="Avenir-Book" font-size="24.0" fill="#FEFFFE" transform="matrix(1.00, 0.00, -0.00, -1.00, 226.5, 41.0)">G</text><text xml:space="preserve" font-family="Avenir-Book" font-size="24.0" fill="#FEFFFE" transform="matrix(1.00, 0.00, -0.00, -1.00, 249.0, 41.0)"> </text><text xml:space="preserve" font-family="Avenir-Book" font-size="24.0" fill="#FEFFFE" transform="matrix(1.00, 0.00, -0.00, -1.00, 259.5, 41.0)">&amp;</text><text xml:space="preserve" font-family="Avenir-Book" font-size="24.0" fill="#FEFFFE" transform="matrix(1.00, 0.00, -0.00, -1.00, 280.3, 41.0)"> </text><text xml:space="preserve" font-family="Avenir-Book" font-size="24.0" fill="#FEFFFE" transform="matrix(1.00, 0.00, -0.00, -1.00, 290.8, 41.0)">U</text><text xml:space="preserve" font-family="Avenir-Book" font-size="24.0" fill="#FEFFFE" transform="matrix(1.00, 0.00, -0.00, -1.00, 311.1, 41.0)">P</text><text xml:space="preserve" font-family="Avenir-Book" font-size="24.0" fill="#FEFFFE" transform="matrix(1.00, 0.00, -0.00, -1.00, 328.7, 41.0)">L</text><text xml:space="preserve" font-family="Avenir-Book" font-size="24.0" fill="#FEFFFE" transform="matrix(1.00, 0.00, -0.00, -1.00, 344.5, 41.0)">I</text><text xml:space="preserve" font-family="Avenir-Book" font-size="24.0" fill="#FEFFFE" transform="matrix(1.00, 0.00, -0.00, -1.00, 354.7, 41.0)">F</text><text xml:space="preserve" font-family="Avenir-Book" font-size="24.0" fill="#FEFFFE" transform="matrix(1.00, 0.00, -0.00, -1.00, 371.9, 41.0)">T</text><text xml:space="preserve" font-family="Avenir-Book" font-size="24.0" fill="#FEFFFE" transform="matrix(1.00, 0.00, -0.00, -1.00, 389.5, 41.0)">I</text><text xml:space="preserve" font-family="Avenir-Book" font-size="24.0" fill="#FEFFFE" transform="matrix(1.00, 0.00, -0.00, -1.00, 399.7, 41.0)">N</text><text xml:space="preserve" font-family="Avenir-Book" font-size="24.0" fill="#FEFFFE" transform="matrix(1.00, 0.00, -0.00, -1.00, 422.2, 41.0)">G</text><text xml:space="preserve" font-family="Avenir-Book" font-size="24.0" fill="#FEFFFE" transform="matrix(1.00, 0.00, -0.00, -1.00, 444.7, 41.0)"> </text><text xml:space="preserve" font-family="Avenir-Light" font-size="22.9" fill="#FEFFFF" transform="matrix(1.00, 0.00, -0.00, -1.00, 640.0, 74.0)">N</text><text xml:space="preserve" font-family="Avenir-Light" font-size="22.9" fill="#FEFFFF" transform="matrix(1.00, 0.00, -0.00, -1.00, 661.5, 74.0)">O</text><text xml:space="preserve" font-family="Avenir-Light" font-size="22.9" fill="#FEFFFF" transform="matrix(1.00, 0.00, -0.00, -1.00, 684.3, 74.0)">R</text><text xml:space="preserve" font-family="Avenir-Light" font-size="22.9" fill="#FEFFFF" transform="matrix(1.00, 0.00, -0.00, -1.00, 701.8, 74.0)">T</text><text xml:space="preserve" font-family="Avenir-Light" font-size="22.9" fill="#FEFFFF" transform="matrix(1.00, 0.00, -0.00, -1.00, 718.6, 74.0)">H</text><text xml:space="preserve" font-family="Avenir-Light" font-size="22.9" fill="#FEFFFF" transform="matrix(1.00, 0.00, -0.00, -1.00, 738.8, 74.0)">E</text><text xml:space="preserve" font-family="Avenir-Light" font-size="22.9" fill="#FEFFFF" transform="matrix(1.00, 0.00, -0.00, -1.00, 756.1, 74.0)">R</text><text xml:space="preserve" font-family="Avenir-Light" font-size="22.9" fill="#FEFFFF" transform="matrix(1.00, 0.00, -0.00, -1.00, 773.4, 74.0)">N</text><text xml:space="preserve" font-family="Avenir-Light" font-size="22.9" fill="#FEFFFF" transform="matrix(1.00, 0.00, -0.00, -1.00, 794.9, 74.0)"> </text><text xml:space="preserve" font-family="Avenir-Light" font-size="22.9" fill="#FEFFFF" transform="matrix(1.00, 0.00, -0.00, -1.00, 804.6, 74.0)">L</text><text xml:space="preserve" font-family="Avenir-Light" font-size="22.9" fill="#FEFFFF" transform="matrix(1.00, 0.00, -0.00, -1.00, 819.7, 74.0)">I</text><text xml:space="preserve" font-family="Avenir-Light" font-size="22.9" fill="#FEFFFF" transform="matrix(1.00, 0.00, -0.00, -1.00, 829.4, 74.0)">G</text><text xml:space="preserve" font-family="Avenir-Light" font-size="22.9" fill="#FEFFFF" transform="matrix(1.00, 0.00, -0.00, -1.00, 850.9, 74.0)">H</text><text xml:space="preserve" font-family="Avenir-Light" font-size="22.9" fill="#FEFFFF" transform="matrix(1.00, 0.00, -0.00, -1.00, 871.1, 74.0)">T</text><text xml:space="preserve" font-family="Avenir-Light" font-size="22.9" fill="#FEFFFF" transform="matrix(1.00, 0.00, -0.00, -1.00, 888.0, 74.0)">S</text><text xml:space="preserve" font-family="Avenir-Light" font-size="22.9" fill="#FEFFFF" transform="matrix(1.00, 0.00, -0.00, -1.00, 904.4, 74.0)"> </text><text xml:space="preserve" font-family="Avenir-Light" font-size="22.9" fill="#FEFFFF" transform="matrix(1.00, 0.00, -0.00, -1.00, 589.0, 43.0)">T</text><text xml:space="preserve" font-family="Avenir-Light" font-size="22.9" fill="#FEFFFF" transform="matrix(1.00, 0.00, -0.00, -1.00, 604.3, 43.0)">A</text><text xml:space="preserve" font-family="Avenir-Light" font-size="22.9" fill="#FEFFFF" transform="matrix(1.00, 0.00, -0.00, -1.00, 623.7, 43.0)">G</text><text xml:space="preserve" font-family="Avenir-Light" font-size="22.9" fill="#FEFFFF" transform="matrix(1.00, 0.00, -0.00, -1.00, 645.2, 43.0)">I</text><text xml:space="preserve" font-family="Avenir-Light" font-size="22.9" fill="#FEFFFF" transform="matrix(1.00, 0.00, -0.00, -1.00, 654.8, 43.0)">S</text><text xml:space="preserve" font-family="Avenir-Light" font-size="22.9" fill="#FEFFFF" transform="matrix(1.00, 0.00, -0.00, -1.00, 671.3, 43.0)">H</text><text xml:space="preserve" font-family="Avenir-Light" font-size="22.9" fill="#FEFFFF" transform="matrix(1.00, 0.00, -0.00, -1.00, 691.5, 43.0)"> </text><text xml:space="preserve" font-family="Avenir-Light" font-size="22.9" fill="#FEFFFF" transform="matrix(1.00, 0.00, -0.00, -1.00, 701.2, 43.0)">L</text><text xml:space="preserve" font-family="Avenir-Light" font-size="22.9" fill="#FEFFFF" transform="matrix(1.00, 0.00, -0.00, -1.00, 716.3, 43.0)">A</text><text xml:space="preserve" font-family="Avenir-Light" font-size="22.9" fill="#FEFFFF" transform="matrix(1.00, 0.00, -0.00, -1.00, 735.7, 43.0)">K</text><text xml:space="preserve" font-family="Avenir-Light" font-size="22.9" fill="#FEFFFF" transform="matrix(1.00, 0.00, -0.00, -1.00, 753.4, 43.0)">E</text><text xml:space="preserve" font-family="Avenir-Light" font-size="22.9" fill="#FEFFFF" transform="matrix(1.00, 0.00, -0.00, -1.00, 770.7, 43.0)">,</text><text xml:space="preserve" font-family="Avenir-Light" font-size="22.9" fill="#FEFFFF" transform="matrix(1.00, 0.00, -0.00, -1.00, 780.3, 43.0)"> </text><text xml:space="preserve" font-family="Avenir-Light" font-size="22.9" fill="#FEFFFF" transform="matrix(1.00, 0.00, -0.00, -1.00, 790.0, 43.0)">C</text><text xml:space="preserve" font-family="Avenir-Light" font-size="22.9" fill="#FEFFFF" transform="matrix(1.00, 0.00, -0.00, -1.00, 809.8, 43.0)">O</text><text xml:space="preserve" font-family="Avenir-Light" font-size="22.9" fill="#FEFFFF" transform="matrix(1.00, 0.00, -0.00, -1.00, 832.6, 43.0)">N</text><text xml:space="preserve" font-family="Avenir-Light" font-size="22.9" fill="#FEFFFF" transform="matrix(1.00, 0.00, -0.00, -1.00, 854.1, 43.0)">R</text><text xml:space="preserve" font-family="Avenir-Light" font-size="22.9" fill="#FEFFFF" transform="matrix(1.00, 0.00, -0.00, -1.00, 871.4, 43.0)">A</text><text xml:space="preserve" font-family="Avenir-Light" font-size="22.9" fill="#FEFFFF" transform="matrix(1.00, 0.00, -0.00, -1.00, 890.8, 43.0)">D</text><text xml:space="preserve" font-family="Avenir-Light" font-size="22.9" fill="#FEFFFF" transform="matrix(1.00, 0.00, -0.00, -1.00, 911.5, 43.0)"> </text><text xml:space="preserve" font-family="Avenir-Light" font-size="22.9" fill="#FEFFFF" transform="matrix(1.00, 0.00, -0.00, -1.00, 921.1, 43.0)">Y</text><text xml:space="preserve" font-family="Avenir-Light" font-size="22.9" fill="#FEFFFF" transform="matrix(1.00, 0.00, -0.00, -1.00, 938.0, 43.0)">T</text></g></svg>