<?xml version="1.0" encoding="UTF-8"?><svg xmlns="http://www.w3.org/2000/svg" xmlns:xlink="http://www.w3.org/1999/xlink" clip-rule="evenodd" stroke-miterlimit="4.00" viewBox="0 0 1024 768"><desc>SVG generated by Keynote</desc><defs></defs><g transform="matrix(1.00, 0.00, -0.00, -1.00, 0.0, 768.0)"><path d="M 0.0 768.0 L 1024.0 768.0 L 1024.0 0.0 L 0.0 0.0 Z M 0.0 768.0 " fill="#000000"></path><g><clipPath id="clip-506"><path d="M -2.0 770.0 L 510.0 770.0 L 510.0 386.0 L -2.0 386.0 Z M -1.6 769.5 "></path></clipPath><g clip-path="url(#clip-506)"><image xlink:href="../../DB6442DB-CBC7-4249-A63C-3AFDDE1E80FF/assets/0397779021A7AF378EE433A149EC2CA8.jpeg" width="578.00" height="384.00" transform="matrix(1.00, 0.00, -0.00, -1.00, -34.0, 770.0)"></image></g></g><g><clipPath id="clip-507"><path d="M 512.0 0.0 L 1024.0 0.0 L 1024.0 768.0 L 512.0 768.0 Z M 512.0 0.0 "></path></clipPath><g clip-path="url(#clip-507)"><image xlink:href="../../DB6442DB-CBC7-4249-A63C-3AFDDE1E80FF/assets/0789FAC3168D691C58F196A130FCE6A1.jpeg" width="511.00" height="769.00" transform="matrix(1.00, 0.00, -0.00, -1.00, 512.0, 769.0)"></image></g></g><text xml:space="preserve" font-family="Avenir-Light" font-size="45.0" fill="#FEFFFF" transform="matrix(1.00, 0.00, -0.00, -1.00, 89.0, 701.0)">R</text><text xml:space="preserve" font-family="Avenir-Light" font-size="45.0" fill="#FEFFFF" transform="matrix(1.00, 0.00, -0.00, -1.00, 122.9, 701.0)">E</text><text xml:space="preserve" font-family="Avenir-Light" font-size="45.0" fill="#FEFFFF" transform="matrix(1.00, 0.00, -0.00, -1.00, 156.8, 701.0)">F</text><text xml:space="preserve" font-family="Avenir-Light" font-size="45.0" fill="#FEFFFF" transform="matrix(1.00, 0.00, -0.00, -1.00, 189.0, 701.0)">L</text><text xml:space="preserve" font-family="Avenir-Light" font-size="45.0" fill="#FEFFFF" transform="matrix(1.00, 0.00, -0.00, -1.00, 218.7, 701.0)">E</text><text xml:space="preserve" font-family="Avenir-Light" font-size="45.0" fill="#FEFFFF" transform="matrix(1.00, 0.00, -0.00, -1.00, 252.6, 701.0)">C</text><text xml:space="preserve" font-family="Avenir-Light" font-size="45.0" fill="#FEFFFF" transform="matrix(1.00, 0.00, -0.00, -1.00, 291.5, 701.0)">T</text><text xml:space="preserve" font-family="Avenir-Light" font-size="45.0" fill="#FEFFFF" transform="matrix(1.00, 0.00, -0.00, -1.00, 324.5, 701.0)">I</text><text xml:space="preserve" font-family="Avenir-Light" font-size="45.0" fill="#FEFFFF" transform="matrix(1.00, 0.00, -0.00, -1.00, 343.4, 701.0)">O</text><text xml:space="preserve" font-family="Avenir-Light" font-size="45.0" fill="#FEFFFF" transform="matrix(1.00, 0.00, -0.00, -1.00, 388.1, 701.0)">N</text><text xml:space="preserve" font-family="Avenir-Light" font-size="45.0" fill="#FEFFFF" transform="matrix(1.00, 0.00, -0.00, -1.00, 430.3, 701.0)">S</text><text xml:space="preserve" font-family="Avenir-Light" font-size="30.0" fill="#FEFFFF" transform="matrix(1.00, 0.00, -0.00, -1.00, 56.0, 342.0)">V</text><text xml:space="preserve" font-family="Avenir-Light" font-size="30.0" fill="#FEFFFF" transform="matrix(1.00, 0.00, -0.00, -1.00, 72.1, 342.0)">a</text><text xml:space="preserve" font-family="Avenir-Light" font-size="30.0" fill="#FEFFFF" transform="matrix(1.00, 0.00, -0.00, -1.00, 87.7, 342.0)">n</text><text xml:space="preserve" font-family="Avenir-Light" font-size="30.0" fill="#FEFFFF" transform="matrix(1.00, 0.00, -0.00, -1.00, 104.4, 342.0)">c</text><text xml:space="preserve" font-family="Avenir-Light" font-size="30.0" fill="#FEFFFF" transform="matrix(1.00, 0.00, -0.00, -1.00, 118.8, 342.0)">o</text><text xml:space="preserve" font-family="Avenir-Light" font-size="30.0" fill="#FEFFFF" transform="matrix(1.00, 0.00, -0.00, -1.00, 136.6, 342.0)">u</text><text xml:space="preserve" font-family="Avenir-Light" font-size="30.0" fill="#FEFFFF" transform="matrix(1.00, 0.00, -0.00, -1.00, 153.3, 342.0)">v</text><text xml:space="preserve" font-family="Avenir-Light" font-size="30.0" fill="#FEFFFF" transform="matrix(1.00, 0.00, -0.00, -1.00, 167.2, 342.0)">e</text><text xml:space="preserve" font-family="Avenir-Light" font-size="30.0" fill="#FEFFFF" transform="matrix(1.00, 0.00, -0.00, -1.00, 183.9, 342.0)">r</text><text xml:space="preserve" font-family="Avenir-Light" font-size="30.0" fill="#FEFFFF" transform="matrix(1.00, 0.00, -0.00, -1.00, 193.9, 342.0)"> </text><text xml:space="preserve" font-family="Avenir-Light" font-size="30.0" fill="#FEFFFF" transform="matrix(1.00, 0.00, -0.00, -1.00, 201.7, 342.0)">t</text><text xml:space="preserve" font-family="Avenir-Light" font-size="30.0" fill="#FEFFFF" transform="matrix(1.00, 0.00, -0.00, -1.00, 211.7, 342.0)">o</text><text xml:space="preserve" font-family="Avenir-Light" font-size="30.0" fill="#FEFFFF" transform="matrix(1.00, 0.00, -0.00, -1.00, 229.5, 342.0)"> </text><text xml:space="preserve" font-family="Avenir-Light" font-size="30.0" fill="#FEFFFF" transform="matrix(1.00, 0.00, -0.00, -1.00, 237.3, 342.0)">t</text><text xml:space="preserve" font-family="Avenir-Light" font-size="30.0" fill="#FEFFFF" transform="matrix(1.00, 0.00, -0.00, -1.00, 247.3, 342.0)">h</text><text xml:space="preserve" font-family="Avenir-Light" font-size="30.0" fill="#FEFFFF" transform="matrix(1.00, 0.00, -0.00, -1.00, 264.0, 342.0)">e</text><text xml:space="preserve" font-family="Avenir-Light" font-size="30.0" fill="#FEFFFF" transform="matrix(1.00, 0.00, -0.00, -1.00, 280.7, 342.0)"> </text><text xml:space="preserve" font-family="Avenir-Light" font-size="30.0" fill="#FEFFFF" transform="matrix(1.00, 0.00, -0.00, -1.00, 288.5, 342.0)">Y</text><text xml:space="preserve" font-family="Avenir-Light" font-size="30.0" fill="#FEFFFF" transform="matrix(1.00, 0.00, -0.00, -1.00, 303.5, 342.0)">u</text><text xml:space="preserve" font-family="Avenir-Light" font-size="30.0" fill="#FEFFFF" transform="matrix(1.00, 0.00, -0.00, -1.00, 320.2, 342.0)">k</text><text xml:space="preserve" font-family="Avenir-Light" font-size="30.0" fill="#FEFFFF" transform="matrix(1.00, 0.00, -0.00, -1.00, 334.6, 342.0)">o</text><text xml:space="preserve" font-family="Avenir-Light" font-size="30.0" fill="#FEFFFF" transform="matrix(1.00, 0.00, -0.00, -1.00, 352.4, 342.0)">n</text><text xml:space="preserve" font-family="Avenir-Light" font-size="30.0" fill="#FEFFFF" transform="matrix(1.00, 0.00, -0.00, -1.00, 369.1, 342.0)"> </text><text xml:space="preserve" font-family="Avenir-Light" font-size="30.0" fill="#FEFFFF" transform="matrix(1.00, 0.00, -0.00, -1.00, 56.0, 269.0)">9</text><text xml:space="preserve" font-family="Avenir-Light" font-size="30.0" fill="#FEFFFF" transform="matrix(1.00, 0.00, -0.00, -1.00, 71.6, 269.0)"> </text><text xml:space="preserve" font-family="Avenir-Light" font-size="30.0" fill="#FEFFFF" transform="matrix(1.00, 0.00, -0.00, -1.00, 79.4, 269.0)">d</text><text xml:space="preserve" font-family="Avenir-Light" font-size="30.0" fill="#FEFFFF" transform="matrix(1.00, 0.00, -0.00, -1.00, 97.7, 269.0)">a</text><text xml:space="preserve" font-family="Avenir-Light" font-size="30.0" fill="#FEFFFF" transform="matrix(1.00, 0.00, -0.00, -1.00, 113.3, 269.0)">y</text><text xml:space="preserve" font-family="Avenir-Light" font-size="30.0" fill="#FEFFFF" transform="matrix(1.00, 0.00, -0.00, -1.00, 127.2, 269.0)">s</text><text xml:space="preserve" font-family="Avenir-Light" font-size="30.0" fill="#FEFFFF" transform="matrix(1.00, 0.00, -0.00, -1.00, 140.0, 269.0)"> </text><text xml:space="preserve" font-family="Avenir-Light" font-size="30.0" fill="#FEFFFF" transform="matrix(1.00, 0.00, -0.00, -1.00, 56.0, 196.0)">5</text><text xml:space="preserve" font-family="Avenir-Light" font-size="30.0" fill="#FEFFFF" transform="matrix(1.00, 0.00, -0.00, -1.00, 71.6, 196.0)">,</text><text xml:space="preserve" font-family="Avenir-Light" font-size="30.0" fill="#FEFFFF" transform="matrix(1.00, 0.00, -0.00, -1.00, 79.4, 196.0)">6</text><text xml:space="preserve" font-family="Avenir-Light" font-size="30.0" fill="#FEFFFF" transform="matrix(1.00, 0.00, -0.00, -1.00, 95.0, 196.0)">7</text><text xml:space="preserve" font-family="Avenir-Light" font-size="30.0" fill="#FEFFFF" transform="matrix(1.00, 0.00, -0.00, -1.00, 110.6, 196.0)">7</text><text xml:space="preserve" font-family="Avenir-Light" font-size="30.0" fill="#FEFFFF" transform="matrix(1.00, 0.00, -0.00, -1.00, 126.2, 196.0)"> </text><text xml:space="preserve" font-family="Avenir-Light" font-size="30.0" fill="#FEFFFF" transform="matrix(1.00, 0.00, -0.00, -1.00, 134.0, 196.0)">k</text><text xml:space="preserve" font-family="Avenir-Light" font-size="30.0" fill="#FEFFFF" transform="matrix(1.00, 0.00, -0.00, -1.00, 148.4, 196.0)">m</text><text xml:space="preserve" font-family="Avenir-Light" font-size="30.0" fill="#FEFFFF" transform="matrix(1.00, 0.00, -0.00, -1.00, 174.0, 196.0)"> </text><text xml:space="preserve" font-family="Avenir-Light" font-size="30.0" fill="#FEFFFF" transform="matrix(1.00, 0.00, -0.00, -1.00, 56.0, 123.0)">j</text><text xml:space="preserve" font-family="Avenir-Light" font-size="30.0" fill="#FEFFFF" transform="matrix(1.00, 0.00, -0.00, -1.00, 63.2, 123.0)">o</text><text xml:space="preserve" font-family="Avenir-Light" font-size="30.0" fill="#FEFFFF" transform="matrix(1.00, 0.00, -0.00, -1.00, 81.0, 123.0)">u</text><text xml:space="preserve" font-family="Avenir-Light" font-size="30.0" fill="#FEFFFF" transform="matrix(1.00, 0.00, -0.00, -1.00, 97.7, 123.0)">r</text><text xml:space="preserve" font-family="Avenir-Light" font-size="30.0" fill="#FEFFFF" transform="matrix(1.00, 0.00, -0.00, -1.00, 107.7, 123.0)">n</text><text xml:space="preserve" font-family="Avenir-Light" font-size="30.0" fill="#FEFFFF" transform="matrix(1.00, 0.00, -0.00, -1.00, 124.4, 123.0)">e</text><text xml:space="preserve" font-family="Avenir-Light" font-size="30.0" fill="#FEFFFF" transform="matrix(1.00, 0.00, -0.00, -1.00, 141.1, 123.0)">y</text><text xml:space="preserve" font-family="Avenir-Light" font-size="30.0" fill="#FEFFFF" transform="matrix(1.00, 0.00, -0.00, -1.00, 154.9, 123.0)"> </text><text xml:space="preserve" font-family="Avenir-Light" font-size="30.0" fill="#FEFFFF" transform="matrix(1.00, 0.00, -0.00, -1.00, 162.7, 123.0)">o</text><text xml:space="preserve" font-family="Avenir-Light" font-size="30.0" fill="#FEFFFF" transform="matrix(1.00, 0.00, -0.00, -1.00, 180.6, 123.0)">f</text><text xml:space="preserve" font-family="Avenir-Light" font-size="30.0" fill="#FEFFFF" transform="matrix(1.00, 0.00, -0.00, -1.00, 189.4, 123.0)"> </text><text xml:space="preserve" font-family="Avenir-Light" font-size="30.0" fill="#FEFFFF" transform="matrix(1.00, 0.00, -0.00, -1.00, 197.2, 123.0)">s</text><text xml:space="preserve" font-family="Avenir-Light" font-size="30.0" fill="#FEFFFF" transform="matrix(1.00, 0.00, -0.00, -1.00, 210.0, 123.0)">e</text><text xml:space="preserve" font-family="Avenir-Light" font-size="30.0" fill="#FEFFFF" transform="matrix(1.00, 0.00, -0.00, -1.00, 226.7, 123.0)">l</text><text xml:space="preserve" font-family="Avenir-Light" font-size="30.0" fill="#FEFFFF" transform="matrix(1.00, 0.00, -0.00, -1.00, 233.9, 123.0)">f</text><text xml:space="preserve" font-family="Avenir-Light" font-size="30.0" fill="#FEFFFF" transform="matrix(1.00, 0.00, -0.00, -1.00, 242.8, 123.0)">-</text><text xml:space="preserve" font-family="Avenir-Light" font-size="30.0" fill="#FEFFFF" transform="matrix(1.00, 0.00, -0.00, -1.00, 252.8, 123.0)">d</text><text xml:space="preserve" font-family="Avenir-Light" font-size="30.0" fill="#FEFFFF" transform="matrix(1.00, 0.00, -0.00, -1.00, 271.2, 123.0)">i</text><text xml:space="preserve" font-family="Avenir-Light" font-size="30.0" fill="#FEFFFF" transform="matrix(1.00, 0.00, -0.00, -1.00, 278.4, 123.0)">s</text><text xml:space="preserve" font-family="Avenir-Light" font-size="30.0" fill="#FEFFFF" transform="matrix(1.00, 0.00, -0.00, -1.00, 291.1, 123.0)">c</text><text xml:space="preserve" font-family="Avenir-Light" font-size="30.0" fill="#FEFFFF" transform="matrix(1.00, 0.00, -0.00, -1.00, 305.6, 123.0)">o</text><text xml:space="preserve" font-family="Avenir-Light" font-size="30.0" fill="#FEFFFF" transform="matrix(1.00, 0.00, -0.00, -1.00, 323.4, 123.0)">v</text><text xml:space="preserve" font-family="Avenir-Light" font-size="30.0" fill="#FEFFFF" transform="matrix(1.00, 0.00, -0.00, -1.00, 337.3, 123.0)">e</text><text xml:space="preserve" font-family="Avenir-Light" font-size="30.0" fill="#FEFFFF" transform="matrix(1.00, 0.00, -0.00, -1.00, 354.0, 123.0)">r</text><text xml:space="preserve" font-family="Avenir-Light" font-size="30.0" fill="#FEFFFF" transform="matrix(1.00, 0.00, -0.00, -1.00, 363.9, 123.0)">y</text><text xml:space="preserve" font-family="Avenir-Light" font-size="30.0" fill="#FEFFFF" transform="matrix(1.00, 0.00, -0.00, -1.00, 377.8, 123.0)"> </text><text xml:space="preserve" font-family="Avenir-Light" font-size="30.0" fill="#FEFFFF" transform="matrix(1.00, 0.00, -0.00, -1.00, 56.0, 50.0)">b</text><text xml:space="preserve" font-family="Avenir-Light" font-size="30.0" fill="#FEFFFF" transform="matrix(1.00, 0.00, -0.00, -1.00, 74.3, 50.0)">r</text><text xml:space="preserve" font-family="Avenir-Light" font-size="30.0" fill="#FEFFFF" transform="matrix(1.00, 0.00, -0.00, -1.00, 83.8, 50.0)">e</text><text xml:space="preserve" font-family="Avenir-Light" font-size="30.0" fill="#FEFFFF" transform="matrix(1.00, 0.00, -0.00, -1.00, 100.5, 50.0)">a</text><text xml:space="preserve" font-family="Avenir-Light" font-size="30.0" fill="#FEFFFF" transform="matrix(1.00, 0.00, -0.00, -1.00, 116.0, 50.0)">t</text><text xml:space="preserve" font-family="Avenir-Light" font-size="30.0" fill="#FEFFFF" transform="matrix(1.00, 0.00, -0.00, -1.00, 126.0, 50.0)">h</text><text xml:space="preserve" font-family="Avenir-Light" font-size="30.0" fill="#FEFFFF" transform="matrix(1.00, 0.00, -0.00, -1.00, 142.7, 50.0)">t</text><text xml:space="preserve" font-family="Avenir-Light" font-size="30.0" fill="#FEFFFF" transform="matrix(1.00, 0.00, -0.00, -1.00, 152.7, 50.0)">a</text><text xml:space="preserve" font-family="Avenir-Light" font-size="30.0" fill="#FEFFFF" transform="matrix(1.00, 0.00, -0.00, -1.00, 168.3, 50.0)">k</text><text xml:space="preserve" font-family="Avenir-Light" font-size="30.0" fill="#FEFFFF" transform="matrix(1.00, 0.00, -0.00, -1.00, 182.7, 50.0)">i</text><text xml:space="preserve" font-family="Avenir-Light" font-size="30.0" fill="#FEFFFF" transform="matrix(1.00, 0.00, -0.00, -1.00, 189.9, 50.0)">n</text><text xml:space="preserve" font-family="Avenir-Light" font-size="30.0" fill="#FEFFFF" transform="matrix(1.00, 0.00, -0.00, -1.00, 206.6, 50.0)">g</text><text xml:space="preserve" font-family="Avenir-Light" font-size="30.0" fill="#FEFFFF" transform="matrix(1.00, 0.00, -0.00, -1.00, 224.9, 50.0)">,</text><text xml:space="preserve" font-family="Avenir-Light" font-size="30.0" fill="#FEFFFF" transform="matrix(1.00, 0.00, -0.00, -1.00, 232.7, 50.0)"> </text><text xml:space="preserve" font-family="Avenir-Light" font-size="30.0" fill="#FEFFFF" transform="matrix(1.00, 0.00, -0.00, -1.00, 240.5, 50.0)">u</text><text xml:space="preserve" font-family="Avenir-Light" font-size="30.0" fill="#FEFFFF" transform="matrix(1.00, 0.00, -0.00, -1.00, 257.2, 50.0)">p</text><text xml:space="preserve" font-family="Avenir-Light" font-size="30.0" fill="#FEFFFF" transform="matrix(1.00, 0.00, -0.00, -1.00, 275.5, 50.0)">l</text><text xml:space="preserve" font-family="Avenir-Light" font-size="30.0" fill="#FEFFFF" transform="matrix(1.00, 0.00, -0.00, -1.00, 282.8, 50.0)">i</text><text xml:space="preserve" font-family="Avenir-Light" font-size="30.0" fill="#FEFFFF" transform="matrix(1.00, 0.00, -0.00, -1.00, 290.0, 50.0)">f</text><text xml:space="preserve" font-family="Avenir-Light" font-size="30.0" fill="#FEFFFF" transform="matrix(1.00, 0.00, -0.00, -1.00, 298.9, 50.0)">t</text><text xml:space="preserve" font-family="Avenir-Light" font-size="30.0" fill="#FEFFFF" transform="matrix(1.00, 0.00, -0.00, -1.00, 308.9, 50.0)">i</text><text xml:space="preserve" font-family="Avenir-Light" font-size="30.0" fill="#FEFFFF" transform="matrix(1.00, 0.00, -0.00, -1.00, 316.1, 50.0)">n</text><text xml:space="preserve" font-family="Avenir-Light" font-size="30.0" fill="#FEFFFF" transform="matrix(1.00, 0.00, -0.00, -1.00, 332.8, 50.0)">g</text><text xml:space="preserve" font-family="Avenir-Light" font-size="30.0" fill="#FEFFFF" transform="matrix(1.00, 0.00, -0.00, -1.00, 351.1, 50.0)">,</text><text xml:space="preserve" font-family="Avenir-Light" font-size="30.0" fill="#FEFFFF" transform="matrix(1.00, 0.00, -0.00, -1.00, 358.9, 50.0)"> </text><text xml:space="preserve" font-family="Avenir-Light" font-size="30.0" fill="#FEFFFF" transform="matrix(1.00, 0.00, -0.00, -1.00, 366.7, 50.0)">f</text><text xml:space="preserve" font-family="Avenir-Light" font-size="30.0" fill="#FEFFFF" transform="matrix(1.00, 0.00, -0.00, -1.00, 375.6, 50.0)">r</text><text xml:space="preserve" font-family="Avenir-Light" font-size="30.0" fill="#FEFFFF" transform="matrix(1.00, 0.00, -0.00, -1.00, 385.0, 50.0)">e</text><text xml:space="preserve" font-family="Avenir-Light" font-size="30.0" fill="#FEFFFF" transform="matrix(1.00, 0.00, -0.00, -1.00, 401.7, 50.0)">e</text><text xml:space="preserve" font-family="Avenir-Light" font-size="30.0" fill="#FEFFFF" transform="matrix(1.00, 0.00, -0.00, -1.00, 418.4, 50.0)">i</text><text xml:space="preserve" font-family="Avenir-Light" font-size="30.0" fill="#FEFFFF" transform="matrix(1.00, 0.00, -0.00, -1.00, 425.6, 50.0)">n</text><text xml:space="preserve" font-family="Avenir-Light" font-size="30.0" fill="#FEFFFF" transform="matrix(1.00, 0.00, -0.00, -1.00, 442.2, 50.0)">g</text><text xml:space="preserve" font-family="Avenir-Light" font-size="30.0" fill="#FEFFFF" transform="matrix(1.00, 0.00, -0.00, -1.00, 460.6, 50.0)"> </text><text xml:space="preserve" font-family="Avenir-Light" font-size="22.9" fill="#FEFFFF" transform="matrix(1.00, 0.00, -0.00, -1.00, 640.0, 52.0)">N</text><text xml:space="preserve" font-family="Avenir-Light" font-size="22.9" fill="#FEFFFF" transform="matrix(1.00, 0.00, -0.00, -1.00, 661.5, 52.0)">O</text><text xml:space="preserve" font-family="Avenir-Light" font-size="22.9" fill="#FEFFFF" transform="matrix(1.00, 0.00, -0.00, -1.00, 684.3, 52.0)">R</text><text xml:space="preserve" font-family="Avenir-Light" font-size="22.9" fill="#FEFFFF" transform="matrix(1.00, 0.00, -0.00, -1.00, 701.8, 52.0)">T</text><text xml:space="preserve" font-family="Avenir-Light" font-size="22.9" fill="#FEFFFF" transform="matrix(1.00, 0.00, -0.00, -1.00, 718.6, 52.0)">H</text><text xml:space="preserve" font-family="Avenir-Light" font-size="22.9" fill="#FEFFFF" transform="matrix(1.00, 0.00, -0.00, -1.00, 738.8, 52.0)">E</text><text xml:space="preserve" font-family="Avenir-Light" font-size="22.9" fill="#FEFFFF" transform="matrix(1.00, 0.00, -0.00, -1.00, 756.1, 52.0)">R</text><text xml:space="preserve" font-family="Avenir-Light" font-size="22.9" fill="#FEFFFF" transform="matrix(1.00, 0.00, -0.00, -1.00, 773.4, 52.0)">N</text><text xml:space="preserve" font-family="Avenir-Light" font-size="22.9" fill="#FEFFFF" transform="matrix(1.00, 0.00, -0.00, -1.00, 794.9, 52.0)"> </text><text xml:space="preserve" font-family="Avenir-Light" font-size="22.9" fill="#FEFFFF" transform="matrix(1.00, 0.00, -0.00, -1.00, 804.6, 52.0)">L</text><text xml:space="preserve" font-family="Avenir-Light" font-size="22.9" fill="#FEFFFF" transform="matrix(1.00, 0.00, -0.00, -1.00, 819.7, 52.0)">I</text><text xml:space="preserve" font-family="Avenir-Light" font-size="22.9" fill="#FEFFFF" transform="matrix(1.00, 0.00, -0.00, -1.00, 829.4, 52.0)">G</text><text xml:space="preserve" font-family="Avenir-Light" font-size="22.9" fill="#FEFFFF" transform="matrix(1.00, 0.00, -0.00, -1.00, 850.9, 52.0)">H</text><text xml:space="preserve" font-family="Avenir-Light" font-size="22.9" fill="#FEFFFF" transform="matrix(1.00, 0.00, -0.00, -1.00, 871.1, 52.0)">T</text><text xml:space="preserve" font-family="Avenir-Light" font-size="22.9" fill="#FEFFFF" transform="matrix(1.00, 0.00, -0.00, -1.00, 888.0, 52.0)">S</text><text xml:space="preserve" font-family="Avenir-Light" font-size="22.9" fill="#FEFFFF" transform="matrix(1.00, 0.00, -0.00, -1.00, 904.4, 52.0)"> </text><text xml:space="preserve" font-family="Avenir-Light" font-size="22.9" fill="#FEFFFF" transform="matrix(1.00, 0.00, -0.00, -1.00, 589.0, 21.0)">T</text><text xml:space="preserve" font-family="Avenir-Light" font-size="22.9" fill="#FEFFFF" transform="matrix(1.00, 0.00, -0.00, -1.00, 604.3, 21.0)">A</text><text xml:space="preserve" font-family="Avenir-Light" font-size="22.9" fill="#FEFFFF" transform="matrix(1.00, 0.00, -0.00, -1.00, 623.7, 21.0)">G</text><text xml:space="preserve" font-family="Avenir-Light" font-size="22.9" fill="#FEFFFF" transform="matrix(1.00, 0.00, -0.00, -1.00, 645.2, 21.0)">I</text><text xml:space="preserve" font-family="Avenir-Light" font-size="22.9" fill="#FEFFFF" transform="matrix(1.00, 0.00, -0.00, -1.00, 654.8, 21.0)">S</text><text xml:space="preserve" font-family="Avenir-Light" font-size="22.9" fill="#FEFFFF" transform="matrix(1.00, 0.00, -0.00, -1.00, 671.3, 21.0)">H</text><text xml:space="preserve" font-family="Avenir-Light" font-size="22.9" fill="#FEFFFF" transform="matrix(1.00, 0.00, -0.00, -1.00, 691.5, 21.0)"> </text><text xml:space="preserve" font-family="Avenir-Light" font-size="22.9" fill="#FEFFFF" transform="matrix(1.00, 0.00, -0.00, -1.00, 701.2, 21.0)">L</text><text xml:space="preserve" font-family="Avenir-Light" font-size="22.9" fill="#FEFFFF" transform="matrix(1.00, 0.00, -0.00, -1.00, 716.3, 21.0)">A</text><text xml:space="preserve" font-family="Avenir-Light" font-size="22.9" fill="#FEFFFF" transform="matrix(1.00, 0.00, -0.00, -1.00, 735.7, 21.0)">K</text><text xml:space="preserve" font-family="Avenir-Light" font-size="22.9" fill="#FEFFFF" transform="matrix(1.00, 0.00, -0.00, -1.00, 753.4, 21.0)">E</text><text xml:space="preserve" font-family="Avenir-Light" font-size="22.9" fill="#FEFFFF" transform="matrix(1.00, 0.00, -0.00, -1.00, 770.7, 21.0)">,</text><text xml:space="preserve" font-family="Avenir-Light" font-size="22.9" fill="#FEFFFF" transform="matrix(1.00, 0.00, -0.00, -1.00, 780.3, 21.0)"> </text><text xml:space="preserve" font-family="Avenir-Light" font-size="22.9" fill="#FEFFFF" transform="matrix(1.00, 0.00, -0.00, -1.00, 790.0, 21.0)">C</text><text xml:space="preserve" font-family="Avenir-Light" font-size="22.9" fill="#FEFFFF" transform="matrix(1.00, 0.00, -0.00, -1.00, 809.8, 21.0)">O</text><text xml:space="preserve" font-family="Avenir-Light" font-size="22.9" fill="#FEFFFF" transform="matrix(1.00, 0.00, -0.00, -1.00, 832.6, 21.0)">N</text><text xml:space="preserve" font-family="Avenir-Light" font-size="22.9" fill="#FEFFFF" transform="matrix(1.00, 0.00, -0.00, -1.00, 854.1, 21.0)">R</text><text xml:space="preserve" font-family="Avenir-Light" font-size="22.9" fill="#FEFFFF" transform="matrix(1.00, 0.00, -0.00, -1.00, 871.4, 21.0)">A</text><text xml:space="preserve" font-family="Avenir-Light" font-size="22.9" fill="#FEFFFF" transform="matrix(1.00, 0.00, -0.00, -1.00, 890.8, 21.0)">D</text><text xml:space="preserve" font-family="Avenir-Light" font-size="22.9" fill="#FEFFFF" transform="matrix(1.00, 0.00, -0.00, -1.00, 911.5, 21.0)"> </text><text xml:space="preserve" font-family="Avenir-Light" font-size="22.9" fill="#FEFFFF" transform="matrix(1.00, 0.00, -0.00, -1.00, 921.1, 21.0)">Y</text><text xml:space="preserve" font-family="Avenir-Light" font-size="22.9" fill="#FEFFFF" transform="matrix(1.00, 0.00, -0.00, -1.00, 938.0, 21.0)">T</text></g></svg>