<?xml version="1.0" encoding="UTF-8"?><svg xmlns="http://www.w3.org/2000/svg" xmlns:xlink="http://www.w3.org/1999/xlink" clip-rule="evenodd" stroke-miterlimit="4.00" viewBox="0 0 1024 768"><desc>SVG generated by Keynote</desc><defs></defs><g transform="matrix(1.00, 0.00, -0.00, -1.00, 0.0, 768.0)"><path d="M 0.0 768.0 L 1024.0 768.0 L 1024.0 0.0 L 0.0 0.0 Z M 0.0 768.0 " fill="#000000"></path><text xml:space="preserve" font-family="Avenir-Light" font-size="28.0" fill="#FEFFFF" transform="matrix(1.00, 0.00, -0.00, -1.00, 374.0, 66.0)">R</text><text xml:space="preserve" font-family="Avenir-Light" font-size="28.0" fill="#FEFFFF" transform="matrix(1.00, 0.00, -0.00, -1.00, 390.6, 66.0)">e</text><text xml:space="preserve" font-family="Avenir-Light" font-size="28.0" fill="#FEFFFF" transform="matrix(1.00, 0.00, -0.00, -1.00, 406.2, 66.0)">n</text><text xml:space="preserve" font-family="Avenir-Light" font-size="28.0" fill="#FEFFFF" transform="matrix(1.00, 0.00, -0.00, -1.00, 421.7, 66.0)">é</text><text xml:space="preserve" font-family="Avenir-Light" font-size="28.0" fill="#FEFFFF" transform="matrix(1.00, 0.00, -0.00, -1.00, 437.3, 66.0)"> </text><text xml:space="preserve" font-family="Avenir-Light" font-size="28.0" fill="#FEFFFF" transform="matrix(1.00, 0.00, -0.00, -1.00, 444.6, 66.0)">L</text><text xml:space="preserve" font-family="Avenir-Light" font-size="28.0" fill="#FEFFFF" transform="matrix(1.00, 0.00, -0.00, -1.00, 458.6, 66.0)"> </text><text xml:space="preserve" font-family="Avenir-Light" font-size="28.0" fill="#FEFFFF" transform="matrix(1.00, 0.00, -0.00, -1.00, 465.9, 66.0)">W</text><text xml:space="preserve" font-family="Avenir-Light" font-size="28.0" fill="#FEFFFF" transform="matrix(1.00, 0.00, -0.00, -1.00, 491.3, 66.0)">a</text><text xml:space="preserve" font-family="Avenir-Light" font-size="28.0" fill="#FEFFFF" transform="matrix(1.00, 0.00, -0.00, -1.00, 505.8, 66.0)">r</text><text xml:space="preserve" font-family="Avenir-Light" font-size="28.0" fill="#FEFFFF" transform="matrix(1.00, 0.00, -0.00, -1.00, 515.1, 66.0)">r</text><text xml:space="preserve" font-family="Avenir-Light" font-size="28.0" fill="#FEFFFF" transform="matrix(1.00, 0.00, -0.00, -1.00, 523.9, 66.0)">e</text><text xml:space="preserve" font-family="Avenir-Light" font-size="28.0" fill="#FEFFFF" transform="matrix(1.00, 0.00, -0.00, -1.00, 539.5, 66.0)">n</text><text xml:space="preserve" font-family="Avenir-Light" font-size="28.0" fill="#FEFFFF" transform="matrix(1.00, 0.00, -0.00, -1.00, 555.1, 66.0)"> </text><text xml:space="preserve" font-family="Avenir-Light" font-size="28.0" fill="#FEFFFF" transform="matrix(1.00, 0.00, -0.00, -1.00, 562.4, 66.0)">©</text><text xml:space="preserve" font-family="Avenir-Light" font-size="28.0" fill="#FEFFFF" transform="matrix(1.00, 0.00, -0.00, -1.00, 584.8, 66.0)"> </text><text xml:space="preserve" font-family="Avenir-Light" font-size="28.0" fill="#FEFFFF" transform="matrix(1.00, 0.00, -0.00, -1.00, 592.0, 66.0)">2</text><text xml:space="preserve" font-family="Avenir-Light" font-size="28.0" fill="#FEFFFF" transform="matrix(1.00, 0.00, -0.00, -1.00, 606.6, 66.0)">0</text><text xml:space="preserve" font-family="Avenir-Light" font-size="28.0" fill="#FEFFFF" transform="matrix(1.00, 0.00, -0.00, -1.00, 621.2, 66.0)">2</text><text xml:space="preserve" font-family="Avenir-Light" font-size="28.0" fill="#FEFFFF" transform="matrix(1.00, 0.00, -0.00, -1.00, 635.7, 66.0)">0</text><text xml:space="preserve" font-family="Avenir-Light" font-size="28.0" fill="#FEFFFF" transform="matrix(1.00, 0.00, -0.00, -1.00, 650.3, 66.0)"> </text><text xml:space="preserve" font-family="Avenir-Light" font-size="28.0" fill="#FEFFFF" transform="matrix(1.00, 0.00, -0.00, -1.00, 358.0, 28.0)">h</text><text xml:space="preserve" font-family="Avenir-Light" font-size="28.0" fill="#FEFFFF" transform="matrix(1.00, 0.00, -0.00, -1.00, 373.6, 28.0)">t</text><text xml:space="preserve" font-family="Avenir-Light" font-size="28.0" fill="#FEFFFF" transform="matrix(1.00, 0.00, -0.00, -1.00, 382.9, 28.0)">t</text><text xml:space="preserve" font-family="Avenir-Light" font-size="28.0" fill="#FEFFFF" transform="matrix(1.00, 0.00, -0.00, -1.00, 392.2, 28.0)">p</text><text xml:space="preserve" font-family="Avenir-Light" font-size="28.0" fill="#FEFFFF" transform="matrix(1.00, 0.00, -0.00, -1.00, 409.4, 28.0)">s</text><text xml:space="preserve" font-family="Avenir-Light" font-size="28.0" fill="#FEFFFF" transform="matrix(1.00, 0.00, -0.00, -1.00, 421.3, 28.0)">:</text><text xml:space="preserve" font-family="Avenir-Light" font-size="28.0" fill="#FEFFFF" transform="matrix(1.00, 0.00, -0.00, -1.00, 428.6, 28.0)">/</text><text xml:space="preserve" font-family="Avenir-Light" font-size="28.0" fill="#FEFFFF" transform="matrix(1.00, 0.00, -0.00, -1.00, 438.9, 28.0)">/</text><text xml:space="preserve" font-family="Avenir-Light" font-size="28.0" fill="#FEFFFF" transform="matrix(1.00, 0.00, -0.00, -1.00, 449.3, 28.0)">w</text><text xml:space="preserve" font-family="Avenir-Light" font-size="28.0" fill="#FEFFFF" transform="matrix(1.00, 0.00, -0.00, -1.00, 469.0, 28.0)">a</text><text xml:space="preserve" font-family="Avenir-Light" font-size="28.0" fill="#FEFFFF" transform="matrix(1.00, 0.00, -0.00, -1.00, 483.5, 28.0)">r</text><text xml:space="preserve" font-family="Avenir-Light" font-size="28.0" fill="#FEFFFF" transform="matrix(1.00, 0.00, -0.00, -1.00, 492.8, 28.0)">r</text><text xml:space="preserve" font-family="Avenir-Light" font-size="28.0" fill="#FEFFFF" transform="matrix(1.00, 0.00, -0.00, -1.00, 501.7, 28.0)">e</text><text xml:space="preserve" font-family="Avenir-Light" font-size="28.0" fill="#FEFFFF" transform="matrix(1.00, 0.00, -0.00, -1.00, 517.2, 28.0)">n</text><text xml:space="preserve" font-family="Avenir-Light" font-size="28.0" fill="#FEFFFF" transform="matrix(1.00, 0.00, -0.00, -1.00, 532.8, 28.0)">l</text><text xml:space="preserve" font-family="Avenir-Light" font-size="28.0" fill="#FEFFFF" transform="matrix(1.00, 0.00, -0.00, -1.00, 539.5, 28.0)">r</text><text xml:space="preserve" font-family="Avenir-Light" font-size="28.0" fill="#FEFFFF" transform="matrix(1.00, 0.00, -0.00, -1.00, 546.3, 28.0)">.</text><text xml:space="preserve" font-family="Avenir-Light" font-size="28.0" fill="#FEFFFF" transform="matrix(1.00, 0.00, -0.00, -1.00, 553.6, 28.0)">g</text><text xml:space="preserve" font-family="Avenir-Light" font-size="28.0" fill="#FEFFFF" transform="matrix(1.00, 0.00, -0.00, -1.00, 570.7, 28.0)">i</text><text xml:space="preserve" font-family="Avenir-Light" font-size="28.0" fill="#FEFFFF" transform="matrix(1.00, 0.00, -0.00, -1.00, 577.4, 28.0)">t</text><text xml:space="preserve" font-family="Avenir-Light" font-size="28.0" fill="#FEFFFF" transform="matrix(1.00, 0.00, -0.00, -1.00, 586.7, 28.0)">h</text><text xml:space="preserve" font-family="Avenir-Light" font-size="28.0" fill="#FEFFFF" transform="matrix(1.00, 0.00, -0.00, -1.00, 602.3, 28.0)">u</text><text xml:space="preserve" font-family="Avenir-Light" font-size="28.0" fill="#FEFFFF" transform="matrix(1.00, 0.00, -0.00, -1.00, 617.9, 28.0)">b</text><text xml:space="preserve" font-family="Avenir-Light" font-size="28.0" fill="#FEFFFF" transform="matrix(1.00, 0.00, -0.00, -1.00, 635.0, 28.0)">.</text><text xml:space="preserve" font-family="Avenir-Light" font-size="28.0" fill="#FEFFFF" transform="matrix(1.00, 0.00, -0.00, -1.00, 642.3, 28.0)">i</text><text xml:space="preserve" font-family="Avenir-Light" font-size="28.0" fill="#FEFFFF" transform="matrix(1.00, 0.00, -0.00, -1.00, 649.0, 28.0)">o</text><g><clipPath id="clip-88"><path d="M 357.2 24.7 L 665.8 24.7 L 665.8 28.1 L 357.2 28.1 Z M 357.2 24.7 "></path></clipPath><g clip-path="url(#clip-88)"><path d="M 4.5 71.9 L 312.1 71.9 " fill="none" stroke="#FEFFFF" stroke-width="1.40" stroke-miterlimit="0.00" transform="matrix(1.00, 0.00, 0.00, -1.00, 353.7, 98.2)"></path></g></g><g><clipPath id="clip-89"><path d="M 2.0 765.0 L 1022.0 765.0 L 1022.0 110.0 L 2.0 110.0 Z M 2.0 764.8 "></path></clipPath><g clip-path="url(#clip-89)"><image xlink:href="959B699F9420B5A3BF700923A4E0CE1F.jpeg" width="1083.00" height="720.00" transform="matrix(1.00, 0.00, -0.00, -1.00, -61.0, 777.0)"></image></g></g></g></svg>