<?xml version="1.0" encoding="UTF-8"?><svg xmlns="http://www.w3.org/2000/svg" xmlns:xlink="http://www.w3.org/1999/xlink" clip-rule="evenodd" stroke-miterlimit="4.00" viewBox="0 0 1024 768"><desc>SVG generated by Keynote</desc><defs></defs><g transform="matrix(1.00, 0.00, -0.00, -1.00, 0.0, 768.0)"><path d="M 0.0 768.0 L 1024.0 768.0 L 1024.0 0.0 L 0.0 0.0 Z M 0.0 768.0 " fill="#000000"></path><g><clipPath id="clip-32"><path d="M 0.0 0.0 L 1024.0 0.0 L 1024.0 554.0 L 0.0 554.0 Z M 0.0 0.0 "></path></clipPath><g clip-path="url(#clip-32)"><image xlink:href="38B72DAB49E151B8C421EFD3B34E911A.jpeg" width="1024.00" height="681.00" transform="matrix(1.00, 0.00, -0.00, -1.00, 0.0, 617.0)"></image></g></g><text xml:space="preserve" font-family="Avenir-Light" font-size="150.9" fill="#212121" transform="matrix(1.00, 0.00, -0.00, -1.00, 209.0, 604.0)">Y</text><text xml:space="preserve" font-family="Avenir-Light" font-size="150.9" fill="#212121" transform="matrix(1.00, 0.00, -0.00, -1.00, 319.7, 604.0)">U</text><text xml:space="preserve" font-family="Avenir-Light" font-size="150.9" fill="#212121" transform="matrix(1.00, 0.00, -0.00, -1.00, 447.1, 604.0)">K</text><text xml:space="preserve" font-family="Avenir-Light" font-size="150.9" fill="#212121" transform="matrix(1.00, 0.00, -0.00, -1.00, 563.4, 604.0)">O</text><text xml:space="preserve" font-family="Avenir-Light" font-size="150.9" fill="#212121" transform="matrix(1.00, 0.00, -0.00, -1.00, 713.4, 604.0)">N</text><text xml:space="preserve" font-family="Avenir-Light" font-size="34.1" fill="#FEFFFF" transform="matrix(1.00, 0.00, -0.00, -1.00, 19.0, 645.0)">L</text><text xml:space="preserve" font-family="Avenir-Light" font-size="34.1" fill="#FEFFFF" transform="matrix(1.00, 0.00, -0.00, -1.00, 41.5, 645.0)">A</text><text xml:space="preserve" font-family="Avenir-Light" font-size="34.1" fill="#FEFFFF" transform="matrix(1.00, 0.00, -0.00, -1.00, 70.3, 645.0)">R</text><text xml:space="preserve" font-family="Avenir-Light" font-size="34.1" fill="#FEFFFF" transform="matrix(1.00, 0.00, -0.00, -1.00, 96.0, 645.0)">G</text><text xml:space="preserve" font-family="Avenir-Light" font-size="34.1" fill="#FEFFFF" transform="matrix(1.00, 0.00, -0.00, -1.00, 128.0, 645.0)">E</text><text xml:space="preserve" font-family="Avenir-Light" font-size="34.1" fill="#FEFFFF" transform="matrix(1.00, 0.00, -0.00, -1.00, 153.7, 645.0)">R</text><text xml:space="preserve" font-family="Avenir-Light" font-size="34.1" fill="#FEFFFF" transform="matrix(1.00, 0.00, -0.00, -1.00, 179.3, 645.0)"> </text><text xml:space="preserve" font-family="Avenir-Light" font-size="34.1" fill="#FEFFFF" transform="matrix(1.00, 0.00, -0.00, -1.00, 193.7, 645.0)">T</text><text xml:space="preserve" font-family="Avenir-Light" font-size="34.1" fill="#FEFFFF" transform="matrix(1.00, 0.00, -0.00, -1.00, 218.7, 645.0)">H</text><text xml:space="preserve" font-family="Avenir-Light" font-size="34.1" fill="#FEFFFF" transform="matrix(1.00, 0.00, -0.00, -1.00, 248.8, 645.0)">A</text><text xml:space="preserve" font-family="Avenir-Light" font-size="34.1" fill="#FEFFFF" transform="matrix(1.00, 0.00, -0.00, -1.00, 277.6, 645.0)">N</text><text xml:space="preserve" font-family="Avenir-Light" font-size="34.1" fill="#FEFFFF" transform="matrix(1.00, 0.00, -0.00, -1.00, 309.6, 645.0)"> </text><text xml:space="preserve" font-family="Avenir-Light" font-size="34.1" fill="#FEFFFF" transform="matrix(1.00, 0.00, -0.00, -1.00, 323.9, 645.0)">L</text><text xml:space="preserve" font-family="Avenir-Light" font-size="34.1" fill="#FEFFFF" transform="matrix(1.00, 0.00, -0.00, -1.00, 346.4, 645.0)">I</text><text xml:space="preserve" font-family="Avenir-Light" font-size="34.1" fill="#FEFFFF" transform="matrix(1.00, 0.00, -0.00, -1.00, 360.7, 645.0)">F</text><text xml:space="preserve" font-family="Avenir-Light" font-size="34.1" fill="#FEFFFF" transform="matrix(1.00, 0.00, -0.00, -1.00, 385.1, 645.0)">E</text><text xml:space="preserve" font-family="Avenir-Light" font-size="34.1" fill="#FEFFFF" transform="matrix(1.00, 0.00, -0.00, -1.00, 410.8, 645.0)"> </text><text xml:space="preserve" font-family="LucidaGrande" font-size="34.1" fill="#FEFFFF" transform="matrix(1.00, 0.00, -0.00, -1.00, 425.1, 645.0)">â—</text><text xml:space="preserve" font-family="Avenir-Light" font-size="34.1" fill="#FEFFFF" transform="matrix(1.00, 0.00, -0.00, -1.00, 450.3, 645.0)"> </text><text xml:space="preserve" font-family="Avenir-Light" font-size="34.1" fill="#FEFFFF" transform="matrix(1.00, 0.00, -0.00, -1.00, 464.6, 645.0)">P</text><text xml:space="preserve" font-family="Avenir-Light" font-size="34.1" fill="#FEFFFF" transform="matrix(1.00, 0.00, -0.00, -1.00, 489.7, 645.0)">L</text><text xml:space="preserve" font-family="Avenir-Light" font-size="34.1" fill="#FEFFFF" transform="matrix(1.00, 0.00, -0.00, -1.00, 512.2, 645.0)">U</text><text xml:space="preserve" font-family="Avenir-Light" font-size="34.1" fill="#FEFFFF" transform="matrix(1.00, 0.00, -0.00, -1.00, 540.9, 645.0)">S</text><text xml:space="preserve" font-family="Avenir-Light" font-size="34.1" fill="#FEFFFF" transform="matrix(1.00, 0.00, -0.00, -1.00, 565.4, 645.0)"> </text><text xml:space="preserve" font-family="Avenir-Light" font-size="34.1" fill="#FEFFFF" transform="matrix(1.00, 0.00, -0.00, -1.00, 579.7, 645.0)">G</text><text xml:space="preserve" font-family="Avenir-Light" font-size="34.1" fill="#FEFFFF" transform="matrix(1.00, 0.00, -0.00, -1.00, 611.7, 645.0)">R</text><text xml:space="preserve" font-family="Avenir-Light" font-size="34.1" fill="#FEFFFF" transform="matrix(1.00, 0.00, -0.00, -1.00, 637.3, 645.0)">A</text><text xml:space="preserve" font-family="Avenir-Light" font-size="34.1" fill="#FEFFFF" transform="matrix(1.00, 0.00, -0.00, -1.00, 666.2, 645.0)">N</text><text xml:space="preserve" font-family="Avenir-Light" font-size="34.1" fill="#FEFFFF" transform="matrix(1.00, 0.00, -0.00, -1.00, 698.1, 645.0)">D</text><text xml:space="preserve" font-family="Avenir-Light" font-size="34.1" fill="#FEFFFF" transform="matrix(1.00, 0.00, -0.00, -1.00, 728.9, 645.0)"> </text><text xml:space="preserve" font-family="Avenir-Light" font-size="34.1" fill="#FEFFFF" transform="matrix(1.00, 0.00, -0.00, -1.00, 743.2, 645.0)">Q</text><text xml:space="preserve" font-family="Avenir-Light" font-size="34.1" fill="#FEFFFF" transform="matrix(1.00, 0.00, -0.00, -1.00, 777.1, 645.0)">U</text><text xml:space="preserve" font-family="Avenir-Light" font-size="34.1" fill="#FEFFFF" transform="matrix(1.00, 0.00, -0.00, -1.00, 805.9, 645.0)">E</text><text xml:space="preserve" font-family="Avenir-Light" font-size="34.1" fill="#FEFFFF" transform="matrix(1.00, 0.00, -0.00, -1.00, 831.5, 645.0)"> </text><text xml:space="preserve" font-family="Avenir-Light" font-size="34.1" fill="#FEFFFF" transform="matrix(1.00, 0.00, -0.00, -1.00, 845.9, 645.0)">N</text><text xml:space="preserve" font-family="Avenir-Light" font-size="34.1" fill="#FEFFFF" transform="matrix(1.00, 0.00, -0.00, -1.00, 877.8, 645.0)">A</text><text xml:space="preserve" font-family="Avenir-Light" font-size="34.1" fill="#FEFFFF" transform="matrix(1.00, 0.00, -0.00, -1.00, 904.3, 645.0)">T</text><text xml:space="preserve" font-family="Avenir-Light" font-size="34.1" fill="#FEFFFF" transform="matrix(1.00, 0.00, -0.00, -1.00, 929.4, 645.0)">U</text><text xml:space="preserve" font-family="Avenir-Light" font-size="34.1" fill="#FEFFFF" transform="matrix(1.00, 0.00, -0.00, -1.00, 958.2, 645.0)">R</text><text xml:space="preserve" font-family="Avenir-Light" font-size="34.1" fill="#FEFFFF" transform="matrix(1.00, 0.00, -0.00, -1.00, 983.8, 645.0)">E</text></g></svg>