<?xml version="1.0" encoding="UTF-8"?><svg xmlns="http://www.w3.org/2000/svg" xmlns:xlink="http://www.w3.org/1999/xlink" clip-rule="evenodd" stroke-miterlimit="4.00" viewBox="0 0 1024 768"><desc>SVG generated by Keynote</desc><defs></defs><g transform="matrix(1.00, 0.00, -0.00, -1.00, 0.0, 768.0)"><path d="M 0.0 768.0 L 1024.0 768.0 L 1024.0 0.0 L 0.0 0.0 Z M 0.0 768.0 " fill="#000000"></path><g><clipPath id="clip-85"><path d="M 0.0 1.0 L 1024.0 1.0 L 1024.0 555.0 L 0.0 555.0 Z M 0.0 1.0 "></path></clipPath><g clip-path="url(#clip-85)"><image xlink:href="../../8E061879-9A75-42C7-8D21-63A5DFE34E30/assets/3E8BB76BD9577506D46F9B30366A4A79.jpeg" width="1024.00" height="681.00" transform="matrix(1.00, 0.00, -0.00, -1.00, 0.0, 618.0)"></image></g></g><text xml:space="preserve" font-family="Avenir-Light" font-size="37.8" fill="#FEFFFF" transform="matrix(1.00, 0.00, -0.00, -1.00, 56.0, 676.0)">“</text><text xml:space="preserve" font-family="Avenir-Light" font-size="37.8" fill="#FEFFFF" transform="matrix(1.00, 0.00, -0.00, -1.00, 81.7, 676.0)">I</text><text xml:space="preserve" font-family="Avenir-Light" font-size="37.8" fill="#FEFFFF" transform="matrix(1.00, 0.00, -0.00, -1.00, 97.6, 676.0)">T</text><text xml:space="preserve" font-family="Avenir-Light" font-size="37.8" fill="#FEFFFF" transform="matrix(1.00, 0.00, -0.00, -1.00, 125.4, 676.0)"> </text><text xml:space="preserve" font-family="Avenir-Light" font-size="37.8" fill="#FEFFFF" transform="matrix(1.00, 0.00, -0.00, -1.00, 141.2, 676.0)">I</text><text xml:space="preserve" font-family="Avenir-Light" font-size="37.8" fill="#FEFFFF" transform="matrix(1.00, 0.00, -0.00, -1.00, 157.1, 676.0)">S</text><text xml:space="preserve" font-family="Avenir-Light" font-size="37.8" fill="#FEFFFF" transform="matrix(1.00, 0.00, -0.00, -1.00, 184.2, 676.0)"> </text><text xml:space="preserve" font-family="Avenir-Light" font-size="37.8" fill="#FEFFFF" transform="matrix(1.00, 0.00, -0.00, -1.00, 200.1, 676.0)">N</text><text xml:space="preserve" font-family="Avenir-Light" font-size="37.8" fill="#FEFFFF" transform="matrix(1.00, 0.00, -0.00, -1.00, 235.6, 676.0)">O</text><text xml:space="preserve" font-family="Avenir-Light" font-size="37.8" fill="#FEFFFF" transform="matrix(1.00, 0.00, -0.00, -1.00, 273.2, 676.0)">T</text><text xml:space="preserve" font-family="Avenir-Light" font-size="37.8" fill="#FEFFFF" transform="matrix(1.00, 0.00, -0.00, -1.00, 300.9, 676.0)"> </text><text xml:space="preserve" font-family="Avenir-Light" font-size="37.8" fill="#FEFFFF" transform="matrix(1.00, 0.00, -0.00, -1.00, 316.8, 676.0)">T</text><text xml:space="preserve" font-family="Avenir-Light" font-size="37.8" fill="#FEFFFF" transform="matrix(1.00, 0.00, -0.00, -1.00, 344.6, 676.0)">H</text><text xml:space="preserve" font-family="Avenir-Light" font-size="37.8" fill="#FEFFFF" transform="matrix(1.00, 0.00, -0.00, -1.00, 377.9, 676.0)">E</text><text xml:space="preserve" font-family="Avenir-Light" font-size="37.8" fill="#FEFFFF" transform="matrix(1.00, 0.00, -0.00, -1.00, 406.4, 676.0)"> </text><text xml:space="preserve" font-family="Avenir-Light" font-size="37.8" fill="#FEFFFF" transform="matrix(1.00, 0.00, -0.00, -1.00, 422.3, 676.0)">D</text><text xml:space="preserve" font-family="Avenir-Light" font-size="37.8" fill="#FEFFFF" transform="matrix(1.00, 0.00, -0.00, -1.00, 456.4, 676.0)">E</text><text xml:space="preserve" font-family="Avenir-Light" font-size="37.8" fill="#FEFFFF" transform="matrix(1.00, 0.00, -0.00, -1.00, 484.8, 676.0)">S</text><text xml:space="preserve" font-family="Avenir-Light" font-size="37.8" fill="#FEFFFF" transform="matrix(1.00, 0.00, -0.00, -1.00, 511.9, 676.0)">T</text><text xml:space="preserve" font-family="Avenir-Light" font-size="37.8" fill="#FEFFFF" transform="matrix(1.00, 0.00, -0.00, -1.00, 539.7, 676.0)">I</text><text xml:space="preserve" font-family="Avenir-Light" font-size="37.8" fill="#FEFFFF" transform="matrix(1.00, 0.00, -0.00, -1.00, 555.6, 676.0)">N</text><text xml:space="preserve" font-family="Avenir-Light" font-size="37.8" fill="#FEFFFF" transform="matrix(1.00, 0.00, -0.00, -1.00, 591.0, 676.0)">A</text><text xml:space="preserve" font-family="Avenir-Light" font-size="37.8" fill="#FEFFFF" transform="matrix(1.00, 0.00, -0.00, -1.00, 620.4, 676.0)">T</text><text xml:space="preserve" font-family="Avenir-Light" font-size="37.8" fill="#FEFFFF" transform="matrix(1.00, 0.00, -0.00, -1.00, 648.2, 676.0)">I</text><text xml:space="preserve" font-family="Avenir-Light" font-size="37.8" fill="#FEFFFF" transform="matrix(1.00, 0.00, -0.00, -1.00, 664.1, 676.0)">O</text><text xml:space="preserve" font-family="Avenir-Light" font-size="37.8" fill="#FEFFFF" transform="matrix(1.00, 0.00, -0.00, -1.00, 701.7, 676.0)">N</text><text xml:space="preserve" font-family="Avenir-Light" font-size="37.8" fill="#FEFFFF" transform="matrix(1.00, 0.00, -0.00, -1.00, 737.1, 676.0)">,</text><text xml:space="preserve" font-family="Avenir-Light" font-size="37.8" fill="#FEFFFF" transform="matrix(1.00, 0.00, -0.00, -1.00, 753.0, 676.0)"> </text><text xml:space="preserve" font-family="Avenir-Light" font-size="37.8" fill="#FEFFFF" transform="matrix(1.00, 0.00, -0.00, -1.00, 768.9, 676.0)">I</text><text xml:space="preserve" font-family="Avenir-Light" font-size="37.8" fill="#FEFFFF" transform="matrix(1.00, 0.00, -0.00, -1.00, 784.8, 676.0)">T</text><text xml:space="preserve" font-family="Avenir-Light" font-size="37.8" fill="#FEFFFF" transform="matrix(1.00, 0.00, -0.00, -1.00, 812.6, 676.0)">’</text><text xml:space="preserve" font-family="Avenir-Light" font-size="37.8" fill="#FEFFFF" transform="matrix(1.00, 0.00, -0.00, -1.00, 828.4, 676.0)">S</text><text xml:space="preserve" font-family="Avenir-Light" font-size="37.8" fill="#FEFFFF" transform="matrix(1.00, 0.00, -0.00, -1.00, 855.5, 676.0)"> </text><text xml:space="preserve" font-family="Avenir-Light" font-size="37.8" fill="#FEFFFF" transform="matrix(1.00, 0.00, -0.00, -1.00, 871.4, 676.0)">T</text><text xml:space="preserve" font-family="Avenir-Light" font-size="37.8" fill="#FEFFFF" transform="matrix(1.00, 0.00, -0.00, -1.00, 899.2, 676.0)">H</text><text xml:space="preserve" font-family="Avenir-Light" font-size="37.8" fill="#FEFFFF" transform="matrix(1.00, 0.00, -0.00, -1.00, 932.5, 676.0)">E</text><text xml:space="preserve" font-family="Avenir-Light" font-size="37.8" fill="#FEFFFF" transform="matrix(1.00, 0.00, -0.00, -1.00, 961.0, 676.0)"> </text><text xml:space="preserve" font-family="Avenir-Light" font-size="37.8" fill="#FEFFFF" transform="matrix(1.00, 0.00, -0.00, -1.00, 56.0, 624.0)">J</text><text xml:space="preserve" font-family="Avenir-Light" font-size="37.8" fill="#FEFFFF" transform="matrix(1.00, 0.00, -0.00, -1.00, 80.3, 624.0)">O</text><text xml:space="preserve" font-family="Avenir-Light" font-size="37.8" fill="#FEFFFF" transform="matrix(1.00, 0.00, -0.00, -1.00, 117.9, 624.0)">U</text><text xml:space="preserve" font-family="Avenir-Light" font-size="37.8" fill="#FEFFFF" transform="matrix(1.00, 0.00, -0.00, -1.00, 149.8, 624.0)">R</text><text xml:space="preserve" font-family="Avenir-Light" font-size="37.8" fill="#FEFFFF" transform="matrix(1.00, 0.00, -0.00, -1.00, 178.3, 624.0)">N</text><text xml:space="preserve" font-family="Avenir-Light" font-size="37.8" fill="#FEFFFF" transform="matrix(1.00, 0.00, -0.00, -1.00, 213.7, 624.0)">E</text><text xml:space="preserve" font-family="Avenir-Light" font-size="37.8" fill="#FEFFFF" transform="matrix(1.00, 0.00, -0.00, -1.00, 242.2, 624.0)">Y</text><text xml:space="preserve" font-family="Avenir-Light" font-size="37.8" fill="#FEFFFF" transform="matrix(1.00, 0.00, -0.00, -1.00, 270.0, 624.0)">”</text><text xml:space="preserve" font-family="Avenir-Light" font-size="37.8" fill="#FEFFFF" transform="matrix(1.00, 0.00, -0.00, -1.00, 295.7, 624.0)"> </text><text xml:space="preserve" font-family="Avenir-Light" font-size="37.8" fill="#55D6FF" transform="matrix(1.00, 0.00, -0.00, -1.00, 311.6, 624.0)">—</text><text xml:space="preserve" font-family="Avenir-Light" font-size="37.8" fill="#55D6FF" transform="matrix(1.00, 0.00, -0.00, -1.00, 355.5, 624.0)"> </text><text xml:space="preserve" font-family="Avenir-Light" font-size="37.8" fill="#55D6FF" transform="matrix(1.00, 0.00, -0.00, -1.00, 371.3, 624.0)">R</text><text xml:space="preserve" font-family="Avenir-Light" font-size="37.8" fill="#55D6FF" transform="matrix(1.00, 0.00, -0.00, -1.00, 399.8, 624.0)">A</text><text xml:space="preserve" font-family="Avenir-Light" font-size="37.8" fill="#55D6FF" transform="matrix(1.00, 0.00, -0.00, -1.00, 431.8, 624.0)">L</text><text xml:space="preserve" font-family="Avenir-Light" font-size="37.8" fill="#55D6FF" transform="matrix(1.00, 0.00, -0.00, -1.00, 456.7, 624.0)">P</text><text xml:space="preserve" font-family="Avenir-Light" font-size="37.8" fill="#55D6FF" transform="matrix(1.00, 0.00, -0.00, -1.00, 484.5, 624.0)">H</text><text xml:space="preserve" font-family="Avenir-Light" font-size="37.8" fill="#55D6FF" transform="matrix(1.00, 0.00, -0.00, -1.00, 517.9, 624.0)"> </text><text xml:space="preserve" font-family="Avenir-Light" font-size="37.8" fill="#55D6FF" transform="matrix(1.00, 0.00, -0.00, -1.00, 533.7, 624.0)">W</text><text xml:space="preserve" font-family="Avenir-Light" font-size="37.8" fill="#55D6FF" transform="matrix(1.00, 0.00, -0.00, -1.00, 574.8, 624.0)">A</text><text xml:space="preserve" font-family="Avenir-Light" font-size="37.8" fill="#55D6FF" transform="matrix(1.00, 0.00, -0.00, -1.00, 606.8, 624.0)">L</text><text xml:space="preserve" font-family="Avenir-Light" font-size="37.8" fill="#55D6FF" transform="matrix(1.00, 0.00, -0.00, -1.00, 631.7, 624.0)">D</text><text xml:space="preserve" font-family="Avenir-Light" font-size="37.8" fill="#55D6FF" transform="matrix(1.00, 0.00, -0.00, -1.00, 665.8, 624.0)">O</text><text xml:space="preserve" font-family="Avenir-Light" font-size="37.8" fill="#55D6FF" transform="matrix(1.00, 0.00, -0.00, -1.00, 703.4, 624.0)"> </text><text xml:space="preserve" font-family="Avenir-Light" font-size="37.8" fill="#55D6FF" transform="matrix(1.00, 0.00, -0.00, -1.00, 719.3, 624.0)">E</text><text xml:space="preserve" font-family="Avenir-Light" font-size="37.8" fill="#55D6FF" transform="matrix(1.00, 0.00, -0.00, -1.00, 747.8, 624.0)">M</text><text xml:space="preserve" font-family="Avenir-Light" font-size="37.8" fill="#55D6FF" transform="matrix(1.00, 0.00, -0.00, -1.00, 787.4, 624.0)">E</text><text xml:space="preserve" font-family="Avenir-Light" font-size="37.8" fill="#55D6FF" transform="matrix(1.00, 0.00, -0.00, -1.00, 815.9, 624.0)">R</text><text xml:space="preserve" font-family="Avenir-Light" font-size="37.8" fill="#55D6FF" transform="matrix(1.00, 0.00, -0.00, -1.00, 844.4, 624.0)">S</text><text xml:space="preserve" font-family="Avenir-Light" font-size="37.8" fill="#55D6FF" transform="matrix(1.00, 0.00, -0.00, -1.00, 871.5, 624.0)">O</text><text xml:space="preserve" font-family="Avenir-Light" font-size="37.8" fill="#55D6FF" transform="matrix(1.00, 0.00, -0.00, -1.00, 909.1, 624.0)">N</text><text xml:space="preserve" font-family="Avenir-Book" font-size="23.3" fill="#FEFFFE" transform="matrix(1.00, 0.00, -0.00, -1.00, 65.0, 24.0)">R</text><text xml:space="preserve" font-family="Avenir-Book" font-size="23.3" fill="#FEFFFE" transform="matrix(1.00, 0.00, -0.00, -1.00, 82.5, 24.0)">O</text><text xml:space="preserve" font-family="Avenir-Book" font-size="23.3" fill="#FEFFFE" transform="matrix(1.00, 0.00, -0.00, -1.00, 105.7, 24.0)">C</text><text xml:space="preserve" font-family="Avenir-Book" font-size="23.3" fill="#FEFFFE" transform="matrix(1.00, 0.00, -0.00, -1.00, 125.8, 24.0)">K</text><text xml:space="preserve" font-family="Avenir-Book" font-size="23.3" fill="#FEFFFE" transform="matrix(1.00, 0.00, -0.00, -1.00, 144.2, 24.0)">Y</text><text xml:space="preserve" font-family="Avenir-Book" font-size="23.3" fill="#FEFFFE" transform="matrix(1.00, 0.00, -0.00, -1.00, 161.3, 24.0)"> </text><text xml:space="preserve" font-family="Avenir-Book" font-size="23.3" fill="#FEFFFE" transform="matrix(1.00, 0.00, -0.00, -1.00, 171.5, 24.0)">M</text><text xml:space="preserve" font-family="Avenir-Book" font-size="23.3" fill="#FEFFFE" transform="matrix(1.00, 0.00, -0.00, -1.00, 195.9, 24.0)">O</text><text xml:space="preserve" font-family="Avenir-Book" font-size="23.3" fill="#FEFFFE" transform="matrix(1.00, 0.00, -0.00, -1.00, 219.0, 24.0)">U</text><text xml:space="preserve" font-family="Avenir-Book" font-size="23.3" fill="#FEFFFE" transform="matrix(1.00, 0.00, -0.00, -1.00, 238.7, 24.0)">N</text><text xml:space="preserve" font-family="Avenir-Book" font-size="23.3" fill="#FEFFFE" transform="matrix(1.00, 0.00, -0.00, -1.00, 260.6, 24.0)">T</text><text xml:space="preserve" font-family="Avenir-Book" font-size="23.3" fill="#FEFFFE" transform="matrix(1.00, 0.00, -0.00, -1.00, 276.1, 24.0)">A</text><text xml:space="preserve" font-family="Avenir-Book" font-size="23.3" fill="#FEFFFE" transform="matrix(1.00, 0.00, -0.00, -1.00, 295.8, 24.0)">I</text><text xml:space="preserve" font-family="Avenir-Book" font-size="23.3" fill="#FEFFFE" transform="matrix(1.00, 0.00, -0.00, -1.00, 305.6, 24.0)">N</text><text xml:space="preserve" font-family="Avenir-Book" font-size="23.3" fill="#FEFFFE" transform="matrix(1.00, 0.00, -0.00, -1.00, 327.5, 24.0)">S</text><text xml:space="preserve" font-family="Avenir-Book" font-size="23.3" fill="#FEFFFE" transform="matrix(1.00, 0.00, -0.00, -1.00, 344.2, 24.0)">,</text><text xml:space="preserve" font-family="Avenir-Book" font-size="23.3" fill="#FEFFFE" transform="matrix(1.00, 0.00, -0.00, -1.00, 354.3, 24.0)"> </text><text xml:space="preserve" font-family="Avenir-Book" font-size="23.3" fill="#FEFFFE" transform="matrix(1.00, 0.00, -0.00, -1.00, 364.5, 24.0)">S</text><text xml:space="preserve" font-family="Avenir-Book" font-size="23.3" fill="#FEFFFE" transform="matrix(1.00, 0.00, -0.00, -1.00, 381.2, 24.0)">T</text><text xml:space="preserve" font-family="Avenir-Book" font-size="23.3" fill="#FEFFFE" transform="matrix(1.00, 0.00, -0.00, -1.00, 398.3, 24.0)">O</text><text xml:space="preserve" font-family="Avenir-Book" font-size="23.3" fill="#FEFFFE" transform="matrix(1.00, 0.00, -0.00, -1.00, 421.4, 24.0)">N</text><text xml:space="preserve" font-family="Avenir-Book" font-size="23.3" fill="#FEFFFE" transform="matrix(1.00, 0.00, -0.00, -1.00, 443.3, 24.0)">E</text><text xml:space="preserve" font-family="Avenir-Book" font-size="23.3" fill="#FEFFFE" transform="matrix(1.00, 0.00, -0.00, -1.00, 460.8, 24.0)"> </text><text xml:space="preserve" font-family="Avenir-Book" font-size="23.3" fill="#FEFFFE" transform="matrix(1.00, 0.00, -0.00, -1.00, 471.0, 24.0)">M</text><text xml:space="preserve" font-family="Avenir-Book" font-size="23.3" fill="#FEFFFE" transform="matrix(1.00, 0.00, -0.00, -1.00, 495.4, 24.0)">O</text><text xml:space="preserve" font-family="Avenir-Book" font-size="23.3" fill="#FEFFFE" transform="matrix(1.00, 0.00, -0.00, -1.00, 518.6, 24.0)">U</text><text xml:space="preserve" font-family="Avenir-Book" font-size="23.3" fill="#FEFFFE" transform="matrix(1.00, 0.00, -0.00, -1.00, 538.3, 24.0)">N</text><text xml:space="preserve" font-family="Avenir-Book" font-size="23.3" fill="#FEFFFE" transform="matrix(1.00, 0.00, -0.00, -1.00, 560.1, 24.0)">T</text><text xml:space="preserve" font-family="Avenir-Book" font-size="23.3" fill="#FEFFFE" transform="matrix(1.00, 0.00, -0.00, -1.00, 575.6, 24.0)">A</text><text xml:space="preserve" font-family="Avenir-Book" font-size="23.3" fill="#FEFFFE" transform="matrix(1.00, 0.00, -0.00, -1.00, 595.3, 24.0)">I</text><text xml:space="preserve" font-family="Avenir-Book" font-size="23.3" fill="#FEFFFE" transform="matrix(1.00, 0.00, -0.00, -1.00, 605.2, 24.0)">N</text><text xml:space="preserve" font-family="Avenir-Book" font-size="23.3" fill="#FEFFFE" transform="matrix(1.00, 0.00, -0.00, -1.00, 627.0, 24.0)"> </text><text xml:space="preserve" font-family="Avenir-Book" font-size="23.3" fill="#FEFFFE" transform="matrix(1.00, 0.00, -0.00, -1.00, 637.2, 24.0)">P</text><text xml:space="preserve" font-family="Avenir-Book" font-size="23.3" fill="#FEFFFE" transform="matrix(1.00, 0.00, -0.00, -1.00, 654.3, 24.0)">R</text><text xml:space="preserve" font-family="Avenir-Book" font-size="23.3" fill="#FEFFFE" transform="matrix(1.00, 0.00, -0.00, -1.00, 671.8, 24.0)">O</text><text xml:space="preserve" font-family="Avenir-Book" font-size="23.3" fill="#FEFFFE" transform="matrix(1.00, 0.00, -0.00, -1.00, 695.0, 24.0)">V</text><text xml:space="preserve" font-family="Avenir-Book" font-size="23.3" fill="#FEFFFE" transform="matrix(1.00, 0.00, -0.00, -1.00, 712.9, 24.0)">I</text><text xml:space="preserve" font-family="Avenir-Book" font-size="23.3" fill="#FEFFFE" transform="matrix(1.00, 0.00, -0.00, -1.00, 722.8, 24.0)">N</text><text xml:space="preserve" font-family="Avenir-Book" font-size="23.3" fill="#FEFFFE" transform="matrix(1.00, 0.00, -0.00, -1.00, 744.6, 24.0)">C</text><text xml:space="preserve" font-family="Avenir-Book" font-size="23.3" fill="#FEFFFE" transform="matrix(1.00, 0.00, -0.00, -1.00, 764.8, 24.0)">I</text><text xml:space="preserve" font-family="Avenir-Book" font-size="23.3" fill="#FEFFFE" transform="matrix(1.00, 0.00, -0.00, -1.00, 774.6, 24.0)">A</text><text xml:space="preserve" font-family="Avenir-Book" font-size="23.3" fill="#FEFFFE" transform="matrix(1.00, 0.00, -0.00, -1.00, 794.3, 24.0)">L</text><text xml:space="preserve" font-family="Avenir-Book" font-size="23.3" fill="#FEFFFE" transform="matrix(1.00, 0.00, -0.00, -1.00, 809.7, 24.0)"> </text><text xml:space="preserve" font-family="Avenir-Book" font-size="23.3" fill="#FEFFFE" transform="matrix(1.00, 0.00, -0.00, -1.00, 819.9, 24.0)">P</text><text xml:space="preserve" font-family="Avenir-Book" font-size="23.3" fill="#FEFFFE" transform="matrix(1.00, 0.00, -0.00, -1.00, 835.2, 24.0)">A</text><text xml:space="preserve" font-family="Avenir-Book" font-size="23.3" fill="#FEFFFE" transform="matrix(1.00, 0.00, -0.00, -1.00, 854.9, 24.0)">R</text><text xml:space="preserve" font-family="Avenir-Book" font-size="23.3" fill="#FEFFFE" transform="matrix(1.00, 0.00, -0.00, -1.00, 872.5, 24.0)">K</text><text xml:space="preserve" font-family="Avenir-Book" font-size="23.3" fill="#FEFFFE" transform="matrix(1.00, 0.00, -0.00, -1.00, 890.9, 24.0)">,</text><text xml:space="preserve" font-family="Avenir-Book" font-size="23.3" fill="#FEFFFE" transform="matrix(1.00, 0.00, -0.00, -1.00, 901.1, 24.0)"> </text><text xml:space="preserve" font-family="Avenir-Book" font-size="23.3" fill="#FEFFFE" transform="matrix(1.00, 0.00, -0.00, -1.00, 911.3, 24.0)">B</text><text xml:space="preserve" font-family="Avenir-Book" font-size="23.3" fill="#FEFFFE" transform="matrix(1.00, 0.00, -0.00, -1.00, 929.6, 24.0)">C</text></g></svg>