<?xml version="1.0" encoding="UTF-8"?><svg xmlns="http://www.w3.org/2000/svg" xmlns:xlink="http://www.w3.org/1999/xlink" clip-rule="evenodd" stroke-miterlimit="4.00" viewBox="0 0 1024 768"><desc>SVG generated by Keynote</desc><defs></defs><g transform="matrix(1.00, 0.00, -0.00, -1.00, 0.0, 768.0)"><path d="M 0.0 768.0 L 1024.0 768.0 L 1024.0 0.0 L 0.0 0.0 Z M 0.0 768.0 " fill="#000000"></path><g><clipPath id="clip-91"><path d="M 0.0 588.0 L 1024.0 588.0 L 1024.0 34.0 L 0.0 34.0 Z M 0.0 587.6 "></path></clipPath><g clip-path="url(#clip-91)"><image xlink:href="../../8E061879-9A75-42C7-8D21-63A5DFE34E30/assets/3E8BB76BD9577506D46F9B30366A4A79.jpeg" width="1024.00" height="681.00" transform="matrix(1.00, 0.00, -0.00, -1.00, 0.0, 612.0)"></image></g></g><text xml:space="preserve" font-family="Avenir-Book" font-size="19.7" fill="#FEFFFE" transform="matrix(1.00, 0.00, -0.00, -1.00, 88.0, 9.0)">N</text><text xml:space="preserve" font-family="Avenir-Book" font-size="19.7" fill="#FEFFFE" transform="matrix(1.00, 0.00, -0.00, -1.00, 106.5, 9.0)">O</text><text xml:space="preserve" font-family="Avenir-Book" font-size="19.7" fill="#FEFFFE" transform="matrix(1.00, 0.00, -0.00, -1.00, 126.0, 9.0)">R</text><text xml:space="preserve" font-family="Avenir-Book" font-size="19.7" fill="#FEFFFE" transform="matrix(1.00, 0.00, -0.00, -1.00, 141.0, 9.0)">T</text><text xml:space="preserve" font-family="Avenir-Book" font-size="19.7" fill="#FEFFFE" transform="matrix(1.00, 0.00, -0.00, -1.00, 155.4, 9.0)">H</text><text xml:space="preserve" font-family="Avenir-Book" font-size="19.7" fill="#FEFFFE" transform="matrix(1.00, 0.00, -0.00, -1.00, 172.8, 9.0)">E</text><text xml:space="preserve" font-family="Avenir-Book" font-size="19.7" fill="#FEFFFE" transform="matrix(1.00, 0.00, -0.00, -1.00, 187.6, 9.0)">R</text><text xml:space="preserve" font-family="Avenir-Book" font-size="19.7" fill="#FEFFFE" transform="matrix(1.00, 0.00, -0.00, -1.00, 202.4, 9.0)">N</text><text xml:space="preserve" font-family="Avenir-Book" font-size="19.7" fill="#FEFFFE" transform="matrix(1.00, 0.00, -0.00, -1.00, 220.9, 9.0)"> </text><text xml:space="preserve" font-family="Avenir-Book" font-size="19.7" fill="#FEFFFE" transform="matrix(1.00, 0.00, -0.00, -1.00, 229.5, 9.0)">R</text><text xml:space="preserve" font-family="Avenir-Book" font-size="19.7" fill="#FEFFFE" transform="matrix(1.00, 0.00, -0.00, -1.00, 244.3, 9.0)">O</text><text xml:space="preserve" font-family="Avenir-Book" font-size="19.7" fill="#FEFFFE" transform="matrix(1.00, 0.00, -0.00, -1.00, 263.9, 9.0)">C</text><text xml:space="preserve" font-family="Avenir-Book" font-size="19.7" fill="#FEFFFE" transform="matrix(1.00, 0.00, -0.00, -1.00, 280.9, 9.0)">K</text><text xml:space="preserve" font-family="Avenir-Book" font-size="19.7" fill="#FEFFFE" transform="matrix(1.00, 0.00, -0.00, -1.00, 296.4, 9.0)">Y</text><text xml:space="preserve" font-family="Avenir-Book" font-size="19.7" fill="#FEFFFE" transform="matrix(1.00, 0.00, -0.00, -1.00, 310.9, 9.0)"> </text><text xml:space="preserve" font-family="Avenir-Book" font-size="19.7" fill="#FEFFFE" transform="matrix(1.00, 0.00, -0.00, -1.00, 319.5, 9.0)">M</text><text xml:space="preserve" font-family="Avenir-Book" font-size="19.7" fill="#FEFFFE" transform="matrix(1.00, 0.00, -0.00, -1.00, 340.1, 9.0)">O</text><text xml:space="preserve" font-family="Avenir-Book" font-size="19.7" fill="#FEFFFE" transform="matrix(1.00, 0.00, -0.00, -1.00, 359.7, 9.0)">U</text><text xml:space="preserve" font-family="Avenir-Book" font-size="19.7" fill="#FEFFFE" transform="matrix(1.00, 0.00, -0.00, -1.00, 376.4, 9.0)">N</text><text xml:space="preserve" font-family="Avenir-Book" font-size="19.7" fill="#FEFFFE" transform="matrix(1.00, 0.00, -0.00, -1.00, 394.8, 9.0)">T</text><text xml:space="preserve" font-family="Avenir-Book" font-size="19.7" fill="#FEFFFE" transform="matrix(1.00, 0.00, -0.00, -1.00, 407.9, 9.0)">A</text><text xml:space="preserve" font-family="Avenir-Book" font-size="19.7" fill="#FEFFFE" transform="matrix(1.00, 0.00, -0.00, -1.00, 424.6, 9.0)">I</text><text xml:space="preserve" font-family="Avenir-Book" font-size="19.7" fill="#FEFFFE" transform="matrix(1.00, 0.00, -0.00, -1.00, 432.9, 9.0)">N</text><text xml:space="preserve" font-family="Avenir-Book" font-size="19.7" fill="#FEFFFE" transform="matrix(1.00, 0.00, -0.00, -1.00, 451.4, 9.0)">S</text><text xml:space="preserve" font-family="Avenir-Book" font-size="19.7" fill="#FEFFFE" transform="matrix(1.00, 0.00, -0.00, -1.00, 465.5, 9.0)">,</text><text xml:space="preserve" font-family="Avenir-Book" font-size="19.7" fill="#FEFFFE" transform="matrix(1.00, 0.00, -0.00, -1.00, 474.1, 9.0)"> </text><text xml:space="preserve" font-family="Avenir-Book" font-size="19.7" fill="#FEFFFE" transform="matrix(1.00, 0.00, -0.00, -1.00, 482.7, 9.0)">S</text><text xml:space="preserve" font-family="Avenir-Book" font-size="19.7" fill="#FEFFFE" transform="matrix(1.00, 0.00, -0.00, -1.00, 496.8, 9.0)">T</text><text xml:space="preserve" font-family="Avenir-Book" font-size="19.7" fill="#FEFFFE" transform="matrix(1.00, 0.00, -0.00, -1.00, 511.2, 9.0)">O</text><text xml:space="preserve" font-family="Avenir-Book" font-size="19.7" fill="#FEFFFE" transform="matrix(1.00, 0.00, -0.00, -1.00, 530.8, 9.0)">N</text><text xml:space="preserve" font-family="Avenir-Book" font-size="19.7" fill="#FEFFFE" transform="matrix(1.00, 0.00, -0.00, -1.00, 549.3, 9.0)">E</text><text xml:space="preserve" font-family="Avenir-Book" font-size="19.7" fill="#FEFFFE" transform="matrix(1.00, 0.00, -0.00, -1.00, 564.1, 9.0)"> </text><text xml:space="preserve" font-family="Avenir-Book" font-size="19.7" fill="#FEFFFE" transform="matrix(1.00, 0.00, -0.00, -1.00, 572.7, 9.0)">M</text><text xml:space="preserve" font-family="Avenir-Book" font-size="19.7" fill="#FEFFFE" transform="matrix(1.00, 0.00, -0.00, -1.00, 593.4, 9.0)">O</text><text xml:space="preserve" font-family="Avenir-Book" font-size="19.7" fill="#FEFFFE" transform="matrix(1.00, 0.00, -0.00, -1.00, 612.9, 9.0)">U</text><text xml:space="preserve" font-family="Avenir-Book" font-size="19.7" fill="#FEFFFE" transform="matrix(1.00, 0.00, -0.00, -1.00, 629.6, 9.0)">N</text><text xml:space="preserve" font-family="Avenir-Book" font-size="19.7" fill="#FEFFFE" transform="matrix(1.00, 0.00, -0.00, -1.00, 648.0, 9.0)">T</text><text xml:space="preserve" font-family="Avenir-Book" font-size="19.7" fill="#FEFFFE" transform="matrix(1.00, 0.00, -0.00, -1.00, 661.1, 9.0)">A</text><text xml:space="preserve" font-family="Avenir-Book" font-size="19.7" fill="#FEFFFE" transform="matrix(1.00, 0.00, -0.00, -1.00, 677.8, 9.0)">I</text><text xml:space="preserve" font-family="Avenir-Book" font-size="19.7" fill="#FEFFFE" transform="matrix(1.00, 0.00, -0.00, -1.00, 686.1, 9.0)">N</text><text xml:space="preserve" font-family="Avenir-Book" font-size="19.7" fill="#FEFFFE" transform="matrix(1.00, 0.00, -0.00, -1.00, 704.6, 9.0)"> </text><text xml:space="preserve" font-family="Avenir-Book" font-size="19.7" fill="#FEFFFE" transform="matrix(1.00, 0.00, -0.00, -1.00, 713.2, 9.0)">P</text><text xml:space="preserve" font-family="Avenir-Book" font-size="19.7" fill="#FEFFFE" transform="matrix(1.00, 0.00, -0.00, -1.00, 727.7, 9.0)">R</text><text xml:space="preserve" font-family="Avenir-Book" font-size="19.7" fill="#FEFFFE" transform="matrix(1.00, 0.00, -0.00, -1.00, 742.5, 9.0)">O</text><text xml:space="preserve" font-family="Avenir-Book" font-size="19.7" fill="#FEFFFE" transform="matrix(1.00, 0.00, -0.00, -1.00, 762.0, 9.0)">V</text><text xml:space="preserve" font-family="Avenir-Book" font-size="19.7" fill="#FEFFFE" transform="matrix(1.00, 0.00, -0.00, -1.00, 777.2, 9.0)">I</text><text xml:space="preserve" font-family="Avenir-Book" font-size="19.7" fill="#FEFFFE" transform="matrix(1.00, 0.00, -0.00, -1.00, 785.6, 9.0)">N</text><text xml:space="preserve" font-family="Avenir-Book" font-size="19.7" fill="#FEFFFE" transform="matrix(1.00, 0.00, -0.00, -1.00, 804.0, 9.0)">C</text><text xml:space="preserve" font-family="Avenir-Book" font-size="19.7" fill="#FEFFFE" transform="matrix(1.00, 0.00, -0.00, -1.00, 821.0, 9.0)">I</text><text xml:space="preserve" font-family="Avenir-Book" font-size="19.7" fill="#FEFFFE" transform="matrix(1.00, 0.00, -0.00, -1.00, 829.4, 9.0)">A</text><text xml:space="preserve" font-family="Avenir-Book" font-size="19.7" fill="#FEFFFE" transform="matrix(1.00, 0.00, -0.00, -1.00, 846.0, 9.0)">L</text><text xml:space="preserve" font-family="Avenir-Book" font-size="19.7" fill="#FEFFFE" transform="matrix(1.00, 0.00, -0.00, -1.00, 859.0, 9.0)"> </text><text xml:space="preserve" font-family="Avenir-Book" font-size="19.7" fill="#FEFFFE" transform="matrix(1.00, 0.00, -0.00, -1.00, 867.6, 9.0)">P</text><text xml:space="preserve" font-family="Avenir-Book" font-size="19.7" fill="#FEFFFE" transform="matrix(1.00, 0.00, -0.00, -1.00, 880.6, 9.0)">A</text><text xml:space="preserve" font-family="Avenir-Book" font-size="19.7" fill="#FEFFFE" transform="matrix(1.00, 0.00, -0.00, -1.00, 897.3, 9.0)">R</text><text xml:space="preserve" font-family="Avenir-Book" font-size="19.7" fill="#FEFFFE" transform="matrix(1.00, 0.00, -0.00, -1.00, 912.1, 9.0)">K</text><text xml:space="preserve" font-family="Avenir-Book" font-size="19.7" fill="#FEFFFE" transform="matrix(1.00, 0.00, -0.00, -1.00, 927.6, 9.0)">,</text><text xml:space="preserve" font-family="Avenir-Book" font-size="19.7" fill="#FEFFFE" transform="matrix(1.00, 0.00, -0.00, -1.00, 936.2, 9.0)"> </text><text xml:space="preserve" font-family="Avenir-Book" font-size="19.7" fill="#FEFFFE" transform="matrix(1.00, 0.00, -0.00, -1.00, 944.9, 9.0)">B</text><text xml:space="preserve" font-family="Avenir-Book" font-size="19.7" fill="#FEFFFE" transform="matrix(1.00, 0.00, -0.00, -1.00, 960.4, 9.0)">C</text><text xml:space="preserve" font-family="Avenir-Light" font-size="24.0" fill="#55D6FF" transform="matrix(1.00, 0.00, -0.00, -1.00, 318.0, 611.0)">—</text><text xml:space="preserve" font-family="Avenir-Light" font-size="24.0" fill="#55D6FF" transform="matrix(1.00, 0.00, -0.00, -1.00, 345.8, 611.0)">R</text><text xml:space="preserve" font-family="Avenir-Light" font-size="24.0" fill="#55D6FF" transform="matrix(1.00, 0.00, -0.00, -1.00, 363.9, 611.0)">A</text><text xml:space="preserve" font-family="Avenir-Light" font-size="24.0" fill="#55D6FF" transform="matrix(1.00, 0.00, -0.00, -1.00, 384.2, 611.0)">L</text><text xml:space="preserve" font-family="Avenir-Light" font-size="24.0" fill="#55D6FF" transform="matrix(1.00, 0.00, -0.00, -1.00, 400.0, 611.0)">P</text><text xml:space="preserve" font-family="Avenir-Light" font-size="24.0" fill="#55D6FF" transform="matrix(1.00, 0.00, -0.00, -1.00, 417.6, 611.0)">H</text><text xml:space="preserve" font-family="Avenir-Light" font-size="24.0" fill="#55D6FF" transform="matrix(1.00, 0.00, -0.00, -1.00, 438.8, 611.0)"> </text><text xml:space="preserve" font-family="Avenir-Light" font-size="24.0" fill="#55D6FF" transform="matrix(1.00, 0.00, -0.00, -1.00, 448.9, 611.0)">W</text><text xml:space="preserve" font-family="Avenir-Light" font-size="24.0" fill="#55D6FF" transform="matrix(1.00, 0.00, -0.00, -1.00, 475.0, 611.0)">A</text><text xml:space="preserve" font-family="Avenir-Light" font-size="24.0" fill="#55D6FF" transform="matrix(1.00, 0.00, -0.00, -1.00, 495.2, 611.0)">L</text><text xml:space="preserve" font-family="Avenir-Light" font-size="24.0" fill="#55D6FF" transform="matrix(1.00, 0.00, -0.00, -1.00, 511.1, 611.0)">D</text><text xml:space="preserve" font-family="Avenir-Light" font-size="24.0" fill="#55D6FF" transform="matrix(1.00, 0.00, -0.00, -1.00, 532.7, 611.0)">O</text><text xml:space="preserve" font-family="Avenir-Light" font-size="24.0" fill="#55D6FF" transform="matrix(1.00, 0.00, -0.00, -1.00, 556.6, 611.0)"> </text><text xml:space="preserve" font-family="Avenir-Light" font-size="24.0" fill="#55D6FF" transform="matrix(1.00, 0.00, -0.00, -1.00, 566.6, 611.0)">E</text><text xml:space="preserve" font-family="Avenir-Light" font-size="24.0" fill="#55D6FF" transform="matrix(1.00, 0.00, -0.00, -1.00, 584.7, 611.0)">M</text><text xml:space="preserve" font-family="Avenir-Light" font-size="24.0" fill="#55D6FF" transform="matrix(1.00, 0.00, -0.00, -1.00, 609.9, 611.0)">E</text><text xml:space="preserve" font-family="Avenir-Light" font-size="24.0" fill="#55D6FF" transform="matrix(1.00, 0.00, -0.00, -1.00, 628.0, 611.0)">R</text><text xml:space="preserve" font-family="Avenir-Light" font-size="24.0" fill="#55D6FF" transform="matrix(1.00, 0.00, -0.00, -1.00, 646.0, 611.0)">S</text><text xml:space="preserve" font-family="Avenir-Light" font-size="24.0" fill="#55D6FF" transform="matrix(1.00, 0.00, -0.00, -1.00, 663.2, 611.0)">O</text><text xml:space="preserve" font-family="Avenir-Light" font-size="24.0" fill="#55D6FF" transform="matrix(1.00, 0.00, -0.00, -1.00, 687.1, 611.0)">N</text><text xml:space="preserve" font-family="Avenir-Light" font-size="42.0" fill="#FEFFFE" transform="matrix(1.00, 0.00, -0.00, -1.00, 6.0, 669.0)">“</text><text xml:space="preserve" font-family="Avenir-Light" font-size="42.0" fill="#FEFFFE" transform="matrix(1.00, 0.00, -0.00, -1.00, 27.8, 669.0)">I</text><text xml:space="preserve" font-family="Avenir-Light" font-size="42.0" fill="#FEFFFE" transform="matrix(1.00, 0.00, -0.00, -1.00, 38.8, 669.0)">t</text><text xml:space="preserve" font-family="Avenir-Light" font-size="42.0" fill="#FEFFFE" transform="matrix(1.00, 0.00, -0.00, -1.00, 52.8, 669.0)">’</text><text xml:space="preserve" font-family="Avenir-Light" font-size="42.0" fill="#FEFFFE" transform="matrix(1.00, 0.00, -0.00, -1.00, 59.0, 669.0)">s</text><text xml:space="preserve" font-family="Avenir-Light" font-size="42.0" fill="#FEFFFE" transform="matrix(1.00, 0.00, -0.00, -1.00, 76.9, 669.0)"> </text><text xml:space="preserve" font-family="Avenir-Light" font-size="42.0" fill="#FEFFFE" transform="matrix(1.00, 0.00, -0.00, -1.00, 87.9, 669.0)">n</text><text xml:space="preserve" font-family="Avenir-Light" font-size="42.0" fill="#FEFFFE" transform="matrix(1.00, 0.00, -0.00, -1.00, 111.2, 669.0)">o</text><text xml:space="preserve" font-family="Avenir-Light" font-size="42.0" fill="#FEFFFE" transform="matrix(1.00, 0.00, -0.00, -1.00, 136.2, 669.0)">t</text><text xml:space="preserve" font-family="Avenir-Light" font-size="42.0" fill="#FEFFFE" transform="matrix(1.00, 0.00, -0.00, -1.00, 150.1, 669.0)"> </text><text xml:space="preserve" font-family="Avenir-Light" font-size="42.0" fill="#FEFFFE" transform="matrix(1.00, 0.00, -0.00, -1.00, 161.1, 669.0)">a</text><text xml:space="preserve" font-family="Avenir-Light" font-size="42.0" fill="#FEFFFE" transform="matrix(1.00, 0.00, -0.00, -1.00, 182.9, 669.0)">b</text><text xml:space="preserve" font-family="Avenir-Light" font-size="42.0" fill="#FEFFFE" transform="matrix(1.00, 0.00, -0.00, -1.00, 208.5, 669.0)">o</text><text xml:space="preserve" font-family="Avenir-Light" font-size="42.0" fill="#FEFFFE" transform="matrix(1.00, 0.00, -0.00, -1.00, 233.5, 669.0)">u</text><text xml:space="preserve" font-family="Avenir-Light" font-size="42.0" fill="#FEFFFE" transform="matrix(1.00, 0.00, -0.00, -1.00, 256.8, 669.0)">t</text><text xml:space="preserve" font-family="Avenir-Light" font-size="42.0" fill="#FEFFFE" transform="matrix(1.00, 0.00, -0.00, -1.00, 270.8, 669.0)"> </text><text xml:space="preserve" font-family="Avenir-Light" font-size="42.0" fill="#FEFFFE" transform="matrix(1.00, 0.00, -0.00, -1.00, 281.7, 669.0)">t</text><text xml:space="preserve" font-family="Avenir-Light" font-size="42.0" fill="#FEFFFE" transform="matrix(1.00, 0.00, -0.00, -1.00, 295.8, 669.0)">h</text><text xml:space="preserve" font-family="Avenir-Light" font-size="42.0" fill="#FEFFFE" transform="matrix(1.00, 0.00, -0.00, -1.00, 319.1, 669.0)">e</text><text xml:space="preserve" font-family="Avenir-Light" font-size="42.0" fill="#FEFFFE" transform="matrix(1.00, 0.00, -0.00, -1.00, 342.5, 669.0)"> </text><text xml:space="preserve" font-family="Avenir-Light" font-size="42.0" fill="#FEFFFE" transform="matrix(1.00, 0.00, -0.00, -1.00, 353.4, 669.0)">d</text><text xml:space="preserve" font-family="Avenir-Light" font-size="42.0" fill="#FEFFFE" transform="matrix(1.00, 0.00, -0.00, -1.00, 379.0, 669.0)">e</text><text xml:space="preserve" font-family="Avenir-Light" font-size="42.0" fill="#FEFFFE" transform="matrix(1.00, 0.00, -0.00, -1.00, 402.4, 669.0)">s</text><text xml:space="preserve" font-family="Avenir-Light" font-size="42.0" fill="#FEFFFE" transform="matrix(1.00, 0.00, -0.00, -1.00, 420.3, 669.0)">t</text><text xml:space="preserve" font-family="Avenir-Light" font-size="42.0" fill="#FEFFFE" transform="matrix(1.00, 0.00, -0.00, -1.00, 434.3, 669.0)">i</text><text xml:space="preserve" font-family="Avenir-Light" font-size="42.0" fill="#FEFFFE" transform="matrix(1.00, 0.00, -0.00, -1.00, 444.4, 669.0)">n</text><text xml:space="preserve" font-family="Avenir-Light" font-size="42.0" fill="#FEFFFE" transform="matrix(1.00, 0.00, -0.00, -1.00, 467.7, 669.0)">a</text><text xml:space="preserve" font-family="Avenir-Light" font-size="42.0" fill="#FEFFFE" transform="matrix(1.00, 0.00, -0.00, -1.00, 489.5, 669.0)">t</text><text xml:space="preserve" font-family="Avenir-Light" font-size="42.0" fill="#FEFFFE" transform="matrix(1.00, 0.00, -0.00, -1.00, 503.6, 669.0)">i</text><text xml:space="preserve" font-family="Avenir-Light" font-size="42.0" fill="#FEFFFE" transform="matrix(1.00, 0.00, -0.00, -1.00, 513.7, 669.0)">o</text><text xml:space="preserve" font-family="Avenir-Light" font-size="42.0" fill="#FEFFFE" transform="matrix(1.00, 0.00, -0.00, -1.00, 538.6, 669.0)">n</text><text xml:space="preserve" font-family="Avenir-Light" font-size="42.0" fill="#FEFFFE" transform="matrix(1.00, 0.00, -0.00, -1.00, 562.0, 669.0)">,</text><text xml:space="preserve" font-family="Avenir-Light" font-size="42.0" fill="#FEFFFE" transform="matrix(1.00, 0.00, -0.00, -1.00, 572.9, 669.0)"> </text><text xml:space="preserve" font-family="Avenir-Light" font-size="42.0" fill="#FEFFFE" transform="matrix(1.00, 0.00, -0.00, -1.00, 583.8, 669.0)">b</text><text xml:space="preserve" font-family="Avenir-Light" font-size="42.0" fill="#FEFFFE" transform="matrix(1.00, 0.00, -0.00, -1.00, 609.5, 669.0)">u</text><text xml:space="preserve" font-family="Avenir-Light" font-size="42.0" fill="#FEFFFE" transform="matrix(1.00, 0.00, -0.00, -1.00, 632.8, 669.0)">t</text><text xml:space="preserve" font-family="Avenir-Light" font-size="42.0" fill="#FEFFFE" transform="matrix(1.00, 0.00, -0.00, -1.00, 646.8, 669.0)"> </text><text xml:space="preserve" font-family="Avenir-Light" font-size="42.0" fill="#FEFFFE" transform="matrix(1.00, 0.00, -0.00, -1.00, 657.7, 669.0)">a</text><text xml:space="preserve" font-family="Avenir-Light" font-size="42.0" fill="#FEFFFE" transform="matrix(1.00, 0.00, -0.00, -1.00, 679.5, 669.0)">b</text><text xml:space="preserve" font-family="Avenir-Light" font-size="42.0" fill="#FEFFFE" transform="matrix(1.00, 0.00, -0.00, -1.00, 705.2, 669.0)">o</text><text xml:space="preserve" font-family="Avenir-Light" font-size="42.0" fill="#FEFFFE" transform="matrix(1.00, 0.00, -0.00, -1.00, 730.1, 669.0)">u</text><text xml:space="preserve" font-family="Avenir-Light" font-size="42.0" fill="#FEFFFE" transform="matrix(1.00, 0.00, -0.00, -1.00, 753.5, 669.0)">t</text><text xml:space="preserve" font-family="Avenir-Light" font-size="42.0" fill="#FEFFFE" transform="matrix(1.00, 0.00, -0.00, -1.00, 767.5, 669.0)"> </text><text xml:space="preserve" font-family="Avenir-Light" font-size="42.0" fill="#FEFFFE" transform="matrix(1.00, 0.00, -0.00, -1.00, 778.4, 669.0)">t</text><text xml:space="preserve" font-family="Avenir-Light" font-size="42.0" fill="#FEFFFE" transform="matrix(1.00, 0.00, -0.00, -1.00, 792.4, 669.0)">h</text><text xml:space="preserve" font-family="Avenir-Light" font-size="42.0" fill="#FEFFFE" transform="matrix(1.00, 0.00, -0.00, -1.00, 815.8, 669.0)">e</text><text xml:space="preserve" font-family="Avenir-Light" font-size="42.0" fill="#FEFFFE" transform="matrix(1.00, 0.00, -0.00, -1.00, 839.1, 669.0)"> </text><text xml:space="preserve" font-family="Avenir-Light" font-size="42.0" fill="#FEFFFE" transform="matrix(1.00, 0.00, -0.00, -1.00, 850.0, 669.0)">j</text><text xml:space="preserve" font-family="Avenir-Light" font-size="42.0" fill="#FEFFFE" transform="matrix(1.00, 0.00, -0.00, -1.00, 860.1, 669.0)">o</text><text xml:space="preserve" font-family="Avenir-Light" font-size="42.0" fill="#FEFFFE" transform="matrix(1.00, 0.00, -0.00, -1.00, 885.1, 669.0)">u</text><text xml:space="preserve" font-family="Avenir-Light" font-size="42.0" fill="#FEFFFE" transform="matrix(1.00, 0.00, -0.00, -1.00, 908.4, 669.0)">r</text><text xml:space="preserve" font-family="Avenir-Light" font-size="42.0" fill="#FEFFFE" transform="matrix(1.00, 0.00, -0.00, -1.00, 922.4, 669.0)">n</text><text xml:space="preserve" font-family="Avenir-Light" font-size="42.0" fill="#FEFFFE" transform="matrix(1.00, 0.00, -0.00, -1.00, 945.7, 669.0)">e</text><text xml:space="preserve" font-family="Avenir-Light" font-size="42.0" fill="#FEFFFE" transform="matrix(1.00, 0.00, -0.00, -1.00, 969.1, 669.0)">y</text><text xml:space="preserve" font-family="Avenir-Light" font-size="42.0" fill="#FEFFFE" transform="matrix(1.00, 0.00, -0.00, -1.00, 984.7, 669.0)">.</text><text xml:space="preserve" font-family="Avenir-Light" font-size="42.0" fill="#FEFFFE" transform="matrix(1.00, 0.00, -0.00, -1.00, 995.6, 669.0)">”</text><text xml:space="preserve" font-family="Avenir-Light" font-size="42.0" fill="#FEFFFE" transform="matrix(1.00, 0.00, -0.00, -1.00, 1017.4, 669.0)"> </text></g></svg>