<?xml version="1.0" encoding="UTF-8"?><svg xmlns="http://www.w3.org/2000/svg" xmlns:xlink="http://www.w3.org/1999/xlink" clip-rule="evenodd" stroke-miterlimit="4.00" viewBox="0 0 1024 768"><desc>SVG generated by Keynote</desc><defs></defs><g transform="matrix(1.00, 0.00, -0.00, -1.00, 0.0, 768.0)"><path d="M 0.0 768.0 L 1024.0 768.0 L 1024.0 0.0 L 0.0 0.0 Z M 0.0 768.0 " fill="#000000"></path><g><clipPath id="clip-216"><path d="M 0.0 -2.0 L 1024.0 -2.0 L 1024.0 552.0 L 0.0 552.0 Z M 0.0 -2.0 "></path></clipPath><g clip-path="url(#clip-216)"><image xlink:href="AC7F7F165765CAEAADBC643E92D224AE.jpeg" width="1024.00" height="681.00" transform="matrix(1.00, 0.00, -0.00, -1.00, 0.0, 687.0)"></image></g></g><text xml:space="preserve" font-family="Avenir-Light" font-size="62.0" fill="#FEFFFF" transform="matrix(1.00, 0.00, -0.00, -1.00, 56.0, 623.0)">C</text><text xml:space="preserve" font-family="Avenir-Light" font-size="62.0" fill="#FEFFFF" transform="matrix(1.00, 0.00, -0.00, -1.00, 109.6, 623.0)">A</text><text xml:space="preserve" font-family="Avenir-Light" font-size="62.0" fill="#FEFFFF" transform="matrix(1.00, 0.00, -0.00, -1.00, 162.0, 623.0)">R</text><text xml:space="preserve" font-family="Avenir-Light" font-size="62.0" fill="#FEFFFF" transform="matrix(1.00, 0.00, -0.00, -1.00, 208.6, 623.0)">I</text><text xml:space="preserve" font-family="Avenir-Light" font-size="62.0" fill="#FEFFFF" transform="matrix(1.00, 0.00, -0.00, -1.00, 234.7, 623.0)">B</text><text xml:space="preserve" font-family="Avenir-Light" font-size="62.0" fill="#FEFFFF" transform="matrix(1.00, 0.00, -0.00, -1.00, 283.7, 623.0)">O</text><text xml:space="preserve" font-family="Avenir-Light" font-size="62.0" fill="#FEFFFF" transform="matrix(1.00, 0.00, -0.00, -1.00, 345.3, 623.0)">O</text><text xml:space="preserve" font-family="Avenir-Light" font-size="62.0" fill="#FEFFFF" transform="matrix(1.00, 0.00, -0.00, -1.00, 406.9, 623.0)"> </text><text xml:space="preserve" font-family="Avenir-Light" font-size="62.0" fill="#FEFFFF" transform="matrix(1.00, 0.00, -0.00, -1.00, 433.0, 623.0)">M</text><text xml:space="preserve" font-family="Avenir-Light" font-size="62.0" fill="#FEFFFF" transform="matrix(1.00, 0.00, -0.00, -1.00, 498.0, 623.0)">O</text><text xml:space="preserve" font-family="Avenir-Light" font-size="62.0" fill="#FEFFFF" transform="matrix(1.00, 0.00, -0.00, -1.00, 559.6, 623.0)">U</text><text xml:space="preserve" font-family="Avenir-Light" font-size="62.0" fill="#FEFFFF" transform="matrix(1.00, 0.00, -0.00, -1.00, 612.0, 623.0)">N</text><text xml:space="preserve" font-family="Avenir-Light" font-size="62.0" fill="#FEFFFF" transform="matrix(1.00, 0.00, -0.00, -1.00, 670.1, 623.0)">T</text><text xml:space="preserve" font-family="Avenir-Light" font-size="62.0" fill="#FEFFFF" transform="matrix(1.00, 0.00, -0.00, -1.00, 711.4, 623.0)">A</text><text xml:space="preserve" font-family="Avenir-Light" font-size="62.0" fill="#FEFFFF" transform="matrix(1.00, 0.00, -0.00, -1.00, 763.8, 623.0)">I</text><text xml:space="preserve" font-family="Avenir-Light" font-size="62.0" fill="#FEFFFF" transform="matrix(1.00, 0.00, -0.00, -1.00, 789.8, 623.0)">N</text><text xml:space="preserve" font-family="Avenir-Book" font-size="23.3" fill="#FEFFFE" transform="matrix(1.00, 0.00, -0.00, -1.00, 56.0, 701.0)">H</text><text xml:space="preserve" font-family="Avenir-Book" font-size="23.3" fill="#FEFFFE" transform="matrix(1.00, 0.00, -0.00, -1.00, 76.5, 701.0)">I</text><text xml:space="preserve" font-family="Avenir-Book" font-size="23.3" fill="#FEFFFE" transform="matrix(1.00, 0.00, -0.00, -1.00, 86.4, 701.0)">K</text><text xml:space="preserve" font-family="Avenir-Book" font-size="23.3" fill="#FEFFFE" transform="matrix(1.00, 0.00, -0.00, -1.00, 104.8, 701.0)">I</text><text xml:space="preserve" font-family="Avenir-Book" font-size="23.3" fill="#FEFFFE" transform="matrix(1.00, 0.00, -0.00, -1.00, 114.7, 701.0)">N</text><text xml:space="preserve" font-family="Avenir-Book" font-size="23.3" fill="#FEFFFE" transform="matrix(1.00, 0.00, -0.00, -1.00, 136.5, 701.0)">G</text><text xml:space="preserve" font-family="Avenir-Light" font-size="23.4" fill="#FEFFFF" transform="matrix(1.00, 0.00, -0.00, -1.00, 112.0, 23.0)">O</text><text xml:space="preserve" font-family="Avenir-Light" font-size="23.4" fill="#FEFFFF" transform="matrix(1.00, 0.00, -0.00, -1.00, 135.3, 23.0)">N</text><text xml:space="preserve" font-family="Avenir-Light" font-size="23.4" fill="#FEFFFF" transform="matrix(1.00, 0.00, -0.00, -1.00, 157.2, 23.0)"> </text><text xml:space="preserve" font-family="Avenir-Light" font-size="23.4" fill="#FEFFFF" transform="matrix(1.00, 0.00, -0.00, -1.00, 167.0, 23.0)">R</text><text xml:space="preserve" font-family="Avenir-Light" font-size="23.4" fill="#FEFFFF" transform="matrix(1.00, 0.00, -0.00, -1.00, 184.7, 23.0)">I</text><text xml:space="preserve" font-family="Avenir-Light" font-size="23.4" fill="#FEFFFF" transform="matrix(1.00, 0.00, -0.00, -1.00, 194.5, 23.0)">D</text><text xml:space="preserve" font-family="Avenir-Light" font-size="23.4" fill="#FEFFFF" transform="matrix(1.00, 0.00, -0.00, -1.00, 215.6, 23.0)">G</text><text xml:space="preserve" font-family="Avenir-Light" font-size="23.4" fill="#FEFFFF" transform="matrix(1.00, 0.00, -0.00, -1.00, 237.5, 23.0)">E</text><text xml:space="preserve" font-family="Avenir-Light" font-size="23.4" fill="#FEFFFF" transform="matrix(1.00, 0.00, -0.00, -1.00, 255.1, 23.0)"> </text><text xml:space="preserve" font-family="Avenir-Light" font-size="23.4" fill="#FEFFFF" transform="matrix(1.00, 0.00, -0.00, -1.00, 265.0, 23.0)">O</text><text xml:space="preserve" font-family="Avenir-Light" font-size="23.4" fill="#FEFFFF" transform="matrix(1.00, 0.00, -0.00, -1.00, 288.2, 23.0)">V</text><text xml:space="preserve" font-family="Avenir-Light" font-size="23.4" fill="#FEFFFF" transform="matrix(1.00, 0.00, -0.00, -1.00, 305.8, 23.0)">E</text><text xml:space="preserve" font-family="Avenir-Light" font-size="23.4" fill="#FEFFFF" transform="matrix(1.00, 0.00, -0.00, -1.00, 323.5, 23.0)">R</text><text xml:space="preserve" font-family="Avenir-Light" font-size="23.4" fill="#FEFFFF" transform="matrix(1.00, 0.00, -0.00, -1.00, 341.1, 23.0)">L</text><text xml:space="preserve" font-family="Avenir-Light" font-size="23.4" fill="#FEFFFF" transform="matrix(1.00, 0.00, -0.00, -1.00, 356.5, 23.0)">O</text><text xml:space="preserve" font-family="Avenir-Light" font-size="23.4" fill="#FEFFFF" transform="matrix(1.00, 0.00, -0.00, -1.00, 379.8, 23.0)">O</text><text xml:space="preserve" font-family="Avenir-Light" font-size="23.4" fill="#FEFFFF" transform="matrix(1.00, 0.00, -0.00, -1.00, 403.0, 23.0)">K</text><text xml:space="preserve" font-family="Avenir-Light" font-size="23.4" fill="#FEFFFF" transform="matrix(1.00, 0.00, -0.00, -1.00, 421.1, 23.0)">I</text><text xml:space="preserve" font-family="Avenir-Light" font-size="23.4" fill="#FEFFFF" transform="matrix(1.00, 0.00, -0.00, -1.00, 430.9, 23.0)">N</text><text xml:space="preserve" font-family="Avenir-Light" font-size="23.4" fill="#FEFFFF" transform="matrix(1.00, 0.00, -0.00, -1.00, 452.9, 23.0)">G</text><text xml:space="preserve" font-family="Avenir-Light" font-size="23.4" fill="#FEFFFF" transform="matrix(1.00, 0.00, -0.00, -1.00, 474.8, 23.0)"> </text><text xml:space="preserve" font-family="Avenir-Light" font-size="23.4" fill="#FEFFFF" transform="matrix(1.00, 0.00, -0.00, -1.00, 484.6, 23.0)">C</text><text xml:space="preserve" font-family="Avenir-Light" font-size="23.4" fill="#FEFFFF" transform="matrix(1.00, 0.00, -0.00, -1.00, 504.9, 23.0)">A</text><text xml:space="preserve" font-family="Avenir-Light" font-size="23.4" fill="#FEFFFF" transform="matrix(1.00, 0.00, -0.00, -1.00, 524.6, 23.0)">R</text><text xml:space="preserve" font-family="Avenir-Light" font-size="23.4" fill="#FEFFFF" transform="matrix(1.00, 0.00, -0.00, -1.00, 542.3, 23.0)">C</text><text xml:space="preserve" font-family="Avenir-Light" font-size="23.4" fill="#FEFFFF" transform="matrix(1.00, 0.00, -0.00, -1.00, 562.5, 23.0)">R</text><text xml:space="preserve" font-family="Avenir-Light" font-size="23.4" fill="#FEFFFF" transform="matrix(1.00, 0.00, -0.00, -1.00, 580.1, 23.0)">O</text><text xml:space="preserve" font-family="Avenir-Light" font-size="23.4" fill="#FEFFFF" transform="matrix(1.00, 0.00, -0.00, -1.00, 603.4, 23.0)">S</text><text xml:space="preserve" font-family="Avenir-Light" font-size="23.4" fill="#FEFFFF" transform="matrix(1.00, 0.00, -0.00, -1.00, 620.1, 23.0)">S</text><text xml:space="preserve" font-family="Avenir-Light" font-size="23.4" fill="#FEFFFF" transform="matrix(1.00, 0.00, -0.00, -1.00, 636.9, 23.0)"> </text><text xml:space="preserve" font-family="Avenir-Light" font-size="23.4" fill="#FEFFFF" transform="matrix(1.00, 0.00, -0.00, -1.00, 646.7, 23.0)">Y</text><text xml:space="preserve" font-family="Avenir-Light" font-size="23.4" fill="#FEFFFF" transform="matrix(1.00, 0.00, -0.00, -1.00, 663.9, 23.0)">T</text><text xml:space="preserve" font-family="Avenir-Light" font-size="23.4" fill="#FEFFFF" transform="matrix(1.00, 0.00, -0.00, -1.00, 678.4, 23.0)">,</text><text xml:space="preserve" font-family="Avenir-Light" font-size="23.4" fill="#FEFFFF" transform="matrix(1.00, 0.00, -0.00, -1.00, 688.3, 23.0)"> </text><text xml:space="preserve" font-family="Avenir-Light" font-size="23.4" fill="#FEFFFF" transform="matrix(1.00, 0.00, -0.00, -1.00, 698.1, 23.0)">D</text><text xml:space="preserve" font-family="Avenir-Light" font-size="23.4" fill="#FEFFFF" transform="matrix(1.00, 0.00, -0.00, -1.00, 719.2, 23.0)">A</text><text xml:space="preserve" font-family="Avenir-Light" font-size="23.4" fill="#FEFFFF" transform="matrix(1.00, 0.00, -0.00, -1.00, 737.2, 23.0)">Y</text><text xml:space="preserve" font-family="Avenir-Light" font-size="23.4" fill="#FEFFFF" transform="matrix(1.00, 0.00, -0.00, -1.00, 754.4, 23.0)"> </text><text xml:space="preserve" font-family="Avenir-Light" font-size="23.4" fill="#FEFFFF" transform="matrix(1.00, 0.00, -0.00, -1.00, 764.2, 23.0)">5</text><text xml:space="preserve" font-family="Avenir-Light" font-size="23.4" fill="#FEFFFF" transform="matrix(1.00, 0.00, -0.00, -1.00, 780.1, 23.0)"> </text><text xml:space="preserve" font-family="Avenir-Light" font-size="23.4" fill="#FEFFFF" transform="matrix(1.00, 0.00, -0.00, -1.00, 790.0, 23.0)">(</text><text xml:space="preserve" font-family="Avenir-Light" font-size="23.4" fill="#FEFFFF" transform="matrix(1.00, 0.00, -0.00, -1.00, 799.8, 23.0)">1</text><text xml:space="preserve" font-family="Avenir-Light" font-size="23.4" fill="#FEFFFF" transform="matrix(1.00, 0.00, -0.00, -1.00, 815.7, 23.0)">4</text><text xml:space="preserve" font-family="Avenir-Light" font-size="23.4" fill="#FEFFFF" transform="matrix(1.00, 0.00, -0.00, -1.00, 831.6, 23.0)">7</text><text xml:space="preserve" font-family="Avenir-Light" font-size="23.4" fill="#FEFFFF" transform="matrix(1.00, 0.00, -0.00, -1.00, 847.5, 23.0)"> </text><text xml:space="preserve" font-family="Avenir-Light" font-size="23.4" fill="#FEFFFF" transform="matrix(1.00, 0.00, -0.00, -1.00, 857.4, 23.0)">K</text><text xml:space="preserve" font-family="Avenir-Light" font-size="23.4" fill="#FEFFFF" transform="matrix(1.00, 0.00, -0.00, -1.00, 875.4, 23.0)">M</text><text xml:space="preserve" font-family="Avenir-Light" font-size="23.4" fill="#FEFFFF" transform="matrix(1.00, 0.00, -0.00, -1.00, 899.9, 23.0)">)</text></g></svg>