<?xml version="1.0" encoding="UTF-8"?><svg xmlns="http://www.w3.org/2000/svg" xmlns:xlink="http://www.w3.org/1999/xlink" clip-rule="evenodd" stroke-miterlimit="4.00" viewBox="0 0 1024 768"><desc>SVG generated by Keynote</desc><defs></defs><g transform="matrix(1.00, 0.00, -0.00, -1.00, 0.0, 768.0)"><path d="M 0.0 768.0 L 1024.0 768.0 L 1024.0 0.0 L 0.0 0.0 Z M 0.0 768.0 " fill="#000000"></path><text xml:space="preserve" font-family="Avenir-Light" font-size="23.0" fill="#55D6FF" transform="matrix(1.00, 0.00, -0.00, -1.00, 391.0, 19.0)">–</text><text xml:space="preserve" font-family="Avenir-Light" font-size="23.0" fill="#55D6FF" transform="matrix(1.00, 0.00, -0.00, -1.00, 406.2, 19.0)">P</text><text xml:space="preserve" font-family="Avenir-Light" font-size="23.0" fill="#55D6FF" transform="matrix(1.00, 0.00, -0.00, -1.00, 423.1, 19.0)">H</text><text xml:space="preserve" font-family="Avenir-Light" font-size="23.0" fill="#55D6FF" transform="matrix(1.00, 0.00, -0.00, -1.00, 443.3, 19.0)">I</text><text xml:space="preserve" font-family="Avenir-Light" font-size="23.0" fill="#55D6FF" transform="matrix(1.00, 0.00, -0.00, -1.00, 453.0, 19.0)">L</text><text xml:space="preserve" font-family="Avenir-Light" font-size="23.0" fill="#55D6FF" transform="matrix(1.00, 0.00, -0.00, -1.00, 468.2, 19.0)">I</text><text xml:space="preserve" font-family="Avenir-Light" font-size="23.0" fill="#55D6FF" transform="matrix(1.00, 0.00, -0.00, -1.00, 477.8, 19.0)">P</text><text xml:space="preserve" font-family="Avenir-Light" font-size="23.0" fill="#55D6FF" transform="matrix(1.00, 0.00, -0.00, -1.00, 494.7, 19.0)"> </text><text xml:space="preserve" font-family="Avenir-Light" font-size="23.0" fill="#55D6FF" transform="matrix(1.00, 0.00, -0.00, -1.00, 504.4, 19.0)">P</text><text xml:space="preserve" font-family="Avenir-Light" font-size="23.0" fill="#55D6FF" transform="matrix(1.00, 0.00, -0.00, -1.00, 521.3, 19.0)">U</text><text xml:space="preserve" font-family="Avenir-Light" font-size="23.0" fill="#55D6FF" transform="matrix(1.00, 0.00, -0.00, -1.00, 540.7, 19.0)">L</text><text xml:space="preserve" font-family="Avenir-Light" font-size="23.0" fill="#55D6FF" transform="matrix(1.00, 0.00, -0.00, -1.00, 555.9, 19.0)">L</text><text xml:space="preserve" font-family="Avenir-Light" font-size="23.0" fill="#55D6FF" transform="matrix(1.00, 0.00, -0.00, -1.00, 571.0, 19.0)">M</text><text xml:space="preserve" font-family="Avenir-Light" font-size="23.0" fill="#55D6FF" transform="matrix(1.00, 0.00, -0.00, -1.00, 595.2, 19.0)">A</text><text xml:space="preserve" font-family="Avenir-Light" font-size="23.0" fill="#55D6FF" transform="matrix(1.00, 0.00, -0.00, -1.00, 614.6, 19.0)">N</text><text xml:space="preserve" font-family="Avenir-Light" font-size="29.0" fill="#FEFFFE" transform="matrix(1.00, 0.00, -0.00, -1.00, 18.0, 61.0)">“</text><text xml:space="preserve" font-family="Avenir-Light" font-size="29.0" fill="#FEFFFE" transform="matrix(1.00, 0.00, -0.00, -1.00, 33.1, 61.0)">A</text><text xml:space="preserve" font-family="Avenir-Light" font-size="29.0" fill="#FEFFFE" transform="matrix(1.00, 0.00, -0.00, -1.00, 52.9, 61.0)">s</text><text xml:space="preserve" font-family="Avenir-Light" font-size="29.0" fill="#FEFFFE" transform="matrix(1.00, 0.00, -0.00, -1.00, 65.3, 61.0)"> </text><text xml:space="preserve" font-family="Avenir-Light" font-size="29.0" fill="#FEFFFE" transform="matrix(1.00, 0.00, -0.00, -1.00, 72.8, 61.0)">i</text><text xml:space="preserve" font-family="Avenir-Light" font-size="29.0" fill="#FEFFFE" transform="matrix(1.00, 0.00, -0.00, -1.00, 79.8, 61.0)">f</text><text xml:space="preserve" font-family="Avenir-Light" font-size="29.0" fill="#FEFFFE" transform="matrix(1.00, 0.00, -0.00, -1.00, 88.4, 61.0)"> </text><text xml:space="preserve" font-family="Avenir-Light" font-size="29.0" fill="#FEFFFE" transform="matrix(1.00, 0.00, -0.00, -1.00, 95.9, 61.0)">f</text><text xml:space="preserve" font-family="Avenir-Light" font-size="29.0" fill="#FEFFFE" transform="matrix(1.00, 0.00, -0.00, -1.00, 104.5, 61.0)">r</text><text xml:space="preserve" font-family="Avenir-Light" font-size="29.0" fill="#FEFFFE" transform="matrix(1.00, 0.00, -0.00, -1.00, 113.6, 61.0)">o</text><text xml:space="preserve" font-family="Avenir-Light" font-size="29.0" fill="#FEFFFE" transform="matrix(1.00, 0.00, -0.00, -1.00, 130.9, 61.0)">m</text><text xml:space="preserve" font-family="Avenir-Light" font-size="29.0" fill="#FEFFFE" transform="matrix(1.00, 0.00, -0.00, -1.00, 155.6, 61.0)"> </text><text xml:space="preserve" font-family="Avenir-Light" font-size="29.0" fill="#FEFFFE" transform="matrix(1.00, 0.00, -0.00, -1.00, 163.1, 61.0)">H</text><text xml:space="preserve" font-family="Avenir-Light" font-size="29.0" fill="#FEFFFE" transform="matrix(1.00, 0.00, -0.00, -1.00, 184.1, 61.0)">e</text><text xml:space="preserve" font-family="Avenir-Light" font-size="29.0" fill="#FEFFFE" transform="matrix(1.00, 0.00, -0.00, -1.00, 200.2, 61.0)">a</text><text xml:space="preserve" font-family="Avenir-Light" font-size="29.0" fill="#FEFFFE" transform="matrix(1.00, 0.00, -0.00, -1.00, 215.2, 61.0)">v</text><text xml:space="preserve" font-family="Avenir-Light" font-size="29.0" fill="#FEFFFE" transform="matrix(1.00, 0.00, -0.00, -1.00, 228.7, 61.0)">e</text><text xml:space="preserve" font-family="Avenir-Light" font-size="29.0" fill="#FEFFFE" transform="matrix(1.00, 0.00, -0.00, -1.00, 244.8, 61.0)">n</text><text xml:space="preserve" font-family="Avenir-Light" font-size="29.0" fill="#FEFFFE" transform="matrix(1.00, 0.00, -0.00, -1.00, 260.9, 61.0)"> </text><text xml:space="preserve" font-family="Avenir-Light" font-size="29.0" fill="#FEFFFE" transform="matrix(1.00, 0.00, -0.00, -1.00, 268.4, 61.0)">i</text><text xml:space="preserve" font-family="Avenir-Light" font-size="29.0" fill="#FEFFFE" transform="matrix(1.00, 0.00, -0.00, -1.00, 275.4, 61.0)">t</text><text xml:space="preserve" font-family="Avenir-Light" font-size="29.0" fill="#FEFFFE" transform="matrix(1.00, 0.00, -0.00, -1.00, 285.1, 61.0)">s</text><text xml:space="preserve" font-family="Avenir-Light" font-size="29.0" fill="#FEFFFE" transform="matrix(1.00, 0.00, -0.00, -1.00, 297.4, 61.0)">e</text><text xml:space="preserve" font-family="Avenir-Light" font-size="29.0" fill="#FEFFFE" transform="matrix(1.00, 0.00, -0.00, -1.00, 313.5, 61.0)">l</text><text xml:space="preserve" font-family="Avenir-Light" font-size="29.0" fill="#FEFFFE" transform="matrix(1.00, 0.00, -0.00, -1.00, 320.5, 61.0)">f</text><text xml:space="preserve" font-family="Avenir-Light" font-size="29.0" fill="#FEFFFE" transform="matrix(1.00, 0.00, -0.00, -1.00, 329.1, 61.0)">,</text><text xml:space="preserve" font-family="Avenir-Light" font-size="29.0" fill="#FEFFFE" transform="matrix(1.00, 0.00, -0.00, -1.00, 336.7, 61.0)"> </text><text xml:space="preserve" font-family="Avenir-Light" font-size="29.0" fill="#FEFFFE" transform="matrix(1.00, 0.00, -0.00, -1.00, 344.2, 61.0)">g</text><text xml:space="preserve" font-family="Avenir-Light" font-size="29.0" fill="#FEFFFE" transform="matrix(1.00, 0.00, -0.00, -1.00, 361.9, 61.0)">r</text><text xml:space="preserve" font-family="Avenir-Light" font-size="29.0" fill="#FEFFFE" transform="matrix(1.00, 0.00, -0.00, -1.00, 371.0, 61.0)">e</text><text xml:space="preserve" font-family="Avenir-Light" font-size="29.0" fill="#FEFFFE" transform="matrix(1.00, 0.00, -0.00, -1.00, 387.2, 61.0)">a</text><text xml:space="preserve" font-family="Avenir-Light" font-size="29.0" fill="#FEFFFE" transform="matrix(1.00, 0.00, -0.00, -1.00, 402.2, 61.0)">t</text><text xml:space="preserve" font-family="Avenir-Light" font-size="29.0" fill="#FEFFFE" transform="matrix(1.00, 0.00, -0.00, -1.00, 411.9, 61.0)"> </text><text xml:space="preserve" font-family="Avenir-Light" font-size="29.0" fill="#FEFFFE" transform="matrix(1.00, 0.00, -0.00, -1.00, 419.4, 61.0)">c</text><text xml:space="preserve" font-family="Avenir-Light" font-size="29.0" fill="#FEFFFE" transform="matrix(1.00, 0.00, -0.00, -1.00, 433.4, 61.0)">u</text><text xml:space="preserve" font-family="Avenir-Light" font-size="29.0" fill="#FEFFFE" transform="matrix(1.00, 0.00, -0.00, -1.00, 449.5, 61.0)">r</text><text xml:space="preserve" font-family="Avenir-Light" font-size="29.0" fill="#FEFFFE" transform="matrix(1.00, 0.00, -0.00, -1.00, 459.1, 61.0)">t</text><text xml:space="preserve" font-family="Avenir-Light" font-size="29.0" fill="#FEFFFE" transform="matrix(1.00, 0.00, -0.00, -1.00, 468.8, 61.0)">a</text><text xml:space="preserve" font-family="Avenir-Light" font-size="29.0" fill="#FEFFFE" transform="matrix(1.00, 0.00, -0.00, -1.00, 483.9, 61.0)">i</text><text xml:space="preserve" font-family="Avenir-Light" font-size="29.0" fill="#FEFFFE" transform="matrix(1.00, 0.00, -0.00, -1.00, 490.8, 61.0)">n</text><text xml:space="preserve" font-family="Avenir-Light" font-size="29.0" fill="#FEFFFE" transform="matrix(1.00, 0.00, -0.00, -1.00, 506.9, 61.0)">s</text><text xml:space="preserve" font-family="Avenir-Light" font-size="29.0" fill="#FEFFFE" transform="matrix(1.00, 0.00, -0.00, -1.00, 519.3, 61.0)"> </text><text xml:space="preserve" font-family="Avenir-Light" font-size="29.0" fill="#FEFFFE" transform="matrix(1.00, 0.00, -0.00, -1.00, 526.8, 61.0)">o</text><text xml:space="preserve" font-family="Avenir-Light" font-size="29.0" fill="#FEFFFE" transform="matrix(1.00, 0.00, -0.00, -1.00, 544.1, 61.0)">f</text><text xml:space="preserve" font-family="Avenir-Light" font-size="29.0" fill="#FEFFFE" transform="matrix(1.00, 0.00, -0.00, -1.00, 552.6, 61.0)"> </text><text xml:space="preserve" font-family="Avenir-Light" font-size="29.0" fill="#FEFFFE" transform="matrix(1.00, 0.00, -0.00, -1.00, 560.2, 61.0)">d</text><text xml:space="preserve" font-family="Avenir-Light" font-size="29.0" fill="#FEFFFE" transform="matrix(1.00, 0.00, -0.00, -1.00, 577.9, 61.0)">e</text><text xml:space="preserve" font-family="Avenir-Light" font-size="29.0" fill="#FEFFFE" transform="matrix(1.00, 0.00, -0.00, -1.00, 594.0, 61.0)">l</text><text xml:space="preserve" font-family="Avenir-Light" font-size="29.0" fill="#FEFFFE" transform="matrix(1.00, 0.00, -0.00, -1.00, 601.0, 61.0)">i</text><text xml:space="preserve" font-family="Avenir-Light" font-size="29.0" fill="#FEFFFE" transform="matrix(1.00, 0.00, -0.00, -1.00, 608.0, 61.0)">c</text><text xml:space="preserve" font-family="Avenir-Light" font-size="29.0" fill="#FEFFFE" transform="matrix(1.00, 0.00, -0.00, -1.00, 621.9, 61.0)">a</text><text xml:space="preserve" font-family="Avenir-Light" font-size="29.0" fill="#FEFFFE" transform="matrix(1.00, 0.00, -0.00, -1.00, 637.0, 61.0)">t</text><text xml:space="preserve" font-family="Avenir-Light" font-size="29.0" fill="#FEFFFE" transform="matrix(1.00, 0.00, -0.00, -1.00, 646.6, 61.0)">e</text><text xml:space="preserve" font-family="Avenir-Light" font-size="29.0" fill="#FEFFFE" transform="matrix(1.00, 0.00, -0.00, -1.00, 662.8, 61.0)"> </text><text xml:space="preserve" font-family="Avenir-Light" font-size="29.0" fill="#FEFFFE" transform="matrix(1.00, 0.00, -0.00, -1.00, 670.3, 61.0)">l</text><text xml:space="preserve" font-family="Avenir-Light" font-size="29.0" fill="#FEFFFE" transform="matrix(1.00, 0.00, -0.00, -1.00, 677.3, 61.0)">i</text><text xml:space="preserve" font-family="Avenir-Light" font-size="29.0" fill="#FEFFFE" transform="matrix(1.00, 0.00, -0.00, -1.00, 684.2, 61.0)">g</text><text xml:space="preserve" font-family="Avenir-Light" font-size="29.0" fill="#FEFFFE" transform="matrix(1.00, 0.00, -0.00, -1.00, 702.0, 61.0)">h</text><text xml:space="preserve" font-family="Avenir-Light" font-size="29.0" fill="#FEFFFE" transform="matrix(1.00, 0.00, -0.00, -1.00, 718.1, 61.0)">t</text><text xml:space="preserve" font-family="Avenir-Light" font-size="29.0" fill="#FEFFFE" transform="matrix(1.00, 0.00, -0.00, -1.00, 727.7, 61.0)"> </text><text xml:space="preserve" font-family="Avenir-Light" font-size="29.0" fill="#FEFFFE" transform="matrix(1.00, 0.00, -0.00, -1.00, 735.3, 61.0)">h</text><text xml:space="preserve" font-family="Avenir-Light" font-size="29.0" fill="#FEFFFE" transform="matrix(1.00, 0.00, -0.00, -1.00, 751.4, 61.0)">u</text><text xml:space="preserve" font-family="Avenir-Light" font-size="29.0" fill="#FEFFFE" transform="matrix(1.00, 0.00, -0.00, -1.00, 767.5, 61.0)">n</text><text xml:space="preserve" font-family="Avenir-Light" font-size="29.0" fill="#FEFFFE" transform="matrix(1.00, 0.00, -0.00, -1.00, 783.7, 61.0)">g</text><text xml:space="preserve" font-family="Avenir-Light" font-size="29.0" fill="#FEFFFE" transform="matrix(1.00, 0.00, -0.00, -1.00, 801.4, 61.0)"> </text><text xml:space="preserve" font-family="Avenir-Light" font-size="29.0" fill="#FEFFFE" transform="matrix(1.00, 0.00, -0.00, -1.00, 808.9, 61.0)">a</text><text xml:space="preserve" font-family="Avenir-Light" font-size="29.0" fill="#FEFFFE" transform="matrix(1.00, 0.00, -0.00, -1.00, 824.0, 61.0)">n</text><text xml:space="preserve" font-family="Avenir-Light" font-size="29.0" fill="#FEFFFE" transform="matrix(1.00, 0.00, -0.00, -1.00, 840.1, 61.0)">d</text><text xml:space="preserve" font-family="Avenir-Light" font-size="29.0" fill="#FEFFFE" transform="matrix(1.00, 0.00, -0.00, -1.00, 857.8, 61.0)"> </text><text xml:space="preserve" font-family="Avenir-Light" font-size="29.0" fill="#FEFFFE" transform="matrix(1.00, 0.00, -0.00, -1.00, 865.4, 61.0)">t</text><text xml:space="preserve" font-family="Avenir-Light" font-size="29.0" fill="#FEFFFE" transform="matrix(1.00, 0.00, -0.00, -1.00, 875.0, 61.0)">r</text><text xml:space="preserve" font-family="Avenir-Light" font-size="29.0" fill="#FEFFFE" transform="matrix(1.00, 0.00, -0.00, -1.00, 884.1, 61.0)">e</text><text xml:space="preserve" font-family="Avenir-Light" font-size="29.0" fill="#FEFFFE" transform="matrix(1.00, 0.00, -0.00, -1.00, 900.3, 61.0)">m</text><text xml:space="preserve" font-family="Avenir-Light" font-size="29.0" fill="#FEFFFE" transform="matrix(1.00, 0.00, -0.00, -1.00, 925.0, 61.0)">b</text><text xml:space="preserve" font-family="Avenir-Light" font-size="29.0" fill="#FEFFFE" transform="matrix(1.00, 0.00, -0.00, -1.00, 942.7, 61.0)">l</text><text xml:space="preserve" font-family="Avenir-Light" font-size="29.0" fill="#FEFFFE" transform="matrix(1.00, 0.00, -0.00, -1.00, 949.7, 61.0)">e</text><text xml:space="preserve" font-family="Avenir-Light" font-size="29.0" fill="#FEFFFE" transform="matrix(1.00, 0.00, -0.00, -1.00, 965.8, 61.0)">d</text><text xml:space="preserve" font-family="Avenir-Light" font-size="29.0" fill="#FEFFFE" transform="matrix(1.00, 0.00, -0.00, -1.00, 983.5, 61.0)">.</text><text xml:space="preserve" font-family="Avenir-Light" font-size="29.0" fill="#FEFFFE" transform="matrix(1.00, 0.00, -0.00, -1.00, 991.0, 61.0)">”</text><text xml:space="preserve" font-family="Avenir-Light" font-size="30.0" fill="#FEFFFE" transform="matrix(1.00, 0.00, -0.00, -1.00, 1006.1, 61.0)"> </text><g><clipPath id="clip-307"><path d="M 0.0 770.0 L 1024.0 770.0 L 1024.0 89.0 L 0.0 89.0 Z M 0.0 769.7 "></path></clipPath><g clip-path="url(#clip-307)"><image xlink:href="../../7C357235-44EE-4C65-81DD-8E4BFF121989/assets/F067AB2A5323BC42B0FF5B7FEEA6B1C2.jpeg" width="1024.00" height="680.00" transform="matrix(1.00, 0.00, -0.00, -1.00, 0.0, 770.0)"></image></g></g></g></svg>