<?xml version="1.0" encoding="UTF-8"?><svg xmlns="http://www.w3.org/2000/svg" xmlns:xlink="http://www.w3.org/1999/xlink" clip-rule="evenodd" stroke-miterlimit="4.00" viewBox="0 0 1024 768"><desc>SVG generated by Keynote</desc><defs></defs><g transform="matrix(1.00, 0.00, -0.00, -1.00, 0.0, 768.0)"><path d="M 0.0 768.0 L 1024.0 768.0 L 1024.0 0.0 L 0.0 0.0 Z M 0.0 768.0 " fill="#000000"></path><g><clipPath id="clip-209"><path d="M 512.0 384.0 L 1024.0 384.0 L 1024.0 0.0 L 512.0 0.0 Z M 512.0 383.8 "></path></clipPath><g clip-path="url(#clip-209)"><image xlink:href="../../62F1105D-D5F9-4BD0-8557-A3561886BB13/assets/9B1407A462E1ECE93C50F79C2F99BEBE.jpeg" width="578.00" height="384.00" transform="matrix(1.00, 0.00, -0.00, -1.00, 479.0, 384.0)"></image></g></g><g><clipPath id="clip-210"><path d="M 512.0 384.0 L 1024.0 384.0 L 1024.0 768.0 L 512.0 768.0 Z M 512.0 384.0 "></path></clipPath><g clip-path="url(#clip-210)"><image xlink:href="../../62F1105D-D5F9-4BD0-8557-A3561886BB13/assets/975AC83D25831C47056EC0F45D19495B.jpeg" width="578.00" height="385.00" transform="matrix(1.00, 0.00, -0.00, -1.00, 479.0, 768.0)"></image></g></g><g><clipPath id="clip-211"><path d="M 0.0 0.0 L 512.0 0.0 L 512.0 768.0 L 0.0 768.0 Z M 0.0 0.0 "></path></clipPath><g clip-path="url(#clip-211)"><image xlink:href="../../62F1105D-D5F9-4BD0-8557-A3561886BB13/assets/43947B8C4F4B7947F2C18A953ED1C681.jpeg" width="1156.00" height="769.00" transform="matrix(1.00, 0.00, -0.00, -1.00, -454.0, 768.0)"></image></g></g><text xml:space="preserve" font-family="Avenir-Light" font-size="23.4" fill="#FEFFFF" transform="matrix(1.00, 0.00, -0.00, -1.00, 95.0, 23.0)">H</text><text xml:space="preserve" font-family="Avenir-Light" font-size="23.4" fill="#FEFFFF" transform="matrix(1.00, 0.00, -0.00, -1.00, 115.6, 23.0)">A</text><text xml:space="preserve" font-family="Avenir-Light" font-size="23.4" fill="#FEFFFF" transform="matrix(1.00, 0.00, -0.00, -1.00, 135.4, 23.0)">I</text><text xml:space="preserve" font-family="Avenir-Light" font-size="23.4" fill="#FEFFFF" transform="matrix(1.00, 0.00, -0.00, -1.00, 145.2, 23.0)">N</text><text xml:space="preserve" font-family="Avenir-Light" font-size="23.4" fill="#FEFFFF" transform="matrix(1.00, 0.00, -0.00, -1.00, 167.2, 23.0)">E</text><text xml:space="preserve" font-family="Avenir-Light" font-size="23.4" fill="#FEFFFF" transform="matrix(1.00, 0.00, -0.00, -1.00, 184.8, 23.0)">S</text><text xml:space="preserve" font-family="Avenir-Light" font-size="23.4" fill="#FEFFFF" transform="matrix(1.00, 0.00, -0.00, -1.00, 201.6, 23.0)"> </text><text xml:space="preserve" font-family="Avenir-Light" font-size="23.4" fill="#FEFFFF" transform="matrix(1.00, 0.00, -0.00, -1.00, 211.4, 23.0)">J</text><text xml:space="preserve" font-family="Avenir-Light" font-size="23.4" fill="#FEFFFF" transform="matrix(1.00, 0.00, -0.00, -1.00, 226.4, 23.0)">U</text><text xml:space="preserve" font-family="Avenir-Light" font-size="23.4" fill="#FEFFFF" transform="matrix(1.00, 0.00, -0.00, -1.00, 246.2, 23.0)">N</text><text xml:space="preserve" font-family="Avenir-Light" font-size="23.4" fill="#FEFFFF" transform="matrix(1.00, 0.00, -0.00, -1.00, 268.1, 23.0)">C</text><text xml:space="preserve" font-family="Avenir-Light" font-size="23.4" fill="#FEFFFF" transform="matrix(1.00, 0.00, -0.00, -1.00, 288.3, 23.0)">T</text><text xml:space="preserve" font-family="Avenir-Light" font-size="23.4" fill="#FEFFFF" transform="matrix(1.00, 0.00, -0.00, -1.00, 305.5, 23.0)">I</text><text xml:space="preserve" font-family="Avenir-Light" font-size="23.4" fill="#FEFFFF" transform="matrix(1.00, 0.00, -0.00, -1.00, 315.3, 23.0)">O</text><text xml:space="preserve" font-family="Avenir-Light" font-size="23.4" fill="#FEFFFF" transform="matrix(1.00, 0.00, -0.00, -1.00, 338.6, 23.0)">N</text><text xml:space="preserve" font-family="Avenir-Light" font-size="23.4" fill="#FEFFFF" transform="matrix(1.00, 0.00, -0.00, -1.00, 360.5, 23.0)">,</text><text xml:space="preserve" font-family="Avenir-Light" font-size="23.4" fill="#FEFFFF" transform="matrix(1.00, 0.00, -0.00, -1.00, 370.4, 23.0)"> </text><text xml:space="preserve" font-family="Avenir-Light" font-size="23.4" fill="#FEFFFF" transform="matrix(1.00, 0.00, -0.00, -1.00, 380.2, 23.0)">Y</text><text xml:space="preserve" font-family="Avenir-Light" font-size="23.4" fill="#FEFFFF" transform="matrix(1.00, 0.00, -0.00, -1.00, 397.4, 23.0)">T</text></g></svg>