<?xml version="1.0" encoding="UTF-8" standalone="yes"?>
<!DOCTYPE svg PUBLIC "-//W3C//DTD SVG 1.0//EN" "http://www.w3.org/TR/2001/REC-SVG-20010904/DTD/svg10.dtd">
<svg width="1800" height="1800" xmlns="http://www.w3.org/2000/svg" style="background-color:black">
<path d="M 900.000000 850.000000 L 900.000000 138.023810" stroke="white" stroke-width="6" fill="transparent"/>
<path d="M 900.000000 843.666667 L 900.000000 336.785714" stroke="fuchsia" stroke-width="3" fill="transparent"/>
<path d="M 900.000000 336.595238 L 900.000000 245.619048" stroke="blue" stroke-width="3" fill="transparent"/>
<path d="M 900.000000 245.404762 L 900.000000 225.714286" stroke="fuchsia" stroke-width="3" fill="transparent"/>
<path d="M 900.000000 225.119048 L 900.000000 219.714286" stroke="blue" stroke-width="3" fill="transparent"/>
<path d="M 900.000000 218.500000 L 900.000000 202.595238" stroke="fuchsia" stroke-width="3" fill="transparent"/>
<path d="M 900.000000 202.333333 L 900.000000 197.928571" stroke="blue" stroke-width="3" fill="transparent"/>
<path d="M 900.000000 197.761905 L 900.000000 189.071429" stroke="fuchsia" stroke-width="3" fill="transparent"/>
<path d="M 900.000000 185.857143 L 900.000000 177.166667" stroke="blue" stroke-width="3" fill="transparent"/>
<path d="M 900.000000 176.809524 L 900.000000 146.833333" stroke="fuchsia" stroke-width="3" fill="transparent"/>
<path d="M 900.000000 146.238095 L 900.000000 143.476190" stroke="blue" stroke-width="3" fill="transparent"/>
<text font-size="2.5em" x="905.000000" y="133.023810" fill="white">SARS-CoV-2</text>
<path d="M 950.000000 950.000000 L 1558.456799 1325.642745" stroke="white" stroke-width="6" fill="transparent"/>
<path d="M 955.145940 953.176947 L 1385.358710 1218.777243" stroke="fuchsia" stroke-width="3" fill="transparent"/>
<path d="M 1384.183653 1218.051799 L 1466.457920 1268.845432" stroke="blue" stroke-width="3" fill="transparent"/>
<path d="M 1466.761814 1269.033047 L 1473.062552 1272.922931" stroke="fuchsia" stroke-width="3" fill="transparent"/>
<path d="M 1473.244889 1273.035500 L 1479.910300 1277.150522" stroke="blue" stroke-width="3" fill="transparent"/>
<path d="M 1478.127454 1276.049848 L 1492.998006 1285.230475" stroke="fuchsia" stroke-width="3" fill="transparent"/>
<path d="M 1493.261381 1285.393075 L 1506.916357 1293.823242" stroke="blue" stroke-width="3" fill="transparent"/>
<path d="M 1508.456087 1294.773824 L 1513.480470 1297.875726" stroke="fuchsia" stroke-width="3" fill="transparent"/>
<path d="M 1513.784364 1298.063341 L 1527.135445 1306.305893" stroke="blue" stroke-width="3" fill="transparent"/>
<path d="M 1528.229464 1306.981307 L 1553.371637 1322.503321" stroke="fuchsia" stroke-width="3" fill="transparent"/>
<text font-size="2.5em" x="1563.456799" y="1330.642745" fill="white">MERS-CoV</text>
<path d="M 850.000000 950.000000 L 247.256411 1322.115583" stroke="white" stroke-width="6" fill="transparent"/>
<path d="M 844.631204 953.314532 L 414.722328 1218.727213" stroke="fuchsia" stroke-width="3" fill="transparent"/>
<path d="M 414.580511 1218.814766 L 338.262568 1265.931146" stroke="blue" stroke-width="3" fill="transparent"/>
<path d="M 338.080232 1266.043715 L 321.386315 1276.350032" stroke="fuchsia" stroke-width="3" fill="transparent"/>
<path d="M 329.550937 1271.309442 L 320.150479 1277.112999" stroke="blue" stroke-width="3" fill="transparent"/>
<path d="M 320.879825 1276.662723 L 316.220115 1279.539487" stroke="fuchsia" stroke-width="3" fill="transparent"/>
<path d="M 315.186875 1280.177378 L 301.714236 1288.494976" stroke="blue" stroke-width="3" fill="transparent"/>
<path d="M 301.491380 1288.632560 L 297.621795 1291.021524" stroke="fuchsia" stroke-width="3" fill="transparent"/>
<path d="M 297.459718 1291.121586 L 290.004183 1295.724407" stroke="blue" stroke-width="3" fill="transparent"/>
<path d="M 290.064962 1295.686884 L 287.350174 1297.362911" stroke="fuchsia" stroke-width="3" fill="transparent"/>
<path d="M 287.208357 1297.450465 L 284.797464 1298.938877" stroke="blue" stroke-width="3" fill="transparent"/>
<path d="M 285.486290 1298.513617 L 280.340350 1301.690564" stroke="fuchsia" stroke-width="3" fill="transparent"/>
<path d="M 280.299831 1301.715579 L 254.610648 1317.575300" stroke="blue" stroke-width="3" fill="transparent"/>
<path d="M 280.097235 1301.840656 L 274.100391 1305.542925" stroke="fuchsia" stroke-width="3" fill="transparent"/>
<text font-size="2.5em" x="47.256411" y="1327.115583" fill="white">SARS-CoV</text>
<path d="M 905.000000 803.452381 L 905.000000 803.761905 Q 991.147263 859.308960 991.147263 970.403070 L 991.410638 970.565670 Q 991.410638 859.156811 905.000000 803.452381" stroke="#238b45" stroke-width="0.5" fill="#238b45" fill-opacity="0.900000"/>
<path d="M 905.000000 763.595238 L 905.000000 764.023810 Q 1028.080528 840.417388 1028.080528 993.204546 L 1028.445201 993.429684 Q 1028.445201 840.206720 905.000000 763.595238" stroke="#41ae76" stroke-width="0.5" fill="#41ae76" fill-opacity="0.900000"/>
<path d="M 905.000000 668.285714 L 905.000000 668.809524 Q 1102.048356 792.163028 1102.048356 1038.870036 L 1102.494067 1039.145205 Q 1102.494067 791.905545 905.000000 668.285714" stroke="#238b45" stroke-width="0.5" fill="#238b45" fill-opacity="0.900000"/>
<path d="M 905.000000 659.380952 L 905.000000 659.619048 Q 1114.183861 788.533408 1114.183861 1046.362129 L 1114.386457 1046.487205 Q 1114.386457 788.416370 905.000000 659.380952" stroke="#005824" stroke-width="0.5" fill="#005824" fill-opacity="0.900000"/>
<path d="M 905.000000 658.238095 L 905.000000 658.833333 Q 1110.780247 787.309169 1110.780247 1044.260841 L 1111.286737 1044.573532 Q 1111.286737 787.016574 905.000000 658.238095" stroke="#41ae76" stroke-width="0.5" fill="#41ae76" fill-opacity="0.900000"/>
<path d="M 905.000000 653.261905 L 905.000000 653.619048 Q 1115.277880 784.758546 1115.277880 1047.037542 L 1115.581774 1047.225157 Q 1115.581774 784.582989 905.000000 653.261905" stroke="#41ae76" stroke-width="0.5" fill="#41ae76" fill-opacity="0.900000"/>
<path d="M 905.000000 620.928571 L 905.000000 621.380952 Q 1143.317177 769.036686 1143.317177 1064.348153 L 1143.702109 1064.585798 Q 1143.702109 768.814314 905.000000 620.928571" stroke="#238b45" stroke-width="0.5" fill="#238b45" fill-opacity="0.900000"/>
<path d="M 905.000000 608.285714 L 905.000000 611.833333 Q 1151.441280 764.343465 1151.441280 1069.363727 L 1154.459961 1071.227369 Q 1154.459961 762.599599 905.000000 608.285714" stroke="#66c2a4" stroke-width="0.5" fill="#66c2a4" fill-opacity="0.900000"/>
<path d="M 905.000000 606.714286 L 905.000000 606.952381 Q 1155.594499 761.944187 1155.594499 1071.927799 L 1155.797095 1072.052875 Q 1155.797095 761.827149 905.000000 606.714286" stroke="#005824" stroke-width="0.5" fill="#005824" fill-opacity="0.900000"/>
<path d="M 905.000000 604.238095 L 905.000000 604.452381 Q 1185.315344 766.393769 1185.315344 1090.276545 L 1185.497680 1090.389114 Q 1185.497680 766.288435 905.000000 604.238095" stroke="#005824" stroke-width="0.5" fill="#005824" fill-opacity="0.900000"/>
<path d="M 905.000000 602.047619 L 905.000000 602.523810 Q 1159.545123 759.804804 1159.545123 1074.366794 L 1159.950315 1074.616947 Q 1159.950315 759.570728 905.000000 602.047619" stroke="#41ae76" stroke-width="0.5" fill="#41ae76" fill-opacity="0.900000"/>
<path d="M 905.000000 599.952381 L 905.000000 601.047619 Q 1160.801218 759.079169 1160.801218 1075.142269 L 1161.733160 1075.717622 Q 1161.733160 758.540794 905.000000 599.952381" stroke="#41ae76" stroke-width="0.5" fill="#41ae76" fill-opacity="0.900000"/>
<path d="M 905.000000 598.761905 L 905.000000 599.333333 Q 1162.259910 758.236496 1162.259910 1076.042821 L 1162.746141 1076.343005 Q 1162.746141 757.955605 905.000000 598.761905" stroke="#41ae76" stroke-width="0.5" fill="#41ae76" fill-opacity="0.900000"/>
<path d="M 905.000000 595.642857 L 905.000000 596.238095 Q 1164.893659 756.715003 1164.893659 1077.668818 L 1165.400149 1077.981509 Q 1165.400149 756.422408 905.000000 595.642857" stroke="#41ae76" stroke-width="0.5" fill="#41ae76" fill-opacity="0.900000"/>
<path d="M 905.000000 589.690476 L 905.000000 590.095238 Q 1169.938301 753.657901 1169.938301 1080.783226 L 1170.282715 1080.995857 Q 1170.282715 753.458936 905.000000 589.690476" stroke="#238b45" stroke-width="0.5" fill="#238b45" fill-opacity="0.900000"/>
<path d="M 905.000000 570.738095 L 905.000000 571.095238 Q 1186.227026 744.343289 1186.227026 1090.839390 L 1186.530920 1091.027005 Q 1186.530920 744.167732 905.000000 570.738095" stroke="#41ae76" stroke-width="0.5" fill="#41ae76" fill-opacity="0.900000"/>
<path d="M 905.000000 567.357143 L 905.000000 569.023810 Q 1187.989612 743.325059 1187.989612 1091.927557 L 1189.407785 1092.803094 Q 1189.407785 742.505793 905.000000 567.357143" stroke="#66c2a4" stroke-width="0.5" fill="#66c2a4" fill-opacity="0.900000"/>
<path d="M 905.000000 555.690476 L 905.000000 558.095238 Q 1197.349551 737.965525 1197.349551 1097.706099 L 1199.395771 1098.969373 Q 1199.395771 736.783442 905.000000 555.690476" stroke="#66c2a4" stroke-width="0.5" fill="#66c2a4" fill-opacity="0.900000"/>
<path d="M 905.000000 552.642857 L 905.000000 552.976190 Q 1200.692386 735.240748 1200.692386 1099.769864 L 1200.955761 1099.932464 Q 1200.955761 735.072726 905.000000 552.642857" stroke="#005824" stroke-width="0.5" fill="#005824" fill-opacity="0.900000"/>
<path d="M 905.000000 548.976190 L 905.000000 549.380952 Q 1204.703788 733.669429 1204.703788 1102.246382 L 1205.048202 1102.459012 Q 1205.048202 733.470464 905.000000 548.976190" stroke="#41ae76" stroke-width="0.5" fill="#41ae76" fill-opacity="0.900000"/>
<path d="M 905.000000 547.761905 L 905.000000 548.500000 Q 1205.514173 733.248896 1205.514173 1102.746689 L 1206.142220 1103.134426 Q 1206.142220 732.886079 905.000000 547.761905" stroke="#41ae76" stroke-width="0.5" fill="#41ae76" fill-opacity="0.900000"/>
<path d="M 905.000000 536.761905 L 905.000000 537.095238 Q 1215.036188 727.605256 1215.036188 1108.625292 L 1215.319823 1108.800399 Q 1215.319823 727.441403 905.000000 536.761905" stroke="#005824" stroke-width="0.5" fill="#005824" fill-opacity="0.900000"/>
<path d="M 905.000000 533.928571 L 905.000000 535.380952 Q 1216.494880 726.762583 1216.494880 1109.525844 L 1217.730716 1110.288811 Q 1217.730716 726.048651 905.000000 533.928571" stroke="#66c2a4" stroke-width="0.5" fill="#66c2a4" fill-opacity="0.900000"/>
<path d="M 905.000000 532.761905 L 905.000000 533.238095 Q 1218.318245 725.709241 1218.318245 1110.651534 L 1218.723437 1110.901687 Q 1218.723437 725.475166 905.000000 532.761905" stroke="#41ae76" stroke-width="0.5" fill="#41ae76" fill-opacity="0.900000"/>
<path d="M 905.000000 532.047619 L 905.000000 532.404762 Q 1219.027331 725.299609 1219.027331 1111.089302 L 1219.331225 1111.276917 Q 1219.331225 725.124052 905.000000 532.047619" stroke="#238b45" stroke-width="0.5" fill="#238b45" fill-opacity="0.900000"/>
<path d="M 905.000000 527.238095 L 905.000000 528.047619 Q 1222.795618 723.170322 1222.795618 1113.415728 L 1223.484445 1113.840989 Q 1223.484445 722.772393 905.000000 527.238095" stroke="#41ae76" stroke-width="0.5" fill="#41ae76" fill-opacity="0.900000"/>
<path d="M 905.000000 524.571429 L 905.000000 525.047619 Q 1225.469886 721.720659 1225.469886 1115.066740 L 1225.875078 1115.316893 Q 1225.875078 721.486584 905.000000 524.571429" stroke="#41ae76" stroke-width="0.5" fill="#41ae76" fill-opacity="0.900000"/>
<path d="M 905.000000 520.357143 L 905.000000 521.785714 Q 1228.245453 720.117240 1228.245453 1116.780290 L 1229.461029 1117.530750 Q 1229.461029 719.415012 905.000000 520.357143" stroke="#66c2a4" stroke-width="0.5" fill="#66c2a4" fill-opacity="0.900000"/>
<path d="M 905.000000 517.904762 L 905.000000 518.500000 Q 1230.980500 718.489608 1230.980500 1118.468825 L 1231.507249 1118.794025 Q 1231.507249 718.201183 905.000000 517.904762" stroke="#41ae76" stroke-width="0.5" fill="#41ae76" fill-opacity="0.900000"/>
<path d="M 905.000000 518.190476 L 905.000000 518.476190 Q 1234.282816 719.153319 1234.282816 1120.507575 L 1234.525931 1120.657667 Q 1234.525931 719.012873 905.000000 518.190476" stroke="#005824" stroke-width="0.5" fill="#005824" fill-opacity="0.900000"/>
<path d="M 905.000000 514.142857 L 905.000000 517.404762 Q 1231.932701 717.955403 1231.932701 1119.056686 L 1234.688008 1120.757728 Q 1234.688008 716.347814 905.000000 514.142857" stroke="#66c2a4" stroke-width="0.5" fill="#66c2a4" fill-opacity="0.900000"/>
<path d="M 905.000000 423.166667 L 905.000000 509.952381 Q 1238.253699 714.287946 1238.253699 1122.959078 L 1312.099969 1168.549522 Q 1312.099969 671.627618 905.000000 423.166667" stroke="#66c2a4" stroke-width="0.5" fill="#66c2a4" fill-opacity="0.900000"/>
<path d="M 905.000000 419.738095 L 905.000000 420.285714 Q 1314.369045 670.173936 1314.369045 1169.950380 L 1314.835016 1170.238057 Q 1314.835016 669.904749 905.000000 419.738095" stroke="#41ae76" stroke-width="0.5" fill="#41ae76" fill-opacity="0.900000"/>
<path d="M 905.000000 418.380952 L 905.000000 418.904762 Q 1315.544102 669.495116 1315.544102 1170.675825 L 1315.989814 1170.950994 Q 1315.989814 669.237633 905.000000 418.380952" stroke="#41ae76" stroke-width="0.5" fill="#41ae76" fill-opacity="0.900000"/>
<path d="M 905.000000 412.047619 L 905.000000 415.714286 Q 1318.258890 667.926808 1318.258890 1172.351852 L 1321.378869 1174.278033 Q 1321.378869 666.124424 905.000000 412.047619" stroke="#66c2a4" stroke-width="0.5" fill="#66c2a4" fill-opacity="0.900000"/>
<path d="M 905.000000 409.571429 L 905.000000 410.119048 Q 1323.019897 665.176416 1323.019897 1175.291154 L 1323.485868 1175.578830 Q 1323.485868 664.907229 905.000000 409.571429" stroke="#41ae76" stroke-width="0.5" fill="#41ae76" fill-opacity="0.900000"/>
<path d="M 905.000000 406.642857 L 905.000000 407.261905 Q 1325.451050 663.771961 1325.451050 1176.792074 L 1325.977800 1177.117273 Q 1325.977800 663.467662 905.000000 406.642857" stroke="#41ae76" stroke-width="0.5" fill="#41ae76" fill-opacity="0.900000"/>
<path d="M 905.000000 402.761905 L 905.000000 404.595238 Q 1327.720126 662.461136 1327.720126 1178.192932 L 1329.280116 1179.156023 Q 1329.280116 661.559944 905.000000 402.761905" stroke="#66c2a4" stroke-width="0.5" fill="#66c2a4" fill-opacity="0.900000"/>
<path d="M 905.000000 400.428571 L 905.000000 401.071429 Q 1330.718548 660.728975 1330.718548 1180.044067 L 1331.265558 1180.381774 Q 1331.265558 660.412972 905.000000 400.428571" stroke="#41ae76" stroke-width="0.5" fill="#41ae76" fill-opacity="0.900000"/>
<path d="M 905.000000 396.476190 L 905.000000 396.833333 Q 1334.324759 658.645699 1334.324759 1182.270432 L 1334.628653 1182.458047 Q 1334.628653 658.470143 905.000000 396.476190" stroke="#41ae76" stroke-width="0.5" fill="#41ae76" fill-opacity="0.900000"/>
<path d="M 905.000000 395.166667 L 905.000000 395.428571 Q 1335.520075 657.955176 1335.520075 1183.008384 L 1335.742931 1183.145968 Q 1335.742931 657.826434 905.000000 395.166667" stroke="#005824" stroke-width="0.5" fill="#005824" fill-opacity="0.900000"/>
<path d="M 905.000000 381.976190 L 905.000000 393.261905 Q 1337.120584 656.840100 1337.120584 1183.996490 L 1346.804677 1189.975154 Q 1346.804677 651.309178 905.000000 381.976190" stroke="#66c2a4" stroke-width="0.5" fill="#66c2a4" fill-opacity="0.900000"/>
<path d="M 905.000000 381.238095 L 905.000000 381.523810 Q 1347.169350 651.082637 1347.169350 1190.200292 L 1347.412465 1190.350384 Q 1347.412465 650.942192 905.000000 381.238095" stroke="#238b45" stroke-width="0.5" fill="#238b45" fill-opacity="0.900000"/>
<path d="M 905.000000 378.523810 L 905.000000 379.880952 Q 1348.567263 650.275075 1348.567263 1191.063321 L 1349.722060 1191.776258 Q 1349.722060 649.607959 905.000000 378.523810" stroke="#66c2a4" stroke-width="0.5" fill="#66c2a4" fill-opacity="0.900000"/>
<path d="M 905.000000 375.571429 L 905.000000 375.952381 Q 1351.910098 648.343949 1351.910098 1193.127086 L 1352.234252 1193.327209 Q 1352.234252 648.156689 905.000000 375.571429" stroke="#238b45" stroke-width="0.5" fill="#238b45" fill-opacity="0.900000"/>
<path d="M 905.000000 358.380952 L 905.000000 362.119048 Q 1363.498594 641.506522 1363.498594 1200.281471 L 1366.679352 1202.245175 Q 1366.679352 639.669027 905.000000 358.380952" stroke="#66c2a4" stroke-width="0.5" fill="#66c2a4" fill-opacity="0.900000"/>
<path d="M 905.000000 343.523810 L 905.000000 355.190476 Q 1369.394140 638.100718 1369.394140 1203.921202 L 1379.321347 1210.049959 Q 1379.321347 632.365859 905.000000 343.523810" stroke="#66c2a4" stroke-width="0.5" fill="#66c2a4" fill-opacity="0.900000"/>
<path d="M 905.000000 341.500000 L 905.000000 342.547619 Q 1380.151991 631.886004 1380.151991 1210.562773 L 1381.043414 1211.113110 Q 1381.043414 631.371037 905.000000 341.500000" stroke="#41ae76" stroke-width="0.5" fill="#41ae76" fill-opacity="0.900000"/>
<path d="M 905.000000 336.809524 L 905.000000 337.452381 Q 1384.487547 629.381392 1384.487547 1213.239414 L 1385.034557 1213.577121 Q 1385.034557 629.065389 905.000000 336.809524" stroke="#238b45" stroke-width="0.5" fill="#238b45" fill-opacity="0.900000"/>
<path d="M 905.000000 280.357143 L 905.000000 280.809524 Q 1176.036443 548.722361 1176.036443 1084.548034 L 1175.651511 1084.310388 Q 1175.651511 548.341558 905.000000 280.357143" stroke="#cb181d" stroke-width="0.5" fill="#cb181d" fill-opacity="0.900000"/>
<path d="M 905.000000 270.333333 L 905.000000 272.119048 Q 1443.544304 597.979119 1443.544304 1249.699261 L 1445.063774 1250.637336 Q 1445.063774 597.101334 905.000000 270.333333" stroke="#66c2a4" stroke-width="0.5" fill="#66c2a4" fill-opacity="0.900000"/>
<path d="M 905.000000 270.428571 L 905.000000 270.833333 Q 1167.628706 540.341340 1167.628706 1079.357352 L 1167.284293 1079.144722 Q 1167.284293 540.000622 905.000000 270.428571" stroke="#ef3b2c" stroke-width="0.5" fill="#ef3b2c" fill-opacity="0.900000"/>
<path d="M 905.000000 268.190476 L 905.000000 268.928571 Q 1446.259091 596.410810 1446.259091 1251.375288 L 1446.887139 1251.763026 Q 1446.887139 596.047993 905.000000 268.190476" stroke="#66c2a4" stroke-width="0.5" fill="#66c2a4" fill-opacity="0.900000"/>
<path d="M 905.000000 267.071429 L 905.000000 267.404762 Q 1447.555706 595.661768 1447.555706 1252.175779 L 1447.839341 1252.350886 Q 1447.839341 595.497915 905.000000 267.071429" stroke="#238b45" stroke-width="0.5" fill="#238b45" fill-opacity="0.900000"/>
<path d="M 905.000000 248.952381 L 905.000000 250.166667 Q 1462.770672 587.300790 1462.770672 1261.569037 L 1463.803912 1262.206928 Q 1463.803912 586.703896 905.000000 248.952381" stroke="#238b45" stroke-width="0.5" fill="#238b45" fill-opacity="0.900000"/>
<path d="M 905.000000 210.190476 L 905.000000 210.738095 Q 1520.328217 572.859836 1520.328217 1297.103317 L 1520.794188 1297.390993 Q 1520.794188 572.590649 905.000000 210.190476" stroke="#238b45" stroke-width="0.5" fill="#238b45" fill-opacity="0.900000"/>
<path d="M 905.000000 172.571429 L 905.000000 173.619048 Q 1530.397242 550.185907 1530.397242 1303.319627 L 1531.288665 1303.869964 Q 1531.288665 549.670941 905.000000 172.571429" stroke="#41ae76" stroke-width="0.5" fill="#41ae76" fill-opacity="0.900000"/>
<path d="M 905.000000 168.357143 L 905.000000 169.333333 Q 1533.983193 548.066717 1533.983193 1305.533484 L 1534.813837 1306.046298 Q 1534.813837 547.586861 905.000000 168.357143" stroke="#41ae76" stroke-width="0.5" fill="#41ae76" fill-opacity="0.900000"/>
<path d="M 905.000000 168.309524 L 905.000000 168.523810 Q 1080.249018 454.153135 1080.249018 1025.411787 L 1080.066682 1025.299218 Q 1080.066682 453.972755 905.000000 168.309524" stroke="#99000d" stroke-width="0.5" fill="#99000d" fill-opacity="0.900000"/>
<path d="M 905.000000 158.809524 L 905.000000 159.285714 Q 1542.654305 543.152731 1542.654305 1310.886765 L 1543.059497 1311.136919 Q 1543.059497 542.918655 905.000000 158.809524" stroke="#238b45" stroke-width="0.5" fill="#238b45" fill-opacity="0.900000"/>
<path d="M 905.000000 155.071429 L 905.000000 155.404762 Q 1545.956621 541.245013 1545.956621 1312.925515 L 1546.240255 1313.100622 Q 1546.240255 541.081160 905.000000 155.071429" stroke="#238b45" stroke-width="0.5" fill="#238b45" fill-opacity="0.900000"/>
<path d="M 905.000000 144.761905 L 905.000000 145.214286 Q 1554.708771 536.252466 1554.708771 1318.328827 L 1555.093704 1318.566472 Q 1555.093704 536.030094 905.000000 144.761905" stroke="#41ae76" stroke-width="0.5" fill="#41ae76" fill-opacity="0.900000"/>
<path d="M 895.000000 774.833333 L 895.000000 849.238095 Q 849.716365 881.217099 849.716365 945.175107 L 786.263274 984.349118 Q 786.263274 844.671928 895.000000 774.833333" stroke="#66c2a4" stroke-width="0.5" fill="#66c2a4" fill-opacity="0.900000"/>
<path d="M 895.000000 761.119048 L 895.000000 770.309524 Q 783.872640 842.148024 783.872640 985.825023 L 776.052432 990.652982 Q 776.052432 837.630359 895.000000 761.119048" stroke="#66c2a4" stroke-width="0.5" fill="#66c2a4" fill-opacity="0.900000"/>
<path d="M 895.000000 754.571429 L 895.000000 755.809524 Q 771.656097 834.995398 771.656097 993.367146 L 770.602597 994.017545 Q 770.602597 834.386801 895.000000 754.571429" stroke="#41ae76" stroke-width="0.5" fill="#41ae76" fill-opacity="0.900000"/>
<path d="M 895.000000 336.357143 L 895.000000 752.285714 Q 768.657675 833.263236 768.657675 995.218281 L 414.702068 1213.739720 Q 414.702068 628.818002 895.000000 336.357143" stroke="#41ae76" stroke-width="0.5" fill="#41ae76" fill-opacity="0.900000"/>
<path d="M 895.000000 556.619048 L 895.000000 556.904762 Q 604.109141 736.871690 604.109141 1096.805547 L 603.866026 1096.955639 Q 603.866026 736.731245 895.000000 556.619048" stroke="#238b45" stroke-width="0.5" fill="#238b45" fill-opacity="0.900000"/>
<path d="M 895.000000 333.428571 L 895.000000 334.095238 Q 412.534290 627.756172 412.534290 1215.078041 L 411.967021 1215.428255 Q 411.967021 627.428466 895.000000 333.428571" stroke="#66c2a4" stroke-width="0.5" fill="#66c2a4" fill-opacity="0.900000"/>
<path d="M 895.000000 331.785714 L 895.000000 333.142857 Q 411.723906 627.288021 411.723906 1215.578347 L 410.569108 1216.291284 Q 410.569108 626.620904 895.000000 331.785714" stroke="#66c2a4" stroke-width="0.5" fill="#66c2a4" fill-opacity="0.900000"/>
<path d="M 895.000000 327.500000 L 895.000000 331.047619 Q 410.366512 626.170533 410.366512 1216.416361 L 407.347831 1218.280003 Q 407.347831 624.426668 895.000000 327.500000" stroke="#66c2a4" stroke-width="0.5" fill="#66c2a4" fill-opacity="0.900000"/>
<path d="M 895.000000 324.095238 L 895.000000 324.904762 Q 405.382649 623.100924 405.382649 1219.493247 L 404.673563 1219.931015 Q 404.673563 622.707164 895.000000 324.095238" stroke="#41ae76" stroke-width="0.5" fill="#41ae76" fill-opacity="0.900000"/>
<path d="M 895.000000 322.428571 L 895.000000 323.523810 Q 404.207592 622.422104 404.207592 1220.218691 L 403.275650 1220.794044 Q 403.275650 621.883729 895.000000 322.428571" stroke="#41ae76" stroke-width="0.5" fill="#41ae76" fill-opacity="0.900000"/>
<path d="M 895.000000 321.119048 L 895.000000 321.738095 Q 402.688121 621.544319 402.688121 1221.156766 L 402.161371 1221.481966 Q 402.161371 621.240020 895.000000 321.119048" stroke="#41ae76" stroke-width="0.5" fill="#41ae76" fill-opacity="0.900000"/>
<path d="M 895.000000 319.857143 L 895.000000 320.095238 Q 401.290208 620.736757 401.290208 1222.019795 L 401.087612 1222.144872 Q 401.087612 620.619719 895.000000 319.857143" stroke="#005824" stroke-width="0.5" fill="#005824" fill-opacity="0.900000"/>
<path d="M 895.000000 317.404762 L 895.000000 317.952381 Q 399.831516 619.608370 399.831516 1222.920347 L 399.365545 1223.208024 Q 399.365545 619.339183 895.000000 317.404762" stroke="#41ae76" stroke-width="0.5" fill="#41ae76" fill-opacity="0.900000"/>
<path d="M 895.000000 315.833333 L 895.000000 316.738095 Q 398.798276 619.011476 398.798276 1223.558238 L 398.028411 1224.033530 Q 398.028411 618.566732 895.000000 315.833333" stroke="#41ae76" stroke-width="0.5" fill="#41ae76" fill-opacity="0.900000"/>
<path d="M 895.000000 138.404762 L 895.000000 313.357143 Q 395.921412 617.349538 395.921412 1225.334327 L 247.722381 1316.827907 Q 247.722381 531.212477 895.000000 138.404762" stroke="#41ae76" stroke-width="0.5" fill="#41ae76" fill-opacity="0.900000"/>
<path d="M 895.000000 201.761905 L 895.000000 201.976190 Q 300.620217 562.707590 300.620217 1284.170390 L 300.437881 1284.282959 Q 300.437881 562.602256 895.000000 201.761905" stroke="#005824" stroke-width="0.5" fill="#005824" fill-opacity="0.900000"/>
<path d="M 895.000000 186.190476 L 895.000000 186.476190 Q 287.532511 555.067574 287.532511 1292.250342 L 287.289395 1292.400434 Q 287.289395 554.927129 895.000000 186.190476" stroke="#238b45" stroke-width="0.5" fill="#238b45" fill-opacity="0.900000"/>
<path d="M 951.175057 955.725445 L 950.425452 955.262661 Q 900.000000 969.814863 849.574548 955.262661 L 848.824943 955.725445 Q 900.000000 970.677954 951.175057 955.725445" stroke="#66c2a4" stroke-width="0.5" fill="#66c2a4" fill-opacity="0.900000"/>
<path d="M 954.639450 957.864256 L 954.396335 957.714164 Q 900.384933 974.386915 846.373530 957.238872 L 846.130415 957.388964 Q 900.384933 974.666837 954.639450 957.864256" stroke="#005824" stroke-width="0.5" fill="#005824" fill-opacity="0.900000"/>
<path d="M 954.659710 957.876763 L 954.436854 957.739179 Q 900.000000 974.433569 845.563146 957.739179 L 845.340290 957.876763 Q 900.000000 974.690164 954.659710 957.876763" stroke="#005824" stroke-width="0.5" fill="#005824" fill-opacity="0.900000"/>
<path d="M 1025.548077 1001.641088 L 1024.616135 1001.065735 Q 903.302316 1055.237596 781.988497 996.988236 L 781.056555 997.563589 Q 903.302316 1056.310629 1025.548077 1001.641088" stroke="#41ae76" stroke-width="0.5" fill="#41ae76" fill-opacity="0.900000"/>
<path d="M 1030.673758 1004.805528 L 1030.045710 1004.417790 Q 903.312446 1061.489178 776.579182 1000.327783 L 775.930874 1000.728028 Q 903.312446 1062.212309 1030.673758 1004.805528" stroke="#238b45" stroke-width="0.5" fill="#238b45" fill-opacity="0.900000"/>
<path d="M 1040.661745 1010.971807 L 1040.479408 1010.859238 Q 902.238687 1073.502479 763.997965 1008.095044 L 763.815629 1008.207613 Q 902.238687 1073.712420 1040.661745 1010.971807" stroke="#005824" stroke-width="0.5" fill="#005824" fill-opacity="0.900000"/>
<path d="M 1042.667446 1012.210066 L 1042.485109 1012.097497 Q 899.797404 1076.278368 757.109699 1012.347650 L 756.927362 1012.460219 Q 899.797404 1076.488309 1042.667446 1012.210066" stroke="#005824" stroke-width="0.5" fill="#005824" fill-opacity="0.900000"/>
<path d="M 1050.163501 1016.837903 L 1049.920385 1016.687811 Q 902.309595 1084.372767 754.698805 1013.836063 L 754.455690 1013.986155 Q 902.309595 1084.652689 1050.163501 1016.837903" stroke="#238b45" stroke-width="0.5" fill="#238b45" fill-opacity="0.900000"/>
<path d="M 1076.966962 1033.385545 L 1076.784625 1033.272976 Q 902.724917 1115.304101 728.665209 1029.908414 L 728.482873 1030.020983 Q 902.724917 1115.514042 1076.966962 1033.385545" stroke="#005824" stroke-width="0.5" fill="#005824" fill-opacity="0.900000"/>
<path d="M 1102.554846 1049.182728 L 1102.048356 1048.870036 Q 899.807534 1144.835827 697.566711 1049.107682 L 697.060221 1049.420374 Q 899.807534 1145.418997 1102.554846 1049.182728" stroke="#41ae76" stroke-width="0.5" fill="#41ae76" fill-opacity="0.900000"/>
<path d="M 1112.259198 1055.173900 L 1112.036343 1055.036316 Q 900.020260 1155.892729 688.004177 1055.011301 L 687.781321 1055.148885 Q 900.020260 1156.149324 1112.259198 1055.173900" stroke="#005824" stroke-width="0.5" fill="#005824" fill-opacity="0.900000"/>
<path d="M 1117.384879 1058.338340 L 1117.121504 1058.175740 Q 899.959481 1161.841063 682.797457 1058.225771 L 682.534083 1058.388370 Q 899.959481 1162.144311 1117.384879 1058.338340" stroke="#238b45" stroke-width="0.5" fill="#238b45" fill-opacity="0.900000"/>
<path d="M 1130.290249 1066.305723 L 1130.026874 1066.143124 Q 900.232985 1176.606926 670.439097 1065.855447 L 670.175722 1066.018047 Q 900.232985 1176.910174 1130.290249 1066.305723" stroke="#238b45" stroke-width="0.5" fill="#238b45" fill-opacity="0.900000"/>
<path d="M 1131.850239 1067.268814 L 1131.080374 1066.793522 Q 900.232985 1177.819919 669.385597 1066.505846 L 668.615732 1066.981137 Q 900.232985 1178.706337 1131.850239 1067.268814" stroke="#66c2a4" stroke-width="0.5" fill="#66c2a4" fill-opacity="0.900000"/>
<path d="M 1141.655889 1073.322524 L 1141.412774 1073.172432 Q 900.415322 1189.716586 659.417870 1072.659618 L 659.174755 1072.809710 Q 900.415322 1189.996508 1141.655889 1073.322524" stroke="#005824" stroke-width="0.5" fill="#005824" fill-opacity="0.900000"/>
<path d="M 1143.702109 1074.585798 L 1143.317177 1074.348153 Q 900.263375 1191.909305 657.209573 1074.022953 L 656.824640 1074.260599 Q 900.263375 1192.352514 1143.702109 1074.585798" stroke="#238b45" stroke-width="0.5" fill="#238b45" fill-opacity="0.900000"/>
<path d="M 1149.678694 1078.275560 L 1149.314021 1078.050422 Q 900.263375 1198.814037 651.212729 1077.725223 L 650.848056 1077.950361 Q 900.263375 1199.233919 1149.678694 1078.275560" stroke="#41ae76" stroke-width="0.5" fill="#41ae76" fill-opacity="0.900000"/>
<path d="M 1150.387780 1078.713328 L 1150.185184 1078.588252 Q 900.263375 1199.817089 650.341566 1078.263052 L 650.138970 1078.388129 Q 900.263375 1200.050357 1150.387780 1078.713328" stroke="#005824" stroke-width="0.5" fill="#005824" fill-opacity="0.900000"/>
<path d="M 1151.846472 1079.613880 L 1151.441280 1079.363727 Q 900.263375 1201.263351 649.085470 1079.038528 L 648.680278 1079.288681 Q 900.263375 1201.729887 1151.846472 1079.613880" stroke="#238b45" stroke-width="0.5" fill="#238b45" fill-opacity="0.900000"/>
<path d="M 1155.148788 1081.652630 L 1154.014250 1080.952201 Q 900.263375 1204.225854 646.512500 1080.627001 L 645.377962 1081.327431 Q 900.263375 1205.532155 1155.148788 1081.652630" stroke="#66c2a4" stroke-width="0.5" fill="#66c2a4" fill-opacity="0.900000"/>
<path d="M 1157.701498 1083.228596 L 1157.113970 1082.865874 Q 900.344413 1207.794854 643.574857 1082.440613 L 643.007588 1082.790828 Q 900.344413 1208.471331 1157.701498 1083.228596" stroke="#41ae76" stroke-width="0.5" fill="#41ae76" fill-opacity="0.900000"/>
<path d="M 1159.950315 1084.616947 L 1159.626161 1084.416824 Q 900.354543 1210.687377 641.082925 1083.979056 L 640.758771 1084.179179 Q 900.354543 1211.060606 1159.950315 1084.616947" stroke="#238b45" stroke-width="0.5" fill="#238b45" fill-opacity="0.900000"/>
<path d="M 1161.733160 1085.717622 L 1160.882257 1085.192300 Q 900.354543 1212.133639 639.826829 1084.754531 L 638.975926 1085.279853 Q 900.354543 1213.113364 1161.733160 1085.717622" stroke="#41ae76" stroke-width="0.5" fill="#41ae76" fill-opacity="0.900000"/>
<path d="M 1162.806920 1086.380528 L 1162.259910 1086.042821 Q 900.354543 1213.719861 638.449176 1085.605053 L 637.902167 1085.942760 Q 900.354543 1214.349684 1162.806920 1086.380528" stroke="#41ae76" stroke-width="0.5" fill="#41ae76" fill-opacity="0.900000"/>
<path d="M 1170.262455 1090.983349 L 1169.512850 1090.520565 Q 900.263375 1222.070855 631.013900 1090.195366 L 630.264295 1090.658150 Q 900.263375 1222.933946 1170.262455 1090.983349" stroke="#41ae76" stroke-width="0.5" fill="#41ae76" fill-opacity="0.900000"/>
<path d="M 1186.368843 1100.926944 L 1185.740796 1100.539206 Q 900.324154 1240.755620 614.907512 1100.138961 L 614.279464 1100.526699 Q 900.324154 1241.478750 1186.368843 1100.926944" stroke="#41ae76" stroke-width="0.5" fill="#41ae76" fill-opacity="0.900000"/>
<path d="M 1189.954794 1103.140801 L 1187.685718 1101.739942 Q 900.324154 1242.994992 612.962590 1101.339697 L 610.693514 1102.740556 Q 900.324154 1245.607594 1189.954794 1103.140801" stroke="#66c2a4" stroke-width="0.5" fill="#66c2a4" fill-opacity="0.900000"/>
<path d="M 1191.899716 1104.341537 L 1191.332447 1103.991322 Q 900.324154 1247.193816 609.315860 1103.591077 L 608.748591 1103.941291 Q 900.324154 1247.846966 1191.899716 1104.341537" stroke="#41ae76" stroke-width="0.5" fill="#41ae76" fill-opacity="0.900000"/>
<path d="M 1200.226415 1109.482188 L 1197.653445 1107.893714 Q 900.354543 1254.471777 603.055641 1107.455946 L 600.482671 1109.044419 Q 900.354543 1257.434280 1200.226415 1109.482188" stroke="#66c2a4" stroke-width="0.5" fill="#66c2a4" fill-opacity="0.900000"/>
<path d="M 1209.160902 1114.998069 L 1208.917787 1114.847977 Q 900.324154 1267.441476 591.730521 1114.447731 L 591.487405 1114.597823 Q 900.324154 1267.721398 1209.160902 1114.998069" stroke="#238b45" stroke-width="0.5" fill="#238b45" fill-opacity="0.900000"/>
<path d="M 1215.826313 1119.113091 L 1215.623717 1118.988014 Q 903.363095 1275.162646 591.102473 1114.835469 L 590.899877 1114.960546 Q 903.363095 1275.395914 1215.826313 1119.113091" stroke="#005824" stroke-width="0.5" fill="#005824" fill-opacity="0.900000"/>
<path d="M 1215.785794 1119.088076 L 1215.583198 1118.962999 Q 900.263375 1275.115993 584.943552 1118.637800 L 584.740956 1118.762876 Q 900.263375 1275.349261 1215.785794 1119.088076" stroke="#005824" stroke-width="0.5" fill="#005824" fill-opacity="0.900000"/>
<path d="M 1217.305264 1120.026150 L 1216.555659 1119.563367 Q 900.263375 1276.235679 583.971091 1119.238168 L 583.221485 1119.700951 Q 900.263375 1277.098771 1217.305264 1120.026150" stroke="#66c2a4" stroke-width="0.5" fill="#66c2a4" fill-opacity="0.900000"/>
<path d="M 1222.167570 1123.027990 L 1221.924455 1122.877898 Q 902.613489 1282.417281 583.302524 1119.650920 L 583.059409 1119.801012 Q 902.613489 1282.697202 1222.167570 1123.027990" stroke="#238b45" stroke-width="0.5" fill="#238b45" fill-opacity="0.900000"/>
<path d="M 1218.723437 1120.901687 L 1218.318245 1120.651534 Q 900.263375 1278.265111 582.208505 1120.326334 L 581.803313 1120.576488 Q 900.263375 1278.731647 1218.723437 1120.901687" stroke="#41ae76" stroke-width="0.5" fill="#41ae76" fill-opacity="0.900000"/>
<path d="M 1219.331225 1121.276917 L 1219.027331 1121.089302 Q 900.263375 1279.081548 581.499419 1120.764103 L 581.195525 1120.951718 Q 900.263375 1279.431450 1219.331225 1121.276917" stroke="#41ae76" stroke-width="0.5" fill="#41ae76" fill-opacity="0.900000"/>
<path d="M 1223.504704 1123.853496 L 1222.795618 1123.415728 Q 900.293764 1283.420333 577.791911 1123.053006 L 577.082824 1123.490774 Q 900.293764 1284.236771 1223.504704 1123.853496" stroke="#41ae76" stroke-width="0.5" fill="#41ae76" fill-opacity="0.900000"/>
<path d="M 1224.092233 1124.216219 L 1223.768079 1124.016096 Q 900.354543 1284.540019 576.941007 1123.578328 L 576.616853 1123.778450 Q 900.354543 1284.913248 1224.092233 1124.216219" stroke="#41ae76" stroke-width="0.5" fill="#41ae76" fill-opacity="0.900000"/>
<path d="M 1225.935857 1125.354416 L 1225.226771 1124.916648 Q 900.354543 1286.219549 575.482315 1124.478880 L 574.773229 1124.916648 Q 900.354543 1287.035987 1225.935857 1125.354416" stroke="#238b45" stroke-width="0.5" fill="#238b45" fill-opacity="0.900000"/>
<path d="M 1228.792462 1127.117997 L 1228.245453 1126.780290 Q 900.354543 1289.695241 572.463634 1126.342522 L 571.916624 1126.680229 Q 900.354543 1290.325065 1228.792462 1127.117997" stroke="#41ae76" stroke-width="0.5" fill="#41ae76" fill-opacity="0.900000"/>
<path d="M 1233.472431 1130.007268 L 1233.229316 1129.857176 Q 902.572970 1295.433634 571.916624 1126.680229 L 571.673509 1126.830321 Q 902.572970 1295.713555 1233.472431 1130.007268" stroke="#238b45" stroke-width="0.5" fill="#238b45" fill-opacity="0.900000"/>
<path d="M 1230.514529 1128.181149 L 1230.311933 1128.056072 Q 900.324154 1292.074575 570.336375 1127.655827 L 570.133779 1127.780904 Q 900.324154 1292.307843 1230.514529 1128.181149" stroke="#005824" stroke-width="0.5" fill="#005824" fill-opacity="0.900000"/>
<path d="M 1232.722826 1129.544485 L 1231.932701 1129.056686 Q 900.334284 1293.940719 568.735866 1128.643933 L 567.925482 1129.144239 Q 900.334284 1294.850464 1232.722826 1129.544485" stroke="#41ae76" stroke-width="0.5" fill="#41ae76" fill-opacity="0.900000"/>
<path d="M 1234.748787 1130.795251 L 1233.675027 1130.132345 Q 900.324154 1295.946823 566.973280 1129.732100 L 565.899521 1130.395006 Q 900.324154 1297.183144 1234.748787 1130.795251" stroke="#41ae76" stroke-width="0.5" fill="#41ae76" fill-opacity="0.900000"/>
<path d="M 1237.949805 1132.771463 L 1237.139420 1132.271156 Q 900.324154 1299.935706 563.508887 1131.870911 L 562.698503 1132.371217 Q 900.324154 1300.868778 1237.949805 1132.771463" stroke="#41ae76" stroke-width="0.5" fill="#41ae76" fill-opacity="0.900000"/>
<path d="M 1240.461996 1134.322413 L 1238.598112 1133.171708 Q 900.324154 1301.615235 562.050195 1132.771463 L 560.186311 1133.922168 Q 900.324154 1303.761301 1240.461996 1134.322413" stroke="#66c2a4" stroke-width="0.5" fill="#66c2a4" fill-opacity="0.900000"/>
<path d="M 1241.900428 1135.210457 L 1240.927967 1134.610090 Q 900.324154 1304.297817 559.720340 1134.209844 L 558.747879 1134.810212 Q 900.324154 1305.417503 1241.900428 1135.210457" stroke="#66c2a4" stroke-width="0.5" fill="#66c2a4" fill-opacity="0.900000"/>
<path d="M 1244.331581 1136.711377 L 1243.845350 1136.411193 Q 900.324154 1307.656876 556.802957 1136.010948 L 556.316726 1136.311132 Q 900.324154 1308.216719 1244.331581 1136.711377" stroke="#41ae76" stroke-width="0.5" fill="#41ae76" fill-opacity="0.900000"/>
<path d="M 1245.648456 1137.524376 L 1245.405340 1137.374284 Q 900.324154 1309.453039 555.242967 1136.974038 L 554.999852 1137.124130 Q 900.324154 1309.732961 1245.648456 1137.524376" stroke="#238b45" stroke-width="0.5" fill="#238b45" fill-opacity="0.900000"/>
<path d="M 1260.478488 1146.679988 L 1245.851052 1137.649452 Q 900.324154 1309.966229 554.797256 1137.249207 L 540.169819 1146.279742 Q 900.324154 1326.808177 1260.478488 1146.679988" stroke="#66c2a4" stroke-width="0.5" fill="#66c2a4" fill-opacity="0.900000"/>
<path d="M 1263.517430 1148.556138 L 1262.646266 1148.018308 Q 900.324154 1329.304144 538.002041 1147.618063 L 537.130878 1148.155892 Q 900.324154 1330.307197 1263.517430 1148.556138" stroke="#41ae76" stroke-width="0.5" fill="#41ae76" fill-opacity="0.900000"/>
<path d="M 1274.194243 1155.147678 L 1266.779226 1150.569872 Q 900.324154 1334.062811 533.869081 1150.169627 L 526.454065 1154.747432 Q 900.324154 1342.600419 1274.194243 1155.147678" stroke="#66c2a4" stroke-width="0.5" fill="#66c2a4" fill-opacity="0.900000"/>
<path d="M 1276.321502 1156.460983 L 1275.551637 1155.985691 Q 900.324154 1344.163314 525.096671 1155.585446 L 524.326806 1156.060737 Q 900.324154 1345.049733 1276.321502 1156.460983" stroke="#66c2a4" stroke-width="0.5" fill="#66c2a4" fill-opacity="0.900000"/>
<path d="M 1282.075230 1160.013160 L 1277.739674 1157.336519 Q 900.324154 1346.682609 522.908633 1156.936274 L 518.573077 1159.612915 Q 900.324154 1351.674543 1282.075230 1160.013160" stroke="#66c2a4" stroke-width="0.5" fill="#66c2a4" fill-opacity="0.900000"/>
<path d="M 1283.533922 1160.913712 L 1282.642499 1160.363375 Q 900.324154 1352.327694 518.005808 1159.963129 L 517.114385 1160.513467 Q 900.324154 1353.354073 1283.533922 1160.913712" stroke="#41ae76" stroke-width="0.5" fill="#41ae76" fill-opacity="0.900000"/>
<path d="M 1287.119873 1163.127569 L 1284.607681 1161.576618 Q 900.324154 1354.590393 516.040626 1161.176373 L 513.528435 1162.727324 Q 900.324154 1357.482916 1287.119873 1163.127569" stroke="#66c2a4" stroke-width="0.5" fill="#66c2a4" fill-opacity="0.900000"/>
<path d="M 1289.976477 1164.891150 L 1287.950516 1163.640383 Q 900.324154 1358.439315 512.697791 1163.240138 L 510.671830 1164.490905 Q 900.324154 1360.771994 1289.976477 1164.891150" stroke="#66c2a4" stroke-width="0.5" fill="#66c2a4" fill-opacity="0.900000"/>
<path d="M 1290.523487 1165.228857 L 1290.179073 1165.016227 Q 900.324154 1361.005262 510.469234 1164.615981 L 510.124821 1164.828612 Q 900.324154 1361.401818 1290.523487 1165.228857" stroke="#41ae76" stroke-width="0.5" fill="#41ae76" fill-opacity="0.900000"/>
<path d="M 1293.319313 1166.954915 L 1292.752044 1166.604700 Q 900.324154 1363.967766 507.896264 1166.204455 L 507.328995 1166.554669 Q 900.324154 1364.620916 1293.319313 1166.954915" stroke="#41ae76" stroke-width="0.5" fill="#41ae76" fill-opacity="0.900000"/>
<path d="M 1311.026210 1177.886615 L 1294.940081 1167.955528 Q 900.324154 1366.487060 505.708226 1167.555283 L 489.622098 1177.486370 Q 900.324154 1385.008537 1311.026210 1177.886615" stroke="#66c2a4" stroke-width="0.5" fill="#66c2a4" fill-opacity="0.900000"/>
<path d="M 1314.713458 1180.163011 L 1314.369045 1179.950380 Q 900.232985 1388.857459 486.096926 1179.662704 L 485.752513 1179.875334 Q 900.232985 1389.254015 1314.713458 1180.163011" stroke="#238b45" stroke-width="0.5" fill="#238b45" fill-opacity="0.900000"/>
<path d="M 1319.818879 1183.314942 L 1319.373168 1183.039774 Q 900.232985 1394.619178 481.092803 1182.752097 L 480.647092 1183.027266 Q 900.232985 1395.132368 1319.818879 1183.314942" stroke="#41ae76" stroke-width="0.5" fill="#41ae76" fill-opacity="0.900000"/>
<path d="M 1321.277571 1184.215494 L 1320.588745 1183.790234 Q 900.232985 1396.018786 479.877226 1183.502557 L 479.188400 1183.927818 Q 900.232985 1396.811897 1321.277571 1184.215494" stroke="#41ae76" stroke-width="0.5" fill="#41ae76" fill-opacity="0.900000"/>
<path d="M 1323.100936 1185.341184 L 1322.655225 1185.066016 Q 900.232985 1398.398119 477.810746 1184.778339 L 477.365035 1185.053508 Q 900.232985 1398.911309 1323.100936 1185.341184" stroke="#238b45" stroke-width="0.5" fill="#238b45" fill-opacity="0.900000"/>
<path d="M 1325.775204 1186.992196 L 1325.430791 1186.779566 Q 900.232985 1401.593891 475.035180 1186.491890 L 474.690767 1186.704520 Q 900.232985 1401.990446 1325.775204 1186.992196" stroke="#238b45" stroke-width="0.5" fill="#238b45" fill-opacity="0.900000"/>
<path d="M 1329.239597 1189.131007 L 1327.720126 1188.192932 Q 900.232985 1404.229819 472.745845 1187.905256 L 471.226374 1188.843331 Q 900.232985 1405.979329 1329.239597 1189.131007" stroke="#41ae76" stroke-width="0.5" fill="#41ae76" fill-opacity="0.900000"/>
<path d="M 1331.245298 1190.369266 L 1330.434914 1189.868960 Q 900.232985 1407.355610 470.031057 1189.581283 L 469.220673 1190.081590 Q 900.232985 1408.288682 1331.245298 1190.369266" stroke="#41ae76" stroke-width="0.5" fill="#41ae76" fill-opacity="0.900000"/>
<path d="M 1334.648912 1192.470554 L 1334.223461 1192.207893 Q 900.232985 1411.717721 466.242510 1191.920217 L 465.837318 1192.170370 Q 900.232985 1412.207584 1334.648912 1192.470554" stroke="#238b45" stroke-width="0.5" fill="#238b45" fill-opacity="0.900000"/>
<path d="M 1344.333005 1198.449219 L 1337.910709 1194.484289 Q 900.111428 1415.963198 462.312147 1194.346704 L 455.950630 1198.274111 Q 900.111428 1423.357793 1344.333005 1198.449219" stroke="#66c2a4" stroke-width="0.5" fill="#66c2a4" fill-opacity="0.900000"/>
<path d="M 1346.946494 1200.062708 L 1345.204168 1198.987048 Q 900.141817 1424.360845 455.079467 1198.811941 L 453.337140 1199.887600 Q 900.141817 1426.366950 1346.946494 1200.062708" stroke="#66c2a4" stroke-width="0.5" fill="#66c2a4" fill-opacity="0.900000"/>
<path d="M 1349.742320 1201.788766 L 1348.607782 1201.088336 Q 900.141817 1428.279747 451.675852 1200.913229 L 450.541314 1201.613658 Q 900.141817 1429.586048 1349.742320 1201.788766" stroke="#66c2a4" stroke-width="0.5" fill="#66c2a4" fill-opacity="0.900000"/>
<path d="M 1360.439393 1208.392814 L 1359.770826 1207.980061 Q 900.050649 1441.132813 440.330472 1207.917522 L 439.661905 1208.330275 Q 900.050649 1441.902597 1360.439393 1208.392814" stroke="#66c2a4" stroke-width="0.5" fill="#66c2a4" fill-opacity="0.900000"/>
<path d="M 1360.966143 1208.718013 L 1360.763547 1208.592936 Q 900.050649 1442.275826 439.337751 1208.530398 L 439.135155 1208.655475 Q 900.050649 1442.509094 1360.966143 1208.718013" stroke="#005824" stroke-width="0.5" fill="#005824" fill-opacity="0.900000"/>
<path d="M 1365.504295 1211.519730 L 1365.139622 1211.294592 Q 900.050649 1447.314414 434.961676 1211.232054 L 434.597003 1211.457192 Q 900.050649 1447.734297 1365.504295 1211.519730" stroke="#41ae76" stroke-width="0.5" fill="#41ae76" fill-opacity="0.900000"/>
<path d="M 1366.679352 1212.245175 L 1365.990525 1211.819914 Q 900.050649 1448.294140 434.110773 1211.757376 L 433.421946 1212.182637 Q 900.050649 1449.087251 1366.679352 1212.245175" stroke="#238b45" stroke-width="0.5" fill="#238b45" fill-opacity="0.900000"/>
<path d="M 1379.321347 1220.049959 L 1369.394140 1213.921202 Q 900.050649 1452.213042 430.707158 1213.858664 L 420.779951 1219.987420 Q 900.050649 1463.643173 1379.321347 1220.049959" stroke="#66c2a4" stroke-width="0.5" fill="#66c2a4" fill-opacity="0.900000"/>
<path d="M 1380.962376 1221.063080 L 1380.455885 1220.750388 Q 900.050649 1464.949474 419.645413 1220.687850 L 419.138922 1221.000541 Q 900.050649 1465.532644 1380.962376 1221.063080" stroke="#41ae76" stroke-width="0.5" fill="#41ae76" fill-opacity="0.900000"/>
<path d="M 1385.034557 1223.577121 L 1384.467288 1223.226906 Q 900.050649 1469.568180 415.634010 1223.164368 L 415.066741 1223.514582 Q 900.050649 1470.221330 1385.034557 1223.577121" stroke="#41ae76" stroke-width="0.5" fill="#41ae76" fill-opacity="0.900000"/>
<path d="M 1512.649826 1302.362911 L 1512.973980 1302.563034 Q 962.794654 1617.530058 412.615329 1225.028010 L 412.291175 1225.228133 Q 962.794654 1617.156830 1512.649826 1302.362911" stroke="#99000d" stroke-width="0.5" fill="#99000d" fill-opacity="0.900000"/>
<path d="M 1398.122263 1231.657073 L 1397.939927 1231.544504 Q 903.950624 1485.080500 409.961320 1226.666514 L 409.778984 1226.779083 Q 903.950624 1485.290441 1398.122263 1231.657073" stroke="#005824" stroke-width="0.5" fill="#005824" fill-opacity="0.900000"/>
<path d="M 1438.560440 1256.622375 L 1438.195767 1256.397237 Q 902.279206 1531.430847 366.362644 1253.583012 L 365.997971 1253.808150 Q 902.279206 1531.850730 1438.560440 1256.622375" stroke="#41ae76" stroke-width="0.5" fill="#41ae76" fill-opacity="0.900000"/>
<path d="M 1440.424324 1257.773081 L 1440.160949 1257.610481 Q 902.339985 1533.693547 364.519020 1254.721210 L 364.255645 1254.883810 Q 902.339985 1533.996795 1440.424324 1257.773081" stroke="#238b45" stroke-width="0.5" fill="#238b45" fill-opacity="0.900000"/>
<path d="M 1445.509486 1260.912505 L 1445.327149 1260.799936 Q 903.373225 1539.641880 361.419300 1256.634883 L 361.236964 1256.747452 Q 903.373225 1539.851821 1445.509486 1260.912505" stroke="#005824" stroke-width="0.5" fill="#005824" fill-opacity="0.900000"/>
<path d="M 1444.618063 1260.362167 L 1443.564563 1259.711769 Q 902.339985 1537.612449 361.115406 1256.822498 L 360.061906 1257.472897 Q 902.339985 1538.825442 1444.618063 1260.362167" stroke="#66c2a4" stroke-width="0.5" fill="#66c2a4" fill-opacity="0.900000"/>
<path d="M 1447.839341 1262.350886 L 1447.555706 1262.175779 Q 902.339985 1542.207828 357.124263 1259.286508 L 356.840629 1259.461616 Q 902.339985 1542.534403 1447.839341 1262.350886" stroke="#238b45" stroke-width="0.5" fill="#238b45" fill-opacity="0.900000"/>
<path d="M 1459.589913 1269.605333 L 1458.941606 1269.205088 Q 902.613489 1555.317488 346.285373 1265.978110 L 345.637066 1266.378355 Q 902.613489 1556.063946 1459.589913 1269.605333" stroke="#66c2a4" stroke-width="0.5" fill="#66c2a4" fill-opacity="0.900000"/>
<path d="M 1463.722873 1272.156897 L 1462.770672 1271.569037 Q 902.613489 1559.726253 342.456307 1268.342059 L 341.504106 1268.929919 Q 902.613489 1560.822613 1463.722873 1272.156897" stroke="#41ae76" stroke-width="0.5" fill="#41ae76" fill-opacity="0.900000"/>
<path d="M 1530.923992 1313.644826 L 1530.397242 1313.319627 Q 904.122830 1637.591104 277.848418 1308.229007 L 277.321668 1308.554206 Q 904.122830 1638.197601 1530.923992 1313.644826" stroke="#41ae76" stroke-width="0.5" fill="#41ae76" fill-opacity="0.900000"/>
<path d="M 1535.664740 1316.571620 L 1534.003452 1315.545992 Q 904.092441 1641.743274 274.181429 1310.492894 L 272.520141 1311.518523 Q 904.092441 1643.656072 1535.664740 1316.571620" stroke="#66c2a4" stroke-width="0.5" fill="#66c2a4" fill-opacity="0.900000"/>
<path d="M 1543.059497 1321.136919 L 1542.654305 1320.886765 Q 904.153220 1651.703817 265.652134 1315.758622 L 265.246942 1316.008775 Q 904.153220 1652.170353 1543.059497 1321.136919" stroke="#238b45" stroke-width="0.5" fill="#238b45" fill-opacity="0.900000"/>
<path d="M 1546.240255 1323.100622 L 1545.956621 1322.925515 Q 904.153220 1655.506085 262.349818 1317.797372 L 262.066184 1317.972479 Q 904.153220 1655.832660 1546.240255 1323.100622" stroke="#238b45" stroke-width="0.5" fill="#238b45" fill-opacity="0.900000"/>
<path d="M 1549.522312 1325.126864 L 1549.339975 1325.014295 Q 902.441283 1659.401660 255.542590 1321.999948 L 255.360254 1322.112517 Q 902.441283 1659.611602 1549.522312 1325.126864" stroke="#005824" stroke-width="0.5" fill="#005824" fill-opacity="0.900000"/>
<path d="M 1555.093704 1328.566472 L 1554.708771 1328.328827 Q 904.112700 1665.583262 253.516629 1323.250714 L 253.131697 1323.488360 Q 904.112700 1666.026471 1555.093704 1328.566472" stroke="#41ae76" stroke-width="0.5" fill="#41ae76" fill-opacity="0.900000"/>
<text font-size="2.2em" x="1463.456799" y="133.023810" fill="white">Sequence identity (%)</text>
<text font-size="2em" x="1493.456799" y="183.023810" fill="white">Forward | Reverse</text>
<rect x="1578.456799" y="213.023810" width="20" height="20" style="fill:#005824;stroke:white;stroke-width:0.5;fill-opacity:0.9;" />
<text font-size="2em" x="1678.456799" y="233.023810" fill="white">100</text>
<rect x="1628.456799" y="213.023810" width="20" height="20" style="fill:#99000d;stroke:white;stroke-width:0.5;fill-opacity:0.9;" />
<rect x="1578.456799" y="243.023810" width="20" height="20" style="fill:#238b45;stroke:white;stroke-width:0.5;fill-opacity:0.9;" />
<text font-size="2em" x="1678.456799" y="263.023810" fill="white">90+</text>
<rect x="1628.456799" y="243.023810" width="20" height="20" style="fill:#cb181d;stroke:white;stroke-width:0.5;fill-opacity:0.9;" />
<rect x="1578.456799" y="273.023810" width="20" height="20" style="fill:#41ae76;stroke:white;stroke-width:0.5;fill-opacity:0.9;" />
<text font-size="2em" x="1678.456799" y="293.023810" fill="white">80+</text>
<rect x="1628.456799" y="273.023810" width="20" height="20" style="fill:#ef3b2c;stroke:white;stroke-width:0.5;fill-opacity:0.9;" />
<rect x="1578.456799" y="303.023810" width="20" height="20" style="fill:#66c2a4;stroke:white;stroke-width:0.5;fill-opacity:0.9;" />
<text font-size="2em" x="1678.456799" y="323.023810" fill="white">70+</text>
<rect x="1628.456799" y="303.023810" width="20" height="20" style="fill:#fb6a4a;stroke:white;stroke-width:0.5;fill-opacity:0.9;" />
<rect x="1578.456799" y="333.023810" width="20" height="20" style="fill:#99d8c9;stroke:white;stroke-width:0.5;fill-opacity:0.9;" />
<text font-size="2em" x="1678.456799" y="353.023810" fill="white">60+</text>
<rect x="1628.456799" y="333.023810" width="20" height="20" style="fill:#fc9272;stroke:white;stroke-width:0.5;fill-opacity:0.9;" />
<rect x="1578.456799" y="363.023810" width="20" height="20" style="fill:#ccece6;stroke:white;stroke-width:0.5;fill-opacity:0.9;" />
<text font-size="2em" x="1678.456799" y="383.023810" fill="white">50+</text>
<rect x="1628.456799" y="363.023810" width="20" height="20" style="fill:#fcbba1;stroke:white;stroke-width:0.5;fill-opacity:0.9;" />
<rect x="1578.456799" y="393.023810" width="20" height="20" style="fill:#edf8fb;stroke:white;stroke-width:0.5;fill-opacity:0.9;" />
<text font-size="2em" x="1678.456799" y="413.023810" fill="white">0-49</text>
<rect x="1628.456799" y="393.023810" width="20" height="20" style="fill:#fee5d9;stroke:white;stroke-width:0.5;fill-opacity:0.9;" />
<text font-size="2em" x="1463.456799" y="493.023810" fill="white">@WarrenRene 2020 </text>
<text font-size="1.8em" x="1503.456799" y="523.023810" fill="white">xmatchview-hive </text>
</svg>