<?xml version="1.0" encoding="UTF-8" standalone="yes"?>
<!DOCTYPE svg PUBLIC "-//W3C//DTD SVG 1.0//EN" "http://www.w3.org/TR/2001/REC-SVG-20010904/DTD/svg10.dtd">
<svg width="2000" height="2000" xmlns="http://www.w3.org/2000/svg" style="background-color:black">
<path d="M 1000.000000 950.000000 L 1000.000000 95.628571" stroke="white" stroke-width="6" fill="transparent"/>
<path d="M 1000.000000 942.400000 L 1000.000000 565.200000" stroke="fuchsia" stroke-width="3" fill="transparent"/>
<path d="M 1000.000000 565.200000 L 1000.000000 334.142857" stroke="blue" stroke-width="3" fill="transparent"/>
<path d="M 1000.000000 333.914286 L 1000.000000 224.742857" stroke="fuchsia" stroke-width="3" fill="transparent"/>
<path d="M 1000.000000 224.485714 L 1000.000000 200.857143" stroke="blue" stroke-width="3" fill="transparent"/>
<path d="M 1000.000000 200.142857 L 1000.000000 193.657143" stroke="fuchsia" stroke-width="3" fill="transparent"/>
<path d="M 1000.000000 192.200000 L 1000.000000 173.114286" stroke="blue" stroke-width="3" fill="transparent"/>
<path d="M 1000.000000 172.800000 L 1000.000000 167.514286" stroke="fuchsia" stroke-width="3" fill="transparent"/>
<path d="M 1000.000000 167.314286 L 1000.000000 156.885714" stroke="blue" stroke-width="3" fill="transparent"/>
<path d="M 1000.000000 153.028571 L 1000.000000 142.600000" stroke="fuchsia" stroke-width="3" fill="transparent"/>
<path d="M 1000.000000 142.171429 L 1000.000000 106.200000" stroke="blue" stroke-width="3" fill="transparent"/>
<path d="M 1000.000000 105.485714 L 1000.000000 102.171429" stroke="fuchsia" stroke-width="3" fill="transparent"/>
<text font-size="2.5em" x="1005.000000" y="90.628571" fill="white">SARS-CoV-2</text>
<path d="M 1050.000000 1050.000000 L 1780.148159 1500.771294" stroke="white" stroke-width="6" fill="transparent"/>
<path d="M 1056.175128 1053.812337 L 1376.479527 1251.558543" stroke="fuchsia" stroke-width="3" fill="transparent"/>
<path d="M 1375.968984 1251.243349 L 1572.430453 1372.532692" stroke="blue" stroke-width="3" fill="transparent"/>
<path d="M 1571.020384 1371.662158 L 1669.749504 1432.614518" stroke="fuchsia" stroke-width="3" fill="transparent"/>
<path d="M 1670.114177 1432.839656 L 1677.675063 1437.507517" stroke="blue" stroke-width="3" fill="transparent"/>
<path d="M 1677.893867 1437.642600 L 1685.892360 1442.580627" stroke="fuchsia" stroke-width="3" fill="transparent"/>
<path d="M 1683.752945 1441.259817 L 1701.597608 1452.276570" stroke="blue" stroke-width="3" fill="transparent"/>
<path d="M 1701.913657 1452.471689 L 1718.299628 1462.587890" stroke="fuchsia" stroke-width="3" fill="transparent"/>
<path d="M 1720.147304 1463.728589 L 1726.176564 1467.450871" stroke="blue" stroke-width="3" fill="transparent"/>
<path d="M 1726.541237 1467.676009 L 1742.562534 1477.567071" stroke="fuchsia" stroke-width="3" fill="transparent"/>
<path d="M 1743.875357 1478.377568 L 1774.045965 1497.003985" stroke="blue" stroke-width="3" fill="transparent"/>
<text font-size="2.5em" x="1785.148159" y="1505.771294" fill="white">MERS-CoV</text>
<path d="M 950.000000 1050.000000 L 226.707693 1496.538700" stroke="white" stroke-width="6" fill="transparent"/>
<path d="M 943.557445 1053.977438 L 624.274131 1251.093257" stroke="fuchsia" stroke-width="3" fill="transparent"/>
<path d="M 624.274131 1251.093257 L 427.666794 1372.472655" stroke="blue" stroke-width="3" fill="transparent"/>
<path d="M 427.496613 1372.577720 L 335.915082 1429.117375" stroke="fuchsia" stroke-width="3" fill="transparent"/>
<path d="M 335.696278 1429.252458 L 315.663578 1441.620038" stroke="blue" stroke-width="3" fill="transparent"/>
<path d="M 325.461125 1435.571331 L 314.180575 1442.535599" stroke="fuchsia" stroke-width="3" fill="transparent"/>
<path d="M 315.055790 1441.995268 L 309.464138 1445.447384" stroke="blue" stroke-width="3" fill="transparent"/>
<path d="M 308.224250 1446.212853 L 292.057083 1456.193971" stroke="fuchsia" stroke-width="3" fill="transparent"/>
<path d="M 291.789656 1456.359072 L 287.146154 1459.225829" stroke="blue" stroke-width="3" fill="transparent"/>
<path d="M 286.951662 1459.345903 L 278.005019 1464.869288" stroke="fuchsia" stroke-width="3" fill="transparent"/>
<path d="M 278.077954 1464.824261 L 274.820209 1466.835494" stroke="blue" stroke-width="3" fill="transparent"/>
<path d="M 274.650028 1466.940558 L 271.756956 1468.726653" stroke="fuchsia" stroke-width="3" fill="transparent"/>
<path d="M 272.583548 1468.216340 L 266.408420 1472.028677" stroke="blue" stroke-width="3" fill="transparent"/>
<path d="M 266.359797 1472.058695 L 235.532778 1491.090360" stroke="fuchsia" stroke-width="3" fill="transparent"/>
<path d="M 266.116682 1472.208787 L 258.920469 1476.651510" stroke="blue" stroke-width="3" fill="transparent"/>
<text font-size="2.5em" x="26.707693" y="1501.538700" fill="white">SARS-CoV</text>
<path d="M 1005.000000 894.142857 L 1005.000000 894.514286 Q 1099.376716 954.837419 1099.376716 1075.483685 L 1099.692766 1075.678804 Q 1099.692766 954.654839 1005.000000 894.142857" stroke="#238b45" stroke-width="0.5" fill="#238b45" fill-opacity="0.900000"/>
<path d="M 1005.000000 846.314286 L 1005.000000 846.828571 Q 1143.696634 932.167533 1143.696634 1102.845456 L 1144.134241 1103.115621 Q 1144.134241 931.914731 1005.000000 846.314286" stroke="#41ae76" stroke-width="0.5" fill="#41ae76" fill-opacity="0.900000"/>
<path d="M 1005.000000 731.942857 L 1005.000000 732.571429 Q 1232.458027 874.262300 1232.458027 1157.644044 L 1232.992881 1157.974246 Q 1232.992881 873.953320 1005.000000 731.942857" stroke="#238b45" stroke-width="0.5" fill="#238b45" fill-opacity="0.900000"/>
<path d="M 1005.000000 721.257143 L 1005.000000 721.542857 Q 1247.020633 869.906756 1247.020633 1166.634554 L 1247.263749 1166.784646 Q 1247.263749 869.766311 1005.000000 721.257143" stroke="#005824" stroke-width="0.5" fill="#005824" fill-opacity="0.900000"/>
<path d="M 1005.000000 719.885714 L 1005.000000 720.600000 Q 1242.936296 868.437670 1242.936296 1164.113009 L 1243.544085 1164.488239 Q 1243.544085 868.086556 1005.000000 719.885714" stroke="#41ae76" stroke-width="0.5" fill="#41ae76" fill-opacity="0.900000"/>
<path d="M 1005.000000 713.914286 L 1005.000000 714.342857 Q 1248.333456 865.376922 1248.333456 1167.445051 L 1248.698129 1167.670189 Q 1248.698129 865.166253 1005.000000 713.914286" stroke="#41ae76" stroke-width="0.5" fill="#41ae76" fill-opacity="0.900000"/>
<path d="M 1005.000000 675.114286 L 1005.000000 675.657143 Q 1281.980612 846.510690 1281.980612 1188.217783 L 1282.442531 1188.502958 Q 1282.442531 846.243843 1005.000000 675.114286" stroke="#238b45" stroke-width="0.5" fill="#238b45" fill-opacity="0.900000"/>
<path d="M 1005.000000 659.942857 L 1005.000000 664.200000 Q 1291.729536 840.878824 1291.729536 1194.236472 L 1295.351953 1196.472843 Q 1295.351953 838.786186 1005.000000 659.942857" stroke="#66c2a4" stroke-width="0.5" fill="#66c2a4" fill-opacity="0.900000"/>
<path d="M 1005.000000 658.057143 L 1005.000000 658.342857 Q 1296.713399 837.999691 1296.713399 1197.313358 L 1296.956514 1197.463450 Q 1296.956514 837.859245 1005.000000 658.057143" stroke="#005824" stroke-width="0.5" fill="#005824" fill-opacity="0.900000"/>
<path d="M 1005.000000 655.085714 L 1005.000000 655.342857 Q 1332.378412 843.339190 1332.378412 1219.331854 L 1332.597216 1219.466937 Q 1332.597216 843.212789 1005.000000 655.085714" stroke="#005824" stroke-width="0.5" fill="#005824" fill-opacity="0.900000"/>
<path d="M 1005.000000 652.457143 L 1005.000000 653.028571 Q 1301.454147 835.432432 1301.454147 1200.240152 L 1301.940378 1200.540336 Q 1301.940378 835.151541 1005.000000 652.457143" stroke="#41ae76" stroke-width="0.5" fill="#41ae76" fill-opacity="0.900000"/>
<path d="M 1005.000000 649.942857 L 1005.000000 651.257143 Q 1302.961462 834.561669 1302.961462 1201.170723 L 1304.079792 1201.861146 Q 1304.079792 833.915620 1005.000000 649.942857" stroke="#41ae76" stroke-width="0.5" fill="#41ae76" fill-opacity="0.900000"/>
<path d="M 1005.000000 648.514286 L 1005.000000 649.200000 Q 1304.711892 833.550462 1304.711892 1202.251385 L 1305.295369 1202.611606 Q 1305.295369 833.213392 1005.000000 648.514286" stroke="#41ae76" stroke-width="0.5" fill="#41ae76" fill-opacity="0.900000"/>
<path d="M 1005.000000 644.771429 L 1005.000000 645.485714 Q 1307.872391 831.724670 1307.872391 1204.202581 L 1308.480179 1204.577811 Q 1308.480179 831.373556 1005.000000 644.771429" stroke="#41ae76" stroke-width="0.5" fill="#41ae76" fill-opacity="0.900000"/>
<path d="M 1005.000000 637.628571 L 1005.000000 638.114286 Q 1313.925962 828.056148 1313.925962 1207.939872 L 1314.339258 1208.195028 Q 1314.339258 827.817390 1005.000000 637.628571" stroke="#238b45" stroke-width="0.5" fill="#238b45" fill-opacity="0.900000"/>
<path d="M 1005.000000 614.885714 L 1005.000000 615.314286 Q 1333.472431 816.878613 1333.472431 1220.007268 L 1333.837104 1220.232406 Q 1333.837104 816.667945 1005.000000 614.885714" stroke="#41ae76" stroke-width="0.5" fill="#41ae76" fill-opacity="0.900000"/>
<path d="M 1005.000000 610.828571 L 1005.000000 612.828571 Q 1335.587534 815.656737 1335.587534 1221.313069 L 1337.289341 1222.363713 Q 1337.289341 814.673618 1005.000000 610.828571" stroke="#66c2a4" stroke-width="0.5" fill="#66c2a4" fill-opacity="0.900000"/>
<path d="M 1005.000000 596.828571 L 1005.000000 599.714286 Q 1346.819461 809.225297 1346.819461 1228.247319 L 1349.274925 1229.763248 Q 1349.274925 807.806797 1005.000000 596.828571" stroke="#66c2a4" stroke-width="0.5" fill="#66c2a4" fill-opacity="0.900000"/>
<path d="M 1005.000000 593.171429 L 1005.000000 593.571429 Q 1350.830863 805.955565 1350.830863 1230.723837 L 1351.146913 1230.918956 Q 1351.146913 805.753938 1005.000000 593.171429" stroke="#005824" stroke-width="0.5" fill="#005824" fill-opacity="0.900000"/>
<path d="M 1005.000000 588.771429 L 1005.000000 589.257143 Q 1355.644546 804.069981 1355.644546 1233.695658 L 1356.057842 1233.950815 Q 1356.057842 803.831224 1005.000000 588.771429" stroke="#41ae76" stroke-width="0.5" fill="#41ae76" fill-opacity="0.900000"/>
<path d="M 1005.000000 587.314286 L 1005.000000 588.200000 Q 1356.617007 803.565342 1356.617007 1234.296026 L 1357.370665 1234.761312 Q 1357.370665 803.129961 1005.000000 587.314286" stroke="#41ae76" stroke-width="0.5" fill="#41ae76" fill-opacity="0.900000"/>
<path d="M 1005.000000 574.114286 L 1005.000000 574.514286 Q 1368.043426 796.792974 1368.043426 1241.350350 L 1368.383787 1241.560479 Q 1368.383787 796.596350 1005.000000 574.114286" stroke="#005824" stroke-width="0.5" fill="#005824" fill-opacity="0.900000"/>
<path d="M 1005.000000 570.714286 L 1005.000000 572.457143 Q 1369.793856 795.781766 1369.793856 1242.431013 L 1371.276859 1243.346574 Q 1371.276859 794.925048 1005.000000 570.714286" stroke="#66c2a4" stroke-width="0.5" fill="#66c2a4" fill-opacity="0.900000"/>
<path d="M 1005.000000 569.314286 L 1005.000000 569.885714 Q 1371.981894 794.517756 1371.981894 1243.781841 L 1372.468124 1244.082025 Q 1372.468124 794.236865 1005.000000 569.314286" stroke="#41ae76" stroke-width="0.5" fill="#41ae76" fill-opacity="0.900000"/>
<path d="M 1005.000000 568.457143 L 1005.000000 568.885714 Q 1372.832797 794.026197 1372.832797 1244.307163 L 1373.197470 1244.532301 Q 1373.197470 793.815529 1005.000000 568.457143" stroke="#238b45" stroke-width="0.5" fill="#238b45" fill-opacity="0.900000"/>
<path d="M 1005.000000 562.685714 L 1005.000000 563.657143 Q 1377.354742 791.471053 1377.354742 1247.098874 L 1378.181334 1247.609186 Q 1378.181334 790.993538 1005.000000 562.685714" stroke="#41ae76" stroke-width="0.5" fill="#41ae76" fill-opacity="0.900000"/>
<path d="M 1005.000000 559.485714 L 1005.000000 560.057143 Q 1380.563864 789.731458 1380.563864 1249.080088 L 1381.050094 1249.380272 Q 1381.050094 789.450567 1005.000000 559.485714" stroke="#41ae76" stroke-width="0.5" fill="#41ae76" fill-opacity="0.900000"/>
<path d="M 1005.000000 554.428571 L 1005.000000 556.142857 Q 1383.894543 787.807354 1383.894543 1251.136348 L 1385.353235 1252.036900 Q 1385.353235 786.964681 1005.000000 554.428571" stroke="#66c2a4" stroke-width="0.5" fill="#66c2a4" fill-opacity="0.900000"/>
<path d="M 1005.000000 551.485714 L 1005.000000 552.200000 Q 1387.176599 785.854197 1387.176599 1253.162590 L 1387.808699 1253.552830 Q 1387.808699 785.508086 1005.000000 551.485714" stroke="#41ae76" stroke-width="0.5" fill="#41ae76" fill-opacity="0.900000"/>
<path d="M 1005.000000 551.828571 L 1005.000000 552.171429 Q 1391.139379 786.650649 1391.139379 1255.609090 L 1391.431117 1255.789200 Q 1391.431117 786.482114 1005.000000 551.828571" stroke="#005824" stroke-width="0.5" fill="#005824" fill-opacity="0.900000"/>
<path d="M 1005.000000 546.971429 L 1005.000000 550.885714 Q 1388.319241 785.213150 1388.319241 1253.868023 L 1391.625609 1255.909274 Q 1391.625609 783.284044 1005.000000 546.971429" stroke="#66c2a4" stroke-width="0.5" fill="#66c2a4" fill-opacity="0.900000"/>
<path d="M 1005.000000 437.800000 L 1005.000000 541.942857 Q 1395.904438 780.812202 1395.904438 1258.550893 L 1484.519963 1313.259426 Q 1484.519963 729.619809 1005.000000 437.800000" stroke="#66c2a4" stroke-width="0.5" fill="#66c2a4" fill-opacity="0.900000"/>
<path d="M 1005.000000 433.685714 L 1005.000000 434.342857 Q 1487.242854 727.875390 1487.242854 1314.940456 L 1487.802019 1315.285668 Q 1487.802019 727.552365 1005.000000 433.685714" stroke="#41ae76" stroke-width="0.5" fill="#41ae76" fill-opacity="0.900000"/>
<path d="M 1005.000000 432.057143 L 1005.000000 432.685714 Q 1488.652923 727.060806 1488.652923 1315.810990 L 1489.187776 1316.141192 Q 1489.187776 726.751826 1005.000000 432.057143" stroke="#41ae76" stroke-width="0.5" fill="#41ae76" fill-opacity="0.900000"/>
<path d="M 1005.000000 424.457143 L 1005.000000 428.857143 Q 1491.910668 725.178836 1491.910668 1317.822223 L 1495.654643 1320.133639 Q 1495.654643 723.015975 1005.000000 424.457143" stroke="#66c2a4" stroke-width="0.5" fill="#66c2a4" fill-opacity="0.900000"/>
<path d="M 1005.000000 421.485714 L 1005.000000 422.142857 Q 1497.623877 721.878366 1497.623877 1321.349385 L 1498.183042 1321.694596 Q 1498.183042 721.555342 1005.000000 421.485714" stroke="#41ae76" stroke-width="0.5" fill="#41ae76" fill-opacity="0.900000"/>
<path d="M 1005.000000 417.971429 L 1005.000000 418.714286 Q 1500.541260 720.193020 1500.541260 1323.150488 L 1501.173360 1323.540728 Q 1501.173360 719.827862 1005.000000 417.971429" stroke="#41ae76" stroke-width="0.5" fill="#41ae76" fill-opacity="0.900000"/>
<path d="M 1005.000000 413.314286 L 1005.000000 415.514286 Q 1503.264152 718.620030 1503.264152 1324.831519 L 1505.136140 1325.987227 Q 1505.136140 717.538600 1005.000000 413.314286" stroke="#66c2a4" stroke-width="0.5" fill="#66c2a4" fill-opacity="0.900000"/>
<path d="M 1005.000000 410.514286 L 1005.000000 411.285714 Q 1506.862258 716.541436 1506.862258 1327.052880 L 1507.518669 1327.458129 Q 1507.518669 716.162233 1005.000000 410.514286" stroke="#41ae76" stroke-width="0.5" fill="#41ae76" fill-opacity="0.900000"/>
<path d="M 1005.000000 405.771429 L 1005.000000 406.200000 Q 1511.189710 714.041506 1511.189710 1329.724518 L 1511.554383 1329.949656 Q 1511.554383 713.830838 1005.000000 405.771429" stroke="#41ae76" stroke-width="0.5" fill="#41ae76" fill-opacity="0.900000"/>
<path d="M 1005.000000 404.200000 L 1005.000000 404.514286 Q 1512.624091 713.212877 1512.624091 1330.610061 L 1512.891517 1330.775162 Q 1512.891517 713.058387 1005.000000 404.200000" stroke="#005824" stroke-width="0.5" fill="#005824" fill-opacity="0.900000"/>
<path d="M 1005.000000 388.371429 L 1005.000000 401.914286 Q 1514.544701 711.874786 1514.544701 1331.795787 L 1526.165612 1338.970185 Q 1526.165612 705.237681 1005.000000 388.371429" stroke="#66c2a4" stroke-width="0.5" fill="#66c2a4" fill-opacity="0.900000"/>
<path d="M 1005.000000 387.485714 L 1005.000000 387.828571 Q 1526.603220 704.965831 1526.603220 1339.240351 L 1526.894958 1339.420461 Q 1526.894958 704.797297 1005.000000 387.485714" stroke="#238b45" stroke-width="0.5" fill="#238b45" fill-opacity="0.900000"/>
<path d="M 1005.000000 384.228571 L 1005.000000 385.857143 Q 1528.280715 703.996757 1528.280715 1340.275985 L 1529.666473 1341.131510 Q 1529.666473 703.196218 1005.000000 384.228571" stroke="#66c2a4" stroke-width="0.5" fill="#66c2a4" fill-opacity="0.900000"/>
<path d="M 1005.000000 380.685714 L 1005.000000 381.142857 Q 1532.292118 701.679406 1532.292118 1342.752503 L 1532.681102 1342.992650 Q 1532.681102 701.454693 1005.000000 380.685714" stroke="#238b45" stroke-width="0.5" fill="#238b45" fill-opacity="0.900000"/>
<path d="M 1005.000000 360.057143 L 1005.000000 364.542857 Q 1546.198312 693.474493 1546.198312 1351.337765 L 1550.015223 1353.694210 Q 1550.015223 691.269499 1005.000000 360.057143" stroke="#66c2a4" stroke-width="0.5" fill="#66c2a4" fill-opacity="0.900000"/>
<path d="M 1005.000000 342.228571 L 1005.000000 356.228571 Q 1553.272967 689.387528 1553.272967 1355.705443 L 1565.185617 1363.059950 Q 1565.185617 682.505698 1005.000000 342.228571" stroke="#66c2a4" stroke-width="0.5" fill="#66c2a4" fill-opacity="0.900000"/>
<path d="M 1005.000000 339.800000 L 1005.000000 341.057143 Q 1566.182390 681.929871 1566.182390 1363.675328 L 1567.252097 1364.335732 Q 1567.252097 681.311911 1005.000000 339.800000" stroke="#41ae76" stroke-width="0.5" fill="#41ae76" fill-opacity="0.900000"/>
<path d="M 1005.000000 334.171429 L 1005.000000 334.942857 Q 1571.385057 678.924337 1571.385057 1366.887296 L 1572.041468 1367.292545 Q 1572.041468 678.545134 1005.000000 334.171429" stroke="#238b45" stroke-width="0.5" fill="#238b45" fill-opacity="0.900000"/>
<path d="M 1005.000000 266.428571 L 1005.000000 266.971429 Q 1321.243732 582.133499 1321.243732 1212.457641 L 1320.781813 1212.172466 Q 1320.781813 581.676536 1005.000000 266.428571" stroke="#cb181d" stroke-width="0.5" fill="#cb181d" fill-opacity="0.900000"/>
<path d="M 1005.000000 254.400000 L 1005.000000 256.542857 Q 1642.253165 641.241609 1642.253165 1410.639113 L 1644.076529 1411.764803 Q 1644.076529 640.188268 1005.000000 254.400000" stroke="#66c2a4" stroke-width="0.5" fill="#66c2a4" fill-opacity="0.900000"/>
<path d="M 1005.000000 254.514286 L 1005.000000 255.000000 Q 1311.154447 572.076274 1311.154447 1206.228823 L 1310.741151 1205.973667 Q 1310.741151 571.667413 1005.000000 254.514286" stroke="#ef3b2c" stroke-width="0.5" fill="#ef3b2c" fill-opacity="0.900000"/>
<path d="M 1005.000000 251.828571 L 1005.000000 252.714286 Q 1645.510910 639.359639 1645.510910 1412.650346 L 1646.264567 1413.115631 Q 1646.264567 638.924258 1005.000000 251.828571" stroke="#66c2a4" stroke-width="0.5" fill="#66c2a4" fill-opacity="0.900000"/>
<path d="M 1005.000000 250.485714 L 1005.000000 250.885714 Q 1647.066847 638.460788 1647.066847 1413.610935 L 1647.407209 1413.821064 Q 1647.407209 638.264164 1005.000000 250.485714" stroke="#238b45" stroke-width="0.5" fill="#238b45" fill-opacity="0.900000"/>
<path d="M 1005.000000 228.742857 L 1005.000000 230.200000 Q 1665.324806 628.427615 1665.324806 1424.882844 L 1666.564694 1425.648313 Q 1666.564694 627.711342 1005.000000 228.742857" stroke="#238b45" stroke-width="0.5" fill="#238b45" fill-opacity="0.900000"/>
<path d="M 1005.000000 182.228571 L 1005.000000 182.885714 Q 1734.393861 611.098470 1734.393861 1467.523980 L 1734.953026 1467.869192 Q 1734.953026 610.775445 1005.000000 182.228571" stroke="#238b45" stroke-width="0.5" fill="#238b45" fill-opacity="0.900000"/>
<path d="M 1005.000000 137.085714 L 1005.000000 138.342857 Q 1746.476691 583.889756 1746.476691 1474.983552 L 1747.546398 1475.643957 Q 1747.546398 583.271795 1005.000000 137.085714" stroke="#41ae76" stroke-width="0.5" fill="#41ae76" fill-opacity="0.900000"/>
<path d="M 1005.000000 132.028571 L 1005.000000 133.200000 Q 1750.779831 581.346727 1750.779831 1477.640181 L 1751.776604 1478.255558 Q 1751.776604 580.770900 1005.000000 132.028571" stroke="#41ae76" stroke-width="0.5" fill="#41ae76" fill-opacity="0.900000"/>
<path d="M 1005.000000 131.971429 L 1005.000000 132.228571 Q 1206.298822 468.650429 1206.298822 1141.494145 L 1206.080018 1141.359062 Q 1206.080018 468.433973 1005.000000 131.971429" stroke="#99000d" stroke-width="0.5" fill="#99000d" fill-opacity="0.900000"/>
<path d="M 1005.000000 120.571429 L 1005.000000 121.142857 Q 1761.185166 575.449944 1761.185166 1484.064118 L 1761.671396 1484.364302 Q 1761.671396 575.169053 1005.000000 120.571429" stroke="#238b45" stroke-width="0.5" fill="#238b45" fill-opacity="0.900000"/>
<path d="M 1005.000000 116.085714 L 1005.000000 116.485714 Q 1765.147945 573.160682 1765.147945 1486.510618 L 1765.488306 1486.720747 Q 1765.488306 572.964058 1005.000000 116.085714" stroke="#238b45" stroke-width="0.5" fill="#238b45" fill-opacity="0.900000"/>
<path d="M 1005.000000 103.714286 L 1005.000000 104.257143 Q 1775.650526 567.169626 1775.650526 1492.994592 L 1776.112445 1493.279767 Q 1776.112445 566.902779 1005.000000 103.714286" stroke="#41ae76" stroke-width="0.5" fill="#41ae76" fill-opacity="0.900000"/>
<path d="M 995.000000 859.800000 L 995.000000 949.085714 Q 949.659639 981.127186 949.659639 1045.210129 L 873.515929 1092.218942 Q 873.515929 937.272981 995.000000 859.800000" stroke="#66c2a4" stroke-width="0.5" fill="#66c2a4" fill-opacity="0.900000"/>
<path d="M 995.000000 843.342857 L 995.000000 854.371429 Q 870.647168 934.244295 870.647168 1093.990028 L 861.262918 1099.783579 Q 861.262918 928.823098 995.000000 843.342857" stroke="#66c2a4" stroke-width="0.5" fill="#66c2a4" fill-opacity="0.900000"/>
<path d="M 995.000000 835.485714 L 995.000000 836.971429 Q 855.987316 925.661144 855.987316 1103.040575 L 854.723117 1103.821054 Q 854.723117 924.930827 995.000000 835.485714" stroke="#41ae76" stroke-width="0.5" fill="#41ae76" fill-opacity="0.900000"/>
<path d="M 995.000000 333.628571 L 995.000000 832.742857 Q 852.389210 923.582550 852.389210 1105.261937 L 427.642482 1367.487664 Q 427.642482 678.248269 995.000000 333.628571" stroke="#41ae76" stroke-width="0.5" fill="#41ae76" fill-opacity="0.900000"/>
<path d="M 995.000000 597.942857 L 995.000000 598.285714 Q 654.930969 807.912695 654.930969 1227.166657 L 654.639231 1227.346767 Q 654.639231 807.744160 995.000000 597.942857" stroke="#238b45" stroke-width="0.5" fill="#238b45" fill-opacity="0.900000"/>
<path d="M 995.000000 330.114286 L 995.000000 330.914286 Q 425.041148 676.974073 425.041148 1369.093649 L 424.360426 1369.513906 Q 424.360426 676.580826 995.000000 330.114286" stroke="#66c2a4" stroke-width="0.5" fill="#66c2a4" fill-opacity="0.900000"/>
<path d="M 995.000000 328.142857 L 995.000000 329.771429 Q 424.068687 676.412291 424.068687 1369.694017 L 422.682930 1370.549541 Q 422.682930 675.611752 995.000000 328.142857" stroke="#66c2a4" stroke-width="0.5" fill="#66c2a4" fill-opacity="0.900000"/>
<path d="M 995.000000 323.000000 L 995.000000 327.257143 Q 422.439815 675.071306 422.439815 1370.699633 L 418.817397 1372.936004 Q 418.817397 672.978668 995.000000 323.000000" stroke="#66c2a4" stroke-width="0.5" fill="#66c2a4" fill-opacity="0.900000"/>
<path d="M 995.000000 318.914286 L 995.000000 319.885714 Q 416.459179 671.387775 416.459179 1374.391896 L 415.608275 1374.917218 Q 415.608275 670.915263 995.000000 318.914286" stroke="#41ae76" stroke-width="0.5" fill="#41ae76" fill-opacity="0.900000"/>
<path d="M 995.000000 316.914286 L 995.000000 318.228571 Q 415.049110 670.573191 415.049110 1375.262430 L 413.930780 1375.952853 Q 413.930780 669.927141 995.000000 316.914286" stroke="#41ae76" stroke-width="0.5" fill="#41ae76" fill-opacity="0.900000"/>
<path d="M 995.000000 315.342857 L 995.000000 316.085714 Q 413.225745 669.519849 413.225745 1376.388120 L 412.593645 1376.778359 Q 412.593645 669.154691 995.000000 315.342857" stroke="#41ae76" stroke-width="0.5" fill="#41ae76" fill-opacity="0.900000"/>
<path d="M 995.000000 313.828571 L 995.000000 314.114286 Q 411.548250 668.550775 411.548250 1377.423755 L 411.305134 1377.573847 Q 411.305134 668.410330 995.000000 313.828571" stroke="#005824" stroke-width="0.5" fill="#005824" fill-opacity="0.900000"/>
<path d="M 995.000000 310.885714 L 995.000000 311.542857 Q 409.797820 667.196710 409.797820 1378.504417 L 409.238654 1378.849628 Q 409.238654 666.873686 995.000000 310.885714" stroke="#41ae76" stroke-width="0.5" fill="#41ae76" fill-opacity="0.900000"/>
<path d="M 995.000000 309.000000 L 995.000000 310.085714 Q 408.557932 666.480438 408.557932 1379.269886 L 407.634093 1379.840236 Q 407.634093 665.946745 995.000000 309.000000" stroke="#41ae76" stroke-width="0.5" fill="#41ae76" fill-opacity="0.900000"/>
<path d="M 995.000000 96.085714 L 995.000000 306.028571 Q 405.105694 664.486112 405.105694 1381.401192 L 227.266858 1491.193488 Q 227.266858 561.121639 995.000000 96.085714" stroke="#41ae76" stroke-width="0.5" fill="#41ae76" fill-opacity="0.900000"/>
<path d="M 995.000000 172.114286 L 995.000000 172.371429 Q 290.744261 598.915775 290.744261 1452.004468 L 290.525457 1452.139551 Q 290.525457 598.789374 995.000000 172.114286" stroke="#005824" stroke-width="0.5" fill="#005824" fill-opacity="0.900000"/>
<path d="M 995.000000 153.428571 L 995.000000 153.771429 Q 275.039013 589.747756 275.039013 1461.700411 L 274.747274 1461.880521 Q 274.747274 589.579221 995.000000 153.428571" stroke="#238b45" stroke-width="0.5" fill="#238b45" fill-opacity="0.900000"/>
<path d="M 1051.410069 1055.870534 L 1050.510542 1055.315193 Q 1000.000000 1071.412835 949.489458 1055.315193 L 948.589931 1055.870534 Q 1000.000000 1072.448545 1051.410069 1055.870534" stroke="#66c2a4" stroke-width="0.5" fill="#66c2a4" fill-opacity="0.900000"/>
<path d="M 1055.567340 1058.437107 L 1055.275602 1058.256996 Q 1000.461919 1076.899298 945.648236 1057.686647 L 945.356498 1057.866757 Q 1000.461919 1077.235204 1055.567340 1058.437107" stroke="#005824" stroke-width="0.5" fill="#005824" fill-opacity="0.900000"/>
<path d="M 1055.591652 1058.452116 L 1055.324225 1058.287015 Q 1000.000000 1076.955282 944.675775 1058.287015 L 944.408348 1058.452116 Q 1000.000000 1077.263196 1055.591652 1058.452116" stroke="#005824" stroke-width="0.5" fill="#005824" fill-opacity="0.900000"/>
<path d="M 1140.657693 1110.969306 L 1139.539362 1110.278882 Q 1003.962779 1173.920116 868.386196 1105.385883 L 867.267866 1106.076307 Q 1003.962779 1175.207755 1140.657693 1110.969306" stroke="#41ae76" stroke-width="0.5" fill="#41ae76" fill-opacity="0.900000"/>
<path d="M 1146.808510 1114.766633 L 1146.054852 1114.301348 Q 1003.974935 1181.422014 861.895018 1109.393340 L 861.117049 1109.873634 Q 1003.974935 1182.289771 1146.808510 1114.766633" stroke="#238b45" stroke-width="0.5" fill="#238b45" fill-opacity="0.900000"/>
<path d="M 1158.794093 1122.166169 L 1158.575290 1122.031086 Q 1002.686424 1195.837975 846.797558 1118.714053 L 846.578754 1118.849135 Q 1002.686424 1196.089904 1158.794093 1122.166169" stroke="#005824" stroke-width="0.5" fill="#005824" fill-opacity="0.900000"/>
<path d="M 1161.200935 1123.652079 L 1160.982131 1123.516997 Q 999.756885 1199.169042 838.531638 1123.817181 L 838.312835 1123.952263 Q 999.756885 1199.420971 1161.200935 1123.652079" stroke="#005824" stroke-width="0.5" fill="#005824" fill-opacity="0.900000"/>
<path d="M 1170.196201 1129.205483 L 1169.904462 1129.025373 Q 1002.771514 1208.882320 835.638566 1125.603275 L 835.346828 1125.783386 Q 1002.771514 1209.218226 1170.196201 1129.205483" stroke="#238b45" stroke-width="0.5" fill="#238b45" fill-opacity="0.900000"/>
<path d="M 1202.360354 1149.062654 L 1202.141550 1148.927572 Q 1003.269901 1245.999921 804.398251 1144.890097 L 804.179447 1145.025180 Q 1003.269901 1246.251850 1202.360354 1149.062654" stroke="#005824" stroke-width="0.5" fill="#005824" fill-opacity="0.900000"/>
<path d="M 1233.065815 1168.019274 L 1232.458027 1167.644044 Q 999.769040 1281.437992 767.080054 1167.929218 L 766.472266 1168.304448 Q 999.769040 1282.137796 1233.065815 1168.019274" stroke="#41ae76" stroke-width="0.5" fill="#41ae76" fill-opacity="0.900000"/>
<path d="M 1244.711038 1175.208680 L 1244.443611 1175.043579 Q 1000.024312 1294.706275 755.605012 1175.013561 L 755.337585 1175.178662 Q 1000.024312 1295.014189 1244.711038 1175.208680" stroke="#005824" stroke-width="0.5" fill="#005824" fill-opacity="0.900000"/>
<path d="M 1250.861855 1179.006008 L 1250.545805 1178.810888 Q 999.951377 1301.844275 749.356949 1178.870925 L 749.040899 1179.066045 Q 999.951377 1302.208173 1250.861855 1179.006008" stroke="#238b45" stroke-width="0.5" fill="#238b45" fill-opacity="0.900000"/>
<path d="M 1266.348299 1188.566868 L 1266.032249 1188.371748 Q 1000.279583 1319.563311 734.526916 1188.026537 L 734.210866 1188.221656 Q 1000.279583 1319.927209 1266.348299 1188.566868" stroke="#238b45" stroke-width="0.5" fill="#238b45" fill-opacity="0.900000"/>
<path d="M 1268.220287 1189.722576 L 1267.296449 1189.152227 Q 1000.279583 1321.018903 733.262717 1188.807015 L 732.338878 1189.377365 Q 1000.279583 1322.082605 1268.220287 1189.722576" stroke="#66c2a4" stroke-width="0.5" fill="#66c2a4" fill-opacity="0.900000"/>
<path d="M 1279.987067 1196.987029 L 1279.695329 1196.806919 Q 1000.498386 1335.294903 721.301444 1196.191541 L 721.009706 1196.371652 Q 1000.498386 1335.630809 1279.987067 1196.987029" stroke="#005824" stroke-width="0.5" fill="#005824" fill-opacity="0.900000"/>
<path d="M 1282.442531 1198.502958 L 1281.980612 1198.217783 Q 1000.316050 1337.926166 718.651487 1197.827544 L 718.189568 1198.112719 Q 1000.316050 1338.458017 1282.442531 1198.502958" stroke="#238b45" stroke-width="0.5" fill="#238b45" fill-opacity="0.900000"/>
<path d="M 1289.614433 1202.930672 L 1289.176825 1202.660506 Q 1000.316050 1346.211845 711.455275 1202.270267 L 711.017667 1202.540433 Q 1000.316050 1346.715703 1289.614433 1202.930672" stroke="#41ae76" stroke-width="0.5" fill="#41ae76" fill-opacity="0.900000"/>
<path d="M 1290.465336 1203.455994 L 1290.222221 1203.305902 Q 1000.316050 1347.415507 710.409879 1202.915663 L 710.166764 1203.065755 Q 1000.316050 1347.695429 1290.465336 1203.455994" stroke="#005824" stroke-width="0.5" fill="#005824" fill-opacity="0.900000"/>
<path d="M 1292.215766 1204.536656 L 1291.729536 1204.236472 Q 1000.316050 1349.151021 708.902564 1203.846233 L 708.416334 1204.146417 Q 1000.316050 1349.710864 1292.215766 1204.536656" stroke="#238b45" stroke-width="0.5" fill="#238b45" fill-opacity="0.900000"/>
<path d="M 1296.178545 1206.983156 L 1294.817100 1206.142641 Q 1000.316050 1352.706025 705.815000 1205.752402 L 704.453554 1206.592917 Q 1000.316050 1354.273586 1296.178545 1206.983156" stroke="#66c2a4" stroke-width="0.5" fill="#66c2a4" fill-opacity="0.900000"/>
<path d="M 1299.241798 1208.874315 L 1298.536764 1208.439048 Q 1000.413296 1356.988825 702.289828 1207.928736 L 701.609105 1208.348993 Q 1000.413296 1357.800598 1299.241798 1208.874315" stroke="#41ae76" stroke-width="0.5" fill="#41ae76" fill-opacity="0.900000"/>
<path d="M 1301.940378 1210.540336 L 1301.551393 1210.300189 Q 1000.425452 1360.459853 699.299510 1209.774867 L 698.910526 1210.015014 Q 1000.425452 1360.907727 1301.940378 1210.540336" stroke="#238b45" stroke-width="0.5" fill="#238b45" fill-opacity="0.900000"/>
<path d="M 1304.079792 1211.861146 L 1303.058708 1211.230759 Q 1000.425452 1362.195366 697.792195 1210.705437 L 696.771111 1211.335824 Q 1000.425452 1363.371037 1304.079792 1211.861146" stroke="#41ae76" stroke-width="0.5" fill="#41ae76" fill-opacity="0.900000"/>
<path d="M 1305.368303 1212.656633 L 1304.711892 1212.251385 Q 1000.425452 1364.098833 696.139011 1211.726063 L 695.482600 1212.131311 Q 1000.425452 1364.854621 1305.368303 1212.656633" stroke="#41ae76" stroke-width="0.5" fill="#41ae76" fill-opacity="0.900000"/>
<path d="M 1314.314946 1218.180019 L 1313.415420 1217.624679 Q 1000.316050 1374.120025 687.216680 1217.234439 L 686.317154 1217.789780 Q 1000.316050 1375.155735 1314.314946 1218.180019" stroke="#41ae76" stroke-width="0.5" fill="#41ae76" fill-opacity="0.900000"/>
<path d="M 1333.642612 1230.112333 L 1332.888955 1229.647047 Q 1000.388984 1396.541744 667.889014 1229.166753 L 667.135357 1229.632038 Q 1000.388984 1397.409500 1333.642612 1230.112333" stroke="#41ae76" stroke-width="0.5" fill="#41ae76" fill-opacity="0.900000"/>
<path d="M 1337.945753 1232.768961 L 1335.222861 1231.087931 Q 1000.388984 1399.228991 665.555108 1230.607636 L 662.832216 1232.288667 Q 1000.388984 1402.364112 1337.945753 1232.768961" stroke="#66c2a4" stroke-width="0.5" fill="#66c2a4" fill-opacity="0.900000"/>
<path d="M 1340.279660 1234.209844 L 1339.598937 1233.789587 Q 1000.388984 1404.267579 661.179032 1233.309292 L 660.498309 1233.729550 Q 1000.388984 1405.051359 1340.279660 1234.209844" stroke="#41ae76" stroke-width="0.5" fill="#41ae76" fill-opacity="0.900000"/>
<path d="M 1350.271698 1240.378625 L 1347.184134 1238.472457 Q 1000.425452 1413.001132 653.666770 1237.947135 L 650.579205 1239.853303 Q 1000.425452 1416.556136 1350.271698 1240.378625" stroke="#66c2a4" stroke-width="0.5" fill="#66c2a4" fill-opacity="0.900000"/>
<path d="M 1360.993082 1246.997682 L 1360.701344 1246.817572 Q 1000.388984 1428.564772 640.076625 1246.337278 L 639.784886 1246.517388 Q 1000.388984 1428.900678 1360.993082 1246.997682" stroke="#238b45" stroke-width="0.5" fill="#238b45" fill-opacity="0.900000"/>
<path d="M 1368.991576 1251.935709 L 1368.748460 1251.785617 Q 1004.035714 1437.830176 639.322967 1246.802563 L 639.079852 1246.952655 Q 1004.035714 1438.110097 1368.991576 1251.935709" stroke="#005824" stroke-width="0.5" fill="#005824" fill-opacity="0.900000"/>
<path d="M 1368.942953 1251.905691 L 1368.699837 1251.755599 Q 1000.316050 1437.774191 631.932263 1251.365359 L 631.689147 1251.515451 Q 1000.316050 1438.054113 1368.942953 1251.905691" stroke="#005824" stroke-width="0.5" fill="#005824" fill-opacity="0.900000"/>
<path d="M 1370.766317 1253.031381 L 1369.866791 1252.476040 Q 1000.316050 1439.117815 630.765309 1252.085801 L 629.865783 1252.641141 Q 1000.316050 1440.153525 1370.766317 1253.031381" stroke="#66c2a4" stroke-width="0.5" fill="#66c2a4" fill-opacity="0.900000"/>
<path d="M 1376.601084 1256.633589 L 1376.309346 1256.453478 Q 1003.136187 1446.535737 629.963029 1252.581105 L 629.671290 1252.761215 Q 1003.136187 1446.871643 1376.601084 1256.633589" stroke="#238b45" stroke-width="0.5" fill="#238b45" fill-opacity="0.900000"/>
<path d="M 1372.468124 1254.082025 L 1371.981894 1253.781841 Q 1000.316050 1441.553133 628.650206 1253.391601 L 628.163975 1253.691785 Q 1000.316050 1442.112976 1372.468124 1254.082025" stroke="#41ae76" stroke-width="0.5" fill="#41ae76" fill-opacity="0.900000"/>
<path d="M 1373.197470 1254.532301 L 1372.832797 1254.307163 Q 1000.316050 1442.532858 627.799303 1253.916923 L 627.434630 1254.142061 Q 1000.316050 1442.952741 1373.197470 1254.532301" stroke="#41ae76" stroke-width="0.5" fill="#41ae76" fill-opacity="0.900000"/>
<path d="M 1378.205645 1257.624196 L 1377.354742 1257.098874 Q 1000.352517 1447.739399 623.350293 1256.663607 L 622.499389 1257.188929 Q 1000.352517 1448.719125 1378.205645 1257.624196" stroke="#41ae76" stroke-width="0.5" fill="#41ae76" fill-opacity="0.900000"/>
<path d="M 1378.910680 1258.059462 L 1378.521695 1257.819315 Q 1000.425452 1449.083023 622.329208 1257.293993 L 621.940224 1257.534140 Q 1000.425452 1449.530898 1378.910680 1258.059462" stroke="#41ae76" stroke-width="0.5" fill="#41ae76" fill-opacity="0.900000"/>
<path d="M 1381.123029 1259.425300 L 1380.272125 1258.899978 Q 1000.425452 1451.098458 620.578778 1258.374656 L 619.727875 1258.899978 Q 1000.425452 1452.078184 1381.123029 1259.425300" stroke="#238b45" stroke-width="0.5" fill="#238b45" fill-opacity="0.900000"/>
<path d="M 1384.550954 1261.541597 L 1383.894543 1261.136348 Q 1000.425452 1455.269290 616.956360 1260.611026 L 616.299949 1261.016275 Q 1000.425452 1456.025078 1384.550954 1261.541597" stroke="#41ae76" stroke-width="0.5" fill="#41ae76" fill-opacity="0.900000"/>
<path d="M 1390.166918 1265.008722 L 1389.875179 1264.828612 Q 1003.087564 1462.155361 616.299949 1261.016275 L 616.008211 1261.196385 Q 1003.087564 1462.491266 1390.166918 1265.008722" stroke="#238b45" stroke-width="0.5" fill="#238b45" fill-opacity="0.900000"/>
<path d="M 1386.617434 1262.817379 L 1386.374319 1262.667287 Q 1000.388984 1458.124490 614.403650 1262.186992 L 614.160535 1262.337084 Q 1000.388984 1458.404411 1386.617434 1262.817379" stroke="#005824" stroke-width="0.5" fill="#005824" fill-opacity="0.900000"/>
<path d="M 1389.267391 1264.453382 L 1388.319241 1263.868023 Q 1000.401140 1460.363862 612.483039 1263.372719 L 611.510578 1263.973087 Q 1000.401140 1461.455557 1389.267391 1264.453382" stroke="#41ae76" stroke-width="0.5" fill="#41ae76" fill-opacity="0.900000"/>
<path d="M 1391.698544 1265.954302 L 1390.410033 1265.158814 Q 1000.388984 1462.771188 610.367936 1264.678520 L 609.079425 1265.474007 Q 1000.388984 1464.254772 1391.698544 1265.954302" stroke="#41ae76" stroke-width="0.5" fill="#41ae76" fill-opacity="0.900000"/>
<path d="M 1395.539766 1268.325755 L 1394.567304 1267.725387 Q 1000.388984 1467.557847 606.210665 1267.245093 L 605.238203 1267.845461 Q 1000.388984 1468.677533 1395.539766 1268.325755" stroke="#41ae76" stroke-width="0.5" fill="#41ae76" fill-opacity="0.900000"/>
<path d="M 1398.554395 1270.186896 L 1396.317734 1268.806049 Q 1000.388984 1469.573282 604.460234 1268.325755 L 602.223574 1269.706601 Q 1000.388984 1472.148561 1398.554395 1270.186896" stroke="#66c2a4" stroke-width="0.5" fill="#66c2a4" fill-opacity="0.900000"/>
<path d="M 1400.280514 1271.252549 L 1399.113560 1270.532107 Q 1000.388984 1472.792380 601.664409 1270.051813 L 600.497455 1270.772255 Q 1000.388984 1474.136004 1400.280514 1271.252549" stroke="#66c2a4" stroke-width="0.5" fill="#66c2a4" fill-opacity="0.900000"/>
<path d="M 1403.197897 1273.053653 L 1402.614421 1272.693432 Q 1000.388984 1476.823251 598.163548 1272.213138 L 597.580072 1272.573359 Q 1000.388984 1477.495063 1403.197897 1273.053653" stroke="#41ae76" stroke-width="0.5" fill="#41ae76" fill-opacity="0.900000"/>
<path d="M 1404.778147 1274.029251 L 1404.486408 1273.849141 Q 1000.388984 1478.978647 596.291561 1273.368846 L 595.999822 1273.548957 Q 1000.388984 1479.314553 1404.778147 1274.029251" stroke="#238b45" stroke-width="0.5" fill="#238b45" fill-opacity="0.900000"/>
<path d="M 1422.574186 1285.015985 L 1405.021262 1274.179343 Q 1000.388984 1479.594475 595.756707 1273.699049 L 578.203783 1284.535691 Q 1000.388984 1499.804812 1422.574186 1285.015985" stroke="#66c2a4" stroke-width="0.5" fill="#66c2a4" fill-opacity="0.900000"/>
<path d="M 1426.220915 1287.267365 L 1425.175520 1286.621969 Q 1000.388984 1502.799973 575.602449 1286.141675 L 574.557053 1286.787071 Q 1000.388984 1504.003636 1426.220915 1287.267365" stroke="#41ae76" stroke-width="0.5" fill="#41ae76" fill-opacity="0.900000"/>
<path d="M 1439.033091 1295.177213 L 1430.135072 1289.683846 Q 1000.388984 1508.510373 570.642897 1289.203552 L 561.744878 1294.696919 Q 1000.388984 1518.755503 1439.033091 1295.177213" stroke="#66c2a4" stroke-width="0.5" fill="#66c2a4" fill-opacity="0.900000"/>
<path d="M 1441.585802 1296.753179 L 1440.661964 1296.182830 Q 1000.388984 1520.630977 560.116005 1295.702535 L 559.192167 1296.272885 Q 1000.388984 1521.694679 1441.585802 1296.753179" stroke="#66c2a4" stroke-width="0.5" fill="#66c2a4" fill-opacity="0.900000"/>
<path d="M 1448.490276 1301.015792 L 1443.287609 1297.803823 Q 1000.388984 1523.654130 557.490360 1297.323529 L 552.287693 1300.535498 Q 1000.388984 1529.644452 1448.490276 1301.015792" stroke="#66c2a4" stroke-width="0.5" fill="#66c2a4" fill-opacity="0.900000"/>
<path d="M 1450.240706 1302.096454 L 1449.170999 1301.436050 Q 1000.388984 1530.428232 551.606970 1300.955755 L 550.537263 1301.616160 Q 1000.388984 1531.659887 1450.240706 1302.096454" stroke="#41ae76" stroke-width="0.5" fill="#41ae76" fill-opacity="0.900000"/>
<path d="M 1454.543847 1304.753083 L 1451.529217 1302.891942 Q 1000.388984 1533.143472 549.248751 1302.411648 L 546.234122 1304.272788 Q 1000.388984 1536.614499 1454.543847 1304.753083" stroke="#66c2a4" stroke-width="0.5" fill="#66c2a4" fill-opacity="0.900000"/>
<path d="M 1457.971773 1306.869380 L 1455.540620 1305.368460 Q 1000.388984 1537.762178 545.237349 1304.888165 L 542.806196 1306.389085 Q 1000.388984 1540.561393 1457.971773 1306.869380" stroke="#66c2a4" stroke-width="0.5" fill="#66c2a4" fill-opacity="0.900000"/>
<path d="M 1458.628184 1307.274628 L 1458.214888 1307.019472 Q 1000.388984 1540.841315 542.563081 1306.539177 L 542.149785 1306.794334 Q 1000.388984 1541.317182 1458.628184 1307.274628" stroke="#41ae76" stroke-width="0.5" fill="#41ae76" fill-opacity="0.900000"/>
<path d="M 1461.983175 1309.345898 L 1461.302452 1308.925640 Q 1000.388984 1544.396319 539.475517 1308.445346 L 538.794794 1308.865603 Q 1000.388984 1545.180099 1461.983175 1309.345898" stroke="#41ae76" stroke-width="0.5" fill="#41ae76" fill-opacity="0.900000"/>
<path d="M 1483.231452 1322.463938 L 1463.928097 1310.546634 Q 1000.388984 1547.419472 536.849872 1310.066339 L 517.546517 1321.983644 Q 1000.388984 1569.645245 1483.231452 1322.463938" stroke="#66c2a4" stroke-width="0.5" fill="#66c2a4" fill-opacity="0.900000"/>
<path d="M 1487.656150 1325.195613 L 1487.242854 1324.940456 Q 1000.279583 1574.263951 513.316311 1324.595245 L 512.903015 1324.850401 Q 1000.279583 1574.739818 1487.656150 1325.195613" stroke="#238b45" stroke-width="0.5" fill="#238b45" fill-opacity="0.900000"/>
<path d="M 1493.782655 1328.977931 L 1493.247802 1328.647729 Q 1000.279583 1581.178014 507.311363 1328.302517 L 506.776510 1328.632719 Q 1000.279583 1581.793841 1493.782655 1328.977931" stroke="#41ae76" stroke-width="0.5" fill="#41ae76" fill-opacity="0.900000"/>
<path d="M 1495.533085 1330.058593 L 1494.706493 1329.548281 Q 1000.279583 1582.857543 505.852672 1329.203069 L 505.026080 1329.713382 Q 1000.279583 1583.809277 1495.533085 1330.058593" stroke="#41ae76" stroke-width="0.5" fill="#41ae76" fill-opacity="0.900000"/>
<path d="M 1497.721123 1331.409421 L 1497.186269 1331.079219 Q 1000.279583 1585.712743 503.372896 1330.734007 L 502.838042 1331.064210 Q 1000.279583 1586.328571 1497.721123 1331.409421" stroke="#238b45" stroke-width="0.5" fill="#238b45" fill-opacity="0.900000"/>
<path d="M 1500.930245 1333.390636 L 1500.516949 1333.135479 Q 1000.279583 1589.547669 500.042216 1332.790268 L 499.628920 1333.045424 Q 1000.279583 1590.023536 1500.930245 1333.390636" stroke="#238b45" stroke-width="0.5" fill="#238b45" fill-opacity="0.900000"/>
<path d="M 1505.087516 1335.957209 L 1503.264152 1334.831519 Q 1000.279583 1592.710783 497.295013 1334.486307 L 495.471649 1335.611997 Q 1000.279583 1594.810194 1505.087516 1335.957209" stroke="#41ae76" stroke-width="0.5" fill="#41ae76" fill-opacity="0.900000"/>
<path d="M 1507.494358 1337.443120 L 1506.521897 1336.842752 Q 1000.279583 1596.461732 494.037268 1336.497540 L 493.064807 1337.097908 Q 1000.279583 1597.581418 1507.494358 1337.443120" stroke="#41ae76" stroke-width="0.5" fill="#41ae76" fill-opacity="0.900000"/>
<path d="M 1511.578695 1339.964665 L 1511.068153 1339.649472 Q 1000.279583 1601.696265 489.491013 1339.304260 L 489.004782 1339.604444 Q 1000.279583 1602.284100 1511.578695 1339.964665" stroke="#238b45" stroke-width="0.5" fill="#238b45" fill-opacity="0.900000"/>
<path d="M 1523.199606 1347.139063 L 1515.492851 1342.381146 Q 1000.133713 1606.790838 484.774576 1342.216045 L 477.140756 1346.928934 Q 1000.133713 1615.664352 1523.199606 1347.139063" stroke="#66c2a4" stroke-width="0.5" fill="#66c2a4" fill-opacity="0.900000"/>
<path d="M 1526.335793 1349.075249 L 1524.245002 1347.784458 Q 1000.170181 1616.868014 476.095360 1347.574329 L 474.004568 1348.865121 Q 1000.170181 1619.275340 1526.335793 1349.075249" stroke="#66c2a4" stroke-width="0.5" fill="#66c2a4" fill-opacity="0.900000"/>
<path d="M 1529.690784 1351.146519 L 1528.329338 1350.306004 Q 1000.170181 1621.570697 472.011023 1350.095875 L 470.649577 1350.936390 Q 1000.170181 1623.138258 1529.690784 1351.146519" stroke="#66c2a4" stroke-width="0.5" fill="#66c2a4" fill-opacity="0.900000"/>
<path d="M 1542.527272 1359.071376 L 1541.724991 1358.576073 Q 1000.060779 1636.994376 458.396567 1358.501027 L 457.594286 1358.996330 Q 1000.060779 1637.918117 1542.527272 1359.071376" stroke="#66c2a4" stroke-width="0.5" fill="#66c2a4" fill-opacity="0.900000"/>
<path d="M 1543.159371 1359.461616 L 1542.916256 1359.311524 Q 1000.060779 1638.365991 457.205302 1359.236478 L 456.962186 1359.386570 Q 1000.060779 1638.645913 1543.159371 1359.461616" stroke="#005824" stroke-width="0.5" fill="#005824" fill-opacity="0.900000"/>
<path d="M 1548.605154 1362.823676 L 1548.167546 1362.553511 Q 1000.060779 1644.412297 451.954011 1362.478465 L 451.516404 1362.748630 Q 1000.060779 1644.916156 1548.605154 1362.823676" stroke="#41ae76" stroke-width="0.5" fill="#41ae76" fill-opacity="0.900000"/>
<path d="M 1550.015223 1363.694210 L 1549.188631 1363.183897 Q 1000.060779 1645.587968 450.932927 1363.108851 L 450.106335 1363.619164 Q 1000.060779 1646.539701 1550.015223 1363.694210" stroke="#238b45" stroke-width="0.5" fill="#238b45" fill-opacity="0.900000"/>
<path d="M 1565.185617 1373.059950 L 1553.272967 1365.705443 Q 1000.060779 1650.290650 446.848590 1365.630397 L 434.935941 1372.984904 Q 1000.060779 1664.006808 1565.185617 1373.059950" stroke="#66c2a4" stroke-width="0.5" fill="#66c2a4" fill-opacity="0.900000"/>
<path d="M 1567.154851 1374.275696 L 1566.547062 1373.900466 Q 1000.060779 1665.574368 433.574495 1373.825420 L 432.966707 1374.200650 Q 1000.060779 1666.274172 1567.154851 1374.275696" stroke="#41ae76" stroke-width="0.5" fill="#41ae76" fill-opacity="0.900000"/>
<path d="M 1572.041468 1377.292545 L 1571.360745 1376.872287 Q 1000.060779 1671.116816 428.760812 1376.797241 L 428.080090 1377.217499 Q 1000.060779 1671.900596 1572.041468 1377.292545" stroke="#41ae76" stroke-width="0.5" fill="#41ae76" fill-opacity="0.900000"/>
<path d="M 1725.179791 1471.835494 L 1725.568775 1472.075641 Q 1075.353585 1848.671070 425.138395 1379.033612 L 424.749410 1379.273759 Q 1075.353585 1848.223195 1725.179791 1471.835494" stroke="#99000d" stroke-width="0.5" fill="#99000d" fill-opacity="0.900000"/>
<path d="M 1587.746716 1386.988488 L 1587.527912 1386.853405 Q 1004.740748 1689.731600 421.953584 1380.999817 L 421.734780 1381.134900 Q 1004.740748 1689.983530 1587.746716 1386.988488" stroke="#005824" stroke-width="0.5" fill="#005824" fill-opacity="0.900000"/>
<path d="M 1636.272528 1416.946850 L 1635.834921 1416.676685 Q 1002.735047 1745.352017 369.635173 1413.299615 L 369.197566 1413.569780 Q 1002.735047 1745.855876 1636.272528 1416.946850" stroke="#41ae76" stroke-width="0.5" fill="#41ae76" fill-opacity="0.900000"/>
<path d="M 1638.509189 1418.327697 L 1638.193139 1418.132577 Q 1002.807982 1748.067256 367.422824 1414.665452 L 367.106774 1414.860572 Q 1002.807982 1748.431154 1638.509189 1418.327697" stroke="#238b45" stroke-width="0.5" fill="#238b45" fill-opacity="0.900000"/>
<path d="M 1644.611383 1422.095006 L 1644.392579 1421.959923 Q 1004.047870 1755.205256 363.703160 1416.961859 L 363.484356 1417.096942 Q 1004.047870 1755.457186 1644.611383 1422.095006" stroke="#005824" stroke-width="0.5" fill="#005824" fill-opacity="0.900000"/>
<path d="M 1643.541676 1421.434601 L 1642.277476 1420.654123 Q 1002.807982 1752.769939 363.338487 1417.186997 L 362.074288 1417.967476 Q 1002.807982 1754.225531 1643.541676 1421.434601" stroke="#66c2a4" stroke-width="0.5" fill="#66c2a4" fill-opacity="0.900000"/>
<path d="M 1647.407209 1423.821064 L 1647.066847 1423.610935 Q 1002.807982 1758.284394 358.549116 1420.143810 L 358.208754 1420.353939 Q 1002.807982 1758.676284 1647.407209 1423.821064" stroke="#238b45" stroke-width="0.5" fill="#238b45" fill-opacity="0.900000"/>
<path d="M 1661.507896 1432.526400 L 1660.729927 1432.046105 Q 1003.136187 1774.015986 345.542448 1428.173732 L 344.764479 1428.654026 Q 1003.136187 1774.911735 1661.507896 1432.526400" stroke="#66c2a4" stroke-width="0.5" fill="#66c2a4" fill-opacity="0.900000"/>
<path d="M 1666.467448 1435.588276 L 1665.324806 1434.882844 Q 1003.136187 1779.306504 340.947569 1431.010470 L 339.804927 1431.715903 Q 1003.136187 1780.622135 1666.467448 1435.588276" stroke="#41ae76" stroke-width="0.5" fill="#41ae76" fill-opacity="0.900000"/>
<path d="M 1747.108790 1485.373792 L 1746.476691 1484.983552 Q 1004.947396 1872.744325 263.418102 1478.874808 L 262.786002 1479.265047 Q 1004.947396 1873.472121 1747.108790 1485.373792" stroke="#41ae76" stroke-width="0.5" fill="#41ae76" fill-opacity="0.900000"/>
<path d="M 1752.797688 1488.885944 L 1750.804143 1487.655190 Q 1004.910929 1877.726929 259.017715 1481.591473 L 257.024170 1482.822228 Q 1004.910929 1880.022286 1752.797688 1488.885944" stroke="#66c2a4" stroke-width="0.5" fill="#66c2a4" fill-opacity="0.900000"/>
<path d="M 1761.671396 1494.364302 L 1761.185166 1494.064118 Q 1004.983864 1889.679581 248.782561 1487.910346 L 248.296331 1488.210530 Q 1004.983864 1890.239424 1761.671396 1494.364302" stroke="#238b45" stroke-width="0.5" fill="#238b45" fill-opacity="0.900000"/>
<path d="M 1765.488306 1496.720747 L 1765.147945 1496.510618 Q 1004.983864 1894.242302 244.819782 1490.356846 L 244.479421 1490.566975 Q 1004.983864 1894.634192 1765.488306 1496.720747" stroke="#238b45" stroke-width="0.5" fill="#238b45" fill-opacity="0.900000"/>
<path d="M 1769.426774 1499.152237 L 1769.207970 1499.017154 Q 1002.929539 1898.916992 236.651108 1495.399937 L 236.432304 1495.535020 Q 1002.929539 1899.168922 1769.426774 1499.152237" stroke="#005824" stroke-width="0.5" fill="#005824" fill-opacity="0.900000"/>
<path d="M 1776.112445 1503.279767 L 1775.650526 1502.994592 Q 1004.935240 1906.334914 234.219955 1496.900857 L 233.758036 1497.186032 Q 1004.935240 1906.866765 1776.112445 1503.279767" stroke="#41ae76" stroke-width="0.5" fill="#41ae76" fill-opacity="0.900000"/>
<text font-size="2.2em" x="1685.148159" y="90.628571" fill="white">Sequence identity (%)</text>
<text font-size="2em" x="1715.148159" y="140.628571" fill="white">Forward | Reverse</text>
<rect x="1800.148159" y="170.628571" width="20" height="20" style="fill:#005824;stroke:white;stroke-width:0.5;fill-opacity:0.9;" />
<text font-size="2em" x="1900.148159" y="190.628571" fill="white">100</text>
<rect x="1850.148159" y="170.628571" width="20" height="20" style="fill:#99000d;stroke:white;stroke-width:0.5;fill-opacity:0.9;" />
<rect x="1800.148159" y="200.628571" width="20" height="20" style="fill:#238b45;stroke:white;stroke-width:0.5;fill-opacity:0.9;" />
<text font-size="2em" x="1900.148159" y="220.628571" fill="white">90+</text>
<rect x="1850.148159" y="200.628571" width="20" height="20" style="fill:#cb181d;stroke:white;stroke-width:0.5;fill-opacity:0.9;" />
<rect x="1800.148159" y="230.628571" width="20" height="20" style="fill:#41ae76;stroke:white;stroke-width:0.5;fill-opacity:0.9;" />
<text font-size="2em" x="1900.148159" y="250.628571" fill="white">80+</text>
<rect x="1850.148159" y="230.628571" width="20" height="20" style="fill:#ef3b2c;stroke:white;stroke-width:0.5;fill-opacity:0.9;" />
<rect x="1800.148159" y="260.628571" width="20" height="20" style="fill:#66c2a4;stroke:white;stroke-width:0.5;fill-opacity:0.9;" />
<text font-size="2em" x="1900.148159" y="280.628571" fill="white">70+</text>
<rect x="1850.148159" y="260.628571" width="20" height="20" style="fill:#fb6a4a;stroke:white;stroke-width:0.5;fill-opacity:0.9;" />
<rect x="1800.148159" y="290.628571" width="20" height="20" style="fill:#99d8c9;stroke:white;stroke-width:0.5;fill-opacity:0.9;" />
<text font-size="2em" x="1900.148159" y="310.628571" fill="white">60+</text>
<rect x="1850.148159" y="290.628571" width="20" height="20" style="fill:#fc9272;stroke:white;stroke-width:0.5;fill-opacity:0.9;" />
<rect x="1800.148159" y="320.628571" width="20" height="20" style="fill:#ccece6;stroke:white;stroke-width:0.5;fill-opacity:0.9;" />
<text font-size="2em" x="1900.148159" y="340.628571" fill="white">50+</text>
<rect x="1850.148159" y="320.628571" width="20" height="20" style="fill:#fcbba1;stroke:white;stroke-width:0.5;fill-opacity:0.9;" />
<rect x="1800.148159" y="350.628571" width="20" height="20" style="fill:#edf8fb;stroke:white;stroke-width:0.5;fill-opacity:0.9;" />
<text font-size="2em" x="1900.148159" y="370.628571" fill="white">0-49</text>
<rect x="1850.148159" y="350.628571" width="20" height="20" style="fill:#fee5d9;stroke:white;stroke-width:0.5;fill-opacity:0.9;" />
<text font-size="2em" x="1685.148159" y="450.628571" fill="white">@WarrenRene 2020 </text>
<text font-size="1.8em" x="1725.148159" y="480.628571" fill="white">xmatchview-hive </text>
</svg>