<?xml version="1.0" encoding="UTF-8"?><svg xmlns="http://www.w3.org/2000/svg" xmlns:xlink="http://www.w3.org/1999/xlink" clip-rule="evenodd" stroke-miterlimit="4.00" viewBox="0 0 1024 768"><desc>SVG generated by Keynote</desc><defs></defs><g transform="matrix(1.00, 0.00, -0.00, -1.00, 0.0, 768.0)"><path d="M 0.0 768.0 L 1024.0 768.0 L 1024.0 0.0 L 0.0 0.0 Z M 0.0 768.0 " fill="#000000"></path><g><clipPath id="clip-390"><path d="M 0.0 0.0 L 1024.0 0.0 L 1024.0 554.0 L 0.0 554.0 Z M 0.0 0.0 "></path></clipPath><g clip-path="url(#clip-390)"><image xlink:href="7B0C4A4EADF5A5D88C9F3BBB551B0237.jpeg" width="1024.00" height="681.00" transform="matrix(1.00, 0.00, -0.00, -1.00, 0.0, 617.0)"></image></g></g><text xml:space="preserve" font-family="Avenir-Light" font-size="62.0" fill="#FEFFFF" transform="matrix(1.00, 0.00, -0.00, -1.00, 56.0, 623.0)">M</text><text xml:space="preserve" font-family="Avenir-Light" font-size="62.0" fill="#FEFFFF" transform="matrix(1.00, 0.00, -0.00, -1.00, 121.0, 623.0)">O</text><text xml:space="preserve" font-family="Avenir-Light" font-size="62.0" fill="#FEFFFF" transform="matrix(1.00, 0.00, -0.00, -1.00, 182.7, 623.0)">U</text><text xml:space="preserve" font-family="Avenir-Light" font-size="62.0" fill="#FEFFFF" transform="matrix(1.00, 0.00, -0.00, -1.00, 235.0, 623.0)">N</text><text xml:space="preserve" font-family="Avenir-Light" font-size="62.0" fill="#FEFFFF" transform="matrix(1.00, 0.00, -0.00, -1.00, 293.1, 623.0)">T</text><text xml:space="preserve" font-family="Avenir-Light" font-size="62.0" fill="#FEFFFF" transform="matrix(1.00, 0.00, -0.00, -1.00, 334.4, 623.0)">A</text><text xml:space="preserve" font-family="Avenir-Light" font-size="62.0" fill="#FEFFFF" transform="matrix(1.00, 0.00, -0.00, -1.00, 386.8, 623.0)">I</text><text xml:space="preserve" font-family="Avenir-Light" font-size="62.0" fill="#FEFFFF" transform="matrix(1.00, 0.00, -0.00, -1.00, 412.9, 623.0)">N</text><text xml:space="preserve" font-family="Avenir-Light" font-size="62.0" fill="#FEFFFF" transform="matrix(1.00, 0.00, -0.00, -1.00, 471.0, 623.0)"> </text><text xml:space="preserve" font-family="Avenir-Light" font-size="62.0" fill="#FEFFFF" transform="matrix(1.00, 0.00, -0.00, -1.00, 497.1, 623.0)">H</text><text xml:space="preserve" font-family="Avenir-Light" font-size="62.0" fill="#FEFFFF" transform="matrix(1.00, 0.00, -0.00, -1.00, 551.8, 623.0)">E</text><text xml:space="preserve" font-family="Avenir-Light" font-size="62.0" fill="#FEFFFF" transform="matrix(1.00, 0.00, -0.00, -1.00, 598.4, 623.0)">R</text><text xml:space="preserve" font-family="Avenir-Light" font-size="62.0" fill="#FEFFFF" transform="matrix(1.00, 0.00, -0.00, -1.00, 645.1, 623.0)">O</text><text xml:space="preserve" font-family="Avenir-Light" font-size="62.0" fill="#FEFFFF" transform="matrix(1.00, 0.00, -0.00, -1.00, 706.8, 623.0)"> </text><text xml:space="preserve" font-family="Avenir-Light" font-size="62.0" fill="#FEFFFF" transform="matrix(1.00, 0.00, -0.00, -1.00, 732.8, 623.0)">T</text><text xml:space="preserve" font-family="Avenir-Light" font-size="62.0" fill="#FEFFFF" transform="matrix(1.00, 0.00, -0.00, -1.00, 778.3, 623.0)">R</text><text xml:space="preserve" font-family="Avenir-Light" font-size="62.0" fill="#FEFFFF" transform="matrix(1.00, 0.00, -0.00, -1.00, 825.0, 623.0)">A</text><text xml:space="preserve" font-family="Avenir-Light" font-size="62.0" fill="#FEFFFF" transform="matrix(1.00, 0.00, -0.00, -1.00, 877.4, 623.0)">I</text><text xml:space="preserve" font-family="Avenir-Light" font-size="62.0" fill="#FEFFFF" transform="matrix(1.00, 0.00, -0.00, -1.00, 903.4, 623.0)">L</text><text xml:space="preserve" font-family="Avenir-Book" font-size="23.3" fill="#FEFFFE" transform="matrix(1.00, 0.00, -0.00, -1.00, 56.0, 701.0)">H</text><text xml:space="preserve" font-family="Avenir-Book" font-size="23.3" fill="#FEFFFE" transform="matrix(1.00, 0.00, -0.00, -1.00, 76.5, 701.0)">I</text><text xml:space="preserve" font-family="Avenir-Book" font-size="23.3" fill="#FEFFFE" transform="matrix(1.00, 0.00, -0.00, -1.00, 86.4, 701.0)">K</text><text xml:space="preserve" font-family="Avenir-Book" font-size="23.3" fill="#FEFFFE" transform="matrix(1.00, 0.00, -0.00, -1.00, 104.8, 701.0)">I</text><text xml:space="preserve" font-family="Avenir-Book" font-size="23.3" fill="#FEFFFE" transform="matrix(1.00, 0.00, -0.00, -1.00, 114.7, 701.0)">N</text><text xml:space="preserve" font-family="Avenir-Book" font-size="23.3" fill="#FEFFFE" transform="matrix(1.00, 0.00, -0.00, -1.00, 136.5, 701.0)">G</text><text xml:space="preserve" font-family="Avenir-Light" font-size="23.4" fill="#FEFFFF" transform="matrix(1.00, 0.00, -0.00, -1.00, 108.0, 25.0)">S</text><text xml:space="preserve" font-family="Avenir-Light" font-size="23.4" fill="#FEFFFF" transform="matrix(1.00, 0.00, -0.00, -1.00, 124.8, 25.0)">I</text><text xml:space="preserve" font-family="Avenir-Light" font-size="23.4" fill="#FEFFFF" transform="matrix(1.00, 0.00, -0.00, -1.00, 134.6, 25.0)">L</text><text xml:space="preserve" font-family="Avenir-Light" font-size="23.4" fill="#FEFFFF" transform="matrix(1.00, 0.00, -0.00, -1.00, 147.9, 25.0)">V</text><text xml:space="preserve" font-family="Avenir-Light" font-size="23.4" fill="#FEFFFF" transform="matrix(1.00, 0.00, -0.00, -1.00, 165.5, 25.0)">E</text><text xml:space="preserve" font-family="Avenir-Light" font-size="23.4" fill="#FEFFFF" transform="matrix(1.00, 0.00, -0.00, -1.00, 183.1, 25.0)">R</text><text xml:space="preserve" font-family="Avenir-Light" font-size="23.4" fill="#FEFFFF" transform="matrix(1.00, 0.00, -0.00, -1.00, 200.7, 25.0)"> </text><text xml:space="preserve" font-family="Avenir-Light" font-size="23.4" fill="#FEFFFF" transform="matrix(1.00, 0.00, -0.00, -1.00, 210.6, 25.0)">M</text><text xml:space="preserve" font-family="Avenir-Light" font-size="23.4" fill="#FEFFFF" transform="matrix(1.00, 0.00, -0.00, -1.00, 235.1, 25.0)">I</text><text xml:space="preserve" font-family="Avenir-Light" font-size="23.4" fill="#FEFFFF" transform="matrix(1.00, 0.00, -0.00, -1.00, 244.9, 25.0)">N</text><text xml:space="preserve" font-family="Avenir-Light" font-size="23.4" fill="#FEFFFF" transform="matrix(1.00, 0.00, -0.00, -1.00, 266.9, 25.0)">I</text><text xml:space="preserve" font-family="Avenir-Light" font-size="23.4" fill="#FEFFFF" transform="matrix(1.00, 0.00, -0.00, -1.00, 276.7, 25.0)">N</text><text xml:space="preserve" font-family="Avenir-Light" font-size="23.4" fill="#FEFFFF" transform="matrix(1.00, 0.00, -0.00, -1.00, 298.7, 25.0)">G</text><text xml:space="preserve" font-family="Avenir-Light" font-size="23.4" fill="#FEFFFF" transform="matrix(1.00, 0.00, -0.00, -1.00, 320.6, 25.0)"> </text><text xml:space="preserve" font-family="Avenir-Light" font-size="23.4" fill="#FEFFFF" transform="matrix(1.00, 0.00, -0.00, -1.00, 330.4, 25.0)">A</text><text xml:space="preserve" font-family="Avenir-Light" font-size="23.4" fill="#FEFFFF" transform="matrix(1.00, 0.00, -0.00, -1.00, 350.2, 25.0)">R</text><text xml:space="preserve" font-family="Avenir-Light" font-size="23.4" fill="#FEFFFF" transform="matrix(1.00, 0.00, -0.00, -1.00, 368.0, 25.0)">T</text><text xml:space="preserve" font-family="Avenir-Light" font-size="23.4" fill="#FEFFFF" transform="matrix(1.00, 0.00, -0.00, -1.00, 385.1, 25.0)">I</text><text xml:space="preserve" font-family="Avenir-Light" font-size="23.4" fill="#FEFFFF" transform="matrix(1.00, 0.00, -0.00, -1.00, 395.0, 25.0)">F</text><text xml:space="preserve" font-family="Avenir-Light" font-size="23.4" fill="#FEFFFF" transform="matrix(1.00, 0.00, -0.00, -1.00, 410.4, 25.0)">A</text><text xml:space="preserve" font-family="Avenir-Light" font-size="23.4" fill="#FEFFFF" transform="matrix(1.00, 0.00, -0.00, -1.00, 430.2, 25.0)">C</text><text xml:space="preserve" font-family="Avenir-Light" font-size="23.4" fill="#FEFFFF" transform="matrix(1.00, 0.00, -0.00, -1.00, 450.4, 25.0)">T</text><text xml:space="preserve" font-family="Avenir-Light" font-size="23.4" fill="#FEFFFF" transform="matrix(1.00, 0.00, -0.00, -1.00, 467.6, 25.0)">S</text><text xml:space="preserve" font-family="Avenir-Light" font-size="23.4" fill="#FEFFFF" transform="matrix(1.00, 0.00, -0.00, -1.00, 484.4, 25.0)"> </text><text xml:space="preserve" font-family="Avenir-Light" font-size="23.4" fill="#FEFFFF" transform="matrix(1.00, 0.00, -0.00, -1.00, 494.2, 25.0)">(</text><text xml:space="preserve" font-family="Avenir-Light" font-size="23.4" fill="#FEFFFF" transform="matrix(1.00, 0.00, -0.00, -1.00, 504.0, 25.0)">C</text><text xml:space="preserve" font-family="Avenir-Light" font-size="23.4" fill="#FEFFFF" transform="matrix(1.00, 0.00, -0.00, -1.00, 524.2, 25.0)">.</text><text xml:space="preserve" font-family="Avenir-Light" font-size="23.4" fill="#FEFFFF" transform="matrix(1.00, 0.00, -0.00, -1.00, 534.1, 25.0)"> </text><text xml:space="preserve" font-family="Avenir-Light" font-size="23.4" fill="#FEFFFF" transform="matrix(1.00, 0.00, -0.00, -1.00, 543.9, 25.0)">1</text><text xml:space="preserve" font-family="Avenir-Light" font-size="23.4" fill="#FEFFFF" transform="matrix(1.00, 0.00, -0.00, -1.00, 559.8, 25.0)">9</text><text xml:space="preserve" font-family="Avenir-Light" font-size="23.4" fill="#FEFFFF" transform="matrix(1.00, 0.00, -0.00, -1.00, 575.7, 25.0)">0</text><text xml:space="preserve" font-family="Avenir-Light" font-size="23.4" fill="#FEFFFF" transform="matrix(1.00, 0.00, -0.00, -1.00, 591.6, 25.0)">5</text><text xml:space="preserve" font-family="Avenir-Light" font-size="23.4" fill="#FEFFFF" transform="matrix(1.00, 0.00, -0.00, -1.00, 607.5, 25.0)">)</text><text xml:space="preserve" font-family="Avenir-Light" font-size="23.4" fill="#FEFFFF" transform="matrix(1.00, 0.00, -0.00, -1.00, 617.4, 25.0)">,</text><text xml:space="preserve" font-family="Avenir-Light" font-size="23.4" fill="#FEFFFF" transform="matrix(1.00, 0.00, -0.00, -1.00, 627.2, 25.0)"> </text><text xml:space="preserve" font-family="Avenir-Light" font-size="23.4" fill="#FEFFFF" transform="matrix(1.00, 0.00, -0.00, -1.00, 637.0, 25.0)">C</text><text xml:space="preserve" font-family="Avenir-Light" font-size="23.4" fill="#FEFFFF" transform="matrix(1.00, 0.00, -0.00, -1.00, 657.2, 25.0)">O</text><text xml:space="preserve" font-family="Avenir-Light" font-size="23.4" fill="#FEFFFF" transform="matrix(1.00, 0.00, -0.00, -1.00, 680.5, 25.0)">N</text><text xml:space="preserve" font-family="Avenir-Light" font-size="23.4" fill="#FEFFFF" transform="matrix(1.00, 0.00, -0.00, -1.00, 702.5, 25.0)">R</text><text xml:space="preserve" font-family="Avenir-Light" font-size="23.4" fill="#FEFFFF" transform="matrix(1.00, 0.00, -0.00, -1.00, 720.1, 25.0)">A</text><text xml:space="preserve" font-family="Avenir-Light" font-size="23.4" fill="#FEFFFF" transform="matrix(1.00, 0.00, -0.00, -1.00, 739.8, 25.0)">D</text><text xml:space="preserve" font-family="Avenir-Light" font-size="23.4" fill="#FEFFFF" transform="matrix(1.00, 0.00, -0.00, -1.00, 760.9, 25.0)"> </text><text xml:space="preserve" font-family="Avenir-Light" font-size="23.4" fill="#FEFFFF" transform="matrix(1.00, 0.00, -0.00, -1.00, 770.8, 25.0)">Y</text><text xml:space="preserve" font-family="Avenir-Light" font-size="23.4" fill="#FEFFFF" transform="matrix(1.00, 0.00, -0.00, -1.00, 787.9, 25.0)">T</text><text xml:space="preserve" font-family="Avenir-Light" font-size="23.4" fill="#FEFFFF" transform="matrix(1.00, 0.00, -0.00, -1.00, 802.5, 25.0)">,</text><text xml:space="preserve" font-family="Avenir-Light" font-size="23.4" fill="#FEFFFF" transform="matrix(1.00, 0.00, -0.00, -1.00, 812.3, 25.0)"> </text><text xml:space="preserve" font-family="Avenir-Light" font-size="23.4" fill="#FEFFFF" transform="matrix(1.00, 0.00, -0.00, -1.00, 822.2, 25.0)">D</text><text xml:space="preserve" font-family="Avenir-Light" font-size="23.4" fill="#FEFFFF" transform="matrix(1.00, 0.00, -0.00, -1.00, 843.3, 25.0)">A</text><text xml:space="preserve" font-family="Avenir-Light" font-size="23.4" fill="#FEFFFF" transform="matrix(1.00, 0.00, -0.00, -1.00, 861.3, 25.0)">Y</text><text xml:space="preserve" font-family="Avenir-Light" font-size="23.4" fill="#FEFFFF" transform="matrix(1.00, 0.00, -0.00, -1.00, 878.5, 25.0)"> </text><text xml:space="preserve" font-family="Avenir-Light" font-size="23.4" fill="#FEFFFF" transform="matrix(1.00, 0.00, -0.00, -1.00, 888.3, 25.0)">6</text></g></svg>