<?xml version="1.0" encoding="UTF-8"?><svg xmlns="http://www.w3.org/2000/svg" xmlns:xlink="http://www.w3.org/1999/xlink" clip-rule="evenodd" stroke-miterlimit="4.00" viewBox="0 0 1024 768"><desc>SVG generated by Keynote</desc><defs></defs><g transform="matrix(1.00, 0.00, -0.00, -1.00, 0.0, 768.0)"><path d="M 0.0 768.0 L 1024.0 768.0 L 1024.0 0.0 L 0.0 0.0 Z M 0.0 768.0 " fill="#000000"></path><g><clipPath id="clip-233"><path d="M 0.0 0.0 L 1024.0 0.0 L 1024.0 554.0 L 0.0 554.0 Z M 0.0 0.0 "></path></clipPath><g clip-path="url(#clip-233)"><image xlink:href="../../ED57FF44-AF8B-44F1-8CDF-9237AA9CC76B/assets/8DA2F32DBC73F036100952F5B2786B08.jpeg" width="1024.00" height="681.00" transform="matrix(1.00, 0.00, -0.00, -1.00, 0.0, 617.0)"></image></g></g><text xml:space="preserve" font-family="Avenir-Light" font-size="62.0" fill="#FEFFFF" transform="matrix(1.00, 0.00, -0.00, -1.00, 55.0, 623.0)">C</text><text xml:space="preserve" font-family="Avenir-Light" font-size="62.0" fill="#FEFFFF" transform="matrix(1.00, 0.00, -0.00, -1.00, 108.6, 623.0)">A</text><text xml:space="preserve" font-family="Avenir-Light" font-size="62.0" fill="#FEFFFF" transform="matrix(1.00, 0.00, -0.00, -1.00, 161.0, 623.0)">R</text><text xml:space="preserve" font-family="Avenir-Light" font-size="62.0" fill="#FEFFFF" transform="matrix(1.00, 0.00, -0.00, -1.00, 207.6, 623.0)">C</text><text xml:space="preserve" font-family="Avenir-Light" font-size="62.0" fill="#FEFFFF" transform="matrix(1.00, 0.00, -0.00, -1.00, 261.2, 623.0)">R</text><text xml:space="preserve" font-family="Avenir-Light" font-size="62.0" fill="#FEFFFF" transform="matrix(1.00, 0.00, -0.00, -1.00, 307.9, 623.0)">O</text><text xml:space="preserve" font-family="Avenir-Light" font-size="62.0" fill="#FEFFFF" transform="matrix(1.00, 0.00, -0.00, -1.00, 369.5, 623.0)">S</text><text xml:space="preserve" font-family="Avenir-Light" font-size="62.0" fill="#FEFFFF" transform="matrix(1.00, 0.00, -0.00, -1.00, 413.9, 623.0)">S</text><text xml:space="preserve" font-family="Avenir-Book" font-size="23.3" fill="#FEFFFE" transform="matrix(1.00, 0.00, -0.00, -1.00, 55.0, 701.0)">D</text><text xml:space="preserve" font-family="Avenir-Book" font-size="23.3" fill="#FEFFFE" transform="matrix(1.00, 0.00, -0.00, -1.00, 76.0, 701.0)">O</text><text xml:space="preserve" font-family="Avenir-Book" font-size="23.3" fill="#FEFFFE" transform="matrix(1.00, 0.00, -0.00, -1.00, 99.1, 701.0)">W</text><text xml:space="preserve" font-family="Avenir-Book" font-size="23.3" fill="#FEFFFE" transform="matrix(1.00, 0.00, -0.00, -1.00, 124.8, 701.0)">N</text><text xml:space="preserve" font-family="Avenir-Book" font-size="23.3" fill="#FEFFFE" transform="matrix(1.00, 0.00, -0.00, -1.00, 146.7, 701.0)">T</text><text xml:space="preserve" font-family="Avenir-Book" font-size="23.3" fill="#FEFFFE" transform="matrix(1.00, 0.00, -0.00, -1.00, 163.7, 701.0)">O</text><text xml:space="preserve" font-family="Avenir-Book" font-size="23.3" fill="#FEFFFE" transform="matrix(1.00, 0.00, -0.00, -1.00, 186.9, 701.0)">W</text><text xml:space="preserve" font-family="Avenir-Book" font-size="23.3" fill="#FEFFFE" transform="matrix(1.00, 0.00, -0.00, -1.00, 212.6, 701.0)">N</text><text xml:space="preserve" font-family="Avenir-Book" font-size="23.3" fill="#FEFFFE" transform="matrix(1.00, 0.00, -0.00, -1.00, 234.4, 701.0)"> </text><text xml:space="preserve" font-family="Avenir-Book" font-size="23.3" fill="#FEFFFE" transform="matrix(1.00, 0.00, -0.00, -1.00, 244.6, 701.0)">H</text><text xml:space="preserve" font-family="Avenir-Book" font-size="23.3" fill="#FEFFFE" transform="matrix(1.00, 0.00, -0.00, -1.00, 265.1, 701.0)">I</text><text xml:space="preserve" font-family="Avenir-Book" font-size="23.3" fill="#FEFFFE" transform="matrix(1.00, 0.00, -0.00, -1.00, 275.0, 701.0)">S</text><text xml:space="preserve" font-family="Avenir-Book" font-size="23.3" fill="#FEFFFE" transform="matrix(1.00, 0.00, -0.00, -1.00, 291.7, 701.0)">T</text><text xml:space="preserve" font-family="Avenir-Book" font-size="23.3" fill="#FEFFFE" transform="matrix(1.00, 0.00, -0.00, -1.00, 308.8, 701.0)">O</text><text xml:space="preserve" font-family="Avenir-Book" font-size="23.3" fill="#FEFFFE" transform="matrix(1.00, 0.00, -0.00, -1.00, 331.9, 701.0)">R</text><text xml:space="preserve" font-family="Avenir-Book" font-size="23.3" fill="#FEFFFE" transform="matrix(1.00, 0.00, -0.00, -1.00, 349.4, 701.0)">I</text><text xml:space="preserve" font-family="Avenir-Book" font-size="23.3" fill="#FEFFFE" transform="matrix(1.00, 0.00, -0.00, -1.00, 359.3, 701.0)">C</text><text xml:space="preserve" font-family="Avenir-Light" font-size="21.1" fill="#FEFFFE" transform="matrix(1.00, 0.00, -0.00, -1.00, 99.0, 564.0)">T</text><text xml:space="preserve" font-family="Avenir-Light" font-size="21.1" fill="#FEFFFE" transform="matrix(1.00, 0.00, -0.00, -1.00, 114.5, 564.0)">H</text><text xml:space="preserve" font-family="Avenir-Light" font-size="21.1" fill="#FEFFFE" transform="matrix(1.00, 0.00, -0.00, -1.00, 133.1, 564.0)">E</text><text xml:space="preserve" font-family="Avenir-Light" font-size="21.1" fill="#FEFFFE" transform="matrix(1.00, 0.00, -0.00, -1.00, 149.0, 564.0)"> </text><text xml:space="preserve" font-family="Avenir-Light" font-size="21.1" fill="#FEFFFE" transform="matrix(1.00, 0.00, -0.00, -1.00, 157.9, 564.0)">S</text><text xml:space="preserve" font-family="Avenir-Light" font-size="21.1" fill="#FEFFFE" transform="matrix(1.00, 0.00, -0.00, -1.00, 173.0, 564.0)">T</text><text xml:space="preserve" font-family="Avenir-Light" font-size="21.1" fill="#FEFFFE" transform="matrix(1.00, 0.00, -0.00, -1.00, 188.5, 564.0)">R</text><text xml:space="preserve" font-family="Avenir-Light" font-size="21.1" fill="#FEFFFE" transform="matrix(1.00, 0.00, -0.00, -1.00, 204.4, 564.0)">U</text><text xml:space="preserve" font-family="Avenir-Light" font-size="21.1" fill="#FEFFFE" transform="matrix(1.00, 0.00, -0.00, -1.00, 222.3, 564.0)">G</text><text xml:space="preserve" font-family="Avenir-Light" font-size="21.1" fill="#FEFFFE" transform="matrix(1.00, 0.00, -0.00, -1.00, 242.1, 564.0)">G</text><text xml:space="preserve" font-family="Avenir-Light" font-size="21.1" fill="#FEFFFE" transform="matrix(1.00, 0.00, -0.00, -1.00, 261.9, 564.0)">L</text><text xml:space="preserve" font-family="Avenir-Light" font-size="21.1" fill="#FEFFFE" transform="matrix(1.00, 0.00, -0.00, -1.00, 275.8, 564.0)">E</text><text xml:space="preserve" font-family="Avenir-Light" font-size="21.1" fill="#FEFFFE" transform="matrix(1.00, 0.00, -0.00, -1.00, 291.7, 564.0)">S</text><text xml:space="preserve" font-family="Avenir-Light" font-size="21.1" fill="#FEFFFE" transform="matrix(1.00, 0.00, -0.00, -1.00, 306.8, 564.0)"> </text><text xml:space="preserve" font-family="Avenir-Light" font-size="21.1" fill="#FEFFFE" transform="matrix(1.00, 0.00, -0.00, -1.00, 315.7, 564.0)">O</text><text xml:space="preserve" font-family="Avenir-Light" font-size="21.1" fill="#FEFFFE" transform="matrix(1.00, 0.00, -0.00, -1.00, 336.7, 564.0)">F</text><text xml:space="preserve" font-family="Avenir-Light" font-size="21.1" fill="#FEFFFE" transform="matrix(1.00, 0.00, -0.00, -1.00, 351.8, 564.0)"> </text><text xml:space="preserve" font-family="Avenir-Light" font-size="21.1" fill="#FEFFFE" transform="matrix(1.00, 0.00, -0.00, -1.00, 360.7, 564.0)">S</text><text xml:space="preserve" font-family="Avenir-Light" font-size="21.1" fill="#FEFFFE" transform="matrix(1.00, 0.00, -0.00, -1.00, 375.8, 564.0)">M</text><text xml:space="preserve" font-family="Avenir-Light" font-size="21.1" fill="#FEFFFE" transform="matrix(1.00, 0.00, -0.00, -1.00, 398.0, 564.0)">A</text><text xml:space="preserve" font-family="Avenir-Light" font-size="21.1" fill="#FEFFFE" transform="matrix(1.00, 0.00, -0.00, -1.00, 415.8, 564.0)">L</text><text xml:space="preserve" font-family="Avenir-Light" font-size="21.1" fill="#FEFFFE" transform="matrix(1.00, 0.00, -0.00, -1.00, 429.8, 564.0)">L</text><text xml:space="preserve" font-family="Avenir-Light" font-size="21.1" fill="#FEFFFE" transform="matrix(1.00, 0.00, -0.00, -1.00, 443.7, 564.0)"> </text><text xml:space="preserve" font-family="Avenir-Light" font-size="21.1" fill="#FEFFFE" transform="matrix(1.00, 0.00, -0.00, -1.00, 452.6, 564.0)">C</text><text xml:space="preserve" font-family="Avenir-Light" font-size="21.1" fill="#FEFFFE" transform="matrix(1.00, 0.00, -0.00, -1.00, 470.8, 564.0)">O</text><text xml:space="preserve" font-family="Avenir-Light" font-size="21.1" fill="#FEFFFE" transform="matrix(1.00, 0.00, -0.00, -1.00, 491.8, 564.0)">M</text><text xml:space="preserve" font-family="Avenir-Light" font-size="21.1" fill="#FEFFFE" transform="matrix(1.00, 0.00, -0.00, -1.00, 514.0, 564.0)">M</text><text xml:space="preserve" font-family="Avenir-Light" font-size="21.1" fill="#FEFFFE" transform="matrix(1.00, 0.00, -0.00, -1.00, 536.1, 564.0)">U</text><text xml:space="preserve" font-family="Avenir-Light" font-size="21.1" fill="#FEFFFE" transform="matrix(1.00, 0.00, -0.00, -1.00, 553.9, 564.0)">N</text><text xml:space="preserve" font-family="Avenir-Light" font-size="21.1" fill="#FEFFFE" transform="matrix(1.00, 0.00, -0.00, -1.00, 573.8, 564.0)">I</text><text xml:space="preserve" font-family="Avenir-Light" font-size="21.1" fill="#FEFFFE" transform="matrix(1.00, 0.00, -0.00, -1.00, 582.6, 564.0)">T</text><text xml:space="preserve" font-family="Avenir-Light" font-size="21.1" fill="#FEFFFE" transform="matrix(1.00, 0.00, -0.00, -1.00, 598.1, 564.0)">I</text><text xml:space="preserve" font-family="Avenir-Light" font-size="21.1" fill="#FEFFFE" transform="matrix(1.00, 0.00, -0.00, -1.00, 607.0, 564.0)">E</text><text xml:space="preserve" font-family="Avenir-Light" font-size="21.1" fill="#FEFFFE" transform="matrix(1.00, 0.00, -0.00, -1.00, 622.9, 564.0)">S</text><text xml:space="preserve" font-family="Avenir-Light" font-size="21.1" fill="#FEFFFE" transform="matrix(1.00, 0.00, -0.00, -1.00, 638.0, 564.0)"> </text><text xml:space="preserve" font-family="Avenir-Light" font-size="21.1" fill="#FEFFFE" transform="matrix(1.00, 0.00, -0.00, -1.00, 646.9, 564.0)">D</text><text xml:space="preserve" font-family="Avenir-Light" font-size="21.1" fill="#FEFFFE" transform="matrix(1.00, 0.00, -0.00, -1.00, 665.9, 564.0)">U</text><text xml:space="preserve" font-family="Avenir-Light" font-size="21.1" fill="#FEFFFE" transform="matrix(1.00, 0.00, -0.00, -1.00, 683.7, 564.0)">R</text><text xml:space="preserve" font-family="Avenir-Light" font-size="21.1" fill="#FEFFFE" transform="matrix(1.00, 0.00, -0.00, -1.00, 699.7, 564.0)">I</text><text xml:space="preserve" font-family="Avenir-Light" font-size="21.1" fill="#FEFFFE" transform="matrix(1.00, 0.00, -0.00, -1.00, 708.5, 564.0)">N</text><text xml:space="preserve" font-family="Avenir-Light" font-size="21.1" fill="#FEFFFE" transform="matrix(1.00, 0.00, -0.00, -1.00, 728.3, 564.0)">G</text><text xml:space="preserve" font-family="Avenir-Light" font-size="21.1" fill="#FEFFFE" transform="matrix(1.00, 0.00, -0.00, -1.00, 748.1, 564.0)"> </text><text xml:space="preserve" font-family="Avenir-Light" font-size="21.1" fill="#FEFFFE" transform="matrix(1.00, 0.00, -0.00, -1.00, 757.0, 564.0)">A</text><text xml:space="preserve" font-family="Avenir-Light" font-size="21.1" fill="#FEFFFE" transform="matrix(1.00, 0.00, -0.00, -1.00, 774.9, 564.0)"> </text><text xml:space="preserve" font-family="Avenir-Light" font-size="21.1" fill="#FEFFFE" transform="matrix(1.00, 0.00, -0.00, -1.00, 783.7, 564.0)">P</text><text xml:space="preserve" font-family="Avenir-Light" font-size="21.1" fill="#FEFFFE" transform="matrix(1.00, 0.00, -0.00, -1.00, 797.7, 564.0)">A</text><text xml:space="preserve" font-family="Avenir-Light" font-size="21.1" fill="#FEFFFE" transform="matrix(1.00, 0.00, -0.00, -1.00, 815.5, 564.0)">N</text><text xml:space="preserve" font-family="Avenir-Light" font-size="21.1" fill="#FEFFFE" transform="matrix(1.00, 0.00, -0.00, -1.00, 835.3, 564.0)">D</text><text xml:space="preserve" font-family="Avenir-Light" font-size="21.1" fill="#FEFFFE" transform="matrix(1.00, 0.00, -0.00, -1.00, 854.4, 564.0)">E</text><text xml:space="preserve" font-family="Avenir-Light" font-size="21.1" fill="#FEFFFE" transform="matrix(1.00, 0.00, -0.00, -1.00, 870.3, 564.0)">M</text><text xml:space="preserve" font-family="Avenir-Light" font-size="21.1" fill="#FEFFFE" transform="matrix(1.00, 0.00, -0.00, -1.00, 892.4, 564.0)">I</text><text xml:space="preserve" font-family="Avenir-Light" font-size="21.1" fill="#FEFFFE" transform="matrix(1.00, 0.00, -0.00, -1.00, 901.3, 564.0)">C</text><text xml:space="preserve" font-family="Avenir-Light" font-size="21.1" fill="#FEFFFE" transform="matrix(1.00, 0.00, -0.00, -1.00, 919.5, 564.0)"> </text></g></svg>