<?xml version="1.0" encoding="UTF-8"?><svg xmlns="http://www.w3.org/2000/svg" xmlns:xlink="http://www.w3.org/1999/xlink" clip-rule="evenodd" stroke-miterlimit="4.00" viewBox="0 0 1024 768"><desc>SVG generated by Keynote</desc><defs></defs><g transform="matrix(1.00, 0.00, -0.00, -1.00, 0.0, 768.0)"><path d="M 0.0 768.0 L 1024.0 768.0 L 1024.0 0.0 L 0.0 0.0 Z M 0.0 768.0 " fill="#000000"></path><g><clipPath id="clip-237"><path d="M 0.0 0.0 L 1024.0 0.0 L 1024.0 554.0 L 0.0 554.0 Z M 0.0 0.0 "></path></clipPath><g clip-path="url(#clip-237)"><image xlink:href="../../ED57FF44-AF8B-44F1-8CDF-9237AA9CC76B/assets/8DA2F32DBC73F036100952F5B2786B08.jpeg" width="1024.00" height="681.00" transform="matrix(1.00, 0.00, -0.00, -1.00, 0.0, 617.0)"></image></g></g><text xml:space="preserve" font-family="Avenir-Light" font-size="62.0" fill="#FEFFFF" transform="matrix(1.00, 0.00, -0.00, -1.00, 55.0, 623.0)">C</text><text xml:space="preserve" font-family="Avenir-Light" font-size="62.0" fill="#FEFFFF" transform="matrix(1.00, 0.00, -0.00, -1.00, 108.6, 623.0)">A</text><text xml:space="preserve" font-family="Avenir-Light" font-size="62.0" fill="#FEFFFF" transform="matrix(1.00, 0.00, -0.00, -1.00, 161.0, 623.0)">R</text><text xml:space="preserve" font-family="Avenir-Light" font-size="62.0" fill="#FEFFFF" transform="matrix(1.00, 0.00, -0.00, -1.00, 207.6, 623.0)">C</text><text xml:space="preserve" font-family="Avenir-Light" font-size="62.0" fill="#FEFFFF" transform="matrix(1.00, 0.00, -0.00, -1.00, 261.2, 623.0)">R</text><text xml:space="preserve" font-family="Avenir-Light" font-size="62.0" fill="#FEFFFF" transform="matrix(1.00, 0.00, -0.00, -1.00, 307.9, 623.0)">O</text><text xml:space="preserve" font-family="Avenir-Light" font-size="62.0" fill="#FEFFFF" transform="matrix(1.00, 0.00, -0.00, -1.00, 369.5, 623.0)">S</text><text xml:space="preserve" font-family="Avenir-Light" font-size="62.0" fill="#FEFFFF" transform="matrix(1.00, 0.00, -0.00, -1.00, 413.9, 623.0)">S</text><text xml:space="preserve" font-family="Avenir-Book" font-size="23.3" fill="#FEFFFE" transform="matrix(1.00, 0.00, -0.00, -1.00, 55.0, 701.0)">D</text><text xml:space="preserve" font-family="Avenir-Book" font-size="23.3" fill="#FEFFFE" transform="matrix(1.00, 0.00, -0.00, -1.00, 76.0, 701.0)">O</text><text xml:space="preserve" font-family="Avenir-Book" font-size="23.3" fill="#FEFFFE" transform="matrix(1.00, 0.00, -0.00, -1.00, 99.1, 701.0)">W</text><text xml:space="preserve" font-family="Avenir-Book" font-size="23.3" fill="#FEFFFE" transform="matrix(1.00, 0.00, -0.00, -1.00, 124.8, 701.0)">N</text><text xml:space="preserve" font-family="Avenir-Book" font-size="23.3" fill="#FEFFFE" transform="matrix(1.00, 0.00, -0.00, -1.00, 146.7, 701.0)">T</text><text xml:space="preserve" font-family="Avenir-Book" font-size="23.3" fill="#FEFFFE" transform="matrix(1.00, 0.00, -0.00, -1.00, 163.7, 701.0)">O</text><text xml:space="preserve" font-family="Avenir-Book" font-size="23.3" fill="#FEFFFE" transform="matrix(1.00, 0.00, -0.00, -1.00, 186.9, 701.0)">W</text><text xml:space="preserve" font-family="Avenir-Book" font-size="23.3" fill="#FEFFFE" transform="matrix(1.00, 0.00, -0.00, -1.00, 212.6, 701.0)">N</text><text xml:space="preserve" font-family="Avenir-Book" font-size="23.3" fill="#FEFFFE" transform="matrix(1.00, 0.00, -0.00, -1.00, 234.4, 701.0)"> </text><text xml:space="preserve" font-family="Avenir-Book" font-size="23.3" fill="#FEFFFE" transform="matrix(1.00, 0.00, -0.00, -1.00, 244.6, 701.0)">H</text><text xml:space="preserve" font-family="Avenir-Book" font-size="23.3" fill="#FEFFFE" transform="matrix(1.00, 0.00, -0.00, -1.00, 265.1, 701.0)">I</text><text xml:space="preserve" font-family="Avenir-Book" font-size="23.3" fill="#FEFFFE" transform="matrix(1.00, 0.00, -0.00, -1.00, 275.0, 701.0)">S</text><text xml:space="preserve" font-family="Avenir-Book" font-size="23.3" fill="#FEFFFE" transform="matrix(1.00, 0.00, -0.00, -1.00, 291.7, 701.0)">T</text><text xml:space="preserve" font-family="Avenir-Book" font-size="23.3" fill="#FEFFFE" transform="matrix(1.00, 0.00, -0.00, -1.00, 308.8, 701.0)">O</text><text xml:space="preserve" font-family="Avenir-Book" font-size="23.3" fill="#FEFFFE" transform="matrix(1.00, 0.00, -0.00, -1.00, 331.9, 701.0)">R</text><text xml:space="preserve" font-family="Avenir-Book" font-size="23.3" fill="#FEFFFE" transform="matrix(1.00, 0.00, -0.00, -1.00, 349.4, 701.0)">I</text><text xml:space="preserve" font-family="Avenir-Book" font-size="23.3" fill="#FEFFFE" transform="matrix(1.00, 0.00, -0.00, -1.00, 359.3, 701.0)">C</text><text xml:space="preserve" font-family="Avenir-Light" font-size="19.9" fill="#FEFFFE" transform="matrix(1.00, 0.00, -0.00, -1.00, 122.0, 565.0)">T</text><text xml:space="preserve" font-family="Avenir-Light" font-size="19.9" fill="#FEFFFE" transform="matrix(1.00, 0.00, -0.00, -1.00, 136.6, 565.0)">H</text><text xml:space="preserve" font-family="Avenir-Light" font-size="19.9" fill="#FEFFFE" transform="matrix(1.00, 0.00, -0.00, -1.00, 154.2, 565.0)">E</text><text xml:space="preserve" font-family="Avenir-Light" font-size="19.9" fill="#FEFFFE" transform="matrix(1.00, 0.00, -0.00, -1.00, 169.2, 565.0)"> </text><text xml:space="preserve" font-family="Avenir-Light" font-size="19.9" fill="#FEFFFE" transform="matrix(1.00, 0.00, -0.00, -1.00, 177.6, 565.0)">S</text><text xml:space="preserve" font-family="Avenir-Light" font-size="19.9" fill="#FEFFFE" transform="matrix(1.00, 0.00, -0.00, -1.00, 191.8, 565.0)">T</text><text xml:space="preserve" font-family="Avenir-Light" font-size="19.9" fill="#FEFFFE" transform="matrix(1.00, 0.00, -0.00, -1.00, 206.4, 565.0)">R</text><text xml:space="preserve" font-family="Avenir-Light" font-size="19.9" fill="#FEFFFE" transform="matrix(1.00, 0.00, -0.00, -1.00, 221.4, 565.0)">U</text><text xml:space="preserve" font-family="Avenir-Light" font-size="19.9" fill="#FEFFFE" transform="matrix(1.00, 0.00, -0.00, -1.00, 238.3, 565.0)">G</text><text xml:space="preserve" font-family="Avenir-Light" font-size="19.9" fill="#FEFFFE" transform="matrix(1.00, 0.00, -0.00, -1.00, 256.9, 565.0)">G</text><text xml:space="preserve" font-family="Avenir-Light" font-size="19.9" fill="#FEFFFE" transform="matrix(1.00, 0.00, -0.00, -1.00, 275.6, 565.0)">L</text><text xml:space="preserve" font-family="Avenir-Light" font-size="19.9" fill="#FEFFFE" transform="matrix(1.00, 0.00, -0.00, -1.00, 288.8, 565.0)">E</text><text xml:space="preserve" font-family="Avenir-Light" font-size="19.9" fill="#FEFFFE" transform="matrix(1.00, 0.00, -0.00, -1.00, 303.8, 565.0)">S</text><text xml:space="preserve" font-family="Avenir-Light" font-size="19.9" fill="#FEFFFE" transform="matrix(1.00, 0.00, -0.00, -1.00, 318.0, 565.0)"> </text><text xml:space="preserve" font-family="Avenir-Light" font-size="19.9" fill="#FEFFFE" transform="matrix(1.00, 0.00, -0.00, -1.00, 326.4, 565.0)">O</text><text xml:space="preserve" font-family="Avenir-Light" font-size="19.9" fill="#FEFFFE" transform="matrix(1.00, 0.00, -0.00, -1.00, 346.2, 565.0)">F</text><text xml:space="preserve" font-family="Avenir-Light" font-size="19.9" fill="#FEFFFE" transform="matrix(1.00, 0.00, -0.00, -1.00, 360.5, 565.0)"> </text><text xml:space="preserve" font-family="Avenir-Light" font-size="19.9" fill="#FEFFFE" transform="matrix(1.00, 0.00, -0.00, -1.00, 368.8, 565.0)">S</text><text xml:space="preserve" font-family="Avenir-Light" font-size="19.9" fill="#FEFFFE" transform="matrix(1.00, 0.00, -0.00, -1.00, 383.1, 565.0)">M</text><text xml:space="preserve" font-family="Avenir-Light" font-size="19.9" fill="#FEFFFE" transform="matrix(1.00, 0.00, -0.00, -1.00, 404.0, 565.0)">A</text><text xml:space="preserve" font-family="Avenir-Light" font-size="19.9" fill="#FEFFFE" transform="matrix(1.00, 0.00, -0.00, -1.00, 420.8, 565.0)">L</text><text xml:space="preserve" font-family="Avenir-Light" font-size="19.9" fill="#FEFFFE" transform="matrix(1.00, 0.00, -0.00, -1.00, 434.0, 565.0)">L</text><text xml:space="preserve" font-family="Avenir-Light" font-size="19.9" fill="#FEFFFE" transform="matrix(1.00, 0.00, -0.00, -1.00, 447.1, 565.0)"> </text><text xml:space="preserve" font-family="Avenir-Light" font-size="19.9" fill="#FEFFFE" transform="matrix(1.00, 0.00, -0.00, -1.00, 455.5, 565.0)">C</text><text xml:space="preserve" font-family="Avenir-Light" font-size="19.9" fill="#FEFFFE" transform="matrix(1.00, 0.00, -0.00, -1.00, 472.7, 565.0)">O</text><text xml:space="preserve" font-family="Avenir-Light" font-size="19.9" fill="#FEFFFE" transform="matrix(1.00, 0.00, -0.00, -1.00, 492.5, 565.0)">M</text><text xml:space="preserve" font-family="Avenir-Light" font-size="19.9" fill="#FEFFFE" transform="matrix(1.00, 0.00, -0.00, -1.00, 513.4, 565.0)">M</text><text xml:space="preserve" font-family="Avenir-Light" font-size="19.9" fill="#FEFFFE" transform="matrix(1.00, 0.00, -0.00, -1.00, 534.3, 565.0)">U</text><text xml:space="preserve" font-family="Avenir-Light" font-size="19.9" fill="#FEFFFE" transform="matrix(1.00, 0.00, -0.00, -1.00, 551.1, 565.0)">N</text><text xml:space="preserve" font-family="Avenir-Light" font-size="19.9" fill="#FEFFFE" transform="matrix(1.00, 0.00, -0.00, -1.00, 569.8, 565.0)">I</text><text xml:space="preserve" font-family="Avenir-Light" font-size="19.9" fill="#FEFFFE" transform="matrix(1.00, 0.00, -0.00, -1.00, 578.1, 565.0)">T</text><text xml:space="preserve" font-family="Avenir-Light" font-size="19.9" fill="#FEFFFE" transform="matrix(1.00, 0.00, -0.00, -1.00, 592.8, 565.0)">I</text><text xml:space="preserve" font-family="Avenir-Light" font-size="19.9" fill="#FEFFFE" transform="matrix(1.00, 0.00, -0.00, -1.00, 601.1, 565.0)">E</text><text xml:space="preserve" font-family="Avenir-Light" font-size="19.9" fill="#FEFFFE" transform="matrix(1.00, 0.00, -0.00, -1.00, 616.1, 565.0)">S</text><text xml:space="preserve" font-family="Avenir-Light" font-size="19.9" fill="#FEFFFE" transform="matrix(1.00, 0.00, -0.00, -1.00, 630.4, 565.0)"> </text><text xml:space="preserve" font-family="Avenir-Light" font-size="19.9" fill="#FEFFFE" transform="matrix(1.00, 0.00, -0.00, -1.00, 638.8, 565.0)">D</text><text xml:space="preserve" font-family="Avenir-Light" font-size="19.9" fill="#FEFFFE" transform="matrix(1.00, 0.00, -0.00, -1.00, 656.7, 565.0)">U</text><text xml:space="preserve" font-family="Avenir-Light" font-size="19.9" fill="#FEFFFE" transform="matrix(1.00, 0.00, -0.00, -1.00, 673.5, 565.0)">R</text><text xml:space="preserve" font-family="Avenir-Light" font-size="19.9" fill="#FEFFFE" transform="matrix(1.00, 0.00, -0.00, -1.00, 688.5, 565.0)">I</text><text xml:space="preserve" font-family="Avenir-Light" font-size="19.9" fill="#FEFFFE" transform="matrix(1.00, 0.00, -0.00, -1.00, 696.9, 565.0)">N</text><text xml:space="preserve" font-family="Avenir-Light" font-size="19.9" fill="#FEFFFE" transform="matrix(1.00, 0.00, -0.00, -1.00, 715.6, 565.0)">G</text><text xml:space="preserve" font-family="Avenir-Light" font-size="19.9" fill="#FEFFFE" transform="matrix(1.00, 0.00, -0.00, -1.00, 734.3, 565.0)"> </text><text xml:space="preserve" font-family="Avenir-Light" font-size="19.9" fill="#FEFFFE" transform="matrix(1.00, 0.00, -0.00, -1.00, 742.6, 565.0)">A</text><text xml:space="preserve" font-family="Avenir-Light" font-size="19.9" fill="#FEFFFE" transform="matrix(1.00, 0.00, -0.00, -1.00, 759.5, 565.0)"> </text><text xml:space="preserve" font-family="Avenir-Light" font-size="19.9" fill="#FEFFFE" transform="matrix(1.00, 0.00, -0.00, -1.00, 767.8, 565.0)">P</text><text xml:space="preserve" font-family="Avenir-Light" font-size="19.9" fill="#FEFFFE" transform="matrix(1.00, 0.00, -0.00, -1.00, 781.0, 565.0)">A</text><text xml:space="preserve" font-family="Avenir-Light" font-size="19.9" fill="#FEFFFE" transform="matrix(1.00, 0.00, -0.00, -1.00, 797.8, 565.0)">N</text><text xml:space="preserve" font-family="Avenir-Light" font-size="19.9" fill="#FEFFFE" transform="matrix(1.00, 0.00, -0.00, -1.00, 816.5, 565.0)">D</text><text xml:space="preserve" font-family="Avenir-Light" font-size="19.9" fill="#FEFFFE" transform="matrix(1.00, 0.00, -0.00, -1.00, 834.4, 565.0)">E</text><text xml:space="preserve" font-family="Avenir-Light" font-size="19.9" fill="#FEFFFE" transform="matrix(1.00, 0.00, -0.00, -1.00, 849.4, 565.0)">M</text><text xml:space="preserve" font-family="Avenir-Light" font-size="19.9" fill="#FEFFFE" transform="matrix(1.00, 0.00, -0.00, -1.00, 870.3, 565.0)">I</text><text xml:space="preserve" font-family="Avenir-Light" font-size="19.9" fill="#FEFFFE" transform="matrix(1.00, 0.00, -0.00, -1.00, 878.7, 565.0)">C</text><text xml:space="preserve" font-family="Avenir-Light" font-size="19.9" fill="#FEFFFE" transform="matrix(1.00, 0.00, -0.00, -1.00, 895.9, 565.0)"> </text></g></svg>