<?xml version="1.0" encoding="UTF-8"?><svg xmlns="http://www.w3.org/2000/svg" xmlns:xlink="http://www.w3.org/1999/xlink" clip-rule="evenodd" stroke-miterlimit="4.00" viewBox="0 0 1024 768"><desc>SVG generated by Keynote</desc><defs></defs><g transform="matrix(1.00, 0.00, -0.00, -1.00, 0.0, 768.0)"><path d="M 0.0 768.0 L 1024.0 768.0 L 1024.0 0.0 L 0.0 0.0 Z M 0.0 768.0 " fill="#000000"></path><g><clipPath id="clip-195"><path d="M 0.0 383.0 L 512.0 383.0 L 512.0 -1.0 L 0.0 -1.0 Z M 0.0 382.8 "></path></clipPath><g clip-path="url(#clip-195)"><image xlink:href="../../2923BA45-EA64-4EA1-9025-4E61E8C4B1B1/assets/E3B35F8BC357DD92444254891A325490.jpeg" width="578.00" height="384.00" transform="matrix(1.00, 0.00, -0.00, -1.00, -33.0, 383.0)"></image></g></g><path d="M 0.0 0.0 L 0.0 384.0 L 512.0 384.0 L 512.0 0.0 L 0.0 0.0 Z M 0.0 0.0 " fill="none" stroke="#000000" stroke-width="3.00" transform="matrix(1.00, 0.00, 0.00, -1.00, 0.0, 382.8)"></path><g><clipPath id="clip-196"><path d="M 0.0 383.0 L 512.0 383.0 L 512.0 767.0 L 0.0 767.0 Z M 0.0 383.0 "></path></clipPath><g clip-path="url(#clip-196)"><image xlink:href="../../2923BA45-EA64-4EA1-9025-4E61E8C4B1B1/assets/E3D5EC05593CF8876F154CDB7223837D.jpeg" width="578.00" height="384.00" transform="matrix(1.00, 0.00, -0.00, -1.00, -33.0, 767.0)"></image></g></g><path d="M 0.0 0.0 L 0.0 384.0 L 512.0 384.0 L 512.0 0.0 L 0.0 0.0 Z M 0.0 0.0 " fill="none" stroke="#000000" stroke-width="3.00" transform="matrix(1.00, 0.00, 0.00, -1.00, 0.0, 767.0)"></path><g><clipPath id="clip-197"><path d="M 512.0 767.0 L 1024.0 767.0 L 1024.0 -1.0 L 512.0 -1.0 Z M 512.0 767.0 "></path></clipPath><g clip-path="url(#clip-197)"><image xlink:href="../../2923BA45-EA64-4EA1-9025-4E61E8C4B1B1/assets/E3944A28A2F39A7C947BA375FB664FB2.jpeg" width="1156.00" height="769.00" transform="matrix(1.00, 0.00, -0.00, -1.00, 190.0, 768.0)"></image></g></g><path d="M 0.0 0.0 L 0.0 767.0 L 512.0 767.0 L 512.0 0.0 L 0.0 0.0 Z M 0.0 0.0 " fill="none" stroke="#000000" stroke-width="3.00" transform="matrix(1.00, 0.00, 0.00, -1.00, 512.0, 767.0)"></path><text xml:space="preserve" font-family="Avenir-Light" font-size="23.3" fill="#000000" transform="matrix(1.00, 0.00, -0.00, -1.00, 557.0, 740.0)">E</text><text xml:space="preserve" font-family="Avenir-Light" font-size="23.3" fill="#000000" transform="matrix(1.00, 0.00, -0.00, -1.00, 574.5, 740.0)">N</text><text xml:space="preserve" font-family="Avenir-Light" font-size="23.3" fill="#000000" transform="matrix(1.00, 0.00, -0.00, -1.00, 596.4, 740.0)">T</text><text xml:space="preserve" font-family="Avenir-Light" font-size="23.3" fill="#000000" transform="matrix(1.00, 0.00, -0.00, -1.00, 613.5, 740.0)">E</text><text xml:space="preserve" font-family="Avenir-Light" font-size="23.3" fill="#000000" transform="matrix(1.00, 0.00, -0.00, -1.00, 631.0, 740.0)">R</text><text xml:space="preserve" font-family="Avenir-Light" font-size="23.3" fill="#000000" transform="matrix(1.00, 0.00, -0.00, -1.00, 648.5, 740.0)">I</text><text xml:space="preserve" font-family="Avenir-Light" font-size="23.3" fill="#000000" transform="matrix(1.00, 0.00, -0.00, -1.00, 658.3, 740.0)">N</text><text xml:space="preserve" font-family="Avenir-Light" font-size="23.3" fill="#000000" transform="matrix(1.00, 0.00, -0.00, -1.00, 680.1, 740.0)">G</text><text xml:space="preserve" font-family="Avenir-Light" font-size="23.3" fill="#000000" transform="matrix(1.00, 0.00, -0.00, -1.00, 702.0, 740.0)"> </text><text xml:space="preserve" font-family="Avenir-Light" font-size="23.3" fill="#000000" transform="matrix(1.00, 0.00, -0.00, -1.00, 711.7, 740.0)">Y</text><text xml:space="preserve" font-family="Avenir-Light" font-size="23.3" fill="#000000" transform="matrix(1.00, 0.00, -0.00, -1.00, 728.8, 740.0)">U</text><text xml:space="preserve" font-family="Avenir-Light" font-size="23.3" fill="#000000" transform="matrix(1.00, 0.00, -0.00, -1.00, 748.5, 740.0)">K</text><text xml:space="preserve" font-family="Avenir-Light" font-size="23.3" fill="#000000" transform="matrix(1.00, 0.00, -0.00, -1.00, 766.4, 740.0)">O</text><text xml:space="preserve" font-family="Avenir-Light" font-size="23.3" fill="#000000" transform="matrix(1.00, 0.00, -0.00, -1.00, 789.6, 740.0)">N</text><text xml:space="preserve" font-family="Avenir-Light" font-size="23.3" fill="#000000" transform="matrix(1.00, 0.00, -0.00, -1.00, 811.4, 740.0)"> </text><text xml:space="preserve" font-family="Avenir-Light" font-size="23.3" fill="#000000" transform="matrix(1.00, 0.00, -0.00, -1.00, 821.2, 740.0)">T</text><text xml:space="preserve" font-family="Avenir-Light" font-size="23.3" fill="#000000" transform="matrix(1.00, 0.00, -0.00, -1.00, 838.3, 740.0)">E</text><text xml:space="preserve" font-family="Avenir-Light" font-size="23.3" fill="#000000" transform="matrix(1.00, 0.00, -0.00, -1.00, 855.8, 740.0)">R</text><text xml:space="preserve" font-family="Avenir-Light" font-size="23.3" fill="#000000" transform="matrix(1.00, 0.00, -0.00, -1.00, 873.3, 740.0)">R</text><text xml:space="preserve" font-family="Avenir-Light" font-size="23.3" fill="#000000" transform="matrix(1.00, 0.00, -0.00, -1.00, 890.9, 740.0)">I</text><text xml:space="preserve" font-family="Avenir-Light" font-size="23.3" fill="#000000" transform="matrix(1.00, 0.00, -0.00, -1.00, 900.6, 740.0)">T</text><text xml:space="preserve" font-family="Avenir-Light" font-size="23.3" fill="#000000" transform="matrix(1.00, 0.00, -0.00, -1.00, 917.7, 740.0)">O</text><text xml:space="preserve" font-family="Avenir-Light" font-size="23.3" fill="#000000" transform="matrix(1.00, 0.00, -0.00, -1.00, 940.9, 740.0)">R</text><text xml:space="preserve" font-family="Avenir-Light" font-size="23.3" fill="#000000" transform="matrix(1.00, 0.00, -0.00, -1.00, 958.1, 740.0)">Y</text></g></svg>