<?xml version="1.0" encoding="UTF-8"?><svg xmlns="http://www.w3.org/2000/svg" xmlns:xlink="http://www.w3.org/1999/xlink" clip-rule="evenodd" stroke-miterlimit="4.00" viewBox="0 0 1024 768"><desc>SVG generated by Keynote</desc><defs></defs><g transform="matrix(1.00, 0.00, -0.00, -1.00, 0.0, 768.0)"><path d="M 0.0 768.0 L 1024.0 768.0 L 1024.0 0.0 L 0.0 0.0 Z M 0.0 768.0 " fill="#000000"></path><g><clipPath id="clip-26"><path d="M 512.0 384.0 L 1024.0 384.0 L 1024.0 0.0 L 512.0 0.0 Z M 512.0 383.8 "></path></clipPath><g clip-path="url(#clip-26)"><image xlink:href="6CC77AD1EC3550190B6613342A690A3D.jpeg" width="578.00" height="384.00" transform="matrix(1.00, 0.00, -0.00, -1.00, 479.0, 384.0)"></image></g></g><path d="M 0.0 0.0 L 0.0 384.0 L 512.0 384.0 L 512.0 0.0 L 0.0 0.0 Z M 0.0 0.0 " fill="none" stroke="#000000" stroke-width="3.00" transform="matrix(1.00, 0.00, 0.00, -1.00, 512.0, 383.8)"></path><g><clipPath id="clip-27"><path d="M 512.0 768.0 L 1024.0 768.0 L 1024.0 384.0 L 512.0 384.0 Z M 512.0 768.0 "></path></clipPath><g clip-path="url(#clip-27)"><image xlink:href="068865392BC80DFF9061DD503B409E4D.jpeg" width="578.00" height="384.00" transform="matrix(1.00, 0.00, -0.00, -1.00, 497.0, 768.0)"></image></g></g><path d="M 0.0 0.0 L 0.0 384.0 L 512.0 384.0 L 512.0 0.0 L 0.0 0.0 Z M 0.0 0.0 " fill="none" stroke="#000000" stroke-width="3.00" transform="matrix(1.00, 0.00, 0.00, -1.00, 512.0, 768.0)"></path><g><clipPath id="clip-28"><path d="M 0.0 0.0 L 512.0 0.0 L 512.0 768.0 L 0.0 768.0 Z M 0.0 0.0 "></path></clipPath><g clip-path="url(#clip-28)"><image xlink:href="5BED43C862CF4E69997C2F526200B478.jpeg" width="1155.00" height="768.00" transform="matrix(1.00, 0.00, -0.00, -1.00, -3.0, 768.0)"></image></g></g><path d="M 0.0 0.0 L 0.0 768.0 L 512.0 768.0 L 512.0 0.0 L 0.0 0.0 Z M 0.0 0.0 " fill="none" stroke="#000000" stroke-width="3.00" transform="matrix(1.00, 0.00, 0.00, -1.00, 0.0, 768.0)"></path><text xml:space="preserve" font-family="Avenir-Light" font-size="22.1" fill="#000000" transform="matrix(1.00, 0.00, -0.00, -1.00, 552.0, 356.0)">W</text><text xml:space="preserve" font-family="Avenir-Light" font-size="22.1" fill="#000000" transform="matrix(1.00, 0.00, -0.00, -1.00, 576.3, 356.0)">H</text><text xml:space="preserve" font-family="Avenir-Light" font-size="22.1" fill="#000000" transform="matrix(1.00, 0.00, -0.00, -1.00, 595.8, 356.0)">I</text><text xml:space="preserve" font-family="Avenir-Light" font-size="22.1" fill="#000000" transform="matrix(1.00, 0.00, -0.00, -1.00, 605.1, 356.0)">T</text><text xml:space="preserve" font-family="Avenir-Light" font-size="22.1" fill="#000000" transform="matrix(1.00, 0.00, -0.00, -1.00, 621.2, 356.0)">E</text><text xml:space="preserve" font-family="Avenir-Light" font-size="22.1" fill="#000000" transform="matrix(1.00, 0.00, -0.00, -1.00, 637.8, 356.0)">H</text><text xml:space="preserve" font-family="Avenir-Light" font-size="22.1" fill="#000000" transform="matrix(1.00, 0.00, -0.00, -1.00, 657.3, 356.0)">O</text><text xml:space="preserve" font-family="Avenir-Light" font-size="22.1" fill="#000000" transform="matrix(1.00, 0.00, -0.00, -1.00, 679.2, 356.0)">R</text><text xml:space="preserve" font-family="Avenir-Light" font-size="22.1" fill="#000000" transform="matrix(1.00, 0.00, -0.00, -1.00, 695.8, 356.0)">S</text><text xml:space="preserve" font-family="Avenir-Light" font-size="22.1" fill="#000000" transform="matrix(1.00, 0.00, -0.00, -1.00, 711.6, 356.0)">E</text><text xml:space="preserve" font-family="Avenir-Light" font-size="22.1" fill="#000000" transform="matrix(1.00, 0.00, -0.00, -1.00, 728.2, 356.0)"> </text><text xml:space="preserve" font-family="Avenir-Light" font-size="22.1" fill="#000000" transform="matrix(1.00, 0.00, -0.00, -1.00, 737.5, 356.0)">Y</text><text xml:space="preserve" font-family="Avenir-Light" font-size="22.1" fill="#000000" transform="matrix(1.00, 0.00, -0.00, -1.00, 753.6, 356.0)">T</text><text xml:space="preserve" font-family="Avenir-Light" font-size="22.1" fill="#000000" transform="matrix(1.00, 0.00, -0.00, -1.00, 767.4, 356.0)">,</text><text xml:space="preserve" font-family="Avenir-Light" font-size="22.1" fill="#000000" transform="matrix(1.00, 0.00, -0.00, -1.00, 776.6, 356.0)"> </text><text xml:space="preserve" font-family="Avenir-Light" font-size="22.1" fill="#000000" transform="matrix(1.00, 0.00, -0.00, -1.00, 785.9, 356.0)">D</text><text xml:space="preserve" font-family="Avenir-Light" font-size="22.1" fill="#000000" transform="matrix(1.00, 0.00, -0.00, -1.00, 805.8, 356.0)">A</text><text xml:space="preserve" font-family="Avenir-Light" font-size="22.1" fill="#000000" transform="matrix(1.00, 0.00, -0.00, -1.00, 822.8, 356.0)">Y</text><text xml:space="preserve" font-family="Avenir-Light" font-size="22.1" fill="#000000" transform="matrix(1.00, 0.00, -0.00, -1.00, 839.0, 356.0)"> </text><text xml:space="preserve" font-family="Avenir-Light" font-size="22.1" fill="#000000" transform="matrix(1.00, 0.00, -0.00, -1.00, 848.2, 356.0)">3</text><text xml:space="preserve" font-family="Avenir-Light" font-size="22.1" fill="#000000" transform="matrix(1.00, 0.00, -0.00, -1.00, 863.2, 356.0)"> </text><text xml:space="preserve" font-family="Avenir-Light" font-size="22.1" fill="#000000" transform="matrix(1.00, 0.00, -0.00, -1.00, 872.5, 356.0)">(</text><text xml:space="preserve" font-family="Avenir-Light" font-size="22.1" fill="#000000" transform="matrix(1.00, 0.00, -0.00, -1.00, 881.7, 356.0)">7</text><text xml:space="preserve" font-family="Avenir-Light" font-size="22.1" fill="#000000" transform="matrix(1.00, 0.00, -0.00, -1.00, 896.7, 356.0)">2</text><text xml:space="preserve" font-family="Avenir-Light" font-size="22.1" fill="#000000" transform="matrix(1.00, 0.00, -0.00, -1.00, 911.7, 356.0)">2</text><text xml:space="preserve" font-family="Avenir-Light" font-size="22.1" fill="#000000" transform="matrix(1.00, 0.00, -0.00, -1.00, 926.7, 356.0)"> </text><text xml:space="preserve" font-family="Avenir-Light" font-size="22.1" fill="#000000" transform="matrix(1.00, 0.00, -0.00, -1.00, 936.0, 356.0)">K</text><text xml:space="preserve" font-family="Avenir-Light" font-size="22.1" fill="#000000" transform="matrix(1.00, 0.00, -0.00, -1.00, 953.0, 356.0)">M</text><text xml:space="preserve" font-family="Avenir-Light" font-size="22.1" fill="#000000" transform="matrix(1.00, 0.00, -0.00, -1.00, 976.1, 356.0)">)</text></g></svg>