<?xml version="1.0" encoding="UTF-8"?><svg xmlns="http://www.w3.org/2000/svg" xmlns:xlink="http://www.w3.org/1999/xlink" clip-rule="evenodd" stroke-miterlimit="4.00" viewBox="0 0 1024 768"><desc>SVG generated by Keynote</desc><defs></defs><g transform="matrix(1.00, 0.00, -0.00, -1.00, 0.0, 768.0)"><path d="M 0.0 768.0 L 1024.0 768.0 L 1024.0 0.0 L 0.0 0.0 Z M 0.0 768.0 " fill="#000000"></path><g><clipPath id="clip-92"><path d="M 0.0 588.0 L 1024.0 588.0 L 1024.0 34.0 L 0.0 34.0 Z M 0.0 587.6 "></path></clipPath><g clip-path="url(#clip-92)"><image xlink:href="3E8BB76BD9577506D46F9B30366A4A79.jpeg" width="1024.00" height="681.00" transform="matrix(1.00, 0.00, -0.00, -1.00, 0.0, 612.0)"></image></g></g><text xml:space="preserve" font-family="Avenir-Book" font-size="19.9" fill="#FEFFFE" transform="matrix(1.00, 0.00, -0.00, -1.00, 65.0, 10.0)">N</text><text xml:space="preserve" font-family="Avenir-Book" font-size="19.9" fill="#FEFFFE" transform="matrix(1.00, 0.00, -0.00, -1.00, 83.7, 10.0)">O</text><text xml:space="preserve" font-family="Avenir-Book" font-size="19.9" fill="#FEFFFE" transform="matrix(1.00, 0.00, -0.00, -1.00, 103.5, 10.0)">R</text><text xml:space="preserve" font-family="Avenir-Book" font-size="19.9" fill="#FEFFFE" transform="matrix(1.00, 0.00, -0.00, -1.00, 118.6, 10.0)">T</text><text xml:space="preserve" font-family="Avenir-Book" font-size="19.9" fill="#FEFFFE" transform="matrix(1.00, 0.00, -0.00, -1.00, 133.2, 10.0)">H</text><text xml:space="preserve" font-family="Avenir-Book" font-size="19.9" fill="#FEFFFE" transform="matrix(1.00, 0.00, -0.00, -1.00, 150.8, 10.0)">E</text><text xml:space="preserve" font-family="Avenir-Book" font-size="19.9" fill="#FEFFFE" transform="matrix(1.00, 0.00, -0.00, -1.00, 165.8, 10.0)">R</text><text xml:space="preserve" font-family="Avenir-Book" font-size="19.9" fill="#FEFFFE" transform="matrix(1.00, 0.00, -0.00, -1.00, 180.8, 10.0)">N</text><text xml:space="preserve" font-family="Avenir-Book" font-size="19.9" fill="#FEFFFE" transform="matrix(1.00, 0.00, -0.00, -1.00, 199.5, 10.0)"> </text><text xml:space="preserve" font-family="Avenir-Book" font-size="19.9" fill="#FEFFFE" transform="matrix(1.00, 0.00, -0.00, -1.00, 208.2, 10.0)">R</text><text xml:space="preserve" font-family="Avenir-Book" font-size="19.9" fill="#FEFFFE" transform="matrix(1.00, 0.00, -0.00, -1.00, 223.2, 10.0)">O</text><text xml:space="preserve" font-family="Avenir-Book" font-size="19.9" fill="#FEFFFE" transform="matrix(1.00, 0.00, -0.00, -1.00, 243.0, 10.0)">C</text><text xml:space="preserve" font-family="Avenir-Book" font-size="19.9" fill="#FEFFFE" transform="matrix(1.00, 0.00, -0.00, -1.00, 260.2, 10.0)">K</text><text xml:space="preserve" font-family="Avenir-Book" font-size="19.9" fill="#FEFFFE" transform="matrix(1.00, 0.00, -0.00, -1.00, 276.0, 10.0)">Y</text><text xml:space="preserve" font-family="Avenir-Book" font-size="19.9" fill="#FEFFFE" transform="matrix(1.00, 0.00, -0.00, -1.00, 290.6, 10.0)"> </text><text xml:space="preserve" font-family="Avenir-Book" font-size="19.9" fill="#FEFFFE" transform="matrix(1.00, 0.00, -0.00, -1.00, 299.3, 10.0)">M</text><text xml:space="preserve" font-family="Avenir-Book" font-size="19.9" fill="#FEFFFE" transform="matrix(1.00, 0.00, -0.00, -1.00, 320.2, 10.0)">O</text><text xml:space="preserve" font-family="Avenir-Book" font-size="19.9" fill="#FEFFFE" transform="matrix(1.00, 0.00, -0.00, -1.00, 340.0, 10.0)">U</text><text xml:space="preserve" font-family="Avenir-Book" font-size="19.9" fill="#FEFFFE" transform="matrix(1.00, 0.00, -0.00, -1.00, 356.9, 10.0)">N</text><text xml:space="preserve" font-family="Avenir-Book" font-size="19.9" fill="#FEFFFE" transform="matrix(1.00, 0.00, -0.00, -1.00, 375.6, 10.0)">T</text><text xml:space="preserve" font-family="Avenir-Book" font-size="19.9" fill="#FEFFFE" transform="matrix(1.00, 0.00, -0.00, -1.00, 388.8, 10.0)">A</text><text xml:space="preserve" font-family="Avenir-Book" font-size="19.9" fill="#FEFFFE" transform="matrix(1.00, 0.00, -0.00, -1.00, 405.7, 10.0)">I</text><text xml:space="preserve" font-family="Avenir-Book" font-size="19.9" fill="#FEFFFE" transform="matrix(1.00, 0.00, -0.00, -1.00, 414.1, 10.0)">N</text><text xml:space="preserve" font-family="Avenir-Book" font-size="19.9" fill="#FEFFFE" transform="matrix(1.00, 0.00, -0.00, -1.00, 432.8, 10.0)">S</text><text xml:space="preserve" font-family="Avenir-Book" font-size="19.9" fill="#FEFFFE" transform="matrix(1.00, 0.00, -0.00, -1.00, 447.1, 10.0)">,</text><text xml:space="preserve" font-family="Avenir-Book" font-size="19.9" fill="#FEFFFE" transform="matrix(1.00, 0.00, -0.00, -1.00, 455.8, 10.0)"> </text><text xml:space="preserve" font-family="Avenir-Book" font-size="19.9" fill="#FEFFFE" transform="matrix(1.00, 0.00, -0.00, -1.00, 464.5, 10.0)">S</text><text xml:space="preserve" font-family="Avenir-Book" font-size="19.9" fill="#FEFFFE" transform="matrix(1.00, 0.00, -0.00, -1.00, 478.8, 10.0)">T</text><text xml:space="preserve" font-family="Avenir-Book" font-size="19.9" fill="#FEFFFE" transform="matrix(1.00, 0.00, -0.00, -1.00, 493.4, 10.0)">O</text><text xml:space="preserve" font-family="Avenir-Book" font-size="19.9" fill="#FEFFFE" transform="matrix(1.00, 0.00, -0.00, -1.00, 513.2, 10.0)">N</text><text xml:space="preserve" font-family="Avenir-Book" font-size="19.9" fill="#FEFFFE" transform="matrix(1.00, 0.00, -0.00, -1.00, 531.9, 10.0)">E</text><text xml:space="preserve" font-family="Avenir-Book" font-size="19.9" fill="#FEFFFE" transform="matrix(1.00, 0.00, -0.00, -1.00, 546.9, 10.0)"> </text><text xml:space="preserve" font-family="Avenir-Book" font-size="19.9" fill="#FEFFFE" transform="matrix(1.00, 0.00, -0.00, -1.00, 555.6, 10.0)">M</text><text xml:space="preserve" font-family="Avenir-Book" font-size="19.9" fill="#FEFFFE" transform="matrix(1.00, 0.00, -0.00, -1.00, 576.5, 10.0)">O</text><text xml:space="preserve" font-family="Avenir-Book" font-size="19.9" fill="#FEFFFE" transform="matrix(1.00, 0.00, -0.00, -1.00, 596.3, 10.0)">U</text><text xml:space="preserve" font-family="Avenir-Book" font-size="19.9" fill="#FEFFFE" transform="matrix(1.00, 0.00, -0.00, -1.00, 613.2, 10.0)">N</text><text xml:space="preserve" font-family="Avenir-Book" font-size="19.9" fill="#FEFFFE" transform="matrix(1.00, 0.00, -0.00, -1.00, 631.9, 10.0)">T</text><text xml:space="preserve" font-family="Avenir-Book" font-size="19.9" fill="#FEFFFE" transform="matrix(1.00, 0.00, -0.00, -1.00, 645.1, 10.0)">A</text><text xml:space="preserve" font-family="Avenir-Book" font-size="19.9" fill="#FEFFFE" transform="matrix(1.00, 0.00, -0.00, -1.00, 662.0, 10.0)">I</text><text xml:space="preserve" font-family="Avenir-Book" font-size="19.9" fill="#FEFFFE" transform="matrix(1.00, 0.00, -0.00, -1.00, 670.4, 10.0)">N</text><text xml:space="preserve" font-family="Avenir-Book" font-size="19.9" fill="#FEFFFE" transform="matrix(1.00, 0.00, -0.00, -1.00, 689.1, 10.0)"> </text><text xml:space="preserve" font-family="Avenir-Book" font-size="19.9" fill="#FEFFFE" transform="matrix(1.00, 0.00, -0.00, -1.00, 697.8, 10.0)">P</text><text xml:space="preserve" font-family="Avenir-Book" font-size="19.9" fill="#FEFFFE" transform="matrix(1.00, 0.00, -0.00, -1.00, 712.5, 10.0)">R</text><text xml:space="preserve" font-family="Avenir-Book" font-size="19.9" fill="#FEFFFE" transform="matrix(1.00, 0.00, -0.00, -1.00, 727.5, 10.0)">O</text><text xml:space="preserve" font-family="Avenir-Book" font-size="19.9" fill="#FEFFFE" transform="matrix(1.00, 0.00, -0.00, -1.00, 747.3, 10.0)">V</text><text xml:space="preserve" font-family="Avenir-Book" font-size="19.9" fill="#FEFFFE" transform="matrix(1.00, 0.00, -0.00, -1.00, 762.6, 10.0)">I</text><text xml:space="preserve" font-family="Avenir-Book" font-size="19.9" fill="#FEFFFE" transform="matrix(1.00, 0.00, -0.00, -1.00, 771.1, 10.0)">N</text><text xml:space="preserve" font-family="Avenir-Book" font-size="19.9" fill="#FEFFFE" transform="matrix(1.00, 0.00, -0.00, -1.00, 789.7, 10.0)">C</text><text xml:space="preserve" font-family="Avenir-Book" font-size="19.9" fill="#FEFFFE" transform="matrix(1.00, 0.00, -0.00, -1.00, 807.0, 10.0)">I</text><text xml:space="preserve" font-family="Avenir-Book" font-size="19.9" fill="#FEFFFE" transform="matrix(1.00, 0.00, -0.00, -1.00, 815.4, 10.0)">A</text><text xml:space="preserve" font-family="Avenir-Book" font-size="19.9" fill="#FEFFFE" transform="matrix(1.00, 0.00, -0.00, -1.00, 832.3, 10.0)">L</text><text xml:space="preserve" font-family="Avenir-Book" font-size="19.9" fill="#FEFFFE" transform="matrix(1.00, 0.00, -0.00, -1.00, 845.4, 10.0)"> </text><text xml:space="preserve" font-family="Avenir-Book" font-size="19.9" fill="#FEFFFE" transform="matrix(1.00, 0.00, -0.00, -1.00, 854.1, 10.0)">P</text><text xml:space="preserve" font-family="Avenir-Book" font-size="19.9" fill="#FEFFFE" transform="matrix(1.00, 0.00, -0.00, -1.00, 867.3, 10.0)">A</text><text xml:space="preserve" font-family="Avenir-Book" font-size="19.9" fill="#FEFFFE" transform="matrix(1.00, 0.00, -0.00, -1.00, 884.1, 10.0)">R</text><text xml:space="preserve" font-family="Avenir-Book" font-size="19.9" fill="#FEFFFE" transform="matrix(1.00, 0.00, -0.00, -1.00, 899.1, 10.0)">K</text><text xml:space="preserve" font-family="Avenir-Book" font-size="19.9" fill="#FEFFFE" transform="matrix(1.00, 0.00, -0.00, -1.00, 914.9, 10.0)"> </text><text xml:space="preserve" font-family="Avenir-Book" font-size="19.9" fill="#FEFFFE" transform="matrix(1.00, 0.00, -0.00, -1.00, 923.6, 10.0)">B</text><text xml:space="preserve" font-family="Avenir-Book" font-size="19.9" fill="#FEFFFE" transform="matrix(1.00, 0.00, -0.00, -1.00, 939.3, 10.0)">C</text><text xml:space="preserve" font-family="Avenir-Light" font-size="24.0" fill="#55D6FF" transform="matrix(1.00, 0.00, -0.00, -1.00, 318.0, 611.0)">—</text><text xml:space="preserve" font-family="Avenir-Light" font-size="24.0" fill="#55D6FF" transform="matrix(1.00, 0.00, -0.00, -1.00, 345.8, 611.0)">R</text><text xml:space="preserve" font-family="Avenir-Light" font-size="24.0" fill="#55D6FF" transform="matrix(1.00, 0.00, -0.00, -1.00, 363.9, 611.0)">A</text><text xml:space="preserve" font-family="Avenir-Light" font-size="24.0" fill="#55D6FF" transform="matrix(1.00, 0.00, -0.00, -1.00, 384.2, 611.0)">L</text><text xml:space="preserve" font-family="Avenir-Light" font-size="24.0" fill="#55D6FF" transform="matrix(1.00, 0.00, -0.00, -1.00, 400.0, 611.0)">P</text><text xml:space="preserve" font-family="Avenir-Light" font-size="24.0" fill="#55D6FF" transform="matrix(1.00, 0.00, -0.00, -1.00, 417.6, 611.0)">H</text><text xml:space="preserve" font-family="Avenir-Light" font-size="24.0" fill="#55D6FF" transform="matrix(1.00, 0.00, -0.00, -1.00, 438.8, 611.0)"> </text><text xml:space="preserve" font-family="Avenir-Light" font-size="24.0" fill="#55D6FF" transform="matrix(1.00, 0.00, -0.00, -1.00, 448.9, 611.0)">W</text><text xml:space="preserve" font-family="Avenir-Light" font-size="24.0" fill="#55D6FF" transform="matrix(1.00, 0.00, -0.00, -1.00, 475.0, 611.0)">A</text><text xml:space="preserve" font-family="Avenir-Light" font-size="24.0" fill="#55D6FF" transform="matrix(1.00, 0.00, -0.00, -1.00, 495.2, 611.0)">L</text><text xml:space="preserve" font-family="Avenir-Light" font-size="24.0" fill="#55D6FF" transform="matrix(1.00, 0.00, -0.00, -1.00, 511.1, 611.0)">D</text><text xml:space="preserve" font-family="Avenir-Light" font-size="24.0" fill="#55D6FF" transform="matrix(1.00, 0.00, -0.00, -1.00, 532.7, 611.0)">O</text><text xml:space="preserve" font-family="Avenir-Light" font-size="24.0" fill="#55D6FF" transform="matrix(1.00, 0.00, -0.00, -1.00, 556.6, 611.0)"> </text><text xml:space="preserve" font-family="Avenir-Light" font-size="24.0" fill="#55D6FF" transform="matrix(1.00, 0.00, -0.00, -1.00, 566.6, 611.0)">E</text><text xml:space="preserve" font-family="Avenir-Light" font-size="24.0" fill="#55D6FF" transform="matrix(1.00, 0.00, -0.00, -1.00, 584.7, 611.0)">M</text><text xml:space="preserve" font-family="Avenir-Light" font-size="24.0" fill="#55D6FF" transform="matrix(1.00, 0.00, -0.00, -1.00, 609.9, 611.0)">E</text><text xml:space="preserve" font-family="Avenir-Light" font-size="24.0" fill="#55D6FF" transform="matrix(1.00, 0.00, -0.00, -1.00, 628.0, 611.0)">R</text><text xml:space="preserve" font-family="Avenir-Light" font-size="24.0" fill="#55D6FF" transform="matrix(1.00, 0.00, -0.00, -1.00, 646.0, 611.0)">S</text><text xml:space="preserve" font-family="Avenir-Light" font-size="24.0" fill="#55D6FF" transform="matrix(1.00, 0.00, -0.00, -1.00, 663.2, 611.0)">O</text><text xml:space="preserve" font-family="Avenir-Light" font-size="24.0" fill="#55D6FF" transform="matrix(1.00, 0.00, -0.00, -1.00, 687.1, 611.0)">N</text><text xml:space="preserve" font-family="Avenir-Light" font-size="42.0" fill="#FEFFFE" transform="matrix(1.00, 0.00, -0.00, -1.00, 6.0, 669.0)">“</text><text xml:space="preserve" font-family="Avenir-Light" font-size="42.0" fill="#FEFFFE" transform="matrix(1.00, 0.00, -0.00, -1.00, 27.8, 669.0)">I</text><text xml:space="preserve" font-family="Avenir-Light" font-size="42.0" fill="#FEFFFE" transform="matrix(1.00, 0.00, -0.00, -1.00, 38.8, 669.0)">t</text><text xml:space="preserve" font-family="Avenir-Light" font-size="42.0" fill="#FEFFFE" transform="matrix(1.00, 0.00, -0.00, -1.00, 52.8, 669.0)">’</text><text xml:space="preserve" font-family="Avenir-Light" font-size="42.0" fill="#FEFFFE" transform="matrix(1.00, 0.00, -0.00, -1.00, 59.0, 669.0)">s</text><text xml:space="preserve" font-family="Avenir-Light" font-size="42.0" fill="#FEFFFE" transform="matrix(1.00, 0.00, -0.00, -1.00, 76.9, 669.0)"> </text><text xml:space="preserve" font-family="Avenir-Light" font-size="42.0" fill="#FEFFFE" transform="matrix(1.00, 0.00, -0.00, -1.00, 87.9, 669.0)">n</text><text xml:space="preserve" font-family="Avenir-Light" font-size="42.0" fill="#FEFFFE" transform="matrix(1.00, 0.00, -0.00, -1.00, 111.2, 669.0)">o</text><text xml:space="preserve" font-family="Avenir-Light" font-size="42.0" fill="#FEFFFE" transform="matrix(1.00, 0.00, -0.00, -1.00, 136.2, 669.0)">t</text><text xml:space="preserve" font-family="Avenir-Light" font-size="42.0" fill="#FEFFFE" transform="matrix(1.00, 0.00, -0.00, -1.00, 150.1, 669.0)"> </text><text xml:space="preserve" font-family="Avenir-Light" font-size="42.0" fill="#FEFFFE" transform="matrix(1.00, 0.00, -0.00, -1.00, 161.1, 669.0)">a</text><text xml:space="preserve" font-family="Avenir-Light" font-size="42.0" fill="#FEFFFE" transform="matrix(1.00, 0.00, -0.00, -1.00, 182.9, 669.0)">b</text><text xml:space="preserve" font-family="Avenir-Light" font-size="42.0" fill="#FEFFFE" transform="matrix(1.00, 0.00, -0.00, -1.00, 208.5, 669.0)">o</text><text xml:space="preserve" font-family="Avenir-Light" font-size="42.0" fill="#FEFFFE" transform="matrix(1.00, 0.00, -0.00, -1.00, 233.5, 669.0)">u</text><text xml:space="preserve" font-family="Avenir-Light" font-size="42.0" fill="#FEFFFE" transform="matrix(1.00, 0.00, -0.00, -1.00, 256.8, 669.0)">t</text><text xml:space="preserve" font-family="Avenir-Light" font-size="42.0" fill="#FEFFFE" transform="matrix(1.00, 0.00, -0.00, -1.00, 270.8, 669.0)"> </text><text xml:space="preserve" font-family="Avenir-Light" font-size="42.0" fill="#FEFFFE" transform="matrix(1.00, 0.00, -0.00, -1.00, 281.7, 669.0)">t</text><text xml:space="preserve" font-family="Avenir-Light" font-size="42.0" fill="#FEFFFE" transform="matrix(1.00, 0.00, -0.00, -1.00, 295.8, 669.0)">h</text><text xml:space="preserve" font-family="Avenir-Light" font-size="42.0" fill="#FEFFFE" transform="matrix(1.00, 0.00, -0.00, -1.00, 319.1, 669.0)">e</text><text xml:space="preserve" font-family="Avenir-Light" font-size="42.0" fill="#FEFFFE" transform="matrix(1.00, 0.00, -0.00, -1.00, 342.5, 669.0)"> </text><text xml:space="preserve" font-family="Avenir-Light" font-size="42.0" fill="#FEFFFE" transform="matrix(1.00, 0.00, -0.00, -1.00, 353.4, 669.0)">d</text><text xml:space="preserve" font-family="Avenir-Light" font-size="42.0" fill="#FEFFFE" transform="matrix(1.00, 0.00, -0.00, -1.00, 379.0, 669.0)">e</text><text xml:space="preserve" font-family="Avenir-Light" font-size="42.0" fill="#FEFFFE" transform="matrix(1.00, 0.00, -0.00, -1.00, 402.4, 669.0)">s</text><text xml:space="preserve" font-family="Avenir-Light" font-size="42.0" fill="#FEFFFE" transform="matrix(1.00, 0.00, -0.00, -1.00, 420.3, 669.0)">t</text><text xml:space="preserve" font-family="Avenir-Light" font-size="42.0" fill="#FEFFFE" transform="matrix(1.00, 0.00, -0.00, -1.00, 434.3, 669.0)">i</text><text xml:space="preserve" font-family="Avenir-Light" font-size="42.0" fill="#FEFFFE" transform="matrix(1.00, 0.00, -0.00, -1.00, 444.4, 669.0)">n</text><text xml:space="preserve" font-family="Avenir-Light" font-size="42.0" fill="#FEFFFE" transform="matrix(1.00, 0.00, -0.00, -1.00, 467.7, 669.0)">a</text><text xml:space="preserve" font-family="Avenir-Light" font-size="42.0" fill="#FEFFFE" transform="matrix(1.00, 0.00, -0.00, -1.00, 489.5, 669.0)">t</text><text xml:space="preserve" font-family="Avenir-Light" font-size="42.0" fill="#FEFFFE" transform="matrix(1.00, 0.00, -0.00, -1.00, 503.6, 669.0)">i</text><text xml:space="preserve" font-family="Avenir-Light" font-size="42.0" fill="#FEFFFE" transform="matrix(1.00, 0.00, -0.00, -1.00, 513.7, 669.0)">o</text><text xml:space="preserve" font-family="Avenir-Light" font-size="42.0" fill="#FEFFFE" transform="matrix(1.00, 0.00, -0.00, -1.00, 538.6, 669.0)">n</text><text xml:space="preserve" font-family="Avenir-Light" font-size="42.0" fill="#FEFFFE" transform="matrix(1.00, 0.00, -0.00, -1.00, 562.0, 669.0)">,</text><text xml:space="preserve" font-family="Avenir-Light" font-size="42.0" fill="#FEFFFE" transform="matrix(1.00, 0.00, -0.00, -1.00, 572.9, 669.0)"> </text><text xml:space="preserve" font-family="Avenir-Light" font-size="42.0" fill="#FEFFFE" transform="matrix(1.00, 0.00, -0.00, -1.00, 583.8, 669.0)">b</text><text xml:space="preserve" font-family="Avenir-Light" font-size="42.0" fill="#FEFFFE" transform="matrix(1.00, 0.00, -0.00, -1.00, 609.5, 669.0)">u</text><text xml:space="preserve" font-family="Avenir-Light" font-size="42.0" fill="#FEFFFE" transform="matrix(1.00, 0.00, -0.00, -1.00, 632.8, 669.0)">t</text><text xml:space="preserve" font-family="Avenir-Light" font-size="42.0" fill="#FEFFFE" transform="matrix(1.00, 0.00, -0.00, -1.00, 646.8, 669.0)"> </text><text xml:space="preserve" font-family="Avenir-Light" font-size="42.0" fill="#FEFFFE" transform="matrix(1.00, 0.00, -0.00, -1.00, 657.7, 669.0)">a</text><text xml:space="preserve" font-family="Avenir-Light" font-size="42.0" fill="#FEFFFE" transform="matrix(1.00, 0.00, -0.00, -1.00, 679.5, 669.0)">b</text><text xml:space="preserve" font-family="Avenir-Light" font-size="42.0" fill="#FEFFFE" transform="matrix(1.00, 0.00, -0.00, -1.00, 705.2, 669.0)">o</text><text xml:space="preserve" font-family="Avenir-Light" font-size="42.0" fill="#FEFFFE" transform="matrix(1.00, 0.00, -0.00, -1.00, 730.1, 669.0)">u</text><text xml:space="preserve" font-family="Avenir-Light" font-size="42.0" fill="#FEFFFE" transform="matrix(1.00, 0.00, -0.00, -1.00, 753.5, 669.0)">t</text><text xml:space="preserve" font-family="Avenir-Light" font-size="42.0" fill="#FEFFFE" transform="matrix(1.00, 0.00, -0.00, -1.00, 767.5, 669.0)"> </text><text xml:space="preserve" font-family="Avenir-Light" font-size="42.0" fill="#FEFFFE" transform="matrix(1.00, 0.00, -0.00, -1.00, 778.4, 669.0)">t</text><text xml:space="preserve" font-family="Avenir-Light" font-size="42.0" fill="#FEFFFE" transform="matrix(1.00, 0.00, -0.00, -1.00, 792.4, 669.0)">h</text><text xml:space="preserve" font-family="Avenir-Light" font-size="42.0" fill="#FEFFFE" transform="matrix(1.00, 0.00, -0.00, -1.00, 815.8, 669.0)">e</text><text xml:space="preserve" font-family="Avenir-Light" font-size="42.0" fill="#FEFFFE" transform="matrix(1.00, 0.00, -0.00, -1.00, 839.1, 669.0)"> </text><text xml:space="preserve" font-family="Avenir-Light" font-size="42.0" fill="#FEFFFE" transform="matrix(1.00, 0.00, -0.00, -1.00, 850.0, 669.0)">j</text><text xml:space="preserve" font-family="Avenir-Light" font-size="42.0" fill="#FEFFFE" transform="matrix(1.00, 0.00, -0.00, -1.00, 860.1, 669.0)">o</text><text xml:space="preserve" font-family="Avenir-Light" font-size="42.0" fill="#FEFFFE" transform="matrix(1.00, 0.00, -0.00, -1.00, 885.1, 669.0)">u</text><text xml:space="preserve" font-family="Avenir-Light" font-size="42.0" fill="#FEFFFE" transform="matrix(1.00, 0.00, -0.00, -1.00, 908.4, 669.0)">r</text><text xml:space="preserve" font-family="Avenir-Light" font-size="42.0" fill="#FEFFFE" transform="matrix(1.00, 0.00, -0.00, -1.00, 922.4, 669.0)">n</text><text xml:space="preserve" font-family="Avenir-Light" font-size="42.0" fill="#FEFFFE" transform="matrix(1.00, 0.00, -0.00, -1.00, 945.7, 669.0)">e</text><text xml:space="preserve" font-family="Avenir-Light" font-size="42.0" fill="#FEFFFE" transform="matrix(1.00, 0.00, -0.00, -1.00, 969.1, 669.0)">y</text><text xml:space="preserve" font-family="Avenir-Light" font-size="42.0" fill="#FEFFFE" transform="matrix(1.00, 0.00, -0.00, -1.00, 984.7, 669.0)">.</text><text xml:space="preserve" font-family="Avenir-Light" font-size="42.0" fill="#FEFFFE" transform="matrix(1.00, 0.00, -0.00, -1.00, 995.6, 669.0)">”</text><text xml:space="preserve" font-family="Avenir-Light" font-size="42.0" fill="#FEFFFE" transform="matrix(1.00, 0.00, -0.00, -1.00, 1017.4, 669.0)"> </text></g></svg>