<?xml version="1.0" encoding="UTF-8"?><svg xmlns="http://www.w3.org/2000/svg" xmlns:xlink="http://www.w3.org/1999/xlink" clip-rule="evenodd" stroke-miterlimit="4.00" viewBox="0 0 1024 768"><desc>SVG generated by Keynote</desc><defs></defs><g transform="matrix(1.00, 0.00, -0.00, -1.00, 0.0, 768.0)"><path d="M 0.0 768.0 L 1024.0 768.0 L 1024.0 0.0 L 0.0 0.0 Z M 0.0 768.0 " fill="#000000"></path><text xml:space="preserve" font-family="Avenir-Light" font-size="99.0" fill="#FEFFFF" transform="matrix(1.00, 0.00, -0.00, -1.00, 90.0, 481.0)">Y</text><text xml:space="preserve" font-family="Avenir-Light" font-size="99.0" fill="#FEFFFF" transform="matrix(1.00, 0.00, -0.00, -1.00, 162.7, 481.0)">U</text><text xml:space="preserve" font-family="Avenir-Light" font-size="99.0" fill="#FEFFFF" transform="matrix(1.00, 0.00, -0.00, -1.00, 246.2, 481.0)">K</text><text xml:space="preserve" font-family="Avenir-Light" font-size="99.0" fill="#FEFFFF" transform="matrix(1.00, 0.00, -0.00, -1.00, 322.6, 481.0)">O</text><text xml:space="preserve" font-family="Avenir-Light" font-size="99.0" fill="#FEFFFF" transform="matrix(1.00, 0.00, -0.00, -1.00, 421.0, 481.0)">N</text><text xml:space="preserve" font-family="Avenir-Book" font-size="28.5" fill="#FEFFFE" transform="matrix(1.00, 0.00, -0.00, -1.00, 90.0, 388.0)">A</text><text xml:space="preserve" font-family="Avenir-Book" font-size="28.5" fill="#FEFFFE" transform="matrix(1.00, 0.00, -0.00, -1.00, 114.1, 388.0)"> </text><text xml:space="preserve" font-family="Avenir-Book" font-size="28.5" fill="#FEFFFE" transform="matrix(1.00, 0.00, -0.00, -1.00, 126.6, 388.0)">P</text><text xml:space="preserve" font-family="Avenir-Book" font-size="28.5" fill="#FEFFFE" transform="matrix(1.00, 0.00, -0.00, -1.00, 147.5, 388.0)">H</text><text xml:space="preserve" font-family="Avenir-Book" font-size="28.5" fill="#FEFFFE" transform="matrix(1.00, 0.00, -0.00, -1.00, 172.6, 388.0)">O</text><text xml:space="preserve" font-family="Avenir-Book" font-size="28.5" fill="#FEFFFE" transform="matrix(1.00, 0.00, -0.00, -1.00, 201.0, 388.0)">T</text><text xml:space="preserve" font-family="Avenir-Book" font-size="28.5" fill="#FEFFFE" transform="matrix(1.00, 0.00, -0.00, -1.00, 221.9, 388.0)">O</text><text xml:space="preserve" font-family="Avenir-Book" font-size="28.5" fill="#FEFFFE" transform="matrix(1.00, 0.00, -0.00, -1.00, 250.2, 388.0)">G</text><text xml:space="preserve" font-family="Avenir-Book" font-size="28.5" fill="#FEFFFE" transform="matrix(1.00, 0.00, -0.00, -1.00, 277.0, 388.0)">R</text><text xml:space="preserve" font-family="Avenir-Book" font-size="28.5" fill="#FEFFFE" transform="matrix(1.00, 0.00, -0.00, -1.00, 298.4, 388.0)">A</text><text xml:space="preserve" font-family="Avenir-Book" font-size="28.5" fill="#FEFFFE" transform="matrix(1.00, 0.00, -0.00, -1.00, 322.5, 388.0)">P</text><text xml:space="preserve" font-family="Avenir-Book" font-size="28.5" fill="#FEFFFE" transform="matrix(1.00, 0.00, -0.00, -1.00, 343.5, 388.0)">H</text><text xml:space="preserve" font-family="Avenir-Book" font-size="28.5" fill="#FEFFFE" transform="matrix(1.00, 0.00, -0.00, -1.00, 368.6, 388.0)">I</text><text xml:space="preserve" font-family="Avenir-Book" font-size="28.5" fill="#FEFFFE" transform="matrix(1.00, 0.00, -0.00, -1.00, 380.7, 388.0)">C</text><text xml:space="preserve" font-family="Avenir-Book" font-size="28.5" fill="#FEFFFE" transform="matrix(1.00, 0.00, -0.00, -1.00, 405.3, 388.0)"> </text><text xml:space="preserve" font-family="Avenir-Book" font-size="28.5" fill="#FEFFFE" transform="matrix(1.00, 0.00, -0.00, -1.00, 417.8, 388.0)">J</text><text xml:space="preserve" font-family="Avenir-Book" font-size="28.5" fill="#FEFFFE" transform="matrix(1.00, 0.00, -0.00, -1.00, 436.1, 388.0)">O</text><text xml:space="preserve" font-family="Avenir-Book" font-size="28.5" fill="#FEFFFE" transform="matrix(1.00, 0.00, -0.00, -1.00, 464.4, 388.0)">U</text><text xml:space="preserve" font-family="Avenir-Book" font-size="28.5" fill="#FEFFFE" transform="matrix(1.00, 0.00, -0.00, -1.00, 488.5, 388.0)">R</text><text xml:space="preserve" font-family="Avenir-Book" font-size="28.5" fill="#FEFFFE" transform="matrix(1.00, 0.00, -0.00, -1.00, 510.0, 388.0)">N</text><text xml:space="preserve" font-family="Avenir-Book" font-size="28.5" fill="#FEFFFE" transform="matrix(1.00, 0.00, -0.00, -1.00, 536.7, 388.0)">E</text><text xml:space="preserve" font-family="Avenir-Book" font-size="28.5" fill="#FEFFFE" transform="matrix(1.00, 0.00, -0.00, -1.00, 558.2, 388.0)">Y</text><text xml:space="preserve" font-family="Avenir-Book" font-size="28.5" fill="#55D6FF" transform="matrix(1.00, 0.00, -0.00, -1.00, 579.1, 388.0)"> </text><text xml:space="preserve" font-family="Avenir-Book" font-size="28.5" fill="#55D6FF" transform="matrix(1.00, 0.00, -0.00, -1.00, 591.6, 388.0)"> </text><text xml:space="preserve" font-family="Avenir-Book" font-size="28.5" fill="#55D6FF" transform="matrix(1.00, 0.00, -0.00, -1.00, 90.0, 349.0)">E</text><text xml:space="preserve" font-family="Avenir-Book" font-size="28.5" fill="#55D6FF" transform="matrix(1.00, 0.00, -0.00, -1.00, 111.5, 349.0)">X</text><text xml:space="preserve" font-family="Avenir-Book" font-size="28.5" fill="#55D6FF" transform="matrix(1.00, 0.00, -0.00, -1.00, 134.0, 349.0)">P</text><text xml:space="preserve" font-family="Avenir-Book" font-size="28.5" fill="#55D6FF" transform="matrix(1.00, 0.00, -0.00, -1.00, 154.9, 349.0)">L</text><text xml:space="preserve" font-family="Avenir-Book" font-size="28.5" fill="#55D6FF" transform="matrix(1.00, 0.00, -0.00, -1.00, 173.7, 349.0)">O</text><text xml:space="preserve" font-family="Avenir-Book" font-size="28.5" fill="#55D6FF" transform="matrix(1.00, 0.00, -0.00, -1.00, 202.0, 349.0)">R</text><text xml:space="preserve" font-family="Avenir-Book" font-size="28.5" fill="#55D6FF" transform="matrix(1.00, 0.00, -0.00, -1.00, 223.5, 349.0)">I</text><text xml:space="preserve" font-family="Avenir-Book" font-size="28.5" fill="#55D6FF" transform="matrix(1.00, 0.00, -0.00, -1.00, 235.6, 349.0)">N</text><text xml:space="preserve" font-family="Avenir-Book" font-size="28.5" fill="#55D6FF" transform="matrix(1.00, 0.00, -0.00, -1.00, 262.3, 349.0)">G</text><text xml:space="preserve" font-family="Avenir-Book" font-size="28.5" fill="#55D6FF" transform="matrix(1.00, 0.00, -0.00, -1.00, 289.0, 349.0)"> </text><text xml:space="preserve" font-family="Avenir-Book" font-size="28.5" fill="#55D6FF" transform="matrix(1.00, 0.00, -0.00, -1.00, 301.5, 349.0)">T</text><text xml:space="preserve" font-family="Avenir-Book" font-size="28.5" fill="#55D6FF" transform="matrix(1.00, 0.00, -0.00, -1.00, 322.4, 349.0)">H</text><text xml:space="preserve" font-family="Avenir-Book" font-size="28.5" fill="#55D6FF" transform="matrix(1.00, 0.00, -0.00, -1.00, 347.6, 349.0)">E</text><text xml:space="preserve" font-family="Avenir-Book" font-size="28.5" fill="#55D6FF" transform="matrix(1.00, 0.00, -0.00, -1.00, 369.0, 349.0)"> </text><text xml:space="preserve" font-family="Avenir-Book" font-size="28.5" fill="#55D6FF" transform="matrix(1.00, 0.00, -0.00, -1.00, 381.5, 349.0)">S</text><text xml:space="preserve" font-family="Avenir-Book" font-size="28.5" fill="#55D6FF" transform="matrix(1.00, 0.00, -0.00, -1.00, 401.9, 349.0)">P</text><text xml:space="preserve" font-family="Avenir-Book" font-size="28.5" fill="#55D6FF" transform="matrix(1.00, 0.00, -0.00, -1.00, 422.9, 349.0)">L</text><text xml:space="preserve" font-family="Avenir-Book" font-size="28.5" fill="#55D6FF" transform="matrix(1.00, 0.00, -0.00, -1.00, 441.7, 349.0)">E</text><text xml:space="preserve" font-family="Avenir-Book" font-size="28.5" fill="#55D6FF" transform="matrix(1.00, 0.00, -0.00, -1.00, 463.1, 349.0)">N</text><text xml:space="preserve" font-family="Avenir-Book" font-size="28.5" fill="#55D6FF" transform="matrix(1.00, 0.00, -0.00, -1.00, 489.9, 349.0)">D</text><text xml:space="preserve" font-family="Avenir-Book" font-size="28.5" fill="#55D6FF" transform="matrix(1.00, 0.00, -0.00, -1.00, 515.5, 349.0)">O</text><text xml:space="preserve" font-family="Avenir-Book" font-size="28.5" fill="#55D6FF" transform="matrix(1.00, 0.00, -0.00, -1.00, 543.9, 349.0)">U</text><text xml:space="preserve" font-family="Avenir-Book" font-size="28.5" fill="#55D6FF" transform="matrix(1.00, 0.00, -0.00, -1.00, 568.0, 349.0)">R</text><text xml:space="preserve" font-family="Avenir-Book" font-size="28.5" fill="#55D6FF" transform="matrix(1.00, 0.00, -0.00, -1.00, 589.4, 349.0)"> </text><text xml:space="preserve" font-family="Avenir-Book" font-size="28.5" fill="#55D6FF" transform="matrix(1.00, 0.00, -0.00, -1.00, 601.9, 349.0)">O</text><text xml:space="preserve" font-family="Avenir-Book" font-size="28.5" fill="#55D6FF" transform="matrix(1.00, 0.00, -0.00, -1.00, 630.2, 349.0)">F</text><text xml:space="preserve" font-family="Avenir-Book" font-size="28.5" fill="#55D6FF" transform="matrix(1.00, 0.00, -0.00, -1.00, 650.7, 349.0)"> </text><text xml:space="preserve" font-family="Avenir-Book" font-size="28.5" fill="#55D6FF" transform="matrix(1.00, 0.00, -0.00, -1.00, 90.0, 310.0)">C</text><text xml:space="preserve" font-family="Avenir-Book" font-size="28.5" fill="#55D6FF" transform="matrix(1.00, 0.00, -0.00, -1.00, 114.6, 310.0)">A</text><text xml:space="preserve" font-family="Avenir-Book" font-size="28.5" fill="#55D6FF" transform="matrix(1.00, 0.00, -0.00, -1.00, 138.7, 310.0)">N</text><text xml:space="preserve" font-family="Avenir-Book" font-size="28.5" fill="#55D6FF" transform="matrix(1.00, 0.00, -0.00, -1.00, 165.5, 310.0)">A</text><text xml:space="preserve" font-family="Avenir-Book" font-size="28.5" fill="#55D6FF" transform="matrix(1.00, 0.00, -0.00, -1.00, 189.6, 310.0)">D</text><text xml:space="preserve" font-family="Avenir-Book" font-size="28.5" fill="#55D6FF" transform="matrix(1.00, 0.00, -0.00, -1.00, 215.3, 310.0)">A</text><text xml:space="preserve" font-family="Avenir-Book" font-size="28.5" fill="#55D6FF" transform="matrix(1.00, 0.00, -0.00, -1.00, 236.9, 310.0)">’</text><text xml:space="preserve" font-family="Avenir-Book" font-size="28.5" fill="#55D6FF" transform="matrix(1.00, 0.00, -0.00, -1.00, 248.9, 310.0)">S</text><text xml:space="preserve" font-family="Avenir-Book" font-size="28.5" fill="#55D6FF" transform="matrix(1.00, 0.00, -0.00, -1.00, 269.3, 310.0)"> </text><text xml:space="preserve" font-family="Avenir-Book" font-size="28.5" fill="#55D6FF" transform="matrix(1.00, 0.00, -0.00, -1.00, 281.8, 310.0)">N</text><text xml:space="preserve" font-family="Avenir-Book" font-size="28.5" fill="#55D6FF" transform="matrix(1.00, 0.00, -0.00, -1.00, 308.5, 310.0)">O</text><text xml:space="preserve" font-family="Avenir-Book" font-size="28.5" fill="#55D6FF" transform="matrix(1.00, 0.00, -0.00, -1.00, 336.8, 310.0)">R</text><text xml:space="preserve" font-family="Avenir-Book" font-size="28.5" fill="#55D6FF" transform="matrix(1.00, 0.00, -0.00, -1.00, 358.5, 310.0)">T</text><text xml:space="preserve" font-family="Avenir-Book" font-size="28.5" fill="#55D6FF" transform="matrix(1.00, 0.00, -0.00, -1.00, 379.4, 310.0)">H</text><text xml:space="preserve" font-family="Avenir-Book" font-size="28.5" fill="#55D6FF" transform="matrix(1.00, 0.00, -0.00, -1.00, 404.5, 310.0)">E</text><text xml:space="preserve" font-family="Avenir-Book" font-size="28.5" fill="#55D6FF" transform="matrix(1.00, 0.00, -0.00, -1.00, 426.0, 310.0)">R</text><text xml:space="preserve" font-family="Avenir-Book" font-size="28.5" fill="#55D6FF" transform="matrix(1.00, 0.00, -0.00, -1.00, 447.4, 310.0)">N</text><text xml:space="preserve" font-family="Avenir-Book" font-size="28.5" fill="#55D6FF" transform="matrix(1.00, 0.00, -0.00, -1.00, 474.2, 310.0)"> </text><text xml:space="preserve" font-family="Avenir-Book" font-size="28.5" fill="#55D6FF" transform="matrix(1.00, 0.00, -0.00, -1.00, 486.7, 310.0)">W</text><text xml:space="preserve" font-family="Avenir-Book" font-size="28.5" fill="#55D6FF" transform="matrix(1.00, 0.00, -0.00, -1.00, 518.1, 310.0)">I</text><text xml:space="preserve" font-family="Avenir-Book" font-size="28.5" fill="#55D6FF" transform="matrix(1.00, 0.00, -0.00, -1.00, 530.2, 310.0)">L</text><text xml:space="preserve" font-family="Avenir-Book" font-size="28.5" fill="#55D6FF" transform="matrix(1.00, 0.00, -0.00, -1.00, 549.0, 310.0)">D</text><text xml:space="preserve" font-family="Avenir-Book" font-size="28.5" fill="#55D6FF" transform="matrix(1.00, 0.00, -0.00, -1.00, 574.7, 310.0)">E</text><text xml:space="preserve" font-family="Avenir-Book" font-size="28.5" fill="#55D6FF" transform="matrix(1.00, 0.00, -0.00, -1.00, 596.2, 310.0)">R</text><text xml:space="preserve" font-family="Avenir-Book" font-size="28.5" fill="#55D6FF" transform="matrix(1.00, 0.00, -0.00, -1.00, 617.6, 310.0)">N</text><text xml:space="preserve" font-family="Avenir-Book" font-size="28.5" fill="#55D6FF" transform="matrix(1.00, 0.00, -0.00, -1.00, 644.4, 310.0)">E</text><text xml:space="preserve" font-family="Avenir-Book" font-size="28.5" fill="#55D6FF" transform="matrix(1.00, 0.00, -0.00, -1.00, 665.8, 310.0)">S</text><text xml:space="preserve" font-family="Avenir-Book" font-size="28.5" fill="#55D6FF" transform="matrix(1.00, 0.00, -0.00, -1.00, 686.2, 310.0)">S</text><text xml:space="preserve" font-family="Avenir-Book" font-size="28.5" fill="#55D6FF" transform="matrix(1.00, 0.00, -0.00, -1.00, 706.6, 310.0)"> </text><text xml:space="preserve" font-family="Avenir-Book" font-size="28.5" fill="#55D6FF" transform="matrix(1.00, 0.00, -0.00, -1.00, 719.1, 310.0)"> </text><text xml:space="preserve" font-family="Avenir-Book" font-size="28.5" fill="#55D6FF" transform="matrix(1.00, 0.00, -0.00, -1.00, 90.0, 271.0)">B</text><text xml:space="preserve" font-family="Avenir-Book" font-size="28.5" fill="#55D6FF" transform="matrix(1.00, 0.00, -0.00, -1.00, 112.5, 271.0)">Y</text><text xml:space="preserve" font-family="Avenir-Book" font-size="28.5" fill="#55D6FF" transform="matrix(1.00, 0.00, -0.00, -1.00, 133.4, 271.0)"> </text><text xml:space="preserve" font-family="Avenir-Book" font-size="28.5" fill="#55D6FF" transform="matrix(1.00, 0.00, -0.00, -1.00, 145.9, 271.0)">R</text><text xml:space="preserve" font-family="Avenir-Book" font-size="28.5" fill="#55D6FF" transform="matrix(1.00, 0.00, -0.00, -1.00, 167.4, 271.0)">O</text><text xml:space="preserve" font-family="Avenir-Book" font-size="28.5" fill="#55D6FF" transform="matrix(1.00, 0.00, -0.00, -1.00, 195.7, 271.0)">A</text><text xml:space="preserve" font-family="Avenir-Book" font-size="28.5" fill="#55D6FF" transform="matrix(1.00, 0.00, -0.00, -1.00, 219.8, 271.0)">D</text><text xml:space="preserve" font-family="Avenir-Book" font-size="28.5" fill="#55D6FF" transform="matrix(1.00, 0.00, -0.00, -1.00, 245.5, 271.0)">,</text><text xml:space="preserve" font-family="Avenir-Book" font-size="28.5" fill="#55D6FF" transform="matrix(1.00, 0.00, -0.00, -1.00, 258.0, 271.0)"> </text><text xml:space="preserve" font-family="Avenir-Book" font-size="28.5" fill="#55D6FF" transform="matrix(1.00, 0.00, -0.00, -1.00, 270.5, 271.0)">F</text><text xml:space="preserve" font-family="Avenir-Book" font-size="28.5" fill="#55D6FF" transform="matrix(1.00, 0.00, -0.00, -1.00, 290.9, 271.0)">R</text><text xml:space="preserve" font-family="Avenir-Book" font-size="28.5" fill="#55D6FF" transform="matrix(1.00, 0.00, -0.00, -1.00, 312.3, 271.0)">O</text><text xml:space="preserve" font-family="Avenir-Book" font-size="28.5" fill="#55D6FF" transform="matrix(1.00, 0.00, -0.00, -1.00, 340.7, 271.0)">M</text><text xml:space="preserve" font-family="Avenir-Book" font-size="28.5" fill="#55D6FF" transform="matrix(1.00, 0.00, -0.00, -1.00, 370.6, 271.0)"> </text><text xml:space="preserve" font-family="Avenir-Book" font-size="28.5" fill="#55D6FF" transform="matrix(1.00, 0.00, -0.00, -1.00, 383.1, 271.0)">V</text><text xml:space="preserve" font-family="Avenir-Book" font-size="28.5" fill="#55D6FF" transform="matrix(1.00, 0.00, -0.00, -1.00, 403.5, 271.0)">A</text><text xml:space="preserve" font-family="Avenir-Book" font-size="28.5" fill="#55D6FF" transform="matrix(1.00, 0.00, -0.00, -1.00, 427.6, 271.0)">N</text><text xml:space="preserve" font-family="Avenir-Book" font-size="28.5" fill="#55D6FF" transform="matrix(1.00, 0.00, -0.00, -1.00, 454.3, 271.0)">C</text><text xml:space="preserve" font-family="Avenir-Book" font-size="28.5" fill="#55D6FF" transform="matrix(1.00, 0.00, -0.00, -1.00, 478.9, 271.0)">O</text><text xml:space="preserve" font-family="Avenir-Book" font-size="28.5" fill="#55D6FF" transform="matrix(1.00, 0.00, -0.00, -1.00, 507.3, 271.0)">U</text><text xml:space="preserve" font-family="Avenir-Book" font-size="28.5" fill="#55D6FF" transform="matrix(1.00, 0.00, -0.00, -1.00, 531.4, 271.0)">V</text><text xml:space="preserve" font-family="Avenir-Book" font-size="28.5" fill="#55D6FF" transform="matrix(1.00, 0.00, -0.00, -1.00, 553.4, 271.0)">E</text><text xml:space="preserve" font-family="Avenir-Book" font-size="28.5" fill="#55D6FF" transform="matrix(1.00, 0.00, -0.00, -1.00, 574.8, 271.0)">R</text><text xml:space="preserve" font-family="Avenir-Book" font-size="28.5" fill="#55D6FF" transform="matrix(1.00, 0.00, -0.00, -1.00, 596.3, 271.0)"> </text><text xml:space="preserve" font-family="Avenir-Book" font-size="28.5" fill="#55D6FF" transform="matrix(1.00, 0.00, -0.00, -1.00, 608.8, 271.0)">B</text><text xml:space="preserve" font-family="Avenir-Book" font-size="28.5" fill="#55D6FF" transform="matrix(1.00, 0.00, -0.00, -1.00, 631.3, 271.0)">R</text><text xml:space="preserve" font-family="Avenir-Book" font-size="28.5" fill="#55D6FF" transform="matrix(1.00, 0.00, -0.00, -1.00, 652.7, 271.0)">I</text><text xml:space="preserve" font-family="Avenir-Book" font-size="28.5" fill="#55D6FF" transform="matrix(1.00, 0.00, -0.00, -1.00, 664.8, 271.0)">T</text><text xml:space="preserve" font-family="Avenir-Book" font-size="28.5" fill="#55D6FF" transform="matrix(1.00, 0.00, -0.00, -1.00, 685.7, 271.0)">I</text><text xml:space="preserve" font-family="Avenir-Book" font-size="28.5" fill="#55D6FF" transform="matrix(1.00, 0.00, -0.00, -1.00, 697.8, 271.0)">S</text><text xml:space="preserve" font-family="Avenir-Book" font-size="28.5" fill="#55D6FF" transform="matrix(1.00, 0.00, -0.00, -1.00, 718.2, 271.0)">H</text><text xml:space="preserve" font-family="Avenir-Book" font-size="28.5" fill="#55D6FF" transform="matrix(1.00, 0.00, -0.00, -1.00, 743.4, 271.0)"> </text><text xml:space="preserve" font-family="Avenir-Book" font-size="28.5" fill="#55D6FF" transform="matrix(1.00, 0.00, -0.00, -1.00, 755.8, 271.0)">C</text><text xml:space="preserve" font-family="Avenir-Book" font-size="28.5" fill="#55D6FF" transform="matrix(1.00, 0.00, -0.00, -1.00, 780.5, 271.0)">O</text><text xml:space="preserve" font-family="Avenir-Book" font-size="28.5" fill="#55D6FF" transform="matrix(1.00, 0.00, -0.00, -1.00, 808.8, 271.0)">L</text><text xml:space="preserve" font-family="Avenir-Book" font-size="28.5" fill="#55D6FF" transform="matrix(1.00, 0.00, -0.00, -1.00, 827.6, 271.0)">U</text><text xml:space="preserve" font-family="Avenir-Book" font-size="28.5" fill="#55D6FF" transform="matrix(1.00, 0.00, -0.00, -1.00, 851.7, 271.0)">M</text><text xml:space="preserve" font-family="Avenir-Book" font-size="28.5" fill="#55D6FF" transform="matrix(1.00, 0.00, -0.00, -1.00, 881.6, 271.0)">B</text><text xml:space="preserve" font-family="Avenir-Book" font-size="28.5" fill="#55D6FF" transform="matrix(1.00, 0.00, -0.00, -1.00, 904.2, 271.0)">I</text><text xml:space="preserve" font-family="Avenir-Book" font-size="28.5" fill="#55D6FF" transform="matrix(1.00, 0.00, -0.00, -1.00, 916.2, 271.0)">A</text><text xml:space="preserve" font-family="Avenir-Light" font-size="28.0" fill="#FEFFFF" transform="matrix(1.00, 0.00, -0.00, -1.00, 90.0, 181.0)">R</text><text xml:space="preserve" font-family="Avenir-Light" font-size="28.0" fill="#FEFFFF" transform="matrix(1.00, 0.00, -0.00, -1.00, 106.6, 181.0)">e</text><text xml:space="preserve" font-family="Avenir-Light" font-size="28.0" fill="#FEFFFF" transform="matrix(1.00, 0.00, -0.00, -1.00, 122.2, 181.0)">n</text><text xml:space="preserve" font-family="Avenir-Light" font-size="28.0" fill="#FEFFFF" transform="matrix(1.00, 0.00, -0.00, -1.00, 137.7, 181.0)">é</text><text xml:space="preserve" font-family="Avenir-Light" font-size="28.0" fill="#FEFFFF" transform="matrix(1.00, 0.00, -0.00, -1.00, 153.3, 181.0)"> </text><text xml:space="preserve" font-family="Avenir-Light" font-size="28.0" fill="#FEFFFF" transform="matrix(1.00, 0.00, -0.00, -1.00, 160.6, 181.0)">W</text><text xml:space="preserve" font-family="Avenir-Light" font-size="28.0" fill="#FEFFFF" transform="matrix(1.00, 0.00, -0.00, -1.00, 186.0, 181.0)">a</text><text xml:space="preserve" font-family="Avenir-Light" font-size="28.0" fill="#FEFFFF" transform="matrix(1.00, 0.00, -0.00, -1.00, 200.5, 181.0)">r</text><text xml:space="preserve" font-family="Avenir-Light" font-size="28.0" fill="#FEFFFF" transform="matrix(1.00, 0.00, -0.00, -1.00, 209.8, 181.0)">r</text><text xml:space="preserve" font-family="Avenir-Light" font-size="28.0" fill="#FEFFFF" transform="matrix(1.00, 0.00, -0.00, -1.00, 218.7, 181.0)">e</text><text xml:space="preserve" font-family="Avenir-Light" font-size="28.0" fill="#FEFFFF" transform="matrix(1.00, 0.00, -0.00, -1.00, 234.2, 181.0)">n</text><text xml:space="preserve" font-family="Avenir-Light" font-size="28.0" fill="#FEFFFF" transform="matrix(1.00, 0.00, -0.00, -1.00, 249.8, 181.0)">,</text><text xml:space="preserve" font-family="Avenir-Light" font-size="28.0" fill="#FEFFFF" transform="matrix(1.00, 0.00, -0.00, -1.00, 257.1, 181.0)"> </text><text xml:space="preserve" font-family="Avenir-Light" font-size="28.0" fill="#FEFFFF" transform="matrix(1.00, 0.00, -0.00, -1.00, 264.4, 181.0)">2</text><text xml:space="preserve" font-family="Avenir-Light" font-size="28.0" fill="#FEFFFF" transform="matrix(1.00, 0.00, -0.00, -1.00, 278.9, 181.0)">0</text><text xml:space="preserve" font-family="Avenir-Light" font-size="28.0" fill="#FEFFFF" transform="matrix(1.00, 0.00, -0.00, -1.00, 293.5, 181.0)">2</text><text xml:space="preserve" font-family="Avenir-Light" font-size="28.0" fill="#FEFFFF" transform="matrix(1.00, 0.00, -0.00, -1.00, 308.0, 181.0)">0</text></g></svg>