<?xml version="1.0" encoding="UTF-8"?><svg xmlns="http://www.w3.org/2000/svg" xmlns:xlink="http://www.w3.org/1999/xlink" clip-rule="evenodd" stroke-miterlimit="4.00" viewBox="0 0 1024 768"><desc>SVG generated by Keynote</desc><defs></defs><g transform="matrix(1.00, 0.00, -0.00, -1.00, 0.0, 768.0)"><path d="M 0.0 768.0 L 1024.0 768.0 L 1024.0 0.0 L 0.0 0.0 Z M 0.0 768.0 " fill="#000000"></path><text xml:space="preserve" font-family="Avenir-Light" font-size="101.0" fill="#FEFFFF" transform="matrix(1.00, 0.00, -0.00, -1.00, 86.0, 508.0)">Y</text><text xml:space="preserve" font-family="Avenir-Light" font-size="101.0" fill="#FEFFFF" transform="matrix(1.00, 0.00, -0.00, -1.00, 160.1, 508.0)">U</text><text xml:space="preserve" font-family="Avenir-Light" font-size="101.0" fill="#FEFFFF" transform="matrix(1.00, 0.00, -0.00, -1.00, 245.4, 508.0)">K</text><text xml:space="preserve" font-family="Avenir-Light" font-size="101.0" fill="#FEFFFF" transform="matrix(1.00, 0.00, -0.00, -1.00, 323.2, 508.0)">O</text><text xml:space="preserve" font-family="Avenir-Light" font-size="101.0" fill="#FEFFFF" transform="matrix(1.00, 0.00, -0.00, -1.00, 423.6, 508.0)">N</text><text xml:space="preserve" font-family="Avenir-Book" font-size="23.9" fill="#FEFFFE" transform="matrix(1.00, 0.00, -0.00, -1.00, 86.0, 457.0)">A</text><text xml:space="preserve" font-family="Avenir-Book" font-size="23.9" fill="#FEFFFE" transform="matrix(1.00, 0.00, -0.00, -1.00, 106.3, 457.0)"> </text><text xml:space="preserve" font-family="Avenir-Book" font-size="23.9" fill="#FEFFFE" transform="matrix(1.00, 0.00, -0.00, -1.00, 116.7, 457.0)">P</text><text xml:space="preserve" font-family="Avenir-Book" font-size="23.9" fill="#FEFFFE" transform="matrix(1.00, 0.00, -0.00, -1.00, 134.3, 457.0)">H</text><text xml:space="preserve" font-family="Avenir-Book" font-size="23.9" fill="#FEFFFE" transform="matrix(1.00, 0.00, -0.00, -1.00, 155.4, 457.0)">O</text><text xml:space="preserve" font-family="Avenir-Book" font-size="23.9" fill="#FEFFFE" transform="matrix(1.00, 0.00, -0.00, -1.00, 179.2, 457.0)">T</text><text xml:space="preserve" font-family="Avenir-Book" font-size="23.9" fill="#FEFFFE" transform="matrix(1.00, 0.00, -0.00, -1.00, 196.8, 457.0)">O</text><text xml:space="preserve" font-family="Avenir-Book" font-size="23.9" fill="#FEFFFE" transform="matrix(1.00, 0.00, -0.00, -1.00, 220.6, 457.0)">G</text><text xml:space="preserve" font-family="Avenir-Book" font-size="23.9" fill="#FEFFFE" transform="matrix(1.00, 0.00, -0.00, -1.00, 243.0, 457.0)">R</text><text xml:space="preserve" font-family="Avenir-Book" font-size="23.9" fill="#FEFFFE" transform="matrix(1.00, 0.00, -0.00, -1.00, 261.1, 457.0)">A</text><text xml:space="preserve" font-family="Avenir-Book" font-size="23.9" fill="#FEFFFE" transform="matrix(1.00, 0.00, -0.00, -1.00, 281.3, 457.0)">P</text><text xml:space="preserve" font-family="Avenir-Book" font-size="23.9" fill="#FEFFFE" transform="matrix(1.00, 0.00, -0.00, -1.00, 298.9, 457.0)">H</text><text xml:space="preserve" font-family="Avenir-Book" font-size="23.9" fill="#FEFFFE" transform="matrix(1.00, 0.00, -0.00, -1.00, 320.0, 457.0)">I</text><text xml:space="preserve" font-family="Avenir-Book" font-size="23.9" fill="#FEFFFE" transform="matrix(1.00, 0.00, -0.00, -1.00, 330.2, 457.0)">C</text><text xml:space="preserve" font-family="Avenir-Book" font-size="23.9" fill="#FEFFFE" transform="matrix(1.00, 0.00, -0.00, -1.00, 350.8, 457.0)"> </text><text xml:space="preserve" font-family="Avenir-Book" font-size="23.9" fill="#FEFFFE" transform="matrix(1.00, 0.00, -0.00, -1.00, 361.3, 457.0)">J</text><text xml:space="preserve" font-family="Avenir-Book" font-size="23.9" fill="#FEFFFE" transform="matrix(1.00, 0.00, -0.00, -1.00, 376.7, 457.0)">O</text><text xml:space="preserve" font-family="Avenir-Book" font-size="23.9" fill="#FEFFFE" transform="matrix(1.00, 0.00, -0.00, -1.00, 400.5, 457.0)">U</text><text xml:space="preserve" font-family="Avenir-Book" font-size="23.9" fill="#FEFFFE" transform="matrix(1.00, 0.00, -0.00, -1.00, 420.8, 457.0)">R</text><text xml:space="preserve" font-family="Avenir-Book" font-size="23.9" fill="#FEFFFE" transform="matrix(1.00, 0.00, -0.00, -1.00, 438.8, 457.0)">N</text><text xml:space="preserve" font-family="Avenir-Book" font-size="23.9" fill="#FEFFFE" transform="matrix(1.00, 0.00, -0.00, -1.00, 461.2, 457.0)">E</text><text xml:space="preserve" font-family="Avenir-Book" font-size="23.9" fill="#FEFFFE" transform="matrix(1.00, 0.00, -0.00, -1.00, 479.3, 457.0)">Y</text><text xml:space="preserve" font-family="Avenir-Book" font-size="23.9" fill="#FEFFFE" transform="matrix(1.00, 0.00, -0.00, -1.00, 496.8, 457.0)"> </text><text xml:space="preserve" font-family="Avenir-Book" font-size="23.9" fill="#55D6FF" transform="matrix(1.00, 0.00, -0.00, -1.00, 86.0, 424.0)"> </text><text xml:space="preserve" font-family="Avenir-Book" font-size="23.9" fill="#55D6FF" transform="matrix(1.00, 0.00, -0.00, -1.00, 96.5, 424.0)"> </text><text xml:space="preserve" font-family="Avenir-Book" font-size="23.9" fill="#55D6FF" transform="matrix(1.00, 0.00, -0.00, -1.00, 86.0, 358.0)">E</text><text xml:space="preserve" font-family="Avenir-Book" font-size="23.9" fill="#55D6FF" transform="matrix(1.00, 0.00, -0.00, -1.00, 104.0, 358.0)">X</text><text xml:space="preserve" font-family="Avenir-Book" font-size="23.9" fill="#55D6FF" transform="matrix(1.00, 0.00, -0.00, -1.00, 122.9, 358.0)">P</text><text xml:space="preserve" font-family="Avenir-Book" font-size="23.9" fill="#55D6FF" transform="matrix(1.00, 0.00, -0.00, -1.00, 140.5, 358.0)">L</text><text xml:space="preserve" font-family="Avenir-Book" font-size="23.9" fill="#55D6FF" transform="matrix(1.00, 0.00, -0.00, -1.00, 156.3, 358.0)">O</text><text xml:space="preserve" font-family="Avenir-Book" font-size="23.9" fill="#55D6FF" transform="matrix(1.00, 0.00, -0.00, -1.00, 180.1, 358.0)">R</text><text xml:space="preserve" font-family="Avenir-Book" font-size="23.9" fill="#55D6FF" transform="matrix(1.00, 0.00, -0.00, -1.00, 198.1, 358.0)">I</text><text xml:space="preserve" font-family="Avenir-Book" font-size="23.9" fill="#55D6FF" transform="matrix(1.00, 0.00, -0.00, -1.00, 208.3, 358.0)">N</text><text xml:space="preserve" font-family="Avenir-Book" font-size="23.9" fill="#55D6FF" transform="matrix(1.00, 0.00, -0.00, -1.00, 230.7, 358.0)">G</text><text xml:space="preserve" font-family="Avenir-Book" font-size="23.9" fill="#55D6FF" transform="matrix(1.00, 0.00, -0.00, -1.00, 253.2, 358.0)"> </text><text xml:space="preserve" font-family="Avenir-Book" font-size="23.9" fill="#55D6FF" transform="matrix(1.00, 0.00, -0.00, -1.00, 263.7, 358.0)">T</text><text xml:space="preserve" font-family="Avenir-Book" font-size="23.9" fill="#55D6FF" transform="matrix(1.00, 0.00, -0.00, -1.00, 281.3, 358.0)">H</text><text xml:space="preserve" font-family="Avenir-Book" font-size="23.9" fill="#55D6FF" transform="matrix(1.00, 0.00, -0.00, -1.00, 302.4, 358.0)">E</text><text xml:space="preserve" font-family="Avenir-Book" font-size="23.9" fill="#55D6FF" transform="matrix(1.00, 0.00, -0.00, -1.00, 320.4, 358.0)"> </text><text xml:space="preserve" font-family="Avenir-Book" font-size="23.9" fill="#55D6FF" transform="matrix(1.00, 0.00, -0.00, -1.00, 330.9, 358.0)">S</text><text xml:space="preserve" font-family="Avenir-Book" font-size="23.9" fill="#55D6FF" transform="matrix(1.00, 0.00, -0.00, -1.00, 348.0, 358.0)">P</text><text xml:space="preserve" font-family="Avenir-Book" font-size="23.9" fill="#55D6FF" transform="matrix(1.00, 0.00, -0.00, -1.00, 365.6, 358.0)">L</text><text xml:space="preserve" font-family="Avenir-Book" font-size="23.9" fill="#55D6FF" transform="matrix(1.00, 0.00, -0.00, -1.00, 381.4, 358.0)">E</text><text xml:space="preserve" font-family="Avenir-Book" font-size="23.9" fill="#55D6FF" transform="matrix(1.00, 0.00, -0.00, -1.00, 399.4, 358.0)">N</text><text xml:space="preserve" font-family="Avenir-Book" font-size="23.9" fill="#55D6FF" transform="matrix(1.00, 0.00, -0.00, -1.00, 421.9, 358.0)">D</text><text xml:space="preserve" font-family="Avenir-Book" font-size="23.9" fill="#55D6FF" transform="matrix(1.00, 0.00, -0.00, -1.00, 443.4, 358.0)">O</text><text xml:space="preserve" font-family="Avenir-Book" font-size="23.9" fill="#55D6FF" transform="matrix(1.00, 0.00, -0.00, -1.00, 467.2, 358.0)">U</text><text xml:space="preserve" font-family="Avenir-Book" font-size="23.9" fill="#55D6FF" transform="matrix(1.00, 0.00, -0.00, -1.00, 487.5, 358.0)">R</text><text xml:space="preserve" font-family="Avenir-Book" font-size="23.9" fill="#55D6FF" transform="matrix(1.00, 0.00, -0.00, -1.00, 505.5, 358.0)"> </text><text xml:space="preserve" font-family="Avenir-Book" font-size="23.9" fill="#55D6FF" transform="matrix(1.00, 0.00, -0.00, -1.00, 516.0, 358.0)">O</text><text xml:space="preserve" font-family="Avenir-Book" font-size="23.9" fill="#55D6FF" transform="matrix(1.00, 0.00, -0.00, -1.00, 539.8, 358.0)">F</text><text xml:space="preserve" font-family="Avenir-Book" font-size="23.9" fill="#55D6FF" transform="matrix(1.00, 0.00, -0.00, -1.00, 556.9, 358.0)"> </text><text xml:space="preserve" font-family="Avenir-Book" font-size="23.9" fill="#55D6FF" transform="matrix(1.00, 0.00, -0.00, -1.00, 86.0, 325.0)">C</text><text xml:space="preserve" font-family="Avenir-Book" font-size="23.9" fill="#55D6FF" transform="matrix(1.00, 0.00, -0.00, -1.00, 106.7, 325.0)">A</text><text xml:space="preserve" font-family="Avenir-Book" font-size="23.9" fill="#55D6FF" transform="matrix(1.00, 0.00, -0.00, -1.00, 126.9, 325.0)">N</text><text xml:space="preserve" font-family="Avenir-Book" font-size="23.9" fill="#55D6FF" transform="matrix(1.00, 0.00, -0.00, -1.00, 149.4, 325.0)">A</text><text xml:space="preserve" font-family="Avenir-Book" font-size="23.9" fill="#55D6FF" transform="matrix(1.00, 0.00, -0.00, -1.00, 169.6, 325.0)">D</text><text xml:space="preserve" font-family="Avenir-Book" font-size="23.9" fill="#55D6FF" transform="matrix(1.00, 0.00, -0.00, -1.00, 191.2, 325.0)">A</text><text xml:space="preserve" font-family="Avenir-Book" font-size="23.9" fill="#55D6FF" transform="matrix(1.00, 0.00, -0.00, -1.00, 209.4, 325.0)">’</text><text xml:space="preserve" font-family="Avenir-Book" font-size="23.9" fill="#55D6FF" transform="matrix(1.00, 0.00, -0.00, -1.00, 219.5, 325.0)">S</text><text xml:space="preserve" font-family="Avenir-Book" font-size="23.9" fill="#55D6FF" transform="matrix(1.00, 0.00, -0.00, -1.00, 236.6, 325.0)"> </text><text xml:space="preserve" font-family="Avenir-Book" font-size="23.9" fill="#55D6FF" transform="matrix(1.00, 0.00, -0.00, -1.00, 247.1, 325.0)">N</text><text xml:space="preserve" font-family="Avenir-Book" font-size="23.9" fill="#55D6FF" transform="matrix(1.00, 0.00, -0.00, -1.00, 269.5, 325.0)">O</text><text xml:space="preserve" font-family="Avenir-Book" font-size="23.9" fill="#55D6FF" transform="matrix(1.00, 0.00, -0.00, -1.00, 293.3, 325.0)">R</text><text xml:space="preserve" font-family="Avenir-Book" font-size="23.9" fill="#55D6FF" transform="matrix(1.00, 0.00, -0.00, -1.00, 311.5, 325.0)">T</text><text xml:space="preserve" font-family="Avenir-Book" font-size="23.9" fill="#55D6FF" transform="matrix(1.00, 0.00, -0.00, -1.00, 329.1, 325.0)">H</text><text xml:space="preserve" font-family="Avenir-Book" font-size="23.9" fill="#55D6FF" transform="matrix(1.00, 0.00, -0.00, -1.00, 350.2, 325.0)">E</text><text xml:space="preserve" font-family="Avenir-Book" font-size="23.9" fill="#55D6FF" transform="matrix(1.00, 0.00, -0.00, -1.00, 368.2, 325.0)">R</text><text xml:space="preserve" font-family="Avenir-Book" font-size="23.9" fill="#55D6FF" transform="matrix(1.00, 0.00, -0.00, -1.00, 386.3, 325.0)">N</text><text xml:space="preserve" font-family="Avenir-Book" font-size="23.9" fill="#55D6FF" transform="matrix(1.00, 0.00, -0.00, -1.00, 408.7, 325.0)"> </text><text xml:space="preserve" font-family="Avenir-Book" font-size="23.9" fill="#55D6FF" transform="matrix(1.00, 0.00, -0.00, -1.00, 419.2, 325.0)">W</text><text xml:space="preserve" font-family="Avenir-Book" font-size="23.9" fill="#55D6FF" transform="matrix(1.00, 0.00, -0.00, -1.00, 445.6, 325.0)">I</text><text xml:space="preserve" font-family="Avenir-Book" font-size="23.9" fill="#55D6FF" transform="matrix(1.00, 0.00, -0.00, -1.00, 455.8, 325.0)">L</text><text xml:space="preserve" font-family="Avenir-Book" font-size="23.9" fill="#55D6FF" transform="matrix(1.00, 0.00, -0.00, -1.00, 471.6, 325.0)">D</text><text xml:space="preserve" font-family="Avenir-Book" font-size="23.9" fill="#55D6FF" transform="matrix(1.00, 0.00, -0.00, -1.00, 493.1, 325.0)">E</text><text xml:space="preserve" font-family="Avenir-Book" font-size="23.9" fill="#55D6FF" transform="matrix(1.00, 0.00, -0.00, -1.00, 511.2, 325.0)">R</text><text xml:space="preserve" font-family="Avenir-Book" font-size="23.9" fill="#55D6FF" transform="matrix(1.00, 0.00, -0.00, -1.00, 529.2, 325.0)">N</text><text xml:space="preserve" font-family="Avenir-Book" font-size="23.9" fill="#55D6FF" transform="matrix(1.00, 0.00, -0.00, -1.00, 551.7, 325.0)">E</text><text xml:space="preserve" font-family="Avenir-Book" font-size="23.9" fill="#55D6FF" transform="matrix(1.00, 0.00, -0.00, -1.00, 569.7, 325.0)">S</text><text xml:space="preserve" font-family="Avenir-Book" font-size="23.9" fill="#55D6FF" transform="matrix(1.00, 0.00, -0.00, -1.00, 586.8, 325.0)">S</text><text xml:space="preserve" font-family="Avenir-Book" font-size="23.9" fill="#55D6FF" transform="matrix(1.00, 0.00, -0.00, -1.00, 604.0, 325.0)"> </text><text xml:space="preserve" font-family="Avenir-Book" font-size="23.9" fill="#55D6FF" transform="matrix(1.00, 0.00, -0.00, -1.00, 614.5, 325.0)"> </text><text xml:space="preserve" font-family="Avenir-Book" font-size="23.9" fill="#55D6FF" transform="matrix(1.00, 0.00, -0.00, -1.00, 86.0, 292.0)">B</text><text xml:space="preserve" font-family="Avenir-Book" font-size="23.9" fill="#55D6FF" transform="matrix(1.00, 0.00, -0.00, -1.00, 104.9, 292.0)">Y</text><text xml:space="preserve" font-family="Avenir-Book" font-size="23.9" fill="#55D6FF" transform="matrix(1.00, 0.00, -0.00, -1.00, 122.5, 292.0)"> </text><text xml:space="preserve" font-family="Avenir-Book" font-size="23.9" fill="#55D6FF" transform="matrix(1.00, 0.00, -0.00, -1.00, 133.0, 292.0)">R</text><text xml:space="preserve" font-family="Avenir-Book" font-size="23.9" fill="#55D6FF" transform="matrix(1.00, 0.00, -0.00, -1.00, 151.0, 292.0)">O</text><text xml:space="preserve" font-family="Avenir-Book" font-size="23.9" fill="#55D6FF" transform="matrix(1.00, 0.00, -0.00, -1.00, 174.8, 292.0)">A</text><text xml:space="preserve" font-family="Avenir-Book" font-size="23.9" fill="#55D6FF" transform="matrix(1.00, 0.00, -0.00, -1.00, 195.0, 292.0)">D</text><text xml:space="preserve" font-family="Avenir-Book" font-size="23.9" fill="#55D6FF" transform="matrix(1.00, 0.00, -0.00, -1.00, 216.6, 292.0)">,</text><text xml:space="preserve" font-family="Avenir-Book" font-size="23.9" fill="#55D6FF" transform="matrix(1.00, 0.00, -0.00, -1.00, 227.1, 292.0)"> </text><text xml:space="preserve" font-family="Avenir-Book" font-size="23.9" fill="#55D6FF" transform="matrix(1.00, 0.00, -0.00, -1.00, 237.6, 292.0)">F</text><text xml:space="preserve" font-family="Avenir-Book" font-size="23.9" fill="#55D6FF" transform="matrix(1.00, 0.00, -0.00, -1.00, 254.7, 292.0)">R</text><text xml:space="preserve" font-family="Avenir-Book" font-size="23.9" fill="#55D6FF" transform="matrix(1.00, 0.00, -0.00, -1.00, 272.8, 292.0)">O</text><text xml:space="preserve" font-family="Avenir-Book" font-size="23.9" fill="#55D6FF" transform="matrix(1.00, 0.00, -0.00, -1.00, 296.6, 292.0)">M</text><text xml:space="preserve" font-family="Avenir-Book" font-size="23.9" fill="#55D6FF" transform="matrix(1.00, 0.00, -0.00, -1.00, 321.7, 292.0)"> </text><text xml:space="preserve" font-family="Avenir-Book" font-size="23.9" fill="#55D6FF" transform="matrix(1.00, 0.00, -0.00, -1.00, 332.2, 292.0)">V</text><text xml:space="preserve" font-family="Avenir-Book" font-size="23.9" fill="#55D6FF" transform="matrix(1.00, 0.00, -0.00, -1.00, 349.3, 292.0)">A</text><text xml:space="preserve" font-family="Avenir-Book" font-size="23.9" fill="#55D6FF" transform="matrix(1.00, 0.00, -0.00, -1.00, 369.6, 292.0)">N</text><text xml:space="preserve" font-family="Avenir-Book" font-size="23.9" fill="#55D6FF" transform="matrix(1.00, 0.00, -0.00, -1.00, 392.0, 292.0)">C</text><text xml:space="preserve" font-family="Avenir-Book" font-size="23.9" fill="#55D6FF" transform="matrix(1.00, 0.00, -0.00, -1.00, 412.7, 292.0)">O</text><text xml:space="preserve" font-family="Avenir-Book" font-size="23.9" fill="#55D6FF" transform="matrix(1.00, 0.00, -0.00, -1.00, 436.5, 292.0)">U</text><text xml:space="preserve" font-family="Avenir-Book" font-size="23.9" fill="#55D6FF" transform="matrix(1.00, 0.00, -0.00, -1.00, 456.8, 292.0)">V</text><text xml:space="preserve" font-family="Avenir-Book" font-size="23.9" fill="#55D6FF" transform="matrix(1.00, 0.00, -0.00, -1.00, 475.2, 292.0)">E</text><text xml:space="preserve" font-family="Avenir-Book" font-size="23.9" fill="#55D6FF" transform="matrix(1.00, 0.00, -0.00, -1.00, 493.2, 292.0)">R</text><text xml:space="preserve" font-family="Avenir-Book" font-size="23.9" fill="#55D6FF" transform="matrix(1.00, 0.00, -0.00, -1.00, 511.3, 292.0)"> </text><text xml:space="preserve" font-family="Avenir-Book" font-size="23.9" fill="#55D6FF" transform="matrix(1.00, 0.00, -0.00, -1.00, 521.8, 292.0)">B</text><text xml:space="preserve" font-family="Avenir-Book" font-size="23.9" fill="#55D6FF" transform="matrix(1.00, 0.00, -0.00, -1.00, 540.7, 292.0)">R</text><text xml:space="preserve" font-family="Avenir-Book" font-size="23.9" fill="#55D6FF" transform="matrix(1.00, 0.00, -0.00, -1.00, 558.7, 292.0)">I</text><text xml:space="preserve" font-family="Avenir-Book" font-size="23.9" fill="#55D6FF" transform="matrix(1.00, 0.00, -0.00, -1.00, 568.8, 292.0)">T</text><text xml:space="preserve" font-family="Avenir-Book" font-size="23.9" fill="#55D6FF" transform="matrix(1.00, 0.00, -0.00, -1.00, 586.4, 292.0)">I</text><text xml:space="preserve" font-family="Avenir-Book" font-size="23.9" fill="#55D6FF" transform="matrix(1.00, 0.00, -0.00, -1.00, 596.6, 292.0)">S</text><text xml:space="preserve" font-family="Avenir-Book" font-size="23.9" fill="#55D6FF" transform="matrix(1.00, 0.00, -0.00, -1.00, 613.7, 292.0)">H</text><text xml:space="preserve" font-family="Avenir-Book" font-size="23.9" fill="#55D6FF" transform="matrix(1.00, 0.00, -0.00, -1.00, 634.8, 292.0)"> </text><text xml:space="preserve" font-family="Avenir-Book" font-size="23.9" fill="#55D6FF" transform="matrix(1.00, 0.00, -0.00, -1.00, 645.3, 292.0)">C</text><text xml:space="preserve" font-family="Avenir-Book" font-size="23.9" fill="#55D6FF" transform="matrix(1.00, 0.00, -0.00, -1.00, 666.0, 292.0)">O</text><text xml:space="preserve" font-family="Avenir-Book" font-size="23.9" fill="#55D6FF" transform="matrix(1.00, 0.00, -0.00, -1.00, 689.8, 292.0)">L</text><text xml:space="preserve" font-family="Avenir-Book" font-size="23.9" fill="#55D6FF" transform="matrix(1.00, 0.00, -0.00, -1.00, 705.6, 292.0)">U</text><text xml:space="preserve" font-family="Avenir-Book" font-size="23.9" fill="#55D6FF" transform="matrix(1.00, 0.00, -0.00, -1.00, 725.8, 292.0)">M</text><text xml:space="preserve" font-family="Avenir-Book" font-size="23.9" fill="#55D6FF" transform="matrix(1.00, 0.00, -0.00, -1.00, 751.0, 292.0)">B</text><text xml:space="preserve" font-family="Avenir-Book" font-size="23.9" fill="#55D6FF" transform="matrix(1.00, 0.00, -0.00, -1.00, 769.9, 292.0)">I</text><text xml:space="preserve" font-family="Avenir-Book" font-size="23.9" fill="#55D6FF" transform="matrix(1.00, 0.00, -0.00, -1.00, 780.0, 292.0)">A</text><text xml:space="preserve" font-family="Avenir-Light" font-size="28.0" fill="#FEFFFF" transform="matrix(1.00, 0.00, -0.00, -1.00, 86.0, 172.0)">R</text><text xml:space="preserve" font-family="Avenir-Light" font-size="28.0" fill="#FEFFFF" transform="matrix(1.00, 0.00, -0.00, -1.00, 102.6, 172.0)">e</text><text xml:space="preserve" font-family="Avenir-Light" font-size="28.0" fill="#FEFFFF" transform="matrix(1.00, 0.00, -0.00, -1.00, 118.2, 172.0)">n</text><text xml:space="preserve" font-family="Avenir-Light" font-size="28.0" fill="#FEFFFF" transform="matrix(1.00, 0.00, -0.00, -1.00, 133.7, 172.0)">é</text><text xml:space="preserve" font-family="Avenir-Light" font-size="28.0" fill="#FEFFFF" transform="matrix(1.00, 0.00, -0.00, -1.00, 149.3, 172.0)"> </text><text xml:space="preserve" font-family="Avenir-Light" font-size="28.0" fill="#FEFFFF" transform="matrix(1.00, 0.00, -0.00, -1.00, 156.6, 172.0)">L</text><text xml:space="preserve" font-family="Avenir-Light" font-size="28.0" fill="#FEFFFF" transform="matrix(1.00, 0.00, -0.00, -1.00, 170.6, 172.0)"> </text><text xml:space="preserve" font-family="Avenir-Light" font-size="28.0" fill="#FEFFFF" transform="matrix(1.00, 0.00, -0.00, -1.00, 177.9, 172.0)">W</text><text xml:space="preserve" font-family="Avenir-Light" font-size="28.0" fill="#FEFFFF" transform="matrix(1.00, 0.00, -0.00, -1.00, 203.3, 172.0)">a</text><text xml:space="preserve" font-family="Avenir-Light" font-size="28.0" fill="#FEFFFF" transform="matrix(1.00, 0.00, -0.00, -1.00, 217.8, 172.0)">r</text><text xml:space="preserve" font-family="Avenir-Light" font-size="28.0" fill="#FEFFFF" transform="matrix(1.00, 0.00, -0.00, -1.00, 227.1, 172.0)">r</text><text xml:space="preserve" font-family="Avenir-Light" font-size="28.0" fill="#FEFFFF" transform="matrix(1.00, 0.00, -0.00, -1.00, 235.9, 172.0)">e</text><text xml:space="preserve" font-family="Avenir-Light" font-size="28.0" fill="#FEFFFF" transform="matrix(1.00, 0.00, -0.00, -1.00, 251.5, 172.0)">n</text><text xml:space="preserve" font-family="Avenir-Light" font-size="28.0" fill="#FEFFFF" transform="matrix(1.00, 0.00, -0.00, -1.00, 267.1, 172.0)"> </text><text xml:space="preserve" font-family="Avenir-Light" font-size="28.0" fill="#FEFFFF" transform="matrix(1.00, 0.00, -0.00, -1.00, 274.4, 172.0)"> </text><text xml:space="preserve" font-family="Avenir-Light" font-size="28.0" fill="#FEFFFF" transform="matrix(1.00, 0.00, -0.00, -1.00, 281.6, 172.0)">2</text><text xml:space="preserve" font-family="Avenir-Light" font-size="28.0" fill="#FEFFFF" transform="matrix(1.00, 0.00, -0.00, -1.00, 296.2, 172.0)">0</text><text xml:space="preserve" font-family="Avenir-Light" font-size="28.0" fill="#FEFFFF" transform="matrix(1.00, 0.00, -0.00, -1.00, 310.8, 172.0)">2</text><text xml:space="preserve" font-family="Avenir-Light" font-size="28.0" fill="#FEFFFF" transform="matrix(1.00, 0.00, -0.00, -1.00, 325.3, 172.0)">0</text></g></svg>