<?xml version="1.0" encoding="UTF-8"?><svg xmlns="http://www.w3.org/2000/svg" xmlns:xlink="http://www.w3.org/1999/xlink" clip-rule="evenodd" stroke-miterlimit="4.00" viewBox="0 0 1024 768"><desc>SVG generated by Keynote</desc><defs></defs><g transform="matrix(1.00, 0.00, -0.00, -1.00, 0.0, 768.0)"><path d="M 0.0 768.0 L 1024.0 768.0 L 1024.0 0.0 L 0.0 0.0 Z M 0.0 768.0 " fill="#000000"></path><text xml:space="preserve" font-family="Avenir-Light" font-size="99.0" fill="#FEFFFF" transform="matrix(1.00, 0.00, -0.00, -1.00, 90.0, 481.0)">Y</text><text xml:space="preserve" font-family="Avenir-Light" font-size="99.0" fill="#FEFFFF" transform="matrix(1.00, 0.00, -0.00, -1.00, 162.7, 481.0)">U</text><text xml:space="preserve" font-family="Avenir-Light" font-size="99.0" fill="#FEFFFF" transform="matrix(1.00, 0.00, -0.00, -1.00, 246.2, 481.0)">K</text><text xml:space="preserve" font-family="Avenir-Light" font-size="99.0" fill="#FEFFFF" transform="matrix(1.00, 0.00, -0.00, -1.00, 322.6, 481.0)">O</text><text xml:space="preserve" font-family="Avenir-Light" font-size="99.0" fill="#FEFFFF" transform="matrix(1.00, 0.00, -0.00, -1.00, 421.0, 481.0)">N</text><text xml:space="preserve" font-family="Avenir-Book" font-size="27.4" fill="#FEFFFE" transform="matrix(1.00, 0.00, -0.00, -1.00, 90.0, 431.0)">A</text><text xml:space="preserve" font-family="Avenir-Book" font-size="27.4" fill="#FEFFFE" transform="matrix(1.00, 0.00, -0.00, -1.00, 113.1, 431.0)"> </text><text xml:space="preserve" font-family="Avenir-Book" font-size="27.4" fill="#FEFFFE" transform="matrix(1.00, 0.00, -0.00, -1.00, 125.1, 431.0)">P</text><text xml:space="preserve" font-family="Avenir-Book" font-size="27.4" fill="#FEFFFE" transform="matrix(1.00, 0.00, -0.00, -1.00, 145.2, 431.0)">H</text><text xml:space="preserve" font-family="Avenir-Book" font-size="27.4" fill="#FEFFFE" transform="matrix(1.00, 0.00, -0.00, -1.00, 169.3, 431.0)">O</text><text xml:space="preserve" font-family="Avenir-Book" font-size="27.4" fill="#FEFFFE" transform="matrix(1.00, 0.00, -0.00, -1.00, 196.5, 431.0)">T</text><text xml:space="preserve" font-family="Avenir-Book" font-size="27.4" fill="#FEFFFE" transform="matrix(1.00, 0.00, -0.00, -1.00, 216.6, 431.0)">O</text><text xml:space="preserve" font-family="Avenir-Book" font-size="27.4" fill="#FEFFFE" transform="matrix(1.00, 0.00, -0.00, -1.00, 243.8, 431.0)">G</text><text xml:space="preserve" font-family="Avenir-Book" font-size="27.4" fill="#FEFFFE" transform="matrix(1.00, 0.00, -0.00, -1.00, 269.5, 431.0)">R</text><text xml:space="preserve" font-family="Avenir-Book" font-size="27.4" fill="#FEFFFE" transform="matrix(1.00, 0.00, -0.00, -1.00, 290.1, 431.0)">A</text><text xml:space="preserve" font-family="Avenir-Book" font-size="27.4" fill="#FEFFFE" transform="matrix(1.00, 0.00, -0.00, -1.00, 313.2, 431.0)">P</text><text xml:space="preserve" font-family="Avenir-Book" font-size="27.4" fill="#FEFFFE" transform="matrix(1.00, 0.00, -0.00, -1.00, 333.3, 431.0)">H</text><text xml:space="preserve" font-family="Avenir-Book" font-size="27.4" fill="#FEFFFE" transform="matrix(1.00, 0.00, -0.00, -1.00, 357.4, 431.0)">I</text><text xml:space="preserve" font-family="Avenir-Book" font-size="27.4" fill="#FEFFFE" transform="matrix(1.00, 0.00, -0.00, -1.00, 369.0, 431.0)">C</text><text xml:space="preserve" font-family="Avenir-Book" font-size="27.4" fill="#FEFFFE" transform="matrix(1.00, 0.00, -0.00, -1.00, 392.7, 431.0)"> </text><text xml:space="preserve" font-family="Avenir-Book" font-size="27.4" fill="#FEFFFE" transform="matrix(1.00, 0.00, -0.00, -1.00, 404.7, 431.0)">J</text><text xml:space="preserve" font-family="Avenir-Book" font-size="27.4" fill="#FEFFFE" transform="matrix(1.00, 0.00, -0.00, -1.00, 422.2, 431.0)">O</text><text xml:space="preserve" font-family="Avenir-Book" font-size="27.4" fill="#FEFFFE" transform="matrix(1.00, 0.00, -0.00, -1.00, 449.4, 431.0)">U</text><text xml:space="preserve" font-family="Avenir-Book" font-size="27.4" fill="#FEFFFE" transform="matrix(1.00, 0.00, -0.00, -1.00, 472.6, 431.0)">R</text><text xml:space="preserve" font-family="Avenir-Book" font-size="27.4" fill="#FEFFFE" transform="matrix(1.00, 0.00, -0.00, -1.00, 493.2, 431.0)">N</text><text xml:space="preserve" font-family="Avenir-Book" font-size="27.4" fill="#FEFFFE" transform="matrix(1.00, 0.00, -0.00, -1.00, 518.8, 431.0)">E</text><text xml:space="preserve" font-family="Avenir-Book" font-size="27.4" fill="#FEFFFE" transform="matrix(1.00, 0.00, -0.00, -1.00, 539.4, 431.0)">Y</text><text xml:space="preserve" font-family="Avenir-Book" font-size="27.4" fill="#FEFFFE" transform="matrix(1.00, 0.00, -0.00, -1.00, 559.5, 431.0)"> </text><text xml:space="preserve" font-family="Avenir-Book" font-size="27.4" fill="#55D6FF" transform="matrix(1.00, 0.00, -0.00, -1.00, 90.0, 394.0)"> </text><text xml:space="preserve" font-family="Avenir-Book" font-size="27.4" fill="#55D6FF" transform="matrix(1.00, 0.00, -0.00, -1.00, 102.0, 394.0)"> </text><text xml:space="preserve" font-family="Avenir-Book" font-size="27.4" fill="#55D6FF" transform="matrix(1.00, 0.00, -0.00, -1.00, 90.0, 357.0)">E</text><text xml:space="preserve" font-family="Avenir-Book" font-size="27.4" fill="#55D6FF" transform="matrix(1.00, 0.00, -0.00, -1.00, 110.6, 357.0)">X</text><text xml:space="preserve" font-family="Avenir-Book" font-size="27.4" fill="#55D6FF" transform="matrix(1.00, 0.00, -0.00, -1.00, 132.2, 357.0)">P</text><text xml:space="preserve" font-family="Avenir-Book" font-size="27.4" fill="#55D6FF" transform="matrix(1.00, 0.00, -0.00, -1.00, 152.3, 357.0)">L</text><text xml:space="preserve" font-family="Avenir-Book" font-size="27.4" fill="#55D6FF" transform="matrix(1.00, 0.00, -0.00, -1.00, 170.4, 357.0)">O</text><text xml:space="preserve" font-family="Avenir-Book" font-size="27.4" fill="#55D6FF" transform="matrix(1.00, 0.00, -0.00, -1.00, 197.6, 357.0)">R</text><text xml:space="preserve" font-family="Avenir-Book" font-size="27.4" fill="#55D6FF" transform="matrix(1.00, 0.00, -0.00, -1.00, 218.2, 357.0)">I</text><text xml:space="preserve" font-family="Avenir-Book" font-size="27.4" fill="#55D6FF" transform="matrix(1.00, 0.00, -0.00, -1.00, 229.8, 357.0)">N</text><text xml:space="preserve" font-family="Avenir-Book" font-size="27.4" fill="#55D6FF" transform="matrix(1.00, 0.00, -0.00, -1.00, 255.4, 357.0)">G</text><text xml:space="preserve" font-family="Avenir-Book" font-size="27.4" fill="#55D6FF" transform="matrix(1.00, 0.00, -0.00, -1.00, 281.1, 357.0)"> </text><text xml:space="preserve" font-family="Avenir-Book" font-size="27.4" fill="#55D6FF" transform="matrix(1.00, 0.00, -0.00, -1.00, 293.1, 357.0)">T</text><text xml:space="preserve" font-family="Avenir-Book" font-size="27.4" fill="#55D6FF" transform="matrix(1.00, 0.00, -0.00, -1.00, 313.1, 357.0)">H</text><text xml:space="preserve" font-family="Avenir-Book" font-size="27.4" fill="#55D6FF" transform="matrix(1.00, 0.00, -0.00, -1.00, 337.3, 357.0)">E</text><text xml:space="preserve" font-family="Avenir-Book" font-size="27.4" fill="#55D6FF" transform="matrix(1.00, 0.00, -0.00, -1.00, 357.9, 357.0)"> </text><text xml:space="preserve" font-family="Avenir-Book" font-size="27.4" fill="#55D6FF" transform="matrix(1.00, 0.00, -0.00, -1.00, 369.9, 357.0)">S</text><text xml:space="preserve" font-family="Avenir-Book" font-size="27.4" fill="#55D6FF" transform="matrix(1.00, 0.00, -0.00, -1.00, 389.5, 357.0)">P</text><text xml:space="preserve" font-family="Avenir-Book" font-size="27.4" fill="#55D6FF" transform="matrix(1.00, 0.00, -0.00, -1.00, 409.5, 357.0)">L</text><text xml:space="preserve" font-family="Avenir-Book" font-size="27.4" fill="#55D6FF" transform="matrix(1.00, 0.00, -0.00, -1.00, 427.6, 357.0)">E</text><text xml:space="preserve" font-family="Avenir-Book" font-size="27.4" fill="#55D6FF" transform="matrix(1.00, 0.00, -0.00, -1.00, 448.2, 357.0)">N</text><text xml:space="preserve" font-family="Avenir-Book" font-size="27.4" fill="#55D6FF" transform="matrix(1.00, 0.00, -0.00, -1.00, 473.9, 357.0)">D</text><text xml:space="preserve" font-family="Avenir-Book" font-size="27.4" fill="#55D6FF" transform="matrix(1.00, 0.00, -0.00, -1.00, 498.5, 357.0)">O</text><text xml:space="preserve" font-family="Avenir-Book" font-size="27.4" fill="#55D6FF" transform="matrix(1.00, 0.00, -0.00, -1.00, 525.7, 357.0)">U</text><text xml:space="preserve" font-family="Avenir-Book" font-size="27.4" fill="#55D6FF" transform="matrix(1.00, 0.00, -0.00, -1.00, 548.9, 357.0)">R</text><text xml:space="preserve" font-family="Avenir-Book" font-size="27.4" fill="#55D6FF" transform="matrix(1.00, 0.00, -0.00, -1.00, 569.5, 357.0)"> </text><text xml:space="preserve" font-family="Avenir-Book" font-size="27.4" fill="#55D6FF" transform="matrix(1.00, 0.00, -0.00, -1.00, 581.4, 357.0)">O</text><text xml:space="preserve" font-family="Avenir-Book" font-size="27.4" fill="#55D6FF" transform="matrix(1.00, 0.00, -0.00, -1.00, 608.6, 357.0)">F</text><text xml:space="preserve" font-family="Avenir-Book" font-size="27.4" fill="#55D6FF" transform="matrix(1.00, 0.00, -0.00, -1.00, 628.2, 357.0)"> </text><text xml:space="preserve" font-family="Avenir-Book" font-size="27.4" fill="#55D6FF" transform="matrix(1.00, 0.00, -0.00, -1.00, 90.0, 320.0)">C</text><text xml:space="preserve" font-family="Avenir-Book" font-size="27.4" fill="#55D6FF" transform="matrix(1.00, 0.00, -0.00, -1.00, 113.6, 320.0)">A</text><text xml:space="preserve" font-family="Avenir-Book" font-size="27.4" fill="#55D6FF" transform="matrix(1.00, 0.00, -0.00, -1.00, 136.8, 320.0)">N</text><text xml:space="preserve" font-family="Avenir-Book" font-size="27.4" fill="#55D6FF" transform="matrix(1.00, 0.00, -0.00, -1.00, 162.4, 320.0)">A</text><text xml:space="preserve" font-family="Avenir-Book" font-size="27.4" fill="#55D6FF" transform="matrix(1.00, 0.00, -0.00, -1.00, 185.6, 320.0)">D</text><text xml:space="preserve" font-family="Avenir-Book" font-size="27.4" fill="#55D6FF" transform="matrix(1.00, 0.00, -0.00, -1.00, 210.2, 320.0)">A</text><text xml:space="preserve" font-family="Avenir-Book" font-size="27.4" fill="#55D6FF" transform="matrix(1.00, 0.00, -0.00, -1.00, 231.0, 320.0)">’</text><text xml:space="preserve" font-family="Avenir-Book" font-size="27.4" fill="#55D6FF" transform="matrix(1.00, 0.00, -0.00, -1.00, 242.5, 320.0)">S</text><text xml:space="preserve" font-family="Avenir-Book" font-size="27.4" fill="#55D6FF" transform="matrix(1.00, 0.00, -0.00, -1.00, 262.1, 320.0)"> </text><text xml:space="preserve" font-family="Avenir-Book" font-size="27.4" fill="#55D6FF" transform="matrix(1.00, 0.00, -0.00, -1.00, 274.1, 320.0)">N</text><text xml:space="preserve" font-family="Avenir-Book" font-size="27.4" fill="#55D6FF" transform="matrix(1.00, 0.00, -0.00, -1.00, 299.8, 320.0)">O</text><text xml:space="preserve" font-family="Avenir-Book" font-size="27.4" fill="#55D6FF" transform="matrix(1.00, 0.00, -0.00, -1.00, 327.0, 320.0)">R</text><text xml:space="preserve" font-family="Avenir-Book" font-size="27.4" fill="#55D6FF" transform="matrix(1.00, 0.00, -0.00, -1.00, 347.7, 320.0)">T</text><text xml:space="preserve" font-family="Avenir-Book" font-size="27.4" fill="#55D6FF" transform="matrix(1.00, 0.00, -0.00, -1.00, 367.8, 320.0)">H</text><text xml:space="preserve" font-family="Avenir-Book" font-size="27.4" fill="#55D6FF" transform="matrix(1.00, 0.00, -0.00, -1.00, 391.9, 320.0)">E</text><text xml:space="preserve" font-family="Avenir-Book" font-size="27.4" fill="#55D6FF" transform="matrix(1.00, 0.00, -0.00, -1.00, 412.5, 320.0)">R</text><text xml:space="preserve" font-family="Avenir-Book" font-size="27.4" fill="#55D6FF" transform="matrix(1.00, 0.00, -0.00, -1.00, 433.1, 320.0)">N</text><text xml:space="preserve" font-family="Avenir-Book" font-size="27.4" fill="#55D6FF" transform="matrix(1.00, 0.00, -0.00, -1.00, 458.8, 320.0)"> </text><text xml:space="preserve" font-family="Avenir-Book" font-size="27.4" fill="#55D6FF" transform="matrix(1.00, 0.00, -0.00, -1.00, 470.8, 320.0)">W</text><text xml:space="preserve" font-family="Avenir-Book" font-size="27.4" fill="#55D6FF" transform="matrix(1.00, 0.00, -0.00, -1.00, 501.0, 320.0)">I</text><text xml:space="preserve" font-family="Avenir-Book" font-size="27.4" fill="#55D6FF" transform="matrix(1.00, 0.00, -0.00, -1.00, 512.6, 320.0)">L</text><text xml:space="preserve" font-family="Avenir-Book" font-size="27.4" fill="#55D6FF" transform="matrix(1.00, 0.00, -0.00, -1.00, 530.7, 320.0)">D</text><text xml:space="preserve" font-family="Avenir-Book" font-size="27.4" fill="#55D6FF" transform="matrix(1.00, 0.00, -0.00, -1.00, 555.3, 320.0)">E</text><text xml:space="preserve" font-family="Avenir-Book" font-size="27.4" fill="#55D6FF" transform="matrix(1.00, 0.00, -0.00, -1.00, 575.9, 320.0)">R</text><text xml:space="preserve" font-family="Avenir-Book" font-size="27.4" fill="#55D6FF" transform="matrix(1.00, 0.00, -0.00, -1.00, 596.5, 320.0)">N</text><text xml:space="preserve" font-family="Avenir-Book" font-size="27.4" fill="#55D6FF" transform="matrix(1.00, 0.00, -0.00, -1.00, 622.2, 320.0)">E</text><text xml:space="preserve" font-family="Avenir-Book" font-size="27.4" fill="#55D6FF" transform="matrix(1.00, 0.00, -0.00, -1.00, 642.8, 320.0)">S</text><text xml:space="preserve" font-family="Avenir-Book" font-size="27.4" fill="#55D6FF" transform="matrix(1.00, 0.00, -0.00, -1.00, 662.4, 320.0)">S</text><text xml:space="preserve" font-family="Avenir-Book" font-size="27.4" fill="#55D6FF" transform="matrix(1.00, 0.00, -0.00, -1.00, 682.0, 320.0)"> </text><text xml:space="preserve" font-family="Avenir-Book" font-size="27.4" fill="#55D6FF" transform="matrix(1.00, 0.00, -0.00, -1.00, 693.9, 320.0)"> </text><text xml:space="preserve" font-family="Avenir-Book" font-size="27.4" fill="#55D6FF" transform="matrix(1.00, 0.00, -0.00, -1.00, 90.0, 283.0)">B</text><text xml:space="preserve" font-family="Avenir-Book" font-size="27.4" fill="#55D6FF" transform="matrix(1.00, 0.00, -0.00, -1.00, 111.6, 283.0)">Y</text><text xml:space="preserve" font-family="Avenir-Book" font-size="27.4" fill="#55D6FF" transform="matrix(1.00, 0.00, -0.00, -1.00, 131.7, 283.0)"> </text><text xml:space="preserve" font-family="Avenir-Book" font-size="27.4" fill="#55D6FF" transform="matrix(1.00, 0.00, -0.00, -1.00, 143.7, 283.0)">R</text><text xml:space="preserve" font-family="Avenir-Book" font-size="27.4" fill="#55D6FF" transform="matrix(1.00, 0.00, -0.00, -1.00, 164.3, 283.0)">O</text><text xml:space="preserve" font-family="Avenir-Book" font-size="27.4" fill="#55D6FF" transform="matrix(1.00, 0.00, -0.00, -1.00, 191.5, 283.0)">A</text><text xml:space="preserve" font-family="Avenir-Book" font-size="27.4" fill="#55D6FF" transform="matrix(1.00, 0.00, -0.00, -1.00, 214.6, 283.0)">D</text><text xml:space="preserve" font-family="Avenir-Book" font-size="27.4" fill="#55D6FF" transform="matrix(1.00, 0.00, -0.00, -1.00, 239.3, 283.0)">,</text><text xml:space="preserve" font-family="Avenir-Book" font-size="27.4" fill="#55D6FF" transform="matrix(1.00, 0.00, -0.00, -1.00, 251.3, 283.0)"> </text><text xml:space="preserve" font-family="Avenir-Book" font-size="27.4" fill="#55D6FF" transform="matrix(1.00, 0.00, -0.00, -1.00, 263.2, 283.0)">F</text><text xml:space="preserve" font-family="Avenir-Book" font-size="27.4" fill="#55D6FF" transform="matrix(1.00, 0.00, -0.00, -1.00, 282.8, 283.0)">R</text><text xml:space="preserve" font-family="Avenir-Book" font-size="27.4" fill="#55D6FF" transform="matrix(1.00, 0.00, -0.00, -1.00, 303.4, 283.0)">O</text><text xml:space="preserve" font-family="Avenir-Book" font-size="27.4" fill="#55D6FF" transform="matrix(1.00, 0.00, -0.00, -1.00, 330.6, 283.0)">M</text><text xml:space="preserve" font-family="Avenir-Book" font-size="27.4" fill="#55D6FF" transform="matrix(1.00, 0.00, -0.00, -1.00, 359.4, 283.0)"> </text><text xml:space="preserve" font-family="Avenir-Book" font-size="27.4" fill="#55D6FF" transform="matrix(1.00, 0.00, -0.00, -1.00, 371.3, 283.0)">V</text><text xml:space="preserve" font-family="Avenir-Book" font-size="27.4" fill="#55D6FF" transform="matrix(1.00, 0.00, -0.00, -1.00, 390.9, 283.0)">A</text><text xml:space="preserve" font-family="Avenir-Book" font-size="27.4" fill="#55D6FF" transform="matrix(1.00, 0.00, -0.00, -1.00, 414.1, 283.0)">N</text><text xml:space="preserve" font-family="Avenir-Book" font-size="27.4" fill="#55D6FF" transform="matrix(1.00, 0.00, -0.00, -1.00, 439.7, 283.0)">C</text><text xml:space="preserve" font-family="Avenir-Book" font-size="27.4" fill="#55D6FF" transform="matrix(1.00, 0.00, -0.00, -1.00, 463.4, 283.0)">O</text><text xml:space="preserve" font-family="Avenir-Book" font-size="27.4" fill="#55D6FF" transform="matrix(1.00, 0.00, -0.00, -1.00, 490.6, 283.0)">U</text><text xml:space="preserve" font-family="Avenir-Book" font-size="27.4" fill="#55D6FF" transform="matrix(1.00, 0.00, -0.00, -1.00, 513.7, 283.0)">V</text><text xml:space="preserve" font-family="Avenir-Book" font-size="27.4" fill="#55D6FF" transform="matrix(1.00, 0.00, -0.00, -1.00, 534.8, 283.0)">E</text><text xml:space="preserve" font-family="Avenir-Book" font-size="27.4" fill="#55D6FF" transform="matrix(1.00, 0.00, -0.00, -1.00, 555.4, 283.0)">R</text><text xml:space="preserve" font-family="Avenir-Book" font-size="27.4" fill="#55D6FF" transform="matrix(1.00, 0.00, -0.00, -1.00, 576.0, 283.0)"> </text><text xml:space="preserve" font-family="Avenir-Book" font-size="27.4" fill="#55D6FF" transform="matrix(1.00, 0.00, -0.00, -1.00, 588.0, 283.0)">B</text><text xml:space="preserve" font-family="Avenir-Book" font-size="27.4" fill="#55D6FF" transform="matrix(1.00, 0.00, -0.00, -1.00, 609.6, 283.0)">R</text><text xml:space="preserve" font-family="Avenir-Book" font-size="27.4" fill="#55D6FF" transform="matrix(1.00, 0.00, -0.00, -1.00, 630.2, 283.0)">I</text><text xml:space="preserve" font-family="Avenir-Book" font-size="27.4" fill="#55D6FF" transform="matrix(1.00, 0.00, -0.00, -1.00, 641.8, 283.0)">T</text><text xml:space="preserve" font-family="Avenir-Book" font-size="27.4" fill="#55D6FF" transform="matrix(1.00, 0.00, -0.00, -1.00, 661.9, 283.0)">I</text><text xml:space="preserve" font-family="Avenir-Book" font-size="27.4" fill="#55D6FF" transform="matrix(1.00, 0.00, -0.00, -1.00, 673.5, 283.0)">S</text><text xml:space="preserve" font-family="Avenir-Book" font-size="27.4" fill="#55D6FF" transform="matrix(1.00, 0.00, -0.00, -1.00, 693.1, 283.0)">H</text><text xml:space="preserve" font-family="Avenir-Book" font-size="27.4" fill="#55D6FF" transform="matrix(1.00, 0.00, -0.00, -1.00, 717.2, 283.0)"> </text><text xml:space="preserve" font-family="Avenir-Book" font-size="27.4" fill="#55D6FF" transform="matrix(1.00, 0.00, -0.00, -1.00, 729.2, 283.0)">C</text><text xml:space="preserve" font-family="Avenir-Book" font-size="27.4" fill="#55D6FF" transform="matrix(1.00, 0.00, -0.00, -1.00, 752.9, 283.0)">O</text><text xml:space="preserve" font-family="Avenir-Book" font-size="27.4" fill="#55D6FF" transform="matrix(1.00, 0.00, -0.00, -1.00, 780.0, 283.0)">L</text><text xml:space="preserve" font-family="Avenir-Book" font-size="27.4" fill="#55D6FF" transform="matrix(1.00, 0.00, -0.00, -1.00, 798.1, 283.0)">U</text><text xml:space="preserve" font-family="Avenir-Book" font-size="27.4" fill="#55D6FF" transform="matrix(1.00, 0.00, -0.00, -1.00, 821.3, 283.0)">M</text><text xml:space="preserve" font-family="Avenir-Book" font-size="27.4" fill="#55D6FF" transform="matrix(1.00, 0.00, -0.00, -1.00, 850.0, 283.0)">B</text><text xml:space="preserve" font-family="Avenir-Book" font-size="27.4" fill="#55D6FF" transform="matrix(1.00, 0.00, -0.00, -1.00, 871.6, 283.0)">I</text><text xml:space="preserve" font-family="Avenir-Book" font-size="27.4" fill="#55D6FF" transform="matrix(1.00, 0.00, -0.00, -1.00, 883.2, 283.0)">A</text><text xml:space="preserve" font-family="Avenir-Light" font-size="28.0" fill="#FEFFFF" transform="matrix(1.00, 0.00, -0.00, -1.00, 89.0, 158.0)">R</text><text xml:space="preserve" font-family="Avenir-Light" font-size="28.0" fill="#FEFFFF" transform="matrix(1.00, 0.00, -0.00, -1.00, 105.6, 158.0)">e</text><text xml:space="preserve" font-family="Avenir-Light" font-size="28.0" fill="#FEFFFF" transform="matrix(1.00, 0.00, -0.00, -1.00, 121.2, 158.0)">n</text><text xml:space="preserve" font-family="Avenir-Light" font-size="28.0" fill="#FEFFFF" transform="matrix(1.00, 0.00, -0.00, -1.00, 136.7, 158.0)">é</text><text xml:space="preserve" font-family="Avenir-Light" font-size="28.0" fill="#FEFFFF" transform="matrix(1.00, 0.00, -0.00, -1.00, 152.3, 158.0)"> </text><text xml:space="preserve" font-family="Avenir-Light" font-size="28.0" fill="#FEFFFF" transform="matrix(1.00, 0.00, -0.00, -1.00, 159.6, 158.0)">W</text><text xml:space="preserve" font-family="Avenir-Light" font-size="28.0" fill="#FEFFFF" transform="matrix(1.00, 0.00, -0.00, -1.00, 185.0, 158.0)">a</text><text xml:space="preserve" font-family="Avenir-Light" font-size="28.0" fill="#FEFFFF" transform="matrix(1.00, 0.00, -0.00, -1.00, 199.5, 158.0)">r</text><text xml:space="preserve" font-family="Avenir-Light" font-size="28.0" fill="#FEFFFF" transform="matrix(1.00, 0.00, -0.00, -1.00, 208.8, 158.0)">r</text><text xml:space="preserve" font-family="Avenir-Light" font-size="28.0" fill="#FEFFFF" transform="matrix(1.00, 0.00, -0.00, -1.00, 217.7, 158.0)">e</text><text xml:space="preserve" font-family="Avenir-Light" font-size="28.0" fill="#FEFFFF" transform="matrix(1.00, 0.00, -0.00, -1.00, 233.2, 158.0)">n</text><text xml:space="preserve" font-family="Avenir-Light" font-size="28.0" fill="#FEFFFF" transform="matrix(1.00, 0.00, -0.00, -1.00, 248.8, 158.0)"> </text><text xml:space="preserve" font-family="Avenir-Light" font-size="28.0" fill="#FEFFFF" transform="matrix(1.00, 0.00, -0.00, -1.00, 256.1, 158.0)"> </text><text xml:space="preserve" font-family="Avenir-Light" font-size="28.0" fill="#FEFFFF" transform="matrix(1.00, 0.00, -0.00, -1.00, 263.4, 158.0)">2</text><text xml:space="preserve" font-family="Avenir-Light" font-size="28.0" fill="#FEFFFF" transform="matrix(1.00, 0.00, -0.00, -1.00, 277.9, 158.0)">0</text><text xml:space="preserve" font-family="Avenir-Light" font-size="28.0" fill="#FEFFFF" transform="matrix(1.00, 0.00, -0.00, -1.00, 292.5, 158.0)">2</text><text xml:space="preserve" font-family="Avenir-Light" font-size="28.0" fill="#FEFFFF" transform="matrix(1.00, 0.00, -0.00, -1.00, 307.0, 158.0)">0</text></g></svg>