<?xml version="1.0" encoding="UTF-8"?><svg xmlns="http://www.w3.org/2000/svg" xmlns:xlink="http://www.w3.org/1999/xlink" clip-rule="evenodd" stroke-miterlimit="4.00" viewBox="0 0 1024 768"><desc>SVG generated by Keynote</desc><defs></defs><g transform="matrix(1.00, 0.00, -0.00, -1.00, 0.0, 768.0)"><path d="M 0.0 768.0 L 1024.0 768.0 L 1024.0 0.0 L 0.0 0.0 Z M 0.0 768.0 " fill="#000000"></path><g><clipPath id="clip-338"><path d="M 0.0 1.0 L 1024.0 1.0 L 1024.0 555.0 L 0.0 555.0 Z M 0.0 1.0 "></path></clipPath><g clip-path="url(#clip-338)"><image xlink:href="3E8BB76BD9577506D46F9B30366A4A79.jpeg" width="1024.00" height="681.00" transform="matrix(1.00, 0.00, -0.00, -1.00, 0.0, 618.0)"></image></g></g><text xml:space="preserve" font-family="Avenir-Book" font-size="23.3" fill="#FEFFFE" transform="matrix(1.00, 0.00, -0.00, -1.00, 65.0, 25.0)">R</text><text xml:space="preserve" font-family="Avenir-Book" font-size="23.3" fill="#FEFFFE" transform="matrix(1.00, 0.00, -0.00, -1.00, 82.5, 25.0)">O</text><text xml:space="preserve" font-family="Avenir-Book" font-size="23.3" fill="#FEFFFE" transform="matrix(1.00, 0.00, -0.00, -1.00, 105.7, 25.0)">C</text><text xml:space="preserve" font-family="Avenir-Book" font-size="23.3" fill="#FEFFFE" transform="matrix(1.00, 0.00, -0.00, -1.00, 125.8, 25.0)">K</text><text xml:space="preserve" font-family="Avenir-Book" font-size="23.3" fill="#FEFFFE" transform="matrix(1.00, 0.00, -0.00, -1.00, 144.2, 25.0)">Y</text><text xml:space="preserve" font-family="Avenir-Book" font-size="23.3" fill="#FEFFFE" transform="matrix(1.00, 0.00, -0.00, -1.00, 161.3, 25.0)"> </text><text xml:space="preserve" font-family="Avenir-Book" font-size="23.3" fill="#FEFFFE" transform="matrix(1.00, 0.00, -0.00, -1.00, 171.5, 25.0)">M</text><text xml:space="preserve" font-family="Avenir-Book" font-size="23.3" fill="#FEFFFE" transform="matrix(1.00, 0.00, -0.00, -1.00, 195.9, 25.0)">O</text><text xml:space="preserve" font-family="Avenir-Book" font-size="23.3" fill="#FEFFFE" transform="matrix(1.00, 0.00, -0.00, -1.00, 219.0, 25.0)">U</text><text xml:space="preserve" font-family="Avenir-Book" font-size="23.3" fill="#FEFFFE" transform="matrix(1.00, 0.00, -0.00, -1.00, 238.7, 25.0)">N</text><text xml:space="preserve" font-family="Avenir-Book" font-size="23.3" fill="#FEFFFE" transform="matrix(1.00, 0.00, -0.00, -1.00, 260.6, 25.0)">T</text><text xml:space="preserve" font-family="Avenir-Book" font-size="23.3" fill="#FEFFFE" transform="matrix(1.00, 0.00, -0.00, -1.00, 276.1, 25.0)">A</text><text xml:space="preserve" font-family="Avenir-Book" font-size="23.3" fill="#FEFFFE" transform="matrix(1.00, 0.00, -0.00, -1.00, 295.8, 25.0)">I</text><text xml:space="preserve" font-family="Avenir-Book" font-size="23.3" fill="#FEFFFE" transform="matrix(1.00, 0.00, -0.00, -1.00, 305.6, 25.0)">N</text><text xml:space="preserve" font-family="Avenir-Book" font-size="23.3" fill="#FEFFFE" transform="matrix(1.00, 0.00, -0.00, -1.00, 327.5, 25.0)">S</text><text xml:space="preserve" font-family="Avenir-Book" font-size="23.3" fill="#FEFFFE" transform="matrix(1.00, 0.00, -0.00, -1.00, 344.2, 25.0)">,</text><text xml:space="preserve" font-family="Avenir-Book" font-size="23.3" fill="#FEFFFE" transform="matrix(1.00, 0.00, -0.00, -1.00, 354.3, 25.0)"> </text><text xml:space="preserve" font-family="Avenir-Book" font-size="23.3" fill="#FEFFFE" transform="matrix(1.00, 0.00, -0.00, -1.00, 364.5, 25.0)">S</text><text xml:space="preserve" font-family="Avenir-Book" font-size="23.3" fill="#FEFFFE" transform="matrix(1.00, 0.00, -0.00, -1.00, 381.2, 25.0)">T</text><text xml:space="preserve" font-family="Avenir-Book" font-size="23.3" fill="#FEFFFE" transform="matrix(1.00, 0.00, -0.00, -1.00, 398.3, 25.0)">O</text><text xml:space="preserve" font-family="Avenir-Book" font-size="23.3" fill="#FEFFFE" transform="matrix(1.00, 0.00, -0.00, -1.00, 421.4, 25.0)">N</text><text xml:space="preserve" font-family="Avenir-Book" font-size="23.3" fill="#FEFFFE" transform="matrix(1.00, 0.00, -0.00, -1.00, 443.3, 25.0)">E</text><text xml:space="preserve" font-family="Avenir-Book" font-size="23.3" fill="#FEFFFE" transform="matrix(1.00, 0.00, -0.00, -1.00, 460.8, 25.0)"> </text><text xml:space="preserve" font-family="Avenir-Book" font-size="23.3" fill="#FEFFFE" transform="matrix(1.00, 0.00, -0.00, -1.00, 471.0, 25.0)">M</text><text xml:space="preserve" font-family="Avenir-Book" font-size="23.3" fill="#FEFFFE" transform="matrix(1.00, 0.00, -0.00, -1.00, 495.4, 25.0)">O</text><text xml:space="preserve" font-family="Avenir-Book" font-size="23.3" fill="#FEFFFE" transform="matrix(1.00, 0.00, -0.00, -1.00, 518.6, 25.0)">U</text><text xml:space="preserve" font-family="Avenir-Book" font-size="23.3" fill="#FEFFFE" transform="matrix(1.00, 0.00, -0.00, -1.00, 538.3, 25.0)">N</text><text xml:space="preserve" font-family="Avenir-Book" font-size="23.3" fill="#FEFFFE" transform="matrix(1.00, 0.00, -0.00, -1.00, 560.1, 25.0)">T</text><text xml:space="preserve" font-family="Avenir-Book" font-size="23.3" fill="#FEFFFE" transform="matrix(1.00, 0.00, -0.00, -1.00, 575.6, 25.0)">A</text><text xml:space="preserve" font-family="Avenir-Book" font-size="23.3" fill="#FEFFFE" transform="matrix(1.00, 0.00, -0.00, -1.00, 595.3, 25.0)">I</text><text xml:space="preserve" font-family="Avenir-Book" font-size="23.3" fill="#FEFFFE" transform="matrix(1.00, 0.00, -0.00, -1.00, 605.2, 25.0)">N</text><text xml:space="preserve" font-family="Avenir-Book" font-size="23.3" fill="#FEFFFE" transform="matrix(1.00, 0.00, -0.00, -1.00, 627.0, 25.0)"> </text><text xml:space="preserve" font-family="Avenir-Book" font-size="23.3" fill="#FEFFFE" transform="matrix(1.00, 0.00, -0.00, -1.00, 637.2, 25.0)">P</text><text xml:space="preserve" font-family="Avenir-Book" font-size="23.3" fill="#FEFFFE" transform="matrix(1.00, 0.00, -0.00, -1.00, 654.3, 25.0)">R</text><text xml:space="preserve" font-family="Avenir-Book" font-size="23.3" fill="#FEFFFE" transform="matrix(1.00, 0.00, -0.00, -1.00, 671.8, 25.0)">O</text><text xml:space="preserve" font-family="Avenir-Book" font-size="23.3" fill="#FEFFFE" transform="matrix(1.00, 0.00, -0.00, -1.00, 695.0, 25.0)">V</text><text xml:space="preserve" font-family="Avenir-Book" font-size="23.3" fill="#FEFFFE" transform="matrix(1.00, 0.00, -0.00, -1.00, 712.9, 25.0)">I</text><text xml:space="preserve" font-family="Avenir-Book" font-size="23.3" fill="#FEFFFE" transform="matrix(1.00, 0.00, -0.00, -1.00, 722.8, 25.0)">N</text><text xml:space="preserve" font-family="Avenir-Book" font-size="23.3" fill="#FEFFFE" transform="matrix(1.00, 0.00, -0.00, -1.00, 744.6, 25.0)">C</text><text xml:space="preserve" font-family="Avenir-Book" font-size="23.3" fill="#FEFFFE" transform="matrix(1.00, 0.00, -0.00, -1.00, 764.8, 25.0)">I</text><text xml:space="preserve" font-family="Avenir-Book" font-size="23.3" fill="#FEFFFE" transform="matrix(1.00, 0.00, -0.00, -1.00, 774.6, 25.0)">A</text><text xml:space="preserve" font-family="Avenir-Book" font-size="23.3" fill="#FEFFFE" transform="matrix(1.00, 0.00, -0.00, -1.00, 794.3, 25.0)">L</text><text xml:space="preserve" font-family="Avenir-Book" font-size="23.3" fill="#FEFFFE" transform="matrix(1.00, 0.00, -0.00, -1.00, 809.7, 25.0)"> </text><text xml:space="preserve" font-family="Avenir-Book" font-size="23.3" fill="#FEFFFE" transform="matrix(1.00, 0.00, -0.00, -1.00, 819.9, 25.0)">P</text><text xml:space="preserve" font-family="Avenir-Book" font-size="23.3" fill="#FEFFFE" transform="matrix(1.00, 0.00, -0.00, -1.00, 835.2, 25.0)">A</text><text xml:space="preserve" font-family="Avenir-Book" font-size="23.3" fill="#FEFFFE" transform="matrix(1.00, 0.00, -0.00, -1.00, 854.9, 25.0)">R</text><text xml:space="preserve" font-family="Avenir-Book" font-size="23.3" fill="#FEFFFE" transform="matrix(1.00, 0.00, -0.00, -1.00, 872.5, 25.0)">K</text><text xml:space="preserve" font-family="Avenir-Book" font-size="23.3" fill="#FEFFFE" transform="matrix(1.00, 0.00, -0.00, -1.00, 890.9, 25.0)">,</text><text xml:space="preserve" font-family="Avenir-Book" font-size="23.3" fill="#FEFFFE" transform="matrix(1.00, 0.00, -0.00, -1.00, 901.1, 25.0)"> </text><text xml:space="preserve" font-family="Avenir-Book" font-size="23.3" fill="#FEFFFE" transform="matrix(1.00, 0.00, -0.00, -1.00, 911.3, 25.0)">B</text><text xml:space="preserve" font-family="Avenir-Book" font-size="23.3" fill="#FEFFFE" transform="matrix(1.00, 0.00, -0.00, -1.00, 929.6, 25.0)">C</text><text xml:space="preserve" font-family="Avenir-Light" font-size="24.0" fill="#55D6FF" transform="matrix(1.00, 0.00, -0.00, -1.00, 318.0, 611.0)">—</text><text xml:space="preserve" font-family="Avenir-Light" font-size="24.0" fill="#55D6FF" transform="matrix(1.00, 0.00, -0.00, -1.00, 345.8, 611.0)">R</text><text xml:space="preserve" font-family="Avenir-Light" font-size="24.0" fill="#55D6FF" transform="matrix(1.00, 0.00, -0.00, -1.00, 363.9, 611.0)">A</text><text xml:space="preserve" font-family="Avenir-Light" font-size="24.0" fill="#55D6FF" transform="matrix(1.00, 0.00, -0.00, -1.00, 384.2, 611.0)">L</text><text xml:space="preserve" font-family="Avenir-Light" font-size="24.0" fill="#55D6FF" transform="matrix(1.00, 0.00, -0.00, -1.00, 400.0, 611.0)">P</text><text xml:space="preserve" font-family="Avenir-Light" font-size="24.0" fill="#55D6FF" transform="matrix(1.00, 0.00, -0.00, -1.00, 417.6, 611.0)">H</text><text xml:space="preserve" font-family="Avenir-Light" font-size="24.0" fill="#55D6FF" transform="matrix(1.00, 0.00, -0.00, -1.00, 438.8, 611.0)"> </text><text xml:space="preserve" font-family="Avenir-Light" font-size="24.0" fill="#55D6FF" transform="matrix(1.00, 0.00, -0.00, -1.00, 448.9, 611.0)">W</text><text xml:space="preserve" font-family="Avenir-Light" font-size="24.0" fill="#55D6FF" transform="matrix(1.00, 0.00, -0.00, -1.00, 475.0, 611.0)">A</text><text xml:space="preserve" font-family="Avenir-Light" font-size="24.0" fill="#55D6FF" transform="matrix(1.00, 0.00, -0.00, -1.00, 495.2, 611.0)">L</text><text xml:space="preserve" font-family="Avenir-Light" font-size="24.0" fill="#55D6FF" transform="matrix(1.00, 0.00, -0.00, -1.00, 511.1, 611.0)">D</text><text xml:space="preserve" font-family="Avenir-Light" font-size="24.0" fill="#55D6FF" transform="matrix(1.00, 0.00, -0.00, -1.00, 532.7, 611.0)">O</text><text xml:space="preserve" font-family="Avenir-Light" font-size="24.0" fill="#55D6FF" transform="matrix(1.00, 0.00, -0.00, -1.00, 556.6, 611.0)"> </text><text xml:space="preserve" font-family="Avenir-Light" font-size="24.0" fill="#55D6FF" transform="matrix(1.00, 0.00, -0.00, -1.00, 566.6, 611.0)">E</text><text xml:space="preserve" font-family="Avenir-Light" font-size="24.0" fill="#55D6FF" transform="matrix(1.00, 0.00, -0.00, -1.00, 584.7, 611.0)">M</text><text xml:space="preserve" font-family="Avenir-Light" font-size="24.0" fill="#55D6FF" transform="matrix(1.00, 0.00, -0.00, -1.00, 609.9, 611.0)">E</text><text xml:space="preserve" font-family="Avenir-Light" font-size="24.0" fill="#55D6FF" transform="matrix(1.00, 0.00, -0.00, -1.00, 628.0, 611.0)">R</text><text xml:space="preserve" font-family="Avenir-Light" font-size="24.0" fill="#55D6FF" transform="matrix(1.00, 0.00, -0.00, -1.00, 646.0, 611.0)">S</text><text xml:space="preserve" font-family="Avenir-Light" font-size="24.0" fill="#55D6FF" transform="matrix(1.00, 0.00, -0.00, -1.00, 663.2, 611.0)">O</text><text xml:space="preserve" font-family="Avenir-Light" font-size="24.0" fill="#55D6FF" transform="matrix(1.00, 0.00, -0.00, -1.00, 687.1, 611.0)">N</text><text xml:space="preserve" font-family="Avenir-Light" font-size="42.0" fill="#FEFFFE" transform="matrix(1.00, 0.00, -0.00, -1.00, 6.0, 669.0)">“</text><text xml:space="preserve" font-family="Avenir-Light" font-size="42.0" fill="#FEFFFE" transform="matrix(1.00, 0.00, -0.00, -1.00, 27.8, 669.0)">I</text><text xml:space="preserve" font-family="Avenir-Light" font-size="42.0" fill="#FEFFFE" transform="matrix(1.00, 0.00, -0.00, -1.00, 38.8, 669.0)">t</text><text xml:space="preserve" font-family="Avenir-Light" font-size="42.0" fill="#FEFFFE" transform="matrix(1.00, 0.00, -0.00, -1.00, 52.8, 669.0)">’</text><text xml:space="preserve" font-family="Avenir-Light" font-size="42.0" fill="#FEFFFE" transform="matrix(1.00, 0.00, -0.00, -1.00, 59.0, 669.0)">s</text><text xml:space="preserve" font-family="Avenir-Light" font-size="42.0" fill="#FEFFFE" transform="matrix(1.00, 0.00, -0.00, -1.00, 76.9, 669.0)"> </text><text xml:space="preserve" font-family="Avenir-Light" font-size="42.0" fill="#FEFFFE" transform="matrix(1.00, 0.00, -0.00, -1.00, 87.9, 669.0)">n</text><text xml:space="preserve" font-family="Avenir-Light" font-size="42.0" fill="#FEFFFE" transform="matrix(1.00, 0.00, -0.00, -1.00, 111.2, 669.0)">o</text><text xml:space="preserve" font-family="Avenir-Light" font-size="42.0" fill="#FEFFFE" transform="matrix(1.00, 0.00, -0.00, -1.00, 136.2, 669.0)">t</text><text xml:space="preserve" font-family="Avenir-Light" font-size="42.0" fill="#FEFFFE" transform="matrix(1.00, 0.00, -0.00, -1.00, 150.1, 669.0)"> </text><text xml:space="preserve" font-family="Avenir-Light" font-size="42.0" fill="#FEFFFE" transform="matrix(1.00, 0.00, -0.00, -1.00, 161.1, 669.0)">a</text><text xml:space="preserve" font-family="Avenir-Light" font-size="42.0" fill="#FEFFFE" transform="matrix(1.00, 0.00, -0.00, -1.00, 182.9, 669.0)">b</text><text xml:space="preserve" font-family="Avenir-Light" font-size="42.0" fill="#FEFFFE" transform="matrix(1.00, 0.00, -0.00, -1.00, 208.5, 669.0)">o</text><text xml:space="preserve" font-family="Avenir-Light" font-size="42.0" fill="#FEFFFE" transform="matrix(1.00, 0.00, -0.00, -1.00, 233.5, 669.0)">u</text><text xml:space="preserve" font-family="Avenir-Light" font-size="42.0" fill="#FEFFFE" transform="matrix(1.00, 0.00, -0.00, -1.00, 256.8, 669.0)">t</text><text xml:space="preserve" font-family="Avenir-Light" font-size="42.0" fill="#FEFFFE" transform="matrix(1.00, 0.00, -0.00, -1.00, 270.8, 669.0)"> </text><text xml:space="preserve" font-family="Avenir-Light" font-size="42.0" fill="#FEFFFE" transform="matrix(1.00, 0.00, -0.00, -1.00, 281.7, 669.0)">t</text><text xml:space="preserve" font-family="Avenir-Light" font-size="42.0" fill="#FEFFFE" transform="matrix(1.00, 0.00, -0.00, -1.00, 295.8, 669.0)">h</text><text xml:space="preserve" font-family="Avenir-Light" font-size="42.0" fill="#FEFFFE" transform="matrix(1.00, 0.00, -0.00, -1.00, 319.1, 669.0)">e</text><text xml:space="preserve" font-family="Avenir-Light" font-size="42.0" fill="#FEFFFE" transform="matrix(1.00, 0.00, -0.00, -1.00, 342.5, 669.0)"> </text><text xml:space="preserve" font-family="Avenir-Light" font-size="42.0" fill="#FEFFFE" transform="matrix(1.00, 0.00, -0.00, -1.00, 353.4, 669.0)">d</text><text xml:space="preserve" font-family="Avenir-Light" font-size="42.0" fill="#FEFFFE" transform="matrix(1.00, 0.00, -0.00, -1.00, 379.0, 669.0)">e</text><text xml:space="preserve" font-family="Avenir-Light" font-size="42.0" fill="#FEFFFE" transform="matrix(1.00, 0.00, -0.00, -1.00, 402.4, 669.0)">s</text><text xml:space="preserve" font-family="Avenir-Light" font-size="42.0" fill="#FEFFFE" transform="matrix(1.00, 0.00, -0.00, -1.00, 420.3, 669.0)">t</text><text xml:space="preserve" font-family="Avenir-Light" font-size="42.0" fill="#FEFFFE" transform="matrix(1.00, 0.00, -0.00, -1.00, 434.3, 669.0)">i</text><text xml:space="preserve" font-family="Avenir-Light" font-size="42.0" fill="#FEFFFE" transform="matrix(1.00, 0.00, -0.00, -1.00, 444.4, 669.0)">n</text><text xml:space="preserve" font-family="Avenir-Light" font-size="42.0" fill="#FEFFFE" transform="matrix(1.00, 0.00, -0.00, -1.00, 467.7, 669.0)">a</text><text xml:space="preserve" font-family="Avenir-Light" font-size="42.0" fill="#FEFFFE" transform="matrix(1.00, 0.00, -0.00, -1.00, 489.5, 669.0)">t</text><text xml:space="preserve" font-family="Avenir-Light" font-size="42.0" fill="#FEFFFE" transform="matrix(1.00, 0.00, -0.00, -1.00, 503.6, 669.0)">i</text><text xml:space="preserve" font-family="Avenir-Light" font-size="42.0" fill="#FEFFFE" transform="matrix(1.00, 0.00, -0.00, -1.00, 513.7, 669.0)">o</text><text xml:space="preserve" font-family="Avenir-Light" font-size="42.0" fill="#FEFFFE" transform="matrix(1.00, 0.00, -0.00, -1.00, 538.6, 669.0)">n</text><text xml:space="preserve" font-family="Avenir-Light" font-size="42.0" fill="#FEFFFE" transform="matrix(1.00, 0.00, -0.00, -1.00, 562.0, 669.0)">,</text><text xml:space="preserve" font-family="Avenir-Light" font-size="42.0" fill="#FEFFFE" transform="matrix(1.00, 0.00, -0.00, -1.00, 572.9, 669.0)"> </text><text xml:space="preserve" font-family="Avenir-Light" font-size="42.0" fill="#FEFFFE" transform="matrix(1.00, 0.00, -0.00, -1.00, 583.8, 669.0)">b</text><text xml:space="preserve" font-family="Avenir-Light" font-size="42.0" fill="#FEFFFE" transform="matrix(1.00, 0.00, -0.00, -1.00, 609.5, 669.0)">u</text><text xml:space="preserve" font-family="Avenir-Light" font-size="42.0" fill="#FEFFFE" transform="matrix(1.00, 0.00, -0.00, -1.00, 632.8, 669.0)">t</text><text xml:space="preserve" font-family="Avenir-Light" font-size="42.0" fill="#FEFFFE" transform="matrix(1.00, 0.00, -0.00, -1.00, 646.8, 669.0)"> </text><text xml:space="preserve" font-family="Avenir-Light" font-size="42.0" fill="#FEFFFE" transform="matrix(1.00, 0.00, -0.00, -1.00, 657.7, 669.0)">a</text><text xml:space="preserve" font-family="Avenir-Light" font-size="42.0" fill="#FEFFFE" transform="matrix(1.00, 0.00, -0.00, -1.00, 679.5, 669.0)">b</text><text xml:space="preserve" font-family="Avenir-Light" font-size="42.0" fill="#FEFFFE" transform="matrix(1.00, 0.00, -0.00, -1.00, 705.2, 669.0)">o</text><text xml:space="preserve" font-family="Avenir-Light" font-size="42.0" fill="#FEFFFE" transform="matrix(1.00, 0.00, -0.00, -1.00, 730.1, 669.0)">u</text><text xml:space="preserve" font-family="Avenir-Light" font-size="42.0" fill="#FEFFFE" transform="matrix(1.00, 0.00, -0.00, -1.00, 753.5, 669.0)">t</text><text xml:space="preserve" font-family="Avenir-Light" font-size="42.0" fill="#FEFFFE" transform="matrix(1.00, 0.00, -0.00, -1.00, 767.5, 669.0)"> </text><text xml:space="preserve" font-family="Avenir-Light" font-size="42.0" fill="#FEFFFE" transform="matrix(1.00, 0.00, -0.00, -1.00, 778.4, 669.0)">t</text><text xml:space="preserve" font-family="Avenir-Light" font-size="42.0" fill="#FEFFFE" transform="matrix(1.00, 0.00, -0.00, -1.00, 792.4, 669.0)">h</text><text xml:space="preserve" font-family="Avenir-Light" font-size="42.0" fill="#FEFFFE" transform="matrix(1.00, 0.00, -0.00, -1.00, 815.8, 669.0)">e</text><text xml:space="preserve" font-family="Avenir-Light" font-size="42.0" fill="#FEFFFE" transform="matrix(1.00, 0.00, -0.00, -1.00, 839.1, 669.0)"> </text><text xml:space="preserve" font-family="Avenir-Light" font-size="42.0" fill="#FEFFFE" transform="matrix(1.00, 0.00, -0.00, -1.00, 850.0, 669.0)">j</text><text xml:space="preserve" font-family="Avenir-Light" font-size="42.0" fill="#FEFFFE" transform="matrix(1.00, 0.00, -0.00, -1.00, 860.1, 669.0)">o</text><text xml:space="preserve" font-family="Avenir-Light" font-size="42.0" fill="#FEFFFE" transform="matrix(1.00, 0.00, -0.00, -1.00, 885.1, 669.0)">u</text><text xml:space="preserve" font-family="Avenir-Light" font-size="42.0" fill="#FEFFFE" transform="matrix(1.00, 0.00, -0.00, -1.00, 908.4, 669.0)">r</text><text xml:space="preserve" font-family="Avenir-Light" font-size="42.0" fill="#FEFFFE" transform="matrix(1.00, 0.00, -0.00, -1.00, 922.4, 669.0)">n</text><text xml:space="preserve" font-family="Avenir-Light" font-size="42.0" fill="#FEFFFE" transform="matrix(1.00, 0.00, -0.00, -1.00, 945.7, 669.0)">e</text><text xml:space="preserve" font-family="Avenir-Light" font-size="42.0" fill="#FEFFFE" transform="matrix(1.00, 0.00, -0.00, -1.00, 969.1, 669.0)">y</text><text xml:space="preserve" font-family="Avenir-Light" font-size="42.0" fill="#FEFFFE" transform="matrix(1.00, 0.00, -0.00, -1.00, 984.7, 669.0)">.</text><text xml:space="preserve" font-family="Avenir-Light" font-size="42.0" fill="#FEFFFE" transform="matrix(1.00, 0.00, -0.00, -1.00, 995.6, 669.0)">”</text><text xml:space="preserve" font-family="Avenir-Light" font-size="42.0" fill="#FEFFFE" transform="matrix(1.00, 0.00, -0.00, -1.00, 1017.4, 669.0)"> </text></g></svg>