<?xml version="1.0" encoding="UTF-8"?><svg xmlns="http://www.w3.org/2000/svg" xmlns:xlink="http://www.w3.org/1999/xlink" clip-rule="evenodd" stroke-miterlimit="4.00" viewBox="0 0 1024 768"><desc>SVG generated by Keynote</desc><defs></defs><g transform="matrix(1.00, 0.00, -0.00, -1.00, 0.0, 768.0)"><path d="M 0.0 768.0 L 1024.0 768.0 L 1024.0 0.0 L 0.0 0.0 Z M 0.0 768.0 " fill="#000000"></path><g><clipPath id="clip-5"><path d="M 0.0 768.0 L 1024.0 768.0 L 1024.0 34.0 L 0.0 34.0 Z M 0.0 768.2 "></path></clipPath><g clip-path="url(#clip-5)"><image xlink:href="../../346244F6-1A10-4D6F-9177-30149811B88D/assets/67839B207711696D003F03F7E13CD4B7.jpeg" width="1022.00" height="768.00" transform="matrix(1.00, 0.00, -0.00, -1.00, 0.0, 786.0)"></image></g></g><text xml:space="preserve" font-family="Avenir-Book" font-size="21.4" fill="#FEFFFE" transform="matrix(1.00, 0.00, -0.00, -1.00, 66.0, 10.0)">C</text><text xml:space="preserve" font-family="Avenir-Book" font-size="21.4" fill="#FEFFFE" transform="matrix(1.00, 0.00, -0.00, -1.00, 84.5, 10.0)">A</text><text xml:space="preserve" font-family="Avenir-Book" font-size="21.4" fill="#FEFFFE" transform="matrix(1.00, 0.00, -0.00, -1.00, 102.5, 10.0)">M</text><text xml:space="preserve" font-family="Avenir-Book" font-size="21.4" fill="#FEFFFE" transform="matrix(1.00, 0.00, -0.00, -1.00, 125.0, 10.0)">P</text><text xml:space="preserve" font-family="Avenir-Book" font-size="21.4" fill="#FEFFFE" transform="matrix(1.00, 0.00, -0.00, -1.00, 140.6, 10.0)">I</text><text xml:space="preserve" font-family="Avenir-Book" font-size="21.4" fill="#FEFFFE" transform="matrix(1.00, 0.00, -0.00, -1.00, 149.7, 10.0)">N</text><text xml:space="preserve" font-family="Avenir-Book" font-size="21.4" fill="#FEFFFE" transform="matrix(1.00, 0.00, -0.00, -1.00, 169.7, 10.0)">G</text><text xml:space="preserve" font-family="Avenir-Book" font-size="21.4" fill="#FEFFFE" transform="matrix(1.00, 0.00, -0.00, -1.00, 189.8, 10.0)">,</text><text xml:space="preserve" font-family="Avenir-Book" font-size="21.4" fill="#FEFFFE" transform="matrix(1.00, 0.00, -0.00, -1.00, 199.1, 10.0)"> </text><text xml:space="preserve" font-family="Avenir-Book" font-size="21.4" fill="#FEFFFE" transform="matrix(1.00, 0.00, -0.00, -1.00, 208.5, 10.0)">H</text><text xml:space="preserve" font-family="Avenir-Book" font-size="21.4" fill="#FEFFFE" transform="matrix(1.00, 0.00, -0.00, -1.00, 227.3, 10.0)">I</text><text xml:space="preserve" font-family="Avenir-Book" font-size="21.4" fill="#FEFFFE" transform="matrix(1.00, 0.00, -0.00, -1.00, 236.4, 10.0)">K</text><text xml:space="preserve" font-family="Avenir-Book" font-size="21.4" fill="#FEFFFE" transform="matrix(1.00, 0.00, -0.00, -1.00, 253.2, 10.0)">I</text><text xml:space="preserve" font-family="Avenir-Book" font-size="21.4" fill="#FEFFFE" transform="matrix(1.00, 0.00, -0.00, -1.00, 262.3, 10.0)">N</text><text xml:space="preserve" font-family="Avenir-Book" font-size="21.4" fill="#FEFFFE" transform="matrix(1.00, 0.00, -0.00, -1.00, 282.3, 10.0)">G</text><text xml:space="preserve" font-family="Avenir-Book" font-size="21.4" fill="#FEFFFE" transform="matrix(1.00, 0.00, -0.00, -1.00, 302.4, 10.0)">,</text><text xml:space="preserve" font-family="Avenir-Book" font-size="21.4" fill="#FEFFFE" transform="matrix(1.00, 0.00, -0.00, -1.00, 311.7, 10.0)"> </text><text xml:space="preserve" font-family="Avenir-Book" font-size="21.4" fill="#FEFFFE" transform="matrix(1.00, 0.00, -0.00, -1.00, 321.1, 10.0)">K</text><text xml:space="preserve" font-family="Avenir-Book" font-size="21.4" fill="#FEFFFE" transform="matrix(1.00, 0.00, -0.00, -1.00, 338.0, 10.0)">A</text><text xml:space="preserve" font-family="Avenir-Book" font-size="21.4" fill="#FEFFFE" transform="matrix(1.00, 0.00, -0.00, -1.00, 354.4, 10.0)">Y</text><text xml:space="preserve" font-family="Avenir-Book" font-size="21.4" fill="#FEFFFE" transform="matrix(1.00, 0.00, -0.00, -1.00, 368.5, 10.0)">A</text><text xml:space="preserve" font-family="Avenir-Book" font-size="21.4" fill="#FEFFFE" transform="matrix(1.00, 0.00, -0.00, -1.00, 386.6, 10.0)">K</text><text xml:space="preserve" font-family="Avenir-Book" font-size="21.4" fill="#FEFFFE" transform="matrix(1.00, 0.00, -0.00, -1.00, 403.5, 10.0)">I</text><text xml:space="preserve" font-family="Avenir-Book" font-size="21.4" fill="#FEFFFE" transform="matrix(1.00, 0.00, -0.00, -1.00, 412.5, 10.0)">N</text><text xml:space="preserve" font-family="Avenir-Book" font-size="21.4" fill="#FEFFFE" transform="matrix(1.00, 0.00, -0.00, -1.00, 432.6, 10.0)">G</text><text xml:space="preserve" font-family="Avenir-Book" font-size="21.4" fill="#FEFFFE" transform="matrix(1.00, 0.00, -0.00, -1.00, 452.6, 10.0)"> </text><text xml:space="preserve" font-family="Avenir-Book" font-size="21.4" fill="#FEFFFE" transform="matrix(1.00, 0.00, -0.00, -1.00, 462.0, 10.0)">&amp;</text><text xml:space="preserve" font-family="Avenir-Book" font-size="21.4" fill="#FEFFFE" transform="matrix(1.00, 0.00, -0.00, -1.00, 480.4, 10.0)"> </text><text xml:space="preserve" font-family="Avenir-Book" font-size="21.4" fill="#FEFFFE" transform="matrix(1.00, 0.00, -0.00, -1.00, 489.8, 10.0)">F</text><text xml:space="preserve" font-family="Avenir-Book" font-size="21.4" fill="#FEFFFE" transform="matrix(1.00, 0.00, -0.00, -1.00, 505.1, 10.0)">O</text><text xml:space="preserve" font-family="Avenir-Book" font-size="21.4" fill="#FEFFFE" transform="matrix(1.00, 0.00, -0.00, -1.00, 526.3, 10.0)">O</text><text xml:space="preserve" font-family="Avenir-Book" font-size="21.4" fill="#FEFFFE" transform="matrix(1.00, 0.00, -0.00, -1.00, 547.5, 10.0)">D</text><text xml:space="preserve" font-family="Avenir-Book" font-size="21.4" fill="#FEFFFE" transform="matrix(1.00, 0.00, -0.00, -1.00, 566.8, 10.0)"> </text><text xml:space="preserve" font-family="Avenir-Book" font-size="21.4" fill="#FEFFFE" transform="matrix(1.00, 0.00, -0.00, -1.00, 576.1, 10.0)">P</text><text xml:space="preserve" font-family="Avenir-Book" font-size="21.4" fill="#FEFFFE" transform="matrix(1.00, 0.00, -0.00, -1.00, 591.8, 10.0)">R</text><text xml:space="preserve" font-family="Avenir-Book" font-size="21.4" fill="#FEFFFE" transform="matrix(1.00, 0.00, -0.00, -1.00, 607.9, 10.0)">E</text><text xml:space="preserve" font-family="Avenir-Book" font-size="21.4" fill="#FEFFFE" transform="matrix(1.00, 0.00, -0.00, -1.00, 624.0, 10.0)">P</text><text xml:space="preserve" font-family="Avenir-Book" font-size="21.4" fill="#FEFFFE" transform="matrix(1.00, 0.00, -0.00, -1.00, 639.7, 10.0)">S</text><text xml:space="preserve" font-family="Avenir-Book" font-size="21.4" fill="#FEFFFE" transform="matrix(1.00, 0.00, -0.00, -1.00, 655.0, 10.0)">,</text><text xml:space="preserve" font-family="Avenir-Book" font-size="21.4" fill="#FEFFFE" transform="matrix(1.00, 0.00, -0.00, -1.00, 664.3, 10.0)"> </text><text xml:space="preserve" font-family="Avenir-Book" font-size="21.4" fill="#FEFFFE" transform="matrix(1.00, 0.00, -0.00, -1.00, 673.7, 10.0)">C</text><text xml:space="preserve" font-family="Avenir-Book" font-size="21.4" fill="#FEFFFE" transform="matrix(1.00, 0.00, -0.00, -1.00, 692.1, 10.0)">H</text><text xml:space="preserve" font-family="Avenir-Book" font-size="21.4" fill="#FEFFFE" transform="matrix(1.00, 0.00, -0.00, -1.00, 711.0, 10.0)">A</text><text xml:space="preserve" font-family="Avenir-Book" font-size="21.4" fill="#FEFFFE" transform="matrix(1.00, 0.00, -0.00, -1.00, 729.0, 10.0)">R</text><text xml:space="preserve" font-family="Avenir-Book" font-size="21.4" fill="#FEFFFE" transform="matrix(1.00, 0.00, -0.00, -1.00, 745.2, 10.0)">T</text><text xml:space="preserve" font-family="Avenir-Book" font-size="21.4" fill="#FEFFFE" transform="matrix(1.00, 0.00, -0.00, -1.00, 760.9, 10.0)">I</text><text xml:space="preserve" font-family="Avenir-Book" font-size="21.4" fill="#FEFFFE" transform="matrix(1.00, 0.00, -0.00, -1.00, 770.0, 10.0)">N</text><text xml:space="preserve" font-family="Avenir-Book" font-size="21.4" fill="#FEFFFE" transform="matrix(1.00, 0.00, -0.00, -1.00, 790.0, 10.0)">G</text><text xml:space="preserve" font-family="Avenir-Book" font-size="21.4" fill="#FEFFFE" transform="matrix(1.00, 0.00, -0.00, -1.00, 810.1, 10.0)"> </text><text xml:space="preserve" font-family="Avenir-Book" font-size="21.4" fill="#FEFFFE" transform="matrix(1.00, 0.00, -0.00, -1.00, 819.4, 10.0)">A</text><text xml:space="preserve" font-family="Avenir-Book" font-size="21.4" fill="#FEFFFE" transform="matrix(1.00, 0.00, -0.00, -1.00, 837.5, 10.0)"> </text><text xml:space="preserve" font-family="Avenir-Book" font-size="21.4" fill="#FEFFFE" transform="matrix(1.00, 0.00, -0.00, -1.00, 846.8, 10.0)">C</text><text xml:space="preserve" font-family="Avenir-Book" font-size="21.4" fill="#FEFFFE" transform="matrix(1.00, 0.00, -0.00, -1.00, 865.3, 10.0)">O</text><text xml:space="preserve" font-family="Avenir-Book" font-size="21.4" fill="#FEFFFE" transform="matrix(1.00, 0.00, -0.00, -1.00, 886.5, 10.0)">U</text><text xml:space="preserve" font-family="Avenir-Book" font-size="21.4" fill="#FEFFFE" transform="matrix(1.00, 0.00, -0.00, -1.00, 904.6, 10.0)">R</text><text xml:space="preserve" font-family="Avenir-Book" font-size="21.4" fill="#FEFFFE" transform="matrix(1.00, 0.00, -0.00, -1.00, 920.7, 10.0)">S</text><text xml:space="preserve" font-family="Avenir-Book" font-size="21.4" fill="#FEFFFE" transform="matrix(1.00, 0.00, -0.00, -1.00, 936.0, 10.0)">E</text></g></svg>