<?xml version="1.0" encoding="UTF-8"?><svg xmlns="http://www.w3.org/2000/svg" xmlns:xlink="http://www.w3.org/1999/xlink" clip-rule="evenodd" stroke-miterlimit="4.00" viewBox="0 0 1024 768"><desc>SVG generated by Keynote</desc><defs></defs><g transform="matrix(1.00, 0.00, -0.00, -1.00, 0.0, 768.0)"><path d="M 0.0 768.0 L 1024.0 768.0 L 1024.0 0.0 L 0.0 0.0 Z M 0.0 768.0 " fill="#000000"></path><g><clipPath id="clip-515"><path d="M 0.0 0.0 L 1024.0 0.0 L 1024.0 768.0 L 0.0 768.0 Z M 0.0 0.0 "></path></clipPath><g clip-path="url(#clip-515)"><image xlink:href="../../346244F6-1A10-4D6F-9177-30149811B88D/assets/F4D998713B6B590576C2F4CF90B3BF2C.jpeg" width="1022.00" height="768.00" transform="matrix(1.00, 0.00, -0.00, -1.00, 0.0, 769.0)"></image></g></g><text xml:space="preserve" font-family="Avenir-Light" font-size="62.0" fill="#000000" transform="matrix(1.00, 0.00, -0.00, -1.00, 250.0, 227.0)">P</text><text xml:space="preserve" font-family="Avenir-Light" font-size="62.0" fill="#000000" transform="matrix(1.00, 0.00, -0.00, -1.00, 295.5, 227.0)">R</text><text xml:space="preserve" font-family="Avenir-Light" font-size="62.0" fill="#000000" transform="matrix(1.00, 0.00, -0.00, -1.00, 342.2, 227.0)">E</text><text xml:space="preserve" font-family="Avenir-Light" font-size="62.0" fill="#000000" transform="matrix(1.00, 0.00, -0.00, -1.00, 388.9, 227.0)">P</text><text xml:space="preserve" font-family="Avenir-Light" font-size="62.0" fill="#000000" transform="matrix(1.00, 0.00, -0.00, -1.00, 429.8, 227.0)">A</text><text xml:space="preserve" font-family="Avenir-Light" font-size="62.0" fill="#000000" transform="matrix(1.00, 0.00, -0.00, -1.00, 482.2, 227.0)">R</text><text xml:space="preserve" font-family="Avenir-Light" font-size="62.0" fill="#000000" transform="matrix(1.00, 0.00, -0.00, -1.00, 528.9, 227.0)">A</text><text xml:space="preserve" font-family="Avenir-Light" font-size="62.0" fill="#000000" transform="matrix(1.00, 0.00, -0.00, -1.00, 577.0, 227.0)">T</text><text xml:space="preserve" font-family="Avenir-Light" font-size="62.0" fill="#000000" transform="matrix(1.00, 0.00, -0.00, -1.00, 622.6, 227.0)">I</text><text xml:space="preserve" font-family="Avenir-Light" font-size="62.0" fill="#000000" transform="matrix(1.00, 0.00, -0.00, -1.00, 648.6, 227.0)">O</text><text xml:space="preserve" font-family="Avenir-Light" font-size="62.0" fill="#000000" transform="matrix(1.00, 0.00, -0.00, -1.00, 710.2, 227.0)">N</text><text xml:space="preserve" font-family="Avenir-Light" font-size="62.0" fill="#000000" transform="matrix(1.00, 0.00, -0.00, -1.00, 768.4, 227.0)">S</text><text xml:space="preserve" font-family="Avenir-Book" font-size="21.1" fill="#FEFFFE" transform="matrix(1.00, 0.00, -0.00, -1.00, 51.0, 70.0)">C</text><text xml:space="preserve" font-family="Avenir-Book" font-size="21.1" fill="#FEFFFE" transform="matrix(1.00, 0.00, -0.00, -1.00, 69.2, 70.0)">A</text><text xml:space="preserve" font-family="Avenir-Book" font-size="21.1" fill="#FEFFFE" transform="matrix(1.00, 0.00, -0.00, -1.00, 87.1, 70.0)">M</text><text xml:space="preserve" font-family="Avenir-Book" font-size="21.1" fill="#FEFFFE" transform="matrix(1.00, 0.00, -0.00, -1.00, 109.3, 70.0)">P</text><text xml:space="preserve" font-family="Avenir-Book" font-size="21.1" fill="#FEFFFE" transform="matrix(1.00, 0.00, -0.00, -1.00, 124.8, 70.0)">I</text><text xml:space="preserve" font-family="Avenir-Book" font-size="21.1" fill="#FEFFFE" transform="matrix(1.00, 0.00, -0.00, -1.00, 133.7, 70.0)">N</text><text xml:space="preserve" font-family="Avenir-Book" font-size="21.1" fill="#FEFFFE" transform="matrix(1.00, 0.00, -0.00, -1.00, 153.6, 70.0)">G</text><text xml:space="preserve" font-family="Avenir-Book" font-size="21.1" fill="#FEFFFE" transform="matrix(1.00, 0.00, -0.00, -1.00, 173.4, 70.0)">,</text><text xml:space="preserve" font-family="Avenir-Book" font-size="21.1" fill="#FEFFFE" transform="matrix(1.00, 0.00, -0.00, -1.00, 182.6, 70.0)"> </text><text xml:space="preserve" font-family="Avenir-Book" font-size="21.1" fill="#FEFFFE" transform="matrix(1.00, 0.00, -0.00, -1.00, 191.9, 70.0)">H</text><text xml:space="preserve" font-family="Avenir-Book" font-size="21.1" fill="#FEFFFE" transform="matrix(1.00, 0.00, -0.00, -1.00, 210.5, 70.0)">I</text><text xml:space="preserve" font-family="Avenir-Book" font-size="21.1" fill="#FEFFFE" transform="matrix(1.00, 0.00, -0.00, -1.00, 219.5, 70.0)">K</text><text xml:space="preserve" font-family="Avenir-Book" font-size="21.1" fill="#FEFFFE" transform="matrix(1.00, 0.00, -0.00, -1.00, 236.1, 70.0)">I</text><text xml:space="preserve" font-family="Avenir-Book" font-size="21.1" fill="#FEFFFE" transform="matrix(1.00, 0.00, -0.00, -1.00, 245.1, 70.0)">N</text><text xml:space="preserve" font-family="Avenir-Book" font-size="21.1" fill="#FEFFFE" transform="matrix(1.00, 0.00, -0.00, -1.00, 264.9, 70.0)">G</text><text xml:space="preserve" font-family="Avenir-Book" font-size="21.1" fill="#FEFFFE" transform="matrix(1.00, 0.00, -0.00, -1.00, 284.7, 70.0)">,</text><text xml:space="preserve" font-family="Avenir-Book" font-size="21.1" fill="#FEFFFE" transform="matrix(1.00, 0.00, -0.00, -1.00, 294.0, 70.0)"> </text><text xml:space="preserve" font-family="Avenir-Book" font-size="21.1" fill="#FEFFFE" transform="matrix(1.00, 0.00, -0.00, -1.00, 303.2, 70.0)">K</text><text xml:space="preserve" font-family="Avenir-Book" font-size="21.1" fill="#FEFFFE" transform="matrix(1.00, 0.00, -0.00, -1.00, 319.9, 70.0)">A</text><text xml:space="preserve" font-family="Avenir-Book" font-size="21.1" fill="#FEFFFE" transform="matrix(1.00, 0.00, -0.00, -1.00, 336.2, 70.0)">Y</text><text xml:space="preserve" font-family="Avenir-Book" font-size="21.1" fill="#FEFFFE" transform="matrix(1.00, 0.00, -0.00, -1.00, 350.1, 70.0)">A</text><text xml:space="preserve" font-family="Avenir-Book" font-size="21.1" fill="#FEFFFE" transform="matrix(1.00, 0.00, -0.00, -1.00, 368.0, 70.0)">K</text><text xml:space="preserve" font-family="Avenir-Book" font-size="21.1" fill="#FEFFFE" transform="matrix(1.00, 0.00, -0.00, -1.00, 384.7, 70.0)">I</text><text xml:space="preserve" font-family="Avenir-Book" font-size="21.1" fill="#FEFFFE" transform="matrix(1.00, 0.00, -0.00, -1.00, 393.7, 70.0)">N</text><text xml:space="preserve" font-family="Avenir-Book" font-size="21.1" fill="#FEFFFE" transform="matrix(1.00, 0.00, -0.00, -1.00, 413.5, 70.0)">G</text><text xml:space="preserve" font-family="Avenir-Book" font-size="21.1" fill="#FEFFFE" transform="matrix(1.00, 0.00, -0.00, -1.00, 433.3, 70.0)"> </text><text xml:space="preserve" font-family="Avenir-Book" font-size="21.1" fill="#FEFFFE" transform="matrix(1.00, 0.00, -0.00, -1.00, 442.5, 70.0)">&amp;</text><text xml:space="preserve" font-family="Avenir-Book" font-size="21.1" fill="#FEFFFE" transform="matrix(1.00, 0.00, -0.00, -1.00, 460.8, 70.0)"> </text><text xml:space="preserve" font-family="Avenir-Book" font-size="21.1" fill="#FEFFFE" transform="matrix(1.00, 0.00, -0.00, -1.00, 470.0, 70.0)">F</text><text xml:space="preserve" font-family="Avenir-Book" font-size="21.1" fill="#FEFFFE" transform="matrix(1.00, 0.00, -0.00, -1.00, 485.1, 70.0)">O</text><text xml:space="preserve" font-family="Avenir-Book" font-size="21.1" fill="#FEFFFE" transform="matrix(1.00, 0.00, -0.00, -1.00, 506.1, 70.0)">O</text><text xml:space="preserve" font-family="Avenir-Book" font-size="21.1" fill="#FEFFFE" transform="matrix(1.00, 0.00, -0.00, -1.00, 527.1, 70.0)">D</text><text xml:space="preserve" font-family="Avenir-Book" font-size="21.1" fill="#FEFFFE" transform="matrix(1.00, 0.00, -0.00, -1.00, 546.2, 70.0)"> </text><text xml:space="preserve" font-family="Avenir-Book" font-size="21.1" fill="#FEFFFE" transform="matrix(1.00, 0.00, -0.00, -1.00, 555.4, 70.0)">S</text><text xml:space="preserve" font-family="Avenir-Book" font-size="21.1" fill="#FEFFFE" transform="matrix(1.00, 0.00, -0.00, -1.00, 570.5, 70.0)">U</text><text xml:space="preserve" font-family="Avenir-Book" font-size="21.1" fill="#FEFFFE" transform="matrix(1.00, 0.00, -0.00, -1.00, 588.4, 70.0)">P</text><text xml:space="preserve" font-family="Avenir-Book" font-size="21.1" fill="#FEFFFE" transform="matrix(1.00, 0.00, -0.00, -1.00, 603.9, 70.0)">P</text><text xml:space="preserve" font-family="Avenir-Book" font-size="21.1" fill="#FEFFFE" transform="matrix(1.00, 0.00, -0.00, -1.00, 619.4, 70.0)">L</text><text xml:space="preserve" font-family="Avenir-Book" font-size="21.1" fill="#FEFFFE" transform="matrix(1.00, 0.00, -0.00, -1.00, 633.3, 70.0)">I</text><text xml:space="preserve" font-family="Avenir-Book" font-size="21.1" fill="#FEFFFE" transform="matrix(1.00, 0.00, -0.00, -1.00, 642.3, 70.0)">E</text><text xml:space="preserve" font-family="Avenir-Book" font-size="21.1" fill="#FEFFFE" transform="matrix(1.00, 0.00, -0.00, -1.00, 658.2, 70.0)">S</text><text xml:space="preserve" font-family="Avenir-Book" font-size="21.1" fill="#FEFFFE" transform="matrix(1.00, 0.00, -0.00, -1.00, 673.3, 70.0)">,</text><text xml:space="preserve" font-family="Avenir-Book" font-size="21.1" fill="#FEFFFE" transform="matrix(1.00, 0.00, -0.00, -1.00, 682.6, 70.0)"> </text><text xml:space="preserve" font-family="Avenir-Book" font-size="21.1" fill="#FEFFFE" transform="matrix(1.00, 0.00, -0.00, -1.00, 691.8, 70.0)">C</text><text xml:space="preserve" font-family="Avenir-Book" font-size="21.1" fill="#FEFFFE" transform="matrix(1.00, 0.00, -0.00, -1.00, 710.1, 70.0)">H</text><text xml:space="preserve" font-family="Avenir-Book" font-size="21.1" fill="#FEFFFE" transform="matrix(1.00, 0.00, -0.00, -1.00, 728.7, 70.0)">A</text><text xml:space="preserve" font-family="Avenir-Book" font-size="21.1" fill="#FEFFFE" transform="matrix(1.00, 0.00, -0.00, -1.00, 746.6, 70.0)">R</text><text xml:space="preserve" font-family="Avenir-Book" font-size="21.1" fill="#FEFFFE" transform="matrix(1.00, 0.00, -0.00, -1.00, 762.6, 70.0)">T</text><text xml:space="preserve" font-family="Avenir-Book" font-size="21.1" fill="#FEFFFE" transform="matrix(1.00, 0.00, -0.00, -1.00, 778.1, 70.0)">I</text><text xml:space="preserve" font-family="Avenir-Book" font-size="21.1" fill="#FEFFFE" transform="matrix(1.00, 0.00, -0.00, -1.00, 787.1, 70.0)">N</text><text xml:space="preserve" font-family="Avenir-Book" font-size="21.1" fill="#FEFFFE" transform="matrix(1.00, 0.00, -0.00, -1.00, 806.9, 70.0)">G</text><text xml:space="preserve" font-family="Avenir-Book" font-size="21.1" fill="#FEFFFE" transform="matrix(1.00, 0.00, -0.00, -1.00, 826.7, 70.0)"> </text><text xml:space="preserve" font-family="Avenir-Book" font-size="21.1" fill="#FEFFFE" transform="matrix(1.00, 0.00, -0.00, -1.00, 835.9, 70.0)">A</text><text xml:space="preserve" font-family="Avenir-Book" font-size="21.1" fill="#FEFFFE" transform="matrix(1.00, 0.00, -0.00, -1.00, 853.8, 70.0)"> </text><text xml:space="preserve" font-family="Avenir-Book" font-size="21.1" fill="#FEFFFE" transform="matrix(1.00, 0.00, -0.00, -1.00, 863.0, 70.0)">C</text><text xml:space="preserve" font-family="Avenir-Book" font-size="21.1" fill="#FEFFFE" transform="matrix(1.00, 0.00, -0.00, -1.00, 881.3, 70.0)">O</text><text xml:space="preserve" font-family="Avenir-Book" font-size="21.1" fill="#FEFFFE" transform="matrix(1.00, 0.00, -0.00, -1.00, 902.3, 70.0)">U</text><text xml:space="preserve" font-family="Avenir-Book" font-size="21.1" fill="#FEFFFE" transform="matrix(1.00, 0.00, -0.00, -1.00, 920.2, 70.0)">R</text><text xml:space="preserve" font-family="Avenir-Book" font-size="21.1" fill="#FEFFFE" transform="matrix(1.00, 0.00, -0.00, -1.00, 936.1, 70.0)">S</text><text xml:space="preserve" font-family="Avenir-Book" font-size="21.1" fill="#FEFFFE" transform="matrix(1.00, 0.00, -0.00, -1.00, 951.2, 70.0)">E</text></g></svg>