<?xml version="1.0" encoding="UTF-8"?><svg xmlns="http://www.w3.org/2000/svg" xmlns:xlink="http://www.w3.org/1999/xlink" clip-rule="evenodd" stroke-miterlimit="4.00" viewBox="0 0 1024 768"><desc>SVG generated by Keynote</desc><defs></defs><g transform="matrix(1.00, 0.00, -0.00, -1.00, 0.0, 768.0)"><path d="M 0.0 768.0 L 1024.0 768.0 L 1024.0 0.0 L 0.0 0.0 Z M 0.0 768.0 " fill="#000000"></path><text xml:space="preserve" font-family="Avenir-Light" font-size="24.0" fill="#55D6FF" transform="matrix(1.00, 0.00, -0.00, -1.00, 291.0, 595.0)">—</text><text xml:space="preserve" font-family="Avenir-Light" font-size="24.0" fill="#55D6FF" transform="matrix(1.00, 0.00, -0.00, -1.00, 318.8, 595.0)">R</text><text xml:space="preserve" font-family="Avenir-Light" font-size="24.0" fill="#55D6FF" transform="matrix(1.00, 0.00, -0.00, -1.00, 336.9, 595.0)">O</text><text xml:space="preserve" font-family="Avenir-Light" font-size="24.0" fill="#55D6FF" transform="matrix(1.00, 0.00, -0.00, -1.00, 360.8, 595.0)">B</text><text xml:space="preserve" font-family="Avenir-Light" font-size="24.0" fill="#55D6FF" transform="matrix(1.00, 0.00, -0.00, -1.00, 379.7, 595.0)">E</text><text xml:space="preserve" font-family="Avenir-Light" font-size="24.0" fill="#55D6FF" transform="matrix(1.00, 0.00, -0.00, -1.00, 397.8, 595.0)">R</text><text xml:space="preserve" font-family="Avenir-Light" font-size="24.0" fill="#55D6FF" transform="matrix(1.00, 0.00, -0.00, -1.00, 416.0, 595.0)">T</text><text xml:space="preserve" font-family="Avenir-Light" font-size="24.0" fill="#55D6FF" transform="matrix(1.00, 0.00, -0.00, -1.00, 433.6, 595.0)"> </text><text xml:space="preserve" font-family="Avenir-Light" font-size="24.0" fill="#55D6FF" transform="matrix(1.00, 0.00, -0.00, -1.00, 443.7, 595.0)">L</text><text xml:space="preserve" font-family="Avenir-Light" font-size="24.0" fill="#55D6FF" transform="matrix(1.00, 0.00, -0.00, -1.00, 459.6, 595.0)">O</text><text xml:space="preserve" font-family="Avenir-Light" font-size="24.0" fill="#55D6FF" transform="matrix(1.00, 0.00, -0.00, -1.00, 483.4, 595.0)">U</text><text xml:space="preserve" font-family="Avenir-Light" font-size="24.0" fill="#55D6FF" transform="matrix(1.00, 0.00, -0.00, -1.00, 503.7, 595.0)">I</text><text xml:space="preserve" font-family="Avenir-Light" font-size="24.0" fill="#55D6FF" transform="matrix(1.00, 0.00, -0.00, -1.00, 513.7, 595.0)">S</text><text xml:space="preserve" font-family="Avenir-Light" font-size="24.0" fill="#55D6FF" transform="matrix(1.00, 0.00, -0.00, -1.00, 530.9, 595.0)"> </text><text xml:space="preserve" font-family="Avenir-Light" font-size="24.0" fill="#55D6FF" transform="matrix(1.00, 0.00, -0.00, -1.00, 541.0, 595.0)">S</text><text xml:space="preserve" font-family="Avenir-Light" font-size="24.0" fill="#55D6FF" transform="matrix(1.00, 0.00, -0.00, -1.00, 558.2, 595.0)">T</text><text xml:space="preserve" font-family="Avenir-Light" font-size="24.0" fill="#55D6FF" transform="matrix(1.00, 0.00, -0.00, -1.00, 575.8, 595.0)">E</text><text xml:space="preserve" font-family="Avenir-Light" font-size="24.0" fill="#55D6FF" transform="matrix(1.00, 0.00, -0.00, -1.00, 593.9, 595.0)">P</text><text xml:space="preserve" font-family="Avenir-Light" font-size="24.0" fill="#55D6FF" transform="matrix(1.00, 0.00, -0.00, -1.00, 611.5, 595.0)">H</text><text xml:space="preserve" font-family="Avenir-Light" font-size="24.0" fill="#55D6FF" transform="matrix(1.00, 0.00, -0.00, -1.00, 632.7, 595.0)">E</text><text xml:space="preserve" font-family="Avenir-Light" font-size="24.0" fill="#55D6FF" transform="matrix(1.00, 0.00, -0.00, -1.00, 650.7, 595.0)">N</text><text xml:space="preserve" font-family="Avenir-Light" font-size="24.0" fill="#55D6FF" transform="matrix(1.00, 0.00, -0.00, -1.00, 673.2, 595.0)">S</text><text xml:space="preserve" font-family="Avenir-Light" font-size="24.0" fill="#55D6FF" transform="matrix(1.00, 0.00, -0.00, -1.00, 690.4, 595.0)">O</text><text xml:space="preserve" font-family="Avenir-Light" font-size="24.0" fill="#55D6FF" transform="matrix(1.00, 0.00, -0.00, -1.00, 714.3, 595.0)">N</text><text xml:space="preserve" font-family="Avenir-Light" font-size="42.0" fill="#FEFFFE" transform="matrix(1.00, 0.00, -0.00, -1.00, 180.0, 647.0)">“</text><text xml:space="preserve" font-family="Avenir-Light" font-size="42.0" fill="#FEFFFE" transform="matrix(1.00, 0.00, -0.00, -1.00, 201.8, 647.0)">I</text><text xml:space="preserve" font-family="Avenir-Light" font-size="42.0" fill="#FEFFFE" transform="matrix(1.00, 0.00, -0.00, -1.00, 212.8, 647.0)">t</text><text xml:space="preserve" font-family="Avenir-Light" font-size="42.0" fill="#FEFFFE" transform="matrix(1.00, 0.00, -0.00, -1.00, 226.7, 647.0)"> </text><text xml:space="preserve" font-family="Avenir-Light" font-size="42.0" fill="#FEFFFE" transform="matrix(1.00, 0.00, -0.00, -1.00, 237.7, 647.0)">i</text><text xml:space="preserve" font-family="Avenir-Light" font-size="42.0" fill="#FEFFFE" transform="matrix(1.00, 0.00, -0.00, -1.00, 247.7, 647.0)">s</text><text xml:space="preserve" font-family="Avenir-Light" font-size="42.0" fill="#FEFFFE" transform="matrix(1.00, 0.00, -0.00, -1.00, 265.6, 647.0)"> </text><text xml:space="preserve" font-family="Avenir-Light" font-size="42.0" fill="#FEFFFE" transform="matrix(1.00, 0.00, -0.00, -1.00, 276.6, 647.0)">b</text><text xml:space="preserve" font-family="Avenir-Light" font-size="42.0" fill="#FEFFFE" transform="matrix(1.00, 0.00, -0.00, -1.00, 302.2, 647.0)">e</text><text xml:space="preserve" font-family="Avenir-Light" font-size="42.0" fill="#FEFFFE" transform="matrix(1.00, 0.00, -0.00, -1.00, 325.6, 647.0)">t</text><text xml:space="preserve" font-family="Avenir-Light" font-size="42.0" fill="#FEFFFE" transform="matrix(1.00, 0.00, -0.00, -1.00, 339.6, 647.0)">t</text><text xml:space="preserve" font-family="Avenir-Light" font-size="42.0" fill="#FEFFFE" transform="matrix(1.00, 0.00, -0.00, -1.00, 353.6, 647.0)">e</text><text xml:space="preserve" font-family="Avenir-Light" font-size="42.0" fill="#FEFFFE" transform="matrix(1.00, 0.00, -0.00, -1.00, 376.9, 647.0)">r</text><text xml:space="preserve" font-family="Avenir-Light" font-size="42.0" fill="#FEFFFE" transform="matrix(1.00, 0.00, -0.00, -1.00, 390.9, 647.0)"> </text><text xml:space="preserve" font-family="Avenir-Light" font-size="42.0" fill="#FEFFFE" transform="matrix(1.00, 0.00, -0.00, -1.00, 401.8, 647.0)">t</text><text xml:space="preserve" font-family="Avenir-Light" font-size="42.0" fill="#FEFFFE" transform="matrix(1.00, 0.00, -0.00, -1.00, 415.8, 647.0)">o</text><text xml:space="preserve" font-family="Avenir-Light" font-size="42.0" fill="#FEFFFE" transform="matrix(1.00, 0.00, -0.00, -1.00, 440.8, 647.0)"> </text><text xml:space="preserve" font-family="Avenir-Light" font-size="42.0" fill="#FEFFFE" transform="matrix(1.00, 0.00, -0.00, -1.00, 451.7, 647.0)">t</text><text xml:space="preserve" font-family="Avenir-Light" font-size="42.0" fill="#FEFFFE" transform="matrix(1.00, 0.00, -0.00, -1.00, 465.7, 647.0)">r</text><text xml:space="preserve" font-family="Avenir-Light" font-size="42.0" fill="#FEFFFE" transform="matrix(1.00, 0.00, -0.00, -1.00, 479.7, 647.0)">a</text><text xml:space="preserve" font-family="Avenir-Light" font-size="42.0" fill="#FEFFFE" transform="matrix(1.00, 0.00, -0.00, -1.00, 501.5, 647.0)">v</text><text xml:space="preserve" font-family="Avenir-Light" font-size="42.0" fill="#FEFFFE" transform="matrix(1.00, 0.00, -0.00, -1.00, 520.9, 647.0)">e</text><text xml:space="preserve" font-family="Avenir-Light" font-size="42.0" fill="#FEFFFE" transform="matrix(1.00, 0.00, -0.00, -1.00, 544.3, 647.0)">l</text><text xml:space="preserve" font-family="Avenir-Light" font-size="42.0" fill="#FEFFFE" transform="matrix(1.00, 0.00, -0.00, -1.00, 554.3, 647.0)"> </text><text xml:space="preserve" font-family="Avenir-Light" font-size="42.0" fill="#FEFFFE" transform="matrix(1.00, 0.00, -0.00, -1.00, 565.3, 647.0)">t</text><text xml:space="preserve" font-family="Avenir-Light" font-size="42.0" fill="#FEFFFE" transform="matrix(1.00, 0.00, -0.00, -1.00, 579.3, 647.0)">h</text><text xml:space="preserve" font-family="Avenir-Light" font-size="42.0" fill="#FEFFFE" transform="matrix(1.00, 0.00, -0.00, -1.00, 602.6, 647.0)">a</text><text xml:space="preserve" font-family="Avenir-Light" font-size="42.0" fill="#FEFFFE" transform="matrix(1.00, 0.00, -0.00, -1.00, 624.4, 647.0)">n</text><text xml:space="preserve" font-family="Avenir-Light" font-size="42.0" fill="#FEFFFE" transform="matrix(1.00, 0.00, -0.00, -1.00, 647.8, 647.0)"> </text><text xml:space="preserve" font-family="Avenir-Light" font-size="42.0" fill="#FEFFFE" transform="matrix(1.00, 0.00, -0.00, -1.00, 658.7, 647.0)">t</text><text xml:space="preserve" font-family="Avenir-Light" font-size="42.0" fill="#FEFFFE" transform="matrix(1.00, 0.00, -0.00, -1.00, 672.7, 647.0)">o</text><text xml:space="preserve" font-family="Avenir-Light" font-size="42.0" fill="#FEFFFE" transform="matrix(1.00, 0.00, -0.00, -1.00, 697.6, 647.0)"> </text><text xml:space="preserve" font-family="Avenir-Light" font-size="42.0" fill="#FEFFFE" transform="matrix(1.00, 0.00, -0.00, -1.00, 708.6, 647.0)">a</text><text xml:space="preserve" font-family="Avenir-Light" font-size="42.0" fill="#FEFFFE" transform="matrix(1.00, 0.00, -0.00, -1.00, 730.4, 647.0)">r</text><text xml:space="preserve" font-family="Avenir-Light" font-size="42.0" fill="#FEFFFE" transform="matrix(1.00, 0.00, -0.00, -1.00, 744.4, 647.0)">r</text><text xml:space="preserve" font-family="Avenir-Light" font-size="42.0" fill="#FEFFFE" transform="matrix(1.00, 0.00, -0.00, -1.00, 758.3, 647.0)">i</text><text xml:space="preserve" font-family="Avenir-Light" font-size="42.0" fill="#FEFFFE" transform="matrix(1.00, 0.00, -0.00, -1.00, 768.4, 647.0)">v</text><text xml:space="preserve" font-family="Avenir-Light" font-size="42.0" fill="#FEFFFE" transform="matrix(1.00, 0.00, -0.00, -1.00, 787.9, 647.0)">e</text><text xml:space="preserve" font-family="Avenir-Light" font-size="42.0" fill="#FEFFFE" transform="matrix(1.00, 0.00, -0.00, -1.00, 811.2, 647.0)">.</text><text xml:space="preserve" font-family="Avenir-Light" font-size="42.0" fill="#FEFFFE" transform="matrix(1.00, 0.00, -0.00, -1.00, 822.1, 647.0)">”</text><text xml:space="preserve" font-family="Avenir-Light" font-size="42.0" fill="#FEFFFE" transform="matrix(1.00, 0.00, -0.00, -1.00, 844.0, 647.0)"> </text><g><clipPath id="clip-98"><path d="M 0.0 521.0 L 1024.0 521.0 L 1024.0 38.0 L 0.0 38.0 Z M 0.0 520.8 "></path></clipPath><g clip-path="url(#clip-98)"><image xlink:href="E74C84D7EE55C992FD18FBF108BE4032.jpeg" width="1024.00" height="681.00" transform="matrix(1.00, 0.00, -0.00, -1.00, 0.0, 620.0)"></image></g></g><text xml:space="preserve" font-family="Avenir-Light" font-size="19.7" fill="#FEFFFE" transform="matrix(1.00, 0.00, -0.00, -1.00, 48.0, 11.0)">H</text><text xml:space="preserve" font-family="Avenir-Light" font-size="19.7" fill="#FEFFFE" transform="matrix(1.00, 0.00, -0.00, -1.00, 65.4, 11.0)">A</text><text xml:space="preserve" font-family="Avenir-Light" font-size="19.7" fill="#FEFFFE" transform="matrix(1.00, 0.00, -0.00, -1.00, 82.0, 11.0)">U</text><text xml:space="preserve" font-family="Avenir-Light" font-size="19.7" fill="#FEFFFE" transform="matrix(1.00, 0.00, -0.00, -1.00, 98.6, 11.0)">L</text><text xml:space="preserve" font-family="Avenir-Light" font-size="19.7" fill="#FEFFFE" transform="matrix(1.00, 0.00, -0.00, -1.00, 111.6, 11.0)">I</text><text xml:space="preserve" font-family="Avenir-Light" font-size="19.7" fill="#FEFFFE" transform="matrix(1.00, 0.00, -0.00, -1.00, 119.9, 11.0)">N</text><text xml:space="preserve" font-family="Avenir-Light" font-size="19.7" fill="#FEFFFE" transform="matrix(1.00, 0.00, -0.00, -1.00, 138.3, 11.0)">G</text><text xml:space="preserve" font-family="Avenir-Light" font-size="19.7" fill="#FEFFFE" transform="matrix(1.00, 0.00, -0.00, -1.00, 156.8, 11.0)"> </text><text xml:space="preserve" font-family="Avenir-Light" font-size="19.7" fill="#FEFFFE" transform="matrix(1.00, 0.00, -0.00, -1.00, 165.0, 11.0)">L</text><text xml:space="preserve" font-family="Avenir-Light" font-size="19.7" fill="#FEFFFE" transform="matrix(1.00, 0.00, -0.00, -1.00, 178.0, 11.0)">U</text><text xml:space="preserve" font-family="Avenir-Light" font-size="19.7" fill="#FEFFFE" transform="matrix(1.00, 0.00, -0.00, -1.00, 194.6, 11.0)">M</text><text xml:space="preserve" font-family="Avenir-Light" font-size="19.7" fill="#FEFFFE" transform="matrix(1.00, 0.00, -0.00, -1.00, 215.3, 11.0)">B</text><text xml:space="preserve" font-family="Avenir-Light" font-size="19.7" fill="#FEFFFE" transform="matrix(1.00, 0.00, -0.00, -1.00, 230.8, 11.0)">E</text><text xml:space="preserve" font-family="Avenir-Light" font-size="19.7" fill="#FEFFFE" transform="matrix(1.00, 0.00, -0.00, -1.00, 245.6, 11.0)">R</text><text xml:space="preserve" font-family="Avenir-Light" font-size="19.7" fill="#FEFFFE" transform="matrix(1.00, 0.00, -0.00, -1.00, 260.5, 11.0)"> </text><text xml:space="preserve" font-family="Avenir-Light" font-size="19.7" fill="#FEFFFE" transform="matrix(1.00, 0.00, -0.00, -1.00, 268.7, 11.0)">T</text><text xml:space="preserve" font-family="Avenir-Light" font-size="19.7" fill="#FEFFFE" transform="matrix(1.00, 0.00, -0.00, -1.00, 283.2, 11.0)">O</text><text xml:space="preserve" font-family="Avenir-Light" font-size="19.7" fill="#FEFFFE" transform="matrix(1.00, 0.00, -0.00, -1.00, 302.7, 11.0)">W</text><text xml:space="preserve" font-family="Avenir-Light" font-size="19.7" fill="#FEFFFE" transform="matrix(1.00, 0.00, -0.00, -1.00, 324.1, 11.0)">A</text><text xml:space="preserve" font-family="Avenir-Light" font-size="19.7" fill="#FEFFFE" transform="matrix(1.00, 0.00, -0.00, -1.00, 340.7, 11.0)">R</text><text xml:space="preserve" font-family="Avenir-Light" font-size="19.7" fill="#FEFFFE" transform="matrix(1.00, 0.00, -0.00, -1.00, 355.6, 11.0)">D</text><text xml:space="preserve" font-family="Avenir-Light" font-size="19.7" fill="#FEFFFE" transform="matrix(1.00, 0.00, -0.00, -1.00, 373.3, 11.0)"> </text><text xml:space="preserve" font-family="Avenir-Light" font-size="19.7" fill="#FEFFFE" transform="matrix(1.00, 0.00, -0.00, -1.00, 381.6, 11.0)">P</text><text xml:space="preserve" font-family="Avenir-Light" font-size="19.7" fill="#FEFFFE" transform="matrix(1.00, 0.00, -0.00, -1.00, 396.0, 11.0)">R</text><text xml:space="preserve" font-family="Avenir-Light" font-size="19.7" fill="#FEFFFE" transform="matrix(1.00, 0.00, -0.00, -1.00, 410.8, 11.0)">I</text><text xml:space="preserve" font-family="Avenir-Light" font-size="19.7" fill="#FEFFFE" transform="matrix(1.00, 0.00, -0.00, -1.00, 419.1, 11.0)">N</text><text xml:space="preserve" font-family="Avenir-Light" font-size="19.7" fill="#FEFFFE" transform="matrix(1.00, 0.00, -0.00, -1.00, 437.5, 11.0)">C</text><text xml:space="preserve" font-family="Avenir-Light" font-size="19.7" fill="#FEFFFE" transform="matrix(1.00, 0.00, -0.00, -1.00, 454.5, 11.0)">E</text><text xml:space="preserve" font-family="Avenir-Light" font-size="19.7" fill="#FEFFFE" transform="matrix(1.00, 0.00, -0.00, -1.00, 469.4, 11.0)"> </text><text xml:space="preserve" font-family="Avenir-Light" font-size="19.7" fill="#FEFFFE" transform="matrix(1.00, 0.00, -0.00, -1.00, 477.6, 11.0)">G</text><text xml:space="preserve" font-family="Avenir-Light" font-size="19.7" fill="#FEFFFE" transform="matrix(1.00, 0.00, -0.00, -1.00, 496.1, 11.0)">E</text><text xml:space="preserve" font-family="Avenir-Light" font-size="19.7" fill="#FEFFFE" transform="matrix(1.00, 0.00, -0.00, -1.00, 510.9, 11.0)">O</text><text xml:space="preserve" font-family="Avenir-Light" font-size="19.7" fill="#FEFFFE" transform="matrix(1.00, 0.00, -0.00, -1.00, 530.5, 11.0)">R</text><text xml:space="preserve" font-family="Avenir-Light" font-size="19.7" fill="#FEFFFE" transform="matrix(1.00, 0.00, -0.00, -1.00, 545.3, 11.0)">G</text><text xml:space="preserve" font-family="Avenir-Light" font-size="19.7" fill="#FEFFFE" transform="matrix(1.00, 0.00, -0.00, -1.00, 563.8, 11.0)">E</text><text xml:space="preserve" font-family="Avenir-Light" font-size="19.7" fill="#FEFFFE" transform="matrix(1.00, 0.00, -0.00, -1.00, 578.6, 11.0)"> </text><text xml:space="preserve" font-family="Avenir-Light" font-size="19.7" fill="#FEFFFE" transform="matrix(1.00, 0.00, -0.00, -1.00, 586.8, 11.0)">B</text><text xml:space="preserve" font-family="Avenir-Light" font-size="19.7" fill="#FEFFFE" transform="matrix(1.00, 0.00, -0.00, -1.00, 602.4, 11.0)">C</text><text xml:space="preserve" font-family="Avenir-Light" font-size="19.7" fill="#FEFFFE" transform="matrix(1.00, 0.00, -0.00, -1.00, 619.4, 11.0)">,</text><text xml:space="preserve" font-family="Avenir-Light" font-size="19.7" fill="#FEFFFE" transform="matrix(1.00, 0.00, -0.00, -1.00, 627.7, 11.0)"> </text><text xml:space="preserve" font-family="Avenir-Light" font-size="19.7" fill="#FEFFFE" transform="matrix(1.00, 0.00, -0.00, -1.00, 635.9, 11.0)">H</text><text xml:space="preserve" font-family="Avenir-Light" font-size="19.7" fill="#FEFFFE" transform="matrix(1.00, 0.00, -0.00, -1.00, 653.3, 11.0)">I</text><text xml:space="preserve" font-family="Avenir-Light" font-size="19.7" fill="#FEFFFE" transform="matrix(1.00, 0.00, -0.00, -1.00, 661.5, 11.0)">G</text><text xml:space="preserve" font-family="Avenir-Light" font-size="19.7" fill="#FEFFFE" transform="matrix(1.00, 0.00, -0.00, -1.00, 680.0, 11.0)">H</text><text xml:space="preserve" font-family="Avenir-Light" font-size="19.7" fill="#FEFFFE" transform="matrix(1.00, 0.00, -0.00, -1.00, 697.4, 11.0)">W</text><text xml:space="preserve" font-family="Avenir-Light" font-size="19.7" fill="#FEFFFE" transform="matrix(1.00, 0.00, -0.00, -1.00, 718.7, 11.0)">A</text><text xml:space="preserve" font-family="Avenir-Light" font-size="19.7" fill="#FEFFFE" transform="matrix(1.00, 0.00, -0.00, -1.00, 733.9, 11.0)">Y</text><text xml:space="preserve" font-family="Avenir-Light" font-size="19.7" fill="#FEFFFE" transform="matrix(1.00, 0.00, -0.00, -1.00, 748.4, 11.0)"> </text><text xml:space="preserve" font-family="Avenir-Light" font-size="19.7" fill="#FEFFFE" transform="matrix(1.00, 0.00, -0.00, -1.00, 756.6, 11.0)">9</text><text xml:space="preserve" font-family="Avenir-Light" font-size="19.7" fill="#FEFFFE" transform="matrix(1.00, 0.00, -0.00, -1.00, 770.0, 11.0)">7</text><text xml:space="preserve" font-family="Avenir-Light" font-size="19.7" fill="#FEFFFE" transform="matrix(1.00, 0.00, -0.00, -1.00, 783.4, 11.0)">,</text><text xml:space="preserve" font-family="Avenir-Light" font-size="19.7" fill="#FEFFFE" transform="matrix(1.00, 0.00, -0.00, -1.00, 791.6, 11.0)"> </text><text xml:space="preserve" font-family="Avenir-Light" font-size="19.7" fill="#FEFFFE" transform="matrix(1.00, 0.00, -0.00, -1.00, 799.9, 11.0)">D</text><text xml:space="preserve" font-family="Avenir-Light" font-size="19.7" fill="#FEFFFE" transform="matrix(1.00, 0.00, -0.00, -1.00, 817.6, 11.0)">A</text><text xml:space="preserve" font-family="Avenir-Light" font-size="19.7" fill="#FEFFFE" transform="matrix(1.00, 0.00, -0.00, -1.00, 832.8, 11.0)">Y</text><text xml:space="preserve" font-family="Avenir-Light" font-size="19.7" fill="#FEFFFE" transform="matrix(1.00, 0.00, -0.00, -1.00, 847.3, 11.0)"> </text><text xml:space="preserve" font-family="Avenir-Light" font-size="19.7" fill="#FEFFFE" transform="matrix(1.00, 0.00, -0.00, -1.00, 855.5, 11.0)">1</text><text xml:space="preserve" font-family="Avenir-Light" font-size="19.7" fill="#FEFFFE" transform="matrix(1.00, 0.00, -0.00, -1.00, 868.9, 11.0)"> </text><text xml:space="preserve" font-family="Avenir-Light" font-size="19.7" fill="#FEFFFE" transform="matrix(1.00, 0.00, -0.00, -1.00, 877.2, 11.0)">(</text><text xml:space="preserve" font-family="Avenir-Light" font-size="19.7" fill="#FEFFFE" transform="matrix(1.00, 0.00, -0.00, -1.00, 885.4, 11.0)">8</text><text xml:space="preserve" font-family="Avenir-Light" font-size="19.7" fill="#FEFFFE" transform="matrix(1.00, 0.00, -0.00, -1.00, 898.8, 11.0)">5</text><text xml:space="preserve" font-family="Avenir-Light" font-size="19.7" fill="#FEFFFE" transform="matrix(1.00, 0.00, -0.00, -1.00, 912.2, 11.0)">5</text><text xml:space="preserve" font-family="Avenir-Light" font-size="19.7" fill="#FEFFFE" transform="matrix(1.00, 0.00, -0.00, -1.00, 925.6, 11.0)"> </text><text xml:space="preserve" font-family="Avenir-Light" font-size="19.7" fill="#FEFFFE" transform="matrix(1.00, 0.00, -0.00, -1.00, 933.9, 11.0)">K</text><text xml:space="preserve" font-family="Avenir-Light" font-size="19.7" fill="#FEFFFE" transform="matrix(1.00, 0.00, -0.00, -1.00, 949.0, 11.0)">M</text><text xml:space="preserve" font-family="Avenir-Light" font-size="19.7" fill="#FEFFFE" transform="matrix(1.00, 0.00, -0.00, -1.00, 969.7, 11.0)">)</text></g></svg>