<?xml version="1.0" encoding="UTF-8"?><svg xmlns="http://www.w3.org/2000/svg" xmlns:xlink="http://www.w3.org/1999/xlink" clip-rule="evenodd" stroke-miterlimit="4.00" viewBox="0 0 1024 768"><desc>SVG generated by Keynote</desc><defs></defs><g transform="matrix(1.00, 0.00, -0.00, -1.00, 0.0, 768.0)"><path d="M 0.0 768.0 L 1024.0 768.0 L 1024.0 0.0 L 0.0 0.0 Z M 0.0 768.0 " fill="#000000"></path><g><clipPath id="clip-158"><path d="M 493.0 398.0 L 1023.0 398.0 L 1023.0 0.0 L 493.0 0.0 Z M 492.9 397.6 "></path></clipPath><g clip-path="url(#clip-158)"><image xlink:href="../../521BA6D2-6311-44C6-8A78-2A3E1E1F0995/assets/B00D617E4A2C7647FF10FDAC68CEA453.jpeg" width="599.00" height="398.00" transform="matrix(1.00, 0.00, -0.00, -1.00, 426.0, 398.0)"></image></g></g><path d="M 0.0 0.0 L 0.0 397.8 L 530.3 397.8 L 530.3 0.0 L 0.0 0.0 Z M 0.0 0.0 " fill="none" stroke="#000000" stroke-width="3.00" transform="matrix(1.00, 0.00, 0.00, -1.00, 492.9, 397.6)"></path><g><clipPath id="clip-159"><path d="M -2.0 597.0 L 510.0 597.0 L 510.0 -171.0 L -2.0 -171.0 Z M -2.4 597.4 "></path></clipPath><g clip-path="url(#clip-159)"><image xlink:href="../../521BA6D2-6311-44C6-8A78-2A3E1E1F0995/assets/5F8D46466BF9231F2253BBB849792F5F.jpeg" width="750.00" height="499.00" transform="matrix(1.00, 0.00, -0.00, -1.00, -229.0, 472.0)"></image></g></g><path d="M 0.0 125.3 L 0.0 623.4 L 512.5 623.4 L 512.5 125.3 L 0.0 125.3 Z M 0.0 125.3 " fill="none" stroke="#000000" stroke-width="3.00" transform="matrix(1.00, 0.00, 0.00, -1.00, -2.4, 597.4)"></path><g><clipPath id="clip-160"><path d="M -5.0 773.0 L 517.0 773.0 L 517.0 397.0 L -5.0 397.0 Z M -5.4 773.1 "></path></clipPath><g clip-path="url(#clip-160)"><image xlink:href="../../521BA6D2-6311-44C6-8A78-2A3E1E1F0995/assets/1D615FD312031F559157F64267CE5148.jpeg" width="679.00" height="451.00" transform="matrix(1.00, 0.00, -0.00, -0.96, -71.0, 801.0)"></image></g></g><path d="M 0.0 0.0 L 0.0 376.3 L 522.8 376.3 L 522.8 0.0 L 0.0 0.0 Z M 0.0 0.0 " fill="none" stroke="#000000" stroke-width="3.00" transform="matrix(1.00, 0.00, 0.00, -1.00, -5.4, 773.1)"></path><text xml:space="preserve" font-family="Avenir-Light" font-size="34.2" fill="#000000" transform="matrix(1.00, 0.00, -0.00, -1.00, 641.0, 361.0)">W</text><text xml:space="preserve" font-family="Avenir-Light" font-size="34.2" fill="#000000" transform="matrix(1.00, 0.00, -0.00, -1.00, 678.8, 361.0)">I</text><text xml:space="preserve" font-family="Avenir-Light" font-size="34.2" fill="#000000" transform="matrix(1.00, 0.00, -0.00, -1.00, 693.1, 361.0)">T</text><text xml:space="preserve" font-family="Avenir-Light" font-size="34.2" fill="#000000" transform="matrix(1.00, 0.00, -0.00, -1.00, 718.2, 361.0)">H</text><text xml:space="preserve" font-family="Avenir-Light" font-size="34.2" fill="#000000" transform="matrix(1.00, 0.00, -0.00, -1.00, 748.4, 361.0)"> </text><text xml:space="preserve" font-family="Avenir-Light" font-size="34.2" fill="#000000" transform="matrix(1.00, 0.00, -0.00, -1.00, 762.8, 361.0)">N</text><text xml:space="preserve" font-family="Avenir-Light" font-size="34.2" fill="#000000" transform="matrix(1.00, 0.00, -0.00, -1.00, 794.8, 361.0)">A</text><text xml:space="preserve" font-family="Avenir-Light" font-size="34.2" fill="#000000" transform="matrix(1.00, 0.00, -0.00, -1.00, 821.4, 361.0)">T</text><text xml:space="preserve" font-family="Avenir-Light" font-size="34.2" fill="#000000" transform="matrix(1.00, 0.00, -0.00, -1.00, 846.5, 361.0)">U</text><text xml:space="preserve" font-family="Avenir-Light" font-size="34.2" fill="#000000" transform="matrix(1.00, 0.00, -0.00, -1.00, 875.4, 361.0)">R</text><text xml:space="preserve" font-family="Avenir-Light" font-size="34.2" fill="#000000" transform="matrix(1.00, 0.00, -0.00, -1.00, 901.1, 361.0)">E</text><g><clipPath id="clip-161"><path d="M 510.0 785.0 L 1026.0 785.0 L 1026.0 397.0 L 510.0 397.0 Z M 509.6 784.5 "></path></clipPath><g clip-path="url(#clip-161)"><image xlink:href="../../521BA6D2-6311-44C6-8A78-2A3E1E1F0995/assets/369DFE31E06F5ABE925BF2287F47BF6A.jpeg" width="964.00" height="641.00" transform="matrix(1.00, 0.00, -0.00, -1.00, 313.0, 911.0)"></image></g></g><path d="M 0.0 0.0 L 0.0 387.6 L 516.8 387.6 L 516.8 0.0 L 0.0 0.0 Z M 0.0 0.0 " fill="none" stroke="#000000" stroke-width="3.00" transform="matrix(1.00, 0.00, 0.00, -1.00, 509.6, 784.5)"></path><text xml:space="preserve" font-family="Avenir-Light" font-size="31.5" fill="#FEFFFF" transform="matrix(1.00, 0.00, -0.00, -1.00, 102.0, 411.0)">R</text><text xml:space="preserve" font-family="Avenir-Light" font-size="31.5" fill="#FEFFFF" transform="matrix(1.00, 0.00, -0.00, -1.00, 125.7, 411.0)">E</text><text xml:space="preserve" font-family="Avenir-Light" font-size="31.5" fill="#FEFFFF" transform="matrix(1.00, 0.00, -0.00, -1.00, 149.4, 411.0)">C</text><text xml:space="preserve" font-family="Avenir-Light" font-size="31.5" fill="#FEFFFF" transform="matrix(1.00, 0.00, -0.00, -1.00, 176.7, 411.0)">O</text><text xml:space="preserve" font-family="Avenir-Light" font-size="31.5" fill="#FEFFFF" transform="matrix(1.00, 0.00, -0.00, -1.00, 208.0, 411.0)">N</text><text xml:space="preserve" font-family="Avenir-Light" font-size="31.5" fill="#FEFFFF" transform="matrix(1.00, 0.00, -0.00, -1.00, 237.5, 411.0)">N</text><text xml:space="preserve" font-family="Avenir-Light" font-size="31.5" fill="#FEFFFF" transform="matrix(1.00, 0.00, -0.00, -1.00, 267.1, 411.0)">E</text><text xml:space="preserve" font-family="Avenir-Light" font-size="31.5" fill="#FEFFFF" transform="matrix(1.00, 0.00, -0.00, -1.00, 290.8, 411.0)">C</text><text xml:space="preserve" font-family="Avenir-Light" font-size="31.5" fill="#FEFFFF" transform="matrix(1.00, 0.00, -0.00, -1.00, 318.0, 411.0)">T</text><text xml:space="preserve" font-family="Avenir-Light" font-size="31.5" fill="#FEFFFF" transform="matrix(1.00, 0.00, -0.00, -1.00, 341.1, 411.0)">I</text><text xml:space="preserve" font-family="Avenir-Light" font-size="31.5" fill="#FEFFFF" transform="matrix(1.00, 0.00, -0.00, -1.00, 354.3, 411.0)">N</text><text xml:space="preserve" font-family="Avenir-Light" font-size="31.5" fill="#FEFFFF" transform="matrix(1.00, 0.00, -0.00, -1.00, 383.9, 411.0)">G</text></g></svg>