<?xml version="1.0" encoding="UTF-8"?><svg xmlns="http://www.w3.org/2000/svg" xmlns:xlink="http://www.w3.org/1999/xlink" clip-rule="evenodd" stroke-miterlimit="4.00" viewBox="0 0 1024 768"><desc>SVG generated by Keynote</desc><defs></defs><g transform="matrix(1.00, 0.00, -0.00, -1.00, 0.0, 768.0)"><path d="M 0.0 768.0 L 1024.0 768.0 L 1024.0 0.0 L 0.0 0.0 Z M 0.0 768.0 " fill="#000000"></path><g><clipPath id="clip-232"><path d="M 494.0 398.0 L 1024.0 398.0 L 1024.0 0.0 L 494.0 0.0 Z M 493.9 397.6 "></path></clipPath><g clip-path="url(#clip-232)"><image xlink:href="../../521BA6D2-6311-44C6-8A78-2A3E1E1F0995/assets/B27D707ED5B033E278DFE5307FDBB839.jpeg" width="599.00" height="398.00" transform="matrix(1.00, 0.00, -0.00, -1.00, 427.0, 398.0)"></image></g></g><g><clipPath id="clip-233"><path d="M 504.0 774.0 L 1026.0 774.0 L 1026.0 398.0 L 504.0 398.0 Z M 503.5 774.1 "></path></clipPath><g clip-path="url(#clip-233)"><image xlink:href="../../521BA6D2-6311-44C6-8A78-2A3E1E1F0995/assets/C407790BB25F823ED15925B6D6C1F47D.jpeg" width="782.00" height="520.00" transform="matrix(1.00, 0.00, -0.00, -0.96, 396.0, 811.0)"></image></g></g><g><clipPath id="clip-234"><path d="M -2.0 597.0 L 510.0 597.0 L 510.0 -171.0 L -2.0 -171.0 Z M -2.4 597.4 "></path></clipPath><g clip-path="url(#clip-234)"><image xlink:href="../../521BA6D2-6311-44C6-8A78-2A3E1E1F0995/assets/5F8D46466BF9231F2253BBB849792F5F.jpeg" width="750.00" height="499.00" transform="matrix(1.00, 0.00, -0.00, -1.00, -229.0, 472.0)"></image></g></g><text xml:space="preserve" font-family="Avenir-Heavy" font-weight="bold" font-size="23.4" fill="#000000" transform="matrix(1.00, 0.00, -0.00, -1.00, 694.0, 367.0)">W</text><text xml:space="preserve" font-family="Avenir-Heavy" font-weight="bold" font-size="23.4" fill="#000000" transform="matrix(1.00, 0.00, -0.00, -1.00, 720.7, 367.0)">I</text><text xml:space="preserve" font-family="Avenir-Heavy" font-weight="bold" font-size="23.4" fill="#000000" transform="matrix(1.00, 0.00, -0.00, -1.00, 730.9, 367.0)">T</text><text xml:space="preserve" font-family="Avenir-Heavy" font-weight="bold" font-size="23.4" fill="#000000" transform="matrix(1.00, 0.00, -0.00, -1.00, 748.1, 367.0)">H</text><text xml:space="preserve" font-family="Avenir-Heavy" font-weight="bold" font-size="23.4" fill="#000000" transform="matrix(1.00, 0.00, -0.00, -1.00, 769.2, 367.0)"> </text><text xml:space="preserve" font-family="Avenir-Heavy" font-weight="bold" font-size="23.4" fill="#000000" transform="matrix(1.00, 0.00, -0.00, -1.00, 779.9, 367.0)">N</text><text xml:space="preserve" font-family="Avenir-Heavy" font-weight="bold" font-size="23.4" fill="#000000" transform="matrix(1.00, 0.00, -0.00, -1.00, 802.2, 367.0)">A</text><text xml:space="preserve" font-family="Avenir-Heavy" font-weight="bold" font-size="23.4" fill="#000000" transform="matrix(1.00, 0.00, -0.00, -1.00, 820.7, 367.0)">T</text><text xml:space="preserve" font-family="Avenir-Heavy" font-weight="bold" font-size="23.4" fill="#000000" transform="matrix(1.00, 0.00, -0.00, -1.00, 837.9, 367.0)">U</text><text xml:space="preserve" font-family="Avenir-Heavy" font-weight="bold" font-size="23.4" fill="#000000" transform="matrix(1.00, 0.00, -0.00, -1.00, 858.5, 367.0)">R</text><text xml:space="preserve" font-family="Avenir-Heavy" font-weight="bold" font-size="23.4" fill="#000000" transform="matrix(1.00, 0.00, -0.00, -1.00, 877.0, 367.0)">E</text><g><clipPath id="clip-235"><path d="M -6.0 783.0 L 511.0 783.0 L 511.0 396.0 L -6.0 396.0 Z M -5.6 783.4 "></path></clipPath><g clip-path="url(#clip-235)"><image xlink:href="../../521BA6D2-6311-44C6-8A78-2A3E1E1F0995/assets/06D2091DABDFA5EE7C7BD213B85B84D7.jpeg" width="964.00" height="641.00" transform="matrix(1.00, 0.00, -0.00, -1.00, -202.0, 910.0)"></image></g></g><text xml:space="preserve" font-family="Avenir-Heavy" font-weight="bold" font-size="23.4" fill="#FEFFFF" transform="matrix(1.00, 0.00, -0.00, -1.00, 131.0, 405.0)">R</text><text xml:space="preserve" font-family="Avenir-Heavy" font-weight="bold" font-size="23.4" fill="#FEFFFF" transform="matrix(1.00, 0.00, -0.00, -1.00, 149.5, 405.0)">E</text><text xml:space="preserve" font-family="Avenir-Heavy" font-weight="bold" font-size="23.4" fill="#FEFFFF" transform="matrix(1.00, 0.00, -0.00, -1.00, 167.5, 405.0)">C</text><text xml:space="preserve" font-family="Avenir-Heavy" font-weight="bold" font-size="23.4" fill="#FEFFFF" transform="matrix(1.00, 0.00, -0.00, -1.00, 187.3, 405.0)">O</text><text xml:space="preserve" font-family="Avenir-Heavy" font-weight="bold" font-size="23.4" fill="#FEFFFF" transform="matrix(1.00, 0.00, -0.00, -1.00, 210.5, 405.0)">N</text><text xml:space="preserve" font-family="Avenir-Heavy" font-weight="bold" font-size="23.4" fill="#FEFFFF" transform="matrix(1.00, 0.00, -0.00, -1.00, 232.9, 405.0)">N</text><text xml:space="preserve" font-family="Avenir-Heavy" font-weight="bold" font-size="23.4" fill="#FEFFFF" transform="matrix(1.00, 0.00, -0.00, -1.00, 255.3, 405.0)">E</text><text xml:space="preserve" font-family="Avenir-Heavy" font-weight="bold" font-size="23.4" fill="#FEFFFF" transform="matrix(1.00, 0.00, -0.00, -1.00, 273.3, 405.0)">C</text><text xml:space="preserve" font-family="Avenir-Heavy" font-weight="bold" font-size="23.4" fill="#FEFFFF" transform="matrix(1.00, 0.00, -0.00, -1.00, 293.1, 405.0)">T</text><text xml:space="preserve" font-family="Avenir-Heavy" font-weight="bold" font-size="23.4" fill="#FEFFFF" transform="matrix(1.00, 0.00, -0.00, -1.00, 310.3, 405.0)">I</text><text xml:space="preserve" font-family="Avenir-Heavy" font-weight="bold" font-size="23.4" fill="#FEFFFF" transform="matrix(1.00, 0.00, -0.00, -1.00, 320.5, 405.0)">N</text><text xml:space="preserve" font-family="Avenir-Heavy" font-weight="bold" font-size="23.4" fill="#FEFFFF" transform="matrix(1.00, 0.00, -0.00, -1.00, 342.9, 405.0)">G</text></g></svg>