<?xml version="1.0" encoding="UTF-8"?><svg xmlns="http://www.w3.org/2000/svg" xmlns:xlink="http://www.w3.org/1999/xlink" clip-rule="evenodd" stroke-miterlimit="4.00" viewBox="0 0 1024 768"><desc>SVG generated by Keynote</desc><defs></defs><g transform="matrix(1.00, 0.00, -0.00, -1.00, 0.0, 768.0)"><path d="M 0.0 768.0 L 1024.0 768.0 L 1024.0 0.0 L 0.0 0.0 Z M 0.0 768.0 " fill="#000000"></path><g><clipPath id="clip-324"><path d="M 512.0 384.0 L 1024.0 384.0 L 1024.0 0.0 L 512.0 0.0 Z M 512.0 383.8 "></path></clipPath><g clip-path="url(#clip-324)"><image xlink:href="2B31339C0B8E48E4587F66999B5DFAF3.jpeg" width="578.00" height="384.00" transform="matrix(1.00, 0.00, -0.00, -1.00, 479.0, 384.0)"></image></g></g><g><clipPath id="clip-325"><path d="M 512.0 384.0 L 1024.0 384.0 L 1024.0 768.0 L 512.0 768.0 Z M 512.0 384.0 "></path></clipPath><g clip-path="url(#clip-325)"><image xlink:href="78E965A6DC816C3DD53ACFA101C3128A.jpeg" width="518.00" height="344.00" transform="matrix(1.00, 0.00, -0.00, -1.00, 509.0, 730.0)"></image></g></g><g><clipPath id="clip-326"><path d="M 0.0 0.0 L 512.0 0.0 L 512.0 768.0 L 0.0 768.0 Z M 0.0 0.0 "></path></clipPath><g clip-path="url(#clip-326)"><image xlink:href="FBF0901C505EB22582A0841504768883.jpeg" width="1155.00" height="768.00" transform="matrix(1.00, 0.00, -0.00, -1.00, -321.0, 768.0)"></image></g></g><text xml:space="preserve" font-family="Avenir-Light" font-size="18.0" fill="#FEFFFF" transform="matrix(1.00, 0.00, -0.00, -1.00, 562.0, 398.0)">R</text><text xml:space="preserve" font-family="Avenir-Light" font-size="18.0" fill="#FEFFFF" transform="matrix(1.00, 0.00, -0.00, -1.00, 575.6, 398.0)">O</text><text xml:space="preserve" font-family="Avenir-Light" font-size="18.0" fill="#FEFFFF" transform="matrix(1.00, 0.00, -0.00, -1.00, 593.4, 398.0)">U</text><text xml:space="preserve" font-family="Avenir-Light" font-size="18.0" fill="#FEFFFF" transform="matrix(1.00, 0.00, -0.00, -1.00, 608.6, 398.0)">T</text><text xml:space="preserve" font-family="Avenir-Light" font-size="18.0" fill="#FEFFFF" transform="matrix(1.00, 0.00, -0.00, -1.00, 621.8, 398.0)">E</text><text xml:space="preserve" font-family="Avenir-Light" font-size="18.0" fill="#FEFFFF" transform="matrix(1.00, 0.00, -0.00, -1.00, 635.4, 398.0)"> </text><text xml:space="preserve" font-family="Avenir-Light" font-size="18.0" fill="#FEFFFF" transform="matrix(1.00, 0.00, -0.00, -1.00, 643.0, 398.0)">1</text><text xml:space="preserve" font-family="Avenir-Light" font-size="18.0" fill="#FEFFFF" transform="matrix(1.00, 0.00, -0.00, -1.00, 655.2, 398.0)">6</text><text xml:space="preserve" font-family="Avenir-Light" font-size="18.0" fill="#FEFFFF" transform="matrix(1.00, 0.00, -0.00, -1.00, 667.4, 398.0)"> </text><text xml:space="preserve" font-family="Avenir-Light" font-size="18.0" fill="#FEFFFF" transform="matrix(1.00, 0.00, -0.00, -1.00, 675.0, 398.0)">J</text><text xml:space="preserve" font-family="Avenir-Light" font-size="18.0" fill="#FEFFFF" transform="matrix(1.00, 0.00, -0.00, -1.00, 686.6, 398.0)">C</text><text xml:space="preserve" font-family="Avenir-Light" font-size="18.0" fill="#FEFFFF" transform="matrix(1.00, 0.00, -0.00, -1.00, 702.1, 398.0)">T</text><text xml:space="preserve" font-family="Avenir-Light" font-size="18.0" fill="#FEFFFF" transform="matrix(1.00, 0.00, -0.00, -1.00, 713.3, 398.0)">,</text><text xml:space="preserve" font-family="Avenir-Light" font-size="18.0" fill="#FEFFFF" transform="matrix(1.00, 0.00, -0.00, -1.00, 720.9, 398.0)"> </text><text xml:space="preserve" font-family="Avenir-Light" font-size="18.0" fill="#FEFFFF" transform="matrix(1.00, 0.00, -0.00, -1.00, 728.4, 398.0)">“</text><text xml:space="preserve" font-family="Avenir-Light" font-size="18.0" fill="#FEFFFF" transform="matrix(1.00, 0.00, -0.00, -1.00, 740.7, 398.0)">H</text><text xml:space="preserve" font-family="Avenir-Light" font-size="18.0" fill="#FEFFFF" transform="matrix(1.00, 0.00, -0.00, -1.00, 756.6, 398.0)">I</text><text xml:space="preserve" font-family="Avenir-Light" font-size="18.0" fill="#FEFFFF" transform="matrix(1.00, 0.00, -0.00, -1.00, 764.1, 398.0)">G</text><text xml:space="preserve" font-family="Avenir-Light" font-size="18.0" fill="#FEFFFF" transform="matrix(1.00, 0.00, -0.00, -1.00, 781.0, 398.0)">H</text><text xml:space="preserve" font-family="Avenir-Light" font-size="18.0" fill="#FEFFFF" transform="matrix(1.00, 0.00, -0.00, -1.00, 796.9, 398.0)">W</text><text xml:space="preserve" font-family="Avenir-Light" font-size="18.0" fill="#FEFFFF" transform="matrix(1.00, 0.00, -0.00, -1.00, 816.4, 398.0)">A</text><text xml:space="preserve" font-family="Avenir-Light" font-size="18.0" fill="#FEFFFF" transform="matrix(1.00, 0.00, -0.00, -1.00, 830.3, 398.0)">Y</text><text xml:space="preserve" font-family="Avenir-Light" font-size="18.0" fill="#FEFFFF" transform="matrix(1.00, 0.00, -0.00, -1.00, 843.5, 398.0)"> </text><text xml:space="preserve" font-family="Avenir-Light" font-size="18.0" fill="#FEFFFF" transform="matrix(1.00, 0.00, -0.00, -1.00, 851.1, 398.0)">O</text><text xml:space="preserve" font-family="Avenir-Light" font-size="18.0" fill="#FEFFFF" transform="matrix(1.00, 0.00, -0.00, -1.00, 869.0, 398.0)">F</text><text xml:space="preserve" font-family="Avenir-Light" font-size="18.0" fill="#FEFFFF" transform="matrix(1.00, 0.00, -0.00, -1.00, 881.9, 398.0)"> </text><text xml:space="preserve" font-family="Avenir-Light" font-size="18.0" fill="#FEFFFF" transform="matrix(1.00, 0.00, -0.00, -1.00, 889.4, 398.0)">T</text><text xml:space="preserve" font-family="Avenir-Light" font-size="18.0" fill="#FEFFFF" transform="matrix(1.00, 0.00, -0.00, -1.00, 902.6, 398.0)">E</text><text xml:space="preserve" font-family="Avenir-Light" font-size="18.0" fill="#FEFFFF" transform="matrix(1.00, 0.00, -0.00, -1.00, 916.2, 398.0)">A</text><text xml:space="preserve" font-family="Avenir-Light" font-size="18.0" fill="#FEFFFF" transform="matrix(1.00, 0.00, -0.00, -1.00, 931.4, 398.0)">R</text><text xml:space="preserve" font-family="Avenir-Light" font-size="18.0" fill="#FEFFFF" transform="matrix(1.00, 0.00, -0.00, -1.00, 944.9, 398.0)">S</text><text xml:space="preserve" font-family="Avenir-Light" font-size="18.0" fill="#FEFFFF" transform="matrix(1.00, 0.00, -0.00, -1.00, 957.8, 398.0)">”</text><text xml:space="preserve" font-family="Avenir-Light" font-size="18.0" fill="#FEFFFF" transform="matrix(1.00, 0.00, -0.00, -1.00, 970.1, 398.0)"> </text><text xml:space="preserve" font-family="Avenir-Light" font-size="20.2" fill="#FEFFFF" transform="matrix(1.00, 0.00, -0.00, -1.00, 33.0, 735.0)">“</text><text xml:space="preserve" font-family="Avenir-Light" font-size="20.2" fill="#FEFFFF" transform="matrix(1.00, 0.00, -0.00, -1.00, 46.8, 735.0)">A</text><text xml:space="preserve" font-family="Avenir-Light" font-size="20.2" fill="#FEFFFF" transform="matrix(1.00, 0.00, -0.00, -1.00, 63.9, 735.0)">U</text><text xml:space="preserve" font-family="Avenir-Light" font-size="20.2" fill="#FEFFFF" transform="matrix(1.00, 0.00, -0.00, -1.00, 81.0, 735.0)"> </text><text xml:space="preserve" font-family="Avenir-Light" font-size="20.2" fill="#FEFFFF" transform="matrix(1.00, 0.00, -0.00, -1.00, 89.5, 735.0)">V</text><text xml:space="preserve" font-family="Avenir-Light" font-size="20.2" fill="#FEFFFF" transform="matrix(1.00, 0.00, -0.00, -1.00, 104.7, 735.0)">O</text><text xml:space="preserve" font-family="Avenir-Light" font-size="20.2" fill="#FEFFFF" transform="matrix(1.00, 0.00, -0.00, -1.00, 124.9, 735.0)">L</text><text xml:space="preserve" font-family="Avenir-Light" font-size="20.2" fill="#FEFFFF" transform="matrix(1.00, 0.00, -0.00, -1.00, 138.2, 735.0)">A</text><text xml:space="preserve" font-family="Avenir-Light" font-size="20.2" fill="#FEFFFF" transform="matrix(1.00, 0.00, -0.00, -1.00, 155.3, 735.0)">N</text><text xml:space="preserve" font-family="Avenir-Light" font-size="20.2" fill="#FEFFFF" transform="matrix(1.00, 0.00, -0.00, -1.00, 174.3, 735.0)">T</text><text xml:space="preserve" font-family="Avenir-Light" font-size="20.2" fill="#FEFFFF" transform="matrix(1.00, 0.00, -0.00, -1.00, 189.2, 735.0)"> </text><text xml:space="preserve" font-family="Avenir-Light" font-size="20.2" fill="#FEFFFF" transform="matrix(1.00, 0.00, -0.00, -1.00, 197.7, 735.0)">D</text><text xml:space="preserve" font-family="Avenir-Light" font-size="20.2" fill="#FEFFFF" transform="matrix(1.00, 0.00, -0.00, -1.00, 215.9, 735.0)">E</text><text xml:space="preserve" font-family="Avenir-Light" font-size="20.2" fill="#FEFFFF" transform="matrix(1.00, 0.00, -0.00, -1.00, 231.2, 735.0)"> </text><text xml:space="preserve" font-family="Avenir-Light" font-size="20.2" fill="#FEFFFF" transform="matrix(1.00, 0.00, -0.00, -1.00, 239.7, 735.0)">M</text><text xml:space="preserve" font-family="Avenir-Light" font-size="20.2" fill="#FEFFFF" transform="matrix(1.00, 0.00, -0.00, -1.00, 260.9, 735.0)">A</text><text xml:space="preserve" font-family="Avenir-Light" font-size="20.2" fill="#FEFFFF" transform="matrix(1.00, 0.00, -0.00, -1.00, 278.0, 735.0)"> </text><text xml:space="preserve" font-family="Avenir-Light" font-size="20.2" fill="#FEFFFF" transform="matrix(1.00, 0.00, -0.00, -1.00, 286.6, 735.0)">V</text><text xml:space="preserve" font-family="Avenir-Light" font-size="20.2" fill="#FEFFFF" transform="matrix(1.00, 0.00, -0.00, -1.00, 301.8, 735.0)">I</text><text xml:space="preserve" font-family="Avenir-Light" font-size="20.2" fill="#FEFFFF" transform="matrix(1.00, 0.00, -0.00, -1.00, 310.3, 735.0)">E</text><text xml:space="preserve" font-family="Avenir-Light" font-size="20.2" fill="#FEFFFF" transform="matrix(1.00, 0.00, -0.00, -1.00, 325.6, 735.0)">,</text><text xml:space="preserve" font-family="Avenir-Light" font-size="20.2" fill="#FEFFFF" transform="matrix(1.00, 0.00, -0.00, -1.00, 334.1, 735.0)"> </text><text xml:space="preserve" font-family="Avenir-Light" font-size="20.2" fill="#FEFFFF" transform="matrix(1.00, 0.00, -0.00, -1.00, 342.6, 735.0)">D</text><text xml:space="preserve" font-family="Avenir-Light" font-size="20.2" fill="#FEFFFF" transform="matrix(1.00, 0.00, -0.00, -1.00, 360.8, 735.0)">E</text><text xml:space="preserve" font-family="Avenir-Light" font-size="20.2" fill="#FEFFFF" transform="matrix(1.00, 0.00, -0.00, -1.00, 376.1, 735.0)">V</text><text xml:space="preserve" font-family="Avenir-Light" font-size="20.2" fill="#FEFFFF" transform="matrix(1.00, 0.00, -0.00, -1.00, 390.2, 735.0)">A</text><text xml:space="preserve" font-family="Avenir-Light" font-size="20.2" fill="#FEFFFF" transform="matrix(1.00, 0.00, -0.00, -1.00, 407.3, 735.0)">N</text><text xml:space="preserve" font-family="Avenir-Light" font-size="20.2" fill="#FEFFFF" transform="matrix(1.00, 0.00, -0.00, -1.00, 426.3, 735.0)">T</text><text xml:space="preserve" font-family="Avenir-Light" font-size="20.2" fill="#FEFFFF" transform="matrix(1.00, 0.00, -0.00, -1.00, 441.2, 735.0)"> </text><text xml:space="preserve" font-family="Avenir-Light" font-size="20.2" fill="#FEFFFF" transform="matrix(1.00, 0.00, -0.00, -1.00, 33.0, 708.0)">L</text><text xml:space="preserve" font-family="Avenir-Light" font-size="20.2" fill="#FEFFFF" transform="matrix(1.00, 0.00, -0.00, -1.00, 44.1, 708.0)">’</text><text xml:space="preserve" font-family="Avenir-Light" font-size="20.2" fill="#FEFFFF" transform="matrix(1.00, 0.00, -0.00, -1.00, 52.6, 708.0)">I</text><text xml:space="preserve" font-family="Avenir-Light" font-size="20.2" fill="#FEFFFF" transform="matrix(1.00, 0.00, -0.00, -1.00, 61.1, 708.0)">N</text><text xml:space="preserve" font-family="Avenir-Light" font-size="20.2" fill="#FEFFFF" transform="matrix(1.00, 0.00, -0.00, -1.00, 80.1, 708.0)">F</text><text xml:space="preserve" font-family="Avenir-Light" font-size="20.2" fill="#FEFFFF" transform="matrix(1.00, 0.00, -0.00, -1.00, 94.6, 708.0)">I</text><text xml:space="preserve" font-family="Avenir-Light" font-size="20.2" fill="#FEFFFF" transform="matrix(1.00, 0.00, -0.00, -1.00, 103.1, 708.0)">N</text><text xml:space="preserve" font-family="Avenir-Light" font-size="20.2" fill="#FEFFFF" transform="matrix(1.00, 0.00, -0.00, -1.00, 122.1, 708.0)">I</text><text xml:space="preserve" font-family="Avenir-Light" font-size="20.2" fill="#FEFFFF" transform="matrix(1.00, 0.00, -0.00, -1.00, 130.6, 708.0)">”</text><text xml:space="preserve" font-family="Avenir-Light" font-size="20.2" fill="#FEFFFF" transform="matrix(1.00, 0.00, -0.00, -1.00, 144.4, 708.0)"> </text><text xml:space="preserve" font-family="Avenir-Light" font-size="20.2" fill="#1090EB" transform="matrix(1.00, 0.00, -0.00, -1.00, 152.9, 708.0)">—</text><text xml:space="preserve" font-family="Avenir-Light" font-size="20.2" fill="#1090EB" transform="matrix(1.00, 0.00, -0.00, -1.00, 176.4, 708.0)"> </text><text xml:space="preserve" font-family="Avenir-Light" font-size="20.2" fill="#1090EB" transform="matrix(1.00, 0.00, -0.00, -1.00, 184.9, 708.0)">I</text><text xml:space="preserve" font-family="Avenir-Light" font-size="20.2" fill="#1090EB" transform="matrix(1.00, 0.00, -0.00, -1.00, 193.4, 708.0)">S</text><text xml:space="preserve" font-family="Avenir-Light" font-size="20.2" fill="#1090EB" transform="matrix(1.00, 0.00, -0.00, -1.00, 207.9, 708.0)">A</text><text xml:space="preserve" font-family="Avenir-Light" font-size="20.2" fill="#1090EB" transform="matrix(1.00, 0.00, -0.00, -1.00, 225.0, 708.0)">B</text><text xml:space="preserve" font-family="Avenir-Light" font-size="20.2" fill="#1090EB" transform="matrix(1.00, 0.00, -0.00, -1.00, 241.0, 708.0)">E</text><text xml:space="preserve" font-family="Avenir-Light" font-size="20.2" fill="#1090EB" transform="matrix(1.00, 0.00, -0.00, -1.00, 256.3, 708.0)">L</text><text xml:space="preserve" font-family="Avenir-Light" font-size="20.2" fill="#1090EB" transform="matrix(1.00, 0.00, -0.00, -1.00, 269.6, 708.0)">L</text><text xml:space="preserve" font-family="Avenir-Light" font-size="20.2" fill="#1090EB" transform="matrix(1.00, 0.00, -0.00, -1.00, 283.0, 708.0)">E</text><text xml:space="preserve" font-family="Avenir-Light" font-size="20.2" fill="#1090EB" transform="matrix(1.00, 0.00, -0.00, -1.00, 298.2, 708.0)"> </text><text xml:space="preserve" font-family="Avenir-Light" font-size="20.2" fill="#1090EB" transform="matrix(1.00, 0.00, -0.00, -1.00, 306.7, 708.0)">B</text><text xml:space="preserve" font-family="Avenir-Light" font-size="20.2" fill="#1090EB" transform="matrix(1.00, 0.00, -0.00, -1.00, 322.7, 708.0)">O</text><text xml:space="preserve" font-family="Avenir-Light" font-size="20.2" fill="#1090EB" transform="matrix(1.00, 0.00, -0.00, -1.00, 342.9, 708.0)">U</text><text xml:space="preserve" font-family="Avenir-Light" font-size="20.2" fill="#1090EB" transform="matrix(1.00, 0.00, -0.00, -1.00, 360.0, 708.0)">L</text><text xml:space="preserve" font-family="Avenir-Light" font-size="20.2" fill="#1090EB" transform="matrix(1.00, 0.00, -0.00, -1.00, 373.3, 708.0)">A</text><text xml:space="preserve" font-family="Avenir-Light" font-size="20.2" fill="#1090EB" transform="matrix(1.00, 0.00, -0.00, -1.00, 388.9, 708.0)">Y</text><text xml:space="preserve" font-family="Avenir-Light" font-size="18.4" fill="#FEFFFF" transform="matrix(1.00, 0.00, -0.00, -1.00, 614.0, 11.0)">S</text><text xml:space="preserve" font-family="Avenir-Light" font-size="18.4" fill="#FEFFFF" transform="matrix(1.00, 0.00, -0.00, -1.00, 627.2, 11.0)">T</text><text xml:space="preserve" font-family="Avenir-Light" font-size="18.4" fill="#FEFFFF" transform="matrix(1.00, 0.00, -0.00, -1.00, 640.8, 11.0)">R</text><text xml:space="preserve" font-family="Avenir-Light" font-size="18.4" fill="#FEFFFF" transform="matrix(1.00, 0.00, -0.00, -1.00, 654.6, 11.0)">A</text><text xml:space="preserve" font-family="Avenir-Light" font-size="18.4" fill="#FEFFFF" transform="matrix(1.00, 0.00, -0.00, -1.00, 670.2, 11.0)">N</text><text xml:space="preserve" font-family="Avenir-Light" font-size="18.4" fill="#FEFFFF" transform="matrix(1.00, 0.00, -0.00, -1.00, 687.5, 11.0)">G</text><text xml:space="preserve" font-family="Avenir-Light" font-size="18.4" fill="#FEFFFF" transform="matrix(1.00, 0.00, -0.00, -1.00, 704.8, 11.0)">E</text><text xml:space="preserve" font-family="Avenir-Light" font-size="18.4" fill="#FEFFFF" transform="matrix(1.00, 0.00, -0.00, -1.00, 718.7, 11.0)"> </text><text xml:space="preserve" font-family="Avenir-Light" font-size="18.4" fill="#FEFFFF" transform="matrix(1.00, 0.00, -0.00, -1.00, 726.5, 11.0)">&amp;</text><text xml:space="preserve" font-family="Avenir-Light" font-size="18.4" fill="#FEFFFF" transform="matrix(1.00, 0.00, -0.00, -1.00, 742.4, 11.0)"> </text><text xml:space="preserve" font-family="Avenir-Light" font-size="18.4" fill="#FEFFFF" transform="matrix(1.00, 0.00, -0.00, -1.00, 750.2, 11.0)">S</text><text xml:space="preserve" font-family="Avenir-Light" font-size="18.4" fill="#FEFFFF" transform="matrix(1.00, 0.00, -0.00, -1.00, 763.4, 11.0)">U</text><text xml:space="preserve" font-family="Avenir-Light" font-size="18.4" fill="#FEFFFF" transform="matrix(1.00, 0.00, -0.00, -1.00, 779.0, 11.0)">R</text><text xml:space="preserve" font-family="Avenir-Light" font-size="18.4" fill="#FEFFFF" transform="matrix(1.00, 0.00, -0.00, -1.00, 792.9, 11.0)">R</text><text xml:space="preserve" font-family="Avenir-Light" font-size="18.4" fill="#FEFFFF" transform="matrix(1.00, 0.00, -0.00, -1.00, 806.7, 11.0)">E</text><text xml:space="preserve" font-family="Avenir-Light" font-size="18.4" fill="#FEFFFF" transform="matrix(1.00, 0.00, -0.00, -1.00, 820.6, 11.0)">A</text><text xml:space="preserve" font-family="Avenir-Light" font-size="18.4" fill="#FEFFFF" transform="matrix(1.00, 0.00, -0.00, -1.00, 836.2, 11.0)">L</text><text xml:space="preserve" font-family="Avenir-Light" font-size="18.4" fill="#FEFFFF" transform="matrix(1.00, 0.00, -0.00, -1.00, 848.4, 11.0)"> </text><text xml:space="preserve" font-family="Avenir-Light" font-size="18.4" fill="#FEFFFF" transform="matrix(1.00, 0.00, -0.00, -1.00, 856.2, 11.0)">T</text><text xml:space="preserve" font-family="Avenir-Light" font-size="18.4" fill="#FEFFFF" transform="matrix(1.00, 0.00, -0.00, -1.00, 869.7, 11.0)">I</text><text xml:space="preserve" font-family="Avenir-Light" font-size="18.4" fill="#FEFFFF" transform="matrix(1.00, 0.00, -0.00, -1.00, 877.4, 11.0)">M</text><text xml:space="preserve" font-family="Avenir-Light" font-size="18.4" fill="#FEFFFF" transform="matrix(1.00, 0.00, -0.00, -1.00, 896.8, 11.0)">E</text><text xml:space="preserve" font-family="Avenir-Light" font-size="18.4" fill="#FEFFFF" transform="matrix(1.00, 0.00, -0.00, -1.00, 910.7, 11.0)">S</text></g></svg>