<?xml version="1.0" encoding="UTF-8"?><svg xmlns="http://www.w3.org/2000/svg" xmlns:xlink="http://www.w3.org/1999/xlink" clip-rule="evenodd" stroke-miterlimit="4.00" viewBox="0 0 1024 768"><desc>SVG generated by Keynote</desc><defs></defs><g transform="matrix(1.00, 0.00, -0.00, -1.00, 0.0, 768.0)"><path d="M 0.0 768.0 L 1024.0 768.0 L 1024.0 0.0 L 0.0 0.0 Z M 0.0 768.0 " fill="#000000"></path><g><clipPath id="clip-11"><path d="M 0.0 0.0 L 512.0 0.0 L 512.0 384.0 L 0.0 384.0 Z M 0.0 0.0 "></path></clipPath><g clip-path="url(#clip-11)"><image xlink:href="../../751E28D6-EA5B-4AAA-B089-8ABD1624C671/assets/FCB50F2C102EB4466349A261A946982B.jpeg" width="578.00" height="384.00" transform="matrix(1.00, 0.00, -0.00, -1.00, -33.0, 384.0)"></image></g></g><g><clipPath id="clip-12"><path d="M 0.0 384.0 L 512.0 384.0 L 512.0 768.0 L 0.0 768.0 Z M 0.0 384.0 "></path></clipPath><g clip-path="url(#clip-12)"><image xlink:href="../../751E28D6-EA5B-4AAA-B089-8ABD1624C671/assets/F9073EED1758FA4581AE898D0F55F234.jpeg" width="1074.00" height="714.00" transform="matrix(1.00, 0.00, -0.00, -1.00, -281.0, 933.0)"></image></g></g><g><clipPath id="clip-13"><path d="M 512.0 0.0 L 1024.0 0.0 L 1024.0 768.0 L 512.0 768.0 Z M 512.0 0.0 "></path></clipPath><g clip-path="url(#clip-13)"><image xlink:href="../../751E28D6-EA5B-4AAA-B089-8ABD1624C671/assets/210D266CDC1F06C3A9137C6F4017DBBB.jpeg" width="1156.00" height="769.00" transform="matrix(1.00, 0.00, -0.00, -1.00, 190.0, 768.0)"></image></g></g><text xml:space="preserve" font-family="Avenir-Book" font-size="19.9" fill="#FEFFFE" transform="matrix(1.00, 0.00, -0.00, -1.00, 50.0, 16.0)">D</text><text xml:space="preserve" font-family="Avenir-Book" font-size="19.9" fill="#FEFFFE" transform="matrix(1.00, 0.00, -0.00, -1.00, 67.9, 16.0)">R</text><text xml:space="preserve" font-family="Avenir-Book" font-size="19.9" fill="#FEFFFE" transform="matrix(1.00, 0.00, -0.00, -1.00, 82.9, 16.0)">I</text><text xml:space="preserve" font-family="Avenir-Book" font-size="19.9" fill="#FEFFFE" transform="matrix(1.00, 0.00, -0.00, -1.00, 91.4, 16.0)">V</text><text xml:space="preserve" font-family="Avenir-Book" font-size="19.9" fill="#FEFFFE" transform="matrix(1.00, 0.00, -0.00, -1.00, 106.8, 16.0)">I</text><text xml:space="preserve" font-family="Avenir-Book" font-size="19.9" fill="#FEFFFE" transform="matrix(1.00, 0.00, -0.00, -1.00, 115.2, 16.0)">N</text><text xml:space="preserve" font-family="Avenir-Book" font-size="19.9" fill="#FEFFFE" transform="matrix(1.00, 0.00, -0.00, -1.00, 133.9, 16.0)">G</text><text xml:space="preserve" font-family="Avenir-Book" font-size="19.9" fill="#FEFFFE" transform="matrix(1.00, 0.00, -0.00, -1.00, 152.6, 16.0)"> </text><text xml:space="preserve" font-family="Avenir-Book" font-size="19.9" fill="#FEFFFE" transform="matrix(1.00, 0.00, -0.00, -1.00, 161.3, 16.0)">T</text><text xml:space="preserve" font-family="Avenir-Book" font-size="19.9" fill="#FEFFFE" transform="matrix(1.00, 0.00, -0.00, -1.00, 175.9, 16.0)">H</text><text xml:space="preserve" font-family="Avenir-Book" font-size="19.9" fill="#FEFFFE" transform="matrix(1.00, 0.00, -0.00, -1.00, 193.5, 16.0)">E</text><text xml:space="preserve" font-family="Avenir-Book" font-size="19.9" fill="#FEFFFE" transform="matrix(1.00, 0.00, -0.00, -1.00, 208.5, 16.0)"> </text><text xml:space="preserve" font-family="Avenir-Book" font-size="19.9" fill="#FEFFFE" transform="matrix(1.00, 0.00, -0.00, -1.00, 217.2, 16.0)">A</text><text xml:space="preserve" font-family="Avenir-Book" font-size="19.9" fill="#FEFFFE" transform="matrix(1.00, 0.00, -0.00, -1.00, 234.1, 16.0)">L</text><text xml:space="preserve" font-family="Avenir-Book" font-size="19.9" fill="#FEFFFE" transform="matrix(1.00, 0.00, -0.00, -1.00, 247.2, 16.0)">A</text><text xml:space="preserve" font-family="Avenir-Book" font-size="19.9" fill="#FEFFFE" transform="matrix(1.00, 0.00, -0.00, -1.00, 264.1, 16.0)">S</text><text xml:space="preserve" font-family="Avenir-Book" font-size="19.9" fill="#FEFFFE" transform="matrix(1.00, 0.00, -0.00, -1.00, 278.3, 16.0)">K</text><text xml:space="preserve" font-family="Avenir-Book" font-size="19.9" fill="#FEFFFE" transform="matrix(1.00, 0.00, -0.00, -1.00, 294.1, 16.0)">A</text><text xml:space="preserve" font-family="Avenir-Book" font-size="19.9" fill="#FEFFFE" transform="matrix(1.00, 0.00, -0.00, -1.00, 310.9, 16.0)"> </text><text xml:space="preserve" font-family="Avenir-Book" font-size="19.9" fill="#FEFFFE" transform="matrix(1.00, 0.00, -0.00, -1.00, 319.6, 16.0)">H</text><text xml:space="preserve" font-family="Avenir-Book" font-size="19.9" fill="#FEFFFE" transform="matrix(1.00, 0.00, -0.00, -1.00, 337.2, 16.0)">I</text><text xml:space="preserve" font-family="Avenir-Book" font-size="19.9" fill="#FEFFFE" transform="matrix(1.00, 0.00, -0.00, -1.00, 345.7, 16.0)">G</text><text xml:space="preserve" font-family="Avenir-Book" font-size="19.9" fill="#FEFFFE" transform="matrix(1.00, 0.00, -0.00, -1.00, 364.3, 16.0)">H</text><text xml:space="preserve" font-family="Avenir-Book" font-size="19.9" fill="#FEFFFE" transform="matrix(1.00, 0.00, -0.00, -1.00, 381.9, 16.0)">W</text><text xml:space="preserve" font-family="Avenir-Book" font-size="19.9" fill="#FEFFFE" transform="matrix(1.00, 0.00, -0.00, -1.00, 403.5, 16.0)">A</text><text xml:space="preserve" font-family="Avenir-Book" font-size="19.9" fill="#FEFFFE" transform="matrix(1.00, 0.00, -0.00, -1.00, 418.9, 16.0)">Y</text><text xml:space="preserve" font-family="Avenir-Book" font-size="19.9" fill="#FEFFFE" transform="matrix(1.00, 0.00, -0.00, -1.00, 433.5, 16.0)"> </text><text xml:space="preserve" font-family="Avenir-Book" font-size="19.9" fill="#FEFFFE" transform="matrix(1.00, 0.00, -0.00, -1.00, 442.3, 16.0)">T</text><text xml:space="preserve" font-family="Avenir-Book" font-size="19.9" fill="#FEFFFE" transform="matrix(1.00, 0.00, -0.00, -1.00, 456.9, 16.0)">H</text><text xml:space="preserve" font-family="Avenir-Book" font-size="19.9" fill="#FEFFFE" transform="matrix(1.00, 0.00, -0.00, -1.00, 474.5, 16.0)">R</text><text xml:space="preserve" font-family="Avenir-Book" font-size="19.9" fill="#FEFFFE" transform="matrix(1.00, 0.00, -0.00, -1.00, 489.5, 16.0)">O</text><text xml:space="preserve" font-family="Avenir-Book" font-size="19.9" fill="#FEFFFE" transform="matrix(1.00, 0.00, -0.00, -1.00, 509.3, 16.0)">U</text><text xml:space="preserve" font-family="Avenir-Book" font-size="19.9" fill="#FEFFFE" transform="matrix(1.00, 0.00, -0.00, -1.00, 526.1, 16.0)">G</text><text xml:space="preserve" font-family="Avenir-Book" font-size="19.9" fill="#FEFFFE" transform="matrix(1.00, 0.00, -0.00, -1.00, 544.8, 16.0)">H</text><text xml:space="preserve" font-family="Avenir-Book" font-size="19.9" fill="#FEFFFE" transform="matrix(1.00, 0.00, -0.00, -1.00, 562.4, 16.0)"> </text><text xml:space="preserve" font-family="Avenir-Book" font-size="19.9" fill="#FEFFFE" transform="matrix(1.00, 0.00, -0.00, -1.00, 571.1, 16.0)">T</text><text xml:space="preserve" font-family="Avenir-Book" font-size="19.9" fill="#FEFFFE" transform="matrix(1.00, 0.00, -0.00, -1.00, 585.7, 16.0)">H</text><text xml:space="preserve" font-family="Avenir-Book" font-size="19.9" fill="#FEFFFE" transform="matrix(1.00, 0.00, -0.00, -1.00, 603.3, 16.0)">E</text><text xml:space="preserve" font-family="Avenir-Book" font-size="19.9" fill="#FEFFFE" transform="matrix(1.00, 0.00, -0.00, -1.00, 618.3, 16.0)"> </text><text xml:space="preserve" font-family="Avenir-Book" font-size="19.9" fill="#FEFFFE" transform="matrix(1.00, 0.00, -0.00, -1.00, 627.0, 16.0)">R</text><text xml:space="preserve" font-family="Avenir-Book" font-size="19.9" fill="#FEFFFE" transform="matrix(1.00, 0.00, -0.00, -1.00, 642.0, 16.0)">O</text><text xml:space="preserve" font-family="Avenir-Book" font-size="19.9" fill="#FEFFFE" transform="matrix(1.00, 0.00, -0.00, -1.00, 661.8, 16.0)">C</text><text xml:space="preserve" font-family="Avenir-Book" font-size="19.9" fill="#FEFFFE" transform="matrix(1.00, 0.00, -0.00, -1.00, 679.0, 16.0)">K</text><text xml:space="preserve" font-family="Avenir-Book" font-size="19.9" fill="#FEFFFE" transform="matrix(1.00, 0.00, -0.00, -1.00, 694.8, 16.0)">I</text><text xml:space="preserve" font-family="Avenir-Book" font-size="19.9" fill="#FEFFFE" transform="matrix(1.00, 0.00, -0.00, -1.00, 703.2, 16.0)">E</text><text xml:space="preserve" font-family="Avenir-Book" font-size="19.9" fill="#FEFFFE" transform="matrix(1.00, 0.00, -0.00, -1.00, 718.2, 16.0)">S</text><text xml:space="preserve" font-family="Avenir-Book" font-size="19.9" fill="#FEFFFE" transform="matrix(1.00, 0.00, -0.00, -1.00, 732.5, 16.0)">,</text><text xml:space="preserve" font-family="Avenir-Book" font-size="19.9" fill="#FEFFFE" transform="matrix(1.00, 0.00, -0.00, -1.00, 741.2, 16.0)"> </text><text xml:space="preserve" font-family="Avenir-Book" font-size="19.9" fill="#FEFFFE" transform="matrix(1.00, 0.00, -0.00, -1.00, 749.9, 16.0)">D</text><text xml:space="preserve" font-family="Avenir-Book" font-size="19.9" fill="#FEFFFE" transform="matrix(1.00, 0.00, -0.00, -1.00, 767.9, 16.0)">A</text><text xml:space="preserve" font-family="Avenir-Book" font-size="19.9" fill="#FEFFFE" transform="matrix(1.00, 0.00, -0.00, -1.00, 783.2, 16.0)">Y</text><text xml:space="preserve" font-family="Avenir-Book" font-size="19.9" fill="#FEFFFE" transform="matrix(1.00, 0.00, -0.00, -1.00, 797.9, 16.0)"> </text><text xml:space="preserve" font-family="Avenir-Book" font-size="19.9" fill="#FEFFFE" transform="matrix(1.00, 0.00, -0.00, -1.00, 806.6, 16.0)">2</text><text xml:space="preserve" font-family="Avenir-Book" font-size="19.9" fill="#FEFFFE" transform="matrix(1.00, 0.00, -0.00, -1.00, 820.8, 16.0)"> </text><text xml:space="preserve" font-family="Avenir-Book" font-size="19.9" fill="#FEFFFE" transform="matrix(1.00, 0.00, -0.00, -1.00, 829.6, 16.0)">(</text><text xml:space="preserve" font-family="Avenir-Book" font-size="19.9" fill="#FEFFFE" transform="matrix(1.00, 0.00, -0.00, -1.00, 837.9, 16.0)">1</text><text xml:space="preserve" font-family="Avenir-Book" font-size="19.9" fill="#FEFFFE" transform="matrix(1.00, 0.00, -0.00, -1.00, 852.2, 16.0)">0</text><text xml:space="preserve" font-family="Avenir-Book" font-size="19.9" fill="#FEFFFE" transform="matrix(1.00, 0.00, -0.00, -1.00, 866.5, 16.0)">9</text><text xml:space="preserve" font-family="Avenir-Book" font-size="19.9" fill="#FEFFFE" transform="matrix(1.00, 0.00, -0.00, -1.00, 880.7, 16.0)">1</text><text xml:space="preserve" font-family="Avenir-Book" font-size="19.9" fill="#FEFFFE" transform="matrix(1.00, 0.00, -0.00, -1.00, 895.0, 16.0)"> </text><text xml:space="preserve" font-family="Avenir-Book" font-size="19.9" fill="#FEFFFE" transform="matrix(1.00, 0.00, -0.00, -1.00, 903.7, 16.0)">K</text><text xml:space="preserve" font-family="Avenir-Book" font-size="19.9" fill="#FEFFFE" transform="matrix(1.00, 0.00, -0.00, -1.00, 919.4, 16.0)">M</text><text xml:space="preserve" font-family="Avenir-Book" font-size="19.9" fill="#FEFFFE" transform="matrix(1.00, 0.00, -0.00, -1.00, 940.4, 16.0)">)</text></g></svg>