<?xml version="1.0" encoding="UTF-8"?><svg xmlns="http://www.w3.org/2000/svg" xmlns:xlink="http://www.w3.org/1999/xlink" clip-rule="evenodd" stroke-miterlimit="4.00" viewBox="0 0 1024 768"><desc>SVG generated by Keynote</desc><defs></defs><g transform="matrix(1.00, 0.00, -0.00, -1.00, 0.0, 768.0)"><path d="M 0.0 768.0 L 1024.0 768.0 L 1024.0 0.0 L 0.0 0.0 Z M 0.0 768.0 " fill="#000000"></path><g><clipPath id="clip-14"><path d="M 512.0 384.0 L 1024.0 384.0 L 1024.0 0.0 L 512.0 0.0 Z M 512.0 383.8 "></path></clipPath><g clip-path="url(#clip-14)"><image xlink:href="F01AD271D760806A997F566A9562AE96.jpeg" width="578.00" height="384.00" transform="matrix(1.00, 0.00, -0.00, -1.00, 479.0, 384.0)"></image></g></g><g><clipPath id="clip-15"><path d="M 512.0 384.0 L 1024.0 384.0 L 1024.0 768.0 L 512.0 768.0 Z M 512.0 384.0 "></path></clipPath><g clip-path="url(#clip-15)"><image xlink:href="B7C2D1A64651F58C08EFEB9953EA1DC1.jpeg" width="578.00" height="384.00" transform="matrix(1.00, 0.00, -0.00, -1.00, 479.0, 768.0)"></image></g></g><g><clipPath id="clip-16"><path d="M 0.0 0.0 L 512.0 0.0 L 512.0 768.0 L 0.0 768.0 Z M 0.0 0.0 "></path></clipPath><g clip-path="url(#clip-16)"><image xlink:href="6ED34CCAEC3E740831F213E3610B4AF7.jpeg" width="1156.00" height="769.00" transform="matrix(1.00, 0.00, -0.00, -1.00, -322.0, 768.0)"></image></g></g><text xml:space="preserve" font-family="Avenir-Light" font-size="19.4" fill="#FEFFFF" transform="matrix(1.00, 0.00, -0.00, -1.00, 21.0, 12.0)">W</text><text xml:space="preserve" font-family="Avenir-Light" font-size="19.4" fill="#FEFFFF" transform="matrix(1.00, 0.00, -0.00, -1.00, 42.4, 12.0)">E</text><text xml:space="preserve" font-family="Avenir-Light" font-size="19.4" fill="#FEFFFF" transform="matrix(1.00, 0.00, -0.00, -1.00, 56.9, 12.0)">A</text><text xml:space="preserve" font-family="Avenir-Light" font-size="19.4" fill="#FEFFFF" transform="matrix(1.00, 0.00, -0.00, -1.00, 72.0, 12.0)">T</text><text xml:space="preserve" font-family="Avenir-Light" font-size="19.4" fill="#FEFFFF" transform="matrix(1.00, 0.00, -0.00, -1.00, 86.2, 12.0)">H</text><text xml:space="preserve" font-family="Avenir-Light" font-size="19.4" fill="#FEFFFF" transform="matrix(1.00, 0.00, -0.00, -1.00, 103.2, 12.0)">E</text><text xml:space="preserve" font-family="Avenir-Light" font-size="19.4" fill="#FEFFFF" transform="matrix(1.00, 0.00, -0.00, -1.00, 117.8, 12.0)">R</text><text xml:space="preserve" font-family="Avenir-Light" font-size="19.4" fill="#FEFFFF" transform="matrix(1.00, 0.00, -0.00, -1.00, 132.4, 12.0)">,</text><text xml:space="preserve" font-family="Avenir-Light" font-size="19.4" fill="#FEFFFF" transform="matrix(1.00, 0.00, -0.00, -1.00, 140.5, 12.0)"> </text><text xml:space="preserve" font-family="Avenir-Light" font-size="19.4" fill="#FEFFFF" transform="matrix(1.00, 0.00, -0.00, -1.00, 148.6, 12.0)">W</text><text xml:space="preserve" font-family="Avenir-Light" font-size="19.4" fill="#FEFFFF" transform="matrix(1.00, 0.00, -0.00, -1.00, 170.0, 12.0)">I</text><text xml:space="preserve" font-family="Avenir-Light" font-size="19.4" fill="#FEFFFF" transform="matrix(1.00, 0.00, -0.00, -1.00, 178.1, 12.0)">L</text><text xml:space="preserve" font-family="Avenir-Light" font-size="19.4" fill="#FEFFFF" transform="matrix(1.00, 0.00, -0.00, -1.00, 190.9, 12.0)">D</text><text xml:space="preserve" font-family="Avenir-Light" font-size="19.4" fill="#FEFFFF" transform="matrix(1.00, 0.00, -0.00, -1.00, 208.3, 12.0)">L</text><text xml:space="preserve" font-family="Avenir-Light" font-size="19.4" fill="#FEFFFF" transform="matrix(1.00, 0.00, -0.00, -1.00, 221.1, 12.0)">I</text><text xml:space="preserve" font-family="Avenir-Light" font-size="19.4" fill="#FEFFFF" transform="matrix(1.00, 0.00, -0.00, -1.00, 229.2, 12.0)">F</text><text xml:space="preserve" font-family="Avenir-Light" font-size="19.4" fill="#FEFFFF" transform="matrix(1.00, 0.00, -0.00, -1.00, 243.1, 12.0)">E</text><text xml:space="preserve" font-family="Avenir-Light" font-size="19.4" fill="#FEFFFF" transform="matrix(1.00, 0.00, -0.00, -1.00, 257.7, 12.0)"> </text><text xml:space="preserve" font-family="Avenir-Light" font-size="19.4" fill="#FEFFFF" transform="matrix(1.00, 0.00, -0.00, -1.00, 265.8, 12.0)">(</text><text xml:space="preserve" font-family="Avenir-Light" font-size="19.4" fill="#FEFFFF" transform="matrix(1.00, 0.00, -0.00, -1.00, 273.9, 12.0)">W</text><text xml:space="preserve" font-family="Avenir-Light" font-size="19.4" fill="#FEFFFF" transform="matrix(1.00, 0.00, -0.00, -1.00, 295.3, 12.0)">O</text><text xml:space="preserve" font-family="Avenir-Light" font-size="19.4" fill="#FEFFFF" transform="matrix(1.00, 0.00, -0.00, -1.00, 314.5, 12.0)">O</text><text xml:space="preserve" font-family="Avenir-Light" font-size="19.4" fill="#FEFFFF" transform="matrix(1.00, 0.00, -0.00, -1.00, 333.7, 12.0)">D</text><text xml:space="preserve" font-family="Avenir-Light" font-size="19.4" fill="#FEFFFF" transform="matrix(1.00, 0.00, -0.00, -1.00, 351.2, 12.0)"> </text><text xml:space="preserve" font-family="Avenir-Light" font-size="19.4" fill="#FEFFFF" transform="matrix(1.00, 0.00, -0.00, -1.00, 359.3, 12.0)">B</text><text xml:space="preserve" font-family="Avenir-Light" font-size="19.4" fill="#FEFFFF" transform="matrix(1.00, 0.00, -0.00, -1.00, 374.6, 12.0)">I</text><text xml:space="preserve" font-family="Avenir-Light" font-size="19.4" fill="#FEFFFF" transform="matrix(1.00, 0.00, -0.00, -1.00, 382.7, 12.0)">S</text><text xml:space="preserve" font-family="Avenir-Light" font-size="19.4" fill="#FEFFFF" transform="matrix(1.00, 0.00, -0.00, -1.00, 396.6, 12.0)">O</text><text xml:space="preserve" font-family="Avenir-Light" font-size="19.4" fill="#FEFFFF" transform="matrix(1.00, 0.00, -0.00, -1.00, 415.8, 12.0)">N</text><text xml:space="preserve" font-family="Avenir-Light" font-size="19.4" fill="#FEFFFF" transform="matrix(1.00, 0.00, -0.00, -1.00, 433.9, 12.0)">S</text><text xml:space="preserve" font-family="Avenir-Light" font-size="19.4" fill="#FEFFFF" transform="matrix(1.00, 0.00, -0.00, -1.00, 447.8, 12.0)"> </text><text xml:space="preserve" font-family="Avenir-Light" font-size="19.4" fill="#FEFFFF" transform="matrix(1.00, 0.00, -0.00, -1.00, 455.9, 12.0)">/</text><text xml:space="preserve" font-family="Avenir-Light" font-size="19.4" fill="#FEFFFF" transform="matrix(1.00, 0.00, -0.00, -1.00, 466.2, 12.0)"> </text><text xml:space="preserve" font-family="Avenir-Light" font-size="19.4" fill="#FEFFFF" transform="matrix(1.00, 0.00, -0.00, -1.00, 474.3, 12.0)">M</text><text xml:space="preserve" font-family="Avenir-Light" font-size="19.4" fill="#FEFFFF" transform="matrix(1.00, 0.00, -0.00, -1.00, 494.6, 12.0)">O</text><text xml:space="preserve" font-family="Avenir-Light" font-size="19.4" fill="#FEFFFF" transform="matrix(1.00, 0.00, -0.00, -1.00, 513.8, 12.0)">O</text><text xml:space="preserve" font-family="Avenir-Light" font-size="19.4" fill="#FEFFFF" transform="matrix(1.00, 0.00, -0.00, -1.00, 533.1, 12.0)">S</text><text xml:space="preserve" font-family="Avenir-Light" font-size="19.4" fill="#FEFFFF" transform="matrix(1.00, 0.00, -0.00, -1.00, 546.9, 12.0)">E</text><text xml:space="preserve" font-family="Avenir-Light" font-size="19.4" fill="#FEFFFF" transform="matrix(1.00, 0.00, -0.00, -1.00, 561.5, 12.0)"> </text><text xml:space="preserve" font-family="Avenir-Light" font-size="19.4" fill="#FEFFFF" transform="matrix(1.00, 0.00, -0.00, -1.00, 569.6, 12.0)">P</text><text xml:space="preserve" font-family="Avenir-Light" font-size="19.4" fill="#FEFFFF" transform="matrix(1.00, 0.00, -0.00, -1.00, 583.8, 12.0)">I</text><text xml:space="preserve" font-family="Avenir-Light" font-size="19.4" fill="#FEFFFF" transform="matrix(1.00, 0.00, -0.00, -1.00, 592.0, 12.0)">C</text><text xml:space="preserve" font-family="Avenir-Light" font-size="19.4" fill="#FEFFFF" transform="matrix(1.00, 0.00, -0.00, -1.00, 608.7, 12.0)">T</text><text xml:space="preserve" font-family="Avenir-Light" font-size="19.4" fill="#FEFFFF" transform="matrix(1.00, 0.00, -0.00, -1.00, 622.9, 12.0)">U</text><text xml:space="preserve" font-family="Avenir-Light" font-size="19.4" fill="#FEFFFF" transform="matrix(1.00, 0.00, -0.00, -1.00, 639.2, 12.0)">R</text><text xml:space="preserve" font-family="Avenir-Light" font-size="19.4" fill="#FEFFFF" transform="matrix(1.00, 0.00, -0.00, -1.00, 653.8, 12.0)">E</text><text xml:space="preserve" font-family="Avenir-Light" font-size="19.4" fill="#FEFFFF" transform="matrix(1.00, 0.00, -0.00, -1.00, 668.4, 12.0)">D</text><text xml:space="preserve" font-family="Avenir-Light" font-size="19.4" fill="#FEFFFF" transform="matrix(1.00, 0.00, -0.00, -1.00, 685.8, 12.0)">)</text><text xml:space="preserve" font-family="Avenir-Light" font-size="19.4" fill="#FEFFFF" transform="matrix(1.00, 0.00, -0.00, -1.00, 693.9, 12.0)"> </text><text xml:space="preserve" font-family="Avenir-Light" font-size="19.4" fill="#FEFFFF" transform="matrix(1.00, 0.00, -0.00, -1.00, 702.0, 12.0)">&amp;</text><text xml:space="preserve" font-family="Avenir-Light" font-size="19.4" fill="#FEFFFF" transform="matrix(1.00, 0.00, -0.00, -1.00, 718.8, 12.0)"> </text><text xml:space="preserve" font-family="Avenir-Light" font-size="19.4" fill="#FEFFFF" transform="matrix(1.00, 0.00, -0.00, -1.00, 726.9, 12.0)">O</text><text xml:space="preserve" font-family="Avenir-Light" font-size="19.4" fill="#FEFFFF" transform="matrix(1.00, 0.00, -0.00, -1.00, 746.1, 12.0)">T</text><text xml:space="preserve" font-family="Avenir-Light" font-size="19.4" fill="#FEFFFF" transform="matrix(1.00, 0.00, -0.00, -1.00, 760.3, 12.0)">H</text><text xml:space="preserve" font-family="Avenir-Light" font-size="19.4" fill="#FEFFFF" transform="matrix(1.00, 0.00, -0.00, -1.00, 777.4, 12.0)">E</text><text xml:space="preserve" font-family="Avenir-Light" font-size="19.4" fill="#FEFFFF" transform="matrix(1.00, 0.00, -0.00, -1.00, 792.0, 12.0)">R</text><text xml:space="preserve" font-family="Avenir-Light" font-size="19.4" fill="#FEFFFF" transform="matrix(1.00, 0.00, -0.00, -1.00, 806.5, 12.0)"> </text><text xml:space="preserve" font-family="Avenir-Light" font-size="19.4" fill="#FEFFFF" transform="matrix(1.00, 0.00, -0.00, -1.00, 814.7, 12.0)">R</text><text xml:space="preserve" font-family="Avenir-Light" font-size="19.4" fill="#FEFFFF" transform="matrix(1.00, 0.00, -0.00, -1.00, 829.2, 12.0)">O</text><text xml:space="preserve" font-family="Avenir-Light" font-size="19.4" fill="#FEFFFF" transform="matrix(1.00, 0.00, -0.00, -1.00, 848.5, 12.0)">A</text><text xml:space="preserve" font-family="Avenir-Light" font-size="19.4" fill="#FEFFFF" transform="matrix(1.00, 0.00, -0.00, -1.00, 864.8, 12.0)">D</text><text xml:space="preserve" font-family="Avenir-Light" font-size="19.4" fill="#FEFFFF" transform="matrix(1.00, 0.00, -0.00, -1.00, 882.2, 12.0)"> </text><text xml:space="preserve" font-family="Avenir-Light" font-size="19.4" fill="#FEFFFF" transform="matrix(1.00, 0.00, -0.00, -1.00, 890.4, 12.0)">H</text><text xml:space="preserve" font-family="Avenir-Light" font-size="19.4" fill="#FEFFFF" transform="matrix(1.00, 0.00, -0.00, -1.00, 907.4, 12.0)">A</text><text xml:space="preserve" font-family="Avenir-Light" font-size="19.4" fill="#FEFFFF" transform="matrix(1.00, 0.00, -0.00, -1.00, 923.8, 12.0)">Z</text><text xml:space="preserve" font-family="Avenir-Light" font-size="19.4" fill="#FEFFFF" transform="matrix(1.00, 0.00, -0.00, -1.00, 937.6, 12.0)">A</text><text xml:space="preserve" font-family="Avenir-Light" font-size="19.4" fill="#FEFFFF" transform="matrix(1.00, 0.00, -0.00, -1.00, 954.0, 12.0)">R</text><text xml:space="preserve" font-family="Avenir-Light" font-size="19.4" fill="#FEFFFF" transform="matrix(1.00, 0.00, -0.00, -1.00, 968.6, 12.0)">D</text><text xml:space="preserve" font-family="Avenir-Light" font-size="19.4" fill="#FEFFFF" transform="matrix(1.00, 0.00, -0.00, -1.00, 986.0, 12.0)">S</text></g></svg>