<?xml version="1.0" encoding="UTF-8"?><svg xmlns="http://www.w3.org/2000/svg" xmlns:xlink="http://www.w3.org/1999/xlink" clip-rule="evenodd" stroke-miterlimit="4.00" viewBox="0 0 1024 768"><desc>SVG generated by Keynote</desc><defs></defs><g transform="matrix(1.00, 0.00, -0.00, -1.00, 0.0, 768.0)"><path d="M 0.0 768.0 L 1024.0 768.0 L 1024.0 0.0 L 0.0 0.0 Z M 0.0 768.0 " fill="#000000"></path><g><clipPath id="clip-242"><path d="M 0.0 770.0 L 1024.0 770.0 L 1024.0 37.0 L 0.0 37.0 Z M 0.0 770.0 "></path></clipPath><g clip-path="url(#clip-242)"><image xlink:href="D730A1C6BC9420BA7C2FD3C57711F070.jpeg" width="1155.00" height="768.00" transform="matrix(1.00, 0.00, -0.00, -1.00, -65.0, 788.0)"></image></g></g><text xml:space="preserve" font-family="Avenir-Light" font-size="19.4" fill="#FEFFFF" transform="matrix(1.00, 0.00, -0.00, -1.00, 122.0, 12.0)">S</text><text xml:space="preserve" font-family="Avenir-Light" font-size="19.4" fill="#FEFFFF" transform="matrix(1.00, 0.00, -0.00, -1.00, 135.9, 12.0)">T</text><text xml:space="preserve" font-family="Avenir-Light" font-size="19.4" fill="#FEFFFF" transform="matrix(1.00, 0.00, -0.00, -1.00, 148.7, 12.0)">A</text><text xml:space="preserve" font-family="Avenir-Light" font-size="19.4" fill="#FEFFFF" transform="matrix(1.00, 0.00, -0.00, -1.00, 165.1, 12.0)">R</text><text xml:space="preserve" font-family="Avenir-Light" font-size="19.4" fill="#FEFFFF" transform="matrix(1.00, 0.00, -0.00, -1.00, 179.7, 12.0)">G</text><text xml:space="preserve" font-family="Avenir-Light" font-size="19.4" fill="#FEFFFF" transform="matrix(1.00, 0.00, -0.00, -1.00, 197.8, 12.0)">A</text><text xml:space="preserve" font-family="Avenir-Light" font-size="19.4" fill="#FEFFFF" transform="matrix(1.00, 0.00, -0.00, -1.00, 214.2, 12.0)">Z</text><text xml:space="preserve" font-family="Avenir-Light" font-size="19.4" fill="#FEFFFF" transform="matrix(1.00, 0.00, -0.00, -1.00, 228.0, 12.0)">I</text><text xml:space="preserve" font-family="Avenir-Light" font-size="19.4" fill="#FEFFFF" transform="matrix(1.00, 0.00, -0.00, -1.00, 236.1, 12.0)">N</text><text xml:space="preserve" font-family="Avenir-Light" font-size="19.4" fill="#FEFFFF" transform="matrix(1.00, 0.00, -0.00, -1.00, 254.3, 12.0)">G</text><text xml:space="preserve" font-family="Avenir-Light" font-size="19.4" fill="#FEFFFF" transform="matrix(1.00, 0.00, -0.00, -1.00, 272.4, 12.0)">,</text><text xml:space="preserve" font-family="Avenir-Light" font-size="19.4" fill="#FEFFFF" transform="matrix(1.00, 0.00, -0.00, -1.00, 280.6, 12.0)"> </text><text xml:space="preserve" font-family="Avenir-Light" font-size="19.4" fill="#FEFFFF" transform="matrix(1.00, 0.00, -0.00, -1.00, 288.7, 12.0)">E</text><text xml:space="preserve" font-family="Avenir-Light" font-size="19.4" fill="#FEFFFF" transform="matrix(1.00, 0.00, -0.00, -1.00, 303.3, 12.0)">N</text><text xml:space="preserve" font-family="Avenir-Light" font-size="19.4" fill="#FEFFFF" transform="matrix(1.00, 0.00, -0.00, -1.00, 321.4, 12.0)">J</text><text xml:space="preserve" font-family="Avenir-Light" font-size="19.4" fill="#FEFFFF" transform="matrix(1.00, 0.00, -0.00, -1.00, 333.8, 12.0)">O</text><text xml:space="preserve" font-family="Avenir-Light" font-size="19.4" fill="#FEFFFF" transform="matrix(1.00, 0.00, -0.00, -1.00, 353.1, 12.0)">Y</text><text xml:space="preserve" font-family="Avenir-Light" font-size="19.4" fill="#FEFFFF" transform="matrix(1.00, 0.00, -0.00, -1.00, 367.3, 12.0)">I</text><text xml:space="preserve" font-family="Avenir-Light" font-size="19.4" fill="#FEFFFF" transform="matrix(1.00, 0.00, -0.00, -1.00, 375.4, 12.0)">N</text><text xml:space="preserve" font-family="Avenir-Light" font-size="19.4" fill="#FEFFFF" transform="matrix(1.00, 0.00, -0.00, -1.00, 393.6, 12.0)">G</text><text xml:space="preserve" font-family="Avenir-Light" font-size="19.4" fill="#FEFFFF" transform="matrix(1.00, 0.00, -0.00, -1.00, 411.7, 12.0)"> </text><text xml:space="preserve" font-family="Avenir-Light" font-size="19.4" fill="#FEFFFF" transform="matrix(1.00, 0.00, -0.00, -1.00, 419.8, 12.0)">P</text><text xml:space="preserve" font-family="Avenir-Light" font-size="19.4" fill="#FEFFFF" transform="matrix(1.00, 0.00, -0.00, -1.00, 434.0, 12.0)">O</text><text xml:space="preserve" font-family="Avenir-Light" font-size="19.4" fill="#FEFFFF" transform="matrix(1.00, 0.00, -0.00, -1.00, 453.3, 12.0)">L</text><text xml:space="preserve" font-family="Avenir-Light" font-size="19.4" fill="#FEFFFF" transform="matrix(1.00, 0.00, -0.00, -1.00, 466.0, 12.0)">A</text><text xml:space="preserve" font-family="Avenir-Light" font-size="19.4" fill="#FEFFFF" transform="matrix(1.00, 0.00, -0.00, -1.00, 482.4, 12.0)">R</text><text xml:space="preserve" font-family="Avenir-Light" font-size="19.4" fill="#FEFFFF" transform="matrix(1.00, 0.00, -0.00, -1.00, 497.0, 12.0)"> </text><text xml:space="preserve" font-family="Avenir-Light" font-size="19.4" fill="#FEFFFF" transform="matrix(1.00, 0.00, -0.00, -1.00, 505.1, 12.0)">L</text><text xml:space="preserve" font-family="Avenir-Light" font-size="19.4" fill="#FEFFFF" transform="matrix(1.00, 0.00, -0.00, -1.00, 517.9, 12.0)">I</text><text xml:space="preserve" font-family="Avenir-Light" font-size="19.4" fill="#FEFFFF" transform="matrix(1.00, 0.00, -0.00, -1.00, 526.0, 12.0)">G</text><text xml:space="preserve" font-family="Avenir-Light" font-size="19.4" fill="#FEFFFF" transform="matrix(1.00, 0.00, -0.00, -1.00, 544.1, 12.0)">H</text><text xml:space="preserve" font-family="Avenir-Light" font-size="19.4" fill="#FEFFFF" transform="matrix(1.00, 0.00, -0.00, -1.00, 561.2, 12.0)">T</text><text xml:space="preserve" font-family="Avenir-Light" font-size="19.4" fill="#FEFFFF" transform="matrix(1.00, 0.00, -0.00, -1.00, 575.4, 12.0)">S</text><text xml:space="preserve" font-family="Avenir-Light" font-size="19.4" fill="#FEFFFF" transform="matrix(1.00, 0.00, -0.00, -1.00, 589.3, 12.0)"> </text><text xml:space="preserve" font-family="Avenir-Light" font-size="19.4" fill="#FEFFFF" transform="matrix(1.00, 0.00, -0.00, -1.00, 597.4, 12.0)">A</text><text xml:space="preserve" font-family="Avenir-Light" font-size="19.4" fill="#FEFFFF" transform="matrix(1.00, 0.00, -0.00, -1.00, 612.4, 12.0)">T</text><text xml:space="preserve" font-family="Avenir-Light" font-size="19.4" fill="#FEFFFF" transform="matrix(1.00, 0.00, -0.00, -1.00, 626.6, 12.0)"> </text><text xml:space="preserve" font-family="Avenir-Light" font-size="19.4" fill="#FEFFFF" transform="matrix(1.00, 0.00, -0.00, -1.00, 634.8, 12.0)">S</text><text xml:space="preserve" font-family="Avenir-Light" font-size="19.4" fill="#FEFFFF" transform="matrix(1.00, 0.00, -0.00, -1.00, 648.6, 12.0)">O</text><text xml:space="preserve" font-family="Avenir-Light" font-size="19.4" fill="#FEFFFF" transform="matrix(1.00, 0.00, -0.00, -1.00, 667.8, 12.0)">U</text><text xml:space="preserve" font-family="Avenir-Light" font-size="19.4" fill="#FEFFFF" transform="matrix(1.00, 0.00, -0.00, -1.00, 684.2, 12.0)">T</text><text xml:space="preserve" font-family="Avenir-Light" font-size="19.4" fill="#FEFFFF" transform="matrix(1.00, 0.00, -0.00, -1.00, 698.4, 12.0)">H</text><text xml:space="preserve" font-family="Avenir-Light" font-size="19.4" fill="#FEFFFF" transform="matrix(1.00, 0.00, -0.00, -1.00, 715.4, 12.0)">E</text><text xml:space="preserve" font-family="Avenir-Light" font-size="19.4" fill="#FEFFFF" transform="matrix(1.00, 0.00, -0.00, -1.00, 730.0, 12.0)">R</text><text xml:space="preserve" font-family="Avenir-Light" font-size="19.4" fill="#FEFFFF" transform="matrix(1.00, 0.00, -0.00, -1.00, 744.6, 12.0)">N</text><text xml:space="preserve" font-family="Avenir-Light" font-size="19.4" fill="#FEFFFF" transform="matrix(1.00, 0.00, -0.00, -1.00, 762.7, 12.0)"> </text><text xml:space="preserve" font-family="Avenir-Light" font-size="19.4" fill="#FEFFFF" transform="matrix(1.00, 0.00, -0.00, -1.00, 770.9, 12.0)">L</text><text xml:space="preserve" font-family="Avenir-Light" font-size="19.4" fill="#FEFFFF" transform="matrix(1.00, 0.00, -0.00, -1.00, 783.6, 12.0)">A</text><text xml:space="preserve" font-family="Avenir-Light" font-size="19.4" fill="#FEFFFF" transform="matrix(1.00, 0.00, -0.00, -1.00, 800.0, 12.0)">K</text><text xml:space="preserve" font-family="Avenir-Light" font-size="19.4" fill="#FEFFFF" transform="matrix(1.00, 0.00, -0.00, -1.00, 814.9, 12.0)">E</text><text xml:space="preserve" font-family="Avenir-Light" font-size="19.4" fill="#FEFFFF" transform="matrix(1.00, 0.00, -0.00, -1.00, 829.5, 12.0)">S</text><text xml:space="preserve" font-family="Avenir-Light" font-size="19.4" fill="#FEFFFF" transform="matrix(1.00, 0.00, -0.00, -1.00, 843.3, 12.0)">,</text><text xml:space="preserve" font-family="Avenir-Light" font-size="19.4" fill="#FEFFFF" transform="matrix(1.00, 0.00, -0.00, -1.00, 851.5, 12.0)"> </text><text xml:space="preserve" font-family="Avenir-Light" font-size="19.4" fill="#FEFFFF" transform="matrix(1.00, 0.00, -0.00, -1.00, 859.6, 12.0)">Y</text><text xml:space="preserve" font-family="Avenir-Light" font-size="19.4" fill="#FEFFFF" transform="matrix(1.00, 0.00, -0.00, -1.00, 873.8, 12.0)">T</text></g></svg>