<?xml version="1.0" encoding="UTF-8"?><svg xmlns="http://www.w3.org/2000/svg" xmlns:xlink="http://www.w3.org/1999/xlink" clip-rule="evenodd" stroke-miterlimit="4.00" viewBox="0 0 1024 768"><desc>SVG generated by Keynote</desc><defs></defs><g transform="matrix(1.00, 0.00, -0.00, -1.00, 0.0, 768.0)"><path d="M 0.0 768.0 L 1024.0 768.0 L 1024.0 0.0 L 0.0 0.0 Z M 0.0 768.0 " fill="#000000"></path><g><clipPath id="clip-480"><path d="M 0.0 1.0 L 1024.0 1.0 L 1024.0 769.0 L 0.0 769.0 Z M 0.0 1.0 "></path></clipPath><g clip-path="url(#clip-480)"><image xlink:href="EBAF6515F0AF7FCDA18ACC8BF587984D.jpeg" width="1155.00" height="768.00" transform="matrix(1.00, 0.00, -0.00, -1.00, -65.0, 769.0)"></image></g></g><text xml:space="preserve" font-family="Avenir-Light" font-size="22.5" fill="#FEFFFF" transform="matrix(1.00, 0.00, -0.00, -1.00, 145.0, 739.0)">S</text><text xml:space="preserve" font-family="Avenir-Light" font-size="22.5" fill="#FEFFFF" transform="matrix(1.00, 0.00, -0.00, -1.00, 161.1, 739.0)">T</text><text xml:space="preserve" font-family="Avenir-Light" font-size="22.5" fill="#FEFFFF" transform="matrix(1.00, 0.00, -0.00, -1.00, 176.1, 739.0)">A</text><text xml:space="preserve" font-family="Avenir-Light" font-size="22.5" fill="#FEFFFF" transform="matrix(1.00, 0.00, -0.00, -1.00, 195.1, 739.0)">R</text><text xml:space="preserve" font-family="Avenir-Light" font-size="22.5" fill="#FEFFFF" transform="matrix(1.00, 0.00, -0.00, -1.00, 212.0, 739.0)">G</text><text xml:space="preserve" font-family="Avenir-Light" font-size="22.5" fill="#FEFFFF" transform="matrix(1.00, 0.00, -0.00, -1.00, 233.2, 739.0)">A</text><text xml:space="preserve" font-family="Avenir-Light" font-size="22.5" fill="#FEFFFF" transform="matrix(1.00, 0.00, -0.00, -1.00, 252.2, 739.0)">Z</text><text xml:space="preserve" font-family="Avenir-Light" font-size="22.5" fill="#FEFFFF" transform="matrix(1.00, 0.00, -0.00, -1.00, 268.3, 739.0)">I</text><text xml:space="preserve" font-family="Avenir-Light" font-size="22.5" fill="#FEFFFF" transform="matrix(1.00, 0.00, -0.00, -1.00, 277.7, 739.0)">N</text><text xml:space="preserve" font-family="Avenir-Light" font-size="22.5" fill="#FEFFFF" transform="matrix(1.00, 0.00, -0.00, -1.00, 298.8, 739.0)">G</text><text xml:space="preserve" font-family="Avenir-Light" font-size="22.5" fill="#FEFFFF" transform="matrix(1.00, 0.00, -0.00, -1.00, 319.9, 739.0)"> </text><text xml:space="preserve" font-family="Avenir-Light" font-size="22.5" fill="#FEFFFF" transform="matrix(1.00, 0.00, -0.00, -1.00, 329.4, 739.0)">&amp;</text><text xml:space="preserve" font-family="Avenir-Light" font-size="22.5" fill="#FEFFFF" transform="matrix(1.00, 0.00, -0.00, -1.00, 348.8, 739.0)"> </text><text xml:space="preserve" font-family="Avenir-Light" font-size="22.5" fill="#FEFFFF" transform="matrix(1.00, 0.00, -0.00, -1.00, 358.3, 739.0)">E</text><text xml:space="preserve" font-family="Avenir-Light" font-size="22.5" fill="#FEFFFF" transform="matrix(1.00, 0.00, -0.00, -1.00, 375.2, 739.0)">N</text><text xml:space="preserve" font-family="Avenir-Light" font-size="22.5" fill="#FEFFFF" transform="matrix(1.00, 0.00, -0.00, -1.00, 396.3, 739.0)">J</text><text xml:space="preserve" font-family="Avenir-Light" font-size="22.5" fill="#FEFFFF" transform="matrix(1.00, 0.00, -0.00, -1.00, 410.8, 739.0)">O</text><text xml:space="preserve" font-family="Avenir-Light" font-size="22.5" fill="#FEFFFF" transform="matrix(1.00, 0.00, -0.00, -1.00, 433.1, 739.0)">Y</text><text xml:space="preserve" font-family="Avenir-Light" font-size="22.5" fill="#FEFFFF" transform="matrix(1.00, 0.00, -0.00, -1.00, 449.6, 739.0)">I</text><text xml:space="preserve" font-family="Avenir-Light" font-size="22.5" fill="#FEFFFF" transform="matrix(1.00, 0.00, -0.00, -1.00, 459.1, 739.0)">N</text><text xml:space="preserve" font-family="Avenir-Light" font-size="22.5" fill="#FEFFFF" transform="matrix(1.00, 0.00, -0.00, -1.00, 480.2, 739.0)">G</text><text xml:space="preserve" font-family="Avenir-Light" font-size="22.5" fill="#FEFFFF" transform="matrix(1.00, 0.00, -0.00, -1.00, 501.3, 739.0)"> </text><text xml:space="preserve" font-family="Avenir-Light" font-size="22.5" fill="#FEFFFF" transform="matrix(1.00, 0.00, -0.00, -1.00, 510.8, 739.0)">D</text><text xml:space="preserve" font-family="Avenir-Light" font-size="22.5" fill="#FEFFFF" transform="matrix(1.00, 0.00, -0.00, -1.00, 531.0, 739.0)">A</text><text xml:space="preserve" font-family="Avenir-Light" font-size="22.5" fill="#FEFFFF" transform="matrix(1.00, 0.00, -0.00, -1.00, 550.0, 739.0)">N</text><text xml:space="preserve" font-family="Avenir-Light" font-size="22.5" fill="#FEFFFF" transform="matrix(1.00, 0.00, -0.00, -1.00, 571.1, 739.0)">C</text><text xml:space="preserve" font-family="Avenir-Light" font-size="22.5" fill="#FEFFFF" transform="matrix(1.00, 0.00, -0.00, -1.00, 590.6, 739.0)">I</text><text xml:space="preserve" font-family="Avenir-Light" font-size="22.5" fill="#FEFFFF" transform="matrix(1.00, 0.00, -0.00, -1.00, 600.0, 739.0)">N</text><text xml:space="preserve" font-family="Avenir-Light" font-size="22.5" fill="#FEFFFF" transform="matrix(1.00, 0.00, -0.00, -1.00, 621.1, 739.0)">G</text><text xml:space="preserve" font-family="Avenir-Light" font-size="22.5" fill="#FEFFFF" transform="matrix(1.00, 0.00, -0.00, -1.00, 642.2, 739.0)"> </text><text xml:space="preserve" font-family="Avenir-Light" font-size="22.5" fill="#FEFFFF" transform="matrix(1.00, 0.00, -0.00, -1.00, 651.7, 739.0)">L</text><text xml:space="preserve" font-family="Avenir-Light" font-size="22.5" fill="#FEFFFF" transform="matrix(1.00, 0.00, -0.00, -1.00, 666.5, 739.0)">I</text><text xml:space="preserve" font-family="Avenir-Light" font-size="22.5" fill="#FEFFFF" transform="matrix(1.00, 0.00, -0.00, -1.00, 676.0, 739.0)">G</text><text xml:space="preserve" font-family="Avenir-Light" font-size="22.5" fill="#FEFFFF" transform="matrix(1.00, 0.00, -0.00, -1.00, 697.1, 739.0)">H</text><text xml:space="preserve" font-family="Avenir-Light" font-size="22.5" fill="#FEFFFF" transform="matrix(1.00, 0.00, -0.00, -1.00, 716.9, 739.0)">T</text><text xml:space="preserve" font-family="Avenir-Light" font-size="22.5" fill="#FEFFFF" transform="matrix(1.00, 0.00, -0.00, -1.00, 733.5, 739.0)">S</text><text xml:space="preserve" font-family="Avenir-Light" font-size="22.5" fill="#FEFFFF" transform="matrix(1.00, 0.00, -0.00, -1.00, 749.6, 739.0)">,</text><text xml:space="preserve" font-family="Avenir-Light" font-size="22.5" fill="#FEFFFF" transform="matrix(1.00, 0.00, -0.00, -1.00, 759.0, 739.0)"> </text><text xml:space="preserve" font-family="Avenir-Light" font-size="22.5" fill="#FEFFFF" transform="matrix(1.00, 0.00, -0.00, -1.00, 768.5, 739.0)">C</text><text xml:space="preserve" font-family="Avenir-Light" font-size="22.5" fill="#FEFFFF" transform="matrix(1.00, 0.00, -0.00, -1.00, 787.9, 739.0)">O</text><text xml:space="preserve" font-family="Avenir-Light" font-size="22.5" fill="#FEFFFF" transform="matrix(1.00, 0.00, -0.00, -1.00, 810.3, 739.0)">N</text><text xml:space="preserve" font-family="Avenir-Light" font-size="22.5" fill="#FEFFFF" transform="matrix(1.00, 0.00, -0.00, -1.00, 831.4, 739.0)">R</text><text xml:space="preserve" font-family="Avenir-Light" font-size="22.5" fill="#FEFFFF" transform="matrix(1.00, 0.00, -0.00, -1.00, 848.3, 739.0)">A</text><text xml:space="preserve" font-family="Avenir-Light" font-size="22.5" fill="#FEFFFF" transform="matrix(1.00, 0.00, -0.00, -1.00, 867.3, 739.0)">D</text><text xml:space="preserve" font-family="Avenir-Light" font-size="22.5" fill="#FEFFFF" transform="matrix(1.00, 0.00, -0.00, -1.00, 887.6, 739.0)"> </text><text xml:space="preserve" font-family="Avenir-Light" font-size="22.5" fill="#FEFFFF" transform="matrix(1.00, 0.00, -0.00, -1.00, 897.1, 739.0)">Y</text><text xml:space="preserve" font-family="Avenir-Light" font-size="22.5" fill="#FEFFFF" transform="matrix(1.00, 0.00, -0.00, -1.00, 913.6, 739.0)">T</text></g></svg>