<?xml version="1.0" encoding="UTF-8"?><svg xmlns="http://www.w3.org/2000/svg" xmlns:xlink="http://www.w3.org/1999/xlink" clip-rule="evenodd" stroke-miterlimit="4.00" viewBox="0 0 1024 768"><desc>SVG generated by Keynote</desc><defs></defs><g transform="matrix(1.00, 0.00, -0.00, -1.00, 0.0, 768.0)"><path d="M 0.0 768.0 L 1024.0 768.0 L 1024.0 0.0 L 0.0 0.0 Z M 0.0 768.0 " fill="#000000"></path><g><clipPath id="clip-317"><path d="M 0.0 0.0 L 1024.0 0.0 L 1024.0 768.0 L 0.0 768.0 Z M 0.0 0.0 "></path></clipPath><g clip-path="url(#clip-317)"><image xlink:href="../../C493FAC6-54E5-4B5D-BE59-D1F85097633F/assets/7131AF8C7615FC5365303C4B2ACD8310.jpeg" width="1155.00" height="768.00" transform="matrix(1.00, 0.00, -0.00, -1.00, -65.0, 768.0)"></image></g></g><text xml:space="preserve" font-family="Avenir-Light" font-size="19.8" fill="#000000" transform="matrix(1.00, 0.00, -0.00, -1.00, 49.0, 742.0)">A</text><text xml:space="preserve" font-family="Avenir-Light" font-size="19.8" fill="#000000" transform="matrix(1.00, 0.00, -0.00, -1.00, 65.7, 742.0)">L</text><text xml:space="preserve" font-family="Avenir-Light" font-size="19.8" fill="#000000" transform="matrix(1.00, 0.00, -0.00, -1.00, 78.8, 742.0)">P</text><text xml:space="preserve" font-family="Avenir-Light" font-size="19.8" fill="#000000" transform="matrix(1.00, 0.00, -0.00, -1.00, 93.3, 742.0)">I</text><text xml:space="preserve" font-family="Avenir-Light" font-size="19.8" fill="#000000" transform="matrix(1.00, 0.00, -0.00, -1.00, 101.6, 742.0)">N</text><text xml:space="preserve" font-family="Avenir-Light" font-size="19.8" fill="#000000" transform="matrix(1.00, 0.00, -0.00, -1.00, 120.2, 742.0)">E</text><text xml:space="preserve" font-family="Avenir-Light" font-size="19.8" fill="#000000" transform="matrix(1.00, 0.00, -0.00, -1.00, 135.1, 742.0)"> </text><text xml:space="preserve" font-family="Avenir-Light" font-size="19.8" fill="#000000" transform="matrix(1.00, 0.00, -0.00, -1.00, 143.4, 742.0)">A</text><text xml:space="preserve" font-family="Avenir-Light" font-size="19.8" fill="#000000" transform="matrix(1.00, 0.00, -0.00, -1.00, 160.2, 742.0)">B</text><text xml:space="preserve" font-family="Avenir-Light" font-size="19.8" fill="#000000" transform="matrix(1.00, 0.00, -0.00, -1.00, 175.8, 742.0)">O</text><text xml:space="preserve" font-family="Avenir-Light" font-size="19.8" fill="#000000" transform="matrix(1.00, 0.00, -0.00, -1.00, 195.5, 742.0)">V</text><text xml:space="preserve" font-family="Avenir-Light" font-size="19.8" fill="#000000" transform="matrix(1.00, 0.00, -0.00, -1.00, 210.4, 742.0)">E</text><text xml:space="preserve" font-family="Avenir-Light" font-size="19.8" fill="#000000" transform="matrix(1.00, 0.00, -0.00, -1.00, 225.3, 742.0)"> </text><text xml:space="preserve" font-family="Avenir-Light" font-size="19.8" fill="#000000" transform="matrix(1.00, 0.00, -0.00, -1.00, 233.6, 742.0)">T</text><text xml:space="preserve" font-family="Avenir-Light" font-size="19.8" fill="#000000" transform="matrix(1.00, 0.00, -0.00, -1.00, 246.8, 742.0)">A</text><text xml:space="preserve" font-family="Avenir-Light" font-size="19.8" fill="#000000" transform="matrix(1.00, 0.00, -0.00, -1.00, 263.6, 742.0)">G</text><text xml:space="preserve" font-family="Avenir-Light" font-size="19.8" fill="#000000" transform="matrix(1.00, 0.00, -0.00, -1.00, 282.1, 742.0)">I</text><text xml:space="preserve" font-family="Avenir-Light" font-size="19.8" fill="#000000" transform="matrix(1.00, 0.00, -0.00, -1.00, 290.4, 742.0)">S</text><text xml:space="preserve" font-family="Avenir-Light" font-size="19.8" fill="#000000" transform="matrix(1.00, 0.00, -0.00, -1.00, 304.6, 742.0)">H</text><text xml:space="preserve" font-family="Avenir-Light" font-size="19.8" fill="#000000" transform="matrix(1.00, 0.00, -0.00, -1.00, 322.1, 742.0)"> </text><text xml:space="preserve" font-family="Avenir-Light" font-size="19.8" fill="#000000" transform="matrix(1.00, 0.00, -0.00, -1.00, 330.4, 742.0)">L</text><text xml:space="preserve" font-family="Avenir-Light" font-size="19.8" fill="#000000" transform="matrix(1.00, 0.00, -0.00, -1.00, 343.5, 742.0)">A</text><text xml:space="preserve" font-family="Avenir-Light" font-size="19.8" fill="#000000" transform="matrix(1.00, 0.00, -0.00, -1.00, 360.2, 742.0)">K</text><text xml:space="preserve" font-family="Avenir-Light" font-size="19.8" fill="#000000" transform="matrix(1.00, 0.00, -0.00, -1.00, 375.5, 742.0)">E</text><text xml:space="preserve" font-family="Avenir-Light" font-size="19.8" fill="#000000" transform="matrix(1.00, 0.00, -0.00, -1.00, 390.4, 742.0)">,</text><text xml:space="preserve" font-family="Avenir-Light" font-size="19.8" fill="#000000" transform="matrix(1.00, 0.00, -0.00, -1.00, 398.7, 742.0)"> </text><text xml:space="preserve" font-family="Avenir-Light" font-size="19.8" fill="#000000" transform="matrix(1.00, 0.00, -0.00, -1.00, 407.0, 742.0)">S</text><text xml:space="preserve" font-family="Avenir-Light" font-size="19.8" fill="#000000" transform="matrix(1.00, 0.00, -0.00, -1.00, 421.2, 742.0)">O</text><text xml:space="preserve" font-family="Avenir-Light" font-size="19.8" fill="#000000" transform="matrix(1.00, 0.00, -0.00, -1.00, 440.9, 742.0)">U</text><text xml:space="preserve" font-family="Avenir-Light" font-size="19.8" fill="#000000" transform="matrix(1.00, 0.00, -0.00, -1.00, 457.6, 742.0)">T</text><text xml:space="preserve" font-family="Avenir-Light" font-size="19.8" fill="#000000" transform="matrix(1.00, 0.00, -0.00, -1.00, 472.1, 742.0)">H</text><text xml:space="preserve" font-family="Avenir-Light" font-size="19.8" fill="#000000" transform="matrix(1.00, 0.00, -0.00, -1.00, 489.6, 742.0)"> </text><text xml:space="preserve" font-family="Avenir-Light" font-size="19.8" fill="#000000" transform="matrix(1.00, 0.00, -0.00, -1.00, 497.9, 742.0)">V</text><text xml:space="preserve" font-family="Avenir-Light" font-size="19.8" fill="#000000" transform="matrix(1.00, 0.00, -0.00, -1.00, 512.8, 742.0)">I</text><text xml:space="preserve" font-family="Avenir-Light" font-size="19.8" fill="#000000" transform="matrix(1.00, 0.00, -0.00, -1.00, 521.1, 742.0)">E</text><text xml:space="preserve" font-family="Avenir-Light" font-size="19.8" fill="#000000" transform="matrix(1.00, 0.00, -0.00, -1.00, 536.0, 742.0)">W</text><text xml:space="preserve" font-family="Avenir-Light" font-size="19.8" fill="#000000" transform="matrix(1.00, 0.00, -0.00, -1.00, 557.9, 742.0)"> </text><text xml:space="preserve" font-family="Avenir-Light" font-size="19.8" fill="#000000" transform="matrix(1.00, 0.00, -0.00, -1.00, 566.2, 742.0)">T</text><text xml:space="preserve" font-family="Avenir-Light" font-size="19.8" fill="#000000" transform="matrix(1.00, 0.00, -0.00, -1.00, 580.7, 742.0)">O</text><text xml:space="preserve" font-family="Avenir-Light" font-size="19.8" fill="#000000" transform="matrix(1.00, 0.00, -0.00, -1.00, 600.4, 742.0)">W</text><text xml:space="preserve" font-family="Avenir-Light" font-size="19.8" fill="#000000" transform="matrix(1.00, 0.00, -0.00, -1.00, 621.9, 742.0)">A</text><text xml:space="preserve" font-family="Avenir-Light" font-size="19.8" fill="#000000" transform="matrix(1.00, 0.00, -0.00, -1.00, 638.6, 742.0)">R</text><text xml:space="preserve" font-family="Avenir-Light" font-size="19.8" fill="#000000" transform="matrix(1.00, 0.00, -0.00, -1.00, 653.6, 742.0)">D</text><text xml:space="preserve" font-family="Avenir-Light" font-size="19.8" fill="#000000" transform="matrix(1.00, 0.00, -0.00, -1.00, 671.4, 742.0)">S</text><text xml:space="preserve" font-family="Avenir-Light" font-size="19.8" fill="#000000" transform="matrix(1.00, 0.00, -0.00, -1.00, 685.6, 742.0)"> </text><text xml:space="preserve" font-family="Avenir-Light" font-size="19.8" fill="#000000" transform="matrix(1.00, 0.00, -0.00, -1.00, 693.9, 742.0)">B</text><text xml:space="preserve" font-family="Avenir-Light" font-size="19.8" fill="#000000" transform="matrix(1.00, 0.00, -0.00, -1.00, 709.5, 742.0)">C</text><text xml:space="preserve" font-family="Avenir-Light" font-size="19.8" fill="#000000" transform="matrix(1.00, 0.00, -0.00, -1.00, 726.6, 742.0)"> </text><text xml:space="preserve" font-family="Avenir-Light" font-size="19.8" fill="#000000" transform="matrix(1.00, 0.00, -0.00, -1.00, 735.0, 742.0)">(</text><text xml:space="preserve" font-family="Avenir-Light" font-size="19.8" fill="#000000" transform="matrix(1.00, 0.00, -0.00, -1.00, 743.3, 742.0)">1</text><text xml:space="preserve" font-family="Avenir-Light" font-size="19.8" fill="#000000" transform="matrix(1.00, 0.00, -0.00, -1.00, 756.7, 742.0)">6</text><text xml:space="preserve" font-family="Avenir-Light" font-size="19.8" fill="#000000" transform="matrix(1.00, 0.00, -0.00, -1.00, 770.2, 742.0)"> </text><text xml:space="preserve" font-family="Avenir-Light" font-size="19.8" fill="#000000" transform="matrix(1.00, 0.00, -0.00, -1.00, 778.5, 742.0)">K</text><text xml:space="preserve" font-family="Avenir-Light" font-size="19.8" fill="#000000" transform="matrix(1.00, 0.00, -0.00, -1.00, 793.8, 742.0)">M</text><text xml:space="preserve" font-family="Avenir-Light" font-size="19.8" fill="#000000" transform="matrix(1.00, 0.00, -0.00, -1.00, 814.5, 742.0)"> </text><text xml:space="preserve" font-family="Avenir-Light" font-size="19.8" fill="#000000" transform="matrix(1.00, 0.00, -0.00, -1.00, 822.9, 742.0)">E</text><text xml:space="preserve" font-family="Avenir-Light" font-size="19.8" fill="#000000" transform="matrix(1.00, 0.00, -0.00, -1.00, 837.8, 742.0)">L</text><text xml:space="preserve" font-family="Avenir-Light" font-size="19.8" fill="#000000" transform="matrix(1.00, 0.00, -0.00, -1.00, 850.8, 742.0)">E</text><text xml:space="preserve" font-family="Avenir-Light" font-size="19.8" fill="#000000" transform="matrix(1.00, 0.00, -0.00, -1.00, 865.7, 742.0)">V</text><text xml:space="preserve" font-family="Avenir-Light" font-size="19.8" fill="#000000" transform="matrix(1.00, 0.00, -0.00, -1.00, 878.1, 742.0)">.</text><text xml:space="preserve" font-family="Avenir-Light" font-size="19.8" fill="#000000" transform="matrix(1.00, 0.00, -0.00, -1.00, 886.4, 742.0)"> </text><text xml:space="preserve" font-family="Avenir-Light" font-size="19.8" fill="#000000" transform="matrix(1.00, 0.00, -0.00, -1.00, 894.7, 742.0)">1</text><text xml:space="preserve" font-family="Avenir-Light" font-size="19.8" fill="#000000" transform="matrix(1.00, 0.00, -0.00, -1.00, 908.2, 742.0)"> </text><text xml:space="preserve" font-family="Avenir-Light" font-size="19.8" fill="#000000" transform="matrix(1.00, 0.00, -0.00, -1.00, 916.5, 742.0)">K</text><text xml:space="preserve" font-family="Avenir-Light" font-size="19.8" fill="#000000" transform="matrix(1.00, 0.00, -0.00, -1.00, 931.8, 742.0)">M</text><text xml:space="preserve" font-family="Avenir-Light" font-size="19.8" fill="#000000" transform="matrix(1.00, 0.00, -0.00, -1.00, 952.6, 742.0)">+</text><text xml:space="preserve" font-family="Avenir-Light" font-size="19.8" fill="#000000" transform="matrix(1.00, 0.00, -0.00, -1.00, 968.9, 742.0)">)</text></g></svg>