<?xml version="1.0" encoding="UTF-8"?><svg xmlns="http://www.w3.org/2000/svg" xmlns:xlink="http://www.w3.org/1999/xlink" clip-rule="evenodd" stroke-miterlimit="4.00" viewBox="0 0 1024 768"><desc>SVG generated by Keynote</desc><defs></defs><g transform="matrix(1.00, 0.00, -0.00, -1.00, 0.0, 768.0)"><path d="M 0.0 768.0 L 1024.0 768.0 L 1024.0 0.0 L 0.0 0.0 Z M 0.0 768.0 " fill="#000000"></path><g><clipPath id="clip-149"><path d="M 0.0 732.0 L 1024.0 732.0 L 1024.0 0.0 L 0.0 0.0 Z M 0.0 731.9 "></path></clipPath><g clip-path="url(#clip-149)"><image xlink:href="../../C493FAC6-54E5-4B5D-BE59-D1F85097633F/assets/7131AF8C7615FC5365303C4B2ACD8310.jpeg" width="1155.00" height="768.00" transform="matrix(1.00, 0.00, -0.00, -1.00, -65.0, 771.0)"></image></g></g><text xml:space="preserve" font-family="Avenir-Light" font-size="18.0" fill="#FEFFFF" transform="matrix(1.00, 0.00, -0.00, -1.00, 62.0, 743.0)">A</text><text xml:space="preserve" font-family="Avenir-Light" font-size="18.0" fill="#FEFFFF" transform="matrix(1.00, 0.00, -0.00, -1.00, 77.2, 743.0)">L</text><text xml:space="preserve" font-family="Avenir-Light" font-size="18.0" fill="#FEFFFF" transform="matrix(1.00, 0.00, -0.00, -1.00, 89.1, 743.0)">P</text><text xml:space="preserve" font-family="Avenir-Light" font-size="18.0" fill="#FEFFFF" transform="matrix(1.00, 0.00, -0.00, -1.00, 102.3, 743.0)">I</text><text xml:space="preserve" font-family="Avenir-Light" font-size="18.0" fill="#FEFFFF" transform="matrix(1.00, 0.00, -0.00, -1.00, 109.9, 743.0)">N</text><text xml:space="preserve" font-family="Avenir-Light" font-size="18.0" fill="#FEFFFF" transform="matrix(1.00, 0.00, -0.00, -1.00, 126.7, 743.0)">E</text><text xml:space="preserve" font-family="Avenir-Light" font-size="18.0" fill="#FEFFFF" transform="matrix(1.00, 0.00, -0.00, -1.00, 140.3, 743.0)"> </text><text xml:space="preserve" font-family="Avenir-Light" font-size="18.0" fill="#FEFFFF" transform="matrix(1.00, 0.00, -0.00, -1.00, 147.9, 743.0)">A</text><text xml:space="preserve" font-family="Avenir-Light" font-size="18.0" fill="#FEFFFF" transform="matrix(1.00, 0.00, -0.00, -1.00, 163.1, 743.0)">B</text><text xml:space="preserve" font-family="Avenir-Light" font-size="18.0" fill="#FEFFFF" transform="matrix(1.00, 0.00, -0.00, -1.00, 177.3, 743.0)">O</text><text xml:space="preserve" font-family="Avenir-Light" font-size="18.0" fill="#FEFFFF" transform="matrix(1.00, 0.00, -0.00, -1.00, 195.2, 743.0)">V</text><text xml:space="preserve" font-family="Avenir-Light" font-size="18.0" fill="#FEFFFF" transform="matrix(1.00, 0.00, -0.00, -1.00, 208.7, 743.0)">E</text><text xml:space="preserve" font-family="Avenir-Light" font-size="18.0" fill="#FEFFFF" transform="matrix(1.00, 0.00, -0.00, -1.00, 222.3, 743.0)"> </text><text xml:space="preserve" font-family="Avenir-Light" font-size="18.0" fill="#FEFFFF" transform="matrix(1.00, 0.00, -0.00, -1.00, 229.8, 743.0)">T</text><text xml:space="preserve" font-family="Avenir-Light" font-size="18.0" fill="#FEFFFF" transform="matrix(1.00, 0.00, -0.00, -1.00, 241.8, 743.0)">A</text><text xml:space="preserve" font-family="Avenir-Light" font-size="18.0" fill="#FEFFFF" transform="matrix(1.00, 0.00, -0.00, -1.00, 257.0, 743.0)">G</text><text xml:space="preserve" font-family="Avenir-Light" font-size="18.0" fill="#FEFFFF" transform="matrix(1.00, 0.00, -0.00, -1.00, 273.9, 743.0)">I</text><text xml:space="preserve" font-family="Avenir-Light" font-size="18.0" fill="#FEFFFF" transform="matrix(1.00, 0.00, -0.00, -1.00, 281.5, 743.0)">S</text><text xml:space="preserve" font-family="Avenir-Light" font-size="18.0" fill="#FEFFFF" transform="matrix(1.00, 0.00, -0.00, -1.00, 294.4, 743.0)">H</text><text xml:space="preserve" font-family="Avenir-Light" font-size="18.0" fill="#FEFFFF" transform="matrix(1.00, 0.00, -0.00, -1.00, 310.3, 743.0)"> </text><text xml:space="preserve" font-family="Avenir-Light" font-size="18.0" fill="#FEFFFF" transform="matrix(1.00, 0.00, -0.00, -1.00, 317.8, 743.0)">L</text><text xml:space="preserve" font-family="Avenir-Light" font-size="18.0" fill="#FEFFFF" transform="matrix(1.00, 0.00, -0.00, -1.00, 329.7, 743.0)">A</text><text xml:space="preserve" font-family="Avenir-Light" font-size="18.0" fill="#FEFFFF" transform="matrix(1.00, 0.00, -0.00, -1.00, 344.9, 743.0)">K</text><text xml:space="preserve" font-family="Avenir-Light" font-size="18.0" fill="#FEFFFF" transform="matrix(1.00, 0.00, -0.00, -1.00, 358.8, 743.0)">E</text><text xml:space="preserve" font-family="Avenir-Light" font-size="18.0" fill="#FEFFFF" transform="matrix(1.00, 0.00, -0.00, -1.00, 372.3, 743.0)"> </text><text xml:space="preserve" font-family="Avenir-Light" font-size="18.0" fill="#FEFFFF" transform="matrix(1.00, 0.00, -0.00, -1.00, 379.9, 743.0)">Y</text><text xml:space="preserve" font-family="Avenir-Light" font-size="18.0" fill="#FEFFFF" transform="matrix(1.00, 0.00, -0.00, -1.00, 393.1, 743.0)">T</text><text xml:space="preserve" font-family="Avenir-Light" font-size="18.0" fill="#FEFFFF" transform="matrix(1.00, 0.00, -0.00, -1.00, 404.3, 743.0)">,</text><text xml:space="preserve" font-family="Avenir-Light" font-size="18.0" fill="#FEFFFF" transform="matrix(1.00, 0.00, -0.00, -1.00, 411.9, 743.0)"> </text><text xml:space="preserve" font-family="Avenir-Light" font-size="18.0" fill="#FEFFFF" transform="matrix(1.00, 0.00, -0.00, -1.00, 419.4, 743.0)">S</text><text xml:space="preserve" font-family="Avenir-Light" font-size="18.0" fill="#FEFFFF" transform="matrix(1.00, 0.00, -0.00, -1.00, 432.3, 743.0)">O</text><text xml:space="preserve" font-family="Avenir-Light" font-size="18.0" fill="#FEFFFF" transform="matrix(1.00, 0.00, -0.00, -1.00, 450.2, 743.0)">U</text><text xml:space="preserve" font-family="Avenir-Light" font-size="18.0" fill="#FEFFFF" transform="matrix(1.00, 0.00, -0.00, -1.00, 465.4, 743.0)">T</text><text xml:space="preserve" font-family="Avenir-Light" font-size="18.0" fill="#FEFFFF" transform="matrix(1.00, 0.00, -0.00, -1.00, 478.6, 743.0)">H</text><text xml:space="preserve" font-family="Avenir-Light" font-size="18.0" fill="#FEFFFF" transform="matrix(1.00, 0.00, -0.00, -1.00, 494.5, 743.0)"> </text><text xml:space="preserve" font-family="Avenir-Light" font-size="18.0" fill="#FEFFFF" transform="matrix(1.00, 0.00, -0.00, -1.00, 502.1, 743.0)">V</text><text xml:space="preserve" font-family="Avenir-Light" font-size="18.0" fill="#FEFFFF" transform="matrix(1.00, 0.00, -0.00, -1.00, 515.6, 743.0)">I</text><text xml:space="preserve" font-family="Avenir-Light" font-size="18.0" fill="#FEFFFF" transform="matrix(1.00, 0.00, -0.00, -1.00, 523.2, 743.0)">E</text><text xml:space="preserve" font-family="Avenir-Light" font-size="18.0" fill="#FEFFFF" transform="matrix(1.00, 0.00, -0.00, -1.00, 536.7, 743.0)">W</text><text xml:space="preserve" font-family="Avenir-Light" font-size="18.0" fill="#FEFFFF" transform="matrix(1.00, 0.00, -0.00, -1.00, 556.6, 743.0)"> </text><text xml:space="preserve" font-family="Avenir-Light" font-size="18.0" fill="#FEFFFF" transform="matrix(1.00, 0.00, -0.00, -1.00, 564.2, 743.0)">T</text><text xml:space="preserve" font-family="Avenir-Light" font-size="18.0" fill="#FEFFFF" transform="matrix(1.00, 0.00, -0.00, -1.00, 577.4, 743.0)">O</text><text xml:space="preserve" font-family="Avenir-Light" font-size="18.0" fill="#FEFFFF" transform="matrix(1.00, 0.00, -0.00, -1.00, 595.3, 743.0)">W</text><text xml:space="preserve" font-family="Avenir-Light" font-size="18.0" fill="#FEFFFF" transform="matrix(1.00, 0.00, -0.00, -1.00, 614.8, 743.0)">A</text><text xml:space="preserve" font-family="Avenir-Light" font-size="18.0" fill="#FEFFFF" transform="matrix(1.00, 0.00, -0.00, -1.00, 630.0, 743.0)">R</text><text xml:space="preserve" font-family="Avenir-Light" font-size="18.0" fill="#FEFFFF" transform="matrix(1.00, 0.00, -0.00, -1.00, 643.6, 743.0)">D</text><text xml:space="preserve" font-family="Avenir-Light" font-size="18.0" fill="#FEFFFF" transform="matrix(1.00, 0.00, -0.00, -1.00, 659.8, 743.0)"> </text><text xml:space="preserve" font-family="Avenir-Light" font-size="18.0" fill="#FEFFFF" transform="matrix(1.00, 0.00, -0.00, -1.00, 667.4, 743.0)">B</text><text xml:space="preserve" font-family="Avenir-Light" font-size="18.0" fill="#FEFFFF" transform="matrix(1.00, 0.00, -0.00, -1.00, 681.6, 743.0)">C</text><text xml:space="preserve" font-family="Avenir-Light" font-size="18.0" fill="#FEFFFF" transform="matrix(1.00, 0.00, -0.00, -1.00, 697.1, 743.0)">,</text><text xml:space="preserve" font-family="Avenir-Light" font-size="18.0" fill="#FEFFFF" transform="matrix(1.00, 0.00, -0.00, -1.00, 704.7, 743.0)"> </text><text xml:space="preserve" font-family="Avenir-Light" font-size="18.0" fill="#FEFFFF" transform="matrix(1.00, 0.00, -0.00, -1.00, 712.2, 743.0)">1</text><text xml:space="preserve" font-family="Avenir-Light" font-size="18.0" fill="#FEFFFF" transform="matrix(1.00, 0.00, -0.00, -1.00, 724.5, 743.0)">6</text><text xml:space="preserve" font-family="Avenir-Light" font-size="18.0" fill="#FEFFFF" transform="matrix(1.00, 0.00, -0.00, -1.00, 736.7, 743.0)"> </text><text xml:space="preserve" font-family="Avenir-Light" font-size="18.0" fill="#FEFFFF" transform="matrix(1.00, 0.00, -0.00, -1.00, 744.3, 743.0)">K</text><text xml:space="preserve" font-family="Avenir-Light" font-size="18.0" fill="#FEFFFF" transform="matrix(1.00, 0.00, -0.00, -1.00, 758.2, 743.0)">M</text><text xml:space="preserve" font-family="Avenir-Light" font-size="18.0" fill="#FEFFFF" transform="matrix(1.00, 0.00, -0.00, -1.00, 777.0, 743.0)"> </text><text xml:space="preserve" font-family="Avenir-Light" font-size="18.0" fill="#FEFFFF" transform="matrix(1.00, 0.00, -0.00, -1.00, 784.6, 743.0)">H</text><text xml:space="preserve" font-family="Avenir-Light" font-size="18.0" fill="#FEFFFF" transform="matrix(1.00, 0.00, -0.00, -1.00, 800.5, 743.0)">I</text><text xml:space="preserve" font-family="Avenir-Light" font-size="18.0" fill="#FEFFFF" transform="matrix(1.00, 0.00, -0.00, -1.00, 808.0, 743.0)">K</text><text xml:space="preserve" font-family="Avenir-Light" font-size="18.0" fill="#FEFFFF" transform="matrix(1.00, 0.00, -0.00, -1.00, 821.9, 743.0)">E</text><text xml:space="preserve" font-family="Avenir-Light" font-size="18.0" fill="#FEFFFF" transform="matrix(1.00, 0.00, -0.00, -1.00, 835.5, 743.0)"> </text><text xml:space="preserve" font-family="Avenir-Light" font-size="18.0" fill="#FEFFFF" transform="matrix(1.00, 0.00, -0.00, -1.00, 843.0, 743.0)">E</text><text xml:space="preserve" font-family="Avenir-Light" font-size="18.0" fill="#FEFFFF" transform="matrix(1.00, 0.00, -0.00, -1.00, 856.6, 743.0)">L</text><text xml:space="preserve" font-family="Avenir-Light" font-size="18.0" fill="#FEFFFF" transform="matrix(1.00, 0.00, -0.00, -1.00, 868.5, 743.0)">E</text><text xml:space="preserve" font-family="Avenir-Light" font-size="18.0" fill="#FEFFFF" transform="matrix(1.00, 0.00, -0.00, -1.00, 882.0, 743.0)">V</text><text xml:space="preserve" font-family="Avenir-Light" font-size="18.0" fill="#FEFFFF" transform="matrix(1.00, 0.00, -0.00, -1.00, 893.3, 743.0)">.</text><text xml:space="preserve" font-family="Avenir-Light" font-size="18.0" fill="#FEFFFF" transform="matrix(1.00, 0.00, -0.00, -1.00, 900.8, 743.0)"> </text><text xml:space="preserve" font-family="Avenir-Light" font-size="18.0" fill="#FEFFFF" transform="matrix(1.00, 0.00, -0.00, -1.00, 908.4, 743.0)">1</text><text xml:space="preserve" font-family="Avenir-Light" font-size="18.0" fill="#FEFFFF" transform="matrix(1.00, 0.00, -0.00, -1.00, 920.6, 743.0)"> </text><text xml:space="preserve" font-family="Avenir-Light" font-size="18.0" fill="#FEFFFF" transform="matrix(1.00, 0.00, -0.00, -1.00, 928.2, 743.0)">K</text><text xml:space="preserve" font-family="Avenir-Light" font-size="18.0" fill="#FEFFFF" transform="matrix(1.00, 0.00, -0.00, -1.00, 942.1, 743.0)">M</text></g></svg>