<?xml version="1.0" encoding="UTF-8"?><svg xmlns="http://www.w3.org/2000/svg" xmlns:xlink="http://www.w3.org/1999/xlink" clip-rule="evenodd" stroke-miterlimit="4.00" viewBox="0 0 1024 768"><desc>SVG generated by Keynote</desc><defs></defs><g transform="matrix(1.00, 0.00, -0.00, -1.00, 0.0, 768.0)"><path d="M 0.0 768.0 L 1024.0 768.0 L 1024.0 0.0 L 0.0 0.0 Z M 0.0 768.0 " fill="#000000"></path><g><clipPath id="clip-37"><path d="M 0.0 0.0 L 1024.0 0.0 L 1024.0 768.0 L 0.0 768.0 Z M 0.0 0.0 "></path></clipPath><g clip-path="url(#clip-37)"><image xlink:href="../../C6608B51-BE40-4B93-B49B-49304435650F/assets/206AE2FC6F4CC2EF1C7CC97BF0094634.jpeg" width="1155.00" height="768.00" transform="matrix(1.00, 0.00, -0.00, -1.00, -65.0, 768.0)"></image></g></g><text xml:space="preserve" font-family="Avenir-Light" font-size="20.2" fill="#FEFFFF" transform="matrix(1.00, 0.00, -0.00, -1.00, 69.0, 15.0)">I</text><text xml:space="preserve" font-family="Avenir-Light" font-size="20.2" fill="#FEFFFF" transform="matrix(1.00, 0.00, -0.00, -1.00, 77.5, 15.0)">C</text><text xml:space="preserve" font-family="Avenir-Light" font-size="20.2" fill="#FEFFFF" transform="matrix(1.00, 0.00, -0.00, -1.00, 95.0, 15.0)">E</text><text xml:space="preserve" font-family="Avenir-Light" font-size="20.2" fill="#FEFFFF" transform="matrix(1.00, 0.00, -0.00, -1.00, 110.2, 15.0)">F</text><text xml:space="preserve" font-family="Avenir-Light" font-size="20.2" fill="#FEFFFF" transform="matrix(1.00, 0.00, -0.00, -1.00, 124.7, 15.0)">I</text><text xml:space="preserve" font-family="Avenir-Light" font-size="20.2" fill="#FEFFFF" transform="matrix(1.00, 0.00, -0.00, -1.00, 133.3, 15.0)">E</text><text xml:space="preserve" font-family="Avenir-Light" font-size="20.2" fill="#FEFFFF" transform="matrix(1.00, 0.00, -0.00, -1.00, 148.5, 15.0)">L</text><text xml:space="preserve" font-family="Avenir-Light" font-size="20.2" fill="#FEFFFF" transform="matrix(1.00, 0.00, -0.00, -1.00, 161.9, 15.0)">D</text><text xml:space="preserve" font-family="Avenir-Light" font-size="20.2" fill="#FEFFFF" transform="matrix(1.00, 0.00, -0.00, -1.00, 180.1, 15.0)">S</text><text xml:space="preserve" font-family="Avenir-Light" font-size="20.2" fill="#FEFFFF" transform="matrix(1.00, 0.00, -0.00, -1.00, 194.6, 15.0)"> </text><text xml:space="preserve" font-family="Avenir-Light" font-size="20.2" fill="#FEFFFF" transform="matrix(1.00, 0.00, -0.00, -1.00, 203.1, 15.0)">R</text><text xml:space="preserve" font-family="Avenir-Light" font-size="20.2" fill="#FEFFFF" transform="matrix(1.00, 0.00, -0.00, -1.00, 218.4, 15.0)">A</text><text xml:space="preserve" font-family="Avenir-Light" font-size="20.2" fill="#FEFFFF" transform="matrix(1.00, 0.00, -0.00, -1.00, 235.5, 15.0)">N</text><text xml:space="preserve" font-family="Avenir-Light" font-size="20.2" fill="#FEFFFF" transform="matrix(1.00, 0.00, -0.00, -1.00, 254.5, 15.0)">G</text><text xml:space="preserve" font-family="Avenir-Light" font-size="20.2" fill="#FEFFFF" transform="matrix(1.00, 0.00, -0.00, -1.00, 273.5, 15.0)">E</text><text xml:space="preserve" font-family="Avenir-Light" font-size="20.2" fill="#FEFFFF" transform="matrix(1.00, 0.00, -0.00, -1.00, 288.7, 15.0)">S</text><text xml:space="preserve" font-family="Avenir-Light" font-size="20.2" fill="#FEFFFF" transform="matrix(1.00, 0.00, -0.00, -1.00, 303.2, 15.0)">,</text><text xml:space="preserve" font-family="Avenir-Light" font-size="20.2" fill="#FEFFFF" transform="matrix(1.00, 0.00, -0.00, -1.00, 311.7, 15.0)"> </text><text xml:space="preserve" font-family="Avenir-Light" font-size="20.2" fill="#FEFFFF" transform="matrix(1.00, 0.00, -0.00, -1.00, 320.2, 15.0)">A</text><text xml:space="preserve" font-family="Avenir-Light" font-size="20.2" fill="#FEFFFF" transform="matrix(1.00, 0.00, -0.00, -1.00, 337.3, 15.0)">L</text><text xml:space="preserve" font-family="Avenir-Light" font-size="20.2" fill="#FEFFFF" transform="matrix(1.00, 0.00, -0.00, -1.00, 350.7, 15.0)">A</text><text xml:space="preserve" font-family="Avenir-Light" font-size="20.2" fill="#FEFFFF" transform="matrix(1.00, 0.00, -0.00, -1.00, 367.8, 15.0)">S</text><text xml:space="preserve" font-family="Avenir-Light" font-size="20.2" fill="#FEFFFF" transform="matrix(1.00, 0.00, -0.00, -1.00, 382.3, 15.0)">K</text><text xml:space="preserve" font-family="Avenir-Light" font-size="20.2" fill="#FEFFFF" transform="matrix(1.00, 0.00, -0.00, -1.00, 397.9, 15.0)">A</text><text xml:space="preserve" font-family="Avenir-Light" font-size="20.2" fill="#FEFFFF" transform="matrix(1.00, 0.00, -0.00, -1.00, 415.0, 15.0)"> </text><text xml:space="preserve" font-family="Avenir-Light" font-size="20.2" fill="#FEFFFF" transform="matrix(1.00, 0.00, -0.00, -1.00, 423.5, 15.0)">H</text><text xml:space="preserve" font-family="Avenir-Light" font-size="20.2" fill="#FEFFFF" transform="matrix(1.00, 0.00, -0.00, -1.00, 441.4, 15.0)">I</text><text xml:space="preserve" font-family="Avenir-Light" font-size="20.2" fill="#FEFFFF" transform="matrix(1.00, 0.00, -0.00, -1.00, 449.9, 15.0)">G</text><text xml:space="preserve" font-family="Avenir-Light" font-size="20.2" fill="#FEFFFF" transform="matrix(1.00, 0.00, -0.00, -1.00, 468.9, 15.0)">H</text><text xml:space="preserve" font-family="Avenir-Light" font-size="20.2" fill="#FEFFFF" transform="matrix(1.00, 0.00, -0.00, -1.00, 486.8, 15.0)">W</text><text xml:space="preserve" font-family="Avenir-Light" font-size="20.2" fill="#FEFFFF" transform="matrix(1.00, 0.00, -0.00, -1.00, 508.7, 15.0)">A</text><text xml:space="preserve" font-family="Avenir-Light" font-size="20.2" fill="#FEFFFF" transform="matrix(1.00, 0.00, -0.00, -1.00, 524.4, 15.0)">Y</text><text xml:space="preserve" font-family="Avenir-Light" font-size="20.2" fill="#FEFFFF" transform="matrix(1.00, 0.00, -0.00, -1.00, 539.2, 15.0)"> </text><text xml:space="preserve" font-family="Avenir-Light" font-size="20.2" fill="#FEFFFF" transform="matrix(1.00, 0.00, -0.00, -1.00, 547.7, 15.0)">T</text><text xml:space="preserve" font-family="Avenir-Light" font-size="20.2" fill="#FEFFFF" transform="matrix(1.00, 0.00, -0.00, -1.00, 562.6, 15.0)">O</text><text xml:space="preserve" font-family="Avenir-Light" font-size="20.2" fill="#FEFFFF" transform="matrix(1.00, 0.00, -0.00, -1.00, 582.7, 15.0)">W</text><text xml:space="preserve" font-family="Avenir-Light" font-size="20.2" fill="#FEFFFF" transform="matrix(1.00, 0.00, -0.00, -1.00, 604.7, 15.0)">A</text><text xml:space="preserve" font-family="Avenir-Light" font-size="20.2" fill="#FEFFFF" transform="matrix(1.00, 0.00, -0.00, -1.00, 621.8, 15.0)">R</text><text xml:space="preserve" font-family="Avenir-Light" font-size="20.2" fill="#FEFFFF" transform="matrix(1.00, 0.00, -0.00, -1.00, 637.1, 15.0)">D</text><text xml:space="preserve" font-family="Avenir-Light" font-size="20.2" fill="#FEFFFF" transform="matrix(1.00, 0.00, -0.00, -1.00, 655.3, 15.0)">S</text><text xml:space="preserve" font-family="Avenir-Light" font-size="20.2" fill="#FEFFFF" transform="matrix(1.00, 0.00, -0.00, -1.00, 669.8, 15.0)"> </text><text xml:space="preserve" font-family="Avenir-Light" font-size="20.2" fill="#FEFFFF" transform="matrix(1.00, 0.00, -0.00, -1.00, 678.3, 15.0)">H</text><text xml:space="preserve" font-family="Avenir-Light" font-size="20.2" fill="#FEFFFF" transform="matrix(1.00, 0.00, -0.00, -1.00, 696.2, 15.0)">A</text><text xml:space="preserve" font-family="Avenir-Light" font-size="20.2" fill="#FEFFFF" transform="matrix(1.00, 0.00, -0.00, -1.00, 713.3, 15.0)">I</text><text xml:space="preserve" font-family="Avenir-Light" font-size="20.2" fill="#FEFFFF" transform="matrix(1.00, 0.00, -0.00, -1.00, 721.8, 15.0)">N</text><text xml:space="preserve" font-family="Avenir-Light" font-size="20.2" fill="#FEFFFF" transform="matrix(1.00, 0.00, -0.00, -1.00, 740.8, 15.0)">E</text><text xml:space="preserve" font-family="Avenir-Light" font-size="20.2" fill="#FEFFFF" transform="matrix(1.00, 0.00, -0.00, -1.00, 756.0, 15.0)">S</text><text xml:space="preserve" font-family="Avenir-Light" font-size="20.2" fill="#FEFFFF" transform="matrix(1.00, 0.00, -0.00, -1.00, 770.5, 15.0)"> </text><text xml:space="preserve" font-family="Avenir-Light" font-size="20.2" fill="#FEFFFF" transform="matrix(1.00, 0.00, -0.00, -1.00, 779.0, 15.0)">J</text><text xml:space="preserve" font-family="Avenir-Light" font-size="20.2" fill="#FEFFFF" transform="matrix(1.00, 0.00, -0.00, -1.00, 792.0, 15.0)">U</text><text xml:space="preserve" font-family="Avenir-Light" font-size="20.2" fill="#FEFFFF" transform="matrix(1.00, 0.00, -0.00, -1.00, 809.1, 15.0)">N</text><text xml:space="preserve" font-family="Avenir-Light" font-size="20.2" fill="#FEFFFF" transform="matrix(1.00, 0.00, -0.00, -1.00, 828.1, 15.0)">C</text><text xml:space="preserve" font-family="Avenir-Light" font-size="20.2" fill="#FEFFFF" transform="matrix(1.00, 0.00, -0.00, -1.00, 845.6, 15.0)">T</text><text xml:space="preserve" font-family="Avenir-Light" font-size="20.2" fill="#FEFFFF" transform="matrix(1.00, 0.00, -0.00, -1.00, 860.5, 15.0)">I</text><text xml:space="preserve" font-family="Avenir-Light" font-size="20.2" fill="#FEFFFF" transform="matrix(1.00, 0.00, -0.00, -1.00, 869.0, 15.0)">O</text><text xml:space="preserve" font-family="Avenir-Light" font-size="20.2" fill="#FEFFFF" transform="matrix(1.00, 0.00, -0.00, -1.00, 889.1, 15.0)">N</text><text xml:space="preserve" font-family="Avenir-Light" font-size="20.2" fill="#FEFFFF" transform="matrix(1.00, 0.00, -0.00, -1.00, 908.1, 15.0)">,</text><text xml:space="preserve" font-family="Avenir-Light" font-size="20.2" fill="#FEFFFF" transform="matrix(1.00, 0.00, -0.00, -1.00, 916.6, 15.0)"> </text><text xml:space="preserve" font-family="Avenir-Light" font-size="20.2" fill="#FEFFFF" transform="matrix(1.00, 0.00, -0.00, -1.00, 925.1, 15.0)">Y</text><text xml:space="preserve" font-family="Avenir-Light" font-size="20.2" fill="#FEFFFF" transform="matrix(1.00, 0.00, -0.00, -1.00, 940.0, 15.0)">T</text></g></svg>