<?xml version="1.0" encoding="UTF-8"?><svg xmlns="http://www.w3.org/2000/svg" xmlns:xlink="http://www.w3.org/1999/xlink" clip-rule="evenodd" stroke-miterlimit="4.00" viewBox="0 0 1024 768"><desc>SVG generated by Keynote</desc><defs></defs><g transform="matrix(1.00, 0.00, -0.00, -1.00, 0.0, 768.0)"><path d="M 0.0 768.0 L 1024.0 768.0 L 1024.0 0.0 L 0.0 0.0 Z M 0.0 768.0 " fill="#000000"></path><g><clipPath id="clip-126"><path d="M 0.0 0.0 L 1024.0 0.0 L 1024.0 768.0 L 0.0 768.0 Z M 0.0 0.0 "></path></clipPath><g clip-path="url(#clip-126)"><image xlink:href="A58F263F83A9B66615322C48E443CEA5.jpeg" width="1156.00" height="769.00" transform="matrix(1.00, 0.00, -0.00, -1.00, -66.0, 768.0)"></image></g></g><text xml:space="preserve" font-family="Avenir-Light" font-size="20.7" fill="#FEFFFF" transform="matrix(1.00, 0.00, -0.00, -1.00, 148.0, 13.0)">I</text><text xml:space="preserve" font-family="Avenir-Light" font-size="20.7" fill="#FEFFFF" transform="matrix(1.00, 0.00, -0.00, -1.00, 156.7, 13.0)">C</text><text xml:space="preserve" font-family="Avenir-Light" font-size="20.7" fill="#FEFFFF" transform="matrix(1.00, 0.00, -0.00, -1.00, 174.6, 13.0)">E</text><text xml:space="preserve" font-family="Avenir-Light" font-size="20.7" fill="#FEFFFF" transform="matrix(1.00, 0.00, -0.00, -1.00, 190.2, 13.0)">F</text><text xml:space="preserve" font-family="Avenir-Light" font-size="20.7" fill="#FEFFFF" transform="matrix(1.00, 0.00, -0.00, -1.00, 205.0, 13.0)">I</text><text xml:space="preserve" font-family="Avenir-Light" font-size="20.7" fill="#FEFFFF" transform="matrix(1.00, 0.00, -0.00, -1.00, 213.7, 13.0)">E</text><text xml:space="preserve" font-family="Avenir-Light" font-size="20.7" fill="#FEFFFF" transform="matrix(1.00, 0.00, -0.00, -1.00, 229.3, 13.0)">L</text><text xml:space="preserve" font-family="Avenir-Light" font-size="20.7" fill="#FEFFFF" transform="matrix(1.00, 0.00, -0.00, -1.00, 242.9, 13.0)">D</text><text xml:space="preserve" font-family="Avenir-Light" font-size="20.7" fill="#FEFFFF" transform="matrix(1.00, 0.00, -0.00, -1.00, 261.6, 13.0)">S</text><text xml:space="preserve" font-family="Avenir-Light" font-size="20.7" fill="#FEFFFF" transform="matrix(1.00, 0.00, -0.00, -1.00, 276.4, 13.0)"> </text><text xml:space="preserve" font-family="Avenir-Light" font-size="20.7" fill="#FEFFFF" transform="matrix(1.00, 0.00, -0.00, -1.00, 285.1, 13.0)">R</text><text xml:space="preserve" font-family="Avenir-Light" font-size="20.7" fill="#FEFFFF" transform="matrix(1.00, 0.00, -0.00, -1.00, 300.7, 13.0)">A</text><text xml:space="preserve" font-family="Avenir-Light" font-size="20.7" fill="#FEFFFF" transform="matrix(1.00, 0.00, -0.00, -1.00, 318.2, 13.0)">N</text><text xml:space="preserve" font-family="Avenir-Light" font-size="20.7" fill="#FEFFFF" transform="matrix(1.00, 0.00, -0.00, -1.00, 337.6, 13.0)">G</text><text xml:space="preserve" font-family="Avenir-Light" font-size="20.7" fill="#FEFFFF" transform="matrix(1.00, 0.00, -0.00, -1.00, 357.0, 13.0)">E</text><text xml:space="preserve" font-family="Avenir-Light" font-size="20.7" fill="#FEFFFF" transform="matrix(1.00, 0.00, -0.00, -1.00, 372.6, 13.0)">S</text><text xml:space="preserve" font-family="Avenir-Light" font-size="20.7" fill="#FEFFFF" transform="matrix(1.00, 0.00, -0.00, -1.00, 387.4, 13.0)"> </text><text xml:space="preserve" font-family="Avenir-Light" font-size="20.7" fill="#FEFFFF" transform="matrix(1.00, 0.00, -0.00, -1.00, 396.1, 13.0)">A</text><text xml:space="preserve" font-family="Avenir-Light" font-size="20.7" fill="#FEFFFF" transform="matrix(1.00, 0.00, -0.00, -1.00, 413.6, 13.0)">S</text><text xml:space="preserve" font-family="Avenir-Light" font-size="20.7" fill="#FEFFFF" transform="matrix(1.00, 0.00, -0.00, -1.00, 428.4, 13.0)"> </text><text xml:space="preserve" font-family="Avenir-Light" font-size="20.7" fill="#FEFFFF" transform="matrix(1.00, 0.00, -0.00, -1.00, 437.1, 13.0)">S</text><text xml:space="preserve" font-family="Avenir-Light" font-size="20.7" fill="#FEFFFF" transform="matrix(1.00, 0.00, -0.00, -1.00, 451.9, 13.0)">E</text><text xml:space="preserve" font-family="Avenir-Light" font-size="20.7" fill="#FEFFFF" transform="matrix(1.00, 0.00, -0.00, -1.00, 467.5, 13.0)">E</text><text xml:space="preserve" font-family="Avenir-Light" font-size="20.7" fill="#FEFFFF" transform="matrix(1.00, 0.00, -0.00, -1.00, 483.1, 13.0)">N</text><text xml:space="preserve" font-family="Avenir-Light" font-size="20.7" fill="#FEFFFF" transform="matrix(1.00, 0.00, -0.00, -1.00, 502.5, 13.0)"> </text><text xml:space="preserve" font-family="Avenir-Light" font-size="20.7" fill="#FEFFFF" transform="matrix(1.00, 0.00, -0.00, -1.00, 511.2, 13.0)">F</text><text xml:space="preserve" font-family="Avenir-Light" font-size="20.7" fill="#FEFFFF" transform="matrix(1.00, 0.00, -0.00, -1.00, 526.0, 13.0)">R</text><text xml:space="preserve" font-family="Avenir-Light" font-size="20.7" fill="#FEFFFF" transform="matrix(1.00, 0.00, -0.00, -1.00, 541.6, 13.0)">O</text><text xml:space="preserve" font-family="Avenir-Light" font-size="20.7" fill="#FEFFFF" transform="matrix(1.00, 0.00, -0.00, -1.00, 562.2, 13.0)">M</text><text xml:space="preserve" font-family="Avenir-Light" font-size="20.7" fill="#FEFFFF" transform="matrix(1.00, 0.00, -0.00, -1.00, 583.9, 13.0)"> </text><text xml:space="preserve" font-family="Avenir-Light" font-size="20.7" fill="#FEFFFF" transform="matrix(1.00, 0.00, -0.00, -1.00, 592.6, 13.0)">T</text><text xml:space="preserve" font-family="Avenir-Light" font-size="20.7" fill="#FEFFFF" transform="matrix(1.00, 0.00, -0.00, -1.00, 607.8, 13.0)">H</text><text xml:space="preserve" font-family="Avenir-Light" font-size="20.7" fill="#FEFFFF" transform="matrix(1.00, 0.00, -0.00, -1.00, 626.1, 13.0)">E</text><text xml:space="preserve" font-family="Avenir-Light" font-size="20.7" fill="#FEFFFF" transform="matrix(1.00, 0.00, -0.00, -1.00, 641.7, 13.0)"> </text><text xml:space="preserve" font-family="Avenir-Light" font-size="20.7" fill="#FEFFFF" transform="matrix(1.00, 0.00, -0.00, -1.00, 650.3, 13.0)">A</text><text xml:space="preserve" font-family="Avenir-Light" font-size="20.7" fill="#FEFFFF" transform="matrix(1.00, 0.00, -0.00, -1.00, 667.8, 13.0)">L</text><text xml:space="preserve" font-family="Avenir-Light" font-size="20.7" fill="#FEFFFF" transform="matrix(1.00, 0.00, -0.00, -1.00, 681.5, 13.0)">A</text><text xml:space="preserve" font-family="Avenir-Light" font-size="20.7" fill="#FEFFFF" transform="matrix(1.00, 0.00, -0.00, -1.00, 699.0, 13.0)">S</text><text xml:space="preserve" font-family="Avenir-Light" font-size="20.7" fill="#FEFFFF" transform="matrix(1.00, 0.00, -0.00, -1.00, 713.8, 13.0)">K</text><text xml:space="preserve" font-family="Avenir-Light" font-size="20.7" fill="#FEFFFF" transform="matrix(1.00, 0.00, -0.00, -1.00, 729.8, 13.0)">A</text><text xml:space="preserve" font-family="Avenir-Light" font-size="20.7" fill="#FEFFFF" transform="matrix(1.00, 0.00, -0.00, -1.00, 747.3, 13.0)"> </text><text xml:space="preserve" font-family="Avenir-Light" font-size="20.7" fill="#FEFFFF" transform="matrix(1.00, 0.00, -0.00, -1.00, 756.0, 13.0)">H</text><text xml:space="preserve" font-family="Avenir-Light" font-size="20.7" fill="#FEFFFF" transform="matrix(1.00, 0.00, -0.00, -1.00, 774.2, 13.0)">I</text><text xml:space="preserve" font-family="Avenir-Light" font-size="20.7" fill="#FEFFFF" transform="matrix(1.00, 0.00, -0.00, -1.00, 782.9, 13.0)">G</text><text xml:space="preserve" font-family="Avenir-Light" font-size="20.7" fill="#FEFFFF" transform="matrix(1.00, 0.00, -0.00, -1.00, 802.3, 13.0)">H</text><text xml:space="preserve" font-family="Avenir-Light" font-size="20.7" fill="#FEFFFF" transform="matrix(1.00, 0.00, -0.00, -1.00, 820.6, 13.0)">W</text><text xml:space="preserve" font-family="Avenir-Light" font-size="20.7" fill="#FEFFFF" transform="matrix(1.00, 0.00, -0.00, -1.00, 843.1, 13.0)">A</text><text xml:space="preserve" font-family="Avenir-Light" font-size="20.7" fill="#FEFFFF" transform="matrix(1.00, 0.00, -0.00, -1.00, 859.0, 13.0)">Y</text></g></svg>