<?xml version="1.0" encoding="UTF-8"?><svg xmlns="http://www.w3.org/2000/svg" xmlns:xlink="http://www.w3.org/1999/xlink" clip-rule="evenodd" stroke-miterlimit="4.00" viewBox="0 0 1024 768"><desc>SVG generated by Keynote</desc><defs></defs><g transform="matrix(1.00, 0.00, -0.00, -1.00, 0.0, 768.0)"><path d="M 0.0 768.0 L 1024.0 768.0 L 1024.0 0.0 L 0.0 0.0 Z M 0.0 768.0 " fill="#000000"></path><g><clipPath id="clip-215"><path d="M 0.0 734.0 L 1024.0 734.0 L 1024.0 0.0 L 0.0 0.0 Z M 0.0 734.3 "></path></clipPath><g clip-path="url(#clip-215)"><image xlink:href="../../D10DFA24-E08D-4FA3-8DDB-DC1BD3B7730A/assets/C77E4E3C89FFA13A20507814F274089D.jpeg" width="1155.00" height="768.00" transform="matrix(1.00, 0.00, -0.00, -1.00, -65.0, 768.0)"></image></g></g><text xml:space="preserve" font-family="Avenir-Light" font-size="20.7" fill="#FEFFFF" transform="matrix(1.00, 0.00, -0.00, -1.00, 199.0, 742.0)">A</text><text xml:space="preserve" font-family="Avenir-Light" font-size="20.7" fill="#FEFFFF" transform="matrix(1.00, 0.00, -0.00, -1.00, 216.5, 742.0)">L</text><text xml:space="preserve" font-family="Avenir-Light" font-size="20.7" fill="#FEFFFF" transform="matrix(1.00, 0.00, -0.00, -1.00, 230.2, 742.0)">A</text><text xml:space="preserve" font-family="Avenir-Light" font-size="20.7" fill="#FEFFFF" transform="matrix(1.00, 0.00, -0.00, -1.00, 247.6, 742.0)">S</text><text xml:space="preserve" font-family="Avenir-Light" font-size="20.7" fill="#FEFFFF" transform="matrix(1.00, 0.00, -0.00, -1.00, 262.5, 742.0)">K</text><text xml:space="preserve" font-family="Avenir-Light" font-size="20.7" fill="#FEFFFF" transform="matrix(1.00, 0.00, -0.00, -1.00, 278.4, 742.0)">A</text><text xml:space="preserve" font-family="Avenir-Light" font-size="20.7" fill="#FEFFFF" transform="matrix(1.00, 0.00, -0.00, -1.00, 295.9, 742.0)"> </text><text xml:space="preserve" font-family="Avenir-Light" font-size="20.7" fill="#FEFFFF" transform="matrix(1.00, 0.00, -0.00, -1.00, 304.6, 742.0)">H</text><text xml:space="preserve" font-family="Avenir-Light" font-size="20.7" fill="#FEFFFF" transform="matrix(1.00, 0.00, -0.00, -1.00, 322.9, 742.0)">I</text><text xml:space="preserve" font-family="Avenir-Light" font-size="20.7" fill="#FEFFFF" transform="matrix(1.00, 0.00, -0.00, -1.00, 331.6, 742.0)">G</text><text xml:space="preserve" font-family="Avenir-Light" font-size="20.7" fill="#FEFFFF" transform="matrix(1.00, 0.00, -0.00, -1.00, 351.0, 742.0)">H</text><text xml:space="preserve" font-family="Avenir-Light" font-size="20.7" fill="#FEFFFF" transform="matrix(1.00, 0.00, -0.00, -1.00, 369.2, 742.0)">W</text><text xml:space="preserve" font-family="Avenir-Light" font-size="20.7" fill="#FEFFFF" transform="matrix(1.00, 0.00, -0.00, -1.00, 391.7, 742.0)">A</text><text xml:space="preserve" font-family="Avenir-Light" font-size="20.7" fill="#FEFFFF" transform="matrix(1.00, 0.00, -0.00, -1.00, 407.7, 742.0)">Y</text><text xml:space="preserve" font-family="Avenir-Light" font-size="20.7" fill="#FEFFFF" transform="matrix(1.00, 0.00, -0.00, -1.00, 422.9, 742.0)"> </text><text xml:space="preserve" font-family="Avenir-Light" font-size="20.7" fill="#FEFFFF" transform="matrix(1.00, 0.00, -0.00, -1.00, 431.6, 742.0)">T</text><text xml:space="preserve" font-family="Avenir-Light" font-size="20.7" fill="#FEFFFF" transform="matrix(1.00, 0.00, -0.00, -1.00, 446.8, 742.0)">O</text><text xml:space="preserve" font-family="Avenir-Light" font-size="20.7" fill="#FEFFFF" transform="matrix(1.00, 0.00, -0.00, -1.00, 467.3, 742.0)">W</text><text xml:space="preserve" font-family="Avenir-Light" font-size="20.7" fill="#FEFFFF" transform="matrix(1.00, 0.00, -0.00, -1.00, 489.8, 742.0)">A</text><text xml:space="preserve" font-family="Avenir-Light" font-size="20.7" fill="#FEFFFF" transform="matrix(1.00, 0.00, -0.00, -1.00, 507.3, 742.0)">R</text><text xml:space="preserve" font-family="Avenir-Light" font-size="20.7" fill="#FEFFFF" transform="matrix(1.00, 0.00, -0.00, -1.00, 522.9, 742.0)">D</text><text xml:space="preserve" font-family="Avenir-Light" font-size="20.7" fill="#FEFFFF" transform="matrix(1.00, 0.00, -0.00, -1.00, 541.5, 742.0)"> </text><text xml:space="preserve" font-family="Avenir-Light" font-size="20.7" fill="#FEFFFF" transform="matrix(1.00, 0.00, -0.00, -1.00, 550.2, 742.0)">H</text><text xml:space="preserve" font-family="Avenir-Light" font-size="20.7" fill="#FEFFFF" transform="matrix(1.00, 0.00, -0.00, -1.00, 568.5, 742.0)">A</text><text xml:space="preserve" font-family="Avenir-Light" font-size="20.7" fill="#FEFFFF" transform="matrix(1.00, 0.00, -0.00, -1.00, 586.0, 742.0)">I</text><text xml:space="preserve" font-family="Avenir-Light" font-size="20.7" fill="#FEFFFF" transform="matrix(1.00, 0.00, -0.00, -1.00, 594.7, 742.0)">N</text><text xml:space="preserve" font-family="Avenir-Light" font-size="20.7" fill="#FEFFFF" transform="matrix(1.00, 0.00, -0.00, -1.00, 614.1, 742.0)">E</text><text xml:space="preserve" font-family="Avenir-Light" font-size="20.7" fill="#FEFFFF" transform="matrix(1.00, 0.00, -0.00, -1.00, 629.7, 742.0)">S</text><text xml:space="preserve" font-family="Avenir-Light" font-size="20.7" fill="#FEFFFF" transform="matrix(1.00, 0.00, -0.00, -1.00, 644.5, 742.0)"> </text><text xml:space="preserve" font-family="Avenir-Light" font-size="20.7" fill="#FEFFFF" transform="matrix(1.00, 0.00, -0.00, -1.00, 653.2, 742.0)">J</text><text xml:space="preserve" font-family="Avenir-Light" font-size="20.7" fill="#FEFFFF" transform="matrix(1.00, 0.00, -0.00, -1.00, 666.5, 742.0)">U</text><text xml:space="preserve" font-family="Avenir-Light" font-size="20.7" fill="#FEFFFF" transform="matrix(1.00, 0.00, -0.00, -1.00, 684.0, 742.0)">N</text><text xml:space="preserve" font-family="Avenir-Light" font-size="20.7" fill="#FEFFFF" transform="matrix(1.00, 0.00, -0.00, -1.00, 703.4, 742.0)">C</text><text xml:space="preserve" font-family="Avenir-Light" font-size="20.7" fill="#FEFFFF" transform="matrix(1.00, 0.00, -0.00, -1.00, 721.3, 742.0)">T</text><text xml:space="preserve" font-family="Avenir-Light" font-size="20.7" fill="#FEFFFF" transform="matrix(1.00, 0.00, -0.00, -1.00, 736.5, 742.0)">I</text><text xml:space="preserve" font-family="Avenir-Light" font-size="20.7" fill="#FEFFFF" transform="matrix(1.00, 0.00, -0.00, -1.00, 745.1, 742.0)">O</text><text xml:space="preserve" font-family="Avenir-Light" font-size="20.7" fill="#FEFFFF" transform="matrix(1.00, 0.00, -0.00, -1.00, 765.7, 742.0)">N</text><text xml:space="preserve" font-family="Avenir-Light" font-size="20.7" fill="#FEFFFF" transform="matrix(1.00, 0.00, -0.00, -1.00, 785.1, 742.0)"> </text><text xml:space="preserve" font-family="Avenir-Light" font-size="20.7" fill="#FEFFFF" transform="matrix(1.00, 0.00, -0.00, -1.00, 793.8, 742.0)">Y</text><text xml:space="preserve" font-family="Avenir-Light" font-size="20.7" fill="#FEFFFF" transform="matrix(1.00, 0.00, -0.00, -1.00, 809.0, 742.0)">T</text></g></svg>