<?xml version="1.0" encoding="UTF-8"?><svg xmlns="http://www.w3.org/2000/svg" xmlns:xlink="http://www.w3.org/1999/xlink" clip-rule="evenodd" stroke-miterlimit="4.00" viewBox="0 0 1024 768"><desc>SVG generated by Keynote</desc><defs></defs><g transform="matrix(1.00, 0.00, -0.00, -1.00, 0.0, 768.0)"><path d="M 0.0 768.0 L 1024.0 768.0 L 1024.0 0.0 L 0.0 0.0 Z M 0.0 768.0 " fill="#000000"></path><g><clipPath id="clip-71"><path d="M 0.0 767.0 L 1024.0 767.0 L 1024.0 36.0 L 0.0 36.0 Z M 0.0 767.3 "></path></clipPath><g clip-path="url(#clip-71)"><image xlink:href="../../890131C7-9D54-4BCB-A84B-C9B95EBC3215/assets/5370AA60DF0868224F4E23343EC33E0D.jpeg" width="1156.00" height="769.00" transform="matrix(1.00, 0.00, -0.00, -1.00, -66.0, 789.0)"></image></g></g><text xml:space="preserve" font-family="Avenir-Light" font-size="21.6" fill="#FEFFFF" transform="matrix(1.00, 0.00, -0.00, -1.00, 156.0, 11.0)">B</text><text xml:space="preserve" font-family="Avenir-Light" font-size="21.6" fill="#FEFFFF" transform="matrix(1.00, 0.00, -0.00, -1.00, 173.1, 11.0)">E</text><text xml:space="preserve" font-family="Avenir-Light" font-size="21.6" fill="#FEFFFF" transform="matrix(1.00, 0.00, -0.00, -1.00, 189.3, 11.0)">A</text><text xml:space="preserve" font-family="Avenir-Light" font-size="21.6" fill="#FEFFFF" transform="matrix(1.00, 0.00, -0.00, -1.00, 207.6, 11.0)">R</text><text xml:space="preserve" font-family="Avenir-Light" font-size="21.6" fill="#FEFFFF" transform="matrix(1.00, 0.00, -0.00, -1.00, 223.8, 11.0)"> </text><text xml:space="preserve" font-family="Avenir-Light" font-size="21.6" fill="#FEFFFF" transform="matrix(1.00, 0.00, -0.00, -1.00, 232.9, 11.0)">G</text><text xml:space="preserve" font-family="Avenir-Light" font-size="21.6" fill="#FEFFFF" transform="matrix(1.00, 0.00, -0.00, -1.00, 253.2, 11.0)">L</text><text xml:space="preserve" font-family="Avenir-Light" font-size="21.6" fill="#FEFFFF" transform="matrix(1.00, 0.00, -0.00, -1.00, 267.4, 11.0)">A</text><text xml:space="preserve" font-family="Avenir-Light" font-size="21.6" fill="#FEFFFF" transform="matrix(1.00, 0.00, -0.00, -1.00, 285.7, 11.0)">C</text><text xml:space="preserve" font-family="Avenir-Light" font-size="21.6" fill="#FEFFFF" transform="matrix(1.00, 0.00, -0.00, -1.00, 304.3, 11.0)">I</text><text xml:space="preserve" font-family="Avenir-Light" font-size="21.6" fill="#FEFFFF" transform="matrix(1.00, 0.00, -0.00, -1.00, 313.4, 11.0)">E</text><text xml:space="preserve" font-family="Avenir-Light" font-size="21.6" fill="#FEFFFF" transform="matrix(1.00, 0.00, -0.00, -1.00, 329.7, 11.0)">R</text><text xml:space="preserve" font-family="Avenir-Light" font-size="21.6" fill="#FEFFFF" transform="matrix(1.00, 0.00, -0.00, -1.00, 346.0, 11.0)">,</text><text xml:space="preserve" font-family="Avenir-Light" font-size="21.6" fill="#FEFFFF" transform="matrix(1.00, 0.00, -0.00, -1.00, 355.0, 11.0)"> </text><text xml:space="preserve" font-family="Avenir-Light" font-size="21.6" fill="#FEFFFF" transform="matrix(1.00, 0.00, -0.00, -1.00, 364.1, 11.0)">H</text><text xml:space="preserve" font-family="Avenir-Light" font-size="21.6" fill="#FEFFFF" transform="matrix(1.00, 0.00, -0.00, -1.00, 383.1, 11.0)">I</text><text xml:space="preserve" font-family="Avenir-Light" font-size="21.6" fill="#FEFFFF" transform="matrix(1.00, 0.00, -0.00, -1.00, 392.2, 11.0)">G</text><text xml:space="preserve" font-family="Avenir-Light" font-size="21.6" fill="#FEFFFF" transform="matrix(1.00, 0.00, -0.00, -1.00, 412.5, 11.0)">H</text><text xml:space="preserve" font-family="Avenir-Light" font-size="21.6" fill="#FEFFFF" transform="matrix(1.00, 0.00, -0.00, -1.00, 431.5, 11.0)">W</text><text xml:space="preserve" font-family="Avenir-Light" font-size="21.6" fill="#FEFFFF" transform="matrix(1.00, 0.00, -0.00, -1.00, 455.0, 11.0)">A</text><text xml:space="preserve" font-family="Avenir-Light" font-size="21.6" fill="#FEFFFF" transform="matrix(1.00, 0.00, -0.00, -1.00, 471.6, 11.0)">Y</text><text xml:space="preserve" font-family="Avenir-Light" font-size="21.6" fill="#FEFFFF" transform="matrix(1.00, 0.00, -0.00, -1.00, 487.5, 11.0)"> </text><text xml:space="preserve" font-family="Avenir-Light" font-size="21.6" fill="#FEFFFF" transform="matrix(1.00, 0.00, -0.00, -1.00, 496.6, 11.0)">3</text><text xml:space="preserve" font-family="Avenir-Light" font-size="21.6" fill="#FEFFFF" transform="matrix(1.00, 0.00, -0.00, -1.00, 511.3, 11.0)">7</text><text xml:space="preserve" font-family="Avenir-Light" font-size="21.6" fill="#FEFFFF" transform="matrix(1.00, 0.00, -0.00, -1.00, 525.9, 11.0)">A</text><text xml:space="preserve" font-family="Avenir-Light" font-size="21.6" fill="#FEFFFF" transform="matrix(1.00, 0.00, -0.00, -1.00, 544.2, 11.0)"> </text><text xml:space="preserve" font-family="Avenir-Light" font-size="21.6" fill="#FEFFFF" transform="matrix(1.00, 0.00, -0.00, -1.00, 553.3, 11.0)">T</text><text xml:space="preserve" font-family="Avenir-Light" font-size="21.6" fill="#FEFFFF" transform="matrix(1.00, 0.00, -0.00, -1.00, 569.1, 11.0)">O</text><text xml:space="preserve" font-family="Avenir-Light" font-size="21.6" fill="#FEFFFF" transform="matrix(1.00, 0.00, -0.00, -1.00, 590.6, 11.0)">W</text><text xml:space="preserve" font-family="Avenir-Light" font-size="21.6" fill="#FEFFFF" transform="matrix(1.00, 0.00, -0.00, -1.00, 614.0, 11.0)">A</text><text xml:space="preserve" font-family="Avenir-Light" font-size="21.6" fill="#FEFFFF" transform="matrix(1.00, 0.00, -0.00, -1.00, 632.3, 11.0)">R</text><text xml:space="preserve" font-family="Avenir-Light" font-size="21.6" fill="#FEFFFF" transform="matrix(1.00, 0.00, -0.00, -1.00, 648.6, 11.0)">D</text><text xml:space="preserve" font-family="Avenir-Light" font-size="21.6" fill="#FEFFFF" transform="matrix(1.00, 0.00, -0.00, -1.00, 668.0, 11.0)">S</text><text xml:space="preserve" font-family="Avenir-Light" font-size="21.6" fill="#FEFFFF" transform="matrix(1.00, 0.00, -0.00, -1.00, 683.5, 11.0)"> </text><text xml:space="preserve" font-family="Avenir-Light" font-size="21.6" fill="#FEFFFF" transform="matrix(1.00, 0.00, -0.00, -1.00, 692.6, 11.0)">S</text><text xml:space="preserve" font-family="Avenir-Light" font-size="21.6" fill="#FEFFFF" transform="matrix(1.00, 0.00, -0.00, -1.00, 708.0, 11.0)">T</text><text xml:space="preserve" font-family="Avenir-Light" font-size="21.6" fill="#FEFFFF" transform="matrix(1.00, 0.00, -0.00, -1.00, 723.9, 11.0)">E</text><text xml:space="preserve" font-family="Avenir-Light" font-size="21.6" fill="#FEFFFF" transform="matrix(1.00, 0.00, -0.00, -1.00, 740.2, 11.0)">W</text><text xml:space="preserve" font-family="Avenir-Light" font-size="21.6" fill="#FEFFFF" transform="matrix(1.00, 0.00, -0.00, -1.00, 763.6, 11.0)">A</text><text xml:space="preserve" font-family="Avenir-Light" font-size="21.6" fill="#FEFFFF" transform="matrix(1.00, 0.00, -0.00, -1.00, 781.9, 11.0)">R</text><text xml:space="preserve" font-family="Avenir-Light" font-size="21.6" fill="#FEFFFF" transform="matrix(1.00, 0.00, -0.00, -1.00, 798.3, 11.0)">T</text><text xml:space="preserve" font-family="Avenir-Light" font-size="21.6" fill="#FEFFFF" transform="matrix(1.00, 0.00, -0.00, -1.00, 811.7, 11.0)">,</text><text xml:space="preserve" font-family="Avenir-Light" font-size="21.6" fill="#FEFFFF" transform="matrix(1.00, 0.00, -0.00, -1.00, 820.8, 11.0)"> </text><text xml:space="preserve" font-family="Avenir-Light" font-size="21.6" fill="#FEFFFF" transform="matrix(1.00, 0.00, -0.00, -1.00, 829.9, 11.0)">B</text><text xml:space="preserve" font-family="Avenir-Light" font-size="21.6" fill="#FEFFFF" transform="matrix(1.00, 0.00, -0.00, -1.00, 846.9, 11.0)">C</text></g></svg>