<?xml version="1.0" encoding="UTF-8"?><svg xmlns="http://www.w3.org/2000/svg" xmlns:xlink="http://www.w3.org/1999/xlink" clip-rule="evenodd" stroke-miterlimit="4.00" viewBox="0 0 1024 768"><desc>SVG generated by Keynote</desc><defs></defs><g transform="matrix(1.00, 0.00, -0.00, -1.00, 0.0, 768.0)"><path d="M 0.0 768.0 L 1024.0 768.0 L 1024.0 0.0 L 0.0 0.0 Z M 0.0 768.0 " fill="#000000"></path><g><clipPath id="clip-435"><path d="M 0.0 0.0 L 512.0 0.0 L 512.0 384.0 L 0.0 384.0 Z M 0.0 0.0 "></path></clipPath><g clip-path="url(#clip-435)"><image xlink:href="../../751E28D6-EA5B-4AAA-B089-8ABD1624C671/assets/FCB50F2C102EB4466349A261A946982B.jpeg" width="578.00" height="384.00" transform="matrix(1.00, 0.00, -0.00, -1.00, -33.0, 384.0)"></image></g></g><path d="M 0.0 0.0 L 0.0 384.0 L 512.0 384.0 L 512.0 0.0 L 0.0 0.0 Z M 0.0 0.0 " fill="none" stroke="#000000" stroke-width="3.00" transform="matrix(1.00, 0.00, 0.00, -1.00, 0.0, 384.0)"></path><g><clipPath id="clip-436"><path d="M 0.0 384.0 L 512.0 384.0 L 512.0 768.0 L 0.0 768.0 Z M 0.0 384.0 "></path></clipPath><g clip-path="url(#clip-436)"><image xlink:href="../../751E28D6-EA5B-4AAA-B089-8ABD1624C671/assets/F9073EED1758FA4581AE898D0F55F234.jpeg" width="1074.00" height="714.00" transform="matrix(1.00, 0.00, -0.00, -1.00, -281.0, 933.0)"></image></g></g><path d="M 0.0 0.0 L 0.0 384.0 L 512.0 384.0 L 512.0 0.0 L 0.0 0.0 Z M 0.0 0.0 " fill="none" stroke="#000000" stroke-width="3.00" transform="matrix(1.00, 0.00, 0.00, -1.00, 0.0, 768.0)"></path><g><clipPath id="clip-437"><path d="M 512.0 0.0 L 1024.0 0.0 L 1024.0 768.0 L 512.0 768.0 Z M 512.0 0.0 "></path></clipPath><g clip-path="url(#clip-437)"><image xlink:href="../../751E28D6-EA5B-4AAA-B089-8ABD1624C671/assets/210D266CDC1F06C3A9137C6F4017DBBB.jpeg" width="1156.00" height="769.00" transform="matrix(1.00, 0.00, -0.00, -1.00, 190.0, 768.0)"></image></g></g><path d="M 0.0 0.0 L 0.0 768.0 L 512.0 768.0 L 512.0 0.0 L 0.0 0.0 Z M 0.0 0.0 " fill="none" stroke="#000000" stroke-width="3.00" transform="matrix(1.00, 0.00, 0.00, -1.00, 512.0, 768.0)"></path><text xml:space="preserve" font-family="Avenir-Book" font-size="18.7" fill="#FEFFFE" transform="matrix(1.00, 0.00, -0.00, -1.00, 50.0, 17.0)">D</text><text xml:space="preserve" font-family="Avenir-Book" font-size="18.7" fill="#FEFFFE" transform="matrix(1.00, 0.00, -0.00, -1.00, 66.9, 17.0)">R</text><text xml:space="preserve" font-family="Avenir-Book" font-size="18.7" fill="#FEFFFE" transform="matrix(1.00, 0.00, -0.00, -1.00, 81.0, 17.0)">I</text><text xml:space="preserve" font-family="Avenir-Book" font-size="18.7" fill="#FEFFFE" transform="matrix(1.00, 0.00, -0.00, -1.00, 88.9, 17.0)">V</text><text xml:space="preserve" font-family="Avenir-Book" font-size="18.7" fill="#FEFFFE" transform="matrix(1.00, 0.00, -0.00, -1.00, 103.3, 17.0)">I</text><text xml:space="preserve" font-family="Avenir-Book" font-size="18.7" fill="#FEFFFE" transform="matrix(1.00, 0.00, -0.00, -1.00, 111.3, 17.0)">N</text><text xml:space="preserve" font-family="Avenir-Book" font-size="18.7" fill="#FEFFFE" transform="matrix(1.00, 0.00, -0.00, -1.00, 128.8, 17.0)">G</text><text xml:space="preserve" font-family="Avenir-Book" font-size="18.7" fill="#FEFFFE" transform="matrix(1.00, 0.00, -0.00, -1.00, 146.4, 17.0)"> </text><text xml:space="preserve" font-family="Avenir-Book" font-size="18.7" fill="#FEFFFE" transform="matrix(1.00, 0.00, -0.00, -1.00, 154.6, 17.0)">T</text><text xml:space="preserve" font-family="Avenir-Book" font-size="18.7" fill="#FEFFFE" transform="matrix(1.00, 0.00, -0.00, -1.00, 168.3, 17.0)">H</text><text xml:space="preserve" font-family="Avenir-Book" font-size="18.7" fill="#FEFFFE" transform="matrix(1.00, 0.00, -0.00, -1.00, 184.8, 17.0)">E</text><text xml:space="preserve" font-family="Avenir-Book" font-size="18.7" fill="#FEFFFE" transform="matrix(1.00, 0.00, -0.00, -1.00, 198.9, 17.0)"> </text><text xml:space="preserve" font-family="Avenir-Book" font-size="18.7" fill="#FEFFFE" transform="matrix(1.00, 0.00, -0.00, -1.00, 207.1, 17.0)">A</text><text xml:space="preserve" font-family="Avenir-Book" font-size="18.7" fill="#FEFFFE" transform="matrix(1.00, 0.00, -0.00, -1.00, 223.0, 17.0)">L</text><text xml:space="preserve" font-family="Avenir-Book" font-size="18.7" fill="#FEFFFE" transform="matrix(1.00, 0.00, -0.00, -1.00, 235.3, 17.0)">A</text><text xml:space="preserve" font-family="Avenir-Book" font-size="18.7" fill="#FEFFFE" transform="matrix(1.00, 0.00, -0.00, -1.00, 251.2, 17.0)">S</text><text xml:space="preserve" font-family="Avenir-Book" font-size="18.7" fill="#FEFFFE" transform="matrix(1.00, 0.00, -0.00, -1.00, 264.6, 17.0)">K</text><text xml:space="preserve" font-family="Avenir-Book" font-size="18.7" fill="#FEFFFE" transform="matrix(1.00, 0.00, -0.00, -1.00, 279.4, 17.0)">A</text><text xml:space="preserve" font-family="Avenir-Book" font-size="18.7" fill="#FEFFFE" transform="matrix(1.00, 0.00, -0.00, -1.00, 295.2, 17.0)"> </text><text xml:space="preserve" font-family="Avenir-Book" font-size="18.7" fill="#FEFFFE" transform="matrix(1.00, 0.00, -0.00, -1.00, 303.4, 17.0)">H</text><text xml:space="preserve" font-family="Avenir-Book" font-size="18.7" fill="#FEFFFE" transform="matrix(1.00, 0.00, -0.00, -1.00, 319.9, 17.0)">I</text><text xml:space="preserve" font-family="Avenir-Book" font-size="18.7" fill="#FEFFFE" transform="matrix(1.00, 0.00, -0.00, -1.00, 327.8, 17.0)">G</text><text xml:space="preserve" font-family="Avenir-Book" font-size="18.7" fill="#FEFFFE" transform="matrix(1.00, 0.00, -0.00, -1.00, 345.4, 17.0)">H</text><text xml:space="preserve" font-family="Avenir-Book" font-size="18.7" fill="#FEFFFE" transform="matrix(1.00, 0.00, -0.00, -1.00, 361.9, 17.0)">W</text><text xml:space="preserve" font-family="Avenir-Book" font-size="18.7" fill="#FEFFFE" transform="matrix(1.00, 0.00, -0.00, -1.00, 382.2, 17.0)">A</text><text xml:space="preserve" font-family="Avenir-Book" font-size="18.7" fill="#FEFFFE" transform="matrix(1.00, 0.00, -0.00, -1.00, 396.7, 17.0)">Y</text><text xml:space="preserve" font-family="Avenir-Book" font-size="18.7" fill="#FEFFFE" transform="matrix(1.00, 0.00, -0.00, -1.00, 410.4, 17.0)"> </text><text xml:space="preserve" font-family="Avenir-Book" font-size="18.7" fill="#FEFFFE" transform="matrix(1.00, 0.00, -0.00, -1.00, 418.6, 17.0)">T</text><text xml:space="preserve" font-family="Avenir-Book" font-size="18.7" fill="#FEFFFE" transform="matrix(1.00, 0.00, -0.00, -1.00, 432.4, 17.0)">H</text><text xml:space="preserve" font-family="Avenir-Book" font-size="18.7" fill="#FEFFFE" transform="matrix(1.00, 0.00, -0.00, -1.00, 448.9, 17.0)">R</text><text xml:space="preserve" font-family="Avenir-Book" font-size="18.7" fill="#FEFFFE" transform="matrix(1.00, 0.00, -0.00, -1.00, 463.0, 17.0)">O</text><text xml:space="preserve" font-family="Avenir-Book" font-size="18.7" fill="#FEFFFE" transform="matrix(1.00, 0.00, -0.00, -1.00, 481.6, 17.0)">U</text><text xml:space="preserve" font-family="Avenir-Book" font-size="18.7" fill="#FEFFFE" transform="matrix(1.00, 0.00, -0.00, -1.00, 497.4, 17.0)">G</text><text xml:space="preserve" font-family="Avenir-Book" font-size="18.7" fill="#FEFFFE" transform="matrix(1.00, 0.00, -0.00, -1.00, 515.0, 17.0)">H</text><text xml:space="preserve" font-family="Avenir-Book" font-size="18.7" fill="#FEFFFE" transform="matrix(1.00, 0.00, -0.00, -1.00, 531.5, 17.0)"> </text><text xml:space="preserve" font-family="Avenir-Book" font-size="18.7" fill="#FEFFFE" transform="matrix(1.00, 0.00, -0.00, -1.00, 539.7, 17.0)">T</text><text xml:space="preserve" font-family="Avenir-Book" font-size="18.7" fill="#FEFFFE" transform="matrix(1.00, 0.00, -0.00, -1.00, 553.4, 17.0)">H</text><text xml:space="preserve" font-family="Avenir-Book" font-size="18.7" fill="#FEFFFE" transform="matrix(1.00, 0.00, -0.00, -1.00, 569.9, 17.0)">E</text><text xml:space="preserve" font-family="Avenir-Book" font-size="18.7" fill="#FEFFFE" transform="matrix(1.00, 0.00, -0.00, -1.00, 584.0, 17.0)"> </text><text xml:space="preserve" font-family="Avenir-Book" font-size="18.7" fill="#FEFFFE" transform="matrix(1.00, 0.00, -0.00, -1.00, 592.2, 17.0)">R</text><text xml:space="preserve" font-family="Avenir-Book" font-size="18.7" fill="#FEFFFE" transform="matrix(1.00, 0.00, -0.00, -1.00, 606.3, 17.0)">O</text><text xml:space="preserve" font-family="Avenir-Book" font-size="18.7" fill="#FEFFFE" transform="matrix(1.00, 0.00, -0.00, -1.00, 624.9, 17.0)">C</text><text xml:space="preserve" font-family="Avenir-Book" font-size="18.7" fill="#FEFFFE" transform="matrix(1.00, 0.00, -0.00, -1.00, 641.1, 17.0)">K</text><text xml:space="preserve" font-family="Avenir-Book" font-size="18.7" fill="#FEFFFE" transform="matrix(1.00, 0.00, -0.00, -1.00, 655.9, 17.0)">I</text><text xml:space="preserve" font-family="Avenir-Book" font-size="18.7" fill="#FEFFFE" transform="matrix(1.00, 0.00, -0.00, -1.00, 663.8, 17.0)">E</text><text xml:space="preserve" font-family="Avenir-Book" font-size="18.7" fill="#FEFFFE" transform="matrix(1.00, 0.00, -0.00, -1.00, 677.9, 17.0)">S</text><text xml:space="preserve" font-family="Avenir-Book" font-size="18.7" fill="#FEFFFE" transform="matrix(1.00, 0.00, -0.00, -1.00, 691.3, 17.0)"> </text><text xml:space="preserve" font-family="Avenir-Book" font-size="18.7" fill="#FEFFFE" transform="matrix(1.00, 0.00, -0.00, -1.00, 699.5, 17.0)">(</text><text xml:space="preserve" font-family="Avenir-Book" font-size="18.7" fill="#FEFFFE" transform="matrix(1.00, 0.00, -0.00, -1.00, 707.4, 17.0)">B</text><text xml:space="preserve" font-family="Avenir-Book" font-size="18.7" fill="#FEFFFE" transform="matrix(1.00, 0.00, -0.00, -1.00, 722.2, 17.0)">C</text><text xml:space="preserve" font-family="Avenir-Book" font-size="18.7" fill="#FEFFFE" transform="matrix(1.00, 0.00, -0.00, -1.00, 738.4, 17.0)">)</text><text xml:space="preserve" font-family="Avenir-Book" font-size="18.7" fill="#FEFFFE" transform="matrix(1.00, 0.00, -0.00, -1.00, 746.2, 17.0)">,</text><text xml:space="preserve" font-family="Avenir-Book" font-size="18.7" fill="#FEFFFE" transform="matrix(1.00, 0.00, -0.00, -1.00, 754.4, 17.0)"> </text><text xml:space="preserve" font-family="Avenir-Book" font-size="18.7" fill="#FEFFFE" transform="matrix(1.00, 0.00, -0.00, -1.00, 762.6, 17.0)">D</text><text xml:space="preserve" font-family="Avenir-Book" font-size="18.7" fill="#FEFFFE" transform="matrix(1.00, 0.00, -0.00, -1.00, 779.5, 17.0)">A</text><text xml:space="preserve" font-family="Avenir-Book" font-size="18.7" fill="#FEFFFE" transform="matrix(1.00, 0.00, -0.00, -1.00, 794.0, 17.0)">Y</text><text xml:space="preserve" font-family="Avenir-Book" font-size="18.7" fill="#FEFFFE" transform="matrix(1.00, 0.00, -0.00, -1.00, 807.7, 17.0)"> </text><text xml:space="preserve" font-family="Avenir-Book" font-size="18.7" fill="#FEFFFE" transform="matrix(1.00, 0.00, -0.00, -1.00, 815.9, 17.0)">2</text><text xml:space="preserve" font-family="Avenir-Book" font-size="18.7" fill="#FEFFFE" transform="matrix(1.00, 0.00, -0.00, -1.00, 829.3, 17.0)"> </text><text xml:space="preserve" font-family="Avenir-Book" font-size="18.7" fill="#FEFFFE" transform="matrix(1.00, 0.00, -0.00, -1.00, 837.5, 17.0)">(</text><text xml:space="preserve" font-family="Avenir-Book" font-size="18.7" fill="#FEFFFE" transform="matrix(1.00, 0.00, -0.00, -1.00, 845.4, 17.0)">1</text><text xml:space="preserve" font-family="Avenir-Book" font-size="18.7" fill="#FEFFFE" transform="matrix(1.00, 0.00, -0.00, -1.00, 858.8, 17.0)">0</text><text xml:space="preserve" font-family="Avenir-Book" font-size="18.7" fill="#FEFFFE" transform="matrix(1.00, 0.00, -0.00, -1.00, 872.2, 17.0)">9</text><text xml:space="preserve" font-family="Avenir-Book" font-size="18.7" fill="#FEFFFE" transform="matrix(1.00, 0.00, -0.00, -1.00, 885.6, 17.0)">1</text><text xml:space="preserve" font-family="Avenir-Book" font-size="18.7" fill="#FEFFFE" transform="matrix(1.00, 0.00, -0.00, -1.00, 899.0, 17.0)"> </text><text xml:space="preserve" font-family="Avenir-Book" font-size="18.7" fill="#FEFFFE" transform="matrix(1.00, 0.00, -0.00, -1.00, 907.2, 17.0)">K</text><text xml:space="preserve" font-family="Avenir-Book" font-size="18.7" fill="#FEFFFE" transform="matrix(1.00, 0.00, -0.00, -1.00, 922.0, 17.0)">M</text><text xml:space="preserve" font-family="Avenir-Book" font-size="18.7" fill="#FEFFFE" transform="matrix(1.00, 0.00, -0.00, -1.00, 941.6, 17.0)">)</text></g></svg>