<?xml version="1.0" encoding="UTF-8"?><svg xmlns="http://www.w3.org/2000/svg" xmlns:xlink="http://www.w3.org/1999/xlink" clip-rule="evenodd" stroke-miterlimit="4.00" viewBox="0 0 1024 768"><desc>SVG generated by Keynote</desc><defs></defs><g transform="matrix(1.00, 0.00, -0.00, -1.00, 0.0, 768.0)"><path d="M 0.0 768.0 L 1024.0 768.0 L 1024.0 0.0 L 0.0 0.0 Z M 0.0 768.0 " fill="#000000"></path><g><clipPath id="clip-97"><path d="M 0.0 384.0 L 512.0 384.0 L 512.0 0.0 L 0.0 0.0 Z M 0.0 384.0 "></path></clipPath><g clip-path="url(#clip-97)"><image xlink:href="../../751E28D6-EA5B-4AAA-B089-8ABD1624C671/assets/FCB50F2C102EB4466349A261A946982B.jpeg" width="578.00" height="384.00" transform="matrix(1.00, 0.00, -0.00, -1.00, -33.0, 425.0)"></image></g></g><path d="M 0.0 0.0 L 0.0 343.3 L 512.0 343.3 L 512.0 0.0 L 0.0 0.0 Z M 0.0 0.0 " fill="none" stroke="#000000" stroke-width="3.00" transform="matrix(1.00, 0.00, 0.00, -1.00, 0.0, 384.0)"></path><g><clipPath id="clip-98"><path d="M 0.0 384.0 L 512.0 384.0 L 512.0 768.0 L 0.0 768.0 Z M 0.0 384.0 "></path></clipPath><g clip-path="url(#clip-98)"><image xlink:href="../../751E28D6-EA5B-4AAA-B089-8ABD1624C671/assets/F9073EED1758FA4581AE898D0F55F234.jpeg" width="1074.00" height="714.00" transform="matrix(1.00, 0.00, -0.00, -1.00, -281.0, 933.0)"></image></g></g><path d="M 0.0 0.0 L 0.0 384.0 L 512.0 384.0 L 512.0 0.0 L 0.0 0.0 Z M 0.0 0.0 " fill="none" stroke="#000000" stroke-width="3.00" transform="matrix(1.00, 0.00, 0.00, -1.00, 0.0, 768.0)"></path><g><clipPath id="clip-99"><path d="M 512.0 767.0 L 1024.0 767.0 L 1024.0 41.0 L 512.0 41.0 Z M 512.0 767.1 "></path></clipPath><g clip-path="url(#clip-99)"><image xlink:href="../../751E28D6-EA5B-4AAA-B089-8ABD1624C671/assets/210D266CDC1F06C3A9137C6F4017DBBB.jpeg" width="1156.00" height="769.00" transform="matrix(1.00, 0.00, -0.00, -1.00, 190.0, 784.0)"></image></g></g><path d="M 0.0 0.0 L 0.0 726.6 L 512.0 726.6 L 512.0 0.0 L 0.0 0.0 Z M 0.0 0.0 " fill="none" stroke="#000000" stroke-width="3.00" transform="matrix(1.00, 0.00, 0.00, -1.00, 512.0, 767.1)"></path><text xml:space="preserve" font-family="Avenir-Light" font-size="17.3" fill="#FEFFFE" transform="matrix(1.00, 0.00, -0.00, -1.00, 66.0, 15.0)">D</text><text xml:space="preserve" font-family="Avenir-Light" font-size="17.3" fill="#FEFFFE" transform="matrix(1.00, 0.00, -0.00, -1.00, 81.6, 15.0)">R</text><text xml:space="preserve" font-family="Avenir-Light" font-size="17.3" fill="#FEFFFE" transform="matrix(1.00, 0.00, -0.00, -1.00, 94.6, 15.0)">I</text><text xml:space="preserve" font-family="Avenir-Light" font-size="17.3" fill="#FEFFFE" transform="matrix(1.00, 0.00, -0.00, -1.00, 101.8, 15.0)">V</text><text xml:space="preserve" font-family="Avenir-Light" font-size="17.3" fill="#FEFFFE" transform="matrix(1.00, 0.00, -0.00, -1.00, 114.9, 15.0)">I</text><text xml:space="preserve" font-family="Avenir-Light" font-size="17.3" fill="#FEFFFE" transform="matrix(1.00, 0.00, -0.00, -1.00, 122.1, 15.0)">N</text><text xml:space="preserve" font-family="Avenir-Light" font-size="17.3" fill="#FEFFFE" transform="matrix(1.00, 0.00, -0.00, -1.00, 138.3, 15.0)">G</text><text xml:space="preserve" font-family="Avenir-Light" font-size="17.3" fill="#FEFFFE" transform="matrix(1.00, 0.00, -0.00, -1.00, 154.5, 15.0)"> </text><text xml:space="preserve" font-family="Avenir-Light" font-size="17.3" fill="#FEFFFE" transform="matrix(1.00, 0.00, -0.00, -1.00, 161.8, 15.0)">T</text><text xml:space="preserve" font-family="Avenir-Light" font-size="17.3" fill="#FEFFFE" transform="matrix(1.00, 0.00, -0.00, -1.00, 174.5, 15.0)">H</text><text xml:space="preserve" font-family="Avenir-Light" font-size="17.3" fill="#FEFFFE" transform="matrix(1.00, 0.00, -0.00, -1.00, 189.7, 15.0)">E</text><text xml:space="preserve" font-family="Avenir-Light" font-size="17.3" fill="#FEFFFE" transform="matrix(1.00, 0.00, -0.00, -1.00, 202.7, 15.0)"> </text><text xml:space="preserve" font-family="Avenir-Light" font-size="17.3" fill="#FEFFFE" transform="matrix(1.00, 0.00, -0.00, -1.00, 210.0, 15.0)">A</text><text xml:space="preserve" font-family="Avenir-Light" font-size="17.3" fill="#FEFFFE" transform="matrix(1.00, 0.00, -0.00, -1.00, 224.6, 15.0)">L</text><text xml:space="preserve" font-family="Avenir-Light" font-size="17.3" fill="#FEFFFE" transform="matrix(1.00, 0.00, -0.00, -1.00, 236.0, 15.0)">A</text><text xml:space="preserve" font-family="Avenir-Light" font-size="17.3" fill="#FEFFFE" transform="matrix(1.00, 0.00, -0.00, -1.00, 250.6, 15.0)">S</text><text xml:space="preserve" font-family="Avenir-Light" font-size="17.3" fill="#FEFFFE" transform="matrix(1.00, 0.00, -0.00, -1.00, 263.0, 15.0)">K</text><text xml:space="preserve" font-family="Avenir-Light" font-size="17.3" fill="#FEFFFE" transform="matrix(1.00, 0.00, -0.00, -1.00, 276.3, 15.0)">A</text><text xml:space="preserve" font-family="Avenir-Light" font-size="17.3" fill="#FEFFFE" transform="matrix(1.00, 0.00, -0.00, -1.00, 290.9, 15.0)"> </text><text xml:space="preserve" font-family="Avenir-Light" font-size="17.3" fill="#FEFFFE" transform="matrix(1.00, 0.00, -0.00, -1.00, 298.1, 15.0)">H</text><text xml:space="preserve" font-family="Avenir-Light" font-size="17.3" fill="#FEFFFE" transform="matrix(1.00, 0.00, -0.00, -1.00, 313.4, 15.0)">I</text><text xml:space="preserve" font-family="Avenir-Light" font-size="17.3" fill="#FEFFFE" transform="matrix(1.00, 0.00, -0.00, -1.00, 320.6, 15.0)">G</text><text xml:space="preserve" font-family="Avenir-Light" font-size="17.3" fill="#FEFFFE" transform="matrix(1.00, 0.00, -0.00, -1.00, 336.8, 15.0)">H</text><text xml:space="preserve" font-family="Avenir-Light" font-size="17.3" fill="#FEFFFE" transform="matrix(1.00, 0.00, -0.00, -1.00, 352.1, 15.0)">W</text><text xml:space="preserve" font-family="Avenir-Light" font-size="17.3" fill="#FEFFFE" transform="matrix(1.00, 0.00, -0.00, -1.00, 370.9, 15.0)">A</text><text xml:space="preserve" font-family="Avenir-Light" font-size="17.3" fill="#FEFFFE" transform="matrix(1.00, 0.00, -0.00, -1.00, 384.2, 15.0)">Y</text><text xml:space="preserve" font-family="Avenir-Light" font-size="17.3" fill="#FEFFFE" transform="matrix(1.00, 0.00, -0.00, -1.00, 396.9, 15.0)"> </text><text xml:space="preserve" font-family="Avenir-Light" font-size="17.3" fill="#FEFFFE" transform="matrix(1.00, 0.00, -0.00, -1.00, 404.1, 15.0)">T</text><text xml:space="preserve" font-family="Avenir-Light" font-size="17.3" fill="#FEFFFE" transform="matrix(1.00, 0.00, -0.00, -1.00, 416.8, 15.0)">H</text><text xml:space="preserve" font-family="Avenir-Light" font-size="17.3" fill="#FEFFFE" transform="matrix(1.00, 0.00, -0.00, -1.00, 432.0, 15.0)">R</text><text xml:space="preserve" font-family="Avenir-Light" font-size="17.3" fill="#FEFFFE" transform="matrix(1.00, 0.00, -0.00, -1.00, 445.1, 15.0)">O</text><text xml:space="preserve" font-family="Avenir-Light" font-size="17.3" fill="#FEFFFE" transform="matrix(1.00, 0.00, -0.00, -1.00, 462.2, 15.0)">U</text><text xml:space="preserve" font-family="Avenir-Light" font-size="17.3" fill="#FEFFFE" transform="matrix(1.00, 0.00, -0.00, -1.00, 476.8, 15.0)">G</text><text xml:space="preserve" font-family="Avenir-Light" font-size="17.3" fill="#FEFFFE" transform="matrix(1.00, 0.00, -0.00, -1.00, 493.0, 15.0)">H</text><text xml:space="preserve" font-family="Avenir-Light" font-size="17.3" fill="#FEFFFE" transform="matrix(1.00, 0.00, -0.00, -1.00, 508.3, 15.0)"> </text><text xml:space="preserve" font-family="Avenir-Light" font-size="17.3" fill="#FEFFFE" transform="matrix(1.00, 0.00, -0.00, -1.00, 515.5, 15.0)">T</text><text xml:space="preserve" font-family="Avenir-Light" font-size="17.3" fill="#FEFFFE" transform="matrix(1.00, 0.00, -0.00, -1.00, 528.2, 15.0)">H</text><text xml:space="preserve" font-family="Avenir-Light" font-size="17.3" fill="#FEFFFE" transform="matrix(1.00, 0.00, -0.00, -1.00, 543.4, 15.0)">E</text><text xml:space="preserve" font-family="Avenir-Light" font-size="17.3" fill="#FEFFFE" transform="matrix(1.00, 0.00, -0.00, -1.00, 556.5, 15.0)"> </text><text xml:space="preserve" font-family="Avenir-Light" font-size="17.3" fill="#FEFFFE" transform="matrix(1.00, 0.00, -0.00, -1.00, 563.7, 15.0)">N</text><text xml:space="preserve" font-family="Avenir-Light" font-size="17.3" fill="#FEFFFE" transform="matrix(1.00, 0.00, -0.00, -1.00, 579.9, 15.0)">O</text><text xml:space="preserve" font-family="Avenir-Light" font-size="17.3" fill="#FEFFFE" transform="matrix(1.00, 0.00, -0.00, -1.00, 597.1, 15.0)">R</text><text xml:space="preserve" font-family="Avenir-Light" font-size="17.3" fill="#FEFFFE" transform="matrix(1.00, 0.00, -0.00, -1.00, 610.2, 15.0)">T</text><text xml:space="preserve" font-family="Avenir-Light" font-size="17.3" fill="#FEFFFE" transform="matrix(1.00, 0.00, -0.00, -1.00, 622.9, 15.0)">H</text><text xml:space="preserve" font-family="Avenir-Light" font-size="17.3" fill="#FEFFFE" transform="matrix(1.00, 0.00, -0.00, -1.00, 638.1, 15.0)">E</text><text xml:space="preserve" font-family="Avenir-Light" font-size="17.3" fill="#FEFFFE" transform="matrix(1.00, 0.00, -0.00, -1.00, 651.2, 15.0)">R</text><text xml:space="preserve" font-family="Avenir-Light" font-size="17.3" fill="#FEFFFE" transform="matrix(1.00, 0.00, -0.00, -1.00, 664.2, 15.0)">N</text><text xml:space="preserve" font-family="Avenir-Light" font-size="17.3" fill="#FEFFFE" transform="matrix(1.00, 0.00, -0.00, -1.00, 680.4, 15.0)"> </text><text xml:space="preserve" font-family="Avenir-Light" font-size="17.3" fill="#FEFFFE" transform="matrix(1.00, 0.00, -0.00, -1.00, 687.6, 15.0)">R</text><text xml:space="preserve" font-family="Avenir-Light" font-size="17.3" fill="#FEFFFE" transform="matrix(1.00, 0.00, -0.00, -1.00, 700.6, 15.0)">O</text><text xml:space="preserve" font-family="Avenir-Light" font-size="17.3" fill="#FEFFFE" transform="matrix(1.00, 0.00, -0.00, -1.00, 717.8, 15.0)">C</text><text xml:space="preserve" font-family="Avenir-Light" font-size="17.3" fill="#FEFFFE" transform="matrix(1.00, 0.00, -0.00, -1.00, 732.7, 15.0)">K</text><text xml:space="preserve" font-family="Avenir-Light" font-size="17.3" fill="#FEFFFE" transform="matrix(1.00, 0.00, -0.00, -1.00, 746.1, 15.0)">I</text><text xml:space="preserve" font-family="Avenir-Light" font-size="17.3" fill="#FEFFFE" transform="matrix(1.00, 0.00, -0.00, -1.00, 753.3, 15.0)">E</text><text xml:space="preserve" font-family="Avenir-Light" font-size="17.3" fill="#FEFFFE" transform="matrix(1.00, 0.00, -0.00, -1.00, 766.3, 15.0)">S</text><text xml:space="preserve" font-family="Avenir-Light" font-size="17.3" fill="#FEFFFE" transform="matrix(1.00, 0.00, -0.00, -1.00, 778.7, 15.0)">,</text><text xml:space="preserve" font-family="Avenir-Light" font-size="17.3" fill="#FEFFFE" transform="matrix(1.00, 0.00, -0.00, -1.00, 786.0, 15.0)"> </text><text xml:space="preserve" font-family="Avenir-Light" font-size="17.3" fill="#FEFFFE" transform="matrix(1.00, 0.00, -0.00, -1.00, 793.2, 15.0)">D</text><text xml:space="preserve" font-family="Avenir-Light" font-size="17.3" fill="#FEFFFE" transform="matrix(1.00, 0.00, -0.00, -1.00, 808.8, 15.0)">A</text><text xml:space="preserve" font-family="Avenir-Light" font-size="17.3" fill="#FEFFFE" transform="matrix(1.00, 0.00, -0.00, -1.00, 822.1, 15.0)">Y</text><text xml:space="preserve" font-family="Avenir-Light" font-size="17.3" fill="#FEFFFE" transform="matrix(1.00, 0.00, -0.00, -1.00, 834.8, 15.0)"> </text><text xml:space="preserve" font-family="Avenir-Light" font-size="17.3" fill="#FEFFFE" transform="matrix(1.00, 0.00, -0.00, -1.00, 842.1, 15.0)">2</text><text xml:space="preserve" font-family="Avenir-Light" font-size="17.3" fill="#FEFFFE" transform="matrix(1.00, 0.00, -0.00, -1.00, 853.8, 15.0)"> </text><text xml:space="preserve" font-family="Avenir-Light" font-size="17.3" fill="#FEFFFE" transform="matrix(1.00, 0.00, -0.00, -1.00, 861.1, 15.0)">(</text><text xml:space="preserve" font-family="Avenir-Light" font-size="17.3" fill="#FEFFFE" transform="matrix(1.00, 0.00, -0.00, -1.00, 868.3, 15.0)">1</text><text xml:space="preserve" font-family="Avenir-Light" font-size="17.3" fill="#FEFFFE" transform="matrix(1.00, 0.00, -0.00, -1.00, 880.1, 15.0)">0</text><text xml:space="preserve" font-family="Avenir-Light" font-size="17.3" fill="#FEFFFE" transform="matrix(1.00, 0.00, -0.00, -1.00, 891.8, 15.0)">9</text><text xml:space="preserve" font-family="Avenir-Light" font-size="17.3" fill="#FEFFFE" transform="matrix(1.00, 0.00, -0.00, -1.00, 903.6, 15.0)">1</text><text xml:space="preserve" font-family="Avenir-Light" font-size="17.3" fill="#FEFFFE" transform="matrix(1.00, 0.00, -0.00, -1.00, 915.3, 15.0)"> </text><text xml:space="preserve" font-family="Avenir-Light" font-size="17.3" fill="#FEFFFE" transform="matrix(1.00, 0.00, -0.00, -1.00, 922.6, 15.0)">K</text><text xml:space="preserve" font-family="Avenir-Light" font-size="17.3" fill="#FEFFFE" transform="matrix(1.00, 0.00, -0.00, -1.00, 935.9, 15.0)">M</text><text xml:space="preserve" font-family="Avenir-Light" font-size="17.3" fill="#FEFFFE" transform="matrix(1.00, 0.00, -0.00, -1.00, 954.0, 15.0)">)</text></g></svg>