<?xml version="1.0" encoding="UTF-8"?><svg xmlns="http://www.w3.org/2000/svg" xmlns:xlink="http://www.w3.org/1999/xlink" clip-rule="evenodd" stroke-miterlimit="4.00" viewBox="0 0 1024 768"><desc>SVG generated by Keynote</desc><defs></defs><g transform="matrix(1.00, 0.00, -0.00, -1.00, 0.0, 768.0)"><path d="M 0.0 768.0 L 1024.0 768.0 L 1024.0 0.0 L 0.0 0.0 Z M 0.0 768.0 " fill="#000000"></path><g><clipPath id="clip-100"><path d="M 512.0 384.0 L 1024.0 384.0 L 1024.0 0.0 L 512.0 0.0 Z M 512.0 383.8 "></path></clipPath><g clip-path="url(#clip-100)"><image xlink:href="F01AD271D760806A997F566A9562AE96.jpeg" width="578.00" height="384.00" transform="matrix(1.00, 0.00, -0.00, -1.00, 448.0, 384.0)"></image></g></g><path d="M 0.0 0.0 L 0.0 384.0 L 512.0 384.0 L 512.0 0.0 L 0.0 0.0 Z M 0.0 0.0 " fill="none" stroke="#000000" stroke-width="3.00" transform="matrix(1.00, 0.00, 0.00, -1.00, 512.0, 383.8)"></path><g><clipPath id="clip-101"><path d="M 512.0 768.0 L 1024.0 768.0 L 1024.0 384.0 L 512.0 384.0 Z M 512.0 768.0 "></path></clipPath><g clip-path="url(#clip-101)"><image xlink:href="B7C2D1A64651F58C08EFEB9953EA1DC1.jpeg" width="578.00" height="384.00" transform="matrix(1.00, 0.00, -0.00, -1.00, 511.0, 768.0)"></image></g></g><path d="M 0.0 0.0 L 0.0 384.0 L 512.0 384.0 L 512.0 0.0 L 0.0 0.0 Z M 0.0 0.0 " fill="none" stroke="#000000" stroke-width="3.00" transform="matrix(1.00, 0.00, 0.00, -1.00, 512.0, 768.0)"></path><g><clipPath id="clip-102"><path d="M 0.0 0.0 L 512.0 0.0 L 512.0 768.0 L 0.0 768.0 Z M 0.0 0.0 "></path></clipPath><g clip-path="url(#clip-102)"><image xlink:href="6ED34CCAEC3E740831F213E3610B4AF7.jpeg" width="1156.00" height="769.00" transform="matrix(1.00, 0.00, -0.00, -1.00, -322.0, 768.0)"></image></g></g><path d="M 0.0 0.0 L 0.0 768.0 L 512.0 768.0 L 512.0 0.0 L 0.0 0.0 Z M 0.0 0.0 " fill="none" stroke="#000000" stroke-width="3.00" transform="matrix(1.00, 0.00, 0.00, -1.00, 0.0, 768.0)"></path><text xml:space="preserve" font-family="Avenir-Light" font-size="21.2" fill="#FEFFFF" transform="matrix(1.00, 0.00, -0.00, -1.00, 13.0, 11.0)">W</text><text xml:space="preserve" font-family="Avenir-Light" font-size="21.2" fill="#FEFFFF" transform="matrix(1.00, 0.00, -0.00, -1.00, 36.3, 11.0)">E</text><text xml:space="preserve" font-family="Avenir-Light" font-size="21.2" fill="#FEFFFF" transform="matrix(1.00, 0.00, -0.00, -1.00, 52.3, 11.0)">A</text><text xml:space="preserve" font-family="Avenir-Light" font-size="21.2" fill="#FEFFFF" transform="matrix(1.00, 0.00, -0.00, -1.00, 68.7, 11.0)">T</text><text xml:space="preserve" font-family="Avenir-Light" font-size="21.2" fill="#FEFFFF" transform="matrix(1.00, 0.00, -0.00, -1.00, 84.2, 11.0)">H</text><text xml:space="preserve" font-family="Avenir-Light" font-size="21.2" fill="#FEFFFF" transform="matrix(1.00, 0.00, -0.00, -1.00, 102.9, 11.0)">E</text><text xml:space="preserve" font-family="Avenir-Light" font-size="21.2" fill="#FEFFFF" transform="matrix(1.00, 0.00, -0.00, -1.00, 118.8, 11.0)">R</text><text xml:space="preserve" font-family="Avenir-Light" font-size="21.2" fill="#FEFFFF" transform="matrix(1.00, 0.00, -0.00, -1.00, 134.7, 11.0)">,</text><text xml:space="preserve" font-family="Avenir-Light" font-size="21.2" fill="#FEFFFF" transform="matrix(1.00, 0.00, -0.00, -1.00, 143.6, 11.0)"> </text><text xml:space="preserve" font-family="Avenir-Light" font-size="21.2" fill="#FEFFFF" transform="matrix(1.00, 0.00, -0.00, -1.00, 152.5, 11.0)">W</text><text xml:space="preserve" font-family="Avenir-Light" font-size="21.2" fill="#FEFFFF" transform="matrix(1.00, 0.00, -0.00, -1.00, 175.9, 11.0)">I</text><text xml:space="preserve" font-family="Avenir-Light" font-size="21.2" fill="#FEFFFF" transform="matrix(1.00, 0.00, -0.00, -1.00, 184.7, 11.0)">L</text><text xml:space="preserve" font-family="Avenir-Light" font-size="21.2" fill="#FEFFFF" transform="matrix(1.00, 0.00, -0.00, -1.00, 198.7, 11.0)">D</text><text xml:space="preserve" font-family="Avenir-Light" font-size="21.2" fill="#FEFFFF" transform="matrix(1.00, 0.00, -0.00, -1.00, 217.8, 11.0)">L</text><text xml:space="preserve" font-family="Avenir-Light" font-size="21.2" fill="#FEFFFF" transform="matrix(1.00, 0.00, -0.00, -1.00, 231.7, 11.0)">I</text><text xml:space="preserve" font-family="Avenir-Light" font-size="21.2" fill="#FEFFFF" transform="matrix(1.00, 0.00, -0.00, -1.00, 240.6, 11.0)">F</text><text xml:space="preserve" font-family="Avenir-Light" font-size="21.2" fill="#FEFFFF" transform="matrix(1.00, 0.00, -0.00, -1.00, 255.7, 11.0)">E</text><text xml:space="preserve" font-family="Avenir-Light" font-size="21.2" fill="#FEFFFF" transform="matrix(1.00, 0.00, -0.00, -1.00, 271.7, 11.0)"> </text><text xml:space="preserve" font-family="Avenir-Light" font-size="21.2" fill="#FEFFFF" transform="matrix(1.00, 0.00, -0.00, -1.00, 280.5, 11.0)">(</text><text xml:space="preserve" font-family="Avenir-Light" font-size="21.2" fill="#FEFFFF" transform="matrix(1.00, 0.00, -0.00, -1.00, 289.4, 11.0)">B</text><text xml:space="preserve" font-family="Avenir-Light" font-size="21.2" fill="#FEFFFF" transform="matrix(1.00, 0.00, -0.00, -1.00, 306.1, 11.0)">I</text><text xml:space="preserve" font-family="Avenir-Light" font-size="21.2" fill="#FEFFFF" transform="matrix(1.00, 0.00, -0.00, -1.00, 315.0, 11.0)">S</text><text xml:space="preserve" font-family="Avenir-Light" font-size="21.2" fill="#FEFFFF" transform="matrix(1.00, 0.00, -0.00, -1.00, 330.2, 11.0)">O</text><text xml:space="preserve" font-family="Avenir-Light" font-size="21.2" fill="#FEFFFF" transform="matrix(1.00, 0.00, -0.00, -1.00, 351.2, 11.0)">N</text><text xml:space="preserve" font-family="Avenir-Light" font-size="21.2" fill="#FEFFFF" transform="matrix(1.00, 0.00, -0.00, -1.00, 371.0, 11.0)">S</text><text xml:space="preserve" font-family="Avenir-Light" font-size="21.2" fill="#FEFFFF" transform="matrix(1.00, 0.00, -0.00, -1.00, 386.2, 11.0)"> </text><text xml:space="preserve" font-family="Avenir-Light" font-size="21.2" fill="#FEFFFF" transform="matrix(1.00, 0.00, -0.00, -1.00, 395.1, 11.0)">/</text><text xml:space="preserve" font-family="Avenir-Light" font-size="21.2" fill="#FEFFFF" transform="matrix(1.00, 0.00, -0.00, -1.00, 406.3, 11.0)"> </text><text xml:space="preserve" font-family="Avenir-Light" font-size="21.2" fill="#FEFFFF" transform="matrix(1.00, 0.00, -0.00, -1.00, 415.1, 11.0)">M</text><text xml:space="preserve" font-family="Avenir-Light" font-size="21.2" fill="#FEFFFF" transform="matrix(1.00, 0.00, -0.00, -1.00, 437.3, 11.0)">O</text><text xml:space="preserve" font-family="Avenir-Light" font-size="21.2" fill="#FEFFFF" transform="matrix(1.00, 0.00, -0.00, -1.00, 458.4, 11.0)">O</text><text xml:space="preserve" font-family="Avenir-Light" font-size="21.2" fill="#FEFFFF" transform="matrix(1.00, 0.00, -0.00, -1.00, 479.4, 11.0)">S</text><text xml:space="preserve" font-family="Avenir-Light" font-size="21.2" fill="#FEFFFF" transform="matrix(1.00, 0.00, -0.00, -1.00, 494.5, 11.0)">E</text><text xml:space="preserve" font-family="Avenir-Light" font-size="21.2" fill="#FEFFFF" transform="matrix(1.00, 0.00, -0.00, -1.00, 510.4, 11.0)"> </text><text xml:space="preserve" font-family="Avenir-Light" font-size="21.2" fill="#FEFFFF" transform="matrix(1.00, 0.00, -0.00, -1.00, 519.3, 11.0)">P</text><text xml:space="preserve" font-family="Avenir-Light" font-size="21.2" fill="#FEFFFF" transform="matrix(1.00, 0.00, -0.00, -1.00, 534.9, 11.0)">I</text><text xml:space="preserve" font-family="Avenir-Light" font-size="21.2" fill="#FEFFFF" transform="matrix(1.00, 0.00, -0.00, -1.00, 543.7, 11.0)">C</text><text xml:space="preserve" font-family="Avenir-Light" font-size="21.2" fill="#FEFFFF" transform="matrix(1.00, 0.00, -0.00, -1.00, 562.0, 11.0)">T</text><text xml:space="preserve" font-family="Avenir-Light" font-size="21.2" fill="#FEFFFF" transform="matrix(1.00, 0.00, -0.00, -1.00, 577.5, 11.0)">U</text><text xml:space="preserve" font-family="Avenir-Light" font-size="21.2" fill="#FEFFFF" transform="matrix(1.00, 0.00, -0.00, -1.00, 595.4, 11.0)">R</text><text xml:space="preserve" font-family="Avenir-Light" font-size="21.2" fill="#FEFFFF" transform="matrix(1.00, 0.00, -0.00, -1.00, 611.3, 11.0)">E</text><text xml:space="preserve" font-family="Avenir-Light" font-size="21.2" fill="#FEFFFF" transform="matrix(1.00, 0.00, -0.00, -1.00, 627.2, 11.0)">D</text><text xml:space="preserve" font-family="Avenir-Light" font-size="21.2" fill="#FEFFFF" transform="matrix(1.00, 0.00, -0.00, -1.00, 646.3, 11.0)">)</text><text xml:space="preserve" font-family="Avenir-Light" font-size="21.2" fill="#FEFFFF" transform="matrix(1.00, 0.00, -0.00, -1.00, 655.2, 11.0)"> </text><text xml:space="preserve" font-family="Avenir-Light" font-size="21.2" fill="#FEFFFF" transform="matrix(1.00, 0.00, -0.00, -1.00, 664.1, 11.0)">&amp;</text><text xml:space="preserve" font-family="Avenir-Light" font-size="21.2" fill="#FEFFFF" transform="matrix(1.00, 0.00, -0.00, -1.00, 682.3, 11.0)"> </text><text xml:space="preserve" font-family="Avenir-Light" font-size="21.2" fill="#FEFFFF" transform="matrix(1.00, 0.00, -0.00, -1.00, 691.2, 11.0)">O</text><text xml:space="preserve" font-family="Avenir-Light" font-size="21.2" fill="#FEFFFF" transform="matrix(1.00, 0.00, -0.00, -1.00, 712.2, 11.0)">T</text><text xml:space="preserve" font-family="Avenir-Light" font-size="21.2" fill="#FEFFFF" transform="matrix(1.00, 0.00, -0.00, -1.00, 727.8, 11.0)">H</text><text xml:space="preserve" font-family="Avenir-Light" font-size="21.2" fill="#FEFFFF" transform="matrix(1.00, 0.00, -0.00, -1.00, 746.4, 11.0)">E</text><text xml:space="preserve" font-family="Avenir-Light" font-size="21.2" fill="#FEFFFF" transform="matrix(1.00, 0.00, -0.00, -1.00, 762.3, 11.0)">R</text><text xml:space="preserve" font-family="Avenir-Light" font-size="21.2" fill="#FEFFFF" transform="matrix(1.00, 0.00, -0.00, -1.00, 778.3, 11.0)"> </text><text xml:space="preserve" font-family="Avenir-Light" font-size="21.2" fill="#FEFFFF" transform="matrix(1.00, 0.00, -0.00, -1.00, 787.2, 11.0)">R</text><text xml:space="preserve" font-family="Avenir-Light" font-size="21.2" fill="#FEFFFF" transform="matrix(1.00, 0.00, -0.00, -1.00, 803.1, 11.0)">O</text><text xml:space="preserve" font-family="Avenir-Light" font-size="21.2" fill="#FEFFFF" transform="matrix(1.00, 0.00, -0.00, -1.00, 824.1, 11.0)">A</text><text xml:space="preserve" font-family="Avenir-Light" font-size="21.2" fill="#FEFFFF" transform="matrix(1.00, 0.00, -0.00, -1.00, 842.0, 11.0)">D</text><text xml:space="preserve" font-family="Avenir-Light" font-size="21.2" fill="#FEFFFF" transform="matrix(1.00, 0.00, -0.00, -1.00, 861.0, 11.0)"> </text><text xml:space="preserve" font-family="Avenir-Light" font-size="21.2" fill="#FEFFFF" transform="matrix(1.00, 0.00, -0.00, -1.00, 869.9, 11.0)">H</text><text xml:space="preserve" font-family="Avenir-Light" font-size="21.2" fill="#FEFFFF" transform="matrix(1.00, 0.00, -0.00, -1.00, 888.6, 11.0)">A</text><text xml:space="preserve" font-family="Avenir-Light" font-size="21.2" fill="#FEFFFF" transform="matrix(1.00, 0.00, -0.00, -1.00, 906.4, 11.0)">Z</text><text xml:space="preserve" font-family="Avenir-Light" font-size="21.2" fill="#FEFFFF" transform="matrix(1.00, 0.00, -0.00, -1.00, 921.6, 11.0)">A</text><text xml:space="preserve" font-family="Avenir-Light" font-size="21.2" fill="#FEFFFF" transform="matrix(1.00, 0.00, -0.00, -1.00, 939.5, 11.0)">R</text><text xml:space="preserve" font-family="Avenir-Light" font-size="21.2" fill="#FEFFFF" transform="matrix(1.00, 0.00, -0.00, -1.00, 955.4, 11.0)">D</text><text xml:space="preserve" font-family="Avenir-Light" font-size="21.2" fill="#FEFFFF" transform="matrix(1.00, 0.00, -0.00, -1.00, 974.4, 11.0)">S</text></g></svg>